<?xml version="1.0" encoding="UTF-8" standalone="no"?>
<!DOCTYPE svg PUBLIC "-//W3C//DTD SVG 1.1//EN"
 "http://www.w3.org/Graphics/SVG/1.1/DTD/svg11.dtd">
<!-- Generated by graphviz version 2.36.0 (20140111.2315)
 -->
<!-- Title: backEnd.GameOfLife.getNext Pages: 1 -->
<svg width="582pt" height="211pt"
 viewBox="0.00 0.00 582.00 211.00" xmlns="http://www.w3.org/2000/svg" xmlns:xlink="http://www.w3.org/1999/xlink">
<g id="graph0" class="graph" transform="scale(1 1) rotate(0) translate(4 207)">
<title>backEnd.GameOfLife.getNext</title>
<polygon fill="white" stroke="none" points="-4,4 -4,-207 578,-207 578,4 -4,4"/>
<!-- Node1 -->
<g id="node1" class="node"><title>Node1</title>
<polygon fill="#bfbfbf" stroke="black" points="0,-101.5 0,-120.5 158,-120.5 158,-101.5 0,-101.5"/>
<text text-anchor="middle" x="79" y="-108.5" font-family="Helvetica,sans-Serif" font-size="10.00">backEnd.GameOfLife.getNext</text>
</g>
<!-- Node2 -->
<g id="node2" class="node"><title>Node2</title>
<g id="a_node2"><a xlink:href="../../db/d5e/classback_end_1_1_patch.html#ae544417dcc2d70361cb77d46dd63c60b" target="_top" xlink:title="backEnd.Patch.clear">
<polygon fill="white" stroke="black" points="219.5,-183.5 219.5,-202.5 332.5,-202.5 332.5,-183.5 219.5,-183.5"/>
<text text-anchor="middle" x="276" y="-190.5" font-family="Helvetica,sans-Serif" font-size="10.00">backEnd.Patch.clear</text>
</a>
</g>
</g>
<!-- Node1&#45;&gt;Node2 -->
<g id="edge1" class="edge"><title>Node1&#45;&gt;Node2</title>
<path fill="none" stroke="midnightblue" d="M94.4846,-120.722C115.542,-134.448 156.228,-159.452 194,-174 200.672,-176.57 207.792,-178.856 214.938,-180.872"/>
<polygon fill="midnightblue" stroke="midnightblue" points="214.095,-184.27 224.658,-183.456 215.893,-177.505 214.095,-184.27"/>
</g>
<!-- Node3 -->
<g id="node3" class="node"><title>Node3</title>
<g id="a_node3"><a xlink:href="../../db/d5e/classback_end_1_1_patch.html#a04e1b0dd4e2f8ff26d8fd31dc09954fa" target="_top" xlink:title="backEnd.Patch.containsCell">
<polygon fill="white" stroke="black" points="202.5,-145.5 202.5,-164.5 349.5,-164.5 349.5,-145.5 202.5,-145.5"/>
<text text-anchor="middle" x="276" y="-152.5" font-family="Helvetica,sans-Serif" font-size="10.00">backEnd.Patch.containsCell</text>
</a>
</g>
</g>
<!-- Node1&#45;&gt;Node3 -->
<g id="edge2" class="edge"><title>Node1&#45;&gt;Node3</title>
<path fill="none" stroke="midnightblue" d="M122.312,-120.547C151.826,-127.207 191.4,-136.136 222.863,-143.236"/>
<polygon fill="midnightblue" stroke="midnightblue" points="222.245,-146.684 232.77,-145.471 223.786,-139.856 222.245,-146.684"/>
</g>
<!-- Node4 -->
<g id="node4" class="node"><title>Node4</title>
<g id="a_node4"><a xlink:href="../../d5/dcb/classback_end_1_1_game_of_life.html#aebb3b607ec62b9ae836ba4a2a9776cee" target="_top" xlink:title="backEnd.GameOfLife.count\lLiveNeighbors">
<polygon fill="white" stroke="black" points="203,-96 203,-126 349,-126 349,-96 203,-96"/>
<text text-anchor="start" x="211" y="-114" font-family="Helvetica,sans-Serif" font-size="10.00">backEnd.GameOfLife.count</text>
<text text-anchor="middle" x="276" y="-103" font-family="Helvetica,sans-Serif" font-size="10.00">LiveNeighbors</text>
</a>
</g>
</g>
<!-- Node1&#45;&gt;Node4 -->
<g id="edge3" class="edge"><title>Node1&#45;&gt;Node4</title>
<path fill="none" stroke="midnightblue" d="M158.19,-111C169.467,-111 181.102,-111 192.46,-111"/>
<polygon fill="midnightblue" stroke="midnightblue" points="192.794,-114.5 202.794,-111 192.794,-107.5 192.794,-114.5"/>
</g>
<!-- Node6 -->
<g id="node6" class="node"><title>Node6</title>
<g id="a_node6"><a xlink:href="../../db/d5e/classback_end_1_1_patch.html#ac9c7bf582f9e7aec34492785fea4cf68" target="_top" xlink:title="backEnd.Patch.fill">
<polygon fill="white" stroke="black" points="226.5,-57.5 226.5,-76.5 325.5,-76.5 325.5,-57.5 226.5,-57.5"/>
<text text-anchor="middle" x="276" y="-64.5" font-family="Helvetica,sans-Serif" font-size="10.00">backEnd.Patch.fill</text>
</a>
</g>
</g>
<!-- Node1&#45;&gt;Node6 -->
<g id="edge5" class="edge"><title>Node1&#45;&gt;Node6</title>
<path fill="none" stroke="midnightblue" d="M122.312,-101.453C151.826,-94.7931 191.4,-85.8637 222.863,-78.7642"/>
<polygon fill="midnightblue" stroke="midnightblue" points="223.786,-82.144 232.77,-76.5287 222.245,-75.3157 223.786,-82.144"/>
</g>
<!-- Node7 -->
<g id="node7" class="node"><title>Node7</title>
<g id="a_node7"><a xlink:href="../../d1/dfc/classback_end_1_1_rule_set.html#ac09e709af5a347c28f6cafb0aa4f0d34" target="_top" xlink:title="backEnd.RuleSet.getNeighbors">
<polygon fill="white" stroke="black" points="194,-19.5 194,-38.5 358,-38.5 358,-19.5 194,-19.5"/>
<text text-anchor="middle" x="276" y="-26.5" font-family="Helvetica,sans-Serif" font-size="10.00">backEnd.RuleSet.getNeighbors</text>
</a>
</g>
</g>
<!-- Node1&#45;&gt;Node7 -->
<g id="edge6" class="edge"><title>Node1&#45;&gt;Node7</title>
<path fill="none" stroke="midnightblue" d="M94.4846,-101.278C115.542,-87.5525 156.228,-62.5477 194,-48 200.672,-45.4303 207.792,-43.144 214.938,-41.1275"/>
<polygon fill="midnightblue" stroke="midnightblue" points="215.893,-44.4953 224.658,-38.5438 214.095,-37.7302 215.893,-44.4953"/>
</g>
<!-- Node5 -->
<g id="node5" class="node"><title>Node5</title>
<g id="a_node5"><a xlink:href="../../d5/de7/jquery_8js.html#a2335e57f79b6acfb6de59c235dc8a83e" target="_top" xlink:title="p">
<polygon fill="white" stroke="black" points="469.5,-101.5 469.5,-120.5 498.5,-120.5 498.5,-101.5 469.5,-101.5"/>
<text text-anchor="middle" x="484" y="-108.5" font-family="Helvetica,sans-Serif" font-size="10.00">p</text>
</a>
</g>
</g>
<!-- Node4&#45;&gt;Node5 -->
<g id="edge4" class="edge"><title>Node4&#45;&gt;Node5</title>
<path fill="none" stroke="midnightblue" d="M349.049,-111C387.424,-111 432.118,-111 458.953,-111"/>
<polygon fill="midnightblue" stroke="midnightblue" points="459.289,-114.5 469.289,-111 459.289,-107.5 459.289,-114.5"/>
</g>
<!-- Node8 -->
<g id="node8" class="node"><title>Node8</title>
<g id="a_node8"><a xlink:href="../../d1/dfc/classback_end_1_1_rule_set.html#ace087d13be0cf3e1f723a663d0e06d8b" target="_top" xlink:title="backEnd.RuleSet.isOutside">
<polygon fill="white" stroke="black" points="412.5,-38.5 412.5,-57.5 555.5,-57.5 555.5,-38.5 412.5,-38.5"/>
<text text-anchor="middle" x="484" y="-45.5" font-family="Helvetica,sans-Serif" font-size="10.00">backEnd.RuleSet.isOutside</text>
</a>
</g>
</g>
<!-- Node7&#45;&gt;Node8 -->
<g id="edge7" class="edge"><title>Node7&#45;&gt;Node8</title>
<path fill="none" stroke="midnightblue" d="M358.121,-36.482C372.526,-37.8107 387.531,-39.1946 401.934,-40.5231"/>
<polygon fill="midnightblue" stroke="midnightblue" points="402.02,-44.0458 412.3,-41.4791 402.663,-37.0754 402.02,-44.0458"/>
</g>
<!-- Node9 -->
<g id="node9" class="node"><title>Node9</title>
<g id="a_node9"><a xlink:href="../../d1/dfc/classback_end_1_1_rule_set.html#a625f1cd5d7e0e5d6acf7d47e28beb41e" target="_top" xlink:title="backEnd.RuleSet.addWrapArounds">
<polygon fill="white" stroke="black" points="394,-0.5 394,-19.5 574,-19.5 574,-0.5 394,-0.5"/>
<text text-anchor="middle" x="484" y="-7.5" font-family="Helvetica,sans-Serif" font-size="10.00">backEnd.RuleSet.addWrapArounds</text>
</a>
</g>
</g>
<!-- Node7&#45;&gt;Node9 -->
<g id="edge8" class="edge"><title>Node7&#45;&gt;Node9</title>
<path fill="none" stroke="midnightblue" d="M358.121,-21.518C366.537,-20.7417 375.158,-19.9466 383.743,-19.1547"/>
<polygon fill="midnightblue" stroke="midnightblue" points="384.156,-22.6316 393.792,-18.2279 383.513,-15.6612 384.156,-22.6316"/>
</g>
</g>
</svg>
