<?xml version="1.0" encoding="UTF-8" standalone="no"?>
<!DOCTYPE svg PUBLIC "-//W3C//DTD SVG 1.1//EN"
 "http://www.w3.org/Graphics/SVG/1.1/DTD/svg11.dtd">
<!-- Generated by graphviz version 2.36.0 (20140111.2315)
 -->
<!-- Title: backEnd.RuleSet Pages: 1 -->
<svg width="266pt" height="180pt"
 viewBox="0.00 0.00 266.00 180.00" xmlns="http://www.w3.org/2000/svg" xmlns:xlink="http://www.w3.org/1999/xlink">
<g id="graph0" class="graph" transform="scale(1 1) rotate(0) translate(4 176)">
<title>backEnd.RuleSet</title>
<polygon fill="white" stroke="none" points="-4,4 -4,-176 262,-176 262,4 -4,4"/>
<!-- Node1 -->
<g id="node1" class="node"><title>Node1</title>
<polygon fill="#bfbfbf" stroke="black" points="0,-76.5 0,-95.5 96,-95.5 96,-76.5 0,-76.5"/>
<text text-anchor="middle" x="48" y="-83.5" font-family="Helvetica,sans-Serif" font-size="10.00">backEnd.RuleSet</text>
</g>
<!-- Node2 -->
<g id="node2" class="node"><title>Node2</title>
<g id="a_node2"><a xlink:href="../../d5/dcb/classback_end_1_1_game_of_life.html" target="_top" xlink:title="backEnd.GameOfLife">
<polygon fill="white" stroke="black" points="137,-152.5 137,-171.5 253,-171.5 253,-152.5 137,-152.5"/>
<text text-anchor="middle" x="195" y="-159.5" font-family="Helvetica,sans-Serif" font-size="10.00">backEnd.GameOfLife</text>
</a>
</g>
</g>
<!-- Node1&#45;&gt;Node2 -->
<g id="edge1" class="edge"><title>Node1&#45;&gt;Node2</title>
<path fill="none" stroke="midnightblue" d="M68.5246,-101.959C84.7113,-114.543 108.754,-131.783 132,-143 139.604,-146.669 148.075,-149.819 156.251,-152.44"/>
<polygon fill="midnightblue" stroke="midnightblue" points="70.406,-98.9845 60.3952,-95.5155 66.0576,-104.47 70.406,-98.9845"/>
</g>
<!-- Node3 -->
<g id="node3" class="node"><title>Node3</title>
<g id="a_node3"><a xlink:href="../../d0/d96/classback_end_1_1_predator_prey.html" target="_top" xlink:title="backEnd.PredatorPrey">
<polygon fill="white" stroke="black" points="134,-114.5 134,-133.5 256,-133.5 256,-114.5 134,-114.5"/>
<text text-anchor="middle" x="195" y="-121.5" font-family="Helvetica,sans-Serif" font-size="10.00">backEnd.PredatorPrey</text>
</a>
</g>
</g>
<!-- Node1&#45;&gt;Node3 -->
<g id="edge2" class="edge"><title>Node1&#45;&gt;Node3</title>
<path fill="none" stroke="midnightblue" d="M95.4928,-98.1843C115.624,-103.46 138.838,-109.544 157.673,-114.48"/>
<polygon fill="midnightblue" stroke="midnightblue" points="96.1503,-94.7385 85.5896,-95.589 94.3757,-101.51 96.1503,-94.7385"/>
</g>
<!-- Node4 -->
<g id="node4" class="node"><title>Node4</title>
<g id="a_node4"><a xlink:href="../../d9/d2e/classback_end_1_1_segregation.html" target="_top" xlink:title="backEnd.Segregation">
<polygon fill="white" stroke="black" points="135.5,-76.5 135.5,-95.5 254.5,-95.5 254.5,-76.5 135.5,-76.5"/>
<text text-anchor="middle" x="195" y="-83.5" font-family="Helvetica,sans-Serif" font-size="10.00">backEnd.Segregation</text>
</a>
</g>
</g>
<!-- Node1&#45;&gt;Node4 -->
<g id="edge3" class="edge"><title>Node1&#45;&gt;Node4</title>
<path fill="none" stroke="midnightblue" d="M106.307,-86C115.9,-86 125.864,-86 135.487,-86"/>
<polygon fill="midnightblue" stroke="midnightblue" points="106.077,-82.5001 96.0773,-86 106.077,-89.5001 106.077,-82.5001"/>
</g>
<!-- Node5 -->
<g id="node5" class="node"><title>Node5</title>
<g id="a_node5"><a xlink:href="../../de/d5a/classback_end_1_1_spreading_fire.html" target="_top" xlink:title="backEnd.SpreadingFire">
<polygon fill="white" stroke="black" points="132.5,-38.5 132.5,-57.5 257.5,-57.5 257.5,-38.5 132.5,-38.5"/>
<text text-anchor="middle" x="195" y="-45.5" font-family="Helvetica,sans-Serif" font-size="10.00">backEnd.SpreadingFire</text>
</a>
</g>
</g>
<!-- Node1&#45;&gt;Node5 -->
<g id="edge4" class="edge"><title>Node1&#45;&gt;Node5</title>
<path fill="none" stroke="midnightblue" d="M95.4928,-73.8157C115.624,-68.54 138.838,-62.4562 157.673,-57.5201"/>
<polygon fill="midnightblue" stroke="midnightblue" points="94.3757,-70.4902 85.5896,-76.411 96.1503,-77.2615 94.3757,-70.4902"/>
</g>
<!-- Node6 -->
<g id="node6" class="node"><title>Node6</title>
<g id="a_node6"><a xlink:href="../../de/d49/classback_end_1_1_sugar_scape.html" target="_top" xlink:title="backEnd.SugarScape">
<polygon fill="white" stroke="black" points="135.5,-0.5 135.5,-19.5 254.5,-19.5 254.5,-0.5 135.5,-0.5"/>
<text text-anchor="middle" x="195" y="-7.5" font-family="Helvetica,sans-Serif" font-size="10.00">backEnd.SugarScape</text>
</a>
</g>
</g>
<!-- Node1&#45;&gt;Node6 -->
<g id="edge5" class="edge"><title>Node1&#45;&gt;Node6</title>
<path fill="none" stroke="midnightblue" d="M68.5246,-70.0406C84.7113,-57.457 108.754,-40.2169 132,-29 139.604,-25.3306 148.075,-22.1805 156.251,-19.5603"/>
<polygon fill="midnightblue" stroke="midnightblue" points="66.0576,-67.5298 60.3952,-76.4845 70.406,-73.0155 66.0576,-67.5298"/>
</g>
</g>
</svg>
