<?xml version="1.0" encoding="UTF-8" standalone="no"?>
<!DOCTYPE svg PUBLIC "-//W3C//DTD SVG 1.1//EN"
 "http://www.w3.org/Graphics/SVG/1.1/DTD/svg11.dtd">
<!-- Generated by graphviz version 2.36.0 (20140111.2315)
 -->
<!-- Title: frontEnd.CASettings.getRows Pages: 1 -->
<svg width="1072pt" height="147pt"
 viewBox="0.00 0.00 1072.00 147.00" xmlns="http://www.w3.org/2000/svg" xmlns:xlink="http://www.w3.org/1999/xlink">
<g id="graph0" class="graph" transform="scale(1 1) rotate(0) translate(4 143)">
<title>frontEnd.CASettings.getRows</title>
<polygon fill="white" stroke="none" points="-4,4 -4,-143 1068,-143 1068,4 -4,4"/>
<!-- Node1 -->
<g id="node1" class="node"><title>Node1</title>
<polygon fill="#bfbfbf" stroke="black" points="0.5,-37.5 0.5,-56.5 155.5,-56.5 155.5,-37.5 0.5,-37.5"/>
<text text-anchor="middle" x="78" y="-44.5" font-family="Helvetica,sans-Serif" font-size="10.00">frontEnd.CASettings.getRows</text>
</g>
<!-- Node2 -->
<g id="node2" class="node"><title>Node2</title>
<g id="a_node2"><a xlink:href="../../dc/da1/classfront_end_1_1_animator_loop.html#a1f378b18807af5386266685e907aa8c7" target="_top" xlink:title="frontEnd.AnimatorLoop.read\lXMLAndInitializeGrid">
<polygon fill="white" stroke="black" points="192,-76 192,-106 344,-106 344,-76 192,-76"/>
<text text-anchor="start" x="200" y="-94" font-family="Helvetica,sans-Serif" font-size="10.00">frontEnd.AnimatorLoop.read</text>
<text text-anchor="middle" x="268" y="-83" font-family="Helvetica,sans-Serif" font-size="10.00">XMLAndInitializeGrid</text>
</a>
</g>
</g>
<!-- Node1&#45;&gt;Node2 -->
<g id="edge1" class="edge"><title>Node1&#45;&gt;Node2</title>
<path fill="none" stroke="midnightblue" d="M129.777,-58.884C152.205,-64.1331 178.829,-70.3642 202.63,-75.9346"/>
<polygon fill="midnightblue" stroke="midnightblue" points="130.328,-55.4184 119.793,-56.5473 128.732,-62.2342 130.328,-55.4184"/>
</g>
<!-- Node9 -->
<g id="node9" class="node"><title>Node9</title>
<g id="a_node9"><a xlink:href="../../d0/d87/classfront_end_1_1_x_m_l_handler.html#a8b7864cb0ca3ba8aad07a5b093145861" target="_top" xlink:title="frontEnd.XMLHandler.write">
<polygon fill="white" stroke="black" points="197,-37.5 197,-56.5 339,-56.5 339,-37.5 197,-37.5"/>
<text text-anchor="middle" x="268" y="-44.5" font-family="Helvetica,sans-Serif" font-size="10.00">frontEnd.XMLHandler.write</text>
</a>
</g>
</g>
<!-- Node1&#45;&gt;Node9 -->
<g id="edge10" class="edge"><title>Node1&#45;&gt;Node9</title>
<path fill="none" stroke="midnightblue" d="M166.017,-47C176.352,-47 186.801,-47 196.859,-47"/>
<polygon fill="midnightblue" stroke="midnightblue" points="165.738,-43.5001 155.738,-47 165.738,-50.5001 165.738,-43.5001"/>
</g>
<!-- Node10 -->
<g id="node10" class="node"><title>Node10</title>
<g id="a_node10"><a xlink:href="../../dc/da1/classfront_end_1_1_animator_loop.html#abeeeb7294620845e96455930decbd7bf" target="_top" xlink:title="frontEnd.AnimatorLoop.write\lToXML">
<polygon fill="white" stroke="black" points="380.5,-0 380.5,-30 533.5,-30 533.5,-0 380.5,-0"/>
<text text-anchor="start" x="388.5" y="-18" font-family="Helvetica,sans-Serif" font-size="10.00">frontEnd.AnimatorLoop.write</text>
<text text-anchor="middle" x="457" y="-7" font-family="Helvetica,sans-Serif" font-size="10.00">ToXML</text>
</a>
</g>
</g>
<!-- Node1&#45;&gt;Node10 -->
<g id="edge14" class="edge"><title>Node1&#45;&gt;Node10</title>
<path fill="none" stroke="midnightblue" d="M138.035,-35.7293C155.365,-32.7857 174.392,-29.9071 192,-28 255.301,-21.1437 327.536,-17.9007 380.426,-16.3683"/>
<polygon fill="midnightblue" stroke="midnightblue" points="137.305,-32.3036 128.051,-37.4631 138.503,-39.2004 137.305,-32.3036"/>
</g>
<!-- Node3 -->
<g id="node3" class="node"><title>Node3</title>
<g id="a_node3"><a xlink:href="../../dd/dbe/classfront_end_1_1_main.html#a7bae3127415fb2ae80975ebc95057e3f" target="_top" xlink:title="frontEnd.Main.readXML">
<polygon fill="white" stroke="black" points="393.5,-81.5 393.5,-100.5 520.5,-100.5 520.5,-81.5 393.5,-81.5"/>
<text text-anchor="middle" x="457" y="-88.5" font-family="Helvetica,sans-Serif" font-size="10.00">frontEnd.Main.readXML</text>
</a>
</g>
</g>
<!-- Node2&#45;&gt;Node3 -->
<g id="edge2" class="edge"><title>Node2&#45;&gt;Node3</title>
<path fill="none" stroke="midnightblue" d="M354.287,-91C367.489,-91 380.911,-91 393.49,-91"/>
<polygon fill="midnightblue" stroke="midnightblue" points="354.252,-87.5001 344.252,-91 354.252,-94.5001 354.252,-87.5001"/>
</g>
<!-- Node4 -->
<g id="node4" class="node"><title>Node4</title>
<g id="a_node4"><a xlink:href="../../dd/dbe/classfront_end_1_1_main.html#a55d59b110825a1cc153a0091a6e5cb99" target="_top" xlink:title="frontEnd.Main.makeMenu">
<polygon fill="white" stroke="black" points="758.5,-43.5 758.5,-62.5 897.5,-62.5 897.5,-43.5 758.5,-43.5"/>
<text text-anchor="middle" x="828" y="-50.5" font-family="Helvetica,sans-Serif" font-size="10.00">frontEnd.Main.makeMenu</text>
</a>
</g>
</g>
<!-- Node3&#45;&gt;Node4 -->
<g id="edge3" class="edge"><title>Node3&#45;&gt;Node4</title>
<path fill="none" stroke="midnightblue" d="M530.933,-83.4893C597.038,-76.6817 693.741,-66.7231 758.449,-60.0595"/>
<polygon fill="midnightblue" stroke="midnightblue" points="530.185,-80.0478 520.596,-84.5538 530.902,-87.0109 530.185,-80.0478"/>
</g>
<!-- Node6 -->
<g id="node6" class="node"><title>Node6</title>
<g id="a_node6"><a xlink:href="../../dd/dbe/classfront_end_1_1_main.html#a8e2e836903a64069e4283fa66309c704" target="_top" xlink:title="frontEnd.Main.resetSim">
<polygon fill="white" stroke="black" points="570.5,-119.5 570.5,-138.5 699.5,-138.5 699.5,-119.5 570.5,-119.5"/>
<text text-anchor="middle" x="635" y="-126.5" font-family="Helvetica,sans-Serif" font-size="10.00">frontEnd.Main.resetSim</text>
</a>
</g>
</g>
<!-- Node3&#45;&gt;Node6 -->
<g id="edge5" class="edge"><title>Node3&#45;&gt;Node6</title>
<path fill="none" stroke="midnightblue" d="M512.433,-102.753C537.319,-108.126 566.419,-114.409 589.907,-119.48"/>
<polygon fill="midnightblue" stroke="midnightblue" points="512.926,-99.2784 502.412,-100.589 511.448,-106.121 512.926,-99.2784"/>
</g>
<!-- Node5 -->
<g id="node5" class="node"><title>Node5</title>
<g id="a_node5"><a xlink:href="../../dd/dbe/classfront_end_1_1_main.html#ae53f892716dcc60f3f49714496e30c91" target="_top" xlink:title="frontEnd.Main.start">
<polygon fill="white" stroke="black" points="956,-81.5 956,-100.5 1064,-100.5 1064,-81.5 956,-81.5"/>
<text text-anchor="middle" x="1010" y="-88.5" font-family="Helvetica,sans-Serif" font-size="10.00">frontEnd.Main.start</text>
</a>
</g>
</g>
<!-- Node4&#45;&gt;Node5 -->
<g id="edge4" class="edge"><title>Node4&#45;&gt;Node5</title>
<path fill="none" stroke="midnightblue" d="M884.868,-64.6234C896.482,-67.0513 908.641,-69.6018 920,-72 934.531,-75.0681 950.391,-78.4447 964.644,-81.4897"/>
<polygon fill="midnightblue" stroke="midnightblue" points="885.34,-61.1466 874.836,-62.5282 883.909,-67.9987 885.34,-61.1466"/>
</g>
<!-- Node7 -->
<g id="node7" class="node"><title>Node7</title>
<g id="a_node7"><a xlink:href="../../dd/dbe/classfront_end_1_1_main.html#a0ff8a007311f8ecce84d4203dc85d669" target="_top" xlink:title="frontEnd.Main.makeParamControls">
<polygon fill="white" stroke="black" points="736.5,-81.5 736.5,-100.5 919.5,-100.5 919.5,-81.5 736.5,-81.5"/>
<text text-anchor="middle" x="828" y="-88.5" font-family="Helvetica,sans-Serif" font-size="10.00">frontEnd.Main.makeParamControls</text>
</a>
</g>
</g>
<!-- Node6&#45;&gt;Node7 -->
<g id="edge6" class="edge"><title>Node6&#45;&gt;Node7</title>
<path fill="none" stroke="midnightblue" d="M694.353,-117.39C721.518,-111.986 753.432,-105.636 779.149,-100.52"/>
<polygon fill="midnightblue" stroke="midnightblue" points="693.322,-114.027 684.197,-119.411 694.688,-120.892 693.322,-114.027"/>
</g>
<!-- Node8 -->
<g id="node8" class="node"><title>Node8</title>
<g id="a_node8"><a xlink:href="../../dd/dbe/classfront_end_1_1_main.html#a1f4c19654fe78e5ebca54fc26bf43c94" target="_top" xlink:title="frontEnd.Main.useControls">
<polygon fill="white" stroke="black" points="756.5,-119.5 756.5,-138.5 899.5,-138.5 899.5,-119.5 756.5,-119.5"/>
<text text-anchor="middle" x="828" y="-126.5" font-family="Helvetica,sans-Serif" font-size="10.00">frontEnd.Main.useControls</text>
</a>
</g>
</g>
<!-- Node6&#45;&gt;Node8 -->
<g id="edge8" class="edge"><title>Node6&#45;&gt;Node8</title>
<path fill="none" stroke="midnightblue" d="M710.02,-129C725.278,-129 741.307,-129 756.438,-129"/>
<polygon fill="midnightblue" stroke="midnightblue" points="709.6,-125.5 699.6,-129 709.6,-132.5 709.6,-125.5"/>
</g>
<!-- Node7&#45;&gt;Node3 -->
<g id="edge7" class="edge"><title>Node7&#45;&gt;Node3</title>
<path fill="none" stroke="midnightblue" d="M726.001,-91C660.344,-91 576.807,-91 520.596,-91"/>
<polygon fill="midnightblue" stroke="midnightblue" points="726.378,-94.5001 736.378,-91 726.378,-87.5001 726.378,-94.5001"/>
</g>
<!-- Node8&#45;&gt;Node5 -->
<g id="edge9" class="edge"><title>Node8&#45;&gt;Node5</title>
<path fill="none" stroke="midnightblue" d="M884.868,-117.377C896.482,-114.949 908.641,-112.398 920,-110 934.531,-106.932 950.391,-103.555 964.644,-100.51"/>
<polygon fill="midnightblue" stroke="midnightblue" points="883.909,-114.001 874.836,-119.472 885.34,-120.853 883.909,-114.001"/>
</g>
<!-- Node9&#45;&gt;Node10 -->
<g id="edge11" class="edge"><title>Node9&#45;&gt;Node10</title>
<path fill="none" stroke="midnightblue" d="M334.614,-35.772C349.342,-33.2517 365.086,-30.5575 380.191,-27.9727"/>
<polygon fill="midnightblue" stroke="midnightblue" points="333.866,-32.3489 324.6,-37.4856 335.047,-39.2486 333.866,-32.3489"/>
</g>
<!-- Node11 -->
<g id="node11" class="node"><title>Node11</title>
<g id="a_node11"><a xlink:href="../../dd/dbe/classfront_end_1_1_main.html#ae2ce98421793cead4539f6a0e9e63160" target="_top" xlink:title="frontEnd.Main.writeXML">
<polygon fill="white" stroke="black" points="571,-5.5 571,-24.5 699,-24.5 699,-5.5 571,-5.5"/>
<text text-anchor="middle" x="635" y="-12.5" font-family="Helvetica,sans-Serif" font-size="10.00">frontEnd.Main.writeXML</text>
</a>
</g>
</g>
<!-- Node10&#45;&gt;Node11 -->
<g id="edge12" class="edge"><title>Node10&#45;&gt;Node11</title>
<path fill="none" stroke="midnightblue" d="M543.88,-15C552.961,-15 562.071,-15 570.825,-15"/>
<polygon fill="midnightblue" stroke="midnightblue" points="543.661,-11.5001 533.661,-15 543.661,-18.5001 543.661,-11.5001"/>
</g>
<!-- Node11&#45;&gt;Node4 -->
<g id="edge13" class="edge"><title>Node11&#45;&gt;Node4</title>
<path fill="none" stroke="midnightblue" d="M694.353,-26.6095C721.518,-32.014 753.432,-38.3635 779.149,-43.4799"/>
<polygon fill="midnightblue" stroke="midnightblue" points="694.688,-23.1076 684.197,-24.589 693.322,-29.9731 694.688,-23.1076"/>
</g>
</g>
</svg>
