<?xml version="1.0" encoding="UTF-8" standalone="no"?>
<!DOCTYPE svg PUBLIC "-//W3C//DTD SVG 1.1//EN"
 "http://www.w3.org/Graphics/SVG/1.1/DTD/svg11.dtd">
<!-- Generated by graphviz version 2.36.0 (20140111.2315)
 -->
<!-- Title: frontEnd.CASettings.getColumns Pages: 1 -->
<svg width="1090pt" height="147pt"
 viewBox="0.00 0.00 1090.00 147.00" xmlns="http://www.w3.org/2000/svg" xmlns:xlink="http://www.w3.org/1999/xlink">
<g id="graph0" class="graph" transform="scale(1 1) rotate(0) translate(4 143)">
<title>frontEnd.CASettings.getColumns</title>
<polygon fill="white" stroke="none" points="-4,4 -4,-143 1086,-143 1086,4 -4,4"/>
<!-- Node1 -->
<g id="node1" class="node"><title>Node1</title>
<polygon fill="#bfbfbf" stroke="black" points="0,-37.5 0,-56.5 174,-56.5 174,-37.5 0,-37.5"/>
<text text-anchor="middle" x="87" y="-44.5" font-family="Helvetica,sans-Serif" font-size="10.00">frontEnd.CASettings.getColumns</text>
</g>
<!-- Node2 -->
<g id="node2" class="node"><title>Node2</title>
<g id="a_node2"><a xlink:href="../../dc/da1/classfront_end_1_1_animator_loop.html#a1f378b18807af5386266685e907aa8c7" target="_top" xlink:title="frontEnd.AnimatorLoop.read\lXMLAndInitializeGrid">
<polygon fill="white" stroke="black" points="210,-76 210,-106 362,-106 362,-76 210,-76"/>
<text text-anchor="start" x="218" y="-94" font-family="Helvetica,sans-Serif" font-size="10.00">frontEnd.AnimatorLoop.read</text>
<text text-anchor="middle" x="286" y="-83" font-family="Helvetica,sans-Serif" font-size="10.00">XMLAndInitializeGrid</text>
</a>
</g>
</g>
<!-- Node1&#45;&gt;Node2 -->
<g id="edge1" class="edge"><title>Node1&#45;&gt;Node2</title>
<path fill="none" stroke="midnightblue" d="M140.574,-58.7424C164.206,-64.0207 192.383,-70.314 217.548,-75.9346"/>
<polygon fill="midnightblue" stroke="midnightblue" points="141.269,-55.3114 130.746,-56.5473 139.743,-62.1431 141.269,-55.3114"/>
</g>
<!-- Node9 -->
<g id="node9" class="node"><title>Node9</title>
<g id="a_node9"><a xlink:href="../../d0/d87/classfront_end_1_1_x_m_l_handler.html#a8b7864cb0ca3ba8aad07a5b093145861" target="_top" xlink:title="frontEnd.XMLHandler.write">
<polygon fill="white" stroke="black" points="215,-37.5 215,-56.5 357,-56.5 357,-37.5 215,-37.5"/>
<text text-anchor="middle" x="286" y="-44.5" font-family="Helvetica,sans-Serif" font-size="10.00">frontEnd.XMLHandler.write</text>
</a>
</g>
</g>
<!-- Node1&#45;&gt;Node9 -->
<g id="edge10" class="edge"><title>Node1&#45;&gt;Node9</title>
<path fill="none" stroke="midnightblue" d="M184.336,-47C194.578,-47 204.852,-47 214.713,-47"/>
<polygon fill="midnightblue" stroke="midnightblue" points="184.121,-43.5001 174.12,-47 184.12,-50.5001 184.121,-43.5001"/>
</g>
<!-- Node10 -->
<g id="node10" class="node"><title>Node10</title>
<g id="a_node10"><a xlink:href="../../dc/da1/classfront_end_1_1_animator_loop.html#abeeeb7294620845e96455930decbd7bf" target="_top" xlink:title="frontEnd.AnimatorLoop.write\lToXML">
<polygon fill="white" stroke="black" points="398.5,-0 398.5,-30 551.5,-30 551.5,-0 398.5,-0"/>
<text text-anchor="start" x="406.5" y="-18" font-family="Helvetica,sans-Serif" font-size="10.00">frontEnd.AnimatorLoop.write</text>
<text text-anchor="middle" x="475" y="-7" font-family="Helvetica,sans-Serif" font-size="10.00">ToXML</text>
</a>
</g>
</g>
<!-- Node1&#45;&gt;Node10 -->
<g id="edge14" class="edge"><title>Node1&#45;&gt;Node10</title>
<path fill="none" stroke="midnightblue" d="M151.25,-35.8534C170.1,-32.8825 190.839,-29.9583 210,-28 273.341,-21.5264 345.573,-18.2512 398.451,-16.6091"/>
<polygon fill="midnightblue" stroke="midnightblue" points="150.608,-32.4116 141.29,-37.4544 151.719,-39.3229 150.608,-32.4116"/>
</g>
<!-- Node3 -->
<g id="node3" class="node"><title>Node3</title>
<g id="a_node3"><a xlink:href="../../dd/dbe/classfront_end_1_1_main.html#a7bae3127415fb2ae80975ebc95057e3f" target="_top" xlink:title="frontEnd.Main.readXML">
<polygon fill="white" stroke="black" points="411.5,-81.5 411.5,-100.5 538.5,-100.5 538.5,-81.5 411.5,-81.5"/>
<text text-anchor="middle" x="475" y="-88.5" font-family="Helvetica,sans-Serif" font-size="10.00">frontEnd.Main.readXML</text>
</a>
</g>
</g>
<!-- Node2&#45;&gt;Node3 -->
<g id="edge2" class="edge"><title>Node2&#45;&gt;Node3</title>
<path fill="none" stroke="midnightblue" d="M372.287,-91C385.489,-91 398.911,-91 411.49,-91"/>
<polygon fill="midnightblue" stroke="midnightblue" points="372.252,-87.5001 362.252,-91 372.252,-94.5001 372.252,-87.5001"/>
</g>
<!-- Node4 -->
<g id="node4" class="node"><title>Node4</title>
<g id="a_node4"><a xlink:href="../../dd/dbe/classfront_end_1_1_main.html#a55d59b110825a1cc153a0091a6e5cb99" target="_top" xlink:title="frontEnd.Main.makeMenu">
<polygon fill="white" stroke="black" points="776.5,-43.5 776.5,-62.5 915.5,-62.5 915.5,-43.5 776.5,-43.5"/>
<text text-anchor="middle" x="846" y="-50.5" font-family="Helvetica,sans-Serif" font-size="10.00">frontEnd.Main.makeMenu</text>
</a>
</g>
</g>
<!-- Node3&#45;&gt;Node4 -->
<g id="edge3" class="edge"><title>Node3&#45;&gt;Node4</title>
<path fill="none" stroke="midnightblue" d="M548.933,-83.4893C615.038,-76.6817 711.741,-66.7231 776.449,-60.0595"/>
<polygon fill="midnightblue" stroke="midnightblue" points="548.185,-80.0478 538.596,-84.5538 548.902,-87.0109 548.185,-80.0478"/>
</g>
<!-- Node6 -->
<g id="node6" class="node"><title>Node6</title>
<g id="a_node6"><a xlink:href="../../dd/dbe/classfront_end_1_1_main.html#a8e2e836903a64069e4283fa66309c704" target="_top" xlink:title="frontEnd.Main.resetSim">
<polygon fill="white" stroke="black" points="588.5,-119.5 588.5,-138.5 717.5,-138.5 717.5,-119.5 588.5,-119.5"/>
<text text-anchor="middle" x="653" y="-126.5" font-family="Helvetica,sans-Serif" font-size="10.00">frontEnd.Main.resetSim</text>
</a>
</g>
</g>
<!-- Node3&#45;&gt;Node6 -->
<g id="edge5" class="edge"><title>Node3&#45;&gt;Node6</title>
<path fill="none" stroke="midnightblue" d="M530.433,-102.753C555.319,-108.126 584.419,-114.409 607.907,-119.48"/>
<polygon fill="midnightblue" stroke="midnightblue" points="530.926,-99.2784 520.412,-100.589 529.448,-106.121 530.926,-99.2784"/>
</g>
<!-- Node5 -->
<g id="node5" class="node"><title>Node5</title>
<g id="a_node5"><a xlink:href="../../dd/dbe/classfront_end_1_1_main.html#ae53f892716dcc60f3f49714496e30c91" target="_top" xlink:title="frontEnd.Main.start">
<polygon fill="white" stroke="black" points="974,-81.5 974,-100.5 1082,-100.5 1082,-81.5 974,-81.5"/>
<text text-anchor="middle" x="1028" y="-88.5" font-family="Helvetica,sans-Serif" font-size="10.00">frontEnd.Main.start</text>
</a>
</g>
</g>
<!-- Node4&#45;&gt;Node5 -->
<g id="edge4" class="edge"><title>Node4&#45;&gt;Node5</title>
<path fill="none" stroke="midnightblue" d="M902.868,-64.6234C914.482,-67.0513 926.641,-69.6018 938,-72 952.531,-75.0681 968.391,-78.4447 982.644,-81.4897"/>
<polygon fill="midnightblue" stroke="midnightblue" points="903.34,-61.1466 892.836,-62.5282 901.909,-67.9987 903.34,-61.1466"/>
</g>
<!-- Node7 -->
<g id="node7" class="node"><title>Node7</title>
<g id="a_node7"><a xlink:href="../../dd/dbe/classfront_end_1_1_main.html#a0ff8a007311f8ecce84d4203dc85d669" target="_top" xlink:title="frontEnd.Main.makeParamControls">
<polygon fill="white" stroke="black" points="754.5,-81.5 754.5,-100.5 937.5,-100.5 937.5,-81.5 754.5,-81.5"/>
<text text-anchor="middle" x="846" y="-88.5" font-family="Helvetica,sans-Serif" font-size="10.00">frontEnd.Main.makeParamControls</text>
</a>
</g>
</g>
<!-- Node6&#45;&gt;Node7 -->
<g id="edge6" class="edge"><title>Node6&#45;&gt;Node7</title>
<path fill="none" stroke="midnightblue" d="M712.353,-117.39C739.518,-111.986 771.432,-105.636 797.149,-100.52"/>
<polygon fill="midnightblue" stroke="midnightblue" points="711.322,-114.027 702.197,-119.411 712.688,-120.892 711.322,-114.027"/>
</g>
<!-- Node8 -->
<g id="node8" class="node"><title>Node8</title>
<g id="a_node8"><a xlink:href="../../dd/dbe/classfront_end_1_1_main.html#a1f4c19654fe78e5ebca54fc26bf43c94" target="_top" xlink:title="frontEnd.Main.useControls">
<polygon fill="white" stroke="black" points="774.5,-119.5 774.5,-138.5 917.5,-138.5 917.5,-119.5 774.5,-119.5"/>
<text text-anchor="middle" x="846" y="-126.5" font-family="Helvetica,sans-Serif" font-size="10.00">frontEnd.Main.useControls</text>
</a>
</g>
</g>
<!-- Node6&#45;&gt;Node8 -->
<g id="edge8" class="edge"><title>Node6&#45;&gt;Node8</title>
<path fill="none" stroke="midnightblue" d="M728.02,-129C743.278,-129 759.307,-129 774.438,-129"/>
<polygon fill="midnightblue" stroke="midnightblue" points="727.6,-125.5 717.6,-129 727.6,-132.5 727.6,-125.5"/>
</g>
<!-- Node7&#45;&gt;Node3 -->
<g id="edge7" class="edge"><title>Node7&#45;&gt;Node3</title>
<path fill="none" stroke="midnightblue" d="M744.001,-91C678.344,-91 594.807,-91 538.596,-91"/>
<polygon fill="midnightblue" stroke="midnightblue" points="744.378,-94.5001 754.378,-91 744.378,-87.5001 744.378,-94.5001"/>
</g>
<!-- Node8&#45;&gt;Node5 -->
<g id="edge9" class="edge"><title>Node8&#45;&gt;Node5</title>
<path fill="none" stroke="midnightblue" d="M902.868,-117.377C914.482,-114.949 926.641,-112.398 938,-110 952.531,-106.932 968.391,-103.555 982.644,-100.51"/>
<polygon fill="midnightblue" stroke="midnightblue" points="901.909,-114.001 892.836,-119.472 903.34,-120.853 901.909,-114.001"/>
</g>
<!-- Node9&#45;&gt;Node10 -->
<g id="edge11" class="edge"><title>Node9&#45;&gt;Node10</title>
<path fill="none" stroke="midnightblue" d="M352.614,-35.772C367.342,-33.2517 383.086,-30.5575 398.191,-27.9727"/>
<polygon fill="midnightblue" stroke="midnightblue" points="351.866,-32.3489 342.6,-37.4856 353.047,-39.2486 351.866,-32.3489"/>
</g>
<!-- Node11 -->
<g id="node11" class="node"><title>Node11</title>
<g id="a_node11"><a xlink:href="../../dd/dbe/classfront_end_1_1_main.html#ae2ce98421793cead4539f6a0e9e63160" target="_top" xlink:title="frontEnd.Main.writeXML">
<polygon fill="white" stroke="black" points="589,-5.5 589,-24.5 717,-24.5 717,-5.5 589,-5.5"/>
<text text-anchor="middle" x="653" y="-12.5" font-family="Helvetica,sans-Serif" font-size="10.00">frontEnd.Main.writeXML</text>
</a>
</g>
</g>
<!-- Node10&#45;&gt;Node11 -->
<g id="edge12" class="edge"><title>Node10&#45;&gt;Node11</title>
<path fill="none" stroke="midnightblue" d="M561.88,-15C570.961,-15 580.071,-15 588.825,-15"/>
<polygon fill="midnightblue" stroke="midnightblue" points="561.661,-11.5001 551.661,-15 561.661,-18.5001 561.661,-11.5001"/>
</g>
<!-- Node11&#45;&gt;Node4 -->
<g id="edge13" class="edge"><title>Node11&#45;&gt;Node4</title>
<path fill="none" stroke="midnightblue" d="M712.353,-26.6095C739.518,-32.014 771.432,-38.3635 797.149,-43.4799"/>
<polygon fill="midnightblue" stroke="midnightblue" points="712.688,-23.1076 702.197,-24.589 711.322,-29.9731 712.688,-23.1076"/>
</g>
</g>
</svg>
