<?xml version="1.0" encoding="UTF-8" standalone="no"?>
<!DOCTYPE svg PUBLIC "-//W3C//DTD SVG 1.1//EN"
 "http://www.w3.org/Graphics/SVG/1.1/DTD/svg11.dtd">
<!-- Generated by graphviz version 2.36.0 (20140111.2315)
 -->
<!-- Title: frontEnd.CASettings.getGrid Pages: 1 -->
<svg width="1254pt" height="115pt"
 viewBox="0.00 0.00 1254.00 115.00" xmlns="http://www.w3.org/2000/svg" xmlns:xlink="http://www.w3.org/1999/xlink">
<g id="graph0" class="graph" transform="scale(1 1) rotate(0) translate(4 111)">
<title>frontEnd.CASettings.getGrid</title>
<polygon fill="white" stroke="none" points="-4,4 -4,-111 1250,-111 1250,4 -4,4"/>
<!-- Node1 -->
<g id="node1" class="node"><title>Node1</title>
<polygon fill="#bfbfbf" stroke="black" points="0,-43.5 0,-62.5 152,-62.5 152,-43.5 0,-43.5"/>
<text text-anchor="middle" x="76" y="-50.5" font-family="Helvetica,sans-Serif" font-size="10.00">frontEnd.CASettings.getGrid</text>
</g>
<!-- Node2 -->
<g id="node2" class="node"><title>Node2</title>
<g id="a_node2"><a xlink:href="../../dc/da1/classfront_end_1_1_animator_loop.html#af1d1ddcc3fe02f0d1c6ba1f234d455cc" target="_top" xlink:title="frontEnd.AnimatorLoop.initGrid">
<polygon fill="white" stroke="black" points="188,-81.5 188,-100.5 352,-100.5 352,-81.5 188,-81.5"/>
<text text-anchor="middle" x="270" y="-88.5" font-family="Helvetica,sans-Serif" font-size="10.00">frontEnd.AnimatorLoop.initGrid</text>
</a>
</g>
</g>
<!-- Node1&#45;&gt;Node2 -->
<g id="edge1" class="edge"><title>Node1&#45;&gt;Node2</title>
<path fill="none" stroke="midnightblue" d="M135.298,-64.5381C162.683,-69.958 194.933,-76.341 220.899,-81.4799"/>
<polygon fill="midnightblue" stroke="midnightblue" points="135.939,-61.0972 125.45,-62.589 134.58,-67.964 135.939,-61.0972"/>
</g>
<!-- Node3 -->
<g id="node3" class="node"><title>Node3</title>
<g id="a_node3"><a xlink:href="../../dc/da1/classfront_end_1_1_animator_loop.html#a1f378b18807af5386266685e907aa8c7" target="_top" xlink:title="frontEnd.AnimatorLoop.read\lXMLAndInitializeGrid">
<polygon fill="white" stroke="black" points="389,-49 389,-79 541,-79 541,-49 389,-49"/>
<text text-anchor="start" x="397" y="-67" font-family="Helvetica,sans-Serif" font-size="10.00">frontEnd.AnimatorLoop.read</text>
<text text-anchor="middle" x="465" y="-56" font-family="Helvetica,sans-Serif" font-size="10.00">XMLAndInitializeGrid</text>
</a>
</g>
</g>
<!-- Node1&#45;&gt;Node3 -->
<g id="edge11" class="edge"><title>Node1&#45;&gt;Node3</title>
<path fill="none" stroke="midnightblue" d="M162.295,-55.4244C230.035,-57.3498 323.849,-60.0164 388.803,-61.8626"/>
<polygon fill="midnightblue" stroke="midnightblue" points="162.172,-51.9196 152.076,-55.134 161.973,-58.9168 162.172,-51.9196"/>
</g>
<!-- Node10 -->
<g id="node10" class="node"><title>Node10</title>
<g id="a_node10"><a xlink:href="../../d0/d87/classfront_end_1_1_x_m_l_handler.html#a8b7864cb0ca3ba8aad07a5b093145861" target="_top" xlink:title="frontEnd.XMLHandler.write">
<polygon fill="white" stroke="black" points="199,-5.5 199,-24.5 341,-24.5 341,-5.5 199,-5.5"/>
<text text-anchor="middle" x="270" y="-12.5" font-family="Helvetica,sans-Serif" font-size="10.00">frontEnd.XMLHandler.write</text>
</a>
</g>
</g>
<!-- Node1&#45;&gt;Node10 -->
<g id="edge12" class="edge"><title>Node1&#45;&gt;Node10</title>
<path fill="none" stroke="midnightblue" d="M135.298,-41.4619C162.683,-36.042 194.933,-29.659 220.899,-24.5201"/>
<polygon fill="midnightblue" stroke="midnightblue" points="134.58,-38.036 125.45,-43.411 135.939,-44.9028 134.58,-38.036"/>
</g>
<!-- Node2&#45;&gt;Node3 -->
<g id="edge2" class="edge"><title>Node2&#45;&gt;Node3</title>
<path fill="none" stroke="midnightblue" d="M348.958,-80.0939C362.066,-78.2602 375.647,-76.3602 388.686,-74.5362"/>
<polygon fill="midnightblue" stroke="midnightblue" points="348.463,-76.629 339.045,-81.4808 349.433,-83.5615 348.463,-76.629"/>
</g>
<!-- Node4 -->
<g id="node4" class="node"><title>Node4</title>
<g id="a_node4"><a xlink:href="../../dd/dbe/classfront_end_1_1_main.html#a7bae3127415fb2ae80975ebc95057e3f" target="_top" xlink:title="frontEnd.Main.readXML">
<polygon fill="white" stroke="black" points="578.5,-52.5 578.5,-71.5 705.5,-71.5 705.5,-52.5 578.5,-52.5"/>
<text text-anchor="middle" x="642" y="-59.5" font-family="Helvetica,sans-Serif" font-size="10.00">frontEnd.Main.readXML</text>
</a>
</g>
</g>
<!-- Node3&#45;&gt;Node4 -->
<g id="edge3" class="edge"><title>Node3&#45;&gt;Node4</title>
<path fill="none" stroke="midnightblue" d="M551.469,-63.0232C560.566,-62.9192 569.692,-62.8149 578.454,-62.7148"/>
<polygon fill="midnightblue" stroke="midnightblue" points="551.191,-59.5261 541.231,-63.1402 551.271,-66.5256 551.191,-59.5261"/>
</g>
<!-- Node5 -->
<g id="node5" class="node"><title>Node5</title>
<g id="a_node5"><a xlink:href="../../dd/dbe/classfront_end_1_1_main.html#a55d59b110825a1cc153a0091a6e5cb99" target="_top" xlink:title="frontEnd.Main.makeMenu">
<polygon fill="white" stroke="black" points="742.5,-11.5 742.5,-30.5 881.5,-30.5 881.5,-11.5 742.5,-11.5"/>
<text text-anchor="middle" x="812" y="-18.5" font-family="Helvetica,sans-Serif" font-size="10.00">frontEnd.Main.makeMenu</text>
</a>
</g>
</g>
<!-- Node4&#45;&gt;Node5 -->
<g id="edge4" class="edge"><title>Node4&#45;&gt;Node5</title>
<path fill="none" stroke="midnightblue" d="M691.808,-50.0884C717.298,-43.8677 748.066,-36.3589 771.956,-30.5286"/>
<polygon fill="midnightblue" stroke="midnightblue" points="690.85,-46.7195 681.965,-52.4907 692.51,-53.52 690.85,-46.7195"/>
</g>
<!-- Node7 -->
<g id="node7" class="node"><title>Node7</title>
<g id="a_node7"><a xlink:href="../../dd/dbe/classfront_end_1_1_main.html#a8e2e836903a64069e4283fa66309c704" target="_top" xlink:title="frontEnd.Main.resetSim">
<polygon fill="white" stroke="black" points="747.5,-87.5 747.5,-106.5 876.5,-106.5 876.5,-87.5 747.5,-87.5"/>
<text text-anchor="middle" x="812" y="-94.5" font-family="Helvetica,sans-Serif" font-size="10.00">frontEnd.Main.resetSim</text>
</a>
</g>
</g>
<!-- Node4&#45;&gt;Node7 -->
<g id="edge6" class="edge"><title>Node4&#45;&gt;Node7</title>
<path fill="none" stroke="midnightblue" d="M698.891,-73.644C720.402,-78.1253 744.692,-83.1857 765.149,-87.4477"/>
<polygon fill="midnightblue" stroke="midnightblue" points="699.41,-70.1771 688.907,-71.5639 697.983,-77.03 699.41,-70.1771"/>
</g>
<!-- Node6 -->
<g id="node6" class="node"><title>Node6</title>
<g id="a_node6"><a xlink:href="../../dd/dbe/classfront_end_1_1_main.html#ae53f892716dcc60f3f49714496e30c91" target="_top" xlink:title="frontEnd.Main.start">
<polygon fill="white" stroke="black" points="1138,-49.5 1138,-68.5 1246,-68.5 1246,-49.5 1138,-49.5"/>
<text text-anchor="middle" x="1192" y="-56.5" font-family="Helvetica,sans-Serif" font-size="10.00">frontEnd.Main.start</text>
</a>
</g>
</g>
<!-- Node5&#45;&gt;Node6 -->
<g id="edge5" class="edge"><title>Node5&#45;&gt;Node6</title>
<path fill="none" stroke="midnightblue" d="M891.845,-23.1061C950.122,-25.4088 1031.29,-30.1806 1102,-40 1118.59,-42.3036 1136.7,-45.9571 1152.23,-49.4476"/>
<polygon fill="midnightblue" stroke="midnightblue" points="891.728,-19.5993 881.602,-22.7175 891.462,-26.5942 891.728,-19.5993"/>
</g>
<!-- Node8 -->
<g id="node8" class="node"><title>Node8</title>
<g id="a_node8"><a xlink:href="../../dd/dbe/classfront_end_1_1_main.html#a0ff8a007311f8ecce84d4203dc85d669" target="_top" xlink:title="frontEnd.Main.makeParamControls">
<polygon fill="white" stroke="black" points="918.5,-49.5 918.5,-68.5 1101.5,-68.5 1101.5,-49.5 918.5,-49.5"/>
<text text-anchor="middle" x="1010" y="-56.5" font-family="Helvetica,sans-Serif" font-size="10.00">frontEnd.Main.makeParamControls</text>
</a>
</g>
</g>
<!-- Node7&#45;&gt;Node8 -->
<g id="edge7" class="edge"><title>Node7&#45;&gt;Node8</title>
<path fill="none" stroke="midnightblue" d="M872.261,-85.5106C900.227,-80.0886 933.209,-73.6942 959.774,-68.5439"/>
<polygon fill="midnightblue" stroke="midnightblue" points="871.357,-82.1206 862.206,-87.46 872.689,-88.9927 871.357,-82.1206"/>
</g>
<!-- Node9 -->
<g id="node9" class="node"><title>Node9</title>
<g id="a_node9"><a xlink:href="../../dd/dbe/classfront_end_1_1_main.html#a1f4c19654fe78e5ebca54fc26bf43c94" target="_top" xlink:title="frontEnd.Main.useControls">
<polygon fill="white" stroke="black" points="938.5,-87.5 938.5,-106.5 1081.5,-106.5 1081.5,-87.5 938.5,-87.5"/>
<text text-anchor="middle" x="1010" y="-94.5" font-family="Helvetica,sans-Serif" font-size="10.00">frontEnd.Main.useControls</text>
</a>
</g>
</g>
<!-- Node7&#45;&gt;Node9 -->
<g id="edge9" class="edge"><title>Node7&#45;&gt;Node9</title>
<path fill="none" stroke="midnightblue" d="M886.948,-97C903.749,-97 921.556,-97 938.222,-97"/>
<polygon fill="midnightblue" stroke="midnightblue" points="886.636,-93.5001 876.636,-97 886.636,-100.5 886.636,-93.5001"/>
</g>
<!-- Node8&#45;&gt;Node4 -->
<g id="edge8" class="edge"><title>Node8&#45;&gt;Node4</title>
<path fill="none" stroke="midnightblue" d="M908.031,-59.8276C843.19,-60.3591 761.025,-61.0326 705.502,-61.4877"/>
<polygon fill="midnightblue" stroke="midnightblue" points="908.311,-63.3255 918.282,-59.7436 908.253,-56.3258 908.311,-63.3255"/>
</g>
<!-- Node9&#45;&gt;Node6 -->
<g id="edge10" class="edge"><title>Node9&#45;&gt;Node6</title>
<path fill="none" stroke="midnightblue" d="M1066.87,-85.3766C1078.48,-82.9487 1090.64,-80.3982 1102,-78 1116.53,-74.9319 1132.39,-71.5553 1146.64,-68.5103"/>
<polygon fill="midnightblue" stroke="midnightblue" points="1065.91,-82.0013 1056.84,-87.4718 1067.34,-88.8534 1065.91,-82.0013"/>
</g>
<!-- Node11 -->
<g id="node11" class="node"><title>Node11</title>
<g id="a_node11"><a xlink:href="../../dc/da1/classfront_end_1_1_animator_loop.html#abeeeb7294620845e96455930decbd7bf" target="_top" xlink:title="frontEnd.AnimatorLoop.write\lToXML">
<polygon fill="white" stroke="black" points="388.5,-0 388.5,-30 541.5,-30 541.5,-0 388.5,-0"/>
<text text-anchor="start" x="396.5" y="-18" font-family="Helvetica,sans-Serif" font-size="10.00">frontEnd.AnimatorLoop.write</text>
<text text-anchor="middle" x="465" y="-7" font-family="Helvetica,sans-Serif" font-size="10.00">ToXML</text>
</a>
</g>
</g>
<!-- Node10&#45;&gt;Node11 -->
<g id="edge13" class="edge"><title>Node10&#45;&gt;Node11</title>
<path fill="none" stroke="midnightblue" d="M351.386,-15C363.606,-15 376.18,-15 388.295,-15"/>
<polygon fill="midnightblue" stroke="midnightblue" points="351.223,-11.5001 341.223,-15 351.223,-18.5001 351.223,-11.5001"/>
</g>
<!-- Node12 -->
<g id="node12" class="node"><title>Node12</title>
<g id="a_node12"><a xlink:href="../../dd/dbe/classfront_end_1_1_main.html#ae2ce98421793cead4539f6a0e9e63160" target="_top" xlink:title="frontEnd.Main.writeXML">
<polygon fill="white" stroke="black" points="578,-10.5 578,-29.5 706,-29.5 706,-10.5 578,-10.5"/>
<text text-anchor="middle" x="642" y="-17.5" font-family="Helvetica,sans-Serif" font-size="10.00">frontEnd.Main.writeXML</text>
</a>
</g>
</g>
<!-- Node11&#45;&gt;Node12 -->
<g id="edge14" class="edge"><title>Node11&#45;&gt;Node12</title>
<path fill="none" stroke="midnightblue" d="M551.923,-17.4549C560.623,-17.7035 569.344,-17.9527 577.742,-18.1926"/>
<polygon fill="midnightblue" stroke="midnightblue" points="551.836,-13.9511 541.74,-17.164 551.636,-20.9483 551.836,-13.9511"/>
</g>
<!-- Node12&#45;&gt;Node5 -->
<g id="edge15" class="edge"><title>Node12&#45;&gt;Node5</title>
<path fill="none" stroke="midnightblue" d="M716.13,-20.4353C724.81,-20.487 733.648,-20.5396 742.264,-20.5909"/>
<polygon fill="midnightblue" stroke="midnightblue" points="716.056,-16.9349 706.035,-20.3752 716.014,-23.9348 716.056,-16.9349"/>
</g>
</g>
</svg>
