<?xml version="1.0" encoding="UTF-8" standalone="no"?>
<!DOCTYPE svg PUBLIC "-//W3C//DTD SVG 1.1//EN"
 "http://www.w3.org/Graphics/SVG/1.1/DTD/svg11.dtd">
<!-- Generated by graphviz version 2.36.0 (20140111.2315)
 -->
<!-- Title: frontEnd.CASettings.getType Pages: 1 -->
<svg width="1250pt" height="130pt"
 viewBox="0.00 0.00 1250.00 130.44" xmlns="http://www.w3.org/2000/svg" xmlns:xlink="http://www.w3.org/1999/xlink">
<g id="graph0" class="graph" transform="scale(1 1) rotate(0) translate(4 126.445)">
<title>frontEnd.CASettings.getType</title>
<polygon fill="white" stroke="none" points="-4,4 -4,-126.445 1246,-126.445 1246,4 -4,4"/>
<!-- Node1 -->
<g id="node1" class="node"><title>Node1</title>
<polygon fill="#bfbfbf" stroke="black" points="0.5,-34.9447 0.5,-53.9447 153.5,-53.9447 153.5,-34.9447 0.5,-34.9447"/>
<text text-anchor="middle" x="77" y="-41.9447" font-family="Helvetica,sans-Serif" font-size="10.00">frontEnd.CASettings.getType</text>
</g>
<!-- Node2 -->
<g id="node2" class="node"><title>Node2</title>
<g id="a_node2"><a xlink:href="../../dc/da1/classfront_end_1_1_animator_loop.html#a467af791b6cbba9bb796678842386ca2" target="_top" xlink:title="frontEnd.AnimatorLoop.check\lBadXMLFileData">
<polygon fill="white" stroke="black" points="190,-92.4447 190,-122.445 348,-122.445 348,-92.4447 190,-92.4447"/>
<text text-anchor="start" x="198" y="-110.445" font-family="Helvetica,sans-Serif" font-size="10.00">frontEnd.AnimatorLoop.check</text>
<text text-anchor="middle" x="269" y="-99.4447" font-family="Helvetica,sans-Serif" font-size="10.00">BadXMLFileData</text>
</a>
</g>
</g>
<!-- Node1&#45;&gt;Node2 -->
<g id="edge1" class="edge"><title>Node1&#45;&gt;Node2</title>
<path fill="none" stroke="midnightblue" d="M116.354,-57.1622C147.042,-67.3374 190.151,-81.6315 222.566,-92.3796"/>
<polygon fill="midnightblue" stroke="midnightblue" points="117.45,-53.8382 106.857,-54.013 115.247,-60.4825 117.45,-53.8382"/>
</g>
<!-- Node3 -->
<g id="node3" class="node"><title>Node3</title>
<g id="a_node3"><a xlink:href="../../dc/da1/classfront_end_1_1_animator_loop.html#a1f378b18807af5386266685e907aa8c7" target="_top" xlink:title="frontEnd.AnimatorLoop.read\lXMLAndInitializeGrid">
<polygon fill="white" stroke="black" points="385,-53.4447 385,-83.4447 537,-83.4447 537,-53.4447 385,-53.4447"/>
<text text-anchor="start" x="393" y="-71.4447" font-family="Helvetica,sans-Serif" font-size="10.00">frontEnd.AnimatorLoop.read</text>
<text text-anchor="middle" x="461" y="-60.4447" font-family="Helvetica,sans-Serif" font-size="10.00">XMLAndInitializeGrid</text>
</a>
</g>
</g>
<!-- Node1&#45;&gt;Node3 -->
<g id="edge11" class="edge"><title>Node1&#45;&gt;Node3</title>
<path fill="none" stroke="midnightblue" d="M163.953,-49.8448C230.358,-54.0169 321.352,-59.7338 384.867,-63.7243"/>
<polygon fill="midnightblue" stroke="midnightblue" points="164.127,-46.349 153.928,-49.215 163.688,-53.3352 164.127,-46.349"/>
</g>
<!-- Node10 -->
<g id="node10" class="node"><title>Node10</title>
<g id="a_node10"><a xlink:href="../../d0/d87/classfront_end_1_1_x_m_l_handler.html#a8b7864cb0ca3ba8aad07a5b093145861" target="_top" xlink:title="frontEnd.XMLHandler.write">
<polygon fill="white" stroke="black" points="198,-15.9447 198,-34.9447 340,-34.9447 340,-15.9447 198,-15.9447"/>
<text text-anchor="middle" x="269" y="-22.9447" font-family="Helvetica,sans-Serif" font-size="10.00">frontEnd.XMLHandler.write</text>
</a>
</g>
</g>
<!-- Node1&#45;&gt;Node10 -->
<g id="edge12" class="edge"><title>Node1&#45;&gt;Node10</title>
<path fill="none" stroke="midnightblue" d="M163.638,-35.8809C175.089,-34.7358 186.723,-33.5724 197.866,-32.4581"/>
<polygon fill="midnightblue" stroke="midnightblue" points="163.241,-32.403 153.639,-36.8808 163.938,-39.3683 163.241,-32.403"/>
</g>
<!-- Node11 -->
<g id="node11" class="node"><title>Node11</title>
<g id="a_node11"><a xlink:href="../../dc/da1/classfront_end_1_1_animator_loop.html#abeeeb7294620845e96455930decbd7bf" target="_top" xlink:title="frontEnd.AnimatorLoop.write\lToXML">
<polygon fill="white" stroke="black" points="384.5,-4.44465 384.5,-34.4447 537.5,-34.4447 537.5,-4.44465 384.5,-4.44465"/>
<text text-anchor="start" x="392.5" y="-22.4447" font-family="Helvetica,sans-Serif" font-size="10.00">frontEnd.AnimatorLoop.write</text>
<text text-anchor="middle" x="461" y="-11.4447" font-family="Helvetica,sans-Serif" font-size="10.00">ToXML</text>
</a>
</g>
</g>
<!-- Node1&#45;&gt;Node11 -->
<g id="edge16" class="edge"><title>Node1&#45;&gt;Node11</title>
<path fill="none" stroke="midnightblue" d="M108.859,-30.9184C130.969,-21.9914 161.715,-11.1124 190,-6.44465 255.056,4.29105 330.03,-0.673117 384.44,-7.33782"/>
<polygon fill="midnightblue" stroke="midnightblue" points="107.251,-27.7961 99.3484,-34.8532 109.927,-34.2643 107.251,-27.7961"/>
</g>
<!-- Node2&#45;&gt;Node3 -->
<g id="edge2" class="edge"><title>Node2&#45;&gt;Node3</title>
<path fill="none" stroke="midnightblue" d="M353.013,-90.4052C364.279,-88.0926 375.774,-85.7331 386.85,-83.4596"/>
<polygon fill="midnightblue" stroke="midnightblue" points="352.279,-86.9827 343.187,-92.422 353.687,-93.8398 352.279,-86.9827"/>
</g>
<!-- Node4 -->
<g id="node4" class="node"><title>Node4</title>
<g id="a_node4"><a xlink:href="../../dd/dbe/classfront_end_1_1_main.html#a7bae3127415fb2ae80975ebc95057e3f" target="_top" xlink:title="frontEnd.Main.readXML">
<polygon fill="white" stroke="black" points="574.5,-56.9447 574.5,-75.9447 701.5,-75.9447 701.5,-56.9447 574.5,-56.9447"/>
<text text-anchor="middle" x="638" y="-63.9447" font-family="Helvetica,sans-Serif" font-size="10.00">frontEnd.Main.readXML</text>
</a>
</g>
</g>
<!-- Node3&#45;&gt;Node4 -->
<g id="edge3" class="edge"><title>Node3&#45;&gt;Node4</title>
<path fill="none" stroke="midnightblue" d="M547.469,-67.4679C556.566,-67.3639 565.692,-67.2596 574.454,-67.1595"/>
<polygon fill="midnightblue" stroke="midnightblue" points="547.191,-63.9707 537.231,-67.5849 547.271,-70.9703 547.191,-63.9707"/>
</g>
<!-- Node5 -->
<g id="node5" class="node"><title>Node5</title>
<g id="a_node5"><a xlink:href="../../dd/dbe/classfront_end_1_1_main.html#a55d59b110825a1cc153a0091a6e5cb99" target="_top" xlink:title="frontEnd.Main.makeMenu">
<polygon fill="white" stroke="black" points="738.5,-15.9447 738.5,-34.9447 877.5,-34.9447 877.5,-15.9447 738.5,-15.9447"/>
<text text-anchor="middle" x="808" y="-22.9447" font-family="Helvetica,sans-Serif" font-size="10.00">frontEnd.Main.makeMenu</text>
</a>
</g>
</g>
<!-- Node4&#45;&gt;Node5 -->
<g id="edge4" class="edge"><title>Node4&#45;&gt;Node5</title>
<path fill="none" stroke="midnightblue" d="M687.808,-54.5331C713.298,-48.3123 744.066,-40.8036 767.956,-34.9733"/>
<polygon fill="midnightblue" stroke="midnightblue" points="686.85,-51.1642 677.965,-56.9354 688.51,-57.9646 686.85,-51.1642"/>
</g>
<!-- Node7 -->
<g id="node7" class="node"><title>Node7</title>
<g id="a_node7"><a xlink:href="../../dd/dbe/classfront_end_1_1_main.html#a8e2e836903a64069e4283fa66309c704" target="_top" xlink:title="frontEnd.Main.resetSim">
<polygon fill="white" stroke="black" points="743.5,-91.9447 743.5,-110.945 872.5,-110.945 872.5,-91.9447 743.5,-91.9447"/>
<text text-anchor="middle" x="808" y="-98.9447" font-family="Helvetica,sans-Serif" font-size="10.00">frontEnd.Main.resetSim</text>
</a>
</g>
</g>
<!-- Node4&#45;&gt;Node7 -->
<g id="edge6" class="edge"><title>Node4&#45;&gt;Node7</title>
<path fill="none" stroke="midnightblue" d="M694.891,-78.0887C716.402,-82.57 740.692,-87.6304 761.149,-91.8923"/>
<polygon fill="midnightblue" stroke="midnightblue" points="695.41,-74.6217 684.907,-76.0086 693.983,-81.4746 695.41,-74.6217"/>
</g>
<!-- Node6 -->
<g id="node6" class="node"><title>Node6</title>
<g id="a_node6"><a xlink:href="../../dd/dbe/classfront_end_1_1_main.html#ae53f892716dcc60f3f49714496e30c91" target="_top" xlink:title="frontEnd.Main.start">
<polygon fill="white" stroke="black" points="1134,-53.9447 1134,-72.9447 1242,-72.9447 1242,-53.9447 1134,-53.9447"/>
<text text-anchor="middle" x="1188" y="-60.9447" font-family="Helvetica,sans-Serif" font-size="10.00">frontEnd.Main.start</text>
</a>
</g>
</g>
<!-- Node5&#45;&gt;Node6 -->
<g id="edge5" class="edge"><title>Node5&#45;&gt;Node6</title>
<path fill="none" stroke="midnightblue" d="M887.845,-27.5508C946.122,-29.8535 1027.29,-34.6252 1098,-44.4447 1114.59,-46.7483 1132.7,-50.4017 1148.23,-53.8922"/>
<polygon fill="midnightblue" stroke="midnightblue" points="887.728,-24.0439 877.602,-27.1622 887.462,-31.0389 887.728,-24.0439"/>
</g>
<!-- Node8 -->
<g id="node8" class="node"><title>Node8</title>
<g id="a_node8"><a xlink:href="../../dd/dbe/classfront_end_1_1_main.html#a0ff8a007311f8ecce84d4203dc85d669" target="_top" xlink:title="frontEnd.Main.makeParamControls">
<polygon fill="white" stroke="black" points="914.5,-53.9447 914.5,-72.9447 1097.5,-72.9447 1097.5,-53.9447 914.5,-53.9447"/>
<text text-anchor="middle" x="1006" y="-60.9447" font-family="Helvetica,sans-Serif" font-size="10.00">frontEnd.Main.makeParamControls</text>
</a>
</g>
</g>
<!-- Node7&#45;&gt;Node8 -->
<g id="edge7" class="edge"><title>Node7&#45;&gt;Node8</title>
<path fill="none" stroke="midnightblue" d="M868.261,-89.9552C896.227,-84.5333 929.209,-78.1388 955.774,-72.9885"/>
<polygon fill="midnightblue" stroke="midnightblue" points="867.357,-86.5653 858.206,-91.9047 868.689,-93.4373 867.357,-86.5653"/>
</g>
<!-- Node9 -->
<g id="node9" class="node"><title>Node9</title>
<g id="a_node9"><a xlink:href="../../dd/dbe/classfront_end_1_1_main.html#a1f4c19654fe78e5ebca54fc26bf43c94" target="_top" xlink:title="frontEnd.Main.useControls">
<polygon fill="white" stroke="black" points="934.5,-91.9447 934.5,-110.945 1077.5,-110.945 1077.5,-91.9447 934.5,-91.9447"/>
<text text-anchor="middle" x="1006" y="-98.9447" font-family="Helvetica,sans-Serif" font-size="10.00">frontEnd.Main.useControls</text>
</a>
</g>
</g>
<!-- Node7&#45;&gt;Node9 -->
<g id="edge9" class="edge"><title>Node7&#45;&gt;Node9</title>
<path fill="none" stroke="midnightblue" d="M882.948,-101.445C899.749,-101.445 917.556,-101.445 934.222,-101.445"/>
<polygon fill="midnightblue" stroke="midnightblue" points="882.636,-97.9448 872.636,-101.445 882.636,-104.945 882.636,-97.9448"/>
</g>
<!-- Node8&#45;&gt;Node4 -->
<g id="edge8" class="edge"><title>Node8&#45;&gt;Node4</title>
<path fill="none" stroke="midnightblue" d="M904.031,-64.2723C839.19,-64.8037 757.025,-65.4772 701.502,-65.9323"/>
<polygon fill="midnightblue" stroke="midnightblue" points="904.311,-67.7702 914.282,-64.1882 904.253,-60.7704 904.311,-67.7702"/>
</g>
<!-- Node9&#45;&gt;Node6 -->
<g id="edge10" class="edge"><title>Node9&#45;&gt;Node6</title>
<path fill="none" stroke="midnightblue" d="M1062.87,-89.8213C1074.48,-87.3934 1086.64,-84.8428 1098,-82.4447 1112.53,-79.3766 1128.39,-75.9999 1142.64,-72.9549"/>
<polygon fill="midnightblue" stroke="midnightblue" points="1061.91,-86.4459 1052.84,-91.9164 1063.34,-93.2981 1061.91,-86.4459"/>
</g>
<!-- Node10&#45;&gt;Node11 -->
<g id="edge13" class="edge"><title>Node10&#45;&gt;Node11</title>
<path fill="none" stroke="midnightblue" d="M350.433,-22.9047C361.672,-22.5498 373.189,-22.1861 384.335,-21.8341"/>
<polygon fill="midnightblue" stroke="midnightblue" points="350.094,-19.4135 340.209,-23.2275 350.315,-26.4101 350.094,-19.4135"/>
</g>
<!-- Node12 -->
<g id="node12" class="node"><title>Node12</title>
<g id="a_node12"><a xlink:href="../../dd/dbe/classfront_end_1_1_main.html#ae2ce98421793cead4539f6a0e9e63160" target="_top" xlink:title="frontEnd.Main.writeXML">
<polygon fill="white" stroke="black" points="574,-14.9447 574,-33.9447 702,-33.9447 702,-14.9447 574,-14.9447"/>
<text text-anchor="middle" x="638" y="-21.9447" font-family="Helvetica,sans-Serif" font-size="10.00">frontEnd.Main.writeXML</text>
</a>
</g>
</g>
<!-- Node11&#45;&gt;Node12 -->
<g id="edge14" class="edge"><title>Node11&#45;&gt;Node12</title>
<path fill="none" stroke="midnightblue" d="M547.923,-21.8996C556.623,-22.1482 565.344,-22.3973 573.742,-22.6373"/>
<polygon fill="midnightblue" stroke="midnightblue" points="547.836,-18.3958 537.74,-21.6086 547.636,-25.3929 547.836,-18.3958"/>
</g>
<!-- Node12&#45;&gt;Node5 -->
<g id="edge15" class="edge"><title>Node12&#45;&gt;Node5</title>
<path fill="none" stroke="midnightblue" d="M712.13,-24.8799C720.81,-24.9316 729.648,-24.9842 738.264,-25.0355"/>
<polygon fill="midnightblue" stroke="midnightblue" points="712.056,-21.3795 702.035,-24.8199 712.014,-28.3794 712.056,-21.3795"/>
</g>
</g>
</svg>
