<?xml version="1.0" encoding="UTF-8" standalone="no"?>
<!DOCTYPE svg PUBLIC "-//W3C//DTD SVG 1.1//EN"
 "http://www.w3.org/Graphics/SVG/1.1/DTD/svg11.dtd">
<!-- Generated by graphviz version 2.36.0 (20140111.2315)
 -->
<!-- Title: backEnd.Segregation Pages: 1 -->
<svg width="449pt" height="290pt"
 viewBox="0.00 0.00 449.00 290.00" xmlns="http://www.w3.org/2000/svg" xmlns:xlink="http://www.w3.org/1999/xlink">
<g id="graph0" class="graph" transform="scale(1 1) rotate(0) translate(4 286)">
<title>backEnd.Segregation</title>
<polygon fill="white" stroke="none" points="-4,4 -4,-286 445,-286 445,4 -4,4"/>
<!-- Node1 -->
<g id="node1" class="node"><title>Node1</title>
<polygon fill="#bfbfbf" stroke="black" points="179.5,-0.5 179.5,-19.5 298.5,-19.5 298.5,-0.5 179.5,-0.5"/>
<text text-anchor="middle" x="239" y="-7.5" font-family="Helvetica,sans-Serif" font-size="10.00">backEnd.Segregation</text>
</g>
<!-- Node2 -->
<g id="node2" class="node"><title>Node2</title>
<g id="a_node2"><a xlink:href="../../d1/dfc/classback_end_1_1_rule_set.html" target="_top" xlink:title="backEnd.RuleSet">
<polygon fill="white" stroke="black" points="191,-58.5 191,-77.5 287,-77.5 287,-58.5 191,-58.5"/>
<text text-anchor="middle" x="239" y="-65.5" font-family="Helvetica,sans-Serif" font-size="10.00">backEnd.RuleSet</text>
</a>
</g>
</g>
<!-- Node2&#45;&gt;Node1 -->
<g id="edge1" class="edge"><title>Node2&#45;&gt;Node1</title>
<path fill="none" stroke="midnightblue" d="M239,-47.953C239,-38.2875 239,-27.0312 239,-19.5052"/>
<polygon fill="midnightblue" stroke="midnightblue" points="235.5,-48.25 239,-58.25 242.5,-48.25 235.5,-48.25"/>
</g>
<!-- Node3 -->
<g id="node3" class="node"><title>Node3</title>
<g id="a_node3"><a xlink:href="../../db/d5e/classback_end_1_1_patch.html" target="_top" xlink:title="backEnd.Patch">
<polygon fill="white" stroke="black" points="18,-126.5 18,-145.5 104,-145.5 104,-126.5 18,-126.5"/>
<text text-anchor="middle" x="61" y="-133.5" font-family="Helvetica,sans-Serif" font-size="10.00">backEnd.Patch</text>
</a>
</g>
</g>
<!-- Node3&#45;&gt;Node2 -->
<g id="edge2" class="edge"><title>Node3&#45;&gt;Node2</title>
<path fill="none" stroke="#9a32cd" stroke-dasharray="5,2" d="M87.3587,-121.884C104.175,-113.808 126.573,-103.586 147,-96 166.193,-88.8716 188.181,-82.3602 205.848,-77.5185"/>
<polygon fill="#9a32cd" stroke="#9a32cd" points="85.6239,-118.835 78.1596,-126.354 88.6836,-125.131 85.6239,-118.835"/>
<text text-anchor="middle" x="175" y="-99.5" font-family="Helvetica,sans-Serif" font-size="10.00"> myPatches</text>
</g>
<!-- Node4 -->
<g id="node4" class="node"><title>Node4</title>
<polygon fill="white" stroke="#bfbfbf" points="-0.5,-194.5 -0.5,-213.5 62.5,-213.5 62.5,-194.5 -0.5,-194.5"/>
<text text-anchor="middle" x="31" y="-201.5" font-family="Helvetica,sans-Serif" font-size="10.00">Rectangle</text>
</g>
<!-- Node4&#45;&gt;Node3 -->
<g id="edge3" class="edge"><title>Node4&#45;&gt;Node3</title>
<path fill="none" stroke="midnightblue" d="M39.0973,-185.186C44.8853,-172.452 52.4269,-155.861 56.9813,-145.841"/>
<polygon fill="midnightblue" stroke="midnightblue" points="35.8738,-183.82 34.922,-194.372 42.2463,-186.716 35.8738,-183.82"/>
</g>
<!-- Node5 -->
<g id="node5" class="node"><title>Node5</title>
<g id="a_node5"><a xlink:href="../../d0/d08/classback_end_1_1_cell.html" target="_top" xlink:title="backEnd.Cell">
<polygon fill="white" stroke="black" points="80.5,-194.5 80.5,-213.5 157.5,-213.5 157.5,-194.5 80.5,-194.5"/>
<text text-anchor="middle" x="119" y="-201.5" font-family="Helvetica,sans-Serif" font-size="10.00">backEnd.Cell</text>
</a>
</g>
</g>
<!-- Node5&#45;&gt;Node3 -->
<g id="edge4" class="edge"><title>Node5&#45;&gt;Node3</title>
<path fill="none" stroke="#9a32cd" stroke-dasharray="5,2" d="M104.658,-186.68C93.319,-173.777 77.9233,-156.258 68.7695,-145.841"/>
<polygon fill="#9a32cd" stroke="#9a32cd" points="102.187,-189.17 111.418,-194.372 107.445,-184.55 102.187,-189.17"/>
<text text-anchor="middle" x="114" y="-167.5" font-family="Helvetica,sans-Serif" font-size="10.00"> myCell</text>
</g>
<!-- Node6 -->
<g id="node6" class="node"><title>Node6</title>
<polygon fill="white" stroke="#bfbfbf" points="56.5,-262.5 56.5,-281.5 181.5,-281.5 181.5,-262.5 56.5,-262.5"/>
<text text-anchor="middle" x="119" y="-269.5" font-family="Helvetica,sans-Serif" font-size="10.00">List&lt; backEnd.State &gt;</text>
</g>
<!-- Node6&#45;&gt;Node5 -->
<g id="edge5" class="edge"><title>Node6&#45;&gt;Node5</title>
<path fill="none" stroke="#9a32cd" stroke-dasharray="5,2" d="M119,-252.041C119,-239.472 119,-223.563 119,-213.841"/>
<polygon fill="#9a32cd" stroke="#9a32cd" points="115.5,-252.372 119,-262.372 122.5,-252.372 115.5,-252.372"/>
<text text-anchor="middle" x="145" y="-235.5" font-family="Helvetica,sans-Serif" font-size="10.00"> myHistory</text>
</g>
<!-- Node7 -->
<g id="node7" class="node"><title>Node7</title>
<polygon fill="white" stroke="#bfbfbf" points="122.5,-126.5 122.5,-145.5 247.5,-145.5 247.5,-126.5 122.5,-126.5"/>
<text text-anchor="middle" x="185" y="-133.5" font-family="Helvetica,sans-Serif" font-size="10.00">Map&lt; String, Object &gt;</text>
</g>
<!-- Node7&#45;&gt;Node2 -->
<g id="edge6" class="edge"><title>Node7&#45;&gt;Node2</title>
<path fill="none" stroke="#9a32cd" stroke-dasharray="5,2" d="M198.109,-118.253C203.586,-111.323 210.049,-103.232 216,-96 221.008,-89.9141 226.758,-83.1641 231.256,-77.9356"/>
<polygon fill="#9a32cd" stroke="#9a32cd" points="195.244,-116.234 191.811,-126.258 200.745,-120.563 195.244,-116.234"/>
<text text-anchor="middle" x="243.5" y="-99.5" font-family="Helvetica,sans-Serif" font-size="10.00"> myParams</text>
</g>
<!-- Node8 -->
<g id="node8" class="node"><title>Node8</title>
<polygon fill="white" stroke="#bfbfbf" points="265,-126.5 265,-145.5 321,-145.5 321,-126.5 265,-126.5"/>
<text text-anchor="middle" x="293" y="-133.5" font-family="Helvetica,sans-Serif" font-size="10.00">Random</text>
</g>
<!-- Node8&#45;&gt;Node2 -->
<g id="edge7" class="edge"><title>Node8&#45;&gt;Node2</title>
<path fill="none" stroke="#9a32cd" stroke-dasharray="5,2" d="M284.622,-117.089C280.946,-110.146 276.264,-102.355 271,-96 265.25,-89.0586 257.563,-82.507 251.164,-77.5961"/>
<polygon fill="#9a32cd" stroke="#9a32cd" points="281.658,-118.989 289.241,-126.388 287.927,-115.875 281.658,-118.989"/>
<text text-anchor="middle" x="304" y="-99.5" font-family="Helvetica,sans-Serif" font-size="10.00"> gridCoord</text>
</g>
<!-- Node9 -->
<g id="node9" class="node"><title>Node9</title>
<g id="a_node9"><a xlink:href="../../d3/dea/classback_end_1_1_state.html" target="_top" xlink:title="backEnd.State">
<polygon fill="white" stroke="black" points="339,-126.5 339,-145.5 425,-145.5 425,-126.5 339,-126.5"/>
<text text-anchor="middle" x="382" y="-133.5" font-family="Helvetica,sans-Serif" font-size="10.00">backEnd.State</text>
</a>
</g>
</g>
<!-- Node9&#45;&gt;Node2 -->
<g id="edge8" class="edge"><title>Node9&#45;&gt;Node2</title>
<path fill="none" stroke="#9a32cd" stroke-dasharray="5,2" d="M365.917,-119.52C356.86,-111.525 344.986,-102.179 333,-96 317.153,-87.831 298.493,-81.8209 281.992,-77.5731"/>
<polygon fill="#9a32cd" stroke="#9a32cd" points="363.629,-122.171 373.365,-126.351 368.361,-117.012 363.629,-122.171"/>
<text text-anchor="middle" x="396.5" y="-99.5" font-family="Helvetica,sans-Serif" font-size="10.00"> myPossibleStates</text>
</g>
<!-- Node10 -->
<g id="node10" class="node"><title>Node10</title>
<polygon fill="white" stroke="#bfbfbf" points="361.5,-194.5 361.5,-213.5 402.5,-213.5 402.5,-194.5 361.5,-194.5"/>
<text text-anchor="middle" x="382" y="-201.5" font-family="Helvetica,sans-Serif" font-size="10.00">Color</text>
</g>
<!-- Node10&#45;&gt;Node9 -->
<g id="edge9" class="edge"><title>Node10&#45;&gt;Node9</title>
<path fill="none" stroke="#9a32cd" stroke-dasharray="5,2" d="M382,-184.041C382,-171.472 382,-155.563 382,-145.841"/>
<polygon fill="#9a32cd" stroke="#9a32cd" points="378.5,-184.372 382,-194.372 385.5,-184.372 378.5,-184.372"/>
<text text-anchor="middle" x="403.5" y="-167.5" font-family="Helvetica,sans-Serif" font-size="10.00"> myColor</text>
</g>
</g>
</svg>
