<?xml version="1.0" encoding="UTF-8" standalone="no"?>
<!DOCTYPE svg PUBLIC "-//W3C//DTD SVG 1.1//EN"
 "http://www.w3.org/Graphics/SVG/1.1/DTD/svg11.dtd">
<!-- Generated by graphviz version 2.36.0 (20140111.2315)
 -->
<!-- Title: p Pages: 1 -->
<!--zoomable 378 -->
<svg id="main" version="1.1" xmlns="http://www.w3.org/2000/svg" xmlns:xlink="http://www.w3.org/1999/xlink" xml:space="preserve" onload="init(evt)">
<style type="text/css"><![CDATA[
.edge:hover path { stroke: red; }
.edge:hover polygon { stroke: red; fill: red; }
]]></style>
<script type="text/javascript"><![CDATA[
var edges = document.getElementsByTagName('g');
if (edges && edges.length) {
  for (var i=0;i<edges.length;i++) {
    if (edges[i].id.substr(0,4)=='edge') {
      edges[i].setAttribute('class','edge');
    }
  }
}
]]></script>
        <defs>
                <circle id="rim" cx="0" cy="0" r="7"/>
                <circle id="rim2" cx="0" cy="0" r="3.5"/>
                <g id="zoomPlus">
                        <use xlink:href="#rim" fill="#404040">
                                <set attributeName="fill" to="#808080" begin="zoomplus.mouseover" end="zoomplus.mouseout"/>
                        </use>
                        <path d="M-4,0h8M0,-4v8" fill="none" stroke="white" stroke-width="1.5" pointer-events="none"/>
                </g>
                <g id="zoomMin">
                        <use xlink:href="#rim" fill="#404040">
                                <set attributeName="fill" to="#808080" begin="zoomminus.mouseover" end="zoomminus.mouseout"/>
                        </use>
                        <path d="M-4,0h8" fill="none" stroke="white" stroke-width="1.5" pointer-events="none"/>
                </g>
                <g id="dirArrow">
                        <path fill="none" stroke="white" stroke-width="1.5" d="M0,-3.0v7 M-2.5,-0.5L0,-3.0L2.5,-0.5"/>
                </g>
               <g id="resetDef">
                       <use xlink:href="#rim2" fill="#404040">
                               <set attributeName="fill" to="#808080" begin="reset.mouseover" end="reset.mouseout"/>
                       </use>
               </g>
        </defs>

<script type="text/javascript">
var viewWidth = 1070;
var viewHeight = 378;
var sectionId = 'dynsection-0';
</script>
<script xlink:href="../../svgpan.js"/>
<svg id="graph" class="graph">
<g id="viewport">
<title>p</title>
<polygon fill="white" stroke="none" points="-4,4 -4,-374 1066,-374 1066,4 -4,4"/>
<!-- Node1 -->
<g id="node1" class="node"><title>Node1</title>
<polygon fill="#bfbfbf" stroke="black" points="0.5,-169.5 0.5,-188.5 29.5,-188.5 29.5,-169.5 0.5,-169.5"/>
<text text-anchor="middle" x="15" y="-176.5" font-family="Helvetica,sans-Serif" font-size="10.00">p</text>
</g>
<!-- Node2 -->
<g id="node2" class="node"><title>Node2</title>
<g id="a_node2"><a xlink:href="../../d0/d96/classback_end_1_1_predator_prey.html#ae8cf2fdc568d75a0ebc097c23dc7c5f2" target="_top" xlink:title="backEnd.PredatorPrey.addCell">
<polygon fill="white" stroke="black" points="83.5,-301.5 83.5,-320.5 242.5,-320.5 242.5,-301.5 83.5,-301.5"/>
<text text-anchor="middle" x="163" y="-308.5" font-family="Helvetica,sans-Serif" font-size="10.00">backEnd.PredatorPrey.addCell</text>
</a>
</g>
</g>
<!-- Node1&#45;&gt;Node2 -->
<g id="edge1" class="edge"><title>Node1&#45;&gt;Node2</title>
<path fill="none" stroke="midnightblue" d="M19.1258,-198.482C24.2583,-223.823 36.966,-267.61 66,-291 71.303,-295.272 77.2926,-298.698 83.6247,-301.437"/>
<polygon fill="midnightblue" stroke="midnightblue" points="22.5553,-197.778 17.3166,-188.569 15.6691,-199.035 22.5553,-197.778"/>
</g>
<!-- Node10 -->
<g id="node10" class="node"><title>Node10</title>
<g id="a_node10"><a xlink:href="../../d5/dcb/classback_end_1_1_game_of_life.html#aebb3b607ec62b9ae836ba4a2a9776cee" target="_top" xlink:title="backEnd.GameOfLife.count\lLiveNeighbors">
<polygon fill="white" stroke="black" points="90,-164 90,-194 236,-194 236,-164 90,-164"/>
<text text-anchor="start" x="98" y="-182" font-family="Helvetica,sans-Serif" font-size="10.00">backEnd.GameOfLife.count</text>
<text text-anchor="middle" x="163" y="-171" font-family="Helvetica,sans-Serif" font-size="10.00">LiveNeighbors</text>
</a>
</g>
</g>
<!-- Node1&#45;&gt;Node10 -->
<g id="edge10" class="edge"><title>Node1&#45;&gt;Node10</title>
<path fill="none" stroke="midnightblue" d="M39.7902,-179C53.612,-179 71.8381,-179 89.9833,-179"/>
<polygon fill="midnightblue" stroke="midnightblue" points="39.7354,-175.5 29.7353,-179 39.7353,-182.5 39.7354,-175.5"/>
</g>
<!-- Node12 -->
<g id="node12" class="node"><title>Node12</title>
<g id="a_node12"><a xlink:href="../../d0/d96/classback_end_1_1_predator_prey.html#ac1aec1201253070e2cac1b976d6b30d3" target="_top" xlink:title="backEnd.PredatorPrey.find\lEmpties">
<polygon fill="white" stroke="black" points="92.5,-252 92.5,-282 233.5,-282 233.5,-252 92.5,-252"/>
<text text-anchor="start" x="100.5" y="-270" font-family="Helvetica,sans-Serif" font-size="10.00">backEnd.PredatorPrey.find</text>
<text text-anchor="middle" x="163" y="-259" font-family="Helvetica,sans-Serif" font-size="10.00">Empties</text>
</a>
</g>
</g>
<!-- Node1&#45;&gt;Node12 -->
<g id="edge12" class="edge"><title>Node1&#45;&gt;Node12</title>
<path fill="none" stroke="midnightblue" d="M27.5991,-197.198C36.6346,-210.013 50.2622,-226.664 66,-237 75.268,-243.087 85.8448,-248 96.5109,-251.947"/>
<polygon fill="midnightblue" stroke="midnightblue" points="30.357,-195.027 21.8669,-188.689 24.5515,-198.938 30.357,-195.027"/>
</g>
<!-- Node13 -->
<g id="node13" class="node"><title>Node13</title>
<g id="a_node13"><a xlink:href="../../de/d49/classback_end_1_1_sugar_scape.html#a960fa32657cb19f50dd7446619fe93e9" target="_top" xlink:title="backEnd.SugarScape.getClosest\lNeighbor">
<polygon fill="white" stroke="black" points="76.5,-115 76.5,-145 249.5,-145 249.5,-115 76.5,-115"/>
<text text-anchor="start" x="84.5" y="-133" font-family="Helvetica,sans-Serif" font-size="10.00">backEnd.SugarScape.getClosest</text>
<text text-anchor="middle" x="163" y="-122" font-family="Helvetica,sans-Serif" font-size="10.00">Neighbor</text>
</a>
</g>
</g>
<!-- Node1&#45;&gt;Node13 -->
<g id="edge15" class="edge"><title>Node1&#45;&gt;Node13</title>
<path fill="none" stroke="midnightblue" d="M38.503,-166.436C46.9463,-162.075 56.7412,-157.425 66,-154 74.9424,-150.692 84.5196,-147.69 94.0359,-145.018"/>
<polygon fill="midnightblue" stroke="midnightblue" points="36.8245,-163.365 29.6453,-171.156 40.1164,-169.542 36.8245,-163.365"/>
</g>
<!-- Node16 -->
<g id="node16" class="node"><title>Node16</title>
<g id="a_node16"><a xlink:href="../../de/d5a/classback_end_1_1_spreading_fire.html#a14b959c163a3a935ef7856c045b13eeb" target="_top" xlink:title="backEnd.SpreadingFire.getNext">
<polygon fill="white" stroke="black" points="79.5,-38.5 79.5,-57.5 246.5,-57.5 246.5,-38.5 79.5,-38.5"/>
<text text-anchor="middle" x="163" y="-45.5" font-family="Helvetica,sans-Serif" font-size="10.00">backEnd.SpreadingFire.getNext</text>
</a>
</g>
</g>
<!-- Node1&#45;&gt;Node16 -->
<g id="edge18" class="edge"><title>Node1&#45;&gt;Node16</title>
<path fill="none" stroke="midnightblue" d="M19.7697,-159.485C25.4816,-135.291 38.6944,-94.505 66,-72 73.5566,-65.7719 82.5074,-61.1275 91.857,-57.6702"/>
<polygon fill="midnightblue" stroke="midnightblue" points="16.3381,-158.795 17.6495,-169.308 23.1806,-160.272 16.3381,-158.795"/>
</g>
<!-- Node17 -->
<g id="node17" class="node"><title>Node17</title>
<g id="a_node17"><a xlink:href="../../d0/d96/classback_end_1_1_predator_prey.html#acad085d5842f415749231d940982ab57" target="_top" xlink:title="backEnd.PredatorPrey.get\lPossibleFish">
<polygon fill="white" stroke="black" points="93,-340 93,-370 233,-370 233,-340 93,-340"/>
<text text-anchor="start" x="101" y="-358" font-family="Helvetica,sans-Serif" font-size="10.00">backEnd.PredatorPrey.get</text>
<text text-anchor="middle" x="163" y="-347" font-family="Helvetica,sans-Serif" font-size="10.00">PossibleFish</text>
</a>
</g>
</g>
<!-- Node1&#45;&gt;Node17 -->
<g id="edge19" class="edge"><title>Node1&#45;&gt;Node17</title>
<path fill="none" stroke="midnightblue" d="M16.7613,-198.786C19.1016,-231.039 28.5065,-294.868 66,-330 73.5405,-337.066 82.8198,-342.192 92.6087,-345.901"/>
<polygon fill="midnightblue" stroke="midnightblue" points="20.2552,-198.578 16.1936,-188.793 13.2665,-198.975 20.2552,-198.578"/>
</g>
<!-- Node19 -->
<g id="node19" class="node"><title>Node19</title>
<g id="a_node19"><a xlink:href="../../d9/d2e/classback_end_1_1_segregation.html#a3cfddc34f7afe36f208eb6470d6e0f7d" target="_top" xlink:title="backEnd.Segregation.getSatisfaction">
<polygon fill="white" stroke="black" points="66,-0.5 66,-19.5 260,-19.5 260,-0.5 66,-0.5"/>
<text text-anchor="middle" x="163" y="-7.5" font-family="Helvetica,sans-Serif" font-size="10.00">backEnd.Segregation.getSatisfaction</text>
</a>
</g>
</g>
<!-- Node1&#45;&gt;Node19 -->
<g id="edge22" class="edge"><title>Node1&#45;&gt;Node19</title>
<path fill="none" stroke="midnightblue" d="M16.5754,-159.091C18.6482,-126.685 27.6765,-62.763 66,-29 70.2069,-25.2937 74.9245,-22.2272 79.9511,-19.6972"/>
<polygon fill="midnightblue" stroke="midnightblue" points="13.0767,-158.982 16.0958,-169.138 20.0688,-159.316 13.0767,-158.982"/>
</g>
<!-- Node21 -->
<g id="node21" class="node"><title>Node21</title>
<g id="a_node21"><a xlink:href="../../d0/d96/classback_end_1_1_predator_prey.html#a68cb844626fd1b6c4826c40ab75a8e6b" target="_top" xlink:title="backEnd.PredatorPrey.move\lOrAddCells">
<polygon fill="white" stroke="black" points="716.5,-208 716.5,-238 867.5,-238 867.5,-208 716.5,-208"/>
<text text-anchor="start" x="724.5" y="-226" font-family="Helvetica,sans-Serif" font-size="10.00">backEnd.PredatorPrey.move</text>
<text text-anchor="middle" x="792" y="-215" font-family="Helvetica,sans-Serif" font-size="10.00">OrAddCells</text>
</a>
</g>
</g>
<!-- Node1&#45;&gt;Node21 -->
<g id="edge24" class="edge"><title>Node1&#45;&gt;Node21</title>
<path fill="none" stroke="midnightblue" d="M38.85,-192.453C47.1223,-196.644 56.7177,-200.753 66,-203 297.757,-259.113 583.369,-243.152 716.335,-231.043"/>
<polygon fill="midnightblue" stroke="midnightblue" points="40.3086,-189.264 29.8447,-187.604 36.9894,-195.427 40.3086,-189.264"/>
</g>
<!-- Node22 -->
<g id="node22" class="node"><title>Node22</title>
<g id="a_node22"><a xlink:href="../../de/d49/classback_end_1_1_sugar_scape.html#a344d27aea6e78113b3d570c4465dee2f" target="_top" xlink:title="backEnd.SugarScape.movePatches">
<polygon fill="white" stroke="black" points="296,-78.5 296,-97.5 482,-97.5 482,-78.5 296,-78.5"/>
<text text-anchor="middle" x="389" y="-85.5" font-family="Helvetica,sans-Serif" font-size="10.00">backEnd.SugarScape.movePatches</text>
</a>
</g>
</g>
<!-- Node1&#45;&gt;Node22 -->
<g id="edge26" class="edge"><title>Node1&#45;&gt;Node22</title>
<path fill="none" stroke="midnightblue" d="M22.9981,-160.069C30.6289,-142.418 44.6767,-117.058 66,-105 153.712,-55.3991 277.271,-67.1449 342.903,-78.4906"/>
<polygon fill="midnightblue" stroke="midnightblue" points="19.7248,-158.827 19.2401,-169.411 26.2192,-161.44 19.7248,-158.827"/>
</g>
<!-- Node3 -->
<g id="node3" class="node"><title>Node3</title>
<g id="a_node3"><a xlink:href="../../d0/d96/classback_end_1_1_predator_prey.html#ae501b5b3266e13be211c77d6817045e7" target="_top" xlink:title="backEnd.PredatorPrey.moveAdj">
<polygon fill="white" stroke="black" points="306,-301.5 306,-320.5 472,-320.5 472,-301.5 306,-301.5"/>
<text text-anchor="middle" x="389" y="-308.5" font-family="Helvetica,sans-Serif" font-size="10.00">backEnd.PredatorPrey.moveAdj</text>
</a>
</g>
</g>
<!-- Node2&#45;&gt;Node3 -->
<g id="edge2" class="edge"><title>Node2&#45;&gt;Node3</title>
<path fill="none" stroke="midnightblue" d="M252.828,-311C270.277,-311 288.51,-311 305.732,-311"/>
<polygon fill="midnightblue" stroke="midnightblue" points="252.659,-307.5 242.659,-311 252.659,-314.5 252.659,-307.5"/>
</g>
<!-- Node7 -->
<g id="node7" class="node"><title>Node7</title>
<g id="a_node7"><a xlink:href="../../d0/d96/classback_end_1_1_predator_prey.html#a5a08efbe832d34c3c5f9bd15cf376f73" target="_top" xlink:title="backEnd.PredatorPrey.breed">
<polygon fill="white" stroke="black" points="313,-262.5 313,-281.5 465,-281.5 465,-262.5 313,-262.5"/>
<text text-anchor="middle" x="389" y="-269.5" font-family="Helvetica,sans-Serif" font-size="10.00">backEnd.PredatorPrey.breed</text>
</a>
</g>
</g>
<!-- Node2&#45;&gt;Node7 -->
<g id="edge6" class="edge"><title>Node2&#45;&gt;Node7</title>
<path fill="none" stroke="midnightblue" d="M228.845,-299.71C261.974,-293.942 301.838,-287.001 333.381,-281.509"/>
<polygon fill="midnightblue" stroke="midnightblue" points="228.048,-296.296 218.797,-301.46 229.249,-303.192 228.048,-296.296"/>
</g>
<!-- Node4 -->
<g id="node4" class="node"><title>Node4</title>
<g id="a_node4"><a xlink:href="../../d0/d96/classback_end_1_1_predator_prey.html#aecfa40f92acce8997492d12cefd08b48" target="_top" xlink:title="backEnd.PredatorPrey.getNext">
<polygon fill="white" stroke="black" points="518,-311.5 518,-330.5 680,-330.5 680,-311.5 518,-311.5"/>
<text text-anchor="middle" x="599" y="-318.5" font-family="Helvetica,sans-Serif" font-size="10.00">backEnd.PredatorPrey.getNext</text>
</a>
</g>
</g>
<!-- Node3&#45;&gt;Node4 -->
<g id="edge3" class="edge"><title>Node3&#45;&gt;Node4</title>
<path fill="none" stroke="midnightblue" d="M482.477,-315.446C494.239,-316.012 506.201,-316.587 517.749,-317.142"/>
<polygon fill="midnightblue" stroke="midnightblue" points="482.364,-311.937 472.207,-314.952 482.027,-318.929 482.364,-311.937"/>
</g>
<!-- Node5 -->
<g id="node5" class="node"><title>Node5</title>
<g id="a_node5"><a xlink:href="../../d0/d96/classback_end_1_1_predator_prey.html#aa032c15c617e2da8e1ab1a065413fb06" target="_top" xlink:title="backEnd.PredatorPrey.make\lNextGrid">
<polygon fill="white" stroke="black" points="716.5,-306 716.5,-336 867.5,-336 867.5,-306 716.5,-306"/>
<text text-anchor="start" x="724.5" y="-324" font-family="Helvetica,sans-Serif" font-size="10.00">backEnd.PredatorPrey.make</text>
<text text-anchor="middle" x="792" y="-313" font-family="Helvetica,sans-Serif" font-size="10.00">NextGrid</text>
</a>
</g>
</g>
<!-- Node4&#45;&gt;Node5 -->
<g id="edge4" class="edge"><title>Node4&#45;&gt;Node5</title>
<path fill="none" stroke="midnightblue" d="M690.31,-321C698.984,-321 707.715,-321 716.216,-321"/>
<polygon fill="midnightblue" stroke="midnightblue" points="690.171,-317.5 680.171,-321 690.171,-324.5 690.171,-317.5"/>
</g>
<!-- Node6 -->
<g id="node6" class="node"><title>Node6</title>
<g id="a_node6"><a xlink:href="../../d0/d96/classback_end_1_1_predator_prey.html#acf219a8748ddb0ed02c2202a3b3d6b37" target="_top" xlink:title="backEnd.PredatorPrey.update">
<polygon fill="white" stroke="black" points="904,-262.5 904,-281.5 1062,-281.5 1062,-262.5 904,-262.5"/>
<text text-anchor="middle" x="983" y="-269.5" font-family="Helvetica,sans-Serif" font-size="10.00">backEnd.PredatorPrey.update</text>
</a>
</g>
</g>
<!-- Node5&#45;&gt;Node6 -->
<g id="edge5" class="edge"><title>Node5&#45;&gt;Node6</title>
<path fill="none" stroke="midnightblue" d="M860.891,-303.399C889.347,-296.021 921.308,-287.735 945.249,-281.528"/>
<polygon fill="midnightblue" stroke="midnightblue" points="859.792,-300.068 850.991,-305.965 861.549,-306.844 859.792,-300.068"/>
</g>
<!-- Node8 -->
<g id="node8" class="node"><title>Node8</title>
<g id="a_node8"><a xlink:href="../../d0/d96/classback_end_1_1_predator_prey.html#acb81c56992e5c1bc58a34daa5b04e9aa" target="_top" xlink:title="backEnd.PredatorPrey.check\lBreed">
<polygon fill="white" stroke="black" points="523,-257 523,-287 675,-287 675,-257 523,-257"/>
<text text-anchor="start" x="531" y="-275" font-family="Helvetica,sans-Serif" font-size="10.00">backEnd.PredatorPrey.check</text>
<text text-anchor="middle" x="599" y="-264" font-family="Helvetica,sans-Serif" font-size="10.00">Breed</text>
</a>
</g>
</g>
<!-- Node7&#45;&gt;Node8 -->
<g id="edge7" class="edge"><title>Node7&#45;&gt;Node8</title>
<path fill="none" stroke="midnightblue" d="M475.308,-272C491.005,-272 507.29,-272 522.668,-272"/>
<polygon fill="midnightblue" stroke="midnightblue" points="475.093,-268.5 465.093,-272 475.093,-275.5 475.093,-268.5"/>
</g>
<!-- Node9 -->
<g id="node9" class="node"><title>Node9</title>
<g id="a_node9"><a xlink:href="../../d0/d96/classback_end_1_1_predator_prey.html#ac9689f0a85de526bd6d2f1e23657dfe8" target="_top" xlink:title="backEnd.PredatorPrey.breed\lIfNecessary">
<polygon fill="white" stroke="black" points="716,-257 716,-287 868,-287 868,-257 716,-257"/>
<text text-anchor="start" x="724" y="-275" font-family="Helvetica,sans-Serif" font-size="10.00">backEnd.PredatorPrey.breed</text>
<text text-anchor="middle" x="792" y="-264" font-family="Helvetica,sans-Serif" font-size="10.00">IfNecessary</text>
</a>
</g>
</g>
<!-- Node8&#45;&gt;Node9 -->
<g id="edge8" class="edge"><title>Node8&#45;&gt;Node9</title>
<path fill="none" stroke="midnightblue" d="M685.323,-272C695.5,-272 705.834,-272 715.854,-272"/>
<polygon fill="midnightblue" stroke="midnightblue" points="685.214,-268.5 675.214,-272 685.214,-275.5 685.214,-268.5"/>
</g>
<!-- Node9&#45;&gt;Node6 -->
<g id="edge9" class="edge"><title>Node9&#45;&gt;Node6</title>
<path fill="none" stroke="midnightblue" d="M878.503,-272C886.97,-272 895.535,-272 903.922,-272"/>
<polygon fill="midnightblue" stroke="midnightblue" points="878.241,-268.5 868.241,-272 878.241,-275.5 878.241,-268.5"/>
</g>
<!-- Node11 -->
<g id="node11" class="node"><title>Node11</title>
<g id="a_node11"><a xlink:href="../../d5/dcb/classback_end_1_1_game_of_life.html#af98fae7f8d156a65231b2d63bf5e27fb" target="_top" xlink:title="backEnd.GameOfLife.getNext">
<polygon fill="white" stroke="black" points="310,-169.5 310,-188.5 468,-188.5 468,-169.5 310,-169.5"/>
<text text-anchor="middle" x="389" y="-176.5" font-family="Helvetica,sans-Serif" font-size="10.00">backEnd.GameOfLife.getNext</text>
</a>
</g>
</g>
<!-- Node10&#45;&gt;Node11 -->
<g id="edge11" class="edge"><title>Node10&#45;&gt;Node11</title>
<path fill="none" stroke="midnightblue" d="M246.182,-179C266.974,-179 289.245,-179 309.833,-179"/>
<polygon fill="midnightblue" stroke="midnightblue" points="246.108,-175.5 236.108,-179 246.108,-182.5 246.108,-175.5"/>
</g>
<!-- Node12&#45;&gt;Node3 -->
<g id="edge13" class="edge"><title>Node12&#45;&gt;Node3</title>
<path fill="none" stroke="midnightblue" d="M243.856,-282.686C275.757,-288.952 311.458,-295.965 339.35,-301.444"/>
<polygon fill="midnightblue" stroke="midnightblue" points="244.134,-279.174 233.647,-280.681 242.785,-286.043 244.134,-279.174"/>
</g>
<!-- Node12&#45;&gt;Node7 -->
<g id="edge14" class="edge"><title>Node12&#45;&gt;Node7</title>
<path fill="none" stroke="midnightblue" d="M243.839,-268.782C266.343,-269.284 290.741,-269.829 312.954,-270.325"/>
<polygon fill="midnightblue" stroke="midnightblue" points="243.723,-265.279 233.647,-268.555 243.566,-272.277 243.723,-265.279"/>
</g>
<!-- Node14 -->
<g id="node14" class="node"><title>Node14</title>
<g id="a_node14"><a xlink:href="../../de/d49/classback_end_1_1_sugar_scape.html#a13186ddb64e70b5941d0cd12163c3e84" target="_top" xlink:title="backEnd.SugarScape.getNext">
<polygon fill="white" stroke="black" points="309,-119.5 309,-138.5 469,-138.5 469,-119.5 309,-119.5"/>
<text text-anchor="middle" x="389" y="-126.5" font-family="Helvetica,sans-Serif" font-size="10.00">backEnd.SugarScape.getNext</text>
</a>
</g>
</g>
<!-- Node13&#45;&gt;Node14 -->
<g id="edge16" class="edge"><title>Node13&#45;&gt;Node14</title>
<path fill="none" stroke="midnightblue" d="M259.728,-129.573C276.043,-129.5 292.828,-129.425 308.66,-129.354"/>
<polygon fill="midnightblue" stroke="midnightblue" points="259.628,-126.073 249.644,-129.618 259.659,-133.073 259.628,-126.073"/>
</g>
<!-- Node15 -->
<g id="node15" class="node"><title>Node15</title>
<g id="a_node15"><a xlink:href="../../de/d49/classback_end_1_1_sugar_scape.html#ab0c2eb832afef056e0a72aea2bf8ddc1" target="_top" xlink:title="backEnd.SugarScape.update">
<polygon fill="white" stroke="black" points="521.5,-99.5 521.5,-118.5 676.5,-118.5 676.5,-99.5 521.5,-99.5"/>
<text text-anchor="middle" x="599" y="-106.5" font-family="Helvetica,sans-Serif" font-size="10.00">backEnd.SugarScape.update</text>
</a>
</g>
</g>
<!-- Node14&#45;&gt;Node15 -->
<g id="edge17" class="edge"><title>Node14&#45;&gt;Node15</title>
<path fill="none" stroke="midnightblue" d="M479.346,-120.409C493.348,-119.063 507.712,-117.682 521.394,-116.366"/>
<polygon fill="midnightblue" stroke="midnightblue" points="478.848,-116.941 469.229,-121.382 479.518,-123.909 478.848,-116.941"/>
</g>
<!-- Node18 -->
<g id="node18" class="node"><title>Node18</title>
<g id="a_node18"><a xlink:href="../../d0/d96/classback_end_1_1_predator_prey.html#afbf1847ebcb9a605eec41be73dec7c8c" target="_top" xlink:title="backEnd.PredatorPrey.check\lForFishAndMove">
<polygon fill="white" stroke="black" points="313,-340 313,-370 465,-370 465,-340 313,-340"/>
<text text-anchor="start" x="321" y="-358" font-family="Helvetica,sans-Serif" font-size="10.00">backEnd.PredatorPrey.check</text>
<text text-anchor="middle" x="389" y="-347" font-family="Helvetica,sans-Serif" font-size="10.00">ForFishAndMove</text>
</a>
</g>
</g>
<!-- Node17&#45;&gt;Node18 -->
<g id="edge20" class="edge"><title>Node17&#45;&gt;Node18</title>
<path fill="none" stroke="midnightblue" d="M243.293,-355C265.951,-355 290.567,-355 312.962,-355"/>
<polygon fill="midnightblue" stroke="midnightblue" points="243.035,-351.5 233.035,-355 243.035,-358.5 243.035,-351.5"/>
</g>
<!-- Node18&#45;&gt;Node4 -->
<g id="edge21" class="edge"><title>Node18&#45;&gt;Node4</title>
<path fill="none" stroke="midnightblue" d="M474.985,-341.108C496.722,-337.555 519.606,-333.814 539.663,-330.536"/>
<polygon fill="midnightblue" stroke="midnightblue" points="474.397,-337.658 465.093,-342.725 475.526,-344.566 474.397,-337.658"/>
</g>
<!-- Node20 -->
<g id="node20" class="node"><title>Node20</title>
<g id="a_node20"><a xlink:href="../../d9/d2e/classback_end_1_1_segregation.html#a306bcff5f217b04d83849a3cc77bddfb" target="_top" xlink:title="backEnd.Segregation.getNext">
<polygon fill="white" stroke="black" points="309,-0.5 309,-19.5 469,-19.5 469,-0.5 309,-0.5"/>
<text text-anchor="middle" x="389" y="-7.5" font-family="Helvetica,sans-Serif" font-size="10.00">backEnd.Segregation.getNext</text>
</a>
</g>
</g>
<!-- Node19&#45;&gt;Node20 -->
<g id="edge23" class="edge"><title>Node19&#45;&gt;Node20</title>
<path fill="none" stroke="midnightblue" d="M270.623,-10C283.542,-10 296.556,-10 308.977,-10"/>
<polygon fill="midnightblue" stroke="midnightblue" points="270.296,-6.5001 260.296,-10 270.296,-13.5001 270.296,-6.5001"/>
</g>
<!-- Node21&#45;&gt;Node6 -->
<g id="edge25" class="edge"><title>Node21&#45;&gt;Node6</title>
<path fill="none" stroke="midnightblue" d="M860.891,-240.601C889.347,-247.979 921.308,-256.265 945.249,-262.472"/>
<polygon fill="midnightblue" stroke="midnightblue" points="861.549,-237.156 850.991,-238.035 859.792,-243.932 861.549,-237.156"/>
</g>
<!-- Node22&#45;&gt;Node15 -->
<g id="edge27" class="edge"><title>Node22&#45;&gt;Node15</title>
<path fill="none" stroke="midnightblue" d="M492.346,-98.333C502.161,-99.3239 511.995,-100.317 521.499,-101.276"/>
<polygon fill="midnightblue" stroke="midnightblue" points="492.441,-94.8249 482.14,-97.3026 491.738,-101.79 492.441,-94.8249"/>
</g>
</g>
</svg>
        <g id="navigator" transform="translate(0 0)" fill="#404254">
                <rect fill="#f2f5e9" fill-opacity="0.5" stroke="#606060" stroke-width=".5" x="0" y="0" width="60" height="60"/>
                <use id="zoomplus" xlink:href="#zoomPlus" x="17" y="9" onmousedown="handleZoom(evt,'in')"/>
                <use id="zoomminus" xlink:href="#zoomMin" x="42" y="9" onmousedown="handleZoom(evt,'out')"/>
                <use id="reset" xlink:href="#resetDef" x="30" y="36" onmousedown="handleReset()"/>
                <g id="arrowUp" xlink:href="#dirArrow" transform="translate(30 24)" onmousedown="handlePan(0,-1)">
                  <use xlink:href="#rim" fill="#404040">
                        <set attributeName="fill" to="#808080" begin="arrowUp.mouseover" end="arrowUp.mouseout"/>
                  </use>
                  <path fill="none" stroke="white" stroke-width="1.5" d="M0,-3.0v7 M-2.5,-0.5L0,-3.0L2.5,-0.5"/>
                </g>
                <g id="arrowRight" xlink:href="#dirArrow" transform="rotate(90) translate(36 -43)" onmousedown="handlePan(1,0)">
                  <use xlink:href="#rim" fill="#404040">
                        <set attributeName="fill" to="#808080" begin="arrowRight.mouseover" end="arrowRight.mouseout"/>
                  </use>
                  <path fill="none" stroke="white" stroke-width="1.5" d="M0,-3.0v7 M-2.5,-0.5L0,-3.0L2.5,-0.5"/>
                </g>
                <g id="arrowDown" xlink:href="#dirArrow" transform="rotate(180) translate(-30 -48)" onmousedown="handlePan(0,1)">
                  <use xlink:href="#rim" fill="#404040">
                        <set attributeName="fill" to="#808080" begin="arrowDown.mouseover" end="arrowDown.mouseout"/>
                  </use>
                  <path fill="none" stroke="white" stroke-width="1.5" d="M0,-3.0v7 M-2.5,-0.5L0,-3.0L2.5,-0.5"/>
                </g>
                <g id="arrowLeft" xlink:href="#dirArrow" transform="rotate(270) translate(-36 17)" onmousedown="handlePan(-1,0)">
                  <use xlink:href="#rim" fill="#404040">
                        <set attributeName="fill" to="#808080" begin="arrowLeft.mouseover" end="arrowLeft.mouseout"/>
                  </use>
                  <path fill="none" stroke="white" stroke-width="1.5" d="M0,-3.0v7 M-2.5,-0.5L0,-3.0L2.5,-0.5"/>
                </g>
        </g>
        <svg viewBox="0 0 15 15" width="100%" height="30px" preserveAspectRatio="xMaxYMin meet">
         <g id="arrow_out" transform="scale(0.3 0.3)">
          <a xlink:href="jquery_8js_a2335e57f79b6acfb6de59c235dc8a83e_icgraph_org.svg" target="_base">
           <rect id="button" ry="5" rx="5" y="6" x="6" height="38" width="38"
                fill="#f2f5e9" fill-opacity="0.5" stroke="#606060" stroke-width="1.0"/>
           <path id="arrow"
             d="M 11.500037,31.436501 C 11.940474,20.09759 22.043105,11.32322 32.158766,21.979434 L 37.068811,17.246167 C 37.068811,17.246167 37.088388,32 37.088388,32 L 22.160133,31.978069 C 22.160133,31.978069 26.997745,27.140456 26.997745,27.140456 C 18.528582,18.264221 13.291696,25.230495 11.500037,31.436501 z"
             style="fill:#404040;"/>
          </a>
         </g>
        </svg>
</svg>
