<?xml version="1.0" encoding="UTF-8" standalone="no"?>
<!DOCTYPE svg PUBLIC "-//W3C//DTD SVG 1.1//EN"
 "http://www.w3.org/Graphics/SVG/1.1/DTD/svg11.dtd">
<!-- Generated by graphviz version 2.36.0 (20140111.2315)
 -->
<!-- Title: shapeFactories.ShapeFactory.setCoords Pages: 1 -->
<svg width="1664pt" height="104pt"
 viewBox="0.00 0.00 1664.00 104.00" xmlns="http://www.w3.org/2000/svg" xmlns:xlink="http://www.w3.org/1999/xlink">
<g id="graph0" class="graph" transform="scale(1 1) rotate(0) translate(4 100)">
<title>shapeFactories.ShapeFactory.setCoords</title>
<polygon fill="white" stroke="none" points="-4,4 -4,-100 1660,-100 1660,4 -4,4"/>
<!-- Node1 -->
<g id="node1" class="node"><title>Node1</title>
<polygon fill="#bfbfbf" stroke="black" points="0.5,-33 0.5,-63 173.5,-63 173.5,-33 0.5,-33"/>
<text text-anchor="start" x="8.5" y="-51" font-family="Helvetica,sans-Serif" font-size="10.00">shapeFactories.ShapeFactory.set</text>
<text text-anchor="middle" x="87" y="-40" font-family="Helvetica,sans-Serif" font-size="10.00">Coords</text>
</g>
<!-- Node2 -->
<g id="node2" class="node"><title>Node2</title>
<g id="a_node2"><a xlink:href="../../d4/d6c/classshape_factories_1_1_shape_factory.html#a7a14b33c28eb5951679f13f21633bdf4" target="_top" xlink:title="shapeFactories.ShapeFactory.make\lShape">
<polygon fill="white" stroke="black" points="210.5,-33 210.5,-63 395.5,-63 395.5,-33 210.5,-33"/>
<text text-anchor="start" x="218.5" y="-51" font-family="Helvetica,sans-Serif" font-size="10.00">shapeFactories.ShapeFactory.make</text>
<text text-anchor="middle" x="303" y="-40" font-family="Helvetica,sans-Serif" font-size="10.00">Shape</text>
</a>
</g>
</g>
<!-- Node1&#45;&gt;Node2 -->
<g id="edge1" class="edge"><title>Node1&#45;&gt;Node2</title>
<path fill="none" stroke="midnightblue" d="M183.506,-48C192.419,-48 201.441,-48 210.318,-48"/>
<polygon fill="midnightblue" stroke="midnightblue" points="183.501,-44.5001 173.501,-48 183.501,-51.5001 183.501,-44.5001"/>
</g>
<!-- Node3 -->
<g id="node3" class="node"><title>Node3</title>
<g id="a_node3"><a xlink:href="../../dc/da1/classfront_end_1_1_animator_loop.html#aa8be847f0f9efee238193322c5ab9f5b" target="_top" xlink:title="frontEnd.AnimatorLoop.add\lCellsToGrid">
<polygon fill="white" stroke="black" points="432.5,-33 432.5,-63 581.5,-63 581.5,-33 432.5,-33"/>
<text text-anchor="start" x="440.5" y="-51" font-family="Helvetica,sans-Serif" font-size="10.00">frontEnd.AnimatorLoop.add</text>
<text text-anchor="middle" x="507" y="-40" font-family="Helvetica,sans-Serif" font-size="10.00">CellsToGrid</text>
</a>
</g>
</g>
<!-- Node2&#45;&gt;Node3 -->
<g id="edge2" class="edge"><title>Node2&#45;&gt;Node3</title>
<path fill="none" stroke="midnightblue" d="M405.675,-48C414.66,-48 423.637,-48 432.323,-48"/>
<polygon fill="midnightblue" stroke="midnightblue" points="405.544,-44.5001 395.544,-48 405.544,-51.5001 405.544,-44.5001"/>
</g>
<!-- Node4 -->
<g id="node4" class="node"><title>Node4</title>
<g id="a_node4"><a xlink:href="../../dc/da1/classfront_end_1_1_animator_loop.html#a92b2bebb55107557a33d1621ddae5872" target="_top" xlink:title="frontEnd.AnimatorLoop.init\lGridPane">
<polygon fill="white" stroke="black" points="618.5,-33 618.5,-63 763.5,-63 763.5,-33 618.5,-33"/>
<text text-anchor="start" x="626.5" y="-51" font-family="Helvetica,sans-Serif" font-size="10.00">frontEnd.AnimatorLoop.init</text>
<text text-anchor="middle" x="691" y="-40" font-family="Helvetica,sans-Serif" font-size="10.00">GridPane</text>
</a>
</g>
</g>
<!-- Node3&#45;&gt;Node4 -->
<g id="edge3" class="edge"><title>Node3&#45;&gt;Node4</title>
<path fill="none" stroke="midnightblue" d="M591.534,-48C600.473,-48 609.508,-48 618.292,-48"/>
<polygon fill="midnightblue" stroke="midnightblue" points="591.502,-44.5001 581.502,-48 591.502,-51.5001 591.502,-44.5001"/>
</g>
<!-- Node5 -->
<g id="node5" class="node"><title>Node5</title>
<g id="a_node5"><a xlink:href="../../dc/da1/classfront_end_1_1_animator_loop.html#a1f378b18807af5386266685e907aa8c7" target="_top" xlink:title="frontEnd.AnimatorLoop.read\lXMLAndInitializeGrid">
<polygon fill="white" stroke="black" points="800,-33 800,-63 952,-63 952,-33 800,-33"/>
<text text-anchor="start" x="808" y="-51" font-family="Helvetica,sans-Serif" font-size="10.00">frontEnd.AnimatorLoop.read</text>
<text text-anchor="middle" x="876" y="-40" font-family="Helvetica,sans-Serif" font-size="10.00">XMLAndInitializeGrid</text>
</a>
</g>
</g>
<!-- Node4&#45;&gt;Node5 -->
<g id="edge4" class="edge"><title>Node4&#45;&gt;Node5</title>
<path fill="none" stroke="midnightblue" d="M773.698,-48C782.415,-48 791.253,-48 799.889,-48"/>
<polygon fill="midnightblue" stroke="midnightblue" points="773.539,-44.5001 763.539,-48 773.539,-51.5001 773.539,-44.5001"/>
</g>
<!-- Node6 -->
<g id="node6" class="node"><title>Node6</title>
<g id="a_node6"><a xlink:href="../../dd/dbe/classfront_end_1_1_main.html#a7bae3127415fb2ae80975ebc95057e3f" target="_top" xlink:title="frontEnd.Main.readXML">
<polygon fill="white" stroke="black" points="988.5,-38.5 988.5,-57.5 1115.5,-57.5 1115.5,-38.5 988.5,-38.5"/>
<text text-anchor="middle" x="1052" y="-45.5" font-family="Helvetica,sans-Serif" font-size="10.00">frontEnd.Main.readXML</text>
</a>
</g>
</g>
<!-- Node5&#45;&gt;Node6 -->
<g id="edge5" class="edge"><title>Node5&#45;&gt;Node6</title>
<path fill="none" stroke="midnightblue" d="M962.065,-48C970.959,-48 979.88,-48 988.457,-48"/>
<polygon fill="midnightblue" stroke="midnightblue" points="962.054,-44.5001 952.054,-48 962.054,-51.5001 962.054,-44.5001"/>
</g>
<!-- Node7 -->
<g id="node7" class="node"><title>Node7</title>
<g id="a_node7"><a xlink:href="../../dd/dbe/classfront_end_1_1_main.html#a55d59b110825a1cc153a0091a6e5cb99" target="_top" xlink:title="frontEnd.Main.makeMenu">
<polygon fill="white" stroke="black" points="1152.5,-76.5 1152.5,-95.5 1291.5,-95.5 1291.5,-76.5 1152.5,-76.5"/>
<text text-anchor="middle" x="1222" y="-83.5" font-family="Helvetica,sans-Serif" font-size="10.00">frontEnd.Main.makeMenu</text>
</a>
</g>
</g>
<!-- Node6&#45;&gt;Node7 -->
<g id="edge6" class="edge"><title>Node6&#45;&gt;Node7</title>
<path fill="none" stroke="midnightblue" d="M1105.28,-59.8243C1128.96,-65.1816 1156.59,-71.4311 1178.91,-76.4799"/>
<polygon fill="midnightblue" stroke="midnightblue" points="1105.92,-56.3815 1095.39,-57.589 1104.37,-63.209 1105.92,-56.3815"/>
</g>
<!-- Node9 -->
<g id="node9" class="node"><title>Node9</title>
<g id="a_node9"><a xlink:href="../../dd/dbe/classfront_end_1_1_main.html#a8e2e836903a64069e4283fa66309c704" target="_top" xlink:title="frontEnd.Main.resetSim">
<polygon fill="white" stroke="black" points="1157.5,-0.5 1157.5,-19.5 1286.5,-19.5 1286.5,-0.5 1157.5,-0.5"/>
<text text-anchor="middle" x="1222" y="-7.5" font-family="Helvetica,sans-Serif" font-size="10.00">frontEnd.Main.resetSim</text>
</a>
</g>
</g>
<!-- Node6&#45;&gt;Node9 -->
<g id="edge8" class="edge"><title>Node6&#45;&gt;Node9</title>
<path fill="none" stroke="midnightblue" d="M1105.28,-36.1757C1128.96,-30.8184 1156.59,-24.5689 1178.91,-19.5201"/>
<polygon fill="midnightblue" stroke="midnightblue" points="1104.37,-32.791 1095.39,-38.411 1105.92,-39.6185 1104.37,-32.791"/>
</g>
<!-- Node8 -->
<g id="node8" class="node"><title>Node8</title>
<g id="a_node8"><a xlink:href="../../dd/dbe/classfront_end_1_1_main.html#ae53f892716dcc60f3f49714496e30c91" target="_top" xlink:title="frontEnd.Main.start">
<polygon fill="white" stroke="black" points="1548,-38.5 1548,-57.5 1656,-57.5 1656,-38.5 1548,-38.5"/>
<text text-anchor="middle" x="1602" y="-45.5" font-family="Helvetica,sans-Serif" font-size="10.00">frontEnd.Main.start</text>
</a>
</g>
</g>
<!-- Node7&#45;&gt;Node8 -->
<g id="edge7" class="edge"><title>Node7&#45;&gt;Node8</title>
<path fill="none" stroke="midnightblue" d="M1301.84,-83.8939C1360.12,-81.5912 1441.29,-76.8194 1512,-67 1528.59,-64.6964 1546.7,-61.0429 1562.23,-57.5524"/>
<polygon fill="midnightblue" stroke="midnightblue" points="1301.46,-80.4058 1291.6,-84.2825 1301.73,-87.4007 1301.46,-80.4058"/>
</g>
<!-- Node10 -->
<g id="node10" class="node"><title>Node10</title>
<g id="a_node10"><a xlink:href="../../dd/dbe/classfront_end_1_1_main.html#a0ff8a007311f8ecce84d4203dc85d669" target="_top" xlink:title="frontEnd.Main.makeParamControls">
<polygon fill="white" stroke="black" points="1328.5,-38.5 1328.5,-57.5 1511.5,-57.5 1511.5,-38.5 1328.5,-38.5"/>
<text text-anchor="middle" x="1420" y="-45.5" font-family="Helvetica,sans-Serif" font-size="10.00">frontEnd.Main.makeParamControls</text>
</a>
</g>
</g>
<!-- Node9&#45;&gt;Node10 -->
<g id="edge9" class="edge"><title>Node9&#45;&gt;Node10</title>
<path fill="none" stroke="midnightblue" d="M1282.26,-21.4894C1310.23,-26.9114 1343.21,-33.3058 1369.77,-38.4561"/>
<polygon fill="midnightblue" stroke="midnightblue" points="1282.69,-18.0073 1272.21,-19.54 1281.36,-24.8794 1282.69,-18.0073"/>
</g>
<!-- Node11 -->
<g id="node11" class="node"><title>Node11</title>
<g id="a_node11"><a xlink:href="../../dd/dbe/classfront_end_1_1_main.html#a1f4c19654fe78e5ebca54fc26bf43c94" target="_top" xlink:title="frontEnd.Main.useControls">
<polygon fill="white" stroke="black" points="1348.5,-0.5 1348.5,-19.5 1491.5,-19.5 1491.5,-0.5 1348.5,-0.5"/>
<text text-anchor="middle" x="1420" y="-7.5" font-family="Helvetica,sans-Serif" font-size="10.00">frontEnd.Main.useControls</text>
</a>
</g>
</g>
<!-- Node9&#45;&gt;Node11 -->
<g id="edge11" class="edge"><title>Node9&#45;&gt;Node11</title>
<path fill="none" stroke="midnightblue" d="M1296.95,-10C1313.75,-10 1331.56,-10 1348.22,-10"/>
<polygon fill="midnightblue" stroke="midnightblue" points="1296.64,-6.5001 1286.64,-10 1296.64,-13.5001 1296.64,-6.5001"/>
</g>
<!-- Node10&#45;&gt;Node6 -->
<g id="edge10" class="edge"><title>Node10&#45;&gt;Node6</title>
<path fill="none" stroke="midnightblue" d="M1318.03,-48C1253.19,-48 1171.03,-48 1115.5,-48"/>
<polygon fill="midnightblue" stroke="midnightblue" points="1318.28,-51.5001 1328.28,-48 1318.28,-44.5001 1318.28,-51.5001"/>
</g>
<!-- Node11&#45;&gt;Node8 -->
<g id="edge12" class="edge"><title>Node11&#45;&gt;Node8</title>
<path fill="none" stroke="midnightblue" d="M1476.87,-21.6234C1488.48,-24.0513 1500.64,-26.6018 1512,-29 1526.53,-32.0681 1542.39,-35.4447 1556.64,-38.4897"/>
<polygon fill="midnightblue" stroke="midnightblue" points="1477.34,-18.1466 1466.84,-19.5282 1475.91,-24.9987 1477.34,-18.1466"/>
</g>
</g>
</svg>
