<?xml version="1.0" encoding="UTF-8" standalone="no"?>
<!DOCTYPE svg PUBLIC "-//W3C//DTD SVG 1.1//EN"
 "http://www.w3.org/Graphics/SVG/1.1/DTD/svg11.dtd">
<!-- Generated by graphviz version 2.36.0 (20140111.2315)
 -->
<!-- Title: shapeFactories.ShapeFactory.move Pages: 1 -->
<svg width="1454pt" height="104pt"
 viewBox="0.00 0.00 1454.00 104.00" xmlns="http://www.w3.org/2000/svg" xmlns:xlink="http://www.w3.org/1999/xlink">
<g id="graph0" class="graph" transform="scale(1 1) rotate(0) translate(4 100)">
<title>shapeFactories.ShapeFactory.move</title>
<polygon fill="white" stroke="none" points="-4,4 -4,-100 1450,-100 1450,4 -4,4"/>
<!-- Node1 -->
<g id="node1" class="node"><title>Node1</title>
<polygon fill="#bfbfbf" stroke="black" points="0.5,-38.5 0.5,-57.5 185.5,-57.5 185.5,-38.5 0.5,-38.5"/>
<text text-anchor="middle" x="93" y="-45.5" font-family="Helvetica,sans-Serif" font-size="10.00">shapeFactories.ShapeFactory.move</text>
</g>
<!-- Node2 -->
<g id="node2" class="node"><title>Node2</title>
<g id="a_node2"><a xlink:href="../../dc/da1/classfront_end_1_1_animator_loop.html#aa8be847f0f9efee238193322c5ab9f5b" target="_top" xlink:title="frontEnd.AnimatorLoop.add\lCellsToGrid">
<polygon fill="white" stroke="black" points="222.5,-33 222.5,-63 371.5,-63 371.5,-33 222.5,-33"/>
<text text-anchor="start" x="230.5" y="-51" font-family="Helvetica,sans-Serif" font-size="10.00">frontEnd.AnimatorLoop.add</text>
<text text-anchor="middle" x="297" y="-40" font-family="Helvetica,sans-Serif" font-size="10.00">CellsToGrid</text>
</a>
</g>
</g>
<!-- Node1&#45;&gt;Node2 -->
<g id="edge1" class="edge"><title>Node1&#45;&gt;Node2</title>
<path fill="none" stroke="midnightblue" d="M195.675,-48C204.66,-48 213.637,-48 222.323,-48"/>
<polygon fill="midnightblue" stroke="midnightblue" points="195.544,-44.5001 185.544,-48 195.544,-51.5001 195.544,-44.5001"/>
</g>
<!-- Node3 -->
<g id="node3" class="node"><title>Node3</title>
<g id="a_node3"><a xlink:href="../../dc/da1/classfront_end_1_1_animator_loop.html#a92b2bebb55107557a33d1621ddae5872" target="_top" xlink:title="frontEnd.AnimatorLoop.init\lGridPane">
<polygon fill="white" stroke="black" points="408.5,-33 408.5,-63 553.5,-63 553.5,-33 408.5,-33"/>
<text text-anchor="start" x="416.5" y="-51" font-family="Helvetica,sans-Serif" font-size="10.00">frontEnd.AnimatorLoop.init</text>
<text text-anchor="middle" x="481" y="-40" font-family="Helvetica,sans-Serif" font-size="10.00">GridPane</text>
</a>
</g>
</g>
<!-- Node2&#45;&gt;Node3 -->
<g id="edge2" class="edge"><title>Node2&#45;&gt;Node3</title>
<path fill="none" stroke="midnightblue" d="M381.534,-48C390.473,-48 399.508,-48 408.292,-48"/>
<polygon fill="midnightblue" stroke="midnightblue" points="381.502,-44.5001 371.502,-48 381.502,-51.5001 381.502,-44.5001"/>
</g>
<!-- Node4 -->
<g id="node4" class="node"><title>Node4</title>
<g id="a_node4"><a xlink:href="../../dc/da1/classfront_end_1_1_animator_loop.html#a1f378b18807af5386266685e907aa8c7" target="_top" xlink:title="frontEnd.AnimatorLoop.read\lXMLAndInitializeGrid">
<polygon fill="white" stroke="black" points="590,-33 590,-63 742,-63 742,-33 590,-33"/>
<text text-anchor="start" x="598" y="-51" font-family="Helvetica,sans-Serif" font-size="10.00">frontEnd.AnimatorLoop.read</text>
<text text-anchor="middle" x="666" y="-40" font-family="Helvetica,sans-Serif" font-size="10.00">XMLAndInitializeGrid</text>
</a>
</g>
</g>
<!-- Node3&#45;&gt;Node4 -->
<g id="edge3" class="edge"><title>Node3&#45;&gt;Node4</title>
<path fill="none" stroke="midnightblue" d="M563.698,-48C572.415,-48 581.253,-48 589.889,-48"/>
<polygon fill="midnightblue" stroke="midnightblue" points="563.539,-44.5001 553.539,-48 563.539,-51.5001 563.539,-44.5001"/>
</g>
<!-- Node5 -->
<g id="node5" class="node"><title>Node5</title>
<g id="a_node5"><a xlink:href="../../dd/dbe/classfront_end_1_1_main.html#a7bae3127415fb2ae80975ebc95057e3f" target="_top" xlink:title="frontEnd.Main.readXML">
<polygon fill="white" stroke="black" points="778.5,-38.5 778.5,-57.5 905.5,-57.5 905.5,-38.5 778.5,-38.5"/>
<text text-anchor="middle" x="842" y="-45.5" font-family="Helvetica,sans-Serif" font-size="10.00">frontEnd.Main.readXML</text>
</a>
</g>
</g>
<!-- Node4&#45;&gt;Node5 -->
<g id="edge4" class="edge"><title>Node4&#45;&gt;Node5</title>
<path fill="none" stroke="midnightblue" d="M752.065,-48C760.959,-48 769.88,-48 778.457,-48"/>
<polygon fill="midnightblue" stroke="midnightblue" points="752.054,-44.5001 742.054,-48 752.054,-51.5001 752.054,-44.5001"/>
</g>
<!-- Node6 -->
<g id="node6" class="node"><title>Node6</title>
<g id="a_node6"><a xlink:href="../../dd/dbe/classfront_end_1_1_main.html#a55d59b110825a1cc153a0091a6e5cb99" target="_top" xlink:title="frontEnd.Main.makeMenu">
<polygon fill="white" stroke="black" points="942.5,-76.5 942.5,-95.5 1081.5,-95.5 1081.5,-76.5 942.5,-76.5"/>
<text text-anchor="middle" x="1012" y="-83.5" font-family="Helvetica,sans-Serif" font-size="10.00">frontEnd.Main.makeMenu</text>
</a>
</g>
</g>
<!-- Node5&#45;&gt;Node6 -->
<g id="edge5" class="edge"><title>Node5&#45;&gt;Node6</title>
<path fill="none" stroke="midnightblue" d="M895.276,-59.8243C918.961,-65.1816 946.59,-71.4311 968.911,-76.4799"/>
<polygon fill="midnightblue" stroke="midnightblue" points="895.919,-56.3815 885.393,-57.589 894.375,-63.209 895.919,-56.3815"/>
</g>
<!-- Node8 -->
<g id="node8" class="node"><title>Node8</title>
<g id="a_node8"><a xlink:href="../../dd/dbe/classfront_end_1_1_main.html#a8e2e836903a64069e4283fa66309c704" target="_top" xlink:title="frontEnd.Main.resetSim">
<polygon fill="white" stroke="black" points="947.5,-0.5 947.5,-19.5 1076.5,-19.5 1076.5,-0.5 947.5,-0.5"/>
<text text-anchor="middle" x="1012" y="-7.5" font-family="Helvetica,sans-Serif" font-size="10.00">frontEnd.Main.resetSim</text>
</a>
</g>
</g>
<!-- Node5&#45;&gt;Node8 -->
<g id="edge7" class="edge"><title>Node5&#45;&gt;Node8</title>
<path fill="none" stroke="midnightblue" d="M895.276,-36.1757C918.961,-30.8184 946.59,-24.5689 968.911,-19.5201"/>
<polygon fill="midnightblue" stroke="midnightblue" points="894.375,-32.791 885.393,-38.411 895.919,-39.6185 894.375,-32.791"/>
</g>
<!-- Node7 -->
<g id="node7" class="node"><title>Node7</title>
<g id="a_node7"><a xlink:href="../../dd/dbe/classfront_end_1_1_main.html#ae53f892716dcc60f3f49714496e30c91" target="_top" xlink:title="frontEnd.Main.start">
<polygon fill="white" stroke="black" points="1338,-38.5 1338,-57.5 1446,-57.5 1446,-38.5 1338,-38.5"/>
<text text-anchor="middle" x="1392" y="-45.5" font-family="Helvetica,sans-Serif" font-size="10.00">frontEnd.Main.start</text>
</a>
</g>
</g>
<!-- Node6&#45;&gt;Node7 -->
<g id="edge6" class="edge"><title>Node6&#45;&gt;Node7</title>
<path fill="none" stroke="midnightblue" d="M1091.84,-83.8939C1150.12,-81.5912 1231.29,-76.8194 1302,-67 1318.59,-64.6964 1336.7,-61.0429 1352.23,-57.5524"/>
<polygon fill="midnightblue" stroke="midnightblue" points="1091.46,-80.4058 1081.6,-84.2825 1091.73,-87.4007 1091.46,-80.4058"/>
</g>
<!-- Node9 -->
<g id="node9" class="node"><title>Node9</title>
<g id="a_node9"><a xlink:href="../../dd/dbe/classfront_end_1_1_main.html#a0ff8a007311f8ecce84d4203dc85d669" target="_top" xlink:title="frontEnd.Main.makeParamControls">
<polygon fill="white" stroke="black" points="1118.5,-38.5 1118.5,-57.5 1301.5,-57.5 1301.5,-38.5 1118.5,-38.5"/>
<text text-anchor="middle" x="1210" y="-45.5" font-family="Helvetica,sans-Serif" font-size="10.00">frontEnd.Main.makeParamControls</text>
</a>
</g>
</g>
<!-- Node8&#45;&gt;Node9 -->
<g id="edge8" class="edge"><title>Node8&#45;&gt;Node9</title>
<path fill="none" stroke="midnightblue" d="M1072.26,-21.4894C1100.23,-26.9114 1133.21,-33.3058 1159.77,-38.4561"/>
<polygon fill="midnightblue" stroke="midnightblue" points="1072.69,-18.0073 1062.21,-19.54 1071.36,-24.8794 1072.69,-18.0073"/>
</g>
<!-- Node10 -->
<g id="node10" class="node"><title>Node10</title>
<g id="a_node10"><a xlink:href="../../dd/dbe/classfront_end_1_1_main.html#a1f4c19654fe78e5ebca54fc26bf43c94" target="_top" xlink:title="frontEnd.Main.useControls">
<polygon fill="white" stroke="black" points="1138.5,-0.5 1138.5,-19.5 1281.5,-19.5 1281.5,-0.5 1138.5,-0.5"/>
<text text-anchor="middle" x="1210" y="-7.5" font-family="Helvetica,sans-Serif" font-size="10.00">frontEnd.Main.useControls</text>
</a>
</g>
</g>
<!-- Node8&#45;&gt;Node10 -->
<g id="edge10" class="edge"><title>Node8&#45;&gt;Node10</title>
<path fill="none" stroke="midnightblue" d="M1086.95,-10C1103.75,-10 1121.56,-10 1138.22,-10"/>
<polygon fill="midnightblue" stroke="midnightblue" points="1086.64,-6.5001 1076.64,-10 1086.64,-13.5001 1086.64,-6.5001"/>
</g>
<!-- Node9&#45;&gt;Node5 -->
<g id="edge9" class="edge"><title>Node9&#45;&gt;Node5</title>
<path fill="none" stroke="midnightblue" d="M1108.03,-48C1043.19,-48 961.025,-48 905.502,-48"/>
<polygon fill="midnightblue" stroke="midnightblue" points="1108.28,-51.5001 1118.28,-48 1108.28,-44.5001 1108.28,-51.5001"/>
</g>
<!-- Node10&#45;&gt;Node7 -->
<g id="edge11" class="edge"><title>Node10&#45;&gt;Node7</title>
<path fill="none" stroke="midnightblue" d="M1266.87,-21.6234C1278.48,-24.0513 1290.64,-26.6018 1302,-29 1316.53,-32.0681 1332.39,-35.4447 1346.64,-38.4897"/>
<polygon fill="midnightblue" stroke="midnightblue" points="1267.34,-18.1466 1256.84,-19.5282 1265.91,-24.9987 1267.34,-18.1466"/>
</g>
</g>
</svg>
