<?xml version="1.0" encoding="UTF-8" standalone="no"?>
<!DOCTYPE svg PUBLIC "-//W3C//DTD SVG 1.1//EN"
 "http://www.w3.org/Graphics/SVG/1.1/DTD/svg11.dtd">
<!-- Generated by graphviz version 2.36.0 (20140111.2315)
 -->
<!-- Title: backEnd.PredatorPrey.checkBreed Pages: 1 -->
<svg width="620pt" height="229pt"
 viewBox="0.00 0.00 620.00 229.00" xmlns="http://www.w3.org/2000/svg" xmlns:xlink="http://www.w3.org/1999/xlink">
<g id="graph0" class="graph" transform="scale(1 1) rotate(0) translate(4 225)">
<title>backEnd.PredatorPrey.checkBreed</title>
<polygon fill="white" stroke="none" points="-4,4 -4,-225 616,-225 616,4 -4,4"/>
<!-- Node1 -->
<g id="node1" class="node"><title>Node1</title>
<polygon fill="#bfbfbf" stroke="black" points="0,-52 0,-82 152,-82 152,-52 0,-52"/>
<text text-anchor="start" x="8" y="-70" font-family="Helvetica,sans-Serif" font-size="10.00">backEnd.PredatorPrey.check</text>
<text text-anchor="middle" x="76" y="-59" font-family="Helvetica,sans-Serif" font-size="10.00">Breed</text>
</g>
<!-- Node2 -->
<g id="node2" class="node"><title>Node2</title>
<g id="a_node2"><a xlink:href="../../d0/d96/classback_end_1_1_predator_prey.html#a5a08efbe832d34c3c5f9bd15cf376f73" target="_top" xlink:title="backEnd.PredatorPrey.breed">
<polygon fill="white" stroke="black" points="193,-114.5 193,-133.5 345,-133.5 345,-114.5 193,-114.5"/>
<text text-anchor="middle" x="269" y="-121.5" font-family="Helvetica,sans-Serif" font-size="10.00">backEnd.PredatorPrey.breed</text>
</a>
</g>
</g>
<!-- Node1&#45;&gt;Node2 -->
<g id="edge1" class="edge"><title>Node1&#45;&gt;Node2</title>
<path fill="none" stroke="midnightblue" d="M127.433,-82.0506C158.18,-91.2266 197.015,-102.816 226.07,-111.487"/>
<polygon fill="midnightblue" stroke="midnightblue" points="225.327,-114.918 235.91,-114.423 227.329,-108.21 225.327,-114.918"/>
</g>
<!-- Node7 -->
<g id="node7" class="node"><title>Node7</title>
<g id="a_node7"><a xlink:href="../../db/d5e/classback_end_1_1_patch.html#a8d97ca84fd6d69378e9fc0b96eff7cb9" target="_top" xlink:title="backEnd.Patch.getCell">
<polygon fill="white" stroke="black" points="405,-76.5 405,-95.5 527,-95.5 527,-76.5 405,-76.5"/>
<text text-anchor="middle" x="466" y="-83.5" font-family="Helvetica,sans-Serif" font-size="10.00">backEnd.Patch.getCell</text>
</a>
</g>
</g>
<!-- Node1&#45;&gt;Node7 -->
<g id="edge9" class="edge"><title>Node1&#45;&gt;Node7</title>
<path fill="none" stroke="midnightblue" d="M152.27,-70.6859C222.387,-74.1195 326.124,-79.1994 394.621,-82.5536"/>
<polygon fill="midnightblue" stroke="midnightblue" points="394.722,-86.0627 404.882,-83.0561 395.065,-79.0711 394.722,-86.0627"/>
</g>
<!-- Node8 -->
<g id="node8" class="node"><title>Node8</title>
<g id="a_node8"><a xlink:href="../../d0/d08/classback_end_1_1_cell.html#a780d63fdf3ec4f64bd01f9c1c01f54e9" target="_top" xlink:title="backEnd.Cell.getState">
<polygon fill="white" stroke="black" points="405,-38.5 405,-57.5 527,-57.5 527,-38.5 405,-38.5"/>
<text text-anchor="middle" x="466" y="-45.5" font-family="Helvetica,sans-Serif" font-size="10.00">backEnd.Cell.getState</text>
</a>
</g>
</g>
<!-- Node1&#45;&gt;Node8 -->
<g id="edge12" class="edge"><title>Node1&#45;&gt;Node8</title>
<path fill="none" stroke="midnightblue" d="M152.27,-63.3141C222.387,-59.8805 326.124,-54.8006 394.621,-51.4464"/>
<polygon fill="midnightblue" stroke="midnightblue" points="395.065,-54.9289 404.882,-50.9439 394.722,-47.9373 395.065,-54.9289"/>
</g>
<!-- Node9 -->
<g id="node9" class="node"><title>Node9</title>
<g id="a_node9"><a xlink:href="../../db/d5e/classback_end_1_1_patch.html#a3ff9ee1d7f36a53d2fb9011411fa58c5" target="_top" xlink:title="backEnd.Patch.getMyCellState">
<polygon fill="white" stroke="black" points="188,-0.5 188,-19.5 350,-19.5 350,-0.5 188,-0.5"/>
<text text-anchor="middle" x="269" y="-7.5" font-family="Helvetica,sans-Serif" font-size="10.00">backEnd.Patch.getMyCellState</text>
</a>
</g>
</g>
<!-- Node1&#45;&gt;Node9 -->
<g id="edge10" class="edge"><title>Node1&#45;&gt;Node9</title>
<path fill="none" stroke="midnightblue" d="M127.433,-51.9494C158.18,-42.7734 197.015,-31.1841 226.07,-22.5131"/>
<polygon fill="midnightblue" stroke="midnightblue" points="227.329,-25.7901 235.91,-19.5765 225.327,-19.0824 227.329,-25.7901"/>
</g>
<!-- Node3 -->
<g id="node3" class="node"><title>Node3</title>
<g id="a_node3"><a xlink:href="../../d0/d96/classback_end_1_1_predator_prey.html#ae8cf2fdc568d75a0ebc097c23dc7c5f2" target="_top" xlink:title="backEnd.PredatorPrey.addCell">
<polygon fill="white" stroke="black" points="386.5,-152.5 386.5,-171.5 545.5,-171.5 545.5,-152.5 386.5,-152.5"/>
<text text-anchor="middle" x="466" y="-159.5" font-family="Helvetica,sans-Serif" font-size="10.00">backEnd.PredatorPrey.addCell</text>
</a>
</g>
</g>
<!-- Node2&#45;&gt;Node3 -->
<g id="edge2" class="edge"><title>Node2&#45;&gt;Node3</title>
<path fill="none" stroke="midnightblue" d="M318.955,-133.54C345.381,-138.69 378.194,-145.084 406.02,-150.506"/>
<polygon fill="midnightblue" stroke="midnightblue" points="405.54,-153.979 416.025,-152.456 406.879,-147.108 405.54,-153.979"/>
</g>
<!-- Node5 -->
<g id="node5" class="node"><title>Node5</title>
<g id="a_node5"><a xlink:href="../../d0/d96/classback_end_1_1_predator_prey.html#ac1aec1201253070e2cac1b976d6b30d3" target="_top" xlink:title="backEnd.PredatorPrey.find\lEmpties">
<polygon fill="white" stroke="black" points="395.5,-191 395.5,-221 536.5,-221 536.5,-191 395.5,-191"/>
<text text-anchor="start" x="403.5" y="-209" font-family="Helvetica,sans-Serif" font-size="10.00">backEnd.PredatorPrey.find</text>
<text text-anchor="middle" x="466" y="-198" font-family="Helvetica,sans-Serif" font-size="10.00">Empties</text>
</a>
</g>
</g>
<!-- Node2&#45;&gt;Node5 -->
<g id="edge4" class="edge"><title>Node2&#45;&gt;Node5</title>
<path fill="none" stroke="midnightblue" d="M287.313,-133.531C309.664,-145.595 349.973,-166.543 386,-181 391.783,-183.32 397.87,-185.571 403.993,-187.71"/>
<polygon fill="midnightblue" stroke="midnightblue" points="403.012,-191.073 413.607,-190.971 405.261,-184.444 403.012,-191.073"/>
</g>
<!-- Node6 -->
<g id="node6" class="node"><title>Node6</title>
<g id="a_node6"><a xlink:href="../../db/d5e/classback_end_1_1_patch.html#a3c6c0521d023d1883b92717afa1340f0" target="_top" xlink:title="backEnd.Patch.flag">
<polygon fill="white" stroke="black" points="412.5,-114.5 412.5,-133.5 519.5,-133.5 519.5,-114.5 412.5,-114.5"/>
<text text-anchor="middle" x="466" y="-121.5" font-family="Helvetica,sans-Serif" font-size="10.00">backEnd.Patch.flag</text>
</a>
</g>
</g>
<!-- Node2&#45;&gt;Node6 -->
<g id="edge6" class="edge"><title>Node2&#45;&gt;Node6</title>
<path fill="none" stroke="midnightblue" d="M345.113,-124C363.945,-124 383.956,-124 402.123,-124"/>
<polygon fill="midnightblue" stroke="midnightblue" points="402.294,-127.5 412.294,-124 402.294,-120.5 402.294,-127.5"/>
</g>
<!-- Node2&#45;&gt;Node7 -->
<g id="edge7" class="edge"><title>Node2&#45;&gt;Node7</title>
<path fill="none" stroke="midnightblue" d="M318.955,-114.46C345.381,-109.31 378.194,-102.916 406.02,-97.4935"/>
<polygon fill="midnightblue" stroke="midnightblue" points="406.879,-100.892 416.025,-95.5439 405.54,-94.0213 406.879,-100.892"/>
</g>
<!-- Node2&#45;&gt;Node8 -->
<g id="edge8" class="edge"><title>Node2&#45;&gt;Node8</title>
<path fill="none" stroke="midnightblue" d="M286.397,-114.496C308.42,-102.072 349.064,-80.3311 386,-67 393.012,-64.4693 400.495,-62.1738 407.956,-60.1243"/>
<polygon fill="midnightblue" stroke="midnightblue" points="408.922,-63.4895 417.71,-57.5725 407.15,-56.7174 408.922,-63.4895"/>
</g>
<!-- Node4 -->
<g id="node4" class="node"><title>Node4</title>
<g id="a_node4"><a xlink:href="../../d5/de7/jquery_8js.html#a2335e57f79b6acfb6de59c235dc8a83e" target="_top" xlink:title="p">
<polygon fill="white" stroke="black" points="582.5,-174.5 582.5,-193.5 611.5,-193.5 611.5,-174.5 582.5,-174.5"/>
<text text-anchor="middle" x="597" y="-181.5" font-family="Helvetica,sans-Serif" font-size="10.00">p</text>
</a>
</g>
</g>
<!-- Node3&#45;&gt;Node4 -->
<g id="edge3" class="edge"><title>Node3&#45;&gt;Node4</title>
<path fill="none" stroke="midnightblue" d="M522.831,-171.522C540.132,-174.472 558.281,-177.567 572.175,-179.937"/>
<polygon fill="midnightblue" stroke="midnightblue" points="571.862,-183.434 582.308,-181.665 573.039,-176.534 571.862,-183.434"/>
</g>
<!-- Node5&#45;&gt;Node4 -->
<g id="edge5" class="edge"><title>Node5&#45;&gt;Node4</title>
<path fill="none" stroke="midnightblue" d="M536.786,-194.099C549.516,-191.928 561.97,-189.804 572.145,-188.068"/>
<polygon fill="midnightblue" stroke="midnightblue" points="572.929,-191.485 582.199,-186.354 571.752,-184.585 572.929,-191.485"/>
</g>
<!-- Node9&#45;&gt;Node8 -->
<g id="edge11" class="edge"><title>Node9&#45;&gt;Node8</title>
<path fill="none" stroke="midnightblue" d="M318.955,-19.54C345.381,-24.6896 378.194,-31.084 406.02,-36.5065"/>
<polygon fill="midnightblue" stroke="midnightblue" points="405.54,-39.9787 416.025,-38.4561 406.879,-33.1079 405.54,-39.9787"/>
</g>
</g>
</svg>
