<?xml version="1.0" encoding="UTF-8" standalone="no"?>
<!DOCTYPE svg PUBLIC "-//W3C//DTD SVG 1.1//EN"
 "http://www.w3.org/Graphics/SVG/1.1/DTD/svg11.dtd">
<!-- Generated by graphviz version 2.36.0 (20140111.2315)
 -->
<!-- Title: backEnd.PredatorPrey.eatFish Pages: 1 -->
<svg width="522pt" height="142pt"
 viewBox="0.00 0.00 522.00 142.00" xmlns="http://www.w3.org/2000/svg" xmlns:xlink="http://www.w3.org/1999/xlink">
<g id="graph0" class="graph" transform="scale(1 1) rotate(0) translate(4 138)">
<title>backEnd.PredatorPrey.eatFish</title>
<polygon fill="white" stroke="none" points="-4,4 -4,-138 518,-138 518,4 -4,4"/>
<!-- Node1 -->
<g id="node1" class="node"><title>Node1</title>
<polygon fill="#bfbfbf" stroke="black" points="0,-57.5 0,-76.5 158,-76.5 158,-57.5 0,-57.5"/>
<text text-anchor="middle" x="79" y="-64.5" font-family="Helvetica,sans-Serif" font-size="10.00">backEnd.PredatorPrey.eatFish</text>
</g>
<!-- Node2 -->
<g id="node2" class="node"><title>Node2</title>
<g id="a_node2"><a xlink:href="../../db/d5e/classback_end_1_1_patch.html#ae544417dcc2d70361cb77d46dd63c60b" target="_top" xlink:title="backEnd.Patch.clear">
<polygon fill="white" stroke="black" points="218.5,-114.5 218.5,-133.5 331.5,-133.5 331.5,-114.5 218.5,-114.5"/>
<text text-anchor="middle" x="275" y="-121.5" font-family="Helvetica,sans-Serif" font-size="10.00">backEnd.Patch.clear</text>
</a>
</g>
</g>
<!-- Node1&#45;&gt;Node2 -->
<g id="edge1" class="edge"><title>Node1&#45;&gt;Node2</title>
<path fill="none" stroke="midnightblue" d="M106.512,-76.5791C129.484,-84.7007 163.703,-96.371 194,-105 202.579,-107.443 211.736,-109.826 220.677,-112.032"/>
<polygon fill="midnightblue" stroke="midnightblue" points="220.097,-115.492 230.639,-114.441 221.742,-108.688 220.097,-115.492"/>
</g>
<!-- Node3 -->
<g id="node3" class="node"><title>Node3</title>
<g id="a_node3"><a xlink:href="../../db/d5e/classback_end_1_1_patch.html#a3c6c0521d023d1883b92717afa1340f0" target="_top" xlink:title="backEnd.Patch.flag">
<polygon fill="white" stroke="black" points="221.5,-76.5 221.5,-95.5 328.5,-95.5 328.5,-76.5 221.5,-76.5"/>
<text text-anchor="middle" x="275" y="-83.5" font-family="Helvetica,sans-Serif" font-size="10.00">backEnd.Patch.flag</text>
</a>
</g>
</g>
<!-- Node1&#45;&gt;Node3 -->
<g id="edge2" class="edge"><title>Node1&#45;&gt;Node3</title>
<path fill="none" stroke="midnightblue" d="M158.069,-74.6459C175.681,-76.3709 194.16,-78.1807 211.06,-79.8357"/>
<polygon fill="midnightblue" stroke="midnightblue" points="211.062,-83.3527 221.356,-80.8441 211.745,-76.386 211.062,-83.3527"/>
</g>
<!-- Node4 -->
<g id="node4" class="node"><title>Node4</title>
<g id="a_node4"><a xlink:href="../../db/d5e/classback_end_1_1_patch.html#a3ff9ee1d7f36a53d2fb9011411fa58c5" target="_top" xlink:title="backEnd.Patch.getMyCellState">
<polygon fill="white" stroke="black" points="194,-38.5 194,-57.5 356,-57.5 356,-38.5 194,-38.5"/>
<text text-anchor="middle" x="275" y="-45.5" font-family="Helvetica,sans-Serif" font-size="10.00">backEnd.Patch.getMyCellState</text>
</a>
</g>
</g>
<!-- Node1&#45;&gt;Node4 -->
<g id="edge3" class="edge"><title>Node1&#45;&gt;Node4</title>
<path fill="none" stroke="midnightblue" d="M158.069,-59.3541C166.544,-58.524 175.221,-57.6743 183.825,-56.8316"/>
<polygon fill="midnightblue" stroke="midnightblue" points="184.265,-60.3053 193.876,-55.8472 183.583,-53.3386 184.265,-60.3053"/>
</g>
<!-- Node6 -->
<g id="node6" class="node"><title>Node6</title>
<g id="a_node6"><a xlink:href="../../d0/d08/classback_end_1_1_cell.html#a1f5840c8483f25559567cbf9c6f1eef4" target="_top" xlink:title="backEnd.Cell.setState">
<polygon fill="white" stroke="black" points="214,-0.5 214,-19.5 336,-19.5 336,-0.5 214,-0.5"/>
<text text-anchor="middle" x="275" y="-7.5" font-family="Helvetica,sans-Serif" font-size="10.00">backEnd.Cell.setState</text>
</a>
</g>
</g>
<!-- Node1&#45;&gt;Node6 -->
<g id="edge5" class="edge"><title>Node1&#45;&gt;Node6</title>
<path fill="none" stroke="midnightblue" d="M106.512,-57.4209C129.484,-49.2993 163.703,-37.629 194,-29 202.579,-26.5567 211.736,-24.1742 220.677,-21.9684"/>
<polygon fill="midnightblue" stroke="midnightblue" points="221.742,-25.3118 230.639,-19.5592 220.097,-18.508 221.742,-25.3118"/>
</g>
<!-- Node5 -->
<g id="node5" class="node"><title>Node5</title>
<g id="a_node5"><a xlink:href="../../d0/d08/classback_end_1_1_cell.html#a780d63fdf3ec4f64bd01f9c1c01f54e9" target="_top" xlink:title="backEnd.Cell.getState">
<polygon fill="white" stroke="black" points="392,-38.5 392,-57.5 514,-57.5 514,-38.5 392,-38.5"/>
<text text-anchor="middle" x="453" y="-45.5" font-family="Helvetica,sans-Serif" font-size="10.00">backEnd.Cell.getState</text>
</a>
</g>
</g>
<!-- Node4&#45;&gt;Node5 -->
<g id="edge4" class="edge"><title>Node4&#45;&gt;Node5</title>
<path fill="none" stroke="midnightblue" d="M356.018,-48C364.604,-48 373.292,-48 381.752,-48"/>
<polygon fill="midnightblue" stroke="midnightblue" points="381.936,-51.5001 391.936,-48 381.936,-44.5001 381.936,-51.5001"/>
</g>
</g>
</svg>
