<?xml version="1.0" encoding="UTF-8" standalone="no"?>
<!DOCTYPE svg PUBLIC "-//W3C//DTD SVG 1.1//EN"
 "http://www.w3.org/Graphics/SVG/1.1/DTD/svg11.dtd">
<!-- Generated by graphviz version 2.36.0 (20140111.2315)
 -->
<!-- Title: backEnd.PredatorPrey.checkStarve Pages: 1 -->
<svg width="516pt" height="218pt"
 viewBox="0.00 0.00 516.00 218.00" xmlns="http://www.w3.org/2000/svg" xmlns:xlink="http://www.w3.org/1999/xlink">
<g id="graph0" class="graph" transform="scale(1 1) rotate(0) translate(4 214)">
<title>backEnd.PredatorPrey.checkStarve</title>
<polygon fill="white" stroke="none" points="-4,4 -4,-214 512,-214 512,4 -4,4"/>
<!-- Node1 -->
<g id="node1" class="node"><title>Node1</title>
<polygon fill="#bfbfbf" stroke="black" points="0,-90 0,-120 152,-120 152,-90 0,-90"/>
<text text-anchor="start" x="8" y="-108" font-family="Helvetica,sans-Serif" font-size="10.00">backEnd.PredatorPrey.check</text>
<text text-anchor="middle" x="76" y="-97" font-family="Helvetica,sans-Serif" font-size="10.00">Starve</text>
</g>
<!-- Node2 -->
<g id="node2" class="node"><title>Node2</title>
<g id="a_node2"><a xlink:href="../../db/d5e/classback_end_1_1_patch.html#ae544417dcc2d70361cb77d46dd63c60b" target="_top" xlink:title="backEnd.Patch.clear">
<polygon fill="white" stroke="black" points="212.5,-190.5 212.5,-209.5 325.5,-209.5 325.5,-190.5 212.5,-190.5"/>
<text text-anchor="middle" x="269" y="-197.5" font-family="Helvetica,sans-Serif" font-size="10.00">backEnd.Patch.clear</text>
</a>
</g>
</g>
<!-- Node1&#45;&gt;Node2 -->
<g id="edge1" class="edge"><title>Node1&#45;&gt;Node2</title>
<path fill="none" stroke="midnightblue" d="M94.6128,-120.137C115.53,-137.35 152.122,-165.116 188,-181 193.654,-183.503 199.684,-185.703 205.802,-187.631"/>
<polygon fill="midnightblue" stroke="midnightblue" points="204.867,-191.004 215.447,-190.44 206.825,-184.283 204.867,-191.004"/>
</g>
<!-- Node3 -->
<g id="node3" class="node"><title>Node3</title>
<g id="a_node3"><a xlink:href="../../db/d5e/classback_end_1_1_patch.html#a3c6c0521d023d1883b92717afa1340f0" target="_top" xlink:title="backEnd.Patch.flag">
<polygon fill="white" stroke="black" points="215.5,-152.5 215.5,-171.5 322.5,-171.5 322.5,-152.5 215.5,-152.5"/>
<text text-anchor="middle" x="269" y="-159.5" font-family="Helvetica,sans-Serif" font-size="10.00">backEnd.Patch.flag</text>
</a>
</g>
</g>
<!-- Node1&#45;&gt;Node3 -->
<g id="edge2" class="edge"><title>Node1&#45;&gt;Node3</title>
<path fill="none" stroke="midnightblue" d="M117.816,-120.03C138.662,-127.436 164.52,-136.21 188,-143 196.469,-145.449 205.508,-147.822 214.348,-150.014"/>
<polygon fill="midnightblue" stroke="midnightblue" points="213.661,-153.449 224.205,-152.405 215.312,-146.646 213.661,-153.449"/>
</g>
<!-- Node4 -->
<g id="node4" class="node"><title>Node4</title>
<g id="a_node4"><a xlink:href="../../db/d5e/classback_end_1_1_patch.html#a8d97ca84fd6d69378e9fc0b96eff7cb9" target="_top" xlink:title="backEnd.Patch.getCell">
<polygon fill="white" stroke="black" points="208,-114.5 208,-133.5 330,-133.5 330,-114.5 208,-114.5"/>
<text text-anchor="middle" x="269" y="-121.5" font-family="Helvetica,sans-Serif" font-size="10.00">backEnd.Patch.getCell</text>
</a>
</g>
</g>
<!-- Node1&#45;&gt;Node4 -->
<g id="edge3" class="edge"><title>Node1&#45;&gt;Node4</title>
<path fill="none" stroke="midnightblue" d="M152.214,-112.482C167.227,-113.975 182.941,-115.539 197.778,-117.015"/>
<polygon fill="midnightblue" stroke="midnightblue" points="197.593,-120.513 207.89,-118.021 198.286,-113.548 197.593,-120.513"/>
</g>
<!-- Node5 -->
<g id="node5" class="node"><title>Node5</title>
<g id="a_node5"><a xlink:href="../../db/d5e/classback_end_1_1_patch.html#a3ff9ee1d7f36a53d2fb9011411fa58c5" target="_top" xlink:title="backEnd.Patch.getMyCellState">
<polygon fill="white" stroke="black" points="188,-76.5 188,-95.5 350,-95.5 350,-76.5 188,-76.5"/>
<text text-anchor="middle" x="269" y="-83.5" font-family="Helvetica,sans-Serif" font-size="10.00">backEnd.Patch.getMyCellState</text>
</a>
</g>
</g>
<!-- Node1&#45;&gt;Node5 -->
<g id="edge4" class="edge"><title>Node1&#45;&gt;Node5</title>
<path fill="none" stroke="midnightblue" d="M152.214,-97.518C160.618,-96.682 169.241,-95.8242 177.807,-94.9721"/>
<polygon fill="midnightblue" stroke="midnightblue" points="178.216,-98.4488 187.82,-93.976 177.523,-91.4831 178.216,-98.4488"/>
</g>
<!-- Node6 -->
<g id="node6" class="node"><title>Node6</title>
<g id="a_node6"><a xlink:href="../../d0/d08/classback_end_1_1_cell.html#a780d63fdf3ec4f64bd01f9c1c01f54e9" target="_top" xlink:title="backEnd.Cell.getState">
<polygon fill="white" stroke="black" points="386,-57.5 386,-76.5 508,-76.5 508,-57.5 386,-57.5"/>
<text text-anchor="middle" x="447" y="-64.5" font-family="Helvetica,sans-Serif" font-size="10.00">backEnd.Cell.getState</text>
</a>
</g>
</g>
<!-- Node1&#45;&gt;Node6 -->
<g id="edge6" class="edge"><title>Node1&#45;&gt;Node6</title>
<path fill="none" stroke="midnightblue" d="M111.232,-89.9972C132.795,-81.3791 161.478,-71.4141 188,-67 250.859,-56.5385 323.531,-57.7044 375.697,-60.8053"/>
<polygon fill="midnightblue" stroke="midnightblue" points="375.647,-64.309 385.848,-61.4484 376.09,-57.323 375.647,-64.309"/>
</g>
<!-- Node7 -->
<g id="node7" class="node"><title>Node7</title>
<g id="a_node7"><a xlink:href="../../db/d5e/classback_end_1_1_patch.html#a59b689bcfb17aa8603d5e3278521174b" target="_top" xlink:title="backEnd.Patch.setMyCellState">
<polygon fill="white" stroke="black" points="188.5,-0.5 188.5,-19.5 349.5,-19.5 349.5,-0.5 188.5,-0.5"/>
<text text-anchor="middle" x="269" y="-7.5" font-family="Helvetica,sans-Serif" font-size="10.00">backEnd.Patch.setMyCellState</text>
</a>
</g>
</g>
<!-- Node1&#45;&gt;Node7 -->
<g id="edge7" class="edge"><title>Node1&#45;&gt;Node7</title>
<path fill="none" stroke="midnightblue" d="M96.8863,-89.8553C118.377,-74.0843 154.111,-49.5528 188,-34 197.588,-29.5999 208.187,-25.7625 218.448,-22.5233"/>
<polygon fill="midnightblue" stroke="midnightblue" points="219.574,-25.8393 228.139,-19.602 217.554,-19.1372 219.574,-25.8393"/>
</g>
<!-- Node5&#45;&gt;Node6 -->
<g id="edge5" class="edge"><title>Node5&#45;&gt;Node6</title>
<path fill="none" stroke="midnightblue" d="M350.018,-77.3617C358.604,-76.4348 367.292,-75.4969 375.752,-74.5836"/>
<polygon fill="midnightblue" stroke="midnightblue" points="376.369,-78.0374 385.936,-73.4842 375.618,-71.0778 376.369,-78.0374"/>
</g>
<!-- Node8 -->
<g id="node8" class="node"><title>Node8</title>
<g id="a_node8"><a xlink:href="../../d0/d08/classback_end_1_1_cell.html#a1f5840c8483f25559567cbf9c6f1eef4" target="_top" xlink:title="backEnd.Cell.setState">
<polygon fill="white" stroke="black" points="386,-0.5 386,-19.5 508,-19.5 508,-0.5 386,-0.5"/>
<text text-anchor="middle" x="447" y="-7.5" font-family="Helvetica,sans-Serif" font-size="10.00">backEnd.Cell.setState</text>
</a>
</g>
</g>
<!-- Node7&#45;&gt;Node8 -->
<g id="edge8" class="edge"><title>Node7&#45;&gt;Node8</title>
<path fill="none" stroke="midnightblue" d="M349.504,-10C358.278,-10 367.165,-10 375.813,-10"/>
<polygon fill="midnightblue" stroke="midnightblue" points="375.834,-13.5001 385.834,-10 375.834,-6.5001 375.834,-13.5001"/>
</g>
</g>
</svg>
