<?xml version="1.0" encoding="UTF-8" standalone="no"?>
<!DOCTYPE svg PUBLIC "-//W3C//DTD SVG 1.1//EN"
 "http://www.w3.org/Graphics/SVG/1.1/DTD/svg11.dtd">
<!-- Generated by graphviz version 2.36.0 (20140111.2315)
 -->
<!-- Title: backEnd.PredatorPrey.findEmpties Pages: 1 -->
<svg width="932pt" height="87pt"
 viewBox="0.00 0.00 932.00 87.00" xmlns="http://www.w3.org/2000/svg" xmlns:xlink="http://www.w3.org/1999/xlink">
<g id="graph0" class="graph" transform="scale(1 1) rotate(0) translate(4 83)">
<title>backEnd.PredatorPrey.findEmpties</title>
<polygon fill="white" stroke="none" points="-4,4 -4,-83 928,-83 928,4 -4,4"/>
<!-- Node1 -->
<g id="node1" class="node"><title>Node1</title>
<polygon fill="#bfbfbf" stroke="black" points="0.5,-23 0.5,-53 141.5,-53 141.5,-23 0.5,-23"/>
<text text-anchor="start" x="8.5" y="-41" font-family="Helvetica,sans-Serif" font-size="10.00">backEnd.PredatorPrey.find</text>
<text text-anchor="middle" x="71" y="-30" font-family="Helvetica,sans-Serif" font-size="10.00">Empties</text>
</g>
<!-- Node2 -->
<g id="node2" class="node"><title>Node2</title>
<g id="a_node2"><a xlink:href="../../d0/d96/classback_end_1_1_predator_prey.html#a5a08efbe832d34c3c5f9bd15cf376f73" target="_top" xlink:title="backEnd.PredatorPrey.breed">
<polygon fill="white" stroke="black" points="185,-48.5 185,-67.5 337,-67.5 337,-48.5 185,-48.5"/>
<text text-anchor="middle" x="261" y="-55.5" font-family="Helvetica,sans-Serif" font-size="10.00">backEnd.PredatorPrey.breed</text>
</a>
</g>
</g>
<!-- Node1&#45;&gt;Node2 -->
<g id="edge1" class="edge"><title>Node1&#45;&gt;Node2</title>
<path fill="none" stroke="midnightblue" d="M151.692,-46.4779C162.633,-47.6418 173.838,-48.8338 184.696,-49.9889"/>
<polygon fill="midnightblue" stroke="midnightblue" points="152.051,-42.9964 141.737,-45.4188 151.311,-49.9572 152.051,-42.9964"/>
</g>
<!-- Node6 -->
<g id="node6" class="node"><title>Node6</title>
<g id="a_node6"><a xlink:href="../../d0/d96/classback_end_1_1_predator_prey.html#ae501b5b3266e13be211c77d6817045e7" target="_top" xlink:title="backEnd.PredatorPrey.moveAdj">
<polygon fill="white" stroke="black" points="178,-9.5 178,-28.5 344,-28.5 344,-9.5 178,-9.5"/>
<text text-anchor="middle" x="261" y="-16.5" font-family="Helvetica,sans-Serif" font-size="10.00">backEnd.PredatorPrey.moveAdj</text>
</a>
</g>
</g>
<!-- Node1&#45;&gt;Node6 -->
<g id="edge5" class="edge"><title>Node1&#45;&gt;Node6</title>
<path fill="none" stroke="midnightblue" d="M151.812,-29.9339C160.475,-29.0584 169.302,-28.1663 177.99,-27.2883"/>
<polygon fill="midnightblue" stroke="midnightblue" points="151.334,-26.4642 141.737,-30.9521 152.038,-33.4288 151.334,-26.4642"/>
</g>
<!-- Node3 -->
<g id="node3" class="node"><title>Node3</title>
<g id="a_node3"><a xlink:href="../../d0/d96/classback_end_1_1_predator_prey.html#acb81c56992e5c1bc58a34daa5b04e9aa" target="_top" xlink:title="backEnd.PredatorPrey.check\lBreed">
<polygon fill="white" stroke="black" points="385,-47 385,-77 537,-77 537,-47 385,-47"/>
<text text-anchor="start" x="393" y="-65" font-family="Helvetica,sans-Serif" font-size="10.00">backEnd.PredatorPrey.check</text>
<text text-anchor="middle" x="461" y="-54" font-family="Helvetica,sans-Serif" font-size="10.00">Breed</text>
</a>
</g>
</g>
<!-- Node2&#45;&gt;Node3 -->
<g id="edge2" class="edge"><title>Node2&#45;&gt;Node3</title>
<path fill="none" stroke="midnightblue" d="M347.508,-59.7274C359.955,-59.9789 372.693,-60.2362 384.914,-60.4831"/>
<polygon fill="midnightblue" stroke="midnightblue" points="347.206,-56.2207 337.138,-59.5179 347.065,-63.2193 347.206,-56.2207"/>
</g>
<!-- Node4 -->
<g id="node4" class="node"><title>Node4</title>
<g id="a_node4"><a xlink:href="../../d0/d96/classback_end_1_1_predator_prey.html#ac9689f0a85de526bd6d2f1e23657dfe8" target="_top" xlink:title="backEnd.PredatorPrey.breed\lIfNecessary">
<polygon fill="white" stroke="black" points="578,-49 578,-79 730,-79 730,-49 578,-49"/>
<text text-anchor="start" x="586" y="-67" font-family="Helvetica,sans-Serif" font-size="10.00">backEnd.PredatorPrey.breed</text>
<text text-anchor="middle" x="654" y="-56" font-family="Helvetica,sans-Serif" font-size="10.00">IfNecessary</text>
</a>
</g>
</g>
<!-- Node3&#45;&gt;Node4 -->
<g id="edge3" class="edge"><title>Node3&#45;&gt;Node4</title>
<path fill="none" stroke="midnightblue" d="M547.323,-62.8934C557.5,-63 567.834,-63.1082 577.854,-63.2131"/>
<polygon fill="midnightblue" stroke="midnightblue" points="547.25,-59.3926 537.214,-62.7876 547.177,-66.3922 547.25,-59.3926"/>
</g>
<!-- Node5 -->
<g id="node5" class="node"><title>Node5</title>
<g id="a_node5"><a xlink:href="../../d0/d96/classback_end_1_1_predator_prey.html#acf219a8748ddb0ed02c2202a3b3d6b37" target="_top" xlink:title="backEnd.PredatorPrey.update">
<polygon fill="white" stroke="black" points="766,-29.5 766,-48.5 924,-48.5 924,-29.5 766,-29.5"/>
<text text-anchor="middle" x="845" y="-36.5" font-family="Helvetica,sans-Serif" font-size="10.00">backEnd.PredatorPrey.update</text>
</a>
</g>
</g>
<!-- Node4&#45;&gt;Node5 -->
<g id="edge4" class="edge"><title>Node4&#45;&gt;Node5</title>
<path fill="none" stroke="midnightblue" d="M740.346,-52.7108C750.954,-51.3077 761.717,-49.884 772.094,-48.5113"/>
<polygon fill="midnightblue" stroke="midnightblue" points="739.696,-49.2663 730.241,-54.0475 740.614,-56.2059 739.696,-49.2663"/>
</g>
<!-- Node7 -->
<g id="node7" class="node"><title>Node7</title>
<g id="a_node7"><a xlink:href="../../d0/d96/classback_end_1_1_predator_prey.html#aecfa40f92acce8997492d12cefd08b48" target="_top" xlink:title="backEnd.PredatorPrey.getNext">
<polygon fill="white" stroke="black" points="380,-6.5 380,-25.5 542,-25.5 542,-6.5 380,-6.5"/>
<text text-anchor="middle" x="461" y="-13.5" font-family="Helvetica,sans-Serif" font-size="10.00">backEnd.PredatorPrey.getNext</text>
</a>
</g>
</g>
<!-- Node6&#45;&gt;Node7 -->
<g id="edge6" class="edge"><title>Node6&#45;&gt;Node7</title>
<path fill="none" stroke="midnightblue" d="M354.263,-17.6021C362.832,-17.4722 371.469,-17.3414 379.915,-17.2134"/>
<polygon fill="midnightblue" stroke="midnightblue" points="354.195,-14.1026 344.25,-17.7538 354.302,-21.1018 354.195,-14.1026"/>
</g>
<!-- Node8 -->
<g id="node8" class="node"><title>Node8</title>
<g id="a_node8"><a xlink:href="../../d0/d96/classback_end_1_1_predator_prey.html#aa032c15c617e2da8e1ab1a065413fb06" target="_top" xlink:title="backEnd.PredatorPrey.make\lNextGrid">
<polygon fill="white" stroke="black" points="578.5,-0 578.5,-30 729.5,-30 729.5,-0 578.5,-0"/>
<text text-anchor="start" x="586.5" y="-18" font-family="Helvetica,sans-Serif" font-size="10.00">backEnd.PredatorPrey.make</text>
<text text-anchor="middle" x="654" y="-7" font-family="Helvetica,sans-Serif" font-size="10.00">NextGrid</text>
</a>
</g>
</g>
<!-- Node7&#45;&gt;Node8 -->
<g id="edge7" class="edge"><title>Node7&#45;&gt;Node8</title>
<path fill="none" stroke="midnightblue" d="M552.31,-15.5272C560.984,-15.4818 569.715,-15.436 578.216,-15.3915"/>
<polygon fill="midnightblue" stroke="midnightblue" points="552.153,-12.0279 542.171,-15.5803 552.189,-19.0278 552.153,-12.0279"/>
</g>
<!-- Node8&#45;&gt;Node5 -->
<g id="edge8" class="edge"><title>Node8&#45;&gt;Node5</title>
<path fill="none" stroke="midnightblue" d="M739.759,-25.763C749.478,-26.9972 759.336,-28.249 768.916,-29.4655"/>
<polygon fill="midnightblue" stroke="midnightblue" points="740.059,-22.2731 729.698,-24.4854 739.177,-29.2174 740.059,-22.2731"/>
</g>
</g>
</svg>
