<?xml version="1.0" encoding="UTF-8" standalone="no"?>
<!DOCTYPE svg PUBLIC "-//W3C//DTD SVG 1.1//EN"
 "http://www.w3.org/Graphics/SVG/1.1/DTD/svg11.dtd">
<!-- Generated by graphviz version 2.36.0 (20140111.2315)
 -->
<!-- Title: backEnd.PredatorPrey.update Pages: 1 -->
<!--zoomable 680 -->
<svg id="main" version="1.1" xmlns="http://www.w3.org/2000/svg" xmlns:xlink="http://www.w3.org/1999/xlink" xml:space="preserve" onload="init(evt)">
<style type="text/css"><![CDATA[
.edge:hover path { stroke: red; }
.edge:hover polygon { stroke: red; fill: red; }
]]></style>
<script type="text/javascript"><![CDATA[
var edges = document.getElementsByTagName('g');
if (edges && edges.length) {
  for (var i=0;i<edges.length;i++) {
    if (edges[i].id.substr(0,4)=='edge') {
      edges[i].setAttribute('class','edge');
    }
  }
}
]]></script>
        <defs>
                <circle id="rim" cx="0" cy="0" r="7"/>
                <circle id="rim2" cx="0" cy="0" r="3.5"/>
                <g id="zoomPlus">
                        <use xlink:href="#rim" fill="#404040">
                                <set attributeName="fill" to="#808080" begin="zoomplus.mouseover" end="zoomplus.mouseout"/>
                        </use>
                        <path d="M-4,0h8M0,-4v8" fill="none" stroke="white" stroke-width="1.5" pointer-events="none"/>
                </g>
                <g id="zoomMin">
                        <use xlink:href="#rim" fill="#404040">
                                <set attributeName="fill" to="#808080" begin="zoomminus.mouseover" end="zoomminus.mouseout"/>
                        </use>
                        <path d="M-4,0h8" fill="none" stroke="white" stroke-width="1.5" pointer-events="none"/>
                </g>
                <g id="dirArrow">
                        <path fill="none" stroke="white" stroke-width="1.5" d="M0,-3.0v7 M-2.5,-0.5L0,-3.0L2.5,-0.5"/>
                </g>
               <g id="resetDef">
                       <use xlink:href="#rim2" fill="#404040">
                               <set attributeName="fill" to="#808080" begin="reset.mouseover" end="reset.mouseout"/>
                       </use>
               </g>
        </defs>

<script type="text/javascript">
var viewWidth = 1316;
var viewHeight = 680;
var sectionId = 'dynsection-29';
</script>
<script xlink:href="../../svgpan.js"/>
<svg id="graph" class="graph">
<g id="viewport">
<title>backEnd.PredatorPrey.update</title>
<polygon fill="white" stroke="none" points="-4,4 -4,-675.981 1312,-675.981 1312,4 -4,4"/>
<!-- Node1 -->
<g id="node1" class="node"><title>Node1</title>
<polygon fill="#bfbfbf" stroke="black" points="0,-88.5 0,-107.5 158,-107.5 158,-88.5 0,-88.5"/>
<text text-anchor="middle" x="79" y="-95.5" font-family="Helvetica,sans-Serif" font-size="10.00">backEnd.PredatorPrey.update</text>
</g>
<!-- Node2 -->
<g id="node2" class="node"><title>Node2</title>
<g id="a_node2"><a xlink:href="../../d0/d96/classback_end_1_1_predator_prey.html#ac9689f0a85de526bd6d2f1e23657dfe8" target="_top" xlink:title="backEnd.PredatorPrey.breed\lIfNecessary">
<polygon fill="white" stroke="black" points="387,-417 387,-447 539,-447 539,-417 387,-417"/>
<text text-anchor="start" x="395" y="-435" font-family="Helvetica,sans-Serif" font-size="10.00">backEnd.PredatorPrey.breed</text>
<text text-anchor="middle" x="463" y="-424" font-family="Helvetica,sans-Serif" font-size="10.00">IfNecessary</text>
</a>
</g>
</g>
<!-- Node1&#45;&gt;Node2 -->
<g id="edge1" class="edge"><title>Node1&#45;&gt;Node2</title>
<path fill="none" stroke="midnightblue" d="M85.7651,-107.611C101.128,-132.714 145.22,-201.517 194,-248 267.772,-318.298 370.795,-380.963 425.112,-411.793"/>
<polygon fill="midnightblue" stroke="midnightblue" points="423.604,-414.961 434.034,-416.82 427.04,-408.862 423.604,-414.961"/>
</g>
<!-- Node15 -->
<g id="node15" class="node"><title>Node15</title>
<g id="a_node15"><a xlink:href="../../db/d5e/classback_end_1_1_patch.html#ae544417dcc2d70361cb77d46dd63c60b" target="_top" xlink:title="backEnd.Patch.clear">
<polygon fill="white" stroke="black" points="1003.5,-188.5 1003.5,-207.5 1116.5,-207.5 1116.5,-188.5 1003.5,-188.5"/>
<text text-anchor="middle" x="1060" y="-195.5" font-family="Helvetica,sans-Serif" font-size="10.00">backEnd.Patch.clear</text>
</a>
</g>
</g>
<!-- Node1&#45;&gt;Node15 -->
<g id="edge18" class="edge"><title>Node1&#45;&gt;Node15</title>
<path fill="none" stroke="midnightblue" d="M158.282,-98C235.497,-98 356.884,-98 462,-98 462,-98 462,-98 657,-98 780.432,-98 816.861,-79.0911 934,-118 936.806,-118.932 999.877,-159.673 1035.33,-182.645"/>
<polygon fill="midnightblue" stroke="midnightblue" points="1033.82,-185.834 1044.11,-188.336 1037.62,-179.96 1033.82,-185.834"/>
</g>
<!-- Node16 -->
<g id="node16" class="node"><title>Node16</title>
<g id="a_node16"><a xlink:href="../../d0/d96/classback_end_1_1_predator_prey.html#abb8554ee403442d34253dcf10abb81e5" target="_top" xlink:title="backEnd.PredatorPrey.clear\lAllFlags">
<polygon fill="white" stroke="black" points="196.5,-1 196.5,-31 343.5,-31 343.5,-1 196.5,-1"/>
<text text-anchor="start" x="204.5" y="-19" font-family="Helvetica,sans-Serif" font-size="10.00">backEnd.PredatorPrey.clear</text>
<text text-anchor="middle" x="270" y="-8" font-family="Helvetica,sans-Serif" font-size="10.00">AllFlags</text>
</a>
</g>
</g>
<!-- Node1&#45;&gt;Node16 -->
<g id="edge19" class="edge"><title>Node1&#45;&gt;Node16</title>
<path fill="none" stroke="midnightblue" d="M100.464,-88.3109C123.181,-77.6382 161,-60.1171 194,-46 202.617,-42.314 211.845,-38.508 220.78,-34.8959"/>
<polygon fill="midnightblue" stroke="midnightblue" points="222.34,-38.0412 230.316,-31.0674 219.732,-31.5452 222.34,-38.0412"/>
</g>
<!-- Node17 -->
<g id="node17" class="node"><title>Node17</title>
<g id="a_node17"><a xlink:href="../../d0/d96/classback_end_1_1_predator_prey.html#aa032c15c617e2da8e1ab1a065413fb06" target="_top" xlink:title="backEnd.PredatorPrey.make\lNextGrid">
<polygon fill="white" stroke="black" points="194.5,-209 194.5,-239 345.5,-239 345.5,-209 194.5,-209"/>
<text text-anchor="start" x="202.5" y="-227" font-family="Helvetica,sans-Serif" font-size="10.00">backEnd.PredatorPrey.make</text>
<text text-anchor="middle" x="270" y="-216" font-family="Helvetica,sans-Serif" font-size="10.00">NextGrid</text>
</a>
</g>
</g>
<!-- Node1&#45;&gt;Node17 -->
<g id="edge20" class="edge"><title>Node1&#45;&gt;Node17</title>
<path fill="none" stroke="midnightblue" d="M94.5167,-107.678C125.102,-128.068 196.745,-175.83 238.09,-203.393"/>
<polygon fill="midnightblue" stroke="midnightblue" points="236.165,-206.317 246.427,-208.951 240.048,-200.492 236.165,-206.317"/>
</g>
<!-- Node30 -->
<g id="node30" class="node"><title>Node30</title>
<g id="a_node30"><a xlink:href="../../d0/d96/classback_end_1_1_predator_prey.html#a68cb844626fd1b6c4826c40ab75a8e6b" target="_top" xlink:title="backEnd.PredatorPrey.move\lOrAddCells">
<polygon fill="white" stroke="black" points="387.5,-10 387.5,-40 538.5,-40 538.5,-10 387.5,-10"/>
<text text-anchor="start" x="395.5" y="-28" font-family="Helvetica,sans-Serif" font-size="10.00">backEnd.PredatorPrey.move</text>
<text text-anchor="middle" x="463" y="-17" font-family="Helvetica,sans-Serif" font-size="10.00">OrAddCells</text>
</a>
</g>
</g>
<!-- Node1&#45;&gt;Node30 -->
<g id="edge52" class="edge"><title>Node1&#45;&gt;Node30</title>
<path fill="none" stroke="midnightblue" d="M129.94,-88.4565C192.746,-76.4543 301.53,-55.6658 377.408,-41.1655"/>
<polygon fill="midnightblue" stroke="midnightblue" points="378.257,-44.5667 387.422,-39.2518 376.943,-37.6911 378.257,-44.5667"/>
</g>
<!-- Node3 -->
<g id="node3" class="node"><title>Node3</title>
<g id="a_node3"><a xlink:href="../../d0/d96/classback_end_1_1_predator_prey.html#acb81c56992e5c1bc58a34daa5b04e9aa" target="_top" xlink:title="backEnd.PredatorPrey.check\lBreed">
<polygon fill="white" stroke="black" points="580,-417 580,-447 732,-447 732,-417 580,-417"/>
<text text-anchor="start" x="588" y="-435" font-family="Helvetica,sans-Serif" font-size="10.00">backEnd.PredatorPrey.check</text>
<text text-anchor="middle" x="656" y="-424" font-family="Helvetica,sans-Serif" font-size="10.00">Breed</text>
</a>
</g>
</g>
<!-- Node2&#45;&gt;Node3 -->
<g id="edge2" class="edge"><title>Node2&#45;&gt;Node3</title>
<path fill="none" stroke="midnightblue" d="M539.214,-432C549.236,-432 559.57,-432 569.747,-432"/>
<polygon fill="midnightblue" stroke="midnightblue" points="569.854,-435.5 579.854,-432 569.854,-428.5 569.854,-435.5"/>
</g>
<!-- Node12 -->
<g id="node12" class="node"><title>Node12</title>
<g id="a_node12"><a xlink:href="../../d1/dfc/classback_end_1_1_rule_set.html#ac09e709af5a347c28f6cafb0aa4f0d34" target="_top" xlink:title="backEnd.RuleSet.getNeighbors">
<polygon fill="white" stroke="black" points="769,-580.5 769,-599.5 933,-599.5 933,-580.5 769,-580.5"/>
<text text-anchor="middle" x="851" y="-587.5" font-family="Helvetica,sans-Serif" font-size="10.00">backEnd.RuleSet.getNeighbors</text>
</a>
</g>
</g>
<!-- Node2&#45;&gt;Node12 -->
<g id="edge15" class="edge"><title>Node2&#45;&gt;Node12</title>
<path fill="none" stroke="midnightblue" d="M475.327,-447.032C494.201,-470.902 534.532,-517.109 580,-540 635.518,-567.951 704.522,-580.4 758.874,-585.888"/>
<polygon fill="midnightblue" stroke="midnightblue" points="758.559,-589.374 768.845,-586.834 759.221,-582.405 758.559,-589.374"/>
</g>
<!-- Node4 -->
<g id="node4" class="node"><title>Node4</title>
<g id="a_node4"><a xlink:href="../../d0/d96/classback_end_1_1_predator_prey.html#a5a08efbe832d34c3c5f9bd15cf376f73" target="_top" xlink:title="backEnd.PredatorPrey.breed">
<polygon fill="white" stroke="black" points="775,-214.5 775,-233.5 927,-233.5 927,-214.5 775,-214.5"/>
<text text-anchor="middle" x="851" y="-221.5" font-family="Helvetica,sans-Serif" font-size="10.00">backEnd.PredatorPrey.breed</text>
</a>
</g>
</g>
<!-- Node3&#45;&gt;Node4 -->
<g id="edge3" class="edge"><title>Node3&#45;&gt;Node4</title>
<path fill="none" stroke="midnightblue" d="M664.017,-416.737C683.02,-376.029 736.186,-266.378 768,-243 770.65,-241.053 773.467,-239.301 776.402,-237.726"/>
<polygon fill="midnightblue" stroke="midnightblue" points="777.906,-240.887 785.51,-233.509 774.965,-234.535 777.906,-240.887"/>
</g>
<!-- Node9 -->
<g id="node9" class="node"><title>Node9</title>
<g id="a_node9"><a xlink:href="../../db/d5e/classback_end_1_1_patch.html#a8d97ca84fd6d69378e9fc0b96eff7cb9" target="_top" xlink:title="backEnd.Patch.getCell">
<polygon fill="white" stroke="black" points="999,-264.5 999,-283.5 1121,-283.5 1121,-264.5 999,-264.5"/>
<text text-anchor="middle" x="1060" y="-271.5" font-family="Helvetica,sans-Serif" font-size="10.00">backEnd.Patch.getCell</text>
</a>
</g>
</g>
<!-- Node3&#45;&gt;Node9 -->
<g id="edge11" class="edge"><title>Node3&#45;&gt;Node9</title>
<path fill="none" stroke="midnightblue" d="M701.013,-416.839C755.954,-397.675 852.611,-363.171 934,-330 967.049,-316.531 1004.31,-299.608 1029.48,-287.91"/>
<polygon fill="midnightblue" stroke="midnightblue" points="1031.25,-290.948 1038.83,-283.548 1028.29,-284.604 1031.25,-290.948"/>
</g>
<!-- Node10 -->
<g id="node10" class="node"><title>Node10</title>
<g id="a_node10"><a xlink:href="../../d0/d08/classback_end_1_1_cell.html#a780d63fdf3ec4f64bd01f9c1c01f54e9" target="_top" xlink:title="backEnd.Cell.getState">
<polygon fill="white" stroke="black" points="1186,-416.5 1186,-435.5 1308,-435.5 1308,-416.5 1186,-416.5"/>
<text text-anchor="middle" x="1247" y="-423.5" font-family="Helvetica,sans-Serif" font-size="10.00">backEnd.Cell.getState</text>
</a>
</g>
</g>
<!-- Node3&#45;&gt;Node10 -->
<g id="edge14" class="edge"><title>Node3&#45;&gt;Node10</title>
<path fill="none" stroke="midnightblue" d="M732.163,-440.361C744.137,-441.429 756.398,-442.369 768,-443 937.53,-452.221 981.029,-461.56 1150,-445 1165.39,-443.492 1181.97,-440.655 1196.94,-437.625"/>
<polygon fill="midnightblue" stroke="midnightblue" points="1197.96,-440.989 1207.02,-435.51 1196.52,-434.138 1197.96,-440.989"/>
</g>
<!-- Node11 -->
<g id="node11" class="node"><title>Node11</title>
<g id="a_node11"><a xlink:href="../../db/d5e/classback_end_1_1_patch.html#a3ff9ee1d7f36a53d2fb9011411fa58c5" target="_top" xlink:title="backEnd.Patch.getMyCellState">
<polygon fill="white" stroke="black" points="979,-416.5 979,-435.5 1141,-435.5 1141,-416.5 979,-416.5"/>
<text text-anchor="middle" x="1060" y="-423.5" font-family="Helvetica,sans-Serif" font-size="10.00">backEnd.Patch.getMyCellState</text>
</a>
</g>
</g>
<!-- Node3&#45;&gt;Node11 -->
<g id="edge12" class="edge"><title>Node3&#45;&gt;Node11</title>
<path fill="none" stroke="midnightblue" d="M732.142,-430.878C799.071,-429.88 897.154,-428.416 968.404,-427.352"/>
<polygon fill="midnightblue" stroke="midnightblue" points="968.768,-430.847 978.714,-427.198 968.663,-423.848 968.768,-430.847"/>
</g>
<!-- Node5 -->
<g id="node5" class="node"><title>Node5</title>
<g id="a_node5"><a xlink:href="../../d0/d96/classback_end_1_1_predator_prey.html#ae8cf2fdc568d75a0ebc097c23dc7c5f2" target="_top" xlink:title="backEnd.PredatorPrey.addCell">
<polygon fill="white" stroke="black" points="980.5,-62.5 980.5,-81.5 1139.5,-81.5 1139.5,-62.5 980.5,-62.5"/>
<text text-anchor="middle" x="1060" y="-69.5" font-family="Helvetica,sans-Serif" font-size="10.00">backEnd.PredatorPrey.addCell</text>
</a>
</g>
</g>
<!-- Node4&#45;&gt;Node5 -->
<g id="edge4" class="edge"><title>Node4&#45;&gt;Node5</title>
<path fill="none" stroke="midnightblue" d="M920.236,-214.322C925.241,-211.831 929.918,-208.765 934,-205 972.745,-169.263 931.137,-127.608 970,-92 972.189,-89.994 974.535,-88.1746 977.004,-86.5252"/>
<polygon fill="midnightblue" stroke="midnightblue" points="978.829,-89.5137 985.815,-81.548 975.386,-83.4189 978.829,-89.5137"/>
</g>
<!-- Node7 -->
<g id="node7" class="node"><title>Node7</title>
<g id="a_node7"><a xlink:href="../../d0/d96/classback_end_1_1_predator_prey.html#ac1aec1201253070e2cac1b976d6b30d3" target="_top" xlink:title="backEnd.PredatorPrey.find\lEmpties">
<polygon fill="white" stroke="black" points="989.5,-101 989.5,-131 1130.5,-131 1130.5,-101 989.5,-101"/>
<text text-anchor="start" x="997.5" y="-119" font-family="Helvetica,sans-Serif" font-size="10.00">backEnd.PredatorPrey.find</text>
<text text-anchor="middle" x="1060" y="-108" font-family="Helvetica,sans-Serif" font-size="10.00">Empties</text>
</a>
</g>
</g>
<!-- Node4&#45;&gt;Node7 -->
<g id="edge6" class="edge"><title>Node4&#45;&gt;Node7</title>
<path fill="none" stroke="midnightblue" d="M916.424,-214.4C922.677,-211.932 928.668,-208.849 934,-205 958.906,-187.019 945.999,-165.172 970,-146 975.016,-141.993 980.595,-138.509 986.444,-135.481"/>
<polygon fill="midnightblue" stroke="midnightblue" points="988.246,-138.502 995.817,-131.091 985.277,-132.163 988.246,-138.502"/>
</g>
<!-- Node8 -->
<g id="node8" class="node"><title>Node8</title>
<g id="a_node8"><a xlink:href="../../db/d5e/classback_end_1_1_patch.html#a3c6c0521d023d1883b92717afa1340f0" target="_top" xlink:title="backEnd.Patch.flag">
<polygon fill="white" stroke="black" points="1006.5,-226.5 1006.5,-245.5 1113.5,-245.5 1113.5,-226.5 1006.5,-226.5"/>
<text text-anchor="middle" x="1060" y="-233.5" font-family="Helvetica,sans-Serif" font-size="10.00">backEnd.Patch.flag</text>
</a>
</g>
</g>
<!-- Node4&#45;&gt;Node8 -->
<g id="edge8" class="edge"><title>Node4&#45;&gt;Node8</title>
<path fill="none" stroke="midnightblue" d="M927.024,-228.349C949.698,-229.664 974.349,-231.093 996.142,-232.356"/>
<polygon fill="midnightblue" stroke="midnightblue" points="996.076,-235.858 1006.26,-232.943 996.481,-228.87 996.076,-235.858"/>
</g>
<!-- Node4&#45;&gt;Node9 -->
<g id="edge9" class="edge"><title>Node4&#45;&gt;Node9</title>
<path fill="none" stroke="midnightblue" d="M896.88,-233.597C908.988,-236.404 922.045,-239.63 934,-243 950.233,-247.575 953.728,-250.566 970,-255 979.489,-257.586 989.626,-260.037 999.534,-262.267"/>
<polygon fill="midnightblue" stroke="midnightblue" points="998.816,-265.693 1009.33,-264.42 1000.32,-258.856 998.816,-265.693"/>
</g>
<!-- Node4&#45;&gt;Node10 -->
<g id="edge10" class="edge"><title>Node4&#45;&gt;Node10</title>
<path fill="none" stroke="midnightblue" d="M906.82,-214.499C916.103,-211.992 925.486,-208.87 934,-205 951.968,-196.834 951.221,-185.072 970,-179 1046.12,-154.386 1087.88,-128.594 1150,-179 1210.31,-227.935 1153.07,-279.662 1186,-350 1196.59,-372.609 1215.08,-394.561 1228.75,-409.011"/>
<polygon fill="midnightblue" stroke="midnightblue" points="1226.28,-411.495 1235.76,-416.223 1231.3,-406.614 1226.28,-411.495"/>
</g>
<!-- Node6 -->
<g id="node6" class="node"><title>Node6</title>
<g id="a_node6"><a xlink:href="../../d5/de7/jquery_8js.html#a2335e57f79b6acfb6de59c235dc8a83e" target="_top" xlink:title="p">
<polygon fill="white" stroke="black" points="1232.5,-43.5 1232.5,-62.5 1261.5,-62.5 1261.5,-43.5 1232.5,-43.5"/>
<text text-anchor="middle" x="1247" y="-50.5" font-family="Helvetica,sans-Serif" font-size="10.00">p</text>
</a>
</g>
</g>
<!-- Node5&#45;&gt;Node6 -->
<g id="edge5" class="edge"><title>Node5&#45;&gt;Node6</title>
<path fill="none" stroke="midnightblue" d="M1139.72,-63.9147C1169.57,-60.8497 1201.37,-57.5837 1222.32,-55.4317"/>
<polygon fill="midnightblue" stroke="midnightblue" points="1222.91,-58.8904 1232.5,-54.387 1222.19,-51.927 1222.91,-58.8904"/>
</g>
<!-- Node7&#45;&gt;Node6 -->
<g id="edge7" class="edge"><title>Node7&#45;&gt;Node6</title>
<path fill="none" stroke="midnightblue" d="M1117.77,-100.999C1128.53,-97.8879 1139.66,-94.4887 1150,-91 1175.34,-82.4516 1203.75,-70.9613 1223.04,-62.8611"/>
<polygon fill="midnightblue" stroke="midnightblue" points="1224.65,-65.9818 1232.49,-58.859 1221.92,-59.5361 1224.65,-65.9818"/>
</g>
<!-- Node11&#45;&gt;Node10 -->
<g id="edge13" class="edge"><title>Node11&#45;&gt;Node10</title>
<path fill="none" stroke="midnightblue" d="M1141.07,-426C1152.58,-426 1164.36,-426 1175.66,-426"/>
<polygon fill="midnightblue" stroke="midnightblue" points="1175.89,-429.5 1185.89,-426 1175.89,-422.5 1175.89,-429.5"/>
</g>
<!-- Node13 -->
<g id="node13" class="node"><title>Node13</title>
<g id="a_node13"><a xlink:href="../../d1/dfc/classback_end_1_1_rule_set.html#ace087d13be0cf3e1f723a663d0e06d8b" target="_top" xlink:title="backEnd.RuleSet.isOutside">
<polygon fill="white" stroke="black" points="988.5,-542.5 988.5,-561.5 1131.5,-561.5 1131.5,-542.5 988.5,-542.5"/>
<text text-anchor="middle" x="1060" y="-549.5" font-family="Helvetica,sans-Serif" font-size="10.00">backEnd.RuleSet.isOutside</text>
</a>
</g>
</g>
<!-- Node12&#45;&gt;Node13 -->
<g id="edge16" class="edge"><title>Node12&#45;&gt;Node13</title>
<path fill="none" stroke="midnightblue" d="M903.968,-580.46C932.266,-575.265 967.464,-568.804 997.167,-563.351"/>
<polygon fill="midnightblue" stroke="midnightblue" points="997.807,-566.792 1007.01,-561.544 996.543,-559.907 997.807,-566.792"/>
</g>
<!-- Node14 -->
<g id="node14" class="node"><title>Node14</title>
<g id="a_node14"><a xlink:href="../../d1/dfc/classback_end_1_1_rule_set.html#a625f1cd5d7e0e5d6acf7d47e28beb41e" target="_top" xlink:title="backEnd.RuleSet.addWrapArounds">
<polygon fill="white" stroke="black" points="970,-580.5 970,-599.5 1150,-599.5 1150,-580.5 970,-580.5"/>
<text text-anchor="middle" x="1060" y="-587.5" font-family="Helvetica,sans-Serif" font-size="10.00">backEnd.RuleSet.addWrapArounds</text>
</a>
</g>
</g>
<!-- Node12&#45;&gt;Node14 -->
<g id="edge17" class="edge"><title>Node12&#45;&gt;Node14</title>
<path fill="none" stroke="midnightblue" d="M933.218,-590C941.941,-590 950.886,-590 959.789,-590"/>
<polygon fill="midnightblue" stroke="midnightblue" points="959.808,-593.5 969.808,-590 959.808,-586.5 959.808,-593.5"/>
</g>
<!-- Node18 -->
<g id="node18" class="node"><title>Node18</title>
<g id="a_node18"><a xlink:href="../../d0/d96/classback_end_1_1_predator_prey.html#aecfa40f92acce8997492d12cefd08b48" target="_top" xlink:title="backEnd.PredatorPrey.getNext">
<polygon fill="white" stroke="black" points="382,-296.5 382,-315.5 544,-315.5 544,-296.5 382,-296.5"/>
<text text-anchor="middle" x="463" y="-303.5" font-family="Helvetica,sans-Serif" font-size="10.00">backEnd.PredatorPrey.getNext</text>
</a>
</g>
</g>
<!-- Node17&#45;&gt;Node18 -->
<g id="edge21" class="edge"><title>Node17&#45;&gt;Node18</title>
<path fill="none" stroke="midnightblue" d="M306.032,-239.04C341.515,-254.274 395.918,-277.63 430.197,-292.346"/>
<polygon fill="midnightblue" stroke="midnightblue" points="429.152,-295.707 439.722,-296.436 431.914,-289.274 429.152,-295.707"/>
</g>
<!-- Node18&#45;&gt;Node11 -->
<g id="edge42" class="edge"><title>Node18&#45;&gt;Node11</title>
<path fill="none" stroke="midnightblue" d="M511.186,-315.517C619.353,-337.332 884.873,-390.882 1001.96,-414.496"/>
<polygon fill="midnightblue" stroke="midnightblue" points="1001.31,-417.936 1011.81,-416.483 1002.7,-411.075 1001.31,-417.936"/>
</g>
<!-- Node19 -->
<g id="node19" class="node"><title>Node19</title>
<g id="a_node19"><a xlink:href="../../d0/d96/classback_end_1_1_predator_prey.html#afbf1847ebcb9a605eec41be73dec7c8c" target="_top" xlink:title="backEnd.PredatorPrey.check\lForFishAndMove">
<polygon fill="white" stroke="black" points="580,-247 580,-277 732,-277 732,-247 580,-247"/>
<text text-anchor="start" x="588" y="-265" font-family="Helvetica,sans-Serif" font-size="10.00">backEnd.PredatorPrey.check</text>
<text text-anchor="middle" x="656" y="-254" font-family="Helvetica,sans-Serif" font-size="10.00">ForFishAndMove</text>
</a>
</g>
</g>
<!-- Node18&#45;&gt;Node19 -->
<g id="edge22" class="edge"><title>Node18&#45;&gt;Node19</title>
<path fill="none" stroke="midnightblue" d="M505.444,-296.453C527.141,-291.455 554.387,-285.178 579.66,-279.356"/>
<polygon fill="midnightblue" stroke="midnightblue" points="580.644,-282.721 589.603,-277.065 579.072,-275.9 580.644,-282.721"/>
</g>
<!-- Node23 -->
<g id="node23" class="node"><title>Node23</title>
<g id="a_node23"><a xlink:href="../../d0/d96/classback_end_1_1_predator_prey.html#ab8aeaa141af352c221182d3b427cc492" target="_top" xlink:title="backEnd.PredatorPrey.check\lStarve">
<polygon fill="white" stroke="black" points="775,-291 775,-321 927,-321 927,-291 775,-291"/>
<text text-anchor="start" x="783" y="-309" font-family="Helvetica,sans-Serif" font-size="10.00">backEnd.PredatorPrey.check</text>
<text text-anchor="middle" x="851" y="-298" font-family="Helvetica,sans-Serif" font-size="10.00">Starve</text>
</a>
</g>
</g>
<!-- Node18&#45;&gt;Node23 -->
<g id="edge30" class="edge"><title>Node18&#45;&gt;Node23</title>
<path fill="none" stroke="midnightblue" d="M544.448,-306C608.835,-306 698.91,-306 764.575,-306"/>
<polygon fill="midnightblue" stroke="midnightblue" points="764.897,-309.5 774.896,-306 764.896,-302.5 764.897,-309.5"/>
</g>
<!-- Node25 -->
<g id="node25" class="node"><title>Node25</title>
<g id="a_node25"><a xlink:href="../../d1/dfc/classback_end_1_1_rule_set.html#ae5129c070ec6dac5e9d135b8d4ecb521" target="_top" xlink:title="backEnd.RuleSet.getDirect\lNeighbors">
<polygon fill="white" stroke="black" points="584.5,-501 584.5,-531 727.5,-531 727.5,-501 584.5,-501"/>
<text text-anchor="start" x="592.5" y="-519" font-family="Helvetica,sans-Serif" font-size="10.00">backEnd.RuleSet.getDirect</text>
<text text-anchor="middle" x="656" y="-508" font-family="Helvetica,sans-Serif" font-size="10.00">Neighbors</text>
</a>
</g>
</g>
<!-- Node18&#45;&gt;Node25 -->
<g id="edge38" class="edge"><title>Node18&#45;&gt;Node25</title>
<path fill="none" stroke="midnightblue" d="M471.569,-315.509C485.851,-333.482 517.702,-373.714 544,-408 560.229,-429.159 561.441,-436.852 580,-456 593.679,-470.113 610.661,-483.949 625.004,-494.772"/>
<polygon fill="midnightblue" stroke="midnightblue" points="622.982,-497.63 633.1,-500.775 627.152,-492.007 622.982,-497.63"/>
</g>
<!-- Node27 -->
<g id="node27" class="node"><title>Node27</title>
<g id="a_node27"><a xlink:href="../../d0/d96/classback_end_1_1_predator_prey.html#ae501b5b3266e13be211c77d6817045e7" target="_top" xlink:title="backEnd.PredatorPrey.moveAdj">
<polygon fill="white" stroke="black" points="768,-176.5 768,-195.5 934,-195.5 934,-176.5 768,-176.5"/>
<text text-anchor="middle" x="851" y="-183.5" font-family="Helvetica,sans-Serif" font-size="10.00">backEnd.PredatorPrey.moveAdj</text>
</a>
</g>
</g>
<!-- Node18&#45;&gt;Node27 -->
<g id="edge43" class="edge"><title>Node18&#45;&gt;Node27</title>
<path fill="none" stroke="midnightblue" d="M476.827,-296.482C497.464,-281.646 539.804,-253.141 580,-238 637.181,-216.461 704.681,-203.461 757.886,-195.846"/>
<polygon fill="midnightblue" stroke="midnightblue" points="758.566,-199.285 767.988,-194.44 757.601,-192.352 758.566,-199.285"/>
</g>
<!-- Node28 -->
<g id="node28" class="node"><title>Node28</title>
<g id="a_node28"><a xlink:href="../../db/d5e/classback_end_1_1_patch.html#a9efa671e6b11dc96a024a5df769b7546" target="_top" xlink:title="backEnd.Patch.myCellState\lEquals">
<polygon fill="white" stroke="black" points="582,-613 582,-643 730,-643 730,-613 582,-613"/>
<text text-anchor="start" x="590" y="-631" font-family="Helvetica,sans-Serif" font-size="10.00">backEnd.Patch.myCellState</text>
<text text-anchor="middle" x="656" y="-620" font-family="Helvetica,sans-Serif" font-size="10.00">Equals</text>
</a>
</g>
</g>
<!-- Node18&#45;&gt;Node28 -->
<g id="edge49" class="edge"><title>Node18&#45;&gt;Node28</title>
<path fill="none" stroke="midnightblue" d="M473.914,-315.765C490.763,-332.907 525.002,-370.195 544,-408 571.305,-462.334 551.595,-486.233 580,-540 593.173,-564.935 614.474,-589.003 631.015,-605.648"/>
<polygon fill="midnightblue" stroke="midnightblue" points="628.651,-608.231 638.234,-612.749 633.56,-603.241 628.651,-608.231"/>
</g>
<!-- Node20 -->
<g id="node20" class="node"><title>Node20</title>
<g id="a_node20"><a xlink:href="../../d0/d96/classback_end_1_1_predator_prey.html#ae2c9b91296f82e101e9dd0ea350d3f62" target="_top" xlink:title="backEnd.PredatorPrey.eatFish">
<polygon fill="white" stroke="black" points="772,-252.5 772,-271.5 930,-271.5 930,-252.5 772,-252.5"/>
<text text-anchor="middle" x="851" y="-259.5" font-family="Helvetica,sans-Serif" font-size="10.00">backEnd.PredatorPrey.eatFish</text>
</a>
</g>
</g>
<!-- Node19&#45;&gt;Node20 -->
<g id="edge23" class="edge"><title>Node19&#45;&gt;Node20</title>
<path fill="none" stroke="midnightblue" d="M732.171,-262C741.834,-262 751.796,-262 761.645,-262"/>
<polygon fill="midnightblue" stroke="midnightblue" points="761.849,-265.5 771.849,-262 761.849,-258.5 761.849,-265.5"/>
</g>
<!-- Node22 -->
<g id="node22" class="node"><title>Node22</title>
<g id="a_node22"><a xlink:href="../../d0/d96/classback_end_1_1_predator_prey.html#acad085d5842f415749231d940982ab57" target="_top" xlink:title="backEnd.PredatorPrey.get\lPossibleFish">
<polygon fill="white" stroke="black" points="781,-127 781,-157 921,-157 921,-127 781,-127"/>
<text text-anchor="start" x="789" y="-145" font-family="Helvetica,sans-Serif" font-size="10.00">backEnd.PredatorPrey.get</text>
<text text-anchor="middle" x="851" y="-134" font-family="Helvetica,sans-Serif" font-size="10.00">PossibleFish</text>
</a>
</g>
</g>
<!-- Node19&#45;&gt;Node22 -->
<g id="edge28" class="edge"><title>Node19&#45;&gt;Node22</title>
<path fill="none" stroke="midnightblue" d="M670.611,-246.966C690.216,-226.165 728.419,-188.721 768,-167 771.998,-164.806 776.213,-162.779 780.537,-160.911"/>
<polygon fill="midnightblue" stroke="midnightblue" points="782.15,-164.035 790.133,-157.07 779.549,-157.536 782.15,-164.035"/>
</g>
<!-- Node20&#45;&gt;Node8 -->
<g id="edge25" class="edge"><title>Node20&#45;&gt;Node8</title>
<path fill="none" stroke="midnightblue" d="M927.904,-252.466C950.416,-249.639 974.807,-246.575 996.376,-243.866"/>
<polygon fill="midnightblue" stroke="midnightblue" points="996.907,-247.327 1006.39,-242.608 996.035,-240.381 996.907,-247.327"/>
</g>
<!-- Node20&#45;&gt;Node11 -->
<g id="edge26" class="edge"><title>Node20&#45;&gt;Node11</title>
<path fill="none" stroke="midnightblue" d="M917.088,-271.615C923.215,-274.306 928.994,-277.708 934,-282 965.766,-309.24 943.146,-336.907 970,-369 985.512,-387.539 1008.63,-402.092 1027.41,-411.853"/>
<polygon fill="midnightblue" stroke="midnightblue" points="1026,-415.056 1036.51,-416.385 1029.12,-408.792 1026,-415.056"/>
</g>
<!-- Node20&#45;&gt;Node15 -->
<g id="edge24" class="edge"><title>Node20&#45;&gt;Node15</title>
<path fill="none" stroke="midnightblue" d="M906.82,-252.499C916.103,-249.992 925.486,-246.87 934,-243 951.968,-234.834 951.962,-225.01 970,-217 977.391,-213.718 985.385,-210.988 993.445,-208.722"/>
<polygon fill="midnightblue" stroke="midnightblue" points="994.467,-212.073 1003.27,-206.181 992.715,-205.296 994.467,-212.073"/>
</g>
<!-- Node21 -->
<g id="node21" class="node"><title>Node21</title>
<g id="a_node21"><a xlink:href="../../d0/d08/classback_end_1_1_cell.html#a1f5840c8483f25559567cbf9c6f1eef4" target="_top" xlink:title="backEnd.Cell.setState">
<polygon fill="white" stroke="black" points="1186,-321.5 1186,-340.5 1308,-340.5 1308,-321.5 1186,-321.5"/>
<text text-anchor="middle" x="1247" y="-328.5" font-family="Helvetica,sans-Serif" font-size="10.00">backEnd.Cell.setState</text>
</a>
</g>
</g>
<!-- Node20&#45;&gt;Node21 -->
<g id="edge27" class="edge"><title>Node20&#45;&gt;Node21</title>
<path fill="none" stroke="midnightblue" d="M892.994,-271.511C906.133,-274.689 920.717,-278.354 934,-282 950.134,-286.428 953.661,-289.403 970,-293 1039.15,-308.223 1119.47,-318.461 1175.57,-324.439"/>
<polygon fill="midnightblue" stroke="midnightblue" points="1175.44,-327.944 1185.75,-325.505 1176.17,-320.983 1175.44,-327.944"/>
</g>
<!-- Node22&#45;&gt;Node6 -->
<g id="edge29" class="edge"><title>Node22&#45;&gt;Node6</title>
<path fill="none" stroke="midnightblue" d="M865.783,-126.646C886.108,-105.286 926.446,-67.5836 970,-53 1059.13,-23.1554 1173.72,-39.0486 1222.42,-48.1086"/>
<polygon fill="midnightblue" stroke="midnightblue" points="1221.82,-51.5565 1232.3,-50.0243 1223.15,-44.6846 1221.82,-51.5565"/>
</g>
<!-- Node23&#45;&gt;Node8 -->
<g id="edge32" class="edge"><title>Node23&#45;&gt;Node8</title>
<path fill="none" stroke="midnightblue" d="M910.275,-290.85C918.411,-287.986 926.534,-284.705 934,-281 951.679,-272.226 951.962,-263.01 970,-255 978.271,-251.327 987.297,-248.346 996.325,-245.932"/>
<polygon fill="midnightblue" stroke="midnightblue" points="997.214,-249.318 1006.09,-243.529 995.541,-242.521 997.214,-249.318"/>
</g>
<!-- Node23&#45;&gt;Node9 -->
<g id="edge33" class="edge"><title>Node23&#45;&gt;Node9</title>
<path fill="none" stroke="midnightblue" d="M927.024,-294.402C947.216,-291.281 968.976,-287.917 988.889,-284.838"/>
<polygon fill="midnightblue" stroke="midnightblue" points="989.46,-288.292 998.808,-283.305 988.39,-281.374 989.46,-288.292"/>
</g>
<!-- Node23&#45;&gt;Node10 -->
<g id="edge35" class="edge"><title>Node23&#45;&gt;Node10</title>
<path fill="none" stroke="midnightblue" d="M875.468,-321.142C898.633,-335.448 935.495,-356.521 970,-369 980.252,-372.708 1110.03,-398.886 1187.92,-414.446"/>
<polygon fill="midnightblue" stroke="midnightblue" points="1187.59,-417.949 1198.08,-416.474 1188.96,-411.084 1187.59,-417.949"/>
</g>
<!-- Node23&#45;&gt;Node11 -->
<g id="edge34" class="edge"><title>Node23&#45;&gt;Node11</title>
<path fill="none" stroke="midnightblue" d="M870.372,-321.282C902.122,-347.645 964.417,-399.142 970,-402 979.176,-406.698 989.369,-410.551 999.486,-413.687"/>
<polygon fill="midnightblue" stroke="midnightblue" points="998.548,-417.059 1009.13,-416.478 1000.49,-410.335 998.548,-417.059"/>
</g>
<!-- Node23&#45;&gt;Node15 -->
<g id="edge31" class="edge"><title>Node23&#45;&gt;Node15</title>
<path fill="none" stroke="midnightblue" d="M918.301,-290.809C923.909,-288.063 929.244,-284.823 934,-281 959.435,-260.551 943.714,-236.342 970,-217 977.027,-211.829 985.163,-208.005 993.604,-205.188"/>
<polygon fill="midnightblue" stroke="midnightblue" points="994.58,-208.549 1003.22,-202.416 992.641,-201.823 994.58,-208.549"/>
</g>
<!-- Node24 -->
<g id="node24" class="node"><title>Node24</title>
<g id="a_node24"><a xlink:href="../../db/d5e/classback_end_1_1_patch.html#a59b689bcfb17aa8603d5e3278521174b" target="_top" xlink:title="backEnd.Patch.setMyCellState">
<polygon fill="white" stroke="black" points="979.5,-340.5 979.5,-359.5 1140.5,-359.5 1140.5,-340.5 979.5,-340.5"/>
<text text-anchor="middle" x="1060" y="-347.5" font-family="Helvetica,sans-Serif" font-size="10.00">backEnd.Patch.setMyCellState</text>
</a>
</g>
</g>
<!-- Node23&#45;&gt;Node24 -->
<g id="edge36" class="edge"><title>Node23&#45;&gt;Node24</title>
<path fill="none" stroke="midnightblue" d="M922.659,-321.019C949.32,-326.686 979.225,-333.043 1004.22,-338.356"/>
<polygon fill="midnightblue" stroke="midnightblue" points="1003.74,-341.832 1014.25,-340.488 1005.19,-334.985 1003.74,-341.832"/>
</g>
<!-- Node24&#45;&gt;Node21 -->
<g id="edge37" class="edge"><title>Node24&#45;&gt;Node21</title>
<path fill="none" stroke="midnightblue" d="M1140.53,-341.832C1152.27,-340.626 1164.3,-339.391 1175.83,-338.207"/>
<polygon fill="midnightblue" stroke="midnightblue" points="1176.23,-341.684 1185.82,-337.181 1175.51,-334.721 1176.23,-341.684"/>
</g>
<!-- Node25&#45;&gt;Node12 -->
<g id="edge39" class="edge"><title>Node25&#45;&gt;Node12</title>
<path fill="none" stroke="midnightblue" d="M687.622,-531.177C709.65,-541.751 740.245,-555.743 768,-566 779.414,-570.218 791.932,-574.197 803.676,-577.657"/>
<polygon fill="midnightblue" stroke="midnightblue" points="802.738,-581.029 813.317,-580.435 804.677,-574.303 802.738,-581.029"/>
</g>
<!-- Node25&#45;&gt;Node13 -->
<g id="edge40" class="edge"><title>Node25&#45;&gt;Node13</title>
<path fill="none" stroke="midnightblue" d="M727.662,-526.99C741.037,-528.842 754.931,-530.611 768,-532 838.781,-539.523 919.564,-544.814 978.026,-548.057"/>
<polygon fill="midnightblue" stroke="midnightblue" points="978.133,-551.567 988.309,-548.618 978.515,-544.578 978.133,-551.567"/>
</g>
<!-- Node26 -->
<g id="node26" class="node"><title>Node26</title>
<g id="a_node26"><a xlink:href="../../d1/dfc/classback_end_1_1_rule_set.html#a4cf4a92c89c23ea81b43ca8fadb46975" target="_top" xlink:title="backEnd.RuleSet.addDirect\lWrapArounds">
<polygon fill="white" stroke="black" points="778,-493 778,-523 924,-523 924,-493 778,-493"/>
<text text-anchor="start" x="786" y="-511" font-family="Helvetica,sans-Serif" font-size="10.00">backEnd.RuleSet.addDirect</text>
<text text-anchor="middle" x="851" y="-500" font-family="Helvetica,sans-Serif" font-size="10.00">WrapArounds</text>
</a>
</g>
</g>
<!-- Node25&#45;&gt;Node26 -->
<g id="edge41" class="edge"><title>Node25&#45;&gt;Node26</title>
<path fill="none" stroke="midnightblue" d="M727.77,-513.067C740.801,-512.526 754.507,-511.958 767.84,-511.406"/>
<polygon fill="midnightblue" stroke="midnightblue" points="768.099,-514.898 777.945,-510.987 767.809,-507.904 768.099,-514.898"/>
</g>
<!-- Node27&#45;&gt;Node5 -->
<g id="edge44" class="edge"><title>Node27&#45;&gt;Node5</title>
<path fill="none" stroke="midnightblue" d="M916.003,-176.419C922.482,-173.733 928.639,-170.323 934,-166 962.471,-143.041 941.322,-114.699 970,-92 972.817,-89.7701 975.834,-87.7784 978.993,-86.0002"/>
<polygon fill="midnightblue" stroke="midnightblue" points="980.748,-89.0396 988.225,-81.5334 977.699,-82.7384 980.748,-89.0396"/>
</g>
<!-- Node27&#45;&gt;Node7 -->
<g id="edge46" class="edge"><title>Node27&#45;&gt;Node7</title>
<path fill="none" stroke="midnightblue" d="M900.365,-176.482C911.587,-173.651 923.357,-170.167 934,-166 951.044,-159.327 953.258,-153.398 970,-146 979.381,-141.855 989.525,-137.935 999.49,-134.381"/>
<polygon fill="midnightblue" stroke="midnightblue" points="1000.66,-137.679 1008.96,-131.09 998.365,-131.067 1000.66,-137.679"/>
</g>
<!-- Node27&#45;&gt;Node8 -->
<g id="edge47" class="edge"><title>Node27&#45;&gt;Node8</title>
<path fill="none" stroke="midnightblue" d="M896.88,-195.597C908.988,-198.404 922.045,-201.63 934,-205 950.233,-209.575 953.728,-212.566 970,-217 979.489,-219.586 989.626,-222.037 999.534,-224.267"/>
<polygon fill="midnightblue" stroke="midnightblue" points="998.816,-227.693 1009.33,-226.42 1000.32,-220.856 998.816,-227.693"/>
</g>
<!-- Node27&#45;&gt;Node9 -->
<g id="edge48" class="edge"><title>Node27&#45;&gt;Node9</title>
<path fill="none" stroke="midnightblue" d="M914.868,-195.55C921.628,-198.017 928.161,-201.114 934,-205 956.796,-220.172 947.073,-240.027 970,-255 975.777,-258.773 982.173,-261.812 988.809,-264.257"/>
<polygon fill="midnightblue" stroke="midnightblue" points="988.067,-267.695 998.658,-267.431 990.214,-261.032 988.067,-267.695"/>
</g>
<!-- Node27&#45;&gt;Node15 -->
<g id="edge45" class="edge"><title>Node27&#45;&gt;Node15</title>
<path fill="none" stroke="midnightblue" d="M934.109,-190.76C953.729,-191.897 974.42,-193.097 993.195,-194.185"/>
<polygon fill="midnightblue" stroke="midnightblue" points="993.224,-197.693 1003.41,-194.777 993.629,-190.704 993.224,-197.693"/>
</g>
<!-- Node28&#45;&gt;Node10 -->
<g id="edge51" class="edge"><title>Node28&#45;&gt;Node10</title>
<path fill="none" stroke="midnightblue" d="M708.375,-643.026C805.19,-667.994 1016.86,-706.261 1150,-609 1206.43,-567.78 1232.56,-483.35 1241.84,-445.323"/>
<polygon fill="midnightblue" stroke="midnightblue" points="1245.26,-446.035 1244.1,-435.504 1238.44,-444.46 1245.26,-446.035"/>
</g>
<!-- Node29 -->
<g id="node29" class="node"><title>Node29</title>
<g id="a_node29"><a xlink:href="../../d3/dea/classback_end_1_1_state.html#a5e12a9ec49bc055f98f47974b0334a6d" target="_top" xlink:title="backEnd.State.equals">
<polygon fill="white" stroke="black" points="790.5,-618.5 790.5,-637.5 911.5,-637.5 911.5,-618.5 790.5,-618.5"/>
<text text-anchor="middle" x="851" y="-625.5" font-family="Helvetica,sans-Serif" font-size="10.00">backEnd.State.equals</text>
</a>
</g>
</g>
<!-- Node28&#45;&gt;Node29 -->
<g id="edge50" class="edge"><title>Node28&#45;&gt;Node29</title>
<path fill="none" stroke="midnightblue" d="M730.24,-628C746.511,-628 763.719,-628 779.862,-628"/>
<polygon fill="midnightblue" stroke="midnightblue" points="780.296,-631.5 790.295,-628 780.295,-624.5 780.296,-631.5"/>
</g>
<!-- Node30&#45;&gt;Node6 -->
<g id="edge53" class="edge"><title>Node30&#45;&gt;Node6</title>
<path fill="none" stroke="midnightblue" d="M538.688,-20.3926C665.075,-13.7704 928.951,-5.01598 1150,-31 1175.22,-33.9643 1203.48,-40.8924 1222.77,-46.1881"/>
<polygon fill="midnightblue" stroke="midnightblue" points="1221.92,-49.5829 1232.49,-48.9267 1223.81,-42.8453 1221.92,-49.5829"/>
</g>
</g>
</svg>
        <g id="navigator" transform="translate(0 0)" fill="#404254">
                <rect fill="#f2f5e9" fill-opacity="0.5" stroke="#606060" stroke-width=".5" x="0" y="0" width="60" height="60"/>
                <use id="zoomplus" xlink:href="#zoomPlus" x="17" y="9" onmousedown="handleZoom(evt,'in')"/>
                <use id="zoomminus" xlink:href="#zoomMin" x="42" y="9" onmousedown="handleZoom(evt,'out')"/>
                <use id="reset" xlink:href="#resetDef" x="30" y="36" onmousedown="handleReset()"/>
                <g id="arrowUp" xlink:href="#dirArrow" transform="translate(30 24)" onmousedown="handlePan(0,-1)">
                  <use xlink:href="#rim" fill="#404040">
                        <set attributeName="fill" to="#808080" begin="arrowUp.mouseover" end="arrowUp.mouseout"/>
                  </use>
                  <path fill="none" stroke="white" stroke-width="1.5" d="M0,-3.0v7 M-2.5,-0.5L0,-3.0L2.5,-0.5"/>
                </g>
                <g id="arrowRight" xlink:href="#dirArrow" transform="rotate(90) translate(36 -43)" onmousedown="handlePan(1,0)">
                  <use xlink:href="#rim" fill="#404040">
                        <set attributeName="fill" to="#808080" begin="arrowRight.mouseover" end="arrowRight.mouseout"/>
                  </use>
                  <path fill="none" stroke="white" stroke-width="1.5" d="M0,-3.0v7 M-2.5,-0.5L0,-3.0L2.5,-0.5"/>
                </g>
                <g id="arrowDown" xlink:href="#dirArrow" transform="rotate(180) translate(-30 -48)" onmousedown="handlePan(0,1)">
                  <use xlink:href="#rim" fill="#404040">
                        <set attributeName="fill" to="#808080" begin="arrowDown.mouseover" end="arrowDown.mouseout"/>
                  </use>
                  <path fill="none" stroke="white" stroke-width="1.5" d="M0,-3.0v7 M-2.5,-0.5L0,-3.0L2.5,-0.5"/>
                </g>
                <g id="arrowLeft" xlink:href="#dirArrow" transform="rotate(270) translate(-36 17)" onmousedown="handlePan(-1,0)">
                  <use xlink:href="#rim" fill="#404040">
                        <set attributeName="fill" to="#808080" begin="arrowLeft.mouseover" end="arrowLeft.mouseout"/>
                  </use>
                  <path fill="none" stroke="white" stroke-width="1.5" d="M0,-3.0v7 M-2.5,-0.5L0,-3.0L2.5,-0.5"/>
                </g>
        </g>
        <svg viewBox="0 0 15 15" width="100%" height="30px" preserveAspectRatio="xMaxYMin meet">
         <g id="arrow_out" transform="scale(0.3 0.3)">
          <a xlink:href="classback_end_1_1_predator_prey_acf219a8748ddb0ed02c2202a3b3d6b37_cgraph_org.svg" target="_base">
           <rect id="button" ry="5" rx="5" y="6" x="6" height="38" width="38"
                fill="#f2f5e9" fill-opacity="0.5" stroke="#606060" stroke-width="1.0"/>
           <path id="arrow"
             d="M 11.500037,31.436501 C 11.940474,20.09759 22.043105,11.32322 32.158766,21.979434 L 37.068811,17.246167 C 37.068811,17.246167 37.088388,32 37.088388,32 L 22.160133,31.978069 C 22.160133,31.978069 26.997745,27.140456 26.997745,27.140456 C 18.528582,18.264221 13.291696,25.230495 11.500037,31.436501 z"
             style="fill:#404040;"/>
          </a>
         </g>
        </svg>
</svg>
