<?xml version="1.0" encoding="UTF-8" standalone="no"?>
<!DOCTYPE svg PUBLIC "-//W3C//DTD SVG 1.1//EN"
 "http://www.w3.org/Graphics/SVG/1.1/DTD/svg11.dtd">
<!-- Generated by graphviz version 2.36.0 (20140111.2315)
 -->
<!-- Title: backEnd.PredatorPrey.moveAdj Pages: 1 -->
<svg width="436pt" height="192pt"
 viewBox="0.00 0.00 436.00 192.00" xmlns="http://www.w3.org/2000/svg" xmlns:xlink="http://www.w3.org/1999/xlink">
<g id="graph0" class="graph" transform="scale(1 1) rotate(0) translate(4 188)">
<title>backEnd.PredatorPrey.moveAdj</title>
<polygon fill="white" stroke="none" points="-4,4 -4,-188 432,-188 432,4 -4,4"/>
<!-- Node1 -->
<g id="node1" class="node"><title>Node1</title>
<polygon fill="#bfbfbf" stroke="black" points="0,-82.5 0,-101.5 166,-101.5 166,-82.5 0,-82.5"/>
<text text-anchor="middle" x="83" y="-89.5" font-family="Helvetica,sans-Serif" font-size="10.00">backEnd.PredatorPrey.moveAdj</text>
</g>
<!-- Node2 -->
<g id="node2" class="node"><title>Node2</title>
<g id="a_node2"><a xlink:href="../../d0/d96/classback_end_1_1_predator_prey.html#ae8cf2fdc568d75a0ebc097c23dc7c5f2" target="_top" xlink:title="backEnd.PredatorPrey.addCell">
<polygon fill="white" stroke="black" points="202.5,-164.5 202.5,-183.5 361.5,-183.5 361.5,-164.5 202.5,-164.5"/>
<text text-anchor="middle" x="282" y="-171.5" font-family="Helvetica,sans-Serif" font-size="10.00">backEnd.PredatorPrey.addCell</text>
</a>
</g>
</g>
<!-- Node1&#45;&gt;Node2 -->
<g id="edge1" class="edge"><title>Node1&#45;&gt;Node2</title>
<path fill="none" stroke="midnightblue" d="M99.0581,-101.662C120.934,-115.315 163.143,-140.231 202,-155 208.708,-157.55 215.871,-159.836 223.041,-161.864"/>
<polygon fill="midnightblue" stroke="midnightblue" points="222.218,-165.267 232.782,-164.468 224.026,-158.504 222.218,-165.267"/>
</g>
<!-- Node4 -->
<g id="node4" class="node"><title>Node4</title>
<g id="a_node4"><a xlink:href="../../db/d5e/classback_end_1_1_patch.html#ae544417dcc2d70361cb77d46dd63c60b" target="_top" xlink:title="backEnd.Patch.clear">
<polygon fill="white" stroke="black" points="225.5,-126.5 225.5,-145.5 338.5,-145.5 338.5,-126.5 225.5,-126.5"/>
<text text-anchor="middle" x="282" y="-133.5" font-family="Helvetica,sans-Serif" font-size="10.00">backEnd.Patch.clear</text>
</a>
</g>
</g>
<!-- Node1&#45;&gt;Node4 -->
<g id="edge3" class="edge"><title>Node1&#45;&gt;Node4</title>
<path fill="none" stroke="midnightblue" d="M126.746,-101.547C156.563,-108.207 196.542,-117.136 228.328,-124.236"/>
<polygon fill="midnightblue" stroke="midnightblue" points="227.815,-127.707 238.337,-126.471 229.341,-120.876 227.815,-127.707"/>
</g>
<!-- Node5 -->
<g id="node5" class="node"><title>Node5</title>
<g id="a_node5"><a xlink:href="../../d0/d96/classback_end_1_1_predator_prey.html#ac1aec1201253070e2cac1b976d6b30d3" target="_top" xlink:title="backEnd.PredatorPrey.find\lEmpties">
<polygon fill="white" stroke="black" points="211.5,-77 211.5,-107 352.5,-107 352.5,-77 211.5,-77"/>
<text text-anchor="start" x="219.5" y="-95" font-family="Helvetica,sans-Serif" font-size="10.00">backEnd.PredatorPrey.find</text>
<text text-anchor="middle" x="282" y="-84" font-family="Helvetica,sans-Serif" font-size="10.00">Empties</text>
</a>
</g>
</g>
<!-- Node1&#45;&gt;Node5 -->
<g id="edge4" class="edge"><title>Node1&#45;&gt;Node5</title>
<path fill="none" stroke="midnightblue" d="M166.119,-92C177.714,-92 189.621,-92 201.172,-92"/>
<polygon fill="midnightblue" stroke="midnightblue" points="201.215,-95.5001 211.215,-92 201.215,-88.5001 201.215,-95.5001"/>
</g>
<!-- Node6 -->
<g id="node6" class="node"><title>Node6</title>
<g id="a_node6"><a xlink:href="../../db/d5e/classback_end_1_1_patch.html#a3c6c0521d023d1883b92717afa1340f0" target="_top" xlink:title="backEnd.Patch.flag">
<polygon fill="white" stroke="black" points="228.5,-38.5 228.5,-57.5 335.5,-57.5 335.5,-38.5 228.5,-38.5"/>
<text text-anchor="middle" x="282" y="-45.5" font-family="Helvetica,sans-Serif" font-size="10.00">backEnd.Patch.flag</text>
</a>
</g>
</g>
<!-- Node1&#45;&gt;Node6 -->
<g id="edge6" class="edge"><title>Node1&#45;&gt;Node6</title>
<path fill="none" stroke="midnightblue" d="M126.746,-82.4527C156.563,-75.7931 196.542,-66.8637 228.328,-59.7642"/>
<polygon fill="midnightblue" stroke="midnightblue" points="229.341,-63.1244 238.337,-57.5287 227.815,-56.2927 229.341,-63.1244"/>
</g>
<!-- Node7 -->
<g id="node7" class="node"><title>Node7</title>
<g id="a_node7"><a xlink:href="../../db/d5e/classback_end_1_1_patch.html#a8d97ca84fd6d69378e9fc0b96eff7cb9" target="_top" xlink:title="backEnd.Patch.getCell">
<polygon fill="white" stroke="black" points="221,-0.5 221,-19.5 343,-19.5 343,-0.5 221,-0.5"/>
<text text-anchor="middle" x="282" y="-7.5" font-family="Helvetica,sans-Serif" font-size="10.00">backEnd.Patch.getCell</text>
</a>
</g>
</g>
<!-- Node1&#45;&gt;Node7 -->
<g id="edge7" class="edge"><title>Node1&#45;&gt;Node7</title>
<path fill="none" stroke="midnightblue" d="M99.0581,-82.3383C120.934,-68.6854 163.143,-43.7686 202,-29 208.708,-26.4503 215.871,-24.1636 223.041,-22.1362"/>
<polygon fill="midnightblue" stroke="midnightblue" points="224.026,-25.4959 232.782,-19.5317 222.218,-18.7334 224.026,-25.4959"/>
</g>
<!-- Node3 -->
<g id="node3" class="node"><title>Node3</title>
<g id="a_node3"><a xlink:href="../../d5/de7/jquery_8js.html#a2335e57f79b6acfb6de59c235dc8a83e" target="_top" xlink:title="p">
<polygon fill="white" stroke="black" points="398.5,-123.5 398.5,-142.5 427.5,-142.5 427.5,-123.5 398.5,-123.5"/>
<text text-anchor="middle" x="413" y="-130.5" font-family="Helvetica,sans-Serif" font-size="10.00">p</text>
</a>
</g>
</g>
<!-- Node2&#45;&gt;Node3 -->
<g id="edge2" class="edge"><title>Node2&#45;&gt;Node3</title>
<path fill="none" stroke="midnightblue" d="M328.93,-164.419C339.875,-161.734 351.44,-158.561 362,-155 371.043,-151.95 380.702,-147.899 389.095,-144.105"/>
<polygon fill="midnightblue" stroke="midnightblue" points="390.664,-147.235 398.255,-139.844 387.712,-140.888 390.664,-147.235"/>
</g>
<!-- Node5&#45;&gt;Node3 -->
<g id="edge5" class="edge"><title>Node5&#45;&gt;Node3</title>
<path fill="none" stroke="midnightblue" d="M330.632,-107.046C340.975,-110.321 351.856,-113.772 362,-117 370.768,-119.79 380.396,-122.868 388.842,-125.572"/>
<polygon fill="midnightblue" stroke="midnightblue" points="387.831,-128.924 398.422,-128.642 389.967,-122.257 387.831,-128.924"/>
</g>
</g>
</svg>
