<?xml version="1.0" encoding="UTF-8" standalone="no"?>
<!DOCTYPE svg PUBLIC "-//W3C//DTD SVG 1.1//EN"
 "http://www.w3.org/Graphics/SVG/1.1/DTD/svg11.dtd">
<!-- Generated by graphviz version 2.36.0 (20140111.2315)
 -->
<!-- Title: backEnd.PredatorPrey.makeNextGrid Pages: 1 -->
<!--zoomable 561 -->
<svg id="main" version="1.1" xmlns="http://www.w3.org/2000/svg" xmlns:xlink="http://www.w3.org/1999/xlink" xml:space="preserve" onload="init(evt)">
<style type="text/css"><![CDATA[
.edge:hover path { stroke: red; }
.edge:hover polygon { stroke: red; fill: red; }
]]></style>
<script type="text/javascript"><![CDATA[
var edges = document.getElementsByTagName('g');
if (edges && edges.length) {
  for (var i=0;i<edges.length;i++) {
    if (edges[i].id.substr(0,4)=='edge') {
      edges[i].setAttribute('class','edge');
    }
  }
}
]]></script>
        <defs>
                <circle id="rim" cx="0" cy="0" r="7"/>
                <circle id="rim2" cx="0" cy="0" r="3.5"/>
                <g id="zoomPlus">
                        <use xlink:href="#rim" fill="#404040">
                                <set attributeName="fill" to="#808080" begin="zoomplus.mouseover" end="zoomplus.mouseout"/>
                        </use>
                        <path d="M-4,0h8M0,-4v8" fill="none" stroke="white" stroke-width="1.5" pointer-events="none"/>
                </g>
                <g id="zoomMin">
                        <use xlink:href="#rim" fill="#404040">
                                <set attributeName="fill" to="#808080" begin="zoomminus.mouseover" end="zoomminus.mouseout"/>
                        </use>
                        <path d="M-4,0h8" fill="none" stroke="white" stroke-width="1.5" pointer-events="none"/>
                </g>
                <g id="dirArrow">
                        <path fill="none" stroke="white" stroke-width="1.5" d="M0,-3.0v7 M-2.5,-0.5L0,-3.0L2.5,-0.5"/>
                </g>
               <g id="resetDef">
                       <use xlink:href="#rim2" fill="#404040">
                               <set attributeName="fill" to="#808080" begin="reset.mouseover" end="reset.mouseout"/>
                       </use>
               </g>
        </defs>

<script type="text/javascript">
var viewWidth = 1122;
var viewHeight = 561;
var sectionId = 'dynsection-23';
</script>
<script xlink:href="../../svgpan.js"/>
<svg id="graph" class="graph">
<g id="viewport">
<title>backEnd.PredatorPrey.makeNextGrid</title>
<polygon fill="white" stroke="none" points="-4,4 -4,-556.784 1118,-556.784 1118,4 -4,4"/>
<!-- Node1 -->
<g id="node1" class="node"><title>Node1</title>
<polygon fill="#bfbfbf" stroke="black" points="0.5,-239 0.5,-269 151.5,-269 151.5,-239 0.5,-239"/>
<text text-anchor="start" x="8.5" y="-257" font-family="Helvetica,sans-Serif" font-size="10.00">backEnd.PredatorPrey.make</text>
<text text-anchor="middle" x="76" y="-246" font-family="Helvetica,sans-Serif" font-size="10.00">NextGrid</text>
</g>
<!-- Node2 -->
<g id="node2" class="node"><title>Node2</title>
<g id="a_node2"><a xlink:href="../../d0/d96/classback_end_1_1_predator_prey.html#aecfa40f92acce8997492d12cefd08b48" target="_top" xlink:title="backEnd.PredatorPrey.getNext">
<polygon fill="white" stroke="black" points="188,-244.5 188,-263.5 350,-263.5 350,-244.5 188,-244.5"/>
<text text-anchor="middle" x="269" y="-251.5" font-family="Helvetica,sans-Serif" font-size="10.00">backEnd.PredatorPrey.getNext</text>
</a>
</g>
</g>
<!-- Node1&#45;&gt;Node2 -->
<g id="edge1" class="edge"><title>Node1&#45;&gt;Node2</title>
<path fill="none" stroke="midnightblue" d="M151.666,-254C160.164,-254 168.893,-254 177.566,-254"/>
<polygon fill="midnightblue" stroke="midnightblue" points="177.705,-257.5 187.705,-254 177.705,-250.5 177.705,-257.5"/>
</g>
<!-- Node3 -->
<g id="node3" class="node"><title>Node3</title>
<g id="a_node3"><a xlink:href="../../d0/d96/classback_end_1_1_predator_prey.html#afbf1847ebcb9a605eec41be73dec7c8c" target="_top" xlink:title="backEnd.PredatorPrey.check\lForFishAndMove">
<polygon fill="white" stroke="black" points="386,-352 386,-382 538,-382 538,-352 386,-352"/>
<text text-anchor="start" x="394" y="-370" font-family="Helvetica,sans-Serif" font-size="10.00">backEnd.PredatorPrey.check</text>
<text text-anchor="middle" x="462" y="-359" font-family="Helvetica,sans-Serif" font-size="10.00">ForFishAndMove</text>
</a>
</g>
</g>
<!-- Node2&#45;&gt;Node3 -->
<g id="edge2" class="edge"><title>Node2&#45;&gt;Node3</title>
<path fill="none" stroke="midnightblue" d="M286.285,-263.634C317.298,-281.982 385.43,-322.291 426.854,-346.799"/>
<polygon fill="midnightblue" stroke="midnightblue" points="425.128,-349.844 435.516,-351.923 428.692,-343.819 425.128,-349.844"/>
</g>
<!-- Node7 -->
<g id="node7" class="node"><title>Node7</title>
<g id="a_node7"><a xlink:href="../../db/d5e/classback_end_1_1_patch.html#a3ff9ee1d7f36a53d2fb9011411fa58c5" target="_top" xlink:title="backEnd.Patch.getMyCellState">
<polygon fill="white" stroke="black" points="785,-201.5 785,-220.5 947,-220.5 947,-201.5 785,-201.5"/>
<text text-anchor="middle" x="866" y="-208.5" font-family="Helvetica,sans-Serif" font-size="10.00">backEnd.Patch.getMyCellState</text>
</a>
</g>
</g>
<!-- Node2&#45;&gt;Node7 -->
<g id="edge25" class="edge"><title>Node2&#45;&gt;Node7</title>
<path fill="none" stroke="midnightblue" d="M350.244,-248.201C460.631,-240.223 658.762,-225.905 774.366,-217.55"/>
<polygon fill="midnightblue" stroke="midnightblue" points="774.882,-221.022 784.603,-216.81 774.377,-214.04 774.882,-221.022"/>
</g>
<!-- Node12 -->
<g id="node12" class="node"><title>Node12</title>
<g id="a_node12"><a xlink:href="../../d0/d96/classback_end_1_1_predator_prey.html#ab8aeaa141af352c221182d3b427cc492" target="_top" xlink:title="backEnd.PredatorPrey.check\lStarve">
<polygon fill="white" stroke="black" points="581,-272 581,-302 733,-302 733,-272 581,-272"/>
<text text-anchor="start" x="589" y="-290" font-family="Helvetica,sans-Serif" font-size="10.00">backEnd.PredatorPrey.check</text>
<text text-anchor="middle" x="657" y="-279" font-family="Helvetica,sans-Serif" font-size="10.00">Starve</text>
</a>
</g>
</g>
<!-- Node2&#45;&gt;Node12 -->
<g id="edge11" class="edge"><title>Node2&#45;&gt;Node12</title>
<path fill="none" stroke="midnightblue" d="M350.448,-260.878C414.835,-266.382 504.91,-274.083 570.575,-279.697"/>
<polygon fill="midnightblue" stroke="midnightblue" points="570.635,-283.215 580.896,-280.579 571.231,-276.24 570.635,-283.215"/>
</g>
<!-- Node15 -->
<g id="node15" class="node"><title>Node15</title>
<g id="a_node15"><a xlink:href="../../d1/dfc/classback_end_1_1_rule_set.html#ae5129c070ec6dac5e9d135b8d4ecb521" target="_top" xlink:title="backEnd.RuleSet.getDirect\lNeighbors">
<polygon fill="white" stroke="black" points="390.5,-63 390.5,-93 533.5,-93 533.5,-63 390.5,-63"/>
<text text-anchor="start" x="398.5" y="-81" font-family="Helvetica,sans-Serif" font-size="10.00">backEnd.RuleSet.getDirect</text>
<text text-anchor="middle" x="462" y="-70" font-family="Helvetica,sans-Serif" font-size="10.00">Neighbors</text>
</a>
</g>
</g>
<!-- Node2&#45;&gt;Node15 -->
<g id="edge19" class="edge"><title>Node2&#45;&gt;Node15</title>
<path fill="none" stroke="midnightblue" d="M280.541,-244.287C310.223,-216.936 395.063,-138.759 436.974,-100.139"/>
<polygon fill="midnightblue" stroke="midnightblue" points="439.534,-102.539 444.516,-93.189 434.791,-97.3916 439.534,-102.539"/>
</g>
<!-- Node20 -->
<g id="node20" class="node"><title>Node20</title>
<g id="a_node20"><a xlink:href="../../d0/d96/classback_end_1_1_predator_prey.html#ae501b5b3266e13be211c77d6817045e7" target="_top" xlink:title="backEnd.PredatorPrey.moveAdj">
<polygon fill="white" stroke="black" points="574,-421.5 574,-440.5 740,-440.5 740,-421.5 574,-421.5"/>
<text text-anchor="middle" x="657" y="-428.5" font-family="Helvetica,sans-Serif" font-size="10.00">backEnd.PredatorPrey.moveAdj</text>
</a>
</g>
</g>
<!-- Node2&#45;&gt;Node20 -->
<g id="edge26" class="edge"><title>Node2&#45;&gt;Node20</title>
<path fill="none" stroke="midnightblue" d="M274.926,-263.689C288.575,-289.421 329.623,-359.639 386,-391 439.993,-421.035 509.026,-430.851 563.772,-433.254"/>
<polygon fill="midnightblue" stroke="midnightblue" points="563.701,-436.753 573.822,-433.619 563.956,-429.758 563.701,-436.753"/>
</g>
<!-- Node23 -->
<g id="node23" class="node"><title>Node23</title>
<g id="a_node23"><a xlink:href="../../db/d5e/classback_end_1_1_patch.html#a9efa671e6b11dc96a024a5df769b7546" target="_top" xlink:title="backEnd.Patch.myCellState\lEquals">
<polygon fill="white" stroke="black" points="388,-158 388,-188 536,-188 536,-158 388,-158"/>
<text text-anchor="start" x="396" y="-176" font-family="Helvetica,sans-Serif" font-size="10.00">backEnd.Patch.myCellState</text>
<text text-anchor="middle" x="462" y="-165" font-family="Helvetica,sans-Serif" font-size="10.00">Equals</text>
</a>
</g>
</g>
<!-- Node2&#45;&gt;Node23 -->
<g id="edge34" class="edge"><title>Node2&#45;&gt;Node23</title>
<path fill="none" stroke="midnightblue" d="M292.66,-244.39C322.904,-231.564 377.144,-208.562 415.884,-192.133"/>
<polygon fill="midnightblue" stroke="midnightblue" points="417.535,-195.234 425.375,-188.108 414.802,-188.79 417.535,-195.234"/>
</g>
<!-- Node4 -->
<g id="node4" class="node"><title>Node4</title>
<g id="a_node4"><a xlink:href="../../d0/d96/classback_end_1_1_predator_prey.html#ae2c9b91296f82e101e9dd0ea350d3f62" target="_top" xlink:title="backEnd.PredatorPrey.eatFish">
<polygon fill="white" stroke="black" points="578,-357.5 578,-376.5 736,-376.5 736,-357.5 578,-357.5"/>
<text text-anchor="middle" x="657" y="-364.5" font-family="Helvetica,sans-Serif" font-size="10.00">backEnd.PredatorPrey.eatFish</text>
</a>
</g>
</g>
<!-- Node3&#45;&gt;Node4 -->
<g id="edge3" class="edge"><title>Node3&#45;&gt;Node4</title>
<path fill="none" stroke="midnightblue" d="M538.171,-367C547.834,-367 557.796,-367 567.645,-367"/>
<polygon fill="midnightblue" stroke="midnightblue" points="567.849,-370.5 577.849,-367 567.849,-363.5 567.849,-370.5"/>
</g>
<!-- Node10 -->
<g id="node10" class="node"><title>Node10</title>
<g id="a_node10"><a xlink:href="../../d0/d96/classback_end_1_1_predator_prey.html#acad085d5842f415749231d940982ab57" target="_top" xlink:title="backEnd.PredatorPrey.get\lPossibleFish">
<polygon fill="white" stroke="black" points="587,-501 587,-531 727,-531 727,-501 587,-501"/>
<text text-anchor="start" x="595" y="-519" font-family="Helvetica,sans-Serif" font-size="10.00">backEnd.PredatorPrey.get</text>
<text text-anchor="middle" x="657" y="-508" font-family="Helvetica,sans-Serif" font-size="10.00">PossibleFish</text>
</a>
</g>
</g>
<!-- Node3&#45;&gt;Node10 -->
<g id="edge9" class="edge"><title>Node3&#45;&gt;Node10</title>
<path fill="none" stroke="midnightblue" d="M482.568,-382.107C517.103,-408.769 588.941,-464.229 628.462,-494.74"/>
<polygon fill="midnightblue" stroke="midnightblue" points="626.326,-497.513 636.38,-500.853 630.604,-491.972 626.326,-497.513"/>
</g>
<!-- Node5 -->
<g id="node5" class="node"><title>Node5</title>
<g id="a_node5"><a xlink:href="../../db/d5e/classback_end_1_1_patch.html#ae544417dcc2d70361cb77d46dd63c60b" target="_top" xlink:title="backEnd.Patch.clear">
<polygon fill="white" stroke="black" points="809.5,-429.5 809.5,-448.5 922.5,-448.5 922.5,-429.5 809.5,-429.5"/>
<text text-anchor="middle" x="866" y="-436.5" font-family="Helvetica,sans-Serif" font-size="10.00">backEnd.Patch.clear</text>
</a>
</g>
</g>
<!-- Node4&#45;&gt;Node5 -->
<g id="edge4" class="edge"><title>Node4&#45;&gt;Node5</title>
<path fill="none" stroke="midnightblue" d="M676.317,-376.699C699.113,-388.421 739.502,-408.057 776,-420 784.183,-422.678 792.914,-425.076 801.59,-427.193"/>
<polygon fill="midnightblue" stroke="midnightblue" points="800.797,-430.602 811.33,-429.463 802.386,-423.785 800.797,-430.602"/>
</g>
<!-- Node6 -->
<g id="node6" class="node"><title>Node6</title>
<g id="a_node6"><a xlink:href="../../db/d5e/classback_end_1_1_patch.html#a3c6c0521d023d1883b92717afa1340f0" target="_top" xlink:title="backEnd.Patch.flag">
<polygon fill="white" stroke="black" points="812.5,-391.5 812.5,-410.5 919.5,-410.5 919.5,-391.5 812.5,-391.5"/>
<text text-anchor="middle" x="866" y="-398.5" font-family="Helvetica,sans-Serif" font-size="10.00">backEnd.Patch.flag</text>
</a>
</g>
</g>
<!-- Node4&#45;&gt;Node6 -->
<g id="edge5" class="edge"><title>Node4&#45;&gt;Node6</title>
<path fill="none" stroke="midnightblue" d="M715.936,-376.516C742.887,-380.943 774.987,-386.215 802.484,-390.732"/>
<polygon fill="midnightblue" stroke="midnightblue" points="801.953,-394.191 812.388,-392.358 803.088,-387.284 801.953,-394.191"/>
</g>
<!-- Node4&#45;&gt;Node7 -->
<g id="edge6" class="edge"><title>Node4&#45;&gt;Node7</title>
<path fill="none" stroke="midnightblue" d="M674.68,-357.481C691.969,-347.201 719.31,-329.758 740,-311 758.465,-294.259 757.29,-284.467 776,-268 794.971,-251.304 819.29,-236.074 837.712,-225.566"/>
<polygon fill="midnightblue" stroke="midnightblue" points="839.468,-228.594 846.489,-220.66 836.053,-222.484 839.468,-228.594"/>
</g>
<!-- Node9 -->
<g id="node9" class="node"><title>Node9</title>
<g id="a_node9"><a xlink:href="../../d0/d08/classback_end_1_1_cell.html#a1f5840c8483f25559567cbf9c6f1eef4" target="_top" xlink:title="backEnd.Cell.setState">
<polygon fill="white" stroke="black" points="992,-315.5 992,-334.5 1114,-334.5 1114,-315.5 992,-315.5"/>
<text text-anchor="middle" x="1053" y="-322.5" font-family="Helvetica,sans-Serif" font-size="10.00">backEnd.Cell.setState</text>
</a>
</g>
</g>
<!-- Node4&#45;&gt;Node9 -->
<g id="edge8" class="edge"><title>Node4&#45;&gt;Node9</title>
<path fill="none" stroke="midnightblue" d="M736.072,-363.506C796.344,-360.197 881.713,-354.182 956,-344 970.222,-342.051 985.514,-339.318 999.62,-336.532"/>
<polygon fill="midnightblue" stroke="midnightblue" points="1000.54,-339.917 1009.65,-334.505 999.154,-333.056 1000.54,-339.917"/>
</g>
<!-- Node8 -->
<g id="node8" class="node"><title>Node8</title>
<g id="a_node8"><a xlink:href="../../d0/d08/classback_end_1_1_cell.html#a780d63fdf3ec4f64bd01f9c1c01f54e9" target="_top" xlink:title="backEnd.Cell.getState">
<polygon fill="white" stroke="black" points="992,-201.5 992,-220.5 1114,-220.5 1114,-201.5 992,-201.5"/>
<text text-anchor="middle" x="1053" y="-208.5" font-family="Helvetica,sans-Serif" font-size="10.00">backEnd.Cell.getState</text>
</a>
</g>
</g>
<!-- Node7&#45;&gt;Node8 -->
<g id="edge7" class="edge"><title>Node7&#45;&gt;Node8</title>
<path fill="none" stroke="midnightblue" d="M947.068,-211C958.582,-211 970.357,-211 981.664,-211"/>
<polygon fill="midnightblue" stroke="midnightblue" points="981.894,-214.5 991.894,-211 981.894,-207.5 981.894,-214.5"/>
</g>
<!-- Node11 -->
<g id="node11" class="node"><title>Node11</title>
<g id="a_node11"><a xlink:href="../../d5/de7/jquery_8js.html#a2335e57f79b6acfb6de59c235dc8a83e" target="_top" xlink:title="p">
<polygon fill="white" stroke="black" points="1038.5,-517.5 1038.5,-536.5 1067.5,-536.5 1067.5,-517.5 1038.5,-517.5"/>
<text text-anchor="middle" x="1053" y="-524.5" font-family="Helvetica,sans-Serif" font-size="10.00">p</text>
</a>
</g>
</g>
<!-- Node10&#45;&gt;Node11 -->
<g id="edge10" class="edge"><title>Node10&#45;&gt;Node11</title>
<path fill="none" stroke="midnightblue" d="M705.707,-531.008C726.986,-536.951 752.509,-543.061 776,-546 855.381,-555.933 876.381,-553.803 956,-546 981.11,-543.539 1009.39,-537.54 1028.72,-532.935"/>
<polygon fill="midnightblue" stroke="midnightblue" points="1029.57,-536.329 1038.45,-530.552 1027.91,-529.53 1029.57,-536.329"/>
</g>
<!-- Node12&#45;&gt;Node5 -->
<g id="edge12" class="edge"><title>Node12&#45;&gt;Node5</title>
<path fill="none" stroke="midnightblue" d="M684.563,-302.21C702.002,-313.208 724.388,-329.368 740,-348 762.978,-375.423 747.709,-398.1 776,-420 782.99,-425.411 791.175,-429.364 799.699,-432.238"/>
<polygon fill="midnightblue" stroke="midnightblue" points="798.843,-435.634 809.422,-435.045 800.785,-428.909 798.843,-435.634"/>
</g>
<!-- Node12&#45;&gt;Node6 -->
<g id="edge13" class="edge"><title>Node12&#45;&gt;Node6</title>
<path fill="none" stroke="midnightblue" d="M685.488,-302.138C725.434,-324.137 799.046,-364.677 838.454,-386.38"/>
<polygon fill="midnightblue" stroke="midnightblue" points="837.247,-389.711 847.695,-391.47 840.624,-383.58 837.247,-389.711"/>
</g>
<!-- Node12&#45;&gt;Node7 -->
<g id="edge15" class="edge"><title>Node12&#45;&gt;Node7</title>
<path fill="none" stroke="midnightblue" d="M689.03,-271.776C712.53,-260.63 745.811,-245.653 776,-235 788.265,-230.672 801.713,-226.673 814.356,-223.23"/>
<polygon fill="midnightblue" stroke="midnightblue" points="815.519,-226.543 824.285,-220.593 813.722,-219.778 815.519,-226.543"/>
</g>
<!-- Node12&#45;&gt;Node8 -->
<g id="edge16" class="edge"><title>Node12&#45;&gt;Node8</title>
<path fill="none" stroke="midnightblue" d="M733.039,-272.785C793.314,-261.333 880.124,-244.765 956,-230 968.37,-227.593 981.63,-224.986 994.227,-222.496"/>
<polygon fill="midnightblue" stroke="midnightblue" points="995.027,-225.906 1004.16,-220.531 993.669,-219.039 995.027,-225.906"/>
</g>
<!-- Node13 -->
<g id="node13" class="node"><title>Node13</title>
<g id="a_node13"><a xlink:href="../../db/d5e/classback_end_1_1_patch.html#a8d97ca84fd6d69378e9fc0b96eff7cb9" target="_top" xlink:title="backEnd.Patch.getCell">
<polygon fill="white" stroke="black" points="805,-315.5 805,-334.5 927,-334.5 927,-315.5 805,-315.5"/>
<text text-anchor="middle" x="866" y="-322.5" font-family="Helvetica,sans-Serif" font-size="10.00">backEnd.Patch.getCell</text>
</a>
</g>
</g>
<!-- Node12&#45;&gt;Node13 -->
<g id="edge14" class="edge"><title>Node12&#45;&gt;Node13</title>
<path fill="none" stroke="midnightblue" d="M733.024,-300.773C756.102,-305.009 781.227,-309.621 803.303,-313.674"/>
<polygon fill="midnightblue" stroke="midnightblue" points="802.745,-317.13 813.213,-315.493 804.009,-310.245 802.745,-317.13"/>
</g>
<!-- Node14 -->
<g id="node14" class="node"><title>Node14</title>
<g id="a_node14"><a xlink:href="../../db/d5e/classback_end_1_1_patch.html#a59b689bcfb17aa8603d5e3278521174b" target="_top" xlink:title="backEnd.Patch.setMyCellState">
<polygon fill="white" stroke="black" points="785.5,-277.5 785.5,-296.5 946.5,-296.5 946.5,-277.5 785.5,-277.5"/>
<text text-anchor="middle" x="866" y="-284.5" font-family="Helvetica,sans-Serif" font-size="10.00">backEnd.Patch.setMyCellState</text>
</a>
</g>
</g>
<!-- Node12&#45;&gt;Node14 -->
<g id="edge17" class="edge"><title>Node12&#45;&gt;Node14</title>
<path fill="none" stroke="midnightblue" d="M733.024,-287C746.711,-287 761.118,-287 775.181,-287"/>
<polygon fill="midnightblue" stroke="midnightblue" points="775.346,-290.5 785.346,-287 775.346,-283.5 775.346,-290.5"/>
</g>
<!-- Node14&#45;&gt;Node9 -->
<g id="edge18" class="edge"><title>Node14&#45;&gt;Node9</title>
<path fill="none" stroke="midnightblue" d="M913.683,-296.589C938.646,-301.716 969.564,-308.067 995.834,-313.463"/>
<polygon fill="midnightblue" stroke="midnightblue" points="995.153,-316.896 1005.65,-315.48 996.561,-310.039 995.153,-316.896"/>
</g>
<!-- Node16 -->
<g id="node16" class="node"><title>Node16</title>
<g id="a_node16"><a xlink:href="../../d1/dfc/classback_end_1_1_rule_set.html#ac09e709af5a347c28f6cafb0aa4f0d34" target="_top" xlink:title="backEnd.RuleSet.getNeighbors">
<polygon fill="white" stroke="black" points="575,-49.5 575,-68.5 739,-68.5 739,-49.5 575,-49.5"/>
<text text-anchor="middle" x="657" y="-56.5" font-family="Helvetica,sans-Serif" font-size="10.00">backEnd.RuleSet.getNeighbors</text>
</a>
</g>
</g>
<!-- Node15&#45;&gt;Node16 -->
<g id="edge20" class="edge"><title>Node15&#45;&gt;Node16</title>
<path fill="none" stroke="midnightblue" d="M533.77,-71.033C543.88,-70.0378 554.395,-69.0025 564.828,-67.9755"/>
<polygon fill="midnightblue" stroke="midnightblue" points="565.18,-71.4579 574.789,-66.9949 564.494,-64.4916 565.18,-71.4579"/>
</g>
<!-- Node17 -->
<g id="node17" class="node"><title>Node17</title>
<g id="a_node17"><a xlink:href="../../d1/dfc/classback_end_1_1_rule_set.html#ace087d13be0cf3e1f723a663d0e06d8b" target="_top" xlink:title="backEnd.RuleSet.isOutside">
<polygon fill="white" stroke="black" points="794.5,-87.5 794.5,-106.5 937.5,-106.5 937.5,-87.5 794.5,-87.5"/>
<text text-anchor="middle" x="866" y="-94.5" font-family="Helvetica,sans-Serif" font-size="10.00">backEnd.RuleSet.isOutside</text>
</a>
</g>
</g>
<!-- Node15&#45;&gt;Node17 -->
<g id="edge23" class="edge"><title>Node15&#45;&gt;Node17</title>
<path fill="none" stroke="midnightblue" d="M533.944,-81.3531C604.017,-84.665 711.047,-89.7236 784.32,-93.1868"/>
<polygon fill="midnightblue" stroke="midnightblue" points="784.274,-96.6884 794.428,-93.6645 784.604,-89.6962 784.274,-96.6884"/>
</g>
<!-- Node19 -->
<g id="node19" class="node"><title>Node19</title>
<g id="a_node19"><a xlink:href="../../d1/dfc/classback_end_1_1_rule_set.html#a4cf4a92c89c23ea81b43ca8fadb46975" target="_top" xlink:title="backEnd.RuleSet.addDirect\lWrapArounds">
<polygon fill="white" stroke="black" points="584,-0 584,-30 730,-30 730,-0 584,-0"/>
<text text-anchor="start" x="592" y="-18" font-family="Helvetica,sans-Serif" font-size="10.00">backEnd.RuleSet.addDirect</text>
<text text-anchor="middle" x="657" y="-7" font-family="Helvetica,sans-Serif" font-size="10.00">WrapArounds</text>
</a>
</g>
</g>
<!-- Node15&#45;&gt;Node19 -->
<g id="edge24" class="edge"><title>Node15&#45;&gt;Node19</title>
<path fill="none" stroke="midnightblue" d="M505.847,-62.9529C526.406,-55.8299 551.422,-47.304 574,-40 581.009,-37.7324 588.374,-35.407 595.694,-33.131"/>
<polygon fill="midnightblue" stroke="midnightblue" points="597.09,-36.3632 605.612,-30.068 595.024,-29.6749 597.09,-36.3632"/>
</g>
<!-- Node16&#45;&gt;Node17 -->
<g id="edge21" class="edge"><title>Node16&#45;&gt;Node17</title>
<path fill="none" stroke="midnightblue" d="M709.968,-68.54C738.266,-73.7348 773.464,-80.1963 803.167,-85.6489"/>
<polygon fill="midnightblue" stroke="midnightblue" points="802.543,-89.0929 813.011,-87.4561 803.807,-82.208 802.543,-89.0929"/>
</g>
<!-- Node18 -->
<g id="node18" class="node"><title>Node18</title>
<g id="a_node18"><a xlink:href="../../d1/dfc/classback_end_1_1_rule_set.html#a625f1cd5d7e0e5d6acf7d47e28beb41e" target="_top" xlink:title="backEnd.RuleSet.addWrapArounds">
<polygon fill="white" stroke="black" points="776,-49.5 776,-68.5 956,-68.5 956,-49.5 776,-49.5"/>
<text text-anchor="middle" x="866" y="-56.5" font-family="Helvetica,sans-Serif" font-size="10.00">backEnd.RuleSet.addWrapArounds</text>
</a>
</g>
</g>
<!-- Node16&#45;&gt;Node18 -->
<g id="edge22" class="edge"><title>Node16&#45;&gt;Node18</title>
<path fill="none" stroke="midnightblue" d="M739.218,-59C747.941,-59 756.886,-59 765.789,-59"/>
<polygon fill="midnightblue" stroke="midnightblue" points="765.808,-62.5001 775.808,-59 765.808,-55.5001 765.808,-62.5001"/>
</g>
<!-- Node20&#45;&gt;Node5 -->
<g id="edge32" class="edge"><title>Node20&#45;&gt;Node5</title>
<path fill="none" stroke="midnightblue" d="M740.109,-434.173C759.729,-434.932 780.42,-435.731 799.195,-436.457"/>
<polygon fill="midnightblue" stroke="midnightblue" points="799.282,-439.963 809.41,-436.852 799.552,-432.968 799.282,-439.963"/>
</g>
<!-- Node20&#45;&gt;Node6 -->
<g id="edge33" class="edge"><title>Node20&#45;&gt;Node6</title>
<path fill="none" stroke="midnightblue" d="M723.781,-421.467C748.856,-417.832 777.354,-413.702 802.15,-410.109"/>
<polygon fill="midnightblue" stroke="midnightblue" points="802.776,-413.555 812.17,-408.656 801.772,-406.627 802.776,-413.555"/>
</g>
<!-- Node20&#45;&gt;Node13 -->
<g id="edge31" class="edge"><title>Node20&#45;&gt;Node13</title>
<path fill="none" stroke="midnightblue" d="M676.735,-421.406C713.282,-402.691 794.253,-361.228 837.121,-339.276"/>
<polygon fill="midnightblue" stroke="midnightblue" points="838.853,-342.322 846.158,-334.648 835.662,-336.091 838.853,-342.322"/>
</g>
<!-- Node21 -->
<g id="node21" class="node"><title>Node21</title>
<g id="a_node21"><a xlink:href="../../d0/d96/classback_end_1_1_predator_prey.html#ac1aec1201253070e2cac1b976d6b30d3" target="_top" xlink:title="backEnd.PredatorPrey.find\lEmpties">
<polygon fill="white" stroke="black" points="795.5,-468 795.5,-498 936.5,-498 936.5,-468 795.5,-468"/>
<text text-anchor="start" x="803.5" y="-486" font-family="Helvetica,sans-Serif" font-size="10.00">backEnd.PredatorPrey.find</text>
<text text-anchor="middle" x="866" y="-475" font-family="Helvetica,sans-Serif" font-size="10.00">Empties</text>
</a>
</g>
</g>
<!-- Node20&#45;&gt;Node21 -->
<g id="edge27" class="edge"><title>Node20&#45;&gt;Node21</title>
<path fill="none" stroke="midnightblue" d="M695.967,-440.538C723.574,-447.473 761.749,-457.063 794.835,-465.374"/>
<polygon fill="midnightblue" stroke="midnightblue" points="794.371,-468.866 804.923,-467.908 796.077,-462.077 794.371,-468.866"/>
</g>
<!-- Node22 -->
<g id="node22" class="node"><title>Node22</title>
<g id="a_node22"><a xlink:href="../../d0/d96/classback_end_1_1_predator_prey.html#ae8cf2fdc568d75a0ebc097c23dc7c5f2" target="_top" xlink:title="backEnd.PredatorPrey.addCell">
<polygon fill="white" stroke="black" points="786.5,-517.5 786.5,-536.5 945.5,-536.5 945.5,-517.5 786.5,-517.5"/>
<text text-anchor="middle" x="866" y="-524.5" font-family="Helvetica,sans-Serif" font-size="10.00">backEnd.PredatorPrey.addCell</text>
</a>
</g>
</g>
<!-- Node20&#45;&gt;Node22 -->
<g id="edge29" class="edge"><title>Node20&#45;&gt;Node22</title>
<path fill="none" stroke="midnightblue" d="M669.936,-440.751C690.38,-456.959 733.97,-489.397 776,-507 783.19,-510.011 790.904,-512.604 798.677,-514.827"/>
<polygon fill="midnightblue" stroke="midnightblue" points="797.953,-518.257 808.517,-517.45 799.756,-511.493 797.953,-518.257"/>
</g>
<!-- Node21&#45;&gt;Node11 -->
<g id="edge28" class="edge"><title>Node21&#45;&gt;Node11</title>
<path fill="none" stroke="midnightblue" d="M930.149,-498.019C964.068,-506.087 1003.86,-515.551 1028.51,-521.412"/>
<polygon fill="midnightblue" stroke="midnightblue" points="1027.85,-524.853 1038.38,-523.762 1029.47,-518.043 1027.85,-524.853"/>
</g>
<!-- Node22&#45;&gt;Node11 -->
<g id="edge30" class="edge"><title>Node22&#45;&gt;Node11</title>
<path fill="none" stroke="midnightblue" d="M945.725,-527C975.569,-527 1007.37,-527 1028.32,-527"/>
<polygon fill="midnightblue" stroke="midnightblue" points="1028.5,-530.5 1038.5,-527 1028.5,-523.5 1028.5,-530.5"/>
</g>
<!-- Node23&#45;&gt;Node8 -->
<g id="edge36" class="edge"><title>Node23&#45;&gt;Node8</title>
<path fill="none" stroke="midnightblue" d="M536.365,-172.247C632.92,-172.074 807.768,-174.584 956,-192 970.807,-193.74 986.742,-196.519 1001.29,-199.421"/>
<polygon fill="midnightblue" stroke="midnightblue" points="1000.61,-202.855 1011.11,-201.438 1002.02,-195.998 1000.61,-202.855"/>
</g>
<!-- Node24 -->
<g id="node24" class="node"><title>Node24</title>
<g id="a_node24"><a xlink:href="../../d3/dea/classback_end_1_1_state.html#a5e12a9ec49bc055f98f47974b0334a6d" target="_top" xlink:title="backEnd.State.equals">
<polygon fill="white" stroke="black" points="596.5,-125.5 596.5,-144.5 717.5,-144.5 717.5,-125.5 596.5,-125.5"/>
<text text-anchor="middle" x="657" y="-132.5" font-family="Helvetica,sans-Serif" font-size="10.00">backEnd.State.equals</text>
</a>
</g>
</g>
<!-- Node23&#45;&gt;Node24 -->
<g id="edge35" class="edge"><title>Node23&#45;&gt;Node24</title>
<path fill="none" stroke="midnightblue" d="M536.24,-158.58C556.581,-154.575 578.388,-150.281 597.746,-146.47"/>
<polygon fill="midnightblue" stroke="midnightblue" points="598.489,-149.891 607.625,-144.525 597.137,-143.022 598.489,-149.891"/>
</g>
</g>
</svg>
        <g id="navigator" transform="translate(0 0)" fill="#404254">
                <rect fill="#f2f5e9" fill-opacity="0.5" stroke="#606060" stroke-width=".5" x="0" y="0" width="60" height="60"/>
                <use id="zoomplus" xlink:href="#zoomPlus" x="17" y="9" onmousedown="handleZoom(evt,'in')"/>
                <use id="zoomminus" xlink:href="#zoomMin" x="42" y="9" onmousedown="handleZoom(evt,'out')"/>
                <use id="reset" xlink:href="#resetDef" x="30" y="36" onmousedown="handleReset()"/>
                <g id="arrowUp" xlink:href="#dirArrow" transform="translate(30 24)" onmousedown="handlePan(0,-1)">
                  <use xlink:href="#rim" fill="#404040">
                        <set attributeName="fill" to="#808080" begin="arrowUp.mouseover" end="arrowUp.mouseout"/>
                  </use>
                  <path fill="none" stroke="white" stroke-width="1.5" d="M0,-3.0v7 M-2.5,-0.5L0,-3.0L2.5,-0.5"/>
                </g>
                <g id="arrowRight" xlink:href="#dirArrow" transform="rotate(90) translate(36 -43)" onmousedown="handlePan(1,0)">
                  <use xlink:href="#rim" fill="#404040">
                        <set attributeName="fill" to="#808080" begin="arrowRight.mouseover" end="arrowRight.mouseout"/>
                  </use>
                  <path fill="none" stroke="white" stroke-width="1.5" d="M0,-3.0v7 M-2.5,-0.5L0,-3.0L2.5,-0.5"/>
                </g>
                <g id="arrowDown" xlink:href="#dirArrow" transform="rotate(180) translate(-30 -48)" onmousedown="handlePan(0,1)">
                  <use xlink:href="#rim" fill="#404040">
                        <set attributeName="fill" to="#808080" begin="arrowDown.mouseover" end="arrowDown.mouseout"/>
                  </use>
                  <path fill="none" stroke="white" stroke-width="1.5" d="M0,-3.0v7 M-2.5,-0.5L0,-3.0L2.5,-0.5"/>
                </g>
                <g id="arrowLeft" xlink:href="#dirArrow" transform="rotate(270) translate(-36 17)" onmousedown="handlePan(-1,0)">
                  <use xlink:href="#rim" fill="#404040">
                        <set attributeName="fill" to="#808080" begin="arrowLeft.mouseover" end="arrowLeft.mouseout"/>
                  </use>
                  <path fill="none" stroke="white" stroke-width="1.5" d="M0,-3.0v7 M-2.5,-0.5L0,-3.0L2.5,-0.5"/>
                </g>
        </g>
        <svg viewBox="0 0 15 15" width="100%" height="30px" preserveAspectRatio="xMaxYMin meet">
         <g id="arrow_out" transform="scale(0.3 0.3)">
          <a xlink:href="classback_end_1_1_predator_prey_aa032c15c617e2da8e1ab1a065413fb06_cgraph_org.svg" target="_base">
           <rect id="button" ry="5" rx="5" y="6" x="6" height="38" width="38"
                fill="#f2f5e9" fill-opacity="0.5" stroke="#606060" stroke-width="1.0"/>
           <path id="arrow"
             d="M 11.500037,31.436501 C 11.940474,20.09759 22.043105,11.32322 32.158766,21.979434 L 37.068811,17.246167 C 37.068811,17.246167 37.088388,32 37.088388,32 L 22.160133,31.978069 C 22.160133,31.978069 26.997745,27.140456 26.997745,27.140456 C 18.528582,18.264221 13.291696,25.230495 11.500037,31.436501 z"
             style="fill:#404040;"/>
          </a>
         </g>
        </svg>
</svg>
