<?xml version="1.0" encoding="UTF-8" standalone="no"?>
<!DOCTYPE svg PUBLIC "-//W3C//DTD SVG 1.1//EN"
 "http://www.w3.org/Graphics/SVG/1.1/DTD/svg11.dtd">
<!-- Generated by graphviz version 2.36.0 (20140111.2315)
 -->
<!-- Title: backEnd.PredatorPrey.getNext Pages: 1 -->
<svg width="934pt" height="561pt"
 viewBox="0.00 0.00 934.00 560.78" xmlns="http://www.w3.org/2000/svg" xmlns:xlink="http://www.w3.org/1999/xlink">
<g id="graph0" class="graph" transform="scale(1 1) rotate(0) translate(4 556.784)">
<title>backEnd.PredatorPrey.getNext</title>
<polygon fill="white" stroke="none" points="-4,4 -4,-556.784 930,-556.784 930,4 -4,4"/>
<!-- Node1 -->
<g id="node1" class="node"><title>Node1</title>
<polygon fill="#bfbfbf" stroke="black" points="0,-244.5 0,-263.5 162,-263.5 162,-244.5 0,-244.5"/>
<text text-anchor="middle" x="81" y="-251.5" font-family="Helvetica,sans-Serif" font-size="10.00">backEnd.PredatorPrey.getNext</text>
</g>
<!-- Node2 -->
<g id="node2" class="node"><title>Node2</title>
<g id="a_node2"><a xlink:href="../../d0/d96/classback_end_1_1_predator_prey.html#afbf1847ebcb9a605eec41be73dec7c8c" target="_top" xlink:title="backEnd.PredatorPrey.check\lForFishAndMove">
<polygon fill="white" stroke="black" points="198,-352 198,-382 350,-382 350,-352 198,-352"/>
<text text-anchor="start" x="206" y="-370" font-family="Helvetica,sans-Serif" font-size="10.00">backEnd.PredatorPrey.check</text>
<text text-anchor="middle" x="274" y="-359" font-family="Helvetica,sans-Serif" font-size="10.00">ForFishAndMove</text>
</a>
</g>
</g>
<!-- Node1&#45;&gt;Node2 -->
<g id="edge1" class="edge"><title>Node1&#45;&gt;Node2</title>
<path fill="none" stroke="midnightblue" d="M98.2846,-263.634C129.298,-281.982 197.43,-322.291 238.854,-346.799"/>
<polygon fill="midnightblue" stroke="midnightblue" points="237.128,-349.844 247.516,-351.923 240.692,-343.819 237.128,-349.844"/>
</g>
<!-- Node6 -->
<g id="node6" class="node"><title>Node6</title>
<g id="a_node6"><a xlink:href="../../db/d5e/classback_end_1_1_patch.html#a3ff9ee1d7f36a53d2fb9011411fa58c5" target="_top" xlink:title="backEnd.Patch.getMyCellState">
<polygon fill="white" stroke="black" points="597,-201.5 597,-220.5 759,-220.5 759,-201.5 597,-201.5"/>
<text text-anchor="middle" x="678" y="-208.5" font-family="Helvetica,sans-Serif" font-size="10.00">backEnd.Patch.getMyCellState</text>
</a>
</g>
</g>
<!-- Node1&#45;&gt;Node6 -->
<g id="edge24" class="edge"><title>Node1&#45;&gt;Node6</title>
<path fill="none" stroke="midnightblue" d="M162.244,-248.201C272.631,-240.223 470.762,-225.905 586.366,-217.55"/>
<polygon fill="midnightblue" stroke="midnightblue" points="586.882,-221.022 596.603,-216.81 586.377,-214.04 586.882,-221.022"/>
</g>
<!-- Node11 -->
<g id="node11" class="node"><title>Node11</title>
<g id="a_node11"><a xlink:href="../../d0/d96/classback_end_1_1_predator_prey.html#ab8aeaa141af352c221182d3b427cc492" target="_top" xlink:title="backEnd.PredatorPrey.check\lStarve">
<polygon fill="white" stroke="black" points="393,-272 393,-302 545,-302 545,-272 393,-272"/>
<text text-anchor="start" x="401" y="-290" font-family="Helvetica,sans-Serif" font-size="10.00">backEnd.PredatorPrey.check</text>
<text text-anchor="middle" x="469" y="-279" font-family="Helvetica,sans-Serif" font-size="10.00">Starve</text>
</a>
</g>
</g>
<!-- Node1&#45;&gt;Node11 -->
<g id="edge10" class="edge"><title>Node1&#45;&gt;Node11</title>
<path fill="none" stroke="midnightblue" d="M162.448,-260.878C226.835,-266.382 316.91,-274.083 382.575,-279.697"/>
<polygon fill="midnightblue" stroke="midnightblue" points="382.635,-283.215 392.896,-280.579 383.231,-276.24 382.635,-283.215"/>
</g>
<!-- Node14 -->
<g id="node14" class="node"><title>Node14</title>
<g id="a_node14"><a xlink:href="../../d1/dfc/classback_end_1_1_rule_set.html#ae5129c070ec6dac5e9d135b8d4ecb521" target="_top" xlink:title="backEnd.RuleSet.getDirect\lNeighbors">
<polygon fill="white" stroke="black" points="202.5,-63 202.5,-93 345.5,-93 345.5,-63 202.5,-63"/>
<text text-anchor="start" x="210.5" y="-81" font-family="Helvetica,sans-Serif" font-size="10.00">backEnd.RuleSet.getDirect</text>
<text text-anchor="middle" x="274" y="-70" font-family="Helvetica,sans-Serif" font-size="10.00">Neighbors</text>
</a>
</g>
</g>
<!-- Node1&#45;&gt;Node14 -->
<g id="edge18" class="edge"><title>Node1&#45;&gt;Node14</title>
<path fill="none" stroke="midnightblue" d="M92.5411,-244.287C122.223,-216.936 207.063,-138.759 248.974,-100.139"/>
<polygon fill="midnightblue" stroke="midnightblue" points="251.534,-102.539 256.516,-93.189 246.791,-97.3916 251.534,-102.539"/>
</g>
<!-- Node19 -->
<g id="node19" class="node"><title>Node19</title>
<g id="a_node19"><a xlink:href="../../d0/d96/classback_end_1_1_predator_prey.html#ae501b5b3266e13be211c77d6817045e7" target="_top" xlink:title="backEnd.PredatorPrey.moveAdj">
<polygon fill="white" stroke="black" points="386,-421.5 386,-440.5 552,-440.5 552,-421.5 386,-421.5"/>
<text text-anchor="middle" x="469" y="-428.5" font-family="Helvetica,sans-Serif" font-size="10.00">backEnd.PredatorPrey.moveAdj</text>
</a>
</g>
</g>
<!-- Node1&#45;&gt;Node19 -->
<g id="edge25" class="edge"><title>Node1&#45;&gt;Node19</title>
<path fill="none" stroke="midnightblue" d="M86.9262,-263.689C100.575,-289.421 141.623,-359.639 198,-391 251.993,-421.035 321.026,-430.851 375.772,-433.254"/>
<polygon fill="midnightblue" stroke="midnightblue" points="375.701,-436.753 385.822,-433.619 375.956,-429.758 375.701,-436.753"/>
</g>
<!-- Node22 -->
<g id="node22" class="node"><title>Node22</title>
<g id="a_node22"><a xlink:href="../../db/d5e/classback_end_1_1_patch.html#a9efa671e6b11dc96a024a5df769b7546" target="_top" xlink:title="backEnd.Patch.myCellState\lEquals">
<polygon fill="white" stroke="black" points="200,-158 200,-188 348,-188 348,-158 200,-158"/>
<text text-anchor="start" x="208" y="-176" font-family="Helvetica,sans-Serif" font-size="10.00">backEnd.Patch.myCellState</text>
<text text-anchor="middle" x="274" y="-165" font-family="Helvetica,sans-Serif" font-size="10.00">Equals</text>
</a>
</g>
</g>
<!-- Node1&#45;&gt;Node22 -->
<g id="edge33" class="edge"><title>Node1&#45;&gt;Node22</title>
<path fill="none" stroke="midnightblue" d="M104.66,-244.39C134.904,-231.564 189.144,-208.562 227.884,-192.133"/>
<polygon fill="midnightblue" stroke="midnightblue" points="229.535,-195.234 237.375,-188.108 226.802,-188.79 229.535,-195.234"/>
</g>
<!-- Node3 -->
<g id="node3" class="node"><title>Node3</title>
<g id="a_node3"><a xlink:href="../../d0/d96/classback_end_1_1_predator_prey.html#ae2c9b91296f82e101e9dd0ea350d3f62" target="_top" xlink:title="backEnd.PredatorPrey.eatFish">
<polygon fill="white" stroke="black" points="390,-357.5 390,-376.5 548,-376.5 548,-357.5 390,-357.5"/>
<text text-anchor="middle" x="469" y="-364.5" font-family="Helvetica,sans-Serif" font-size="10.00">backEnd.PredatorPrey.eatFish</text>
</a>
</g>
</g>
<!-- Node2&#45;&gt;Node3 -->
<g id="edge2" class="edge"><title>Node2&#45;&gt;Node3</title>
<path fill="none" stroke="midnightblue" d="M350.171,-367C359.834,-367 369.796,-367 379.645,-367"/>
<polygon fill="midnightblue" stroke="midnightblue" points="379.849,-370.5 389.849,-367 379.849,-363.5 379.849,-370.5"/>
</g>
<!-- Node9 -->
<g id="node9" class="node"><title>Node9</title>
<g id="a_node9"><a xlink:href="../../d0/d96/classback_end_1_1_predator_prey.html#acad085d5842f415749231d940982ab57" target="_top" xlink:title="backEnd.PredatorPrey.get\lPossibleFish">
<polygon fill="white" stroke="black" points="399,-501 399,-531 539,-531 539,-501 399,-501"/>
<text text-anchor="start" x="407" y="-519" font-family="Helvetica,sans-Serif" font-size="10.00">backEnd.PredatorPrey.get</text>
<text text-anchor="middle" x="469" y="-508" font-family="Helvetica,sans-Serif" font-size="10.00">PossibleFish</text>
</a>
</g>
</g>
<!-- Node2&#45;&gt;Node9 -->
<g id="edge8" class="edge"><title>Node2&#45;&gt;Node9</title>
<path fill="none" stroke="midnightblue" d="M294.568,-382.107C329.103,-408.769 400.941,-464.229 440.462,-494.74"/>
<polygon fill="midnightblue" stroke="midnightblue" points="438.326,-497.513 448.38,-500.853 442.604,-491.972 438.326,-497.513"/>
</g>
<!-- Node4 -->
<g id="node4" class="node"><title>Node4</title>
<g id="a_node4"><a xlink:href="../../db/d5e/classback_end_1_1_patch.html#ae544417dcc2d70361cb77d46dd63c60b" target="_top" xlink:title="backEnd.Patch.clear">
<polygon fill="white" stroke="black" points="621.5,-429.5 621.5,-448.5 734.5,-448.5 734.5,-429.5 621.5,-429.5"/>
<text text-anchor="middle" x="678" y="-436.5" font-family="Helvetica,sans-Serif" font-size="10.00">backEnd.Patch.clear</text>
</a>
</g>
</g>
<!-- Node3&#45;&gt;Node4 -->
<g id="edge3" class="edge"><title>Node3&#45;&gt;Node4</title>
<path fill="none" stroke="midnightblue" d="M488.317,-376.699C511.113,-388.421 551.502,-408.057 588,-420 596.183,-422.678 604.914,-425.076 613.59,-427.193"/>
<polygon fill="midnightblue" stroke="midnightblue" points="612.797,-430.602 623.33,-429.463 614.386,-423.785 612.797,-430.602"/>
</g>
<!-- Node5 -->
<g id="node5" class="node"><title>Node5</title>
<g id="a_node5"><a xlink:href="../../db/d5e/classback_end_1_1_patch.html#a3c6c0521d023d1883b92717afa1340f0" target="_top" xlink:title="backEnd.Patch.flag">
<polygon fill="white" stroke="black" points="624.5,-391.5 624.5,-410.5 731.5,-410.5 731.5,-391.5 624.5,-391.5"/>
<text text-anchor="middle" x="678" y="-398.5" font-family="Helvetica,sans-Serif" font-size="10.00">backEnd.Patch.flag</text>
</a>
</g>
</g>
<!-- Node3&#45;&gt;Node5 -->
<g id="edge4" class="edge"><title>Node3&#45;&gt;Node5</title>
<path fill="none" stroke="midnightblue" d="M527.936,-376.516C554.887,-380.943 586.987,-386.215 614.484,-390.732"/>
<polygon fill="midnightblue" stroke="midnightblue" points="613.953,-394.191 624.388,-392.358 615.088,-387.284 613.953,-394.191"/>
</g>
<!-- Node3&#45;&gt;Node6 -->
<g id="edge5" class="edge"><title>Node3&#45;&gt;Node6</title>
<path fill="none" stroke="midnightblue" d="M486.68,-357.481C503.969,-347.201 531.31,-329.758 552,-311 570.465,-294.259 569.29,-284.467 588,-268 606.971,-251.304 631.29,-236.074 649.712,-225.566"/>
<polygon fill="midnightblue" stroke="midnightblue" points="651.468,-228.594 658.489,-220.66 648.053,-222.484 651.468,-228.594"/>
</g>
<!-- Node8 -->
<g id="node8" class="node"><title>Node8</title>
<g id="a_node8"><a xlink:href="../../d0/d08/classback_end_1_1_cell.html#a1f5840c8483f25559567cbf9c6f1eef4" target="_top" xlink:title="backEnd.Cell.setState">
<polygon fill="white" stroke="black" points="804,-315.5 804,-334.5 926,-334.5 926,-315.5 804,-315.5"/>
<text text-anchor="middle" x="865" y="-322.5" font-family="Helvetica,sans-Serif" font-size="10.00">backEnd.Cell.setState</text>
</a>
</g>
</g>
<!-- Node3&#45;&gt;Node8 -->
<g id="edge7" class="edge"><title>Node3&#45;&gt;Node8</title>
<path fill="none" stroke="midnightblue" d="M548.072,-363.506C608.344,-360.197 693.713,-354.182 768,-344 782.222,-342.051 797.514,-339.318 811.62,-336.532"/>
<polygon fill="midnightblue" stroke="midnightblue" points="812.541,-339.917 821.649,-334.505 811.154,-333.056 812.541,-339.917"/>
</g>
<!-- Node7 -->
<g id="node7" class="node"><title>Node7</title>
<g id="a_node7"><a xlink:href="../../d0/d08/classback_end_1_1_cell.html#a780d63fdf3ec4f64bd01f9c1c01f54e9" target="_top" xlink:title="backEnd.Cell.getState">
<polygon fill="white" stroke="black" points="804,-201.5 804,-220.5 926,-220.5 926,-201.5 804,-201.5"/>
<text text-anchor="middle" x="865" y="-208.5" font-family="Helvetica,sans-Serif" font-size="10.00">backEnd.Cell.getState</text>
</a>
</g>
</g>
<!-- Node6&#45;&gt;Node7 -->
<g id="edge6" class="edge"><title>Node6&#45;&gt;Node7</title>
<path fill="none" stroke="midnightblue" d="M759.068,-211C770.582,-211 782.357,-211 793.664,-211"/>
<polygon fill="midnightblue" stroke="midnightblue" points="793.894,-214.5 803.894,-211 793.894,-207.5 793.894,-214.5"/>
</g>
<!-- Node10 -->
<g id="node10" class="node"><title>Node10</title>
<g id="a_node10"><a xlink:href="../../d5/de7/jquery_8js.html#a2335e57f79b6acfb6de59c235dc8a83e" target="_top" xlink:title="p">
<polygon fill="white" stroke="black" points="850.5,-517.5 850.5,-536.5 879.5,-536.5 879.5,-517.5 850.5,-517.5"/>
<text text-anchor="middle" x="865" y="-524.5" font-family="Helvetica,sans-Serif" font-size="10.00">p</text>
</a>
</g>
</g>
<!-- Node9&#45;&gt;Node10 -->
<g id="edge9" class="edge"><title>Node9&#45;&gt;Node10</title>
<path fill="none" stroke="midnightblue" d="M517.707,-531.008C538.986,-536.951 564.509,-543.061 588,-546 667.381,-555.933 688.381,-553.803 768,-546 793.11,-543.539 821.391,-537.54 840.716,-532.935"/>
<polygon fill="midnightblue" stroke="midnightblue" points="841.572,-536.329 850.453,-530.552 839.908,-529.53 841.572,-536.329"/>
</g>
<!-- Node11&#45;&gt;Node4 -->
<g id="edge11" class="edge"><title>Node11&#45;&gt;Node4</title>
<path fill="none" stroke="midnightblue" d="M496.563,-302.21C514.002,-313.208 536.388,-329.368 552,-348 574.978,-375.423 559.709,-398.1 588,-420 594.99,-425.411 603.175,-429.364 611.699,-432.238"/>
<polygon fill="midnightblue" stroke="midnightblue" points="610.843,-435.634 621.422,-435.045 612.785,-428.909 610.843,-435.634"/>
</g>
<!-- Node11&#45;&gt;Node5 -->
<g id="edge12" class="edge"><title>Node11&#45;&gt;Node5</title>
<path fill="none" stroke="midnightblue" d="M497.488,-302.138C537.434,-324.137 611.046,-364.677 650.454,-386.38"/>
<polygon fill="midnightblue" stroke="midnightblue" points="649.247,-389.711 659.695,-391.47 652.624,-383.58 649.247,-389.711"/>
</g>
<!-- Node11&#45;&gt;Node6 -->
<g id="edge14" class="edge"><title>Node11&#45;&gt;Node6</title>
<path fill="none" stroke="midnightblue" d="M501.03,-271.776C524.53,-260.63 557.811,-245.653 588,-235 600.265,-230.672 613.713,-226.673 626.356,-223.23"/>
<polygon fill="midnightblue" stroke="midnightblue" points="627.519,-226.543 636.285,-220.593 625.722,-219.778 627.519,-226.543"/>
</g>
<!-- Node11&#45;&gt;Node7 -->
<g id="edge15" class="edge"><title>Node11&#45;&gt;Node7</title>
<path fill="none" stroke="midnightblue" d="M545.039,-272.785C605.314,-261.333 692.124,-244.765 768,-230 780.37,-227.593 793.63,-224.986 806.227,-222.496"/>
<polygon fill="midnightblue" stroke="midnightblue" points="807.027,-225.906 816.158,-220.531 805.669,-219.039 807.027,-225.906"/>
</g>
<!-- Node12 -->
<g id="node12" class="node"><title>Node12</title>
<g id="a_node12"><a xlink:href="../../db/d5e/classback_end_1_1_patch.html#a8d97ca84fd6d69378e9fc0b96eff7cb9" target="_top" xlink:title="backEnd.Patch.getCell">
<polygon fill="white" stroke="black" points="617,-315.5 617,-334.5 739,-334.5 739,-315.5 617,-315.5"/>
<text text-anchor="middle" x="678" y="-322.5" font-family="Helvetica,sans-Serif" font-size="10.00">backEnd.Patch.getCell</text>
</a>
</g>
</g>
<!-- Node11&#45;&gt;Node12 -->
<g id="edge13" class="edge"><title>Node11&#45;&gt;Node12</title>
<path fill="none" stroke="midnightblue" d="M545.024,-300.773C568.102,-305.009 593.227,-309.621 615.303,-313.674"/>
<polygon fill="midnightblue" stroke="midnightblue" points="614.745,-317.13 625.213,-315.493 616.009,-310.245 614.745,-317.13"/>
</g>
<!-- Node13 -->
<g id="node13" class="node"><title>Node13</title>
<g id="a_node13"><a xlink:href="../../db/d5e/classback_end_1_1_patch.html#a59b689bcfb17aa8603d5e3278521174b" target="_top" xlink:title="backEnd.Patch.setMyCellState">
<polygon fill="white" stroke="black" points="597.5,-277.5 597.5,-296.5 758.5,-296.5 758.5,-277.5 597.5,-277.5"/>
<text text-anchor="middle" x="678" y="-284.5" font-family="Helvetica,sans-Serif" font-size="10.00">backEnd.Patch.setMyCellState</text>
</a>
</g>
</g>
<!-- Node11&#45;&gt;Node13 -->
<g id="edge16" class="edge"><title>Node11&#45;&gt;Node13</title>
<path fill="none" stroke="midnightblue" d="M545.024,-287C558.711,-287 573.118,-287 587.181,-287"/>
<polygon fill="midnightblue" stroke="midnightblue" points="587.346,-290.5 597.346,-287 587.346,-283.5 587.346,-290.5"/>
</g>
<!-- Node13&#45;&gt;Node8 -->
<g id="edge17" class="edge"><title>Node13&#45;&gt;Node8</title>
<path fill="none" stroke="midnightblue" d="M725.683,-296.589C750.646,-301.716 781.564,-308.067 807.834,-313.463"/>
<polygon fill="midnightblue" stroke="midnightblue" points="807.153,-316.896 817.652,-315.48 808.561,-310.039 807.153,-316.896"/>
</g>
<!-- Node15 -->
<g id="node15" class="node"><title>Node15</title>
<g id="a_node15"><a xlink:href="../../d1/dfc/classback_end_1_1_rule_set.html#ac09e709af5a347c28f6cafb0aa4f0d34" target="_top" xlink:title="backEnd.RuleSet.getNeighbors">
<polygon fill="white" stroke="black" points="387,-49.5 387,-68.5 551,-68.5 551,-49.5 387,-49.5"/>
<text text-anchor="middle" x="469" y="-56.5" font-family="Helvetica,sans-Serif" font-size="10.00">backEnd.RuleSet.getNeighbors</text>
</a>
</g>
</g>
<!-- Node14&#45;&gt;Node15 -->
<g id="edge19" class="edge"><title>Node14&#45;&gt;Node15</title>
<path fill="none" stroke="midnightblue" d="M345.77,-71.033C355.88,-70.0378 366.395,-69.0025 376.828,-67.9755"/>
<polygon fill="midnightblue" stroke="midnightblue" points="377.18,-71.4579 386.789,-66.9949 376.494,-64.4916 377.18,-71.4579"/>
</g>
<!-- Node16 -->
<g id="node16" class="node"><title>Node16</title>
<g id="a_node16"><a xlink:href="../../d1/dfc/classback_end_1_1_rule_set.html#ace087d13be0cf3e1f723a663d0e06d8b" target="_top" xlink:title="backEnd.RuleSet.isOutside">
<polygon fill="white" stroke="black" points="606.5,-87.5 606.5,-106.5 749.5,-106.5 749.5,-87.5 606.5,-87.5"/>
<text text-anchor="middle" x="678" y="-94.5" font-family="Helvetica,sans-Serif" font-size="10.00">backEnd.RuleSet.isOutside</text>
</a>
</g>
</g>
<!-- Node14&#45;&gt;Node16 -->
<g id="edge22" class="edge"><title>Node14&#45;&gt;Node16</title>
<path fill="none" stroke="midnightblue" d="M345.944,-81.3531C416.017,-84.665 523.047,-89.7236 596.32,-93.1868"/>
<polygon fill="midnightblue" stroke="midnightblue" points="596.274,-96.6884 606.428,-93.6645 596.604,-89.6962 596.274,-96.6884"/>
</g>
<!-- Node18 -->
<g id="node18" class="node"><title>Node18</title>
<g id="a_node18"><a xlink:href="../../d1/dfc/classback_end_1_1_rule_set.html#a4cf4a92c89c23ea81b43ca8fadb46975" target="_top" xlink:title="backEnd.RuleSet.addDirect\lWrapArounds">
<polygon fill="white" stroke="black" points="396,-0 396,-30 542,-30 542,-0 396,-0"/>
<text text-anchor="start" x="404" y="-18" font-family="Helvetica,sans-Serif" font-size="10.00">backEnd.RuleSet.addDirect</text>
<text text-anchor="middle" x="469" y="-7" font-family="Helvetica,sans-Serif" font-size="10.00">WrapArounds</text>
</a>
</g>
</g>
<!-- Node14&#45;&gt;Node18 -->
<g id="edge23" class="edge"><title>Node14&#45;&gt;Node18</title>
<path fill="none" stroke="midnightblue" d="M317.847,-62.9529C338.406,-55.8299 363.422,-47.304 386,-40 393.009,-37.7324 400.374,-35.407 407.694,-33.131"/>
<polygon fill="midnightblue" stroke="midnightblue" points="409.09,-36.3632 417.612,-30.068 407.024,-29.6749 409.09,-36.3632"/>
</g>
<!-- Node15&#45;&gt;Node16 -->
<g id="edge20" class="edge"><title>Node15&#45;&gt;Node16</title>
<path fill="none" stroke="midnightblue" d="M521.968,-68.54C550.266,-73.7348 585.464,-80.1963 615.167,-85.6489"/>
<polygon fill="midnightblue" stroke="midnightblue" points="614.543,-89.0929 625.011,-87.4561 615.807,-82.208 614.543,-89.0929"/>
</g>
<!-- Node17 -->
<g id="node17" class="node"><title>Node17</title>
<g id="a_node17"><a xlink:href="../../d1/dfc/classback_end_1_1_rule_set.html#a625f1cd5d7e0e5d6acf7d47e28beb41e" target="_top" xlink:title="backEnd.RuleSet.addWrapArounds">
<polygon fill="white" stroke="black" points="588,-49.5 588,-68.5 768,-68.5 768,-49.5 588,-49.5"/>
<text text-anchor="middle" x="678" y="-56.5" font-family="Helvetica,sans-Serif" font-size="10.00">backEnd.RuleSet.addWrapArounds</text>
</a>
</g>
</g>
<!-- Node15&#45;&gt;Node17 -->
<g id="edge21" class="edge"><title>Node15&#45;&gt;Node17</title>
<path fill="none" stroke="midnightblue" d="M551.218,-59C559.941,-59 568.886,-59 577.789,-59"/>
<polygon fill="midnightblue" stroke="midnightblue" points="577.808,-62.5001 587.808,-59 577.808,-55.5001 577.808,-62.5001"/>
</g>
<!-- Node19&#45;&gt;Node4 -->
<g id="edge31" class="edge"><title>Node19&#45;&gt;Node4</title>
<path fill="none" stroke="midnightblue" d="M552.109,-434.173C571.729,-434.932 592.42,-435.731 611.195,-436.457"/>
<polygon fill="midnightblue" stroke="midnightblue" points="611.282,-439.963 621.41,-436.852 611.552,-432.968 611.282,-439.963"/>
</g>
<!-- Node19&#45;&gt;Node5 -->
<g id="edge32" class="edge"><title>Node19&#45;&gt;Node5</title>
<path fill="none" stroke="midnightblue" d="M535.781,-421.467C560.856,-417.832 589.354,-413.702 614.15,-410.109"/>
<polygon fill="midnightblue" stroke="midnightblue" points="614.776,-413.555 624.17,-408.656 613.772,-406.627 614.776,-413.555"/>
</g>
<!-- Node19&#45;&gt;Node12 -->
<g id="edge30" class="edge"><title>Node19&#45;&gt;Node12</title>
<path fill="none" stroke="midnightblue" d="M488.735,-421.406C525.282,-402.691 606.253,-361.228 649.121,-339.276"/>
<polygon fill="midnightblue" stroke="midnightblue" points="650.853,-342.322 658.158,-334.648 647.662,-336.091 650.853,-342.322"/>
</g>
<!-- Node20 -->
<g id="node20" class="node"><title>Node20</title>
<g id="a_node20"><a xlink:href="../../d0/d96/classback_end_1_1_predator_prey.html#ac1aec1201253070e2cac1b976d6b30d3" target="_top" xlink:title="backEnd.PredatorPrey.find\lEmpties">
<polygon fill="white" stroke="black" points="607.5,-468 607.5,-498 748.5,-498 748.5,-468 607.5,-468"/>
<text text-anchor="start" x="615.5" y="-486" font-family="Helvetica,sans-Serif" font-size="10.00">backEnd.PredatorPrey.find</text>
<text text-anchor="middle" x="678" y="-475" font-family="Helvetica,sans-Serif" font-size="10.00">Empties</text>
</a>
</g>
</g>
<!-- Node19&#45;&gt;Node20 -->
<g id="edge26" class="edge"><title>Node19&#45;&gt;Node20</title>
<path fill="none" stroke="midnightblue" d="M507.967,-440.538C535.574,-447.473 573.749,-457.063 606.835,-465.374"/>
<polygon fill="midnightblue" stroke="midnightblue" points="606.371,-468.866 616.923,-467.908 608.077,-462.077 606.371,-468.866"/>
</g>
<!-- Node21 -->
<g id="node21" class="node"><title>Node21</title>
<g id="a_node21"><a xlink:href="../../d0/d96/classback_end_1_1_predator_prey.html#ae8cf2fdc568d75a0ebc097c23dc7c5f2" target="_top" xlink:title="backEnd.PredatorPrey.addCell">
<polygon fill="white" stroke="black" points="598.5,-517.5 598.5,-536.5 757.5,-536.5 757.5,-517.5 598.5,-517.5"/>
<text text-anchor="middle" x="678" y="-524.5" font-family="Helvetica,sans-Serif" font-size="10.00">backEnd.PredatorPrey.addCell</text>
</a>
</g>
</g>
<!-- Node19&#45;&gt;Node21 -->
<g id="edge28" class="edge"><title>Node19&#45;&gt;Node21</title>
<path fill="none" stroke="midnightblue" d="M481.936,-440.751C502.38,-456.959 545.97,-489.397 588,-507 595.19,-510.011 602.904,-512.604 610.677,-514.827"/>
<polygon fill="midnightblue" stroke="midnightblue" points="609.953,-518.257 620.517,-517.45 611.756,-511.493 609.953,-518.257"/>
</g>
<!-- Node20&#45;&gt;Node10 -->
<g id="edge27" class="edge"><title>Node20&#45;&gt;Node10</title>
<path fill="none" stroke="midnightblue" d="M742.149,-498.019C776.068,-506.087 815.862,-515.551 840.507,-521.412"/>
<polygon fill="midnightblue" stroke="midnightblue" points="839.846,-524.853 850.385,-523.762 841.466,-518.043 839.846,-524.853"/>
</g>
<!-- Node21&#45;&gt;Node10 -->
<g id="edge29" class="edge"><title>Node21&#45;&gt;Node10</title>
<path fill="none" stroke="midnightblue" d="M757.725,-527C787.569,-527 819.369,-527 840.323,-527"/>
<polygon fill="midnightblue" stroke="midnightblue" points="840.495,-530.5 850.495,-527 840.495,-523.5 840.495,-530.5"/>
</g>
<!-- Node22&#45;&gt;Node7 -->
<g id="edge35" class="edge"><title>Node22&#45;&gt;Node7</title>
<path fill="none" stroke="midnightblue" d="M348.365,-172.247C444.92,-172.074 619.768,-174.584 768,-192 782.807,-193.74 798.742,-196.519 813.293,-199.421"/>
<polygon fill="midnightblue" stroke="midnightblue" points="812.615,-202.855 823.114,-201.438 814.023,-195.998 812.615,-202.855"/>
</g>
<!-- Node23 -->
<g id="node23" class="node"><title>Node23</title>
<g id="a_node23"><a xlink:href="../../d3/dea/classback_end_1_1_state.html#a5e12a9ec49bc055f98f47974b0334a6d" target="_top" xlink:title="backEnd.State.equals">
<polygon fill="white" stroke="black" points="408.5,-125.5 408.5,-144.5 529.5,-144.5 529.5,-125.5 408.5,-125.5"/>
<text text-anchor="middle" x="469" y="-132.5" font-family="Helvetica,sans-Serif" font-size="10.00">backEnd.State.equals</text>
</a>
</g>
</g>
<!-- Node22&#45;&gt;Node23 -->
<g id="edge34" class="edge"><title>Node22&#45;&gt;Node23</title>
<path fill="none" stroke="midnightblue" d="M348.24,-158.58C368.581,-154.575 390.388,-150.281 409.746,-146.47"/>
<polygon fill="midnightblue" stroke="midnightblue" points="410.489,-149.891 419.625,-144.525 409.137,-143.022 410.489,-149.891"/>
</g>
</g>
</svg>
