<?xml version="1.0" encoding="UTF-8" standalone="no"?>
<!DOCTYPE svg PUBLIC "-//W3C//DTD SVG 1.1//EN"
 "http://www.w3.org/Graphics/SVG/1.1/DTD/svg11.dtd">
<!-- Generated by graphviz version 2.36.0 (20140111.2315)
 -->
<!-- Title: backEnd.PredatorPrey.checkForFishAndMove Pages: 1 -->
<svg width="710pt" height="180pt"
 viewBox="0.00 0.00 710.00 180.00" xmlns="http://www.w3.org/2000/svg" xmlns:xlink="http://www.w3.org/1999/xlink">
<g id="graph0" class="graph" transform="scale(1 1) rotate(0) translate(4 176)">
<title>backEnd.PredatorPrey.checkForFishAndMove</title>
<polygon fill="white" stroke="none" points="-4,4 -4,-176 706,-176 706,4 -4,4"/>
<!-- Node1 -->
<g id="node1" class="node"><title>Node1</title>
<polygon fill="#bfbfbf" stroke="black" points="0,-41 0,-71 152,-71 152,-41 0,-41"/>
<text text-anchor="start" x="8" y="-59" font-family="Helvetica,sans-Serif" font-size="10.00">backEnd.PredatorPrey.check</text>
<text text-anchor="middle" x="76" y="-48" font-family="Helvetica,sans-Serif" font-size="10.00">ForFishAndMove</text>
</g>
<!-- Node2 -->
<g id="node2" class="node"><title>Node2</title>
<g id="a_node2"><a xlink:href="../../d0/d96/classback_end_1_1_predator_prey.html#ae2c9b91296f82e101e9dd0ea350d3f62" target="_top" xlink:title="backEnd.PredatorPrey.eatFish">
<polygon fill="white" stroke="black" points="188,-76.5 188,-95.5 346,-95.5 346,-76.5 188,-76.5"/>
<text text-anchor="middle" x="267" y="-83.5" font-family="Helvetica,sans-Serif" font-size="10.00">backEnd.PredatorPrey.eatFish</text>
</a>
</g>
</g>
<!-- Node1&#45;&gt;Node2 -->
<g id="edge1" class="edge"><title>Node1&#45;&gt;Node2</title>
<path fill="none" stroke="midnightblue" d="M152.241,-67.943C166.654,-70.2308 181.692,-72.6178 195.934,-74.8785"/>
<polygon fill="midnightblue" stroke="midnightblue" points="195.719,-78.3881 206.144,-76.4991 196.817,-71.4746 195.719,-78.3881"/>
</g>
<!-- Node8 -->
<g id="node8" class="node"><title>Node8</title>
<g id="a_node8"><a xlink:href="../../d0/d96/classback_end_1_1_predator_prey.html#acad085d5842f415749231d940982ab57" target="_top" xlink:title="backEnd.PredatorPrey.get\lPossibleFish">
<polygon fill="white" stroke="black" points="197,-11 197,-41 337,-41 337,-11 197,-11"/>
<text text-anchor="start" x="205" y="-29" font-family="Helvetica,sans-Serif" font-size="10.00">backEnd.PredatorPrey.get</text>
<text text-anchor="middle" x="267" y="-18" font-family="Helvetica,sans-Serif" font-size="10.00">PossibleFish</text>
</a>
</g>
</g>
<!-- Node1&#45;&gt;Node8 -->
<g id="edge7" class="edge"><title>Node1&#45;&gt;Node8</title>
<path fill="none" stroke="midnightblue" d="M152.241,-44.057C163.626,-42.2498 175.401,-40.3807 186.866,-38.5609"/>
<polygon fill="midnightblue" stroke="midnightblue" points="187.516,-42.0016 196.844,-36.9771 186.419,-35.0882 187.516,-42.0016"/>
</g>
<!-- Node3 -->
<g id="node3" class="node"><title>Node3</title>
<g id="a_node3"><a xlink:href="../../db/d5e/classback_end_1_1_patch.html#a3ff9ee1d7f36a53d2fb9011411fa58c5" target="_top" xlink:title="backEnd.Patch.getMyCellState">
<polygon fill="white" stroke="black" points="382,-152.5 382,-171.5 544,-171.5 544,-152.5 382,-152.5"/>
<text text-anchor="middle" x="463" y="-159.5" font-family="Helvetica,sans-Serif" font-size="10.00">backEnd.Patch.getMyCellState</text>
</a>
</g>
</g>
<!-- Node2&#45;&gt;Node3 -->
<g id="edge2" class="edge"><title>Node2&#45;&gt;Node3</title>
<path fill="none" stroke="midnightblue" d="M284.085,-95.5376C305.695,-107.998 345.603,-129.779 382,-143 388.997,-145.542 396.463,-147.836 403.917,-149.879"/>
<polygon fill="midnightblue" stroke="midnightblue" points="403.108,-153.285 413.668,-152.419 404.873,-146.511 403.108,-153.285"/>
</g>
<!-- Node5 -->
<g id="node5" class="node"><title>Node5</title>
<g id="a_node5"><a xlink:href="../../d0/d08/classback_end_1_1_cell.html#a1f5840c8483f25559567cbf9c6f1eef4" target="_top" xlink:title="backEnd.Cell.setState">
<polygon fill="white" stroke="black" points="402,-114.5 402,-133.5 524,-133.5 524,-114.5 402,-114.5"/>
<text text-anchor="middle" x="463" y="-121.5" font-family="Helvetica,sans-Serif" font-size="10.00">backEnd.Cell.setState</text>
</a>
</g>
</g>
<!-- Node2&#45;&gt;Node5 -->
<g id="edge4" class="edge"><title>Node2&#45;&gt;Node5</title>
<path fill="none" stroke="midnightblue" d="M316.954,-95.589C343.247,-100.739 375.84,-107.123 403.465,-112.534"/>
<polygon fill="midnightblue" stroke="midnightblue" points="402.911,-115.992 413.398,-114.48 404.257,-109.123 402.911,-115.992"/>
</g>
<!-- Node6 -->
<g id="node6" class="node"><title>Node6</title>
<g id="a_node6"><a xlink:href="../../db/d5e/classback_end_1_1_patch.html#ae544417dcc2d70361cb77d46dd63c60b" target="_top" xlink:title="backEnd.Patch.clear">
<polygon fill="white" stroke="black" points="406.5,-76.5 406.5,-95.5 519.5,-95.5 519.5,-76.5 406.5,-76.5"/>
<text text-anchor="middle" x="463" y="-83.5" font-family="Helvetica,sans-Serif" font-size="10.00">backEnd.Patch.clear</text>
</a>
</g>
</g>
<!-- Node2&#45;&gt;Node6 -->
<g id="edge5" class="edge"><title>Node2&#45;&gt;Node6</title>
<path fill="none" stroke="midnightblue" d="M346.069,-86C362.652,-86 380.002,-86 396.08,-86"/>
<polygon fill="midnightblue" stroke="midnightblue" points="396.44,-89.5001 406.44,-86 396.44,-82.5001 396.44,-89.5001"/>
</g>
<!-- Node7 -->
<g id="node7" class="node"><title>Node7</title>
<g id="a_node7"><a xlink:href="../../db/d5e/classback_end_1_1_patch.html#a3c6c0521d023d1883b92717afa1340f0" target="_top" xlink:title="backEnd.Patch.flag">
<polygon fill="white" stroke="black" points="409.5,-38.5 409.5,-57.5 516.5,-57.5 516.5,-38.5 409.5,-38.5"/>
<text text-anchor="middle" x="463" y="-45.5" font-family="Helvetica,sans-Serif" font-size="10.00">backEnd.Patch.flag</text>
</a>
</g>
</g>
<!-- Node2&#45;&gt;Node7 -->
<g id="edge6" class="edge"><title>Node2&#45;&gt;Node7</title>
<path fill="none" stroke="midnightblue" d="M316.954,-76.411C343.247,-71.261 375.84,-64.8768 403.465,-59.4656"/>
<polygon fill="midnightblue" stroke="midnightblue" points="404.257,-62.8771 413.398,-57.5201 402.911,-56.0076 404.257,-62.8771"/>
</g>
<!-- Node4 -->
<g id="node4" class="node"><title>Node4</title>
<g id="a_node4"><a xlink:href="../../d0/d08/classback_end_1_1_cell.html#a780d63fdf3ec4f64bd01f9c1c01f54e9" target="_top" xlink:title="backEnd.Cell.getState">
<polygon fill="white" stroke="black" points="580,-152.5 580,-171.5 702,-171.5 702,-152.5 580,-152.5"/>
<text text-anchor="middle" x="641" y="-159.5" font-family="Helvetica,sans-Serif" font-size="10.00">backEnd.Cell.getState</text>
</a>
</g>
</g>
<!-- Node3&#45;&gt;Node4 -->
<g id="edge3" class="edge"><title>Node3&#45;&gt;Node4</title>
<path fill="none" stroke="midnightblue" d="M544.018,-162C552.604,-162 561.292,-162 569.752,-162"/>
<polygon fill="midnightblue" stroke="midnightblue" points="569.936,-165.5 579.936,-162 569.936,-158.5 569.936,-165.5"/>
</g>
<!-- Node9 -->
<g id="node9" class="node"><title>Node9</title>
<g id="a_node9"><a xlink:href="../../d5/de7/jquery_8js.html#a2335e57f79b6acfb6de59c235dc8a83e" target="_top" xlink:title="p">
<polygon fill="white" stroke="black" points="448.5,-0.5 448.5,-19.5 477.5,-19.5 477.5,-0.5 448.5,-0.5"/>
<text text-anchor="middle" x="463" y="-7.5" font-family="Helvetica,sans-Serif" font-size="10.00">p</text>
</a>
</g>
</g>
<!-- Node8&#45;&gt;Node9 -->
<g id="edge8" class="edge"><title>Node8&#45;&gt;Node9</title>
<path fill="none" stroke="midnightblue" d="M337.217,-20.2914C372.478,-17.3832 413.09,-14.0338 438.154,-11.9667"/>
<polygon fill="midnightblue" stroke="midnightblue" points="438.514,-15.449 448.193,-11.1388 437.939,-8.47264 438.514,-15.449"/>
</g>
</g>
</svg>
