<?xml version="1.0" encoding="UTF-8" standalone="no"?>
<!DOCTYPE svg PUBLIC "-//W3C//DTD SVG 1.1//EN"
 "http://www.w3.org/Graphics/SVG/1.1/DTD/svg11.dtd">
<!-- Generated by graphviz version 2.36.0 (20140111.2315)
 -->
<!-- Title: backEnd.PredatorPrey.addCell Pages: 1 -->
<svg width="950pt" height="87pt"
 viewBox="0.00 0.00 950.00 87.00" xmlns="http://www.w3.org/2000/svg" xmlns:xlink="http://www.w3.org/1999/xlink">
<g id="graph0" class="graph" transform="scale(1 1) rotate(0) translate(4 83)">
<title>backEnd.PredatorPrey.addCell</title>
<polygon fill="white" stroke="none" points="-4,4 -4,-83 946,-83 946,4 -4,4"/>
<!-- Node1 -->
<g id="node1" class="node"><title>Node1</title>
<polygon fill="#bfbfbf" stroke="black" points="0.5,-28.5 0.5,-47.5 159.5,-47.5 159.5,-28.5 0.5,-28.5"/>
<text text-anchor="middle" x="80" y="-35.5" font-family="Helvetica,sans-Serif" font-size="10.00">backEnd.PredatorPrey.addCell</text>
</g>
<!-- Node2 -->
<g id="node2" class="node"><title>Node2</title>
<g id="a_node2"><a xlink:href="../../d0/d96/classback_end_1_1_predator_prey.html#a5a08efbe832d34c3c5f9bd15cf376f73" target="_top" xlink:title="backEnd.PredatorPrey.breed">
<polygon fill="white" stroke="black" points="203,-48.5 203,-67.5 355,-67.5 355,-48.5 203,-48.5"/>
<text text-anchor="middle" x="279" y="-55.5" font-family="Helvetica,sans-Serif" font-size="10.00">backEnd.PredatorPrey.breed</text>
</a>
</g>
</g>
<!-- Node1&#45;&gt;Node2 -->
<g id="edge1" class="edge"><title>Node1&#45;&gt;Node2</title>
<path fill="none" stroke="midnightblue" d="M169.81,-47.0162C180.877,-48.1398 192.109,-49.2801 202.939,-50.3796"/>
<polygon fill="midnightblue" stroke="midnightblue" points="170.011,-43.5188 159.709,-45.9908 169.304,-50.483 170.011,-43.5188"/>
</g>
<!-- Node6 -->
<g id="node6" class="node"><title>Node6</title>
<g id="a_node6"><a xlink:href="../../d0/d96/classback_end_1_1_predator_prey.html#ae501b5b3266e13be211c77d6817045e7" target="_top" xlink:title="backEnd.PredatorPrey.moveAdj">
<polygon fill="white" stroke="black" points="196,-9.5 196,-28.5 362,-28.5 362,-9.5 196,-9.5"/>
<text text-anchor="middle" x="279" y="-16.5" font-family="Helvetica,sans-Serif" font-size="10.00">backEnd.PredatorPrey.moveAdj</text>
</a>
</g>
</g>
<!-- Node1&#45;&gt;Node6 -->
<g id="edge5" class="edge"><title>Node1&#45;&gt;Node6</title>
<path fill="none" stroke="midnightblue" d="M169.825,-29.4331C178.496,-28.5968 187.268,-27.7508 195.869,-26.9213"/>
<polygon fill="midnightblue" stroke="midnightblue" points="169.327,-25.9648 159.709,-30.4088 169.999,-32.9325 169.327,-25.9648"/>
</g>
<!-- Node3 -->
<g id="node3" class="node"><title>Node3</title>
<g id="a_node3"><a xlink:href="../../d0/d96/classback_end_1_1_predator_prey.html#acb81c56992e5c1bc58a34daa5b04e9aa" target="_top" xlink:title="backEnd.PredatorPrey.check\lBreed">
<polygon fill="white" stroke="black" points="403,-47 403,-77 555,-77 555,-47 403,-47"/>
<text text-anchor="start" x="411" y="-65" font-family="Helvetica,sans-Serif" font-size="10.00">backEnd.PredatorPrey.check</text>
<text text-anchor="middle" x="479" y="-54" font-family="Helvetica,sans-Serif" font-size="10.00">Breed</text>
</a>
</g>
</g>
<!-- Node2&#45;&gt;Node3 -->
<g id="edge2" class="edge"><title>Node2&#45;&gt;Node3</title>
<path fill="none" stroke="midnightblue" d="M365.508,-59.7274C377.955,-59.9789 390.693,-60.2362 402.914,-60.4831"/>
<polygon fill="midnightblue" stroke="midnightblue" points="365.206,-56.2207 355.138,-59.5179 365.065,-63.2193 365.206,-56.2207"/>
</g>
<!-- Node4 -->
<g id="node4" class="node"><title>Node4</title>
<g id="a_node4"><a xlink:href="../../d0/d96/classback_end_1_1_predator_prey.html#ac9689f0a85de526bd6d2f1e23657dfe8" target="_top" xlink:title="backEnd.PredatorPrey.breed\lIfNecessary">
<polygon fill="white" stroke="black" points="596,-49 596,-79 748,-79 748,-49 596,-49"/>
<text text-anchor="start" x="604" y="-67" font-family="Helvetica,sans-Serif" font-size="10.00">backEnd.PredatorPrey.breed</text>
<text text-anchor="middle" x="672" y="-56" font-family="Helvetica,sans-Serif" font-size="10.00">IfNecessary</text>
</a>
</g>
</g>
<!-- Node3&#45;&gt;Node4 -->
<g id="edge3" class="edge"><title>Node3&#45;&gt;Node4</title>
<path fill="none" stroke="midnightblue" d="M565.323,-62.8934C575.5,-63 585.834,-63.1082 595.854,-63.2131"/>
<polygon fill="midnightblue" stroke="midnightblue" points="565.25,-59.3926 555.214,-62.7876 565.177,-66.3922 565.25,-59.3926"/>
</g>
<!-- Node5 -->
<g id="node5" class="node"><title>Node5</title>
<g id="a_node5"><a xlink:href="../../d0/d96/classback_end_1_1_predator_prey.html#acf219a8748ddb0ed02c2202a3b3d6b37" target="_top" xlink:title="backEnd.PredatorPrey.update">
<polygon fill="white" stroke="black" points="784,-29.5 784,-48.5 942,-48.5 942,-29.5 784,-29.5"/>
<text text-anchor="middle" x="863" y="-36.5" font-family="Helvetica,sans-Serif" font-size="10.00">backEnd.PredatorPrey.update</text>
</a>
</g>
</g>
<!-- Node4&#45;&gt;Node5 -->
<g id="edge4" class="edge"><title>Node4&#45;&gt;Node5</title>
<path fill="none" stroke="midnightblue" d="M758.346,-52.7108C768.954,-51.3077 779.717,-49.884 790.094,-48.5113"/>
<polygon fill="midnightblue" stroke="midnightblue" points="757.696,-49.2663 748.241,-54.0475 758.614,-56.2059 757.696,-49.2663"/>
</g>
<!-- Node7 -->
<g id="node7" class="node"><title>Node7</title>
<g id="a_node7"><a xlink:href="../../d0/d96/classback_end_1_1_predator_prey.html#aecfa40f92acce8997492d12cefd08b48" target="_top" xlink:title="backEnd.PredatorPrey.getNext">
<polygon fill="white" stroke="black" points="398,-6.5 398,-25.5 560,-25.5 560,-6.5 398,-6.5"/>
<text text-anchor="middle" x="479" y="-13.5" font-family="Helvetica,sans-Serif" font-size="10.00">backEnd.PredatorPrey.getNext</text>
</a>
</g>
</g>
<!-- Node6&#45;&gt;Node7 -->
<g id="edge6" class="edge"><title>Node6&#45;&gt;Node7</title>
<path fill="none" stroke="midnightblue" d="M372.263,-17.6021C380.832,-17.4722 389.469,-17.3414 397.915,-17.2134"/>
<polygon fill="midnightblue" stroke="midnightblue" points="372.195,-14.1026 362.25,-17.7538 372.302,-21.1018 372.195,-14.1026"/>
</g>
<!-- Node8 -->
<g id="node8" class="node"><title>Node8</title>
<g id="a_node8"><a xlink:href="../../d0/d96/classback_end_1_1_predator_prey.html#aa032c15c617e2da8e1ab1a065413fb06" target="_top" xlink:title="backEnd.PredatorPrey.make\lNextGrid">
<polygon fill="white" stroke="black" points="596.5,-0 596.5,-30 747.5,-30 747.5,-0 596.5,-0"/>
<text text-anchor="start" x="604.5" y="-18" font-family="Helvetica,sans-Serif" font-size="10.00">backEnd.PredatorPrey.make</text>
<text text-anchor="middle" x="672" y="-7" font-family="Helvetica,sans-Serif" font-size="10.00">NextGrid</text>
</a>
</g>
</g>
<!-- Node7&#45;&gt;Node8 -->
<g id="edge7" class="edge"><title>Node7&#45;&gt;Node8</title>
<path fill="none" stroke="midnightblue" d="M570.31,-15.5272C578.984,-15.4818 587.715,-15.436 596.216,-15.3915"/>
<polygon fill="midnightblue" stroke="midnightblue" points="570.153,-12.0279 560.171,-15.5803 570.189,-19.0278 570.153,-12.0279"/>
</g>
<!-- Node8&#45;&gt;Node5 -->
<g id="edge8" class="edge"><title>Node8&#45;&gt;Node5</title>
<path fill="none" stroke="midnightblue" d="M757.759,-25.763C767.478,-26.9972 777.336,-28.249 786.916,-29.4655"/>
<polygon fill="midnightblue" stroke="midnightblue" points="758.059,-22.2731 747.698,-24.4854 757.177,-29.2174 758.059,-22.2731"/>
</g>
</g>
</svg>
