<?xml version="1.0" encoding="UTF-8" standalone="no"?>
<!DOCTYPE svg PUBLIC "-//W3C//DTD SVG 1.1//EN"
 "http://www.w3.org/Graphics/SVG/1.1/DTD/svg11.dtd">
<!-- Generated by graphviz version 2.36.0 (20140111.2315)
 -->
<!-- Title: backEnd.PredatorPrey.breed Pages: 1 -->
<svg width="730pt" height="38pt"
 viewBox="0.00 0.00 730.00 38.00" xmlns="http://www.w3.org/2000/svg" xmlns:xlink="http://www.w3.org/1999/xlink">
<g id="graph0" class="graph" transform="scale(1 1) rotate(0) translate(4 34)">
<title>backEnd.PredatorPrey.breed</title>
<polygon fill="white" stroke="none" points="-4,4 -4,-34 726,-34 726,4 -4,4"/>
<!-- Node1 -->
<g id="node1" class="node"><title>Node1</title>
<polygon fill="#bfbfbf" stroke="black" points="0,-5.5 0,-24.5 152,-24.5 152,-5.5 0,-5.5"/>
<text text-anchor="middle" x="76" y="-12.5" font-family="Helvetica,sans-Serif" font-size="10.00">backEnd.PredatorPrey.breed</text>
</g>
<!-- Node2 -->
<g id="node2" class="node"><title>Node2</title>
<g id="a_node2"><a xlink:href="../../d0/d96/classback_end_1_1_predator_prey.html#acb81c56992e5c1bc58a34daa5b04e9aa" target="_top" xlink:title="backEnd.PredatorPrey.check\lBreed">
<polygon fill="white" stroke="black" points="188,-0 188,-30 340,-30 340,-0 188,-0"/>
<text text-anchor="start" x="196" y="-18" font-family="Helvetica,sans-Serif" font-size="10.00">backEnd.PredatorPrey.check</text>
<text text-anchor="middle" x="264" y="-7" font-family="Helvetica,sans-Serif" font-size="10.00">Breed</text>
</a>
</g>
</g>
<!-- Node1&#45;&gt;Node2 -->
<g id="edge1" class="edge"><title>Node1&#45;&gt;Node2</title>
<path fill="none" stroke="midnightblue" d="M162.147,-15C170.742,-15 179.426,-15 187.905,-15"/>
<polygon fill="midnightblue" stroke="midnightblue" points="162.117,-11.5001 152.117,-15 162.117,-18.5001 162.117,-11.5001"/>
</g>
<!-- Node3 -->
<g id="node3" class="node"><title>Node3</title>
<g id="a_node3"><a xlink:href="../../d0/d96/classback_end_1_1_predator_prey.html#ac9689f0a85de526bd6d2f1e23657dfe8" target="_top" xlink:title="backEnd.PredatorPrey.breed\lIfNecessary">
<polygon fill="white" stroke="black" points="376,-0 376,-30 528,-30 528,-0 376,-0"/>
<text text-anchor="start" x="384" y="-18" font-family="Helvetica,sans-Serif" font-size="10.00">backEnd.PredatorPrey.breed</text>
<text text-anchor="middle" x="452" y="-7" font-family="Helvetica,sans-Serif" font-size="10.00">IfNecessary</text>
</a>
</g>
</g>
<!-- Node2&#45;&gt;Node3 -->
<g id="edge2" class="edge"><title>Node2&#45;&gt;Node3</title>
<path fill="none" stroke="midnightblue" d="M350.147,-15C358.742,-15 367.426,-15 375.905,-15"/>
<polygon fill="midnightblue" stroke="midnightblue" points="350.117,-11.5001 340.117,-15 350.117,-18.5001 350.117,-11.5001"/>
</g>
<!-- Node4 -->
<g id="node4" class="node"><title>Node4</title>
<g id="a_node4"><a xlink:href="../../d0/d96/classback_end_1_1_predator_prey.html#acf219a8748ddb0ed02c2202a3b3d6b37" target="_top" xlink:title="backEnd.PredatorPrey.update">
<polygon fill="white" stroke="black" points="564,-5.5 564,-24.5 722,-24.5 722,-5.5 564,-5.5"/>
<text text-anchor="middle" x="643" y="-12.5" font-family="Helvetica,sans-Serif" font-size="10.00">backEnd.PredatorPrey.update</text>
</a>
</g>
</g>
<!-- Node3&#45;&gt;Node4 -->
<g id="edge3" class="edge"><title>Node3&#45;&gt;Node4</title>
<path fill="none" stroke="midnightblue" d="M538.503,-15C546.97,-15 555.535,-15 563.922,-15"/>
<polygon fill="midnightblue" stroke="midnightblue" points="538.241,-11.5001 528.241,-15 538.241,-18.5001 538.241,-11.5001"/>
</g>
</g>
</svg>
