<?xml version="1.0" encoding="UTF-8" standalone="no"?>
<!DOCTYPE svg PUBLIC "-//W3C//DTD SVG 1.1//EN"
 "http://www.w3.org/Graphics/SVG/1.1/DTD/svg11.dtd">
<!-- Generated by graphviz version 2.36.0 (20140111.2315)
 -->
<!-- Title: backEnd.PredatorPrey.breed Pages: 1 -->
<svg width="422pt" height="192pt"
 viewBox="0.00 0.00 422.00 192.00" xmlns="http://www.w3.org/2000/svg" xmlns:xlink="http://www.w3.org/1999/xlink">
<g id="graph0" class="graph" transform="scale(1 1) rotate(0) translate(4 188)">
<title>backEnd.PredatorPrey.breed</title>
<polygon fill="white" stroke="none" points="-4,4 -4,-188 418,-188 418,4 -4,4"/>
<!-- Node1 -->
<g id="node1" class="node"><title>Node1</title>
<polygon fill="#bfbfbf" stroke="black" points="0,-76.5 0,-95.5 152,-95.5 152,-76.5 0,-76.5"/>
<text text-anchor="middle" x="76" y="-83.5" font-family="Helvetica,sans-Serif" font-size="10.00">backEnd.PredatorPrey.breed</text>
</g>
<!-- Node2 -->
<g id="node2" class="node"><title>Node2</title>
<g id="a_node2"><a xlink:href="../../d0/d96/classback_end_1_1_predator_prey.html#ae8cf2fdc568d75a0ebc097c23dc7c5f2" target="_top" xlink:title="backEnd.PredatorPrey.addCell">
<polygon fill="white" stroke="black" points="188.5,-164.5 188.5,-183.5 347.5,-183.5 347.5,-164.5 188.5,-164.5"/>
<text text-anchor="middle" x="268" y="-171.5" font-family="Helvetica,sans-Serif" font-size="10.00">backEnd.PredatorPrey.addCell</text>
</a>
</g>
</g>
<!-- Node1&#45;&gt;Node2 -->
<g id="edge1" class="edge"><title>Node1&#45;&gt;Node2</title>
<path fill="none" stroke="midnightblue" d="M89.633,-95.517C109.543,-110.093 149.888,-137.941 188,-154 194.89,-156.903 202.301,-159.46 209.725,-161.69"/>
<polygon fill="midnightblue" stroke="midnightblue" points="208.875,-165.086 219.45,-164.434 210.777,-158.35 208.875,-165.086"/>
</g>
<!-- Node4 -->
<g id="node4" class="node"><title>Node4</title>
<g id="a_node4"><a xlink:href="../../d0/d96/classback_end_1_1_predator_prey.html#ac1aec1201253070e2cac1b976d6b30d3" target="_top" xlink:title="backEnd.PredatorPrey.find\lEmpties">
<polygon fill="white" stroke="black" points="197.5,-115 197.5,-145 338.5,-145 338.5,-115 197.5,-115"/>
<text text-anchor="start" x="205.5" y="-133" font-family="Helvetica,sans-Serif" font-size="10.00">backEnd.PredatorPrey.find</text>
<text text-anchor="middle" x="268" y="-122" font-family="Helvetica,sans-Serif" font-size="10.00">Empties</text>
</a>
</g>
</g>
<!-- Node1&#45;&gt;Node4 -->
<g id="edge3" class="edge"><title>Node1&#45;&gt;Node4</title>
<path fill="none" stroke="midnightblue" d="M118.227,-95.5473C139.81,-100.545 166.914,-106.822 192.055,-112.644"/>
<polygon fill="midnightblue" stroke="midnightblue" points="191.413,-116.088 201.945,-114.935 192.992,-109.269 191.413,-116.088"/>
</g>
<!-- Node5 -->
<g id="node5" class="node"><title>Node5</title>
<g id="a_node5"><a xlink:href="../../db/d5e/classback_end_1_1_patch.html#a3c6c0521d023d1883b92717afa1340f0" target="_top" xlink:title="backEnd.Patch.flag">
<polygon fill="white" stroke="black" points="214.5,-76.5 214.5,-95.5 321.5,-95.5 321.5,-76.5 214.5,-76.5"/>
<text text-anchor="middle" x="268" y="-83.5" font-family="Helvetica,sans-Serif" font-size="10.00">backEnd.Patch.flag</text>
</a>
</g>
</g>
<!-- Node1&#45;&gt;Node5 -->
<g id="edge5" class="edge"><title>Node1&#45;&gt;Node5</title>
<path fill="none" stroke="midnightblue" d="M152.093,-86C169.359,-86 187.543,-86 204.224,-86"/>
<polygon fill="midnightblue" stroke="midnightblue" points="204.394,-89.5001 214.394,-86 204.394,-82.5001 204.394,-89.5001"/>
</g>
<!-- Node6 -->
<g id="node6" class="node"><title>Node6</title>
<g id="a_node6"><a xlink:href="../../db/d5e/classback_end_1_1_patch.html#a8d97ca84fd6d69378e9fc0b96eff7cb9" target="_top" xlink:title="backEnd.Patch.getCell">
<polygon fill="white" stroke="black" points="207,-38.5 207,-57.5 329,-57.5 329,-38.5 207,-38.5"/>
<text text-anchor="middle" x="268" y="-45.5" font-family="Helvetica,sans-Serif" font-size="10.00">backEnd.Patch.getCell</text>
</a>
</g>
</g>
<!-- Node1&#45;&gt;Node6 -->
<g id="edge6" class="edge"><title>Node1&#45;&gt;Node6</title>
<path fill="none" stroke="midnightblue" d="M124.945,-76.411C150.582,-71.2835 182.336,-64.9328 209.316,-59.5368"/>
<polygon fill="midnightblue" stroke="midnightblue" points="210.28,-62.9133 219.4,-57.5201 208.908,-56.0493 210.28,-62.9133"/>
</g>
<!-- Node7 -->
<g id="node7" class="node"><title>Node7</title>
<g id="a_node7"><a xlink:href="../../d0/d08/classback_end_1_1_cell.html#a780d63fdf3ec4f64bd01f9c1c01f54e9" target="_top" xlink:title="backEnd.Cell.getState">
<polygon fill="white" stroke="black" points="207,-0.5 207,-19.5 329,-19.5 329,-0.5 207,-0.5"/>
<text text-anchor="middle" x="268" y="-7.5" font-family="Helvetica,sans-Serif" font-size="10.00">backEnd.Cell.getState</text>
</a>
</g>
</g>
<!-- Node1&#45;&gt;Node7 -->
<g id="edge7" class="edge"><title>Node1&#45;&gt;Node7</title>
<path fill="none" stroke="midnightblue" d="M92.6302,-76.4517C113.637,-63.9797 152.456,-42.1849 188,-29 194.82,-26.4703 202.097,-24.1889 209.371,-22.1583"/>
<polygon fill="midnightblue" stroke="midnightblue" points="210.473,-25.4872 219.245,-19.5451 208.682,-18.7202 210.473,-25.4872"/>
</g>
<!-- Node3 -->
<g id="node3" class="node"><title>Node3</title>
<g id="a_node3"><a xlink:href="../../d5/de7/jquery_8js.html#a2335e57f79b6acfb6de59c235dc8a83e" target="_top" xlink:title="p">
<polygon fill="white" stroke="black" points="384.5,-142.5 384.5,-161.5 413.5,-161.5 413.5,-142.5 384.5,-142.5"/>
<text text-anchor="middle" x="399" y="-149.5" font-family="Helvetica,sans-Serif" font-size="10.00">p</text>
</a>
</g>
</g>
<!-- Node2&#45;&gt;Node3 -->
<g id="edge2" class="edge"><title>Node2&#45;&gt;Node3</title>
<path fill="none" stroke="midnightblue" d="M324.831,-164.478C342.132,-161.528 360.281,-158.433 374.175,-156.063"/>
<polygon fill="midnightblue" stroke="midnightblue" points="375.039,-159.466 384.308,-154.335 373.862,-152.566 375.039,-159.466"/>
</g>
<!-- Node4&#45;&gt;Node3 -->
<g id="edge4" class="edge"><title>Node4&#45;&gt;Node3</title>
<path fill="none" stroke="midnightblue" d="M338.786,-141.901C351.516,-144.072 363.97,-146.196 374.145,-147.932"/>
<polygon fill="midnightblue" stroke="midnightblue" points="373.752,-151.415 384.199,-149.646 374.929,-144.515 373.752,-151.415"/>
</g>
</g>
</svg>
