<?xml version="1.0" encoding="UTF-8" standalone="no"?>
<!DOCTYPE svg PUBLIC "-//W3C//DTD SVG 1.1//EN"
 "http://www.w3.org/Graphics/SVG/1.1/DTD/svg11.dtd">
<!-- Generated by graphviz version 2.36.0 (20140111.2315)
 -->
<!-- Title: backEnd.PredatorPrey.breedIfNecessary Pages: 1 -->
<svg width="838pt" height="223pt"
 viewBox="0.00 0.00 838.00 223.00" xmlns="http://www.w3.org/2000/svg" xmlns:xlink="http://www.w3.org/1999/xlink">
<g id="graph0" class="graph" transform="scale(1 1) rotate(0) translate(4 219)">
<title>backEnd.PredatorPrey.breedIfNecessary</title>
<polygon fill="white" stroke="none" points="-4,4 -4,-219 834,-219 834,4 -4,4"/>
<!-- Node1 -->
<g id="node1" class="node"><title>Node1</title>
<polygon fill="#bfbfbf" stroke="black" points="0,-71 0,-101 152,-101 152,-71 0,-71"/>
<text text-anchor="start" x="8" y="-89" font-family="Helvetica,sans-Serif" font-size="10.00">backEnd.PredatorPrey.breed</text>
<text text-anchor="middle" x="76" y="-78" font-family="Helvetica,sans-Serif" font-size="10.00">IfNecessary</text>
</g>
<!-- Node2 -->
<g id="node2" class="node"><title>Node2</title>
<g id="a_node2"><a xlink:href="../../d0/d96/classback_end_1_1_predator_prey.html#acb81c56992e5c1bc58a34daa5b04e9aa" target="_top" xlink:title="backEnd.PredatorPrey.check\lBreed">
<polygon fill="white" stroke="black" points="194,-109 194,-139 346,-139 346,-109 194,-109"/>
<text text-anchor="start" x="202" y="-127" font-family="Helvetica,sans-Serif" font-size="10.00">backEnd.PredatorPrey.check</text>
<text text-anchor="middle" x="270" y="-116" font-family="Helvetica,sans-Serif" font-size="10.00">Breed</text>
</a>
</g>
</g>
<!-- Node1&#45;&gt;Node2 -->
<g id="edge1" class="edge"><title>Node1&#45;&gt;Node2</title>
<path fill="none" stroke="midnightblue" d="M152.057,-100.855C162.498,-102.922 173.287,-105.057 183.896,-107.156"/>
<polygon fill="midnightblue" stroke="midnightblue" points="183.506,-110.647 193.995,-109.155 184.865,-103.78 183.506,-110.647"/>
</g>
<!-- Node11 -->
<g id="node11" class="node"><title>Node11</title>
<g id="a_node11"><a xlink:href="../../d1/dfc/classback_end_1_1_rule_set.html#ac09e709af5a347c28f6cafb0aa4f0d34" target="_top" xlink:title="backEnd.RuleSet.getNeighbors">
<polygon fill="white" stroke="black" points="188,-38.5 188,-57.5 352,-57.5 352,-38.5 188,-38.5"/>
<text text-anchor="middle" x="270" y="-45.5" font-family="Helvetica,sans-Serif" font-size="10.00">backEnd.RuleSet.getNeighbors</text>
</a>
</g>
</g>
<!-- Node1&#45;&gt;Node11 -->
<g id="edge14" class="edge"><title>Node1&#45;&gt;Node11</title>
<path fill="none" stroke="midnightblue" d="M152.057,-71.1449C171.581,-67.2809 192.319,-63.1765 210.825,-59.5139"/>
<polygon fill="midnightblue" stroke="midnightblue" points="211.724,-62.9038 220.854,-57.5289 210.365,-56.037 211.724,-62.9038"/>
</g>
<!-- Node3 -->
<g id="node3" class="node"><title>Node3</title>
<g id="a_node3"><a xlink:href="../../db/d5e/classback_end_1_1_patch.html#a3ff9ee1d7f36a53d2fb9011411fa58c5" target="_top" xlink:title="backEnd.Patch.getMyCellState">
<polygon fill="white" stroke="black" points="397,-194.5 397,-213.5 559,-213.5 559,-194.5 397,-194.5"/>
<text text-anchor="middle" x="478" y="-201.5" font-family="Helvetica,sans-Serif" font-size="10.00">backEnd.Patch.getMyCellState</text>
</a>
</g>
</g>
<!-- Node2&#45;&gt;Node3 -->
<g id="edge2" class="edge"><title>Node2&#45;&gt;Node3</title>
<path fill="none" stroke="midnightblue" d="M299.755,-139.157C323.093,-151.056 357.082,-167.481 388,-179 400.704,-183.733 414.714,-188.064 427.785,-191.744"/>
<polygon fill="midnightblue" stroke="midnightblue" points="426.99,-195.155 437.56,-194.427 428.843,-188.405 426.99,-195.155"/>
</g>
<!-- Node4 -->
<g id="node4" class="node"><title>Node4</title>
<g id="a_node4"><a xlink:href="../../d0/d08/classback_end_1_1_cell.html#a780d63fdf3ec4f64bd01f9c1c01f54e9" target="_top" xlink:title="backEnd.Cell.getState">
<polygon fill="white" stroke="black" points="623,-195.5 623,-214.5 745,-214.5 745,-195.5 623,-195.5"/>
<text text-anchor="middle" x="684" y="-202.5" font-family="Helvetica,sans-Serif" font-size="10.00">backEnd.Cell.getState</text>
</a>
</g>
</g>
<!-- Node2&#45;&gt;Node4 -->
<g id="edge13" class="edge"><title>Node2&#45;&gt;Node4</title>
<path fill="none" stroke="midnightblue" d="M346.088,-138.762C426.223,-154.517 551.486,-179.144 624.575,-193.513"/>
<polygon fill="midnightblue" stroke="midnightblue" points="624.044,-196.976 634.531,-195.471 625.394,-190.108 624.044,-196.976"/>
</g>
<!-- Node5 -->
<g id="node5" class="node"><title>Node5</title>
<g id="a_node5"><a xlink:href="../../d0/d96/classback_end_1_1_predator_prey.html#a5a08efbe832d34c3c5f9bd15cf376f73" target="_top" xlink:title="backEnd.PredatorPrey.breed">
<polygon fill="white" stroke="black" points="402,-114.5 402,-133.5 554,-133.5 554,-114.5 402,-114.5"/>
<text text-anchor="middle" x="478" y="-121.5" font-family="Helvetica,sans-Serif" font-size="10.00">backEnd.PredatorPrey.breed</text>
</a>
</g>
</g>
<!-- Node2&#45;&gt;Node5 -->
<g id="edge4" class="edge"><title>Node2&#45;&gt;Node5</title>
<path fill="none" stroke="midnightblue" d="M346.245,-124C361,-124 376.576,-124 391.634,-124"/>
<polygon fill="midnightblue" stroke="midnightblue" points="391.959,-127.5 401.959,-124 391.959,-120.5 391.959,-127.5"/>
</g>
<!-- Node10 -->
<g id="node10" class="node"><title>Node10</title>
<g id="a_node10"><a xlink:href="../../db/d5e/classback_end_1_1_patch.html#a8d97ca84fd6d69378e9fc0b96eff7cb9" target="_top" xlink:title="backEnd.Patch.getCell">
<polygon fill="white" stroke="black" points="623,-31.5 623,-50.5 745,-50.5 745,-31.5 623,-31.5"/>
<text text-anchor="middle" x="684" y="-38.5" font-family="Helvetica,sans-Serif" font-size="10.00">backEnd.Patch.getCell</text>
</a>
</g>
</g>
<!-- Node2&#45;&gt;Node10 -->
<g id="edge12" class="edge"><title>Node2&#45;&gt;Node10</title>
<path fill="none" stroke="midnightblue" d="M346.204,-110.27C406.326,-99.1249 492.708,-82.7318 568,-67 589.169,-62.5769 612.451,-57.3763 632.498,-52.7933"/>
<polygon fill="midnightblue" stroke="midnightblue" points="633.392,-56.1791 642.356,-50.5301 631.826,-49.3566 633.392,-56.1791"/>
</g>
<!-- Node3&#45;&gt;Node4 -->
<g id="edge3" class="edge"><title>Node3&#45;&gt;Node4</title>
<path fill="none" stroke="midnightblue" d="M559.041,-204.392C576.77,-204.479 595.428,-204.571 612.733,-204.656"/>
<polygon fill="midnightblue" stroke="midnightblue" points="612.731,-208.155 622.748,-204.705 612.766,-201.156 612.731,-208.155"/>
</g>
<!-- Node5&#45;&gt;Node4 -->
<g id="edge11" class="edge"><title>Node5&#45;&gt;Node4</title>
<path fill="none" stroke="midnightblue" d="M525.566,-133.62C539.784,-137.721 555.066,-143.371 568,-151 587.221,-162.338 584.456,-175.23 604,-186 608.181,-188.304 612.638,-190.331 617.223,-192.114"/>
<polygon fill="midnightblue" stroke="midnightblue" points="616.176,-195.456 626.771,-195.441 618.48,-188.845 616.176,-195.456"/>
</g>
<!-- Node6 -->
<g id="node6" class="node"><title>Node6</title>
<g id="a_node6"><a xlink:href="../../d0/d96/classback_end_1_1_predator_prey.html#ae8cf2fdc568d75a0ebc097c23dc7c5f2" target="_top" xlink:title="backEnd.PredatorPrey.addCell">
<polygon fill="white" stroke="black" points="604.5,-157.5 604.5,-176.5 763.5,-176.5 763.5,-157.5 604.5,-157.5"/>
<text text-anchor="middle" x="684" y="-164.5" font-family="Helvetica,sans-Serif" font-size="10.00">backEnd.PredatorPrey.addCell</text>
</a>
</g>
</g>
<!-- Node5&#45;&gt;Node6 -->
<g id="edge5" class="edge"><title>Node5&#45;&gt;Node6</title>
<path fill="none" stroke="midnightblue" d="M524.274,-133.543C554.911,-140.001 595.559,-148.569 628.051,-155.418"/>
<polygon fill="midnightblue" stroke="midnightblue" points="627.345,-158.846 637.852,-157.484 628.789,-151.996 627.345,-158.846"/>
</g>
<!-- Node8 -->
<g id="node8" class="node"><title>Node8</title>
<g id="a_node8"><a xlink:href="../../d0/d96/classback_end_1_1_predator_prey.html#ac1aec1201253070e2cac1b976d6b30d3" target="_top" xlink:title="backEnd.PredatorPrey.find\lEmpties">
<polygon fill="white" stroke="black" points="613.5,-108 613.5,-138 754.5,-138 754.5,-108 613.5,-108"/>
<text text-anchor="start" x="621.5" y="-126" font-family="Helvetica,sans-Serif" font-size="10.00">backEnd.PredatorPrey.find</text>
<text text-anchor="middle" x="684" y="-115" font-family="Helvetica,sans-Serif" font-size="10.00">Empties</text>
</a>
</g>
</g>
<!-- Node5&#45;&gt;Node8 -->
<g id="edge7" class="edge"><title>Node5&#45;&gt;Node8</title>
<path fill="none" stroke="midnightblue" d="M554.093,-123.632C570.029,-123.554 586.909,-123.471 603.019,-123.392"/>
<polygon fill="midnightblue" stroke="midnightblue" points="603.495,-126.89 613.477,-123.341 603.46,-119.89 603.495,-126.89"/>
</g>
<!-- Node9 -->
<g id="node9" class="node"><title>Node9</title>
<g id="a_node9"><a xlink:href="../../db/d5e/classback_end_1_1_patch.html#a3c6c0521d023d1883b92717afa1340f0" target="_top" xlink:title="backEnd.Patch.flag">
<polygon fill="white" stroke="black" points="630.5,-69.5 630.5,-88.5 737.5,-88.5 737.5,-69.5 630.5,-69.5"/>
<text text-anchor="middle" x="684" y="-76.5" font-family="Helvetica,sans-Serif" font-size="10.00">backEnd.Patch.flag</text>
</a>
</g>
</g>
<!-- Node5&#45;&gt;Node9 -->
<g id="edge9" class="edge"><title>Node5&#45;&gt;Node9</title>
<path fill="none" stroke="midnightblue" d="M522.263,-114.457C553.637,-107.536 596.258,-98.1343 629.728,-90.7511"/>
<polygon fill="midnightblue" stroke="midnightblue" points="630.788,-94.1016 639.799,-88.5296 629.28,-87.2659 630.788,-94.1016"/>
</g>
<!-- Node5&#45;&gt;Node10 -->
<g id="edge10" class="edge"><title>Node5&#45;&gt;Node10</title>
<path fill="none" stroke="midnightblue" d="M534.22,-114.392C545.898,-110.941 557.772,-106.281 568,-100 588.382,-87.4845 583.449,-72.2353 604,-60 607.682,-57.8081 611.602,-55.8688 615.652,-54.1531"/>
<polygon fill="midnightblue" stroke="midnightblue" points="617.152,-57.3287 625.288,-50.5418 614.696,-50.7739 617.152,-57.3287"/>
</g>
<!-- Node7 -->
<g id="node7" class="node"><title>Node7</title>
<g id="a_node7"><a xlink:href="../../d5/de7/jquery_8js.html#a2335e57f79b6acfb6de59c235dc8a83e" target="_top" xlink:title="p">
<polygon fill="white" stroke="black" points="800.5,-135.5 800.5,-154.5 829.5,-154.5 829.5,-135.5 800.5,-135.5"/>
<text text-anchor="middle" x="815" y="-142.5" font-family="Helvetica,sans-Serif" font-size="10.00">p</text>
</a>
</g>
</g>
<!-- Node6&#45;&gt;Node7 -->
<g id="edge6" class="edge"><title>Node6&#45;&gt;Node7</title>
<path fill="none" stroke="midnightblue" d="M740.831,-157.478C758.132,-154.528 776.281,-151.433 790.175,-149.063"/>
<polygon fill="midnightblue" stroke="midnightblue" points="791.039,-152.466 800.308,-147.335 789.862,-145.566 791.039,-152.466"/>
</g>
<!-- Node8&#45;&gt;Node7 -->
<g id="edge8" class="edge"><title>Node8&#45;&gt;Node7</title>
<path fill="none" stroke="midnightblue" d="M754.786,-134.901C767.516,-137.072 779.97,-139.196 790.145,-140.932"/>
<polygon fill="midnightblue" stroke="midnightblue" points="789.752,-144.415 800.199,-142.646 790.929,-137.515 789.752,-144.415"/>
</g>
<!-- Node12 -->
<g id="node12" class="node"><title>Node12</title>
<g id="a_node12"><a xlink:href="../../d1/dfc/classback_end_1_1_rule_set.html#ace087d13be0cf3e1f723a663d0e06d8b" target="_top" xlink:title="backEnd.RuleSet.isOutside">
<polygon fill="white" stroke="black" points="406.5,-38.5 406.5,-57.5 549.5,-57.5 549.5,-38.5 406.5,-38.5"/>
<text text-anchor="middle" x="478" y="-45.5" font-family="Helvetica,sans-Serif" font-size="10.00">backEnd.RuleSet.isOutside</text>
</a>
</g>
</g>
<!-- Node11&#45;&gt;Node12 -->
<g id="edge15" class="edge"><title>Node11&#45;&gt;Node12</title>
<path fill="none" stroke="midnightblue" d="M352.121,-48C366.526,-48 381.531,-48 395.934,-48"/>
<polygon fill="midnightblue" stroke="midnightblue" points="396.3,-51.5001 406.3,-48 396.3,-44.5001 396.3,-51.5001"/>
</g>
<!-- Node13 -->
<g id="node13" class="node"><title>Node13</title>
<g id="a_node13"><a xlink:href="../../d1/dfc/classback_end_1_1_rule_set.html#a625f1cd5d7e0e5d6acf7d47e28beb41e" target="_top" xlink:title="backEnd.RuleSet.addWrapArounds">
<polygon fill="white" stroke="black" points="388,-0.5 388,-19.5 568,-19.5 568,-0.5 388,-0.5"/>
<text text-anchor="middle" x="478" y="-7.5" font-family="Helvetica,sans-Serif" font-size="10.00">backEnd.RuleSet.addWrapArounds</text>
</a>
</g>
</g>
<!-- Node11&#45;&gt;Node13 -->
<g id="edge16" class="edge"><title>Node11&#45;&gt;Node13</title>
<path fill="none" stroke="midnightblue" d="M322.717,-38.46C350.756,-33.2878 385.602,-26.8599 415.079,-21.4222"/>
<polygon fill="midnightblue" stroke="midnightblue" points="416.063,-24.7999 425.262,-19.5439 414.793,-17.9161 416.063,-24.7999"/>
</g>
</g>
</svg>
