<?xml version="1.0" encoding="UTF-8" standalone="no"?>
<!DOCTYPE svg PUBLIC "-//W3C//DTD SVG 1.1//EN"
 "http://www.w3.org/Graphics/SVG/1.1/DTD/svg11.dtd">
<!-- Generated by graphviz version 2.36.0 (20140111.2315)
 -->
<!-- Title: backEnd.PredatorPrey.addCell Pages: 1 -->
<!--zoomable 87 -->
<svg id="main" version="1.1" xmlns="http://www.w3.org/2000/svg" xmlns:xlink="http://www.w3.org/1999/xlink" xml:space="preserve" onload="init(evt)">
<style type="text/css"><![CDATA[
.edge:hover path { stroke: red; }
.edge:hover polygon { stroke: red; fill: red; }
]]></style>
<script type="text/javascript"><![CDATA[
var edges = document.getElementsByTagName('g');
if (edges && edges.length) {
  for (var i=0;i<edges.length;i++) {
    if (edges[i].id.substr(0,4)=='edge') {
      edges[i].setAttribute('class','edge');
    }
  }
}
]]></script>
        <defs>
                <circle id="rim" cx="0" cy="0" r="7"/>
                <circle id="rim2" cx="0" cy="0" r="3.5"/>
                <g id="zoomPlus">
                        <use xlink:href="#rim" fill="#404040">
                                <set attributeName="fill" to="#808080" begin="zoomplus.mouseover" end="zoomplus.mouseout"/>
                        </use>
                        <path d="M-4,0h8M0,-4v8" fill="none" stroke="white" stroke-width="1.5" pointer-events="none"/>
                </g>
                <g id="zoomMin">
                        <use xlink:href="#rim" fill="#404040">
                                <set attributeName="fill" to="#808080" begin="zoomminus.mouseover" end="zoomminus.mouseout"/>
                        </use>
                        <path d="M-4,0h8" fill="none" stroke="white" stroke-width="1.5" pointer-events="none"/>
                </g>
                <g id="dirArrow">
                        <path fill="none" stroke="white" stroke-width="1.5" d="M0,-3.0v7 M-2.5,-0.5L0,-3.0L2.5,-0.5"/>
                </g>
               <g id="resetDef">
                       <use xlink:href="#rim2" fill="#404040">
                               <set attributeName="fill" to="#808080" begin="reset.mouseover" end="reset.mouseout"/>
                       </use>
               </g>
        </defs>

<script type="text/javascript">
var viewWidth = 950;
var viewHeight = 87;
var sectionId = 'dynsection-2';
</script>
<script xlink:href="../../svgpan.js"/>
<svg id="graph" class="graph">
<g id="viewport">
<title>backEnd.PredatorPrey.addCell</title>
<polygon fill="white" stroke="none" points="-4,4 -4,-83 946,-83 946,4 -4,4"/>
<!-- Node1 -->
<g id="node1" class="node"><title>Node1</title>
<polygon fill="#bfbfbf" stroke="black" points="0.5,-28.5 0.5,-47.5 159.5,-47.5 159.5,-28.5 0.5,-28.5"/>
<text text-anchor="middle" x="80" y="-35.5" font-family="Helvetica,sans-Serif" font-size="10.00">backEnd.PredatorPrey.addCell</text>
</g>
<!-- Node2 -->
<g id="node2" class="node"><title>Node2</title>
<g id="a_node2"><a xlink:href="../../d0/d96/classback_end_1_1_predator_prey.html#a5a08efbe832d34c3c5f9bd15cf376f73" target="_top" xlink:title="backEnd.PredatorPrey.breed">
<polygon fill="white" stroke="black" points="203,-48.5 203,-67.5 355,-67.5 355,-48.5 203,-48.5"/>
<text text-anchor="middle" x="279" y="-55.5" font-family="Helvetica,sans-Serif" font-size="10.00">backEnd.PredatorPrey.breed</text>
</a>
</g>
</g>
<!-- Node1&#45;&gt;Node2 -->
<g id="edge1" class="edge"><title>Node1&#45;&gt;Node2</title>
<path fill="none" stroke="midnightblue" d="M169.81,-47.0162C180.877,-48.1398 192.109,-49.2801 202.939,-50.3796"/>
<polygon fill="midnightblue" stroke="midnightblue" points="170.011,-43.5188 159.709,-45.9908 169.304,-50.483 170.011,-43.5188"/>
</g>
<!-- Node6 -->
<g id="node6" class="node"><title>Node6</title>
<g id="a_node6"><a xlink:href="../../d0/d96/classback_end_1_1_predator_prey.html#ae501b5b3266e13be211c77d6817045e7" target="_top" xlink:title="backEnd.PredatorPrey.moveAdj">
<polygon fill="white" stroke="black" points="196,-9.5 196,-28.5 362,-28.5 362,-9.5 196,-9.5"/>
<text text-anchor="middle" x="279" y="-16.5" font-family="Helvetica,sans-Serif" font-size="10.00">backEnd.PredatorPrey.moveAdj</text>
</a>
</g>
</g>
<!-- Node1&#45;&gt;Node6 -->
<g id="edge5" class="edge"><title>Node1&#45;&gt;Node6</title>
<path fill="none" stroke="midnightblue" d="M169.825,-29.4331C178.496,-28.5968 187.268,-27.7508 195.869,-26.9213"/>
<polygon fill="midnightblue" stroke="midnightblue" points="169.327,-25.9648 159.709,-30.4088 169.999,-32.9325 169.327,-25.9648"/>
</g>
<!-- Node3 -->
<g id="node3" class="node"><title>Node3</title>
<g id="a_node3"><a xlink:href="../../d0/d96/classback_end_1_1_predator_prey.html#acb81c56992e5c1bc58a34daa5b04e9aa" target="_top" xlink:title="backEnd.PredatorPrey.check\lBreed">
<polygon fill="white" stroke="black" points="403,-47 403,-77 555,-77 555,-47 403,-47"/>
<text text-anchor="start" x="411" y="-65" font-family="Helvetica,sans-Serif" font-size="10.00">backEnd.PredatorPrey.check</text>
<text text-anchor="middle" x="479" y="-54" font-family="Helvetica,sans-Serif" font-size="10.00">Breed</text>
</a>
</g>
</g>
<!-- Node2&#45;&gt;Node3 -->
<g id="edge2" class="edge"><title>Node2&#45;&gt;Node3</title>
<path fill="none" stroke="midnightblue" d="M365.508,-59.7274C377.955,-59.9789 390.693,-60.2362 402.914,-60.4831"/>
<polygon fill="midnightblue" stroke="midnightblue" points="365.206,-56.2207 355.138,-59.5179 365.065,-63.2193 365.206,-56.2207"/>
</g>
<!-- Node4 -->
<g id="node4" class="node"><title>Node4</title>
<g id="a_node4"><a xlink:href="../../d0/d96/classback_end_1_1_predator_prey.html#ac9689f0a85de526bd6d2f1e23657dfe8" target="_top" xlink:title="backEnd.PredatorPrey.breed\lIfNecessary">
<polygon fill="white" stroke="black" points="596,-49 596,-79 748,-79 748,-49 596,-49"/>
<text text-anchor="start" x="604" y="-67" font-family="Helvetica,sans-Serif" font-size="10.00">backEnd.PredatorPrey.breed</text>
<text text-anchor="middle" x="672" y="-56" font-family="Helvetica,sans-Serif" font-size="10.00">IfNecessary</text>
</a>
</g>
</g>
<!-- Node3&#45;&gt;Node4 -->
<g id="edge3" class="edge"><title>Node3&#45;&gt;Node4</title>
<path fill="none" stroke="midnightblue" d="M565.323,-62.8934C575.5,-63 585.834,-63.1082 595.854,-63.2131"/>
<polygon fill="midnightblue" stroke="midnightblue" points="565.25,-59.3926 555.214,-62.7876 565.177,-66.3922 565.25,-59.3926"/>
</g>
<!-- Node5 -->
<g id="node5" class="node"><title>Node5</title>
<g id="a_node5"><a xlink:href="../../d0/d96/classback_end_1_1_predator_prey.html#acf219a8748ddb0ed02c2202a3b3d6b37" target="_top" xlink:title="backEnd.PredatorPrey.update">
<polygon fill="white" stroke="black" points="784,-29.5 784,-48.5 942,-48.5 942,-29.5 784,-29.5"/>
<text text-anchor="middle" x="863" y="-36.5" font-family="Helvetica,sans-Serif" font-size="10.00">backEnd.PredatorPrey.update</text>
</a>
</g>
</g>
<!-- Node4&#45;&gt;Node5 -->
<g id="edge4" class="edge"><title>Node4&#45;&gt;Node5</title>
<path fill="none" stroke="midnightblue" d="M758.346,-52.7108C768.954,-51.3077 779.717,-49.884 790.094,-48.5113"/>
<polygon fill="midnightblue" stroke="midnightblue" points="757.696,-49.2663 748.241,-54.0475 758.614,-56.2059 757.696,-49.2663"/>
</g>
<!-- Node7 -->
<g id="node7" class="node"><title>Node7</title>
<g id="a_node7"><a xlink:href="../../d0/d96/classback_end_1_1_predator_prey.html#aecfa40f92acce8997492d12cefd08b48" target="_top" xlink:title="backEnd.PredatorPrey.getNext">
<polygon fill="white" stroke="black" points="398,-6.5 398,-25.5 560,-25.5 560,-6.5 398,-6.5"/>
<text text-anchor="middle" x="479" y="-13.5" font-family="Helvetica,sans-Serif" font-size="10.00">backEnd.PredatorPrey.getNext</text>
</a>
</g>
</g>
<!-- Node6&#45;&gt;Node7 -->
<g id="edge6" class="edge"><title>Node6&#45;&gt;Node7</title>
<path fill="none" stroke="midnightblue" d="M372.263,-17.6021C380.832,-17.4722 389.469,-17.3414 397.915,-17.2134"/>
<polygon fill="midnightblue" stroke="midnightblue" points="372.195,-14.1026 362.25,-17.7538 372.302,-21.1018 372.195,-14.1026"/>
</g>
<!-- Node8 -->
<g id="node8" class="node"><title>Node8</title>
<g id="a_node8"><a xlink:href="../../d0/d96/classback_end_1_1_predator_prey.html#aa032c15c617e2da8e1ab1a065413fb06" target="_top" xlink:title="backEnd.PredatorPrey.make\lNextGrid">
<polygon fill="white" stroke="black" points="596.5,-0 596.5,-30 747.5,-30 747.5,-0 596.5,-0"/>
<text text-anchor="start" x="604.5" y="-18" font-family="Helvetica,sans-Serif" font-size="10.00">backEnd.PredatorPrey.make</text>
<text text-anchor="middle" x="672" y="-7" font-family="Helvetica,sans-Serif" font-size="10.00">NextGrid</text>
</a>
</g>
</g>
<!-- Node7&#45;&gt;Node8 -->
<g id="edge7" class="edge"><title>Node7&#45;&gt;Node8</title>
<path fill="none" stroke="midnightblue" d="M570.31,-15.5272C578.984,-15.4818 587.715,-15.436 596.216,-15.3915"/>
<polygon fill="midnightblue" stroke="midnightblue" points="570.153,-12.0279 560.171,-15.5803 570.189,-19.0278 570.153,-12.0279"/>
</g>
<!-- Node8&#45;&gt;Node5 -->
<g id="edge8" class="edge"><title>Node8&#45;&gt;Node5</title>
<path fill="none" stroke="midnightblue" d="M757.759,-25.763C767.478,-26.9972 777.336,-28.249 786.916,-29.4655"/>
<polygon fill="midnightblue" stroke="midnightblue" points="758.059,-22.2731 747.698,-24.4854 757.177,-29.2174 758.059,-22.2731"/>
</g>
</g>
</svg>
        <g id="navigator" transform="translate(0 0)" fill="#404254">
                <rect fill="#f2f5e9" fill-opacity="0.5" stroke="#606060" stroke-width=".5" x="0" y="0" width="60" height="60"/>
                <use id="zoomplus" xlink:href="#zoomPlus" x="17" y="9" onmousedown="handleZoom(evt,'in')"/>
                <use id="zoomminus" xlink:href="#zoomMin" x="42" y="9" onmousedown="handleZoom(evt,'out')"/>
                <use id="reset" xlink:href="#resetDef" x="30" y="36" onmousedown="handleReset()"/>
                <g id="arrowUp" xlink:href="#dirArrow" transform="translate(30 24)" onmousedown="handlePan(0,-1)">
                  <use xlink:href="#rim" fill="#404040">
                        <set attributeName="fill" to="#808080" begin="arrowUp.mouseover" end="arrowUp.mouseout"/>
                  </use>
                  <path fill="none" stroke="white" stroke-width="1.5" d="M0,-3.0v7 M-2.5,-0.5L0,-3.0L2.5,-0.5"/>
                </g>
                <g id="arrowRight" xlink:href="#dirArrow" transform="rotate(90) translate(36 -43)" onmousedown="handlePan(1,0)">
                  <use xlink:href="#rim" fill="#404040">
                        <set attributeName="fill" to="#808080" begin="arrowRight.mouseover" end="arrowRight.mouseout"/>
                  </use>
                  <path fill="none" stroke="white" stroke-width="1.5" d="M0,-3.0v7 M-2.5,-0.5L0,-3.0L2.5,-0.5"/>
                </g>
                <g id="arrowDown" xlink:href="#dirArrow" transform="rotate(180) translate(-30 -48)" onmousedown="handlePan(0,1)">
                  <use xlink:href="#rim" fill="#404040">
                        <set attributeName="fill" to="#808080" begin="arrowDown.mouseover" end="arrowDown.mouseout"/>
                  </use>
                  <path fill="none" stroke="white" stroke-width="1.5" d="M0,-3.0v7 M-2.5,-0.5L0,-3.0L2.5,-0.5"/>
                </g>
                <g id="arrowLeft" xlink:href="#dirArrow" transform="rotate(270) translate(-36 17)" onmousedown="handlePan(-1,0)">
                  <use xlink:href="#rim" fill="#404040">
                        <set attributeName="fill" to="#808080" begin="arrowLeft.mouseover" end="arrowLeft.mouseout"/>
                  </use>
                  <path fill="none" stroke="white" stroke-width="1.5" d="M0,-3.0v7 M-2.5,-0.5L0,-3.0L2.5,-0.5"/>
                </g>
        </g>
        <svg viewBox="0 0 15 15" width="100%" height="30px" preserveAspectRatio="xMaxYMin meet">
         <g id="arrow_out" transform="scale(0.3 0.3)">
          <a xlink:href="classback_end_1_1_predator_prey_ae8cf2fdc568d75a0ebc097c23dc7c5f2_icgraph_org.svg" target="_base">
           <rect id="button" ry="5" rx="5" y="6" x="6" height="38" width="38"
                fill="#f2f5e9" fill-opacity="0.5" stroke="#606060" stroke-width="1.0"/>
           <path id="arrow"
             d="M 11.500037,31.436501 C 11.940474,20.09759 22.043105,11.32322 32.158766,21.979434 L 37.068811,17.246167 C 37.068811,17.246167 37.088388,32 37.088388,32 L 22.160133,31.978069 C 22.160133,31.978069 26.997745,27.140456 26.997745,27.140456 C 18.528582,18.264221 13.291696,25.230495 11.500037,31.436501 z"
             style="fill:#404040;"/>
          </a>
         </g>
        </svg>
</svg>
