<?xml version="1.0" encoding="UTF-8" standalone="no"?>
<!DOCTYPE svg PUBLIC "-//W3C//DTD SVG 1.1//EN"
 "http://www.w3.org/Graphics/SVG/1.1/DTD/svg11.dtd">
<!-- Generated by graphviz version 2.36.0 (20140111.2315)
 -->
<!-- Title: backEnd.Patch.fill Pages: 1 -->
<svg width="1418pt" height="290pt"
 viewBox="0.00 0.00 1418.00 290.00" xmlns="http://www.w3.org/2000/svg" xmlns:xlink="http://www.w3.org/1999/xlink">
<g id="graph0" class="graph" transform="scale(1 1) rotate(0) translate(4 286)">
<title>backEnd.Patch.fill</title>
<polygon fill="white" stroke="none" points="-4,4 -4,-286 1414,-286 1414,4 -4,4"/>
<!-- Node1 -->
<g id="node1" class="node"><title>Node1</title>
<polygon fill="#bfbfbf" stroke="black" points="0.5,-142.5 0.5,-161.5 99.5,-161.5 99.5,-142.5 0.5,-142.5"/>
<text text-anchor="middle" x="50" y="-149.5" font-family="Helvetica,sans-Serif" font-size="10.00">backEnd.Patch.fill</text>
</g>
<!-- Node2 -->
<g id="node2" class="node"><title>Node2</title>
<g id="a_node2"><a xlink:href="../../de/d49/classback_end_1_1_sugar_scape.html#a4b3bd085af29e9071f8b19c9a271fa23" target="_top" xlink:title="backEnd.SugarScape.clear\lPatch">
<polygon fill="white" stroke="black" points="152.5,-137 152.5,-167 297.5,-167 297.5,-137 152.5,-137"/>
<text text-anchor="start" x="160.5" y="-155" font-family="Helvetica,sans-Serif" font-size="10.00">backEnd.SugarScape.clear</text>
<text text-anchor="middle" x="225" y="-144" font-family="Helvetica,sans-Serif" font-size="10.00">Patch</text>
</a>
</g>
</g>
<!-- Node1&#45;&gt;Node2 -->
<g id="edge1" class="edge"><title>Node1&#45;&gt;Node2</title>
<path fill="none" stroke="midnightblue" d="M109.892,-152C123.581,-152 138.3,-152 152.468,-152"/>
<polygon fill="midnightblue" stroke="midnightblue" points="109.651,-148.5 99.6505,-152 109.65,-155.5 109.651,-148.5"/>
</g>
<!-- Node5 -->
<g id="node5" class="node"><title>Node5</title>
<g id="a_node5"><a xlink:href="../../d5/dcb/classback_end_1_1_game_of_life.html#af98fae7f8d156a65231b2d63bf5e27fb" target="_top" xlink:title="backEnd.GameOfLife.getNext">
<polygon fill="white" stroke="black" points="146,-224.5 146,-243.5 304,-243.5 304,-224.5 146,-224.5"/>
<text text-anchor="middle" x="225" y="-231.5" font-family="Helvetica,sans-Serif" font-size="10.00">backEnd.GameOfLife.getNext</text>
</a>
</g>
</g>
<!-- Node1&#45;&gt;Node5 -->
<g id="edge4" class="edge"><title>Node1&#45;&gt;Node5</title>
<path fill="none" stroke="midnightblue" d="M68.6848,-168.679C84.9448,-183.093 110.352,-203.385 136,-215 144.543,-218.869 153.915,-221.968 163.259,-224.445"/>
<polygon fill="midnightblue" stroke="midnightblue" points="70.8179,-165.888 61.0629,-161.754 66.1108,-171.069 70.8179,-165.888"/>
</g>
<!-- Node6 -->
<g id="node6" class="node"><title>Node6</title>
<g id="a_node6"><a xlink:href="../../de/d5a/classback_end_1_1_spreading_fire.html#a14b959c163a3a935ef7856c045b13eeb" target="_top" xlink:title="backEnd.SpreadingFire.getNext">
<polygon fill="white" stroke="black" points="141.5,-186.5 141.5,-205.5 308.5,-205.5 308.5,-186.5 141.5,-186.5"/>
<text text-anchor="middle" x="225" y="-193.5" font-family="Helvetica,sans-Serif" font-size="10.00">backEnd.SpreadingFire.getNext</text>
</a>
</g>
</g>
<!-- Node1&#45;&gt;Node6 -->
<g id="edge5" class="edge"><title>Node1&#45;&gt;Node6</title>
<path fill="none" stroke="midnightblue" d="M92.8412,-164.278C106.554,-168.178 121.89,-172.407 136,-176 150.272,-179.634 165.928,-183.296 180.027,-186.475"/>
<polygon fill="midnightblue" stroke="midnightblue" points="93.7617,-160.901 83.1844,-161.511 91.8333,-167.63 93.7617,-160.901"/>
</g>
<!-- Node7 -->
<g id="node7" class="node"><title>Node7</title>
<g id="a_node7"><a xlink:href="../../d1/dfc/classback_end_1_1_rule_set.html#a603d39da71653ea4bbdadf3d78978981" target="_top" xlink:title="backEnd.RuleSet.initialize\lPatch">
<polygon fill="white" stroke="black" points="156.5,-39 156.5,-69 293.5,-69 293.5,-39 156.5,-39"/>
<text text-anchor="start" x="164.5" y="-57" font-family="Helvetica,sans-Serif" font-size="10.00">backEnd.RuleSet.initialize</text>
<text text-anchor="middle" x="225" y="-46" font-family="Helvetica,sans-Serif" font-size="10.00">Patch</text>
</a>
</g>
</g>
<!-- Node1&#45;&gt;Node7 -->
<g id="edge6" class="edge"><title>Node1&#45;&gt;Node7</title>
<path fill="none" stroke="midnightblue" d="M66.2961,-134.767C82.1463,-117.933 108.424,-92.7542 136,-78 142.423,-74.5635 149.379,-71.587 156.469,-69.0163"/>
<polygon fill="midnightblue" stroke="midnightblue" points="63.5828,-132.547 59.3928,-142.278 68.7367,-137.284 63.5828,-132.547"/>
</g>
<!-- Node16 -->
<g id="node16" class="node"><title>Node16</title>
<g id="a_node16"><a xlink:href="../../d1/dfc/classback_end_1_1_rule_set.html#a23c282a2877d8a27ae5941e76723e535" target="_top" xlink:title="backEnd.RuleSet.initialize\lRandom">
<polygon fill="white" stroke="black" points="156.5,-88 156.5,-118 293.5,-118 293.5,-88 156.5,-88"/>
<text text-anchor="start" x="164.5" y="-106" font-family="Helvetica,sans-Serif" font-size="10.00">backEnd.RuleSet.initialize</text>
<text text-anchor="middle" x="225" y="-95" font-family="Helvetica,sans-Serif" font-size="10.00">Random</text>
</a>
</g>
</g>
<!-- Node1&#45;&gt;Node16 -->
<g id="edge17" class="edge"><title>Node1&#45;&gt;Node16</title>
<path fill="none" stroke="midnightblue" d="M94.6586,-139.634C117.822,-133.074 146.469,-124.96 170.91,-118.037"/>
<polygon fill="midnightblue" stroke="midnightblue" points="93.4345,-136.343 84.7668,-142.436 95.3422,-143.078 93.4345,-136.343"/>
</g>
<!-- Node17 -->
<g id="node17" class="node"><title>Node17</title>
<g id="a_node17"><a xlink:href="../../de/d49/classback_end_1_1_sugar_scape.html#a96fcf395199ef2ca7af1e01d2ec362bf" target="_top" xlink:title="backEnd.SugarScape.moveAgent">
<polygon fill="white" stroke="black" points="136.5,-262.5 136.5,-281.5 313.5,-281.5 313.5,-262.5 136.5,-262.5"/>
<text text-anchor="middle" x="225" y="-269.5" font-family="Helvetica,sans-Serif" font-size="10.00">backEnd.SugarScape.moveAgent</text>
</a>
</g>
</g>
<!-- Node1&#45;&gt;Node17 -->
<g id="edge18" class="edge"><title>Node1&#45;&gt;Node17</title>
<path fill="none" stroke="midnightblue" d="M61.2396,-170.417C75.0789,-193.502 101.984,-232.52 136,-253 142.427,-256.87 149.538,-259.956 156.85,-262.417"/>
<polygon fill="midnightblue" stroke="midnightblue" points="64.1704,-168.494 56.1257,-161.6 58.1151,-172.006 64.1704,-168.494"/>
</g>
<!-- Node18 -->
<g id="node18" class="node"><title>Node18</title>
<g id="a_node18"><a xlink:href="../../d1/dfc/classback_end_1_1_rule_set.html#a59b2ba8a67d5961912fcb64410f17c45" target="_top" xlink:title="backEnd.RuleSet.moveCell">
<polygon fill="white" stroke="black" points="153.5,-0.5 153.5,-19.5 296.5,-19.5 296.5,-0.5 153.5,-0.5"/>
<text text-anchor="middle" x="225" y="-7.5" font-family="Helvetica,sans-Serif" font-size="10.00">backEnd.RuleSet.moveCell</text>
</a>
</g>
</g>
<!-- Node1&#45;&gt;Node18 -->
<g id="edge20" class="edge"><title>Node1&#45;&gt;Node18</title>
<path fill="none" stroke="midnightblue" d="M58.5774,-133.189C70.6566,-105.727 96.9677,-55.0988 136,-29 141.717,-25.1774 148.068,-22.1076 154.667,-19.6447"/>
<polygon fill="midnightblue" stroke="midnightblue" points="55.3196,-131.907 54.6479,-142.48 61.7667,-134.633 55.3196,-131.907"/>
</g>
<!-- Node3 -->
<g id="node3" class="node"><title>Node3</title>
<g id="a_node3"><a xlink:href="../../de/d49/classback_end_1_1_sugar_scape.html#a13186ddb64e70b5941d0cd12163c3e84" target="_top" xlink:title="backEnd.SugarScape.getNext">
<polygon fill="white" stroke="black" points="352,-202.5 352,-221.5 512,-221.5 512,-202.5 352,-202.5"/>
<text text-anchor="middle" x="432" y="-209.5" font-family="Helvetica,sans-Serif" font-size="10.00">backEnd.SugarScape.getNext</text>
</a>
</g>
</g>
<!-- Node2&#45;&gt;Node3 -->
<g id="edge2" class="edge"><title>Node2&#45;&gt;Node3</title>
<path fill="none" stroke="midnightblue" d="M289.255,-169.856C297.583,-172.24 306,-174.667 314,-177 342.903,-185.428 375.74,-195.275 399.254,-202.374"/>
<polygon fill="midnightblue" stroke="midnightblue" points="290.128,-166.466 279.551,-167.085 288.205,-173.196 290.128,-166.466"/>
</g>
<!-- Node4 -->
<g id="node4" class="node"><title>Node4</title>
<g id="a_node4"><a xlink:href="../../de/d49/classback_end_1_1_sugar_scape.html#ab0c2eb832afef056e0a72aea2bf8ddc1" target="_top" xlink:title="backEnd.SugarScape.update">
<polygon fill="white" stroke="black" points="550.5,-202.5 550.5,-221.5 705.5,-221.5 705.5,-202.5 550.5,-202.5"/>
<text text-anchor="middle" x="628" y="-209.5" font-family="Helvetica,sans-Serif" font-size="10.00">backEnd.SugarScape.update</text>
</a>
</g>
</g>
<!-- Node3&#45;&gt;Node4 -->
<g id="edge3" class="edge"><title>Node3&#45;&gt;Node4</title>
<path fill="none" stroke="midnightblue" d="M522.277,-212C531.625,-212 541.07,-212 550.261,-212"/>
<polygon fill="midnightblue" stroke="midnightblue" points="522.187,-208.5 512.187,-212 522.187,-215.5 522.187,-208.5"/>
</g>
<!-- Node8 -->
<g id="node8" class="node"><title>Node8</title>
<g id="a_node8"><a xlink:href="../../dc/da1/classfront_end_1_1_animator_loop.html#af1d1ddcc3fe02f0d1c6ba1f234d455cc" target="_top" xlink:title="frontEnd.AnimatorLoop.initGrid">
<polygon fill="white" stroke="black" points="350,-44.5 350,-63.5 514,-63.5 514,-44.5 350,-44.5"/>
<text text-anchor="middle" x="432" y="-51.5" font-family="Helvetica,sans-Serif" font-size="10.00">frontEnd.AnimatorLoop.initGrid</text>
</a>
</g>
</g>
<!-- Node7&#45;&gt;Node8 -->
<g id="edge7" class="edge"><title>Node7&#45;&gt;Node8</title>
<path fill="none" stroke="midnightblue" d="M303.949,-54C318.96,-54 334.718,-54 349.829,-54"/>
<polygon fill="midnightblue" stroke="midnightblue" points="303.693,-50.5001 293.693,-54 303.693,-57.5001 303.693,-50.5001"/>
</g>
<!-- Node9 -->
<g id="node9" class="node"><title>Node9</title>
<g id="a_node9"><a xlink:href="../../dc/da1/classfront_end_1_1_animator_loop.html#a1f378b18807af5386266685e907aa8c7" target="_top" xlink:title="frontEnd.AnimatorLoop.read\lXMLAndInitializeGrid">
<polygon fill="white" stroke="black" points="552,-39 552,-69 704,-69 704,-39 552,-39"/>
<text text-anchor="start" x="560" y="-57" font-family="Helvetica,sans-Serif" font-size="10.00">frontEnd.AnimatorLoop.read</text>
<text text-anchor="middle" x="628" y="-46" font-family="Helvetica,sans-Serif" font-size="10.00">XMLAndInitializeGrid</text>
</a>
</g>
</g>
<!-- Node8&#45;&gt;Node9 -->
<g id="edge8" class="edge"><title>Node8&#45;&gt;Node9</title>
<path fill="none" stroke="midnightblue" d="M524.433,-54C533.582,-54 542.797,-54 551.752,-54"/>
<polygon fill="midnightblue" stroke="midnightblue" points="524.149,-50.5001 514.149,-54 524.149,-57.5001 524.149,-50.5001"/>
</g>
<!-- Node10 -->
<g id="node10" class="node"><title>Node10</title>
<g id="a_node10"><a xlink:href="../../dd/dbe/classfront_end_1_1_main.html#a7bae3127415fb2ae80975ebc95057e3f" target="_top" xlink:title="frontEnd.Main.readXML">
<polygon fill="white" stroke="black" points="742.5,-44.5 742.5,-63.5 869.5,-63.5 869.5,-44.5 742.5,-44.5"/>
<text text-anchor="middle" x="806" y="-51.5" font-family="Helvetica,sans-Serif" font-size="10.00">frontEnd.Main.readXML</text>
</a>
</g>
</g>
<!-- Node9&#45;&gt;Node10 -->
<g id="edge9" class="edge"><title>Node9&#45;&gt;Node10</title>
<path fill="none" stroke="midnightblue" d="M714.333,-54C723.75,-54 733.208,-54 742.275,-54"/>
<polygon fill="midnightblue" stroke="midnightblue" points="714.15,-50.5001 704.15,-54 714.15,-57.5001 714.15,-50.5001"/>
</g>
<!-- Node11 -->
<g id="node11" class="node"><title>Node11</title>
<g id="a_node11"><a xlink:href="../../dd/dbe/classfront_end_1_1_main.html#a55d59b110825a1cc153a0091a6e5cb99" target="_top" xlink:title="frontEnd.Main.makeMenu">
<polygon fill="white" stroke="black" points="906.5,-6.5 906.5,-25.5 1045.5,-25.5 1045.5,-6.5 906.5,-6.5"/>
<text text-anchor="middle" x="976" y="-13.5" font-family="Helvetica,sans-Serif" font-size="10.00">frontEnd.Main.makeMenu</text>
</a>
</g>
</g>
<!-- Node10&#45;&gt;Node11 -->
<g id="edge10" class="edge"><title>Node10&#45;&gt;Node11</title>
<path fill="none" stroke="midnightblue" d="M859.276,-42.1757C882.961,-36.8184 910.59,-30.5689 932.911,-25.5201"/>
<polygon fill="midnightblue" stroke="midnightblue" points="858.375,-38.791 849.393,-44.411 859.919,-45.6185 858.375,-38.791"/>
</g>
<!-- Node13 -->
<g id="node13" class="node"><title>Node13</title>
<g id="a_node13"><a xlink:href="../../dd/dbe/classfront_end_1_1_main.html#a8e2e836903a64069e4283fa66309c704" target="_top" xlink:title="frontEnd.Main.resetSim">
<polygon fill="white" stroke="black" points="911.5,-82.5 911.5,-101.5 1040.5,-101.5 1040.5,-82.5 911.5,-82.5"/>
<text text-anchor="middle" x="976" y="-89.5" font-family="Helvetica,sans-Serif" font-size="10.00">frontEnd.Main.resetSim</text>
</a>
</g>
</g>
<!-- Node10&#45;&gt;Node13 -->
<g id="edge12" class="edge"><title>Node10&#45;&gt;Node13</title>
<path fill="none" stroke="midnightblue" d="M859.276,-65.8243C882.961,-71.1816 910.59,-77.4311 932.911,-82.4799"/>
<polygon fill="midnightblue" stroke="midnightblue" points="859.919,-62.3815 849.393,-63.589 858.375,-69.209 859.919,-62.3815"/>
</g>
<!-- Node12 -->
<g id="node12" class="node"><title>Node12</title>
<g id="a_node12"><a xlink:href="../../dd/dbe/classfront_end_1_1_main.html#ae53f892716dcc60f3f49714496e30c91" target="_top" xlink:title="frontEnd.Main.start">
<polygon fill="white" stroke="black" points="1302,-44.5 1302,-63.5 1410,-63.5 1410,-44.5 1302,-44.5"/>
<text text-anchor="middle" x="1356" y="-51.5" font-family="Helvetica,sans-Serif" font-size="10.00">frontEnd.Main.start</text>
</a>
</g>
</g>
<!-- Node11&#45;&gt;Node12 -->
<g id="edge11" class="edge"><title>Node11&#45;&gt;Node12</title>
<path fill="none" stroke="midnightblue" d="M1055.84,-18.1061C1114.12,-20.4088 1195.29,-25.1806 1266,-35 1282.59,-37.3036 1300.7,-40.9571 1316.23,-44.4476"/>
<polygon fill="midnightblue" stroke="midnightblue" points="1055.73,-14.5993 1045.6,-17.7175 1055.46,-21.5942 1055.73,-14.5993"/>
</g>
<!-- Node14 -->
<g id="node14" class="node"><title>Node14</title>
<g id="a_node14"><a xlink:href="../../dd/dbe/classfront_end_1_1_main.html#a0ff8a007311f8ecce84d4203dc85d669" target="_top" xlink:title="frontEnd.Main.makeParamControls">
<polygon fill="white" stroke="black" points="1082.5,-44.5 1082.5,-63.5 1265.5,-63.5 1265.5,-44.5 1082.5,-44.5"/>
<text text-anchor="middle" x="1174" y="-51.5" font-family="Helvetica,sans-Serif" font-size="10.00">frontEnd.Main.makeParamControls</text>
</a>
</g>
</g>
<!-- Node13&#45;&gt;Node14 -->
<g id="edge13" class="edge"><title>Node13&#45;&gt;Node14</title>
<path fill="none" stroke="midnightblue" d="M1036.26,-80.5106C1064.23,-75.0886 1097.21,-68.6942 1123.77,-63.5439"/>
<polygon fill="midnightblue" stroke="midnightblue" points="1035.36,-77.1206 1026.21,-82.46 1036.69,-83.9927 1035.36,-77.1206"/>
</g>
<!-- Node15 -->
<g id="node15" class="node"><title>Node15</title>
<g id="a_node15"><a xlink:href="../../dd/dbe/classfront_end_1_1_main.html#a1f4c19654fe78e5ebca54fc26bf43c94" target="_top" xlink:title="frontEnd.Main.useControls">
<polygon fill="white" stroke="black" points="1102.5,-82.5 1102.5,-101.5 1245.5,-101.5 1245.5,-82.5 1102.5,-82.5"/>
<text text-anchor="middle" x="1174" y="-89.5" font-family="Helvetica,sans-Serif" font-size="10.00">frontEnd.Main.useControls</text>
</a>
</g>
</g>
<!-- Node13&#45;&gt;Node15 -->
<g id="edge15" class="edge"><title>Node13&#45;&gt;Node15</title>
<path fill="none" stroke="midnightblue" d="M1050.95,-92C1067.75,-92 1085.56,-92 1102.22,-92"/>
<polygon fill="midnightblue" stroke="midnightblue" points="1050.64,-88.5001 1040.64,-92 1050.64,-95.5001 1050.64,-88.5001"/>
</g>
<!-- Node14&#45;&gt;Node10 -->
<g id="edge14" class="edge"><title>Node14&#45;&gt;Node10</title>
<path fill="none" stroke="midnightblue" d="M1072.03,-54C1007.19,-54 925.025,-54 869.502,-54"/>
<polygon fill="midnightblue" stroke="midnightblue" points="1072.28,-57.5001 1082.28,-54 1072.28,-50.5001 1072.28,-57.5001"/>
</g>
<!-- Node15&#45;&gt;Node12 -->
<g id="edge16" class="edge"><title>Node15&#45;&gt;Node12</title>
<path fill="none" stroke="midnightblue" d="M1230.87,-80.3766C1242.48,-77.9487 1254.64,-75.3982 1266,-73 1280.53,-69.9319 1296.39,-66.5553 1310.64,-63.5103"/>
<polygon fill="midnightblue" stroke="midnightblue" points="1229.91,-77.0013 1220.84,-82.4718 1231.34,-83.8534 1229.91,-77.0013"/>
</g>
<!-- Node17&#45;&gt;Node3 -->
<g id="edge19" class="edge"><title>Node17&#45;&gt;Node3</title>
<path fill="none" stroke="midnightblue" d="M285.485,-260.211C295.069,-258.01 304.845,-255.582 314,-253 346.524,-243.829 383.16,-230.486 406.633,-221.538"/>
<polygon fill="midnightblue" stroke="midnightblue" points="284.597,-256.823 275.602,-262.42 286.124,-263.655 284.597,-256.823"/>
</g>
<!-- Node19 -->
<g id="node19" class="node"><title>Node19</title>
<g id="a_node19"><a xlink:href="../../d9/d2e/classback_end_1_1_segregation.html#a306bcff5f217b04d83849a3cc77bddfb" target="_top" xlink:title="backEnd.Segregation.getNext">
<polygon fill="white" stroke="black" points="352,-0.5 352,-19.5 512,-19.5 512,-0.5 352,-0.5"/>
<text text-anchor="middle" x="432" y="-7.5" font-family="Helvetica,sans-Serif" font-size="10.00">backEnd.Segregation.getNext</text>
</a>
</g>
</g>
<!-- Node18&#45;&gt;Node19 -->
<g id="edge21" class="edge"><title>Node18&#45;&gt;Node19</title>
<path fill="none" stroke="midnightblue" d="M306.717,-10C321.575,-10 337.073,-10 351.884,-10"/>
<polygon fill="midnightblue" stroke="midnightblue" points="306.549,-6.5001 296.549,-10 306.549,-13.5001 306.549,-6.5001"/>
</g>
</g>
</svg>
