<?xml version="1.0" encoding="UTF-8" standalone="no"?>
<!DOCTYPE svg PUBLIC "-//W3C//DTD SVG 1.1//EN"
 "http://www.w3.org/Graphics/SVG/1.1/DTD/svg11.dtd">
<!-- Generated by graphviz version 2.36.0 (20140111.2315)
 -->
<!-- Title: backEnd.Patch.clear Pages: 1 -->
<!--zoomable 211 -->
<svg id="main" version="1.1" xmlns="http://www.w3.org/2000/svg" xmlns:xlink="http://www.w3.org/1999/xlink" xml:space="preserve" onload="init(evt)">
<style type="text/css"><![CDATA[
.edge:hover path { stroke: red; }
.edge:hover polygon { stroke: red; fill: red; }
]]></style>
<script type="text/javascript"><![CDATA[
var edges = document.getElementsByTagName('g');
if (edges && edges.length) {
  for (var i=0;i<edges.length;i++) {
    if (edges[i].id.substr(0,4)=='edge') {
      edges[i].setAttribute('class','edge');
    }
  }
}
]]></script>
        <defs>
                <circle id="rim" cx="0" cy="0" r="7"/>
                <circle id="rim2" cx="0" cy="0" r="3.5"/>
                <g id="zoomPlus">
                        <use xlink:href="#rim" fill="#404040">
                                <set attributeName="fill" to="#808080" begin="zoomplus.mouseover" end="zoomplus.mouseout"/>
                        </use>
                        <path d="M-4,0h8M0,-4v8" fill="none" stroke="white" stroke-width="1.5" pointer-events="none"/>
                </g>
                <g id="zoomMin">
                        <use xlink:href="#rim" fill="#404040">
                                <set attributeName="fill" to="#808080" begin="zoomminus.mouseover" end="zoomminus.mouseout"/>
                        </use>
                        <path d="M-4,0h8" fill="none" stroke="white" stroke-width="1.5" pointer-events="none"/>
                </g>
                <g id="dirArrow">
                        <path fill="none" stroke="white" stroke-width="1.5" d="M0,-3.0v7 M-2.5,-0.5L0,-3.0L2.5,-0.5"/>
                </g>
               <g id="resetDef">
                       <use xlink:href="#rim2" fill="#404040">
                               <set attributeName="fill" to="#808080" begin="reset.mouseover" end="reset.mouseout"/>
                       </use>
               </g>
        </defs>

<script type="text/javascript">
var viewWidth = 1100;
var viewHeight = 211;
var sectionId = 'dynsection-4';
</script>
<script xlink:href="../../svgpan.js"/>
<svg id="graph" class="graph">
<g id="viewport">
<title>backEnd.Patch.clear</title>
<polygon fill="white" stroke="none" points="-4,4 -4,-207 1096,-207 1096,4 -4,4"/>
<!-- Node1 -->
<g id="node1" class="node"><title>Node1</title>
<polygon fill="#bfbfbf" stroke="black" points="0.5,-95.5 0.5,-114.5 113.5,-114.5 113.5,-95.5 0.5,-95.5"/>
<text text-anchor="middle" x="57" y="-102.5" font-family="Helvetica,sans-Serif" font-size="10.00">backEnd.Patch.clear</text>
</g>
<!-- Node2 -->
<g id="node2" class="node"><title>Node2</title>
<g id="a_node2"><a xlink:href="../../d0/d96/classback_end_1_1_predator_prey.html#ab8aeaa141af352c221182d3b427cc492" target="_top" xlink:title="backEnd.PredatorPrey.check\lStarve">
<polygon fill="white" stroke="black" points="353,-144 353,-174 505,-174 505,-144 353,-144"/>
<text text-anchor="start" x="361" y="-162" font-family="Helvetica,sans-Serif" font-size="10.00">backEnd.PredatorPrey.check</text>
<text text-anchor="middle" x="429" y="-151" font-family="Helvetica,sans-Serif" font-size="10.00">Starve</text>
</a>
</g>
</g>
<!-- Node1&#45;&gt;Node2 -->
<g id="edge1" class="edge"><title>Node1&#45;&gt;Node2</title>
<path fill="none" stroke="midnightblue" d="M110.941,-116.673C123.695,-119.28 137.305,-121.893 150,-124 218.384,-135.348 296.775,-144.907 352.844,-151.153"/>
<polygon fill="midnightblue" stroke="midnightblue" points="111.432,-113.2 100.929,-114.593 110.008,-120.054 111.432,-113.2"/>
</g>
<!-- Node5 -->
<g id="node5" class="node"><title>Node5</title>
<g id="a_node5"><a xlink:href="../../d0/d96/classback_end_1_1_predator_prey.html#acf219a8748ddb0ed02c2202a3b3d6b37" target="_top" xlink:title="backEnd.PredatorPrey.update">
<polygon fill="white" stroke="black" points="934,-160.5 934,-179.5 1092,-179.5 1092,-160.5 934,-160.5"/>
<text text-anchor="middle" x="1013" y="-167.5" font-family="Helvetica,sans-Serif" font-size="10.00">backEnd.PredatorPrey.update</text>
</a>
</g>
</g>
<!-- Node1&#45;&gt;Node5 -->
<g id="edge12" class="edge"><title>Node1&#45;&gt;Node5</title>
<path fill="none" stroke="midnightblue" d="M84.0168,-119.641C102.047,-129.233 126.879,-141.364 150,-149 269.516,-188.471 302.135,-203 428,-203 428,-203 428,-203 630,-203 740.001,-203 867.161,-189.25 943.492,-179.501"/>
<polygon fill="midnightblue" stroke="midnightblue" points="85.2127,-116.308 74.7535,-114.618 81.8759,-122.462 85.2127,-116.308"/>
</g>
<!-- Node6 -->
<g id="node6" class="node"><title>Node6</title>
<g id="a_node6"><a xlink:href="../../d0/d96/classback_end_1_1_predator_prey.html#ae2c9b91296f82e101e9dd0ea350d3f62" target="_top" xlink:title="backEnd.PredatorPrey.eatFish">
<polygon fill="white" stroke="black" points="151,-0.5 151,-19.5 309,-19.5 309,-0.5 151,-0.5"/>
<text text-anchor="middle" x="230" y="-7.5" font-family="Helvetica,sans-Serif" font-size="10.00">backEnd.PredatorPrey.eatFish</text>
</a>
</g>
</g>
<!-- Node1&#45;&gt;Node6 -->
<g id="edge5" class="edge"><title>Node1&#45;&gt;Node6</title>
<path fill="none" stroke="midnightblue" d="M73.6323,-88.1818C90.7414,-70.785 119.784,-44.0925 150,-29 157.698,-25.155 166.213,-22.0635 174.718,-19.5849"/>
<polygon fill="midnightblue" stroke="midnightblue" points="71.0566,-85.8108 66.6498,-95.4457 76.1032,-90.6619 71.0566,-85.8108"/>
</g>
<!-- Node8 -->
<g id="node8" class="node"><title>Node8</title>
<g id="a_node8"><a xlink:href="../../d5/dcb/classback_end_1_1_game_of_life.html#af98fae7f8d156a65231b2d63bf5e27fb" target="_top" xlink:title="backEnd.GameOfLife.getNext">
<polygon fill="white" stroke="black" points="151,-76.5 151,-95.5 309,-95.5 309,-76.5 151,-76.5"/>
<text text-anchor="middle" x="230" y="-83.5" font-family="Helvetica,sans-Serif" font-size="10.00">backEnd.GameOfLife.getNext</text>
</a>
</g>
</g>
<!-- Node1&#45;&gt;Node8 -->
<g id="edge8" class="edge"><title>Node1&#45;&gt;Node8</title>
<path fill="none" stroke="midnightblue" d="M123.743,-97.6952C132.591,-96.7121 141.737,-95.6959 150.774,-94.6918"/>
<polygon fill="midnightblue" stroke="midnightblue" points="123.071,-94.2482 113.519,-98.8312 123.844,-101.205 123.071,-94.2482"/>
</g>
<!-- Node9 -->
<g id="node9" class="node"><title>Node9</title>
<g id="a_node9"><a xlink:href="../../d9/d2e/classback_end_1_1_segregation.html#a306bcff5f217b04d83849a3cc77bddfb" target="_top" xlink:title="backEnd.Segregation.getNext">
<polygon fill="white" stroke="black" points="150,-38.5 150,-57.5 310,-57.5 310,-38.5 150,-38.5"/>
<text text-anchor="middle" x="230" y="-45.5" font-family="Helvetica,sans-Serif" font-size="10.00">backEnd.Segregation.getNext</text>
</a>
</g>
</g>
<!-- Node1&#45;&gt;Node9 -->
<g id="edge9" class="edge"><title>Node1&#45;&gt;Node9</title>
<path fill="none" stroke="midnightblue" d="M87.767,-91.3212C105.568,-83.4917 128.781,-73.8875 150,-67 160.868,-63.4724 172.767,-60.2749 183.958,-57.5519"/>
<polygon fill="midnightblue" stroke="midnightblue" points="86.1906,-88.1919 78.4817,-95.4599 89.0404,-94.5855 86.1906,-88.1919"/>
</g>
<!-- Node10 -->
<g id="node10" class="node"><title>Node10</title>
<g id="a_node10"><a xlink:href="../../d0/d96/classback_end_1_1_predator_prey.html#ae501b5b3266e13be211c77d6817045e7" target="_top" xlink:title="backEnd.PredatorPrey.moveAdj">
<polygon fill="white" stroke="black" points="346,-105.5 346,-124.5 512,-124.5 512,-105.5 346,-105.5"/>
<text text-anchor="middle" x="429" y="-112.5" font-family="Helvetica,sans-Serif" font-size="10.00">backEnd.PredatorPrey.moveAdj</text>
</a>
</g>
</g>
<!-- Node1&#45;&gt;Node10 -->
<g id="edge10" class="edge"><title>Node1&#45;&gt;Node10</title>
<path fill="none" stroke="midnightblue" d="M123.86,-106.78C185.927,-108.457 279.131,-110.977 345.992,-112.784"/>
<polygon fill="midnightblue" stroke="midnightblue" points="123.884,-103.279 113.793,-106.508 123.695,-110.277 123.884,-103.279"/>
</g>
<!-- Node3 -->
<g id="node3" class="node"><title>Node3</title>
<g id="a_node3"><a xlink:href="../../d0/d96/classback_end_1_1_predator_prey.html#aecfa40f92acce8997492d12cefd08b48" target="_top" xlink:title="backEnd.PredatorPrey.getNext">
<polygon fill="white" stroke="black" points="548,-116.5 548,-135.5 710,-135.5 710,-116.5 548,-116.5"/>
<text text-anchor="middle" x="629" y="-123.5" font-family="Helvetica,sans-Serif" font-size="10.00">backEnd.PredatorPrey.getNext</text>
</a>
</g>
</g>
<!-- Node2&#45;&gt;Node3 -->
<g id="edge2" class="edge"><title>Node2&#45;&gt;Node3</title>
<path fill="none" stroke="midnightblue" d="M515.185,-144.802C533.972,-141.671 553.436,-138.427 570.799,-135.533"/>
<polygon fill="midnightblue" stroke="midnightblue" points="514.426,-141.381 505.138,-146.477 515.577,-148.285 514.426,-141.381"/>
</g>
<!-- Node4 -->
<g id="node4" class="node"><title>Node4</title>
<g id="a_node4"><a xlink:href="../../d0/d96/classback_end_1_1_predator_prey.html#aa032c15c617e2da8e1ab1a065413fb06" target="_top" xlink:title="backEnd.PredatorPrey.make\lNextGrid">
<polygon fill="white" stroke="black" points="746.5,-122 746.5,-152 897.5,-152 897.5,-122 746.5,-122"/>
<text text-anchor="start" x="754.5" y="-140" font-family="Helvetica,sans-Serif" font-size="10.00">backEnd.PredatorPrey.make</text>
<text text-anchor="middle" x="822" y="-129" font-family="Helvetica,sans-Serif" font-size="10.00">NextGrid</text>
</a>
</g>
</g>
<!-- Node3&#45;&gt;Node4 -->
<g id="edge3" class="edge"><title>Node3&#45;&gt;Node4</title>
<path fill="none" stroke="midnightblue" d="M720.31,-131.201C728.984,-131.701 737.715,-132.203 746.216,-132.693"/>
<polygon fill="midnightblue" stroke="midnightblue" points="720.356,-127.698 710.171,-130.617 719.953,-134.686 720.356,-127.698"/>
</g>
<!-- Node4&#45;&gt;Node5 -->
<g id="edge4" class="edge"><title>Node4&#45;&gt;Node5</title>
<path fill="none" stroke="midnightblue" d="M907.582,-151.768C924.481,-154.719 941.808,-157.744 957.369,-160.461"/>
<polygon fill="midnightblue" stroke="midnightblue" points="908.151,-148.315 897.698,-150.042 906.947,-155.21 908.151,-148.315"/>
</g>
<!-- Node7 -->
<g id="node7" class="node"><title>Node7</title>
<g id="a_node7"><a xlink:href="../../d0/d96/classback_end_1_1_predator_prey.html#afbf1847ebcb9a605eec41be73dec7c8c" target="_top" xlink:title="backEnd.PredatorPrey.check\lForFishAndMove">
<polygon fill="white" stroke="black" points="353,-24 353,-54 505,-54 505,-24 353,-24"/>
<text text-anchor="start" x="361" y="-42" font-family="Helvetica,sans-Serif" font-size="10.00">backEnd.PredatorPrey.check</text>
<text text-anchor="middle" x="429" y="-31" font-family="Helvetica,sans-Serif" font-size="10.00">ForFishAndMove</text>
</a>
</g>
</g>
<!-- Node6&#45;&gt;Node7 -->
<g id="edge6" class="edge"><title>Node6&#45;&gt;Node7</title>
<path fill="none" stroke="midnightblue" d="M305.785,-21.009C321.221,-23.2812 337.483,-25.6751 352.928,-27.9488"/>
<polygon fill="midnightblue" stroke="midnightblue" points="306.181,-17.5296 295.778,-19.5359 305.162,-24.455 306.181,-17.5296"/>
</g>
<!-- Node7&#45;&gt;Node3 -->
<g id="edge7" class="edge"><title>Node7&#45;&gt;Node3</title>
<path fill="none" stroke="midnightblue" d="M473.712,-58.2066C514.724,-76.2271 574.37,-102.435 606.149,-116.399"/>
<polygon fill="midnightblue" stroke="midnightblue" points="475.052,-54.9727 464.489,-54.1542 472.236,-61.3814 475.052,-54.9727"/>
</g>
<!-- Node10&#45;&gt;Node3 -->
<g id="edge11" class="edge"><title>Node10&#45;&gt;Node3</title>
<path fill="none" stroke="midnightblue" d="M522.263,-120.126C530.832,-120.602 539.469,-121.082 547.915,-121.551"/>
<polygon fill="midnightblue" stroke="midnightblue" points="522.428,-116.63 512.25,-119.569 522.04,-123.619 522.428,-116.63"/>
</g>
</g>
</svg>
        <g id="navigator" transform="translate(0 0)" fill="#404254">
                <rect fill="#f2f5e9" fill-opacity="0.5" stroke="#606060" stroke-width=".5" x="0" y="0" width="60" height="60"/>
                <use id="zoomplus" xlink:href="#zoomPlus" x="17" y="9" onmousedown="handleZoom(evt,'in')"/>
                <use id="zoomminus" xlink:href="#zoomMin" x="42" y="9" onmousedown="handleZoom(evt,'out')"/>
                <use id="reset" xlink:href="#resetDef" x="30" y="36" onmousedown="handleReset()"/>
                <g id="arrowUp" xlink:href="#dirArrow" transform="translate(30 24)" onmousedown="handlePan(0,-1)">
                  <use xlink:href="#rim" fill="#404040">
                        <set attributeName="fill" to="#808080" begin="arrowUp.mouseover" end="arrowUp.mouseout"/>
                  </use>
                  <path fill="none" stroke="white" stroke-width="1.5" d="M0,-3.0v7 M-2.5,-0.5L0,-3.0L2.5,-0.5"/>
                </g>
                <g id="arrowRight" xlink:href="#dirArrow" transform="rotate(90) translate(36 -43)" onmousedown="handlePan(1,0)">
                  <use xlink:href="#rim" fill="#404040">
                        <set attributeName="fill" to="#808080" begin="arrowRight.mouseover" end="arrowRight.mouseout"/>
                  </use>
                  <path fill="none" stroke="white" stroke-width="1.5" d="M0,-3.0v7 M-2.5,-0.5L0,-3.0L2.5,-0.5"/>
                </g>
                <g id="arrowDown" xlink:href="#dirArrow" transform="rotate(180) translate(-30 -48)" onmousedown="handlePan(0,1)">
                  <use xlink:href="#rim" fill="#404040">
                        <set attributeName="fill" to="#808080" begin="arrowDown.mouseover" end="arrowDown.mouseout"/>
                  </use>
                  <path fill="none" stroke="white" stroke-width="1.5" d="M0,-3.0v7 M-2.5,-0.5L0,-3.0L2.5,-0.5"/>
                </g>
                <g id="arrowLeft" xlink:href="#dirArrow" transform="rotate(270) translate(-36 17)" onmousedown="handlePan(-1,0)">
                  <use xlink:href="#rim" fill="#404040">
                        <set attributeName="fill" to="#808080" begin="arrowLeft.mouseover" end="arrowLeft.mouseout"/>
                  </use>
                  <path fill="none" stroke="white" stroke-width="1.5" d="M0,-3.0v7 M-2.5,-0.5L0,-3.0L2.5,-0.5"/>
                </g>
        </g>
        <svg viewBox="0 0 15 15" width="100%" height="30px" preserveAspectRatio="xMaxYMin meet">
         <g id="arrow_out" transform="scale(0.3 0.3)">
          <a xlink:href="classback_end_1_1_patch_ae544417dcc2d70361cb77d46dd63c60b_icgraph_org.svg" target="_base">
           <rect id="button" ry="5" rx="5" y="6" x="6" height="38" width="38"
                fill="#f2f5e9" fill-opacity="0.5" stroke="#606060" stroke-width="1.0"/>
           <path id="arrow"
             d="M 11.500037,31.436501 C 11.940474,20.09759 22.043105,11.32322 32.158766,21.979434 L 37.068811,17.246167 C 37.068811,17.246167 37.088388,32 37.088388,32 L 22.160133,31.978069 C 22.160133,31.978069 26.997745,27.140456 26.997745,27.140456 C 18.528582,18.264221 13.291696,25.230495 11.500037,31.436501 z"
             style="fill:#404040;"/>
          </a>
         </g>
        </svg>
</svg>
