<?xml version="1.0" encoding="UTF-8" standalone="no"?>
<!DOCTYPE svg PUBLIC "-//W3C//DTD SVG 1.1//EN"
 "http://www.w3.org/Graphics/SVG/1.1/DTD/svg11.dtd">
<!-- Generated by graphviz version 2.36.0 (20140111.2315)
 -->
<!-- Title: backEnd.Patch.getCell Pages: 1 -->
<!--zoomable 417 -->
<svg id="main" version="1.1" xmlns="http://www.w3.org/2000/svg" xmlns:xlink="http://www.w3.org/1999/xlink" xml:space="preserve" onload="init(evt)">
<style type="text/css"><![CDATA[
.edge:hover path { stroke: red; }
.edge:hover polygon { stroke: red; fill: red; }
]]></style>
<script type="text/javascript"><![CDATA[
var edges = document.getElementsByTagName('g');
if (edges && edges.length) {
  for (var i=0;i<edges.length;i++) {
    if (edges[i].id.substr(0,4)=='edge') {
      edges[i].setAttribute('class','edge');
    }
  }
}
]]></script>
        <defs>
                <circle id="rim" cx="0" cy="0" r="7"/>
                <circle id="rim2" cx="0" cy="0" r="3.5"/>
                <g id="zoomPlus">
                        <use xlink:href="#rim" fill="#404040">
                                <set attributeName="fill" to="#808080" begin="zoomplus.mouseover" end="zoomplus.mouseout"/>
                        </use>
                        <path d="M-4,0h8M0,-4v8" fill="none" stroke="white" stroke-width="1.5" pointer-events="none"/>
                </g>
                <g id="zoomMin">
                        <use xlink:href="#rim" fill="#404040">
                                <set attributeName="fill" to="#808080" begin="zoomminus.mouseover" end="zoomminus.mouseout"/>
                        </use>
                        <path d="M-4,0h8" fill="none" stroke="white" stroke-width="1.5" pointer-events="none"/>
                </g>
                <g id="dirArrow">
                        <path fill="none" stroke="white" stroke-width="1.5" d="M0,-3.0v7 M-2.5,-0.5L0,-3.0L2.5,-0.5"/>
                </g>
               <g id="resetDef">
                       <use xlink:href="#rim2" fill="#404040">
                               <set attributeName="fill" to="#808080" begin="reset.mouseover" end="reset.mouseout"/>
                       </use>
               </g>
        </defs>

<script type="text/javascript">
var viewWidth = 976;
var viewHeight = 417;
var sectionId = 'dynsection-8';
</script>
<script xlink:href="../../svgpan.js"/>
<svg id="graph" class="graph">
<g id="viewport">
<title>backEnd.Patch.getCell</title>
<polygon fill="white" stroke="none" points="-4,4 -4,-413 972,-413 972,4 -4,4"/>
<!-- Node1 -->
<g id="node1" class="node"><title>Node1</title>
<polygon fill="#bfbfbf" stroke="black" points="0,-225.5 0,-244.5 122,-244.5 122,-225.5 0,-225.5"/>
<text text-anchor="middle" x="61" y="-232.5" font-family="Helvetica,sans-Serif" font-size="10.00">backEnd.Patch.getCell</text>
</g>
<!-- Node2 -->
<g id="node2" class="node"><title>Node2</title>
<g id="a_node2"><a xlink:href="../../d0/d96/classback_end_1_1_predator_prey.html#a5a08efbe832d34c3c5f9bd15cf376f73" target="_top" xlink:title="backEnd.PredatorPrey.breed">
<polygon fill="white" stroke="black" points="165,-389.5 165,-408.5 317,-408.5 317,-389.5 165,-389.5"/>
<text text-anchor="middle" x="241" y="-396.5" font-family="Helvetica,sans-Serif" font-size="10.00">backEnd.PredatorPrey.breed</text>
</a>
</g>
</g>
<!-- Node1&#45;&gt;Node2 -->
<g id="edge1" class="edge"><title>Node1&#45;&gt;Node2</title>
<path fill="none" stroke="midnightblue" d="M70.0303,-254.306C83.6194,-284.6 114.03,-343.127 158,-375 166.767,-381.355 177.202,-386.037 187.641,-389.484"/>
<polygon fill="midnightblue" stroke="midnightblue" points="73.122,-252.638 65.9305,-244.858 66.7005,-255.425 73.122,-252.638"/>
</g>
<!-- Node3 -->
<g id="node3" class="node"><title>Node3</title>
<g id="a_node3"><a xlink:href="../../d0/d96/classback_end_1_1_predator_prey.html#acb81c56992e5c1bc58a34daa5b04e9aa" target="_top" xlink:title="backEnd.PredatorPrey.check\lBreed">
<polygon fill="white" stroke="black" points="386,-348 386,-378 538,-378 538,-348 386,-348"/>
<text text-anchor="start" x="394" y="-366" font-family="Helvetica,sans-Serif" font-size="10.00">backEnd.PredatorPrey.check</text>
<text text-anchor="middle" x="462" y="-355" font-family="Helvetica,sans-Serif" font-size="10.00">Breed</text>
</a>
</g>
</g>
<!-- Node1&#45;&gt;Node3 -->
<g id="edge5" class="edge"><title>Node1&#45;&gt;Node3</title>
<path fill="none" stroke="midnightblue" d="M72.3843,-253.363C87.5739,-278.222 118.4,-321.691 158,-341 229.467,-375.847 321.834,-377.282 385.705,-372.572"/>
<polygon fill="midnightblue" stroke="midnightblue" points="75.2768,-251.378 67.178,-244.547 69.2494,-254.938 75.2768,-251.378"/>
</g>
<!-- Node6 -->
<g id="node6" class="node"><title>Node6</title>
<g id="a_node6"><a xlink:href="../../d0/d96/classback_end_1_1_predator_prey.html#ab8aeaa141af352c221182d3b427cc492" target="_top" xlink:title="backEnd.PredatorPrey.check\lStarve">
<polygon fill="white" stroke="black" points="165,-302 165,-332 317,-332 317,-302 165,-302"/>
<text text-anchor="start" x="173" y="-320" font-family="Helvetica,sans-Serif" font-size="10.00">backEnd.PredatorPrey.check</text>
<text text-anchor="middle" x="241" y="-309" font-family="Helvetica,sans-Serif" font-size="10.00">Starve</text>
</a>
</g>
</g>
<!-- Node1&#45;&gt;Node6 -->
<g id="edge6" class="edge"><title>Node1&#45;&gt;Node6</title>
<path fill="none" stroke="midnightblue" d="M84.245,-250.301C103.193,-262.813 131.487,-280.291 158,-292 166.305,-295.668 175.308,-299.007 184.204,-301.966"/>
<polygon fill="midnightblue" stroke="midnightblue" points="85.9986,-247.263 75.7427,-244.604 82.1022,-253.078 85.9986,-247.263"/>
</g>
<!-- Node9 -->
<g id="node9" class="node"><title>Node9</title>
<g id="a_node9"><a xlink:href="../../d9/d2e/classback_end_1_1_segregation.html#a306bcff5f217b04d83849a3cc77bddfb" target="_top" xlink:title="backEnd.Segregation.getNext">
<polygon fill="white" stroke="black" points="161,-263.5 161,-282.5 321,-282.5 321,-263.5 161,-263.5"/>
<text text-anchor="middle" x="241" y="-270.5" font-family="Helvetica,sans-Serif" font-size="10.00">backEnd.Segregation.getNext</text>
</a>
</g>
</g>
<!-- Node1&#45;&gt;Node9 -->
<g id="edge10" class="edge"><title>Node1&#45;&gt;Node9</title>
<path fill="none" stroke="midnightblue" d="M116.716,-246.681C141.959,-252.07 171.545,-258.386 195.406,-263.48"/>
<polygon fill="midnightblue" stroke="midnightblue" points="117.427,-243.254 106.917,-244.589 115.966,-250.1 117.427,-243.254"/>
</g>
<!-- Node10 -->
<g id="node10" class="node"><title>Node10</title>
<g id="a_node10"><a xlink:href="../../de/d5a/classback_end_1_1_spreading_fire.html#a83460ccc721b0c3c4bdd2f89d8ecf218" target="_top" xlink:title="backEnd.SpreadingFire.is\lBurning">
<polygon fill="white" stroke="black" points="173,-176 173,-206 309,-206 309,-176 173,-176"/>
<text text-anchor="start" x="181" y="-194" font-family="Helvetica,sans-Serif" font-size="10.00">backEnd.SpreadingFire.is</text>
<text text-anchor="middle" x="241" y="-183" font-family="Helvetica,sans-Serif" font-size="10.00">Burning</text>
</a>
</g>
</g>
<!-- Node1&#45;&gt;Node10 -->
<g id="edge11" class="edge"><title>Node1&#45;&gt;Node10</title>
<path fill="none" stroke="midnightblue" d="M110.364,-223.045C131.538,-217.811 156.62,-211.611 179.054,-206.065"/>
<polygon fill="midnightblue" stroke="midnightblue" points="109.491,-219.655 100.623,-225.453 111.171,-226.451 109.491,-219.655"/>
</g>
<!-- Node12 -->
<g id="node12" class="node"><title>Node12</title>
<g id="a_node12"><a xlink:href="../../de/d49/classback_end_1_1_sugar_scape.html#aaf84272d68cbd5b1ae5a30fba6c77967" target="_top" xlink:title="backEnd.SugarScape.isSugar">
<polygon fill="white" stroke="black" points="162,-137.5 162,-156.5 320,-156.5 320,-137.5 162,-137.5"/>
<text text-anchor="middle" x="241" y="-144.5" font-family="Helvetica,sans-Serif" font-size="10.00">backEnd.SugarScape.isSugar</text>
</a>
</g>
</g>
<!-- Node1&#45;&gt;Node12 -->
<g id="edge13" class="edge"><title>Node1&#45;&gt;Node12</title>
<path fill="none" stroke="midnightblue" d="M79.9061,-218.757C98.2297,-202.99 128.169,-179.517 158,-166 166.519,-162.14 175.903,-159.022 185.188,-156.517"/>
<polygon fill="midnightblue" stroke="midnightblue" points="77.5511,-216.167 72.3466,-225.395 82.1701,-221.426 77.5511,-216.167"/>
</g>
<!-- Node19 -->
<g id="node19" class="node"><title>Node19</title>
<g id="a_node19"><a xlink:href="../../d0/d96/classback_end_1_1_predator_prey.html#ae501b5b3266e13be211c77d6817045e7" target="_top" xlink:title="backEnd.PredatorPrey.moveAdj">
<polygon fill="white" stroke="black" points="158,-225.5 158,-244.5 324,-244.5 324,-225.5 158,-225.5"/>
<text text-anchor="middle" x="241" y="-232.5" font-family="Helvetica,sans-Serif" font-size="10.00">backEnd.PredatorPrey.moveAdj</text>
</a>
</g>
</g>
<!-- Node1&#45;&gt;Node19 -->
<g id="edge22" class="edge"><title>Node1&#45;&gt;Node19</title>
<path fill="none" stroke="midnightblue" d="M132.302,-235C140.642,-235 149.212,-235 157.7,-235"/>
<polygon fill="midnightblue" stroke="midnightblue" points="132.263,-231.5 122.263,-235 132.263,-238.5 132.263,-231.5"/>
</g>
<!-- Node20 -->
<g id="node20" class="node"><title>Node20</title>
<g id="a_node20"><a xlink:href="../../db/d5e/classback_end_1_1_patch.html#a190c9b7342824cd635fd56af0ad18f06" target="_top" xlink:title="backEnd.Patch.Patch">
<polygon fill="white" stroke="black" points="183,-99.5 183,-118.5 299,-118.5 299,-99.5 183,-99.5"/>
<text text-anchor="middle" x="241" y="-106.5" font-family="Helvetica,sans-Serif" font-size="10.00">backEnd.Patch.Patch</text>
</a>
</g>
</g>
<!-- Node1&#45;&gt;Node20 -->
<g id="edge24" class="edge"><title>Node1&#45;&gt;Node20</title>
<path fill="none" stroke="midnightblue" d="M73.2726,-216.596C89.1023,-192.384 120.251,-150.301 158,-128 165.549,-123.54 174.064,-120.127 182.677,-117.515"/>
<polygon fill="midnightblue" stroke="midnightblue" points="70.2107,-214.889 67.7989,-225.205 76.1179,-218.645 70.2107,-214.889"/>
</g>
<!-- Node21 -->
<g id="node21" class="node"><title>Node21</title>
<g id="a_node21"><a xlink:href="../../dc/da1/classfront_end_1_1_animator_loop.html#a3d3ba37be380538b0fdfaada6256a125" target="_top" xlink:title="frontEnd.AnimatorLoop.update\lGUICells">
<polygon fill="white" stroke="black" points="159,-25 159,-55 323,-55 323,-25 159,-25"/>
<text text-anchor="start" x="167" y="-43" font-family="Helvetica,sans-Serif" font-size="10.00">frontEnd.AnimatorLoop.update</text>
<text text-anchor="middle" x="241" y="-32" font-family="Helvetica,sans-Serif" font-size="10.00">GUICells</text>
</a>
</g>
</g>
<!-- Node1&#45;&gt;Node21 -->
<g id="edge25" class="edge"><title>Node1&#45;&gt;Node21</title>
<path fill="none" stroke="midnightblue" d="M71.1676,-215.888C86.12,-186.196 118.13,-128.412 158,-90 172.649,-75.8863 191.959,-63.8691 208.161,-55.1556"/>
<polygon fill="midnightblue" stroke="midnightblue" points="67.8884,-214.624 66.6053,-225.141 74.1667,-217.72 67.8884,-214.624"/>
</g>
<!-- Node2&#45;&gt;Node3 -->
<g id="edge2" class="edge"><title>Node2&#45;&gt;Node3</title>
<path fill="none" stroke="midnightblue" d="M309.937,-387.832C334.018,-383.874 361.248,-379.398 385.891,-375.347"/>
<polygon fill="midnightblue" stroke="midnightblue" points="309.126,-384.419 299.826,-389.494 310.261,-391.326 309.126,-384.419"/>
</g>
<!-- Node4 -->
<g id="node4" class="node"><title>Node4</title>
<g id="a_node4"><a xlink:href="../../d0/d96/classback_end_1_1_predator_prey.html#ac9689f0a85de526bd6d2f1e23657dfe8" target="_top" xlink:title="backEnd.PredatorPrey.breed\lIfNecessary">
<polygon fill="white" stroke="black" points="611,-348 611,-378 763,-378 763,-348 611,-348"/>
<text text-anchor="start" x="619" y="-366" font-family="Helvetica,sans-Serif" font-size="10.00">backEnd.PredatorPrey.breed</text>
<text text-anchor="middle" x="687" y="-355" font-family="Helvetica,sans-Serif" font-size="10.00">IfNecessary</text>
</a>
</g>
</g>
<!-- Node3&#45;&gt;Node4 -->
<g id="edge3" class="edge"><title>Node3&#45;&gt;Node4</title>
<path fill="none" stroke="midnightblue" d="M548.465,-363C568.983,-363 590.746,-363 610.76,-363"/>
<polygon fill="midnightblue" stroke="midnightblue" points="548.187,-359.5 538.187,-363 548.187,-366.5 548.187,-359.5"/>
</g>
<!-- Node5 -->
<g id="node5" class="node"><title>Node5</title>
<g id="a_node5"><a xlink:href="../../d0/d96/classback_end_1_1_predator_prey.html#acf219a8748ddb0ed02c2202a3b3d6b37" target="_top" xlink:title="backEnd.PredatorPrey.update">
<polygon fill="white" stroke="black" points="810,-328.5 810,-347.5 968,-347.5 968,-328.5 810,-328.5"/>
<text text-anchor="middle" x="889" y="-335.5" font-family="Helvetica,sans-Serif" font-size="10.00">backEnd.PredatorPrey.update</text>
</a>
</g>
</g>
<!-- Node4&#45;&gt;Node5 -->
<g id="edge4" class="edge"><title>Node4&#45;&gt;Node5</title>
<path fill="none" stroke="midnightblue" d="M773.246,-352.344C786.08,-350.74 799.245,-349.094 811.872,-347.516"/>
<polygon fill="midnightblue" stroke="midnightblue" points="772.53,-348.906 763.042,-353.62 773.399,-355.852 772.53,-348.906"/>
</g>
<!-- Node7 -->
<g id="node7" class="node"><title>Node7</title>
<g id="a_node7"><a xlink:href="../../d0/d96/classback_end_1_1_predator_prey.html#aecfa40f92acce8997492d12cefd08b48" target="_top" xlink:title="backEnd.PredatorPrey.getNext">
<polygon fill="white" stroke="black" points="381,-304.5 381,-323.5 543,-323.5 543,-304.5 381,-304.5"/>
<text text-anchor="middle" x="462" y="-311.5" font-family="Helvetica,sans-Serif" font-size="10.00">backEnd.PredatorPrey.getNext</text>
</a>
</g>
</g>
<!-- Node6&#45;&gt;Node7 -->
<g id="edge7" class="edge"><title>Node6&#45;&gt;Node7</title>
<path fill="none" stroke="midnightblue" d="M327.308,-315.831C344.91,-315.59 363.389,-315.337 380.802,-315.099"/>
<polygon fill="midnightblue" stroke="midnightblue" points="327.012,-312.335 317.061,-315.972 327.108,-319.334 327.012,-312.335"/>
</g>
<!-- Node8 -->
<g id="node8" class="node"><title>Node8</title>
<g id="a_node8"><a xlink:href="../../d0/d96/classback_end_1_1_predator_prey.html#aa032c15c617e2da8e1ab1a065413fb06" target="_top" xlink:title="backEnd.PredatorPrey.make\lNextGrid">
<polygon fill="white" stroke="black" points="611.5,-299 611.5,-329 762.5,-329 762.5,-299 611.5,-299"/>
<text text-anchor="start" x="619.5" y="-317" font-family="Helvetica,sans-Serif" font-size="10.00">backEnd.PredatorPrey.make</text>
<text text-anchor="middle" x="687" y="-306" font-family="Helvetica,sans-Serif" font-size="10.00">NextGrid</text>
</a>
</g>
</g>
<!-- Node7&#45;&gt;Node8 -->
<g id="edge8" class="edge"><title>Node7&#45;&gt;Node8</title>
<path fill="none" stroke="midnightblue" d="M553.197,-314C572.507,-314 592.702,-314 611.348,-314"/>
<polygon fill="midnightblue" stroke="midnightblue" points="553.193,-310.5 543.193,-314 553.193,-317.5 553.193,-310.5"/>
</g>
<!-- Node8&#45;&gt;Node5 -->
<g id="edge9" class="edge"><title>Node8&#45;&gt;Node5</title>
<path fill="none" stroke="midnightblue" d="M772.984,-324.198C785.266,-325.672 797.857,-327.183 809.993,-328.639"/>
<polygon fill="midnightblue" stroke="midnightblue" points="773.103,-320.687 762.757,-322.971 772.269,-327.637 773.103,-320.687"/>
</g>
<!-- Node11 -->
<g id="node11" class="node"><title>Node11</title>
<g id="a_node11"><a xlink:href="../../de/d5a/classback_end_1_1_spreading_fire.html#a14b959c163a3a935ef7856c045b13eeb" target="_top" xlink:title="backEnd.SpreadingFire.getNext">
<polygon fill="white" stroke="black" points="378.5,-251.5 378.5,-270.5 545.5,-270.5 545.5,-251.5 378.5,-251.5"/>
<text text-anchor="middle" x="462" y="-258.5" font-family="Helvetica,sans-Serif" font-size="10.00">backEnd.SpreadingFire.getNext</text>
</a>
</g>
</g>
<!-- Node10&#45;&gt;Node11 -->
<g id="edge12" class="edge"><title>Node10&#45;&gt;Node11</title>
<path fill="none" stroke="midnightblue" d="M307.372,-209.414C313.058,-211.471 318.671,-213.671 324,-216 340.973,-223.418 342.803,-230.118 360,-237 375.143,-243.06 392.202,-247.835 407.929,-251.476"/>
<polygon fill="midnightblue" stroke="midnightblue" points="308.366,-206.054 297.771,-206.09 306.076,-212.669 308.366,-206.054"/>
</g>
<!-- Node13 -->
<g id="node13" class="node"><title>Node13</title>
<g id="a_node13"><a xlink:href="../../de/d49/classback_end_1_1_sugar_scape.html#a35c8ec7798b62668018c0992b6f8a991" target="_top" xlink:title="backEnd.SugarScape.growSugar">
<polygon fill="white" stroke="black" points="600.5,-213.5 600.5,-232.5 773.5,-232.5 773.5,-213.5 600.5,-213.5"/>
<text text-anchor="middle" x="687" y="-220.5" font-family="Helvetica,sans-Serif" font-size="10.00">backEnd.SugarScape.growSugar</text>
</a>
</g>
</g>
<!-- Node12&#45;&gt;Node13 -->
<g id="edge14" class="edge"><title>Node12&#45;&gt;Node13</title>
<path fill="none" stroke="midnightblue" d="M304.584,-159.285C311.234,-161.243 317.82,-163.473 324,-166 341.356,-173.096 342.247,-181.964 360,-188 438.548,-214.707 533.327,-222.349 600.393,-223.977"/>
<polygon fill="midnightblue" stroke="midnightblue" points="305.405,-155.88 294.835,-156.606 303.551,-162.63 305.405,-155.88"/>
</g>
<!-- Node15 -->
<g id="node15" class="node"><title>Node15</title>
<g id="a_node15"><a xlink:href="../../de/d49/classback_end_1_1_sugar_scape.html#a13186ddb64e70b5941d0cd12163c3e84" target="_top" xlink:title="backEnd.SugarScape.getNext">
<polygon fill="white" stroke="black" points="607,-175.5 607,-194.5 767,-194.5 767,-175.5 607,-175.5"/>
<text text-anchor="middle" x="687" y="-182.5" font-family="Helvetica,sans-Serif" font-size="10.00">backEnd.SugarScape.getNext</text>
</a>
</g>
</g>
<!-- Node12&#45;&gt;Node15 -->
<g id="edge16" class="edge"><title>Node12&#45;&gt;Node15</title>
<path fill="none" stroke="midnightblue" d="M303.935,-158.184C321.963,-161.11 341.724,-164.001 360,-166 443.972,-175.184 540.631,-180.113 606.763,-182.63"/>
<polygon fill="midnightblue" stroke="midnightblue" points="304.27,-154.691 293.833,-156.511 303.127,-161.598 304.27,-154.691"/>
</g>
<!-- Node16 -->
<g id="node16" class="node"><title>Node16</title>
<g id="a_node16"><a xlink:href="../../de/d49/classback_end_1_1_sugar_scape.html#aef8d78e2988a976344c3b83a9259d519" target="_top" xlink:title="backEnd.SugarScape.getNeighbors">
<polygon fill="white" stroke="black" points="369,-137.5 369,-156.5 555,-156.5 555,-137.5 369,-137.5"/>
<text text-anchor="middle" x="462" y="-144.5" font-family="Helvetica,sans-Serif" font-size="10.00">backEnd.SugarScape.getNeighbors</text>
</a>
</g>
</g>
<!-- Node12&#45;&gt;Node16 -->
<g id="edge18" class="edge"><title>Node12&#45;&gt;Node16</title>
<path fill="none" stroke="midnightblue" d="M330.199,-147C342.868,-147 355.933,-147 368.68,-147"/>
<polygon fill="midnightblue" stroke="midnightblue" points="330.137,-143.5 320.137,-147 330.136,-150.5 330.137,-143.5"/>
</g>
<!-- Node17 -->
<g id="node17" class="node"><title>Node17</title>
<g id="a_node17"><a xlink:href="../../de/d49/classback_end_1_1_sugar_scape.html#a9be1da134b1e998ed27dba1b82b1a4f4" target="_top" xlink:title="backEnd.SugarScape.randomize\lSugar">
<polygon fill="white" stroke="black" points="375.5,-88 375.5,-118 548.5,-118 548.5,-88 375.5,-88"/>
<text text-anchor="start" x="383.5" y="-106" font-family="Helvetica,sans-Serif" font-size="10.00">backEnd.SugarScape.randomize</text>
<text text-anchor="middle" x="462" y="-95" font-family="Helvetica,sans-Serif" font-size="10.00">Sugar</text>
</a>
</g>
</g>
<!-- Node12&#45;&gt;Node17 -->
<g id="edge20" class="edge"><title>Node12&#45;&gt;Node17</title>
<path fill="none" stroke="midnightblue" d="M299.392,-135.469C325.877,-130.148 357.666,-123.761 386.016,-118.065"/>
<polygon fill="midnightblue" stroke="midnightblue" points="298.634,-132.051 289.52,-137.453 300.013,-138.914 298.634,-132.051"/>
</g>
<!-- Node18 -->
<g id="node18" class="node"><title>Node18</title>
<g id="a_node18"><a xlink:href="../../de/d49/classback_end_1_1_sugar_scape.html#a4f6e2db365ea19041ac0cf88cdc8c183" target="_top" xlink:title="backEnd.SugarScape.testRandomness">
<polygon fill="white" stroke="black" points="360.5,-49.5 360.5,-68.5 563.5,-68.5 563.5,-49.5 360.5,-49.5"/>
<text text-anchor="middle" x="462" y="-56.5" font-family="Helvetica,sans-Serif" font-size="10.00">backEnd.SugarScape.testRandomness</text>
</a>
</g>
</g>
<!-- Node12&#45;&gt;Node18 -->
<g id="edge21" class="edge"><title>Node12&#45;&gt;Node18</title>
<path fill="none" stroke="midnightblue" d="M314.177,-133.549C317.6,-131.906 320.898,-130.065 324,-128 346.796,-112.828 336.893,-92.6927 360,-78 366.023,-74.1706 372.629,-71.074 379.49,-68.5747"/>
<polygon fill="midnightblue" stroke="midnightblue" points="312.738,-130.357 304.868,-137.45 315.444,-136.813 312.738,-130.357"/>
</g>
<!-- Node14 -->
<g id="node14" class="node"><title>Node14</title>
<g id="a_node14"><a xlink:href="../../de/d49/classback_end_1_1_sugar_scape.html#ab0c2eb832afef056e0a72aea2bf8ddc1" target="_top" xlink:title="backEnd.SugarScape.update">
<polygon fill="white" stroke="black" points="811.5,-194.5 811.5,-213.5 966.5,-213.5 966.5,-194.5 811.5,-194.5"/>
<text text-anchor="middle" x="889" y="-201.5" font-family="Helvetica,sans-Serif" font-size="10.00">backEnd.SugarScape.update</text>
</a>
</g>
</g>
<!-- Node13&#45;&gt;Node14 -->
<g id="edge15" class="edge"><title>Node13&#45;&gt;Node14</title>
<path fill="none" stroke="midnightblue" d="M783.707,-213.908C792.972,-213.028 802.286,-212.143 811.33,-211.284"/>
<polygon fill="midnightblue" stroke="midnightblue" points="783.312,-210.429 773.688,-214.86 783.975,-217.398 783.312,-210.429"/>
</g>
<!-- Node15&#45;&gt;Node14 -->
<g id="edge17" class="edge"><title>Node15&#45;&gt;Node14</title>
<path fill="none" stroke="midnightblue" d="M777.071,-193.462C788.554,-194.553 800.231,-195.662 811.488,-196.731"/>
<polygon fill="midnightblue" stroke="midnightblue" points="777.332,-189.971 767.045,-192.509 776.669,-196.939 777.332,-189.971"/>
</g>
<!-- Node16&#45;&gt;Node15 -->
<g id="edge19" class="edge"><title>Node16&#45;&gt;Node15</title>
<path fill="none" stroke="midnightblue" d="M529.172,-158.276C561.254,-163.743 599.371,-170.238 629.992,-175.456"/>
<polygon fill="midnightblue" stroke="midnightblue" points="529.43,-154.77 518.984,-156.54 528.254,-161.67 529.43,-154.77"/>
</g>
<!-- Node19&#45;&gt;Node7 -->
<g id="edge23" class="edge"><title>Node19&#45;&gt;Node7</title>
<path fill="none" stroke="midnightblue" d="M306.822,-247.448C312.735,-249.349 318.545,-251.521 324,-254 341.968,-262.166 342.449,-270.972 360,-280 380.237,-290.41 404.343,-298.665 423.929,-304.434"/>
<polygon fill="midnightblue" stroke="midnightblue" points="307.401,-243.97 296.82,-244.501 305.423,-250.685 307.401,-243.97"/>
</g>
<!-- Node22 -->
<g id="node22" class="node"><title>Node22</title>
<g id="a_node22"><a xlink:href="../../dc/da1/classfront_end_1_1_animator_loop.html#abadf9135a2378edada1bde19397c3c76" target="_top" xlink:title="frontEnd.AnimatorLoop.update\lCells">
<polygon fill="white" stroke="black" points="380,-0 380,-30 544,-30 544,-0 380,-0"/>
<text text-anchor="start" x="388" y="-18" font-family="Helvetica,sans-Serif" font-size="10.00">frontEnd.AnimatorLoop.update</text>
<text text-anchor="middle" x="462" y="-7" font-family="Helvetica,sans-Serif" font-size="10.00">Cells</text>
</a>
</g>
</g>
<!-- Node21&#45;&gt;Node22 -->
<g id="edge26" class="edge"><title>Node21&#45;&gt;Node22</title>
<path fill="none" stroke="midnightblue" d="M333.309,-29.5766C348.766,-27.8121 364.721,-25.9907 379.895,-24.2586"/>
<polygon fill="midnightblue" stroke="midnightblue" points="332.775,-26.1148 323.236,-30.7264 333.569,-33.0696 332.775,-26.1148"/>
</g>
</g>
</svg>
        <g id="navigator" transform="translate(0 0)" fill="#404254">
                <rect fill="#f2f5e9" fill-opacity="0.5" stroke="#606060" stroke-width=".5" x="0" y="0" width="60" height="60"/>
                <use id="zoomplus" xlink:href="#zoomPlus" x="17" y="9" onmousedown="handleZoom(evt,'in')"/>
                <use id="zoomminus" xlink:href="#zoomMin" x="42" y="9" onmousedown="handleZoom(evt,'out')"/>
                <use id="reset" xlink:href="#resetDef" x="30" y="36" onmousedown="handleReset()"/>
                <g id="arrowUp" xlink:href="#dirArrow" transform="translate(30 24)" onmousedown="handlePan(0,-1)">
                  <use xlink:href="#rim" fill="#404040">
                        <set attributeName="fill" to="#808080" begin="arrowUp.mouseover" end="arrowUp.mouseout"/>
                  </use>
                  <path fill="none" stroke="white" stroke-width="1.5" d="M0,-3.0v7 M-2.5,-0.5L0,-3.0L2.5,-0.5"/>
                </g>
                <g id="arrowRight" xlink:href="#dirArrow" transform="rotate(90) translate(36 -43)" onmousedown="handlePan(1,0)">
                  <use xlink:href="#rim" fill="#404040">
                        <set attributeName="fill" to="#808080" begin="arrowRight.mouseover" end="arrowRight.mouseout"/>
                  </use>
                  <path fill="none" stroke="white" stroke-width="1.5" d="M0,-3.0v7 M-2.5,-0.5L0,-3.0L2.5,-0.5"/>
                </g>
                <g id="arrowDown" xlink:href="#dirArrow" transform="rotate(180) translate(-30 -48)" onmousedown="handlePan(0,1)">
                  <use xlink:href="#rim" fill="#404040">
                        <set attributeName="fill" to="#808080" begin="arrowDown.mouseover" end="arrowDown.mouseout"/>
                  </use>
                  <path fill="none" stroke="white" stroke-width="1.5" d="M0,-3.0v7 M-2.5,-0.5L0,-3.0L2.5,-0.5"/>
                </g>
                <g id="arrowLeft" xlink:href="#dirArrow" transform="rotate(270) translate(-36 17)" onmousedown="handlePan(-1,0)">
                  <use xlink:href="#rim" fill="#404040">
                        <set attributeName="fill" to="#808080" begin="arrowLeft.mouseover" end="arrowLeft.mouseout"/>
                  </use>
                  <path fill="none" stroke="white" stroke-width="1.5" d="M0,-3.0v7 M-2.5,-0.5L0,-3.0L2.5,-0.5"/>
                </g>
        </g>
        <svg viewBox="0 0 15 15" width="100%" height="30px" preserveAspectRatio="xMaxYMin meet">
         <g id="arrow_out" transform="scale(0.3 0.3)">
          <a xlink:href="classback_end_1_1_patch_a8d97ca84fd6d69378e9fc0b96eff7cb9_icgraph_org.svg" target="_base">
           <rect id="button" ry="5" rx="5" y="6" x="6" height="38" width="38"
                fill="#f2f5e9" fill-opacity="0.5" stroke="#606060" stroke-width="1.0"/>
           <path id="arrow"
             d="M 11.500037,31.436501 C 11.940474,20.09759 22.043105,11.32322 32.158766,21.979434 L 37.068811,17.246167 C 37.068811,17.246167 37.088388,32 37.088388,32 L 22.160133,31.978069 C 22.160133,31.978069 26.997745,27.140456 26.997745,27.140456 C 18.528582,18.264221 13.291696,25.230495 11.500037,31.436501 z"
             style="fill:#404040;"/>
          </a>
         </g>
        </svg>
</svg>
