<?xml version="1.0" encoding="UTF-8" standalone="no"?>
<!DOCTYPE svg PUBLIC "-//W3C//DTD SVG 1.1//EN"
 "http://www.w3.org/Graphics/SVG/1.1/DTD/svg11.dtd">
<!-- Generated by graphviz version 2.36.0 (20140111.2315)
 -->
<!-- Title: backEnd.Patch.getMyCellState Pages: 1 -->
<svg width="1132pt" height="168pt"
 viewBox="0.00 0.00 1132.00 168.00" xmlns="http://www.w3.org/2000/svg" xmlns:xlink="http://www.w3.org/1999/xlink">
<g id="graph0" class="graph" transform="scale(1 1) rotate(0) translate(4 164)">
<title>backEnd.Patch.getMyCellState</title>
<polygon fill="white" stroke="none" points="-4,4 -4,-164 1128,-164 1128,4 -4,4"/>
<!-- Node1 -->
<g id="node1" class="node"><title>Node1</title>
<polygon fill="#bfbfbf" stroke="black" points="0,-69.5 0,-88.5 162,-88.5 162,-69.5 0,-69.5"/>
<text text-anchor="middle" x="81" y="-76.5" font-family="Helvetica,sans-Serif" font-size="10.00">backEnd.Patch.getMyCellState</text>
</g>
<!-- Node2 -->
<g id="node2" class="node"><title>Node2</title>
<g id="a_node2"><a xlink:href="../../d0/d96/classback_end_1_1_predator_prey.html#acb81c56992e5c1bc58a34daa5b04e9aa" target="_top" xlink:title="backEnd.PredatorPrey.check\lBreed">
<polygon fill="white" stroke="black" points="201,-130 201,-160 353,-160 353,-130 201,-130"/>
<text text-anchor="start" x="209" y="-148" font-family="Helvetica,sans-Serif" font-size="10.00">backEnd.PredatorPrey.check</text>
<text text-anchor="middle" x="277" y="-137" font-family="Helvetica,sans-Serif" font-size="10.00">Breed</text>
</a>
</g>
</g>
<!-- Node1&#45;&gt;Node2 -->
<g id="edge1" class="edge"><title>Node1&#45;&gt;Node2</title>
<path fill="none" stroke="midnightblue" d="M120.088,-91.9578C152.108,-102.851 197.914,-118.435 231.594,-129.893"/>
<polygon fill="midnightblue" stroke="midnightblue" points="120.804,-88.5043 110.209,-88.597 118.549,-95.1313 120.804,-88.5043"/>
</g>
<!-- Node5 -->
<g id="node5" class="node"><title>Node5</title>
<g id="a_node5"><a xlink:href="../../d0/d96/classback_end_1_1_predator_prey.html#ab8aeaa141af352c221182d3b427cc492" target="_top" xlink:title="backEnd.PredatorPrey.check\lStarve">
<polygon fill="white" stroke="black" points="392,-88 392,-118 544,-118 544,-88 392,-88"/>
<text text-anchor="start" x="400" y="-106" font-family="Helvetica,sans-Serif" font-size="10.00">backEnd.PredatorPrey.check</text>
<text text-anchor="middle" x="468" y="-95" font-family="Helvetica,sans-Serif" font-size="10.00">Starve</text>
</a>
</g>
</g>
<!-- Node1&#45;&gt;Node5 -->
<g id="edge4" class="edge"><title>Node1&#45;&gt;Node5</title>
<path fill="none" stroke="midnightblue" d="M172.33,-84.631C239.078,-88.7919 328.902,-94.3913 391.768,-98.3102"/>
<polygon fill="midnightblue" stroke="midnightblue" points="172.438,-81.131 162.24,-84.002 172.003,-88.1175 172.438,-81.131"/>
</g>
<!-- Node6 -->
<g id="node6" class="node"><title>Node6</title>
<g id="a_node6"><a xlink:href="../../d0/d96/classback_end_1_1_predator_prey.html#aecfa40f92acce8997492d12cefd08b48" target="_top" xlink:title="backEnd.PredatorPrey.getNext">
<polygon fill="white" stroke="black" points="580,-52.5 580,-71.5 742,-71.5 742,-52.5 580,-52.5"/>
<text text-anchor="middle" x="661" y="-59.5" font-family="Helvetica,sans-Serif" font-size="10.00">backEnd.PredatorPrey.getNext</text>
</a>
</g>
</g>
<!-- Node1&#45;&gt;Node6 -->
<g id="edge11" class="edge"><title>Node1&#45;&gt;Node6</title>
<path fill="none" stroke="midnightblue" d="M172.306,-76.3439C284.111,-73.0556 472.818,-67.5054 579.757,-64.3601"/>
<polygon fill="midnightblue" stroke="midnightblue" points="171.958,-72.8526 162.065,-76.6452 172.163,-79.8496 171.958,-72.8526"/>
</g>
<!-- Node8 -->
<g id="node8" class="node"><title>Node8</title>
<g id="a_node8"><a xlink:href="../../d0/d96/classback_end_1_1_predator_prey.html#ae2c9b91296f82e101e9dd0ea350d3f62" target="_top" xlink:title="backEnd.PredatorPrey.eatFish">
<polygon fill="white" stroke="black" points="198,-8.5 198,-27.5 356,-27.5 356,-8.5 198,-8.5"/>
<text text-anchor="middle" x="277" y="-15.5" font-family="Helvetica,sans-Serif" font-size="10.00">backEnd.PredatorPrey.eatFish</text>
</a>
</g>
</g>
<!-- Node1&#45;&gt;Node8 -->
<g id="edge8" class="edge"><title>Node1&#45;&gt;Node8</title>
<path fill="none" stroke="midnightblue" d="M122.187,-66.3639C158.879,-54.8266 212.321,-38.0227 245.581,-27.5648"/>
<polygon fill="midnightblue" stroke="midnightblue" points="120.802,-63.1303 112.312,-69.4688 122.902,-69.808 120.802,-63.1303"/>
</g>
<!-- Node3 -->
<g id="node3" class="node"><title>Node3</title>
<g id="a_node3"><a xlink:href="../../d0/d96/classback_end_1_1_predator_prey.html#ac9689f0a85de526bd6d2f1e23657dfe8" target="_top" xlink:title="backEnd.PredatorPrey.breed\lIfNecessary">
<polygon fill="white" stroke="black" points="585,-129 585,-159 737,-159 737,-129 585,-129"/>
<text text-anchor="start" x="593" y="-147" font-family="Helvetica,sans-Serif" font-size="10.00">backEnd.PredatorPrey.breed</text>
<text text-anchor="middle" x="661" y="-136" font-family="Helvetica,sans-Serif" font-size="10.00">IfNecessary</text>
</a>
</g>
</g>
<!-- Node2&#45;&gt;Node3 -->
<g id="edge2" class="edge"><title>Node2&#45;&gt;Node3</title>
<path fill="none" stroke="midnightblue" d="M363.046,-144.777C429.515,-144.603 521.027,-144.364 584.831,-144.197"/>
<polygon fill="midnightblue" stroke="midnightblue" points="363.006,-141.277 353.015,-144.804 363.024,-148.277 363.006,-141.277"/>
</g>
<!-- Node4 -->
<g id="node4" class="node"><title>Node4</title>
<g id="a_node4"><a xlink:href="../../d0/d96/classback_end_1_1_predator_prey.html#acf219a8748ddb0ed02c2202a3b3d6b37" target="_top" xlink:title="backEnd.PredatorPrey.update">
<polygon fill="white" stroke="black" points="966,-84.5 966,-103.5 1124,-103.5 1124,-84.5 966,-84.5"/>
<text text-anchor="middle" x="1045" y="-91.5" font-family="Helvetica,sans-Serif" font-size="10.00">backEnd.PredatorPrey.update</text>
</a>
</g>
</g>
<!-- Node3&#45;&gt;Node4 -->
<g id="edge3" class="edge"><title>Node3&#45;&gt;Node4</title>
<path fill="none" stroke="midnightblue" d="M747.163,-132.853C814.415,-124.05 907.251,-111.899 971.102,-103.542"/>
<polygon fill="midnightblue" stroke="midnightblue" points="746.476,-129.413 737.015,-134.181 747.385,-136.354 746.476,-129.413"/>
</g>
<!-- Node5&#45;&gt;Node6 -->
<g id="edge5" class="edge"><title>Node5&#45;&gt;Node6</title>
<path fill="none" stroke="midnightblue" d="M549.032,-85.8204C571.762,-80.941 595.694,-75.8039 615.49,-71.5545"/>
<polygon fill="midnightblue" stroke="midnightblue" points="548.079,-82.445 539.037,-87.9659 549.549,-89.2891 548.079,-82.445"/>
</g>
<!-- Node7 -->
<g id="node7" class="node"><title>Node7</title>
<g id="a_node7"><a xlink:href="../../d0/d96/classback_end_1_1_predator_prey.html#aa032c15c617e2da8e1ab1a065413fb06" target="_top" xlink:title="backEnd.PredatorPrey.make\lNextGrid">
<polygon fill="white" stroke="black" points="778.5,-52 778.5,-82 929.5,-82 929.5,-52 778.5,-52"/>
<text text-anchor="start" x="786.5" y="-70" font-family="Helvetica,sans-Serif" font-size="10.00">backEnd.PredatorPrey.make</text>
<text text-anchor="middle" x="854" y="-59" font-family="Helvetica,sans-Serif" font-size="10.00">NextGrid</text>
</a>
</g>
</g>
<!-- Node6&#45;&gt;Node7 -->
<g id="edge6" class="edge"><title>Node6&#45;&gt;Node7</title>
<path fill="none" stroke="midnightblue" d="M752.31,-64.3641C760.984,-64.5912 769.715,-64.8198 778.216,-65.0423"/>
<polygon fill="midnightblue" stroke="midnightblue" points="752.259,-60.8617 742.171,-64.0987 752.076,-67.8593 752.259,-60.8617"/>
</g>
<!-- Node7&#45;&gt;Node4 -->
<g id="edge7" class="edge"><title>Node7&#45;&gt;Node4</title>
<path fill="none" stroke="midnightblue" d="M939.707,-79.101C952.272,-80.8959 965.069,-82.7242 977.199,-84.4571"/>
<polygon fill="midnightblue" stroke="midnightblue" points="940.092,-75.6206 929.698,-77.6711 939.102,-82.5502 940.092,-75.6206"/>
</g>
<!-- Node9 -->
<g id="node9" class="node"><title>Node9</title>
<g id="a_node9"><a xlink:href="../../d0/d96/classback_end_1_1_predator_prey.html#afbf1847ebcb9a605eec41be73dec7c8c" target="_top" xlink:title="backEnd.PredatorPrey.check\lForFishAndMove">
<polygon fill="white" stroke="black" points="392,-0 392,-30 544,-30 544,-0 392,-0"/>
<text text-anchor="start" x="400" y="-18" font-family="Helvetica,sans-Serif" font-size="10.00">backEnd.PredatorPrey.check</text>
<text text-anchor="middle" x="468" y="-7" font-family="Helvetica,sans-Serif" font-size="10.00">ForFishAndMove</text>
</a>
</g>
</g>
<!-- Node8&#45;&gt;Node9 -->
<g id="edge9" class="edge"><title>Node8&#45;&gt;Node9</title>
<path fill="none" stroke="midnightblue" d="M366.243,-16.5993C374.807,-16.4634 383.44,-16.3263 391.859,-16.1927"/>
<polygon fill="midnightblue" stroke="midnightblue" points="366.181,-13.0998 356.238,-16.7581 366.292,-20.0989 366.181,-13.0998"/>
</g>
<!-- Node9&#45;&gt;Node6 -->
<g id="edge10" class="edge"><title>Node9&#45;&gt;Node6</title>
<path fill="none" stroke="midnightblue" d="M539.943,-32.4572C567.452,-39.2265 597.878,-46.7135 621.217,-52.4566"/>
<polygon fill="midnightblue" stroke="midnightblue" points="540.505,-28.9912 529.959,-30.0003 538.833,-35.7885 540.505,-28.9912"/>
</g>
</g>
</svg>
