<?xml version="1.0" encoding="UTF-8" standalone="no"?>
<!DOCTYPE svg PUBLIC "-//W3C//DTD SVG 1.1//EN"
 "http://www.w3.org/Graphics/SVG/1.1/DTD/svg11.dtd">
<!-- Generated by graphviz version 2.36.0 (20140111.2315)
 -->
<!-- Title: frontEnd.AnimatorLoop Pages: 1 -->
<svg width="1114pt" height="420pt"
 viewBox="0.00 0.00 1114.00 419.85" xmlns="http://www.w3.org/2000/svg" xmlns:xlink="http://www.w3.org/1999/xlink">
<g id="graph0" class="graph" transform="scale(1 1) rotate(0) translate(4 415.853)">
<title>frontEnd.AnimatorLoop</title>
<polygon fill="white" stroke="none" points="-4,4 -4,-415.853 1110,-415.853 1110,4 -4,4"/>
<!-- Node1 -->
<g id="node1" class="node"><title>Node1</title>
<polygon fill="#bfbfbf" stroke="black" points="978,-178.353 978,-197.353 1106,-197.353 1106,-178.353 978,-178.353"/>
<text text-anchor="middle" x="1042" y="-185.353" font-family="Helvetica,sans-Serif" font-size="10.00">frontEnd.AnimatorLoop</text>
</g>
<!-- Node2 -->
<g id="node2" class="node"><title>Node2</title>
<g id="a_node2"><a xlink:href="../../d4/d6c/classshape_factories_1_1_shape_factory.html" target="_top" xlink:title="shapeFactories.ShapeFactory">
<polygon fill="white" stroke="black" points="626.5,-353.353 626.5,-372.353 783.5,-372.353 783.5,-353.353 626.5,-353.353"/>
<text text-anchor="middle" x="705" y="-360.353" font-family="Helvetica,sans-Serif" font-size="10.00">shapeFactories.ShapeFactory</text>
</a>
</g>
</g>
<!-- Node2&#45;&gt;Node1 -->
<g id="edge1" class="edge"><title>Node2&#45;&gt;Node1</title>
<path fill="none" stroke="#9a32cd" stroke-dasharray="5,2" d="M785.577,-372.977C839.15,-375.67 909.046,-370.78 960,-336.853 1011.22,-302.747 1032.8,-225.018 1038.99,-197.627"/>
<polygon fill="#9a32cd" stroke="#9a32cd" points="785.624,-369.473 775.432,-372.367 785.204,-376.461 785.624,-369.473"/>
<text text-anchor="middle" x="882" y="-375.853" font-family="Helvetica,sans-Serif" font-size="10.00"> myShapeBuilder</text>
</g>
<!-- Node3 -->
<g id="node3" class="node"><title>Node3</title>
<g id="a_node3"><a xlink:href="../../db/d5e/classback_end_1_1_patch.html" target="_top" xlink:title="backEnd.Patch">
<polygon fill="white" stroke="black" points="392,-236.353 392,-255.353 478,-255.353 478,-236.353 392,-236.353"/>
<text text-anchor="middle" x="435" y="-243.353" font-family="Helvetica,sans-Serif" font-size="10.00">backEnd.Patch</text>
</a>
</g>
</g>
<!-- Node3&#45;&gt;Node1 -->
<g id="edge2" class="edge"><title>Node3&#45;&gt;Node1</title>
<path fill="none" stroke="#9a32cd" stroke-dasharray="5,2" d="M488.426,-243.311C582.974,-238.337 788.199,-225.749 960,-202.853 971.057,-201.379 982.896,-199.411 994.014,-197.386"/>
<polygon fill="#9a32cd" stroke="#9a32cd" points="488.072,-239.825 478.267,-243.839 488.435,-246.815 488.072,-239.825"/>
<text text-anchor="middle" x="705" y="-238.853" font-family="Helvetica,sans-Serif" font-size="10.00"> myPatches</text>
</g>
<!-- Node11 -->
<g id="node11" class="node"><title>Node11</title>
<g id="a_node11"><a xlink:href="../../d1/dfc/classback_end_1_1_rule_set.html" target="_top" xlink:title="backEnd.RuleSet">
<polygon fill="white" stroke="black" points="657,-277.353 657,-296.353 753,-296.353 753,-277.353 657,-277.353"/>
<text text-anchor="middle" x="705" y="-284.353" font-family="Helvetica,sans-Serif" font-size="10.00">backEnd.RuleSet</text>
</a>
</g>
</g>
<!-- Node3&#45;&gt;Node11 -->
<g id="edge11" class="edge"><title>Node3&#45;&gt;Node11</title>
<path fill="none" stroke="#9a32cd" stroke-dasharray="5,2" d="M488.223,-253.842C537.087,-261.318 609.443,-272.387 656.66,-279.61"/>
<polygon fill="#9a32cd" stroke="#9a32cd" points="488.584,-250.357 478.17,-252.304 487.525,-257.276 488.584,-250.357"/>
<text text-anchor="middle" x="561" y="-274.853" font-family="Helvetica,sans-Serif" font-size="10.00"> myPatches</text>
</g>
<!-- Node4 -->
<g id="node4" class="node"><title>Node4</title>
<polygon fill="white" stroke="#bfbfbf" points="221.5,-243.353 221.5,-262.353 284.5,-262.353 284.5,-243.353 221.5,-243.353"/>
<text text-anchor="middle" x="253" y="-250.353" font-family="Helvetica,sans-Serif" font-size="10.00">Rectangle</text>
</g>
<!-- Node4&#45;&gt;Node3 -->
<g id="edge3" class="edge"><title>Node4&#45;&gt;Node3</title>
<path fill="none" stroke="midnightblue" d="M294.728,-251.269C323.703,-250.142 362.527,-248.632 391.823,-247.493"/>
<polygon fill="midnightblue" stroke="midnightblue" points="294.391,-247.779 284.535,-251.665 294.663,-254.774 294.391,-247.779"/>
</g>
<!-- Node5 -->
<g id="node5" class="node"><title>Node5</title>
<g id="a_node5"><a xlink:href="../../d0/d08/classback_end_1_1_cell.html" target="_top" xlink:title="backEnd.Cell">
<polygon fill="white" stroke="black" points="214.5,-205.353 214.5,-224.353 291.5,-224.353 291.5,-205.353 214.5,-205.353"/>
<text text-anchor="middle" x="253" y="-212.353" font-family="Helvetica,sans-Serif" font-size="10.00">backEnd.Cell</text>
</a>
</g>
</g>
<!-- Node5&#45;&gt;Node3 -->
<g id="edge4" class="edge"><title>Node5&#45;&gt;Node3</title>
<path fill="none" stroke="#9a32cd" stroke-dasharray="5,2" d="M301.718,-223.071C329.763,-227.901 364.898,-233.952 391.908,-238.604"/>
<polygon fill="#9a32cd" stroke="#9a32cd" points="302.183,-219.599 291.734,-221.351 300.995,-226.498 302.183,-219.599"/>
<text text-anchor="middle" x="332" y="-234.853" font-family="Helvetica,sans-Serif" font-size="10.00"> myCell</text>
</g>
<!-- Node6 -->
<g id="node6" class="node"><title>Node6</title>
<polygon fill="white" stroke="#bfbfbf" points="0.5,-205.353 0.5,-224.353 125.5,-224.353 125.5,-205.353 0.5,-205.353"/>
<text text-anchor="middle" x="63" y="-212.353" font-family="Helvetica,sans-Serif" font-size="10.00">List&lt; backEnd.State &gt;</text>
</g>
<!-- Node6&#45;&gt;Node5 -->
<g id="edge5" class="edge"><title>Node6&#45;&gt;Node5</title>
<path fill="none" stroke="#9a32cd" stroke-dasharray="5,2" d="M135.695,-214.853C162.525,-214.853 191.927,-214.853 214.457,-214.853"/>
<polygon fill="#9a32cd" stroke="#9a32cd" points="135.558,-211.353 125.558,-214.853 135.558,-218.353 135.558,-211.353"/>
<text text-anchor="middle" x="170" y="-217.853" font-family="Helvetica,sans-Serif" font-size="10.00"> myHistory</text>
</g>
<!-- Node7 -->
<g id="node7" class="node"><title>Node7</title>
<polygon fill="white" stroke="#bfbfbf" points="678,-178.353 678,-197.353 732,-197.353 732,-178.353 678,-178.353"/>
<text text-anchor="middle" x="705" y="-185.353" font-family="Helvetica,sans-Serif" font-size="10.00">Polygon</text>
</g>
<!-- Node7&#45;&gt;Node1 -->
<g id="edge6" class="edge"><title>Node7&#45;&gt;Node1</title>
<path fill="none" stroke="#9a32cd" stroke-dasharray="5,2" d="M742.228,-187.853C798.644,-187.853 908.222,-187.853 977.839,-187.853"/>
<polygon fill="#9a32cd" stroke="#9a32cd" points="742.008,-184.353 732.008,-187.853 742.008,-191.353 742.008,-184.353"/>
<text text-anchor="middle" x="882" y="-190.853" font-family="Helvetica,sans-Serif" font-size="10.00"> myGUICells</text>
</g>
<!-- Node8 -->
<g id="node8" class="node"><title>Node8</title>
<g id="a_node8"><a xlink:href="../../d5/d51/classfront_end_1_1_c_a_settings.html" target="_top" xlink:title="frontEnd.CASettings">
<polygon fill="white" stroke="black" points="648.5,-315.353 648.5,-334.353 761.5,-334.353 761.5,-315.353 648.5,-315.353"/>
<text text-anchor="middle" x="705" y="-322.353" font-family="Helvetica,sans-Serif" font-size="10.00">frontEnd.CASettings</text>
</a>
</g>
</g>
<!-- Node8&#45;&gt;Node1 -->
<g id="edge7" class="edge"><title>Node8&#45;&gt;Node1</title>
<path fill="none" stroke="#9a32cd" stroke-dasharray="5,2" d="M771.729,-323.195C836.109,-320.541 928.932,-313.661 960,-295.853 1000.87,-272.425 1027.5,-219.207 1037.05,-197.422"/>
<polygon fill="#9a32cd" stroke="#9a32cd" points="771.511,-319.7 761.654,-323.585 771.782,-326.695 771.511,-319.7"/>
<text text-anchor="middle" x="882" y="-324.853" font-family="Helvetica,sans-Serif" font-size="10.00"> mySettings</text>
</g>
<!-- Node9 -->
<g id="node9" class="node"><title>Node9</title>
<polygon fill="white" stroke="#bfbfbf" points="372.5,-378.353 372.5,-397.353 497.5,-397.353 497.5,-378.353 372.5,-378.353"/>
<text text-anchor="middle" x="435" y="-385.353" font-family="Helvetica,sans-Serif" font-size="10.00">Map&lt; String, Object &gt;</text>
</g>
<!-- Node9&#45;&gt;Node8 -->
<g id="edge8" class="edge"><title>Node9&#45;&gt;Node8</title>
<path fill="none" stroke="#9a32cd" stroke-dasharray="5,2" d="M488.346,-398.869C524.308,-403.471 571.584,-403.381 606,-380.853 621.301,-370.837 609.73,-355.289 624,-343.853 631.018,-338.229 639.427,-334.222 648.117,-331.377"/>
<polygon fill="#9a32cd" stroke="#9a32cd" points="488.447,-395.347 478.05,-397.386 487.449,-402.276 488.447,-395.347"/>
<text text-anchor="middle" x="561" y="-403.853" font-family="Helvetica,sans-Serif" font-size="10.00"> myParameters</text>
</g>
<!-- Node9&#45;&gt;Node11 -->
<g id="edge12" class="edge"><title>Node9&#45;&gt;Node11</title>
<path fill="none" stroke="#9a32cd" stroke-dasharray="5,2" d="M485.127,-375.749C531.838,-363.912 596.374,-346.574 606,-338.853 619.032,-328.399 610.724,-315.994 624,-305.853 633.416,-298.66 645.135,-294.135 656.675,-291.302"/>
<polygon fill="#9a32cd" stroke="#9a32cd" points="484.004,-372.422 475.162,-378.26 485.714,-379.21 484.004,-372.422"/>
<text text-anchor="middle" x="561" y="-368.853" font-family="Helvetica,sans-Serif" font-size="10.00"> myParams</text>
</g>
<!-- Node10 -->
<g id="node10" class="node"><title>Node10</title>
<polygon fill="white" stroke="#bfbfbf" points="626,-128.853 626,-158.853 784,-158.853 784,-128.853 626,-128.853"/>
<text text-anchor="start" x="634" y="-146.853" font-family="Helvetica,sans-Serif" font-size="10.00">Map&lt; String, shapeFactories.</text>
<text text-anchor="middle" x="705" y="-135.853" font-family="Helvetica,sans-Serif" font-size="10.00">ShapeFactory &gt;</text>
</g>
<!-- Node10&#45;&gt;Node1 -->
<g id="edge9" class="edge"><title>Node10&#45;&gt;Node1</title>
<path fill="none" stroke="#9a32cd" stroke-dasharray="5,2" d="M794.241,-152.406C843.185,-157.532 905.086,-164.643 960,-172.853 970.608,-174.439 981.953,-176.383 992.692,-178.339"/>
<polygon fill="#9a32cd" stroke="#9a32cd" points="794.308,-148.894 784,-151.343 793.585,-155.857 794.308,-148.894"/>
<text text-anchor="middle" x="882" y="-175.853" font-family="Helvetica,sans-Serif" font-size="10.00"> myImplementedShapeFactories</text>
</g>
<!-- Node11&#45;&gt;Node1 -->
<g id="edge10" class="edge"><title>Node11&#45;&gt;Node1</title>
<path fill="none" stroke="#9a32cd" stroke-dasharray="5,2" d="M763.447,-285.864C816.361,-283.162 896.108,-274.487 960,-247.853 989.075,-235.732 1017.31,-210.993 1031.51,-197.372"/>
<polygon fill="#9a32cd" stroke="#9a32cd" points="763.065,-282.377 753.235,-286.328 763.383,-289.37 763.065,-282.377"/>
<text text-anchor="middle" x="882" y="-285.853" font-family="Helvetica,sans-Serif" font-size="10.00"> myRuleSet</text>
</g>
<!-- Node12 -->
<g id="node12" class="node"><title>Node12</title>
<polygon fill="white" stroke="#bfbfbf" points="407,-325.353 407,-344.353 463,-344.353 463,-325.353 407,-325.353"/>
<text text-anchor="middle" x="435" y="-332.353" font-family="Helvetica,sans-Serif" font-size="10.00">Random</text>
</g>
<!-- Node12&#45;&gt;Node11 -->
<g id="edge13" class="edge"><title>Node12&#45;&gt;Node11</title>
<path fill="none" stroke="#9a32cd" stroke-dasharray="5,2" d="M473.289,-329.905C507.816,-325.145 560.531,-317.423 606,-308.853 625.363,-305.203 646.727,-300.489 664.552,-296.361"/>
<polygon fill="#9a32cd" stroke="#9a32cd" points="472.62,-326.464 463.186,-331.285 473.567,-333.399 472.62,-326.464"/>
<text text-anchor="middle" x="561" y="-326.853" font-family="Helvetica,sans-Serif" font-size="10.00"> gridCoord</text>
</g>
<!-- Node13 -->
<g id="node13" class="node"><title>Node13</title>
<g id="a_node13"><a xlink:href="../../d3/dea/classback_end_1_1_state.html" target="_top" xlink:title="backEnd.State">
<polygon fill="white" stroke="black" points="392,-287.353 392,-306.353 478,-306.353 478,-287.353 392,-287.353"/>
<text text-anchor="middle" x="435" y="-294.353" font-family="Helvetica,sans-Serif" font-size="10.00">backEnd.State</text>
</a>
</g>
</g>
<!-- Node13&#45;&gt;Node11 -->
<g id="edge14" class="edge"><title>Node13&#45;&gt;Node11</title>
<path fill="none" stroke="#9a32cd" stroke-dasharray="5,2" d="M488.223,-294.904C537.087,-293.081 609.443,-290.381 656.66,-288.619"/>
<polygon fill="#9a32cd" stroke="#9a32cd" points="488.032,-291.409 478.17,-295.279 488.293,-298.404 488.032,-291.409"/>
<text text-anchor="middle" x="561" y="-296.853" font-family="Helvetica,sans-Serif" font-size="10.00"> myPossibleStates</text>
</g>
<!-- Node14 -->
<g id="node14" class="node"><title>Node14</title>
<polygon fill="white" stroke="#bfbfbf" points="232.5,-287.353 232.5,-306.353 273.5,-306.353 273.5,-287.353 232.5,-287.353"/>
<text text-anchor="middle" x="253" y="-294.353" font-family="Helvetica,sans-Serif" font-size="10.00">Color</text>
</g>
<!-- Node14&#45;&gt;Node13 -->
<g id="edge15" class="edge"><title>Node14&#45;&gt;Node13</title>
<path fill="none" stroke="#9a32cd" stroke-dasharray="5,2" d="M283.704,-296.853C313.225,-296.853 358.773,-296.853 391.991,-296.853"/>
<polygon fill="#9a32cd" stroke="#9a32cd" points="283.606,-293.353 273.606,-296.853 283.606,-300.353 283.606,-293.353"/>
<text text-anchor="middle" x="332" y="-299.853" font-family="Helvetica,sans-Serif" font-size="10.00"> myColor</text>
</g>
<!-- Node15 -->
<g id="node15" class="node"><title>Node15</title>
<polygon fill="white" stroke="#bfbfbf" points="632,-79.8527 632,-109.853 778,-109.853 778,-79.8527 632,-79.8527"/>
<text text-anchor="start" x="640" y="-97.8527" font-family="Helvetica,sans-Serif" font-size="10.00">Map&lt; String, backEnd.Rule</text>
<text text-anchor="middle" x="705" y="-86.8527" font-family="Helvetica,sans-Serif" font-size="10.00">Set &gt;</text>
</g>
<!-- Node15&#45;&gt;Node1 -->
<g id="edge16" class="edge"><title>Node15&#45;&gt;Node1</title>
<path fill="none" stroke="#9a32cd" stroke-dasharray="5,2" d="M788.091,-101.836C838.822,-107.983 904.594,-119.304 960,-139.853 985.901,-149.459 1012.9,-167.301 1028.27,-178.318"/>
<polygon fill="#9a32cd" stroke="#9a32cd" points="788.492,-98.3594 778.153,-100.675 787.679,-105.312 788.492,-98.3594"/>
<text text-anchor="middle" x="882" y="-142.853" font-family="Helvetica,sans-Serif" font-size="10.00"> myImplementedRulesets</text>
</g>
<!-- Node16 -->
<g id="node16" class="node"><title>Node16</title>
<polygon fill="white" stroke="#bfbfbf" points="624.5,-41.3527 624.5,-60.3527 785.5,-60.3527 785.5,-41.3527 624.5,-41.3527"/>
<text text-anchor="middle" x="705" y="-48.3527" font-family="Helvetica,sans-Serif" font-size="10.00">EventHandler&lt; ActionEvent &gt;</text>
</g>
<!-- Node16&#45;&gt;Node1 -->
<g id="edge17" class="edge"><title>Node16&#45;&gt;Node1</title>
<path fill="none" stroke="#9a32cd" stroke-dasharray="5,2" d="M795.789,-49.2142C846.866,-51.9202 910.348,-61.6723 960,-89.8527 997.818,-111.316 1025.4,-157.78 1036.1,-178.056"/>
<polygon fill="#9a32cd" stroke="#9a32cd" points="795.894,-45.7155 785.747,-48.7636 795.58,-52.7084 795.894,-45.7155"/>
<text text-anchor="middle" x="882" y="-92.8527" font-family="Helvetica,sans-Serif" font-size="10.00"> oneFrame</text>
</g>
<!-- Node17 -->
<g id="node17" class="node"><title>Node17</title>
<polygon fill="white" stroke="#bfbfbf" points="682,-3.35267 682,-22.3527 728,-22.3527 728,-3.35267 682,-3.35267"/>
<text text-anchor="middle" x="705" y="-10.3527" font-family="Helvetica,sans-Serif" font-size="10.00">Group</text>
</g>
<!-- Node17&#45;&gt;Node1 -->
<g id="edge18" class="edge"><title>Node17&#45;&gt;Node1</title>
<path fill="none" stroke="#9a32cd" stroke-dasharray="5,2" d="M738.216,-6.69947C789.744,1.29693 891.826,9.37452 960,-35.8527 1012.33,-70.5664 1033.31,-150.611 1039.16,-178.256"/>
<polygon fill="#9a32cd" stroke="#9a32cd" points="737.61,-3.25202 728.313,-8.33356 738.75,-10.1586 737.61,-3.25202"/>
<text text-anchor="middle" x="882" y="-38.8527" font-family="Helvetica,sans-Serif" font-size="10.00"> myNodes</text>
</g>
</g>
</svg>
