<?xml version="1.0" encoding="UTF-8" standalone="no"?>
<!DOCTYPE svg PUBLIC "-//W3C//DTD SVG 1.1//EN"
 "http://www.w3.org/Graphics/SVG/1.1/DTD/svg11.dtd">
<!-- Generated by graphviz version 2.36.0 (20140111.2315)
 -->
<!-- Title: frontEnd.Main.readXML Pages: 1 -->
<svg width="676pt" height="104pt"
 viewBox="0.00 0.00 676.00 104.00" xmlns="http://www.w3.org/2000/svg" xmlns:xlink="http://www.w3.org/1999/xlink">
<g id="graph0" class="graph" transform="scale(1 1) rotate(0) translate(4 100)">
<title>frontEnd.Main.readXML</title>
<polygon fill="white" stroke="none" points="-4,4 -4,-100 672,-100 672,4 -4,4"/>
<!-- Node1 -->
<g id="node1" class="node"><title>Node1</title>
<polygon fill="#bfbfbf" stroke="black" points="0.5,-38.5 0.5,-57.5 127.5,-57.5 127.5,-38.5 0.5,-38.5"/>
<text text-anchor="middle" x="64" y="-45.5" font-family="Helvetica,sans-Serif" font-size="10.00">frontEnd.Main.readXML</text>
</g>
<!-- Node2 -->
<g id="node2" class="node"><title>Node2</title>
<g id="a_node2"><a xlink:href="../../dd/dbe/classfront_end_1_1_main.html#a55d59b110825a1cc153a0091a6e5cb99" target="_top" xlink:title="frontEnd.Main.makeMenu">
<polygon fill="white" stroke="black" points="164.5,-76.5 164.5,-95.5 303.5,-95.5 303.5,-76.5 164.5,-76.5"/>
<text text-anchor="middle" x="234" y="-83.5" font-family="Helvetica,sans-Serif" font-size="10.00">frontEnd.Main.makeMenu</text>
</a>
</g>
</g>
<!-- Node1&#45;&gt;Node2 -->
<g id="edge1" class="edge"><title>Node1&#45;&gt;Node2</title>
<path fill="none" stroke="midnightblue" d="M117.276,-59.8243C140.961,-65.1816 168.59,-71.4311 190.911,-76.4799"/>
<polygon fill="midnightblue" stroke="midnightblue" points="117.919,-56.3815 107.393,-57.589 116.375,-63.209 117.919,-56.3815"/>
</g>
<!-- Node4 -->
<g id="node4" class="node"><title>Node4</title>
<g id="a_node4"><a xlink:href="../../dd/dbe/classfront_end_1_1_main.html#a8e2e836903a64069e4283fa66309c704" target="_top" xlink:title="frontEnd.Main.resetSim">
<polygon fill="white" stroke="black" points="169.5,-0.5 169.5,-19.5 298.5,-19.5 298.5,-0.5 169.5,-0.5"/>
<text text-anchor="middle" x="234" y="-7.5" font-family="Helvetica,sans-Serif" font-size="10.00">frontEnd.Main.resetSim</text>
</a>
</g>
</g>
<!-- Node1&#45;&gt;Node4 -->
<g id="edge3" class="edge"><title>Node1&#45;&gt;Node4</title>
<path fill="none" stroke="midnightblue" d="M117.276,-36.1757C140.961,-30.8184 168.59,-24.5689 190.911,-19.5201"/>
<polygon fill="midnightblue" stroke="midnightblue" points="116.375,-32.791 107.393,-38.411 117.919,-39.6185 116.375,-32.791"/>
</g>
<!-- Node3 -->
<g id="node3" class="node"><title>Node3</title>
<g id="a_node3"><a xlink:href="../../dd/dbe/classfront_end_1_1_main.html#ae53f892716dcc60f3f49714496e30c91" target="_top" xlink:title="frontEnd.Main.start">
<polygon fill="white" stroke="black" points="560,-38.5 560,-57.5 668,-57.5 668,-38.5 560,-38.5"/>
<text text-anchor="middle" x="614" y="-45.5" font-family="Helvetica,sans-Serif" font-size="10.00">frontEnd.Main.start</text>
</a>
</g>
</g>
<!-- Node2&#45;&gt;Node3 -->
<g id="edge2" class="edge"><title>Node2&#45;&gt;Node3</title>
<path fill="none" stroke="midnightblue" d="M313.845,-83.8939C372.122,-81.5912 453.29,-76.8194 524,-67 540.588,-64.6964 558.698,-61.0429 574.226,-57.5524"/>
<polygon fill="midnightblue" stroke="midnightblue" points="313.462,-80.4058 303.602,-84.2825 313.728,-87.4007 313.462,-80.4058"/>
</g>
<!-- Node5 -->
<g id="node5" class="node"><title>Node5</title>
<g id="a_node5"><a xlink:href="../../dd/dbe/classfront_end_1_1_main.html#a0ff8a007311f8ecce84d4203dc85d669" target="_top" xlink:title="frontEnd.Main.makeParamControls">
<polygon fill="white" stroke="black" points="340.5,-38.5 340.5,-57.5 523.5,-57.5 523.5,-38.5 340.5,-38.5"/>
<text text-anchor="middle" x="432" y="-45.5" font-family="Helvetica,sans-Serif" font-size="10.00">frontEnd.Main.makeParamControls</text>
</a>
</g>
</g>
<!-- Node4&#45;&gt;Node5 -->
<g id="edge4" class="edge"><title>Node4&#45;&gt;Node5</title>
<path fill="none" stroke="midnightblue" d="M294.261,-21.4894C322.227,-26.9114 355.209,-33.3058 381.774,-38.4561"/>
<polygon fill="midnightblue" stroke="midnightblue" points="294.689,-18.0073 284.206,-19.54 293.357,-24.8794 294.689,-18.0073"/>
</g>
<!-- Node6 -->
<g id="node6" class="node"><title>Node6</title>
<g id="a_node6"><a xlink:href="../../dd/dbe/classfront_end_1_1_main.html#a1f4c19654fe78e5ebca54fc26bf43c94" target="_top" xlink:title="frontEnd.Main.useControls">
<polygon fill="white" stroke="black" points="360.5,-0.5 360.5,-19.5 503.5,-19.5 503.5,-0.5 360.5,-0.5"/>
<text text-anchor="middle" x="432" y="-7.5" font-family="Helvetica,sans-Serif" font-size="10.00">frontEnd.Main.useControls</text>
</a>
</g>
</g>
<!-- Node4&#45;&gt;Node6 -->
<g id="edge6" class="edge"><title>Node4&#45;&gt;Node6</title>
<path fill="none" stroke="midnightblue" d="M308.948,-10C325.749,-10 343.556,-10 360.222,-10"/>
<polygon fill="midnightblue" stroke="midnightblue" points="308.636,-6.5001 298.636,-10 308.636,-13.5001 308.636,-6.5001"/>
</g>
<!-- Node5&#45;&gt;Node1 -->
<g id="edge5" class="edge"><title>Node5&#45;&gt;Node1</title>
<path fill="none" stroke="midnightblue" d="M330.031,-48C265.19,-48 183.025,-48 127.502,-48"/>
<polygon fill="midnightblue" stroke="midnightblue" points="330.282,-51.5001 340.282,-48 330.282,-44.5001 330.282,-51.5001"/>
</g>
<!-- Node6&#45;&gt;Node3 -->
<g id="edge7" class="edge"><title>Node6&#45;&gt;Node3</title>
<path fill="none" stroke="midnightblue" d="M488.868,-21.6234C500.482,-24.0513 512.641,-26.6018 524,-29 538.531,-32.0681 554.391,-35.4447 568.644,-38.4897"/>
<polygon fill="midnightblue" stroke="midnightblue" points="489.34,-18.1466 478.836,-19.5282 487.909,-24.9987 489.34,-18.1466"/>
</g>
</g>
</svg>
