<?xml version="1.0" encoding="UTF-8" standalone="no"?>
<!DOCTYPE svg PUBLIC "-//W3C//DTD SVG 1.1//EN"
 "http://www.w3.org/Graphics/SVG/1.1/DTD/svg11.dtd">
<!-- Generated by graphviz version 2.36.0 (20140111.2315)
 -->
<!-- Title: frontEnd.Main.showPopupMessage Pages: 1 -->
<!--zoomable 104 -->
<svg id="main" version="1.1" xmlns="http://www.w3.org/2000/svg" xmlns:xlink="http://www.w3.org/1999/xlink" xml:space="preserve" onload="init(evt)">
<style type="text/css"><![CDATA[
.edge:hover path { stroke: red; }
.edge:hover polygon { stroke: red; fill: red; }
]]></style>
<script type="text/javascript"><![CDATA[
var edges = document.getElementsByTagName('g');
if (edges && edges.length) {
  for (var i=0;i<edges.length;i++) {
    if (edges[i].id.substr(0,4)=='edge') {
      edges[i].setAttribute('class','edge');
    }
  }
}
]]></script>
        <defs>
                <circle id="rim" cx="0" cy="0" r="7"/>
                <circle id="rim2" cx="0" cy="0" r="3.5"/>
                <g id="zoomPlus">
                        <use xlink:href="#rim" fill="#404040">
                                <set attributeName="fill" to="#808080" begin="zoomplus.mouseover" end="zoomplus.mouseout"/>
                        </use>
                        <path d="M-4,0h8M0,-4v8" fill="none" stroke="white" stroke-width="1.5" pointer-events="none"/>
                </g>
                <g id="zoomMin">
                        <use xlink:href="#rim" fill="#404040">
                                <set attributeName="fill" to="#808080" begin="zoomminus.mouseover" end="zoomminus.mouseout"/>
                        </use>
                        <path d="M-4,0h8" fill="none" stroke="white" stroke-width="1.5" pointer-events="none"/>
                </g>
                <g id="dirArrow">
                        <path fill="none" stroke="white" stroke-width="1.5" d="M0,-3.0v7 M-2.5,-0.5L0,-3.0L2.5,-0.5"/>
                </g>
               <g id="resetDef">
                       <use xlink:href="#rim2" fill="#404040">
                               <set attributeName="fill" to="#808080" begin="reset.mouseover" end="reset.mouseout"/>
                       </use>
               </g>
        </defs>

<script type="text/javascript">
var viewWidth = 1276;
var viewHeight = 104;
var sectionId = 'dynsection-14';
</script>
<script xlink:href="../../svgpan.js"/>
<svg id="graph" class="graph">
<g id="viewport">
<title>frontEnd.Main.showPopupMessage</title>
<polygon fill="white" stroke="none" points="-4,4 -4,-100 1272,-100 1272,4 -4,4"/>
<!-- Node1 -->
<g id="node1" class="node"><title>Node1</title>
<polygon fill="#bfbfbf" stroke="black" points="0,-38.5 0,-57.5 182,-57.5 182,-38.5 0,-38.5"/>
<text text-anchor="middle" x="91" y="-45.5" font-family="Helvetica,sans-Serif" font-size="10.00">frontEnd.Main.showPopupMessage</text>
</g>
<!-- Node2 -->
<g id="node2" class="node"><title>Node2</title>
<g id="a_node2"><a xlink:href="../../dc/da1/classfront_end_1_1_animator_loop.html#a467af791b6cbba9bb796678842386ca2" target="_top" xlink:title="frontEnd.AnimatorLoop.check\lBadXMLFileData">
<polygon fill="white" stroke="black" points="218,-33 218,-63 376,-63 376,-33 218,-33"/>
<text text-anchor="start" x="226" y="-51" font-family="Helvetica,sans-Serif" font-size="10.00">frontEnd.AnimatorLoop.check</text>
<text text-anchor="middle" x="297" y="-40" font-family="Helvetica,sans-Serif" font-size="10.00">BadXMLFileData</text>
</a>
</g>
</g>
<!-- Node1&#45;&gt;Node2 -->
<g id="edge1" class="edge"><title>Node1&#45;&gt;Node2</title>
<path fill="none" stroke="midnightblue" d="M192.195,-48C200.839,-48 209.5,-48 217.93,-48"/>
<polygon fill="midnightblue" stroke="midnightblue" points="192.071,-44.5001 182.071,-48 192.071,-51.5001 192.071,-44.5001"/>
</g>
<!-- Node3 -->
<g id="node3" class="node"><title>Node3</title>
<g id="a_node3"><a xlink:href="../../dc/da1/classfront_end_1_1_animator_loop.html#a1f378b18807af5386266685e907aa8c7" target="_top" xlink:title="frontEnd.AnimatorLoop.read\lXMLAndInitializeGrid">
<polygon fill="white" stroke="black" points="412,-33 412,-63 564,-63 564,-33 412,-33"/>
<text text-anchor="start" x="420" y="-51" font-family="Helvetica,sans-Serif" font-size="10.00">frontEnd.AnimatorLoop.read</text>
<text text-anchor="middle" x="488" y="-40" font-family="Helvetica,sans-Serif" font-size="10.00">XMLAndInitializeGrid</text>
</a>
</g>
</g>
<!-- Node2&#45;&gt;Node3 -->
<g id="edge2" class="edge"><title>Node2&#45;&gt;Node3</title>
<path fill="none" stroke="midnightblue" d="M386.243,-48C394.807,-48 403.44,-48 411.859,-48"/>
<polygon fill="midnightblue" stroke="midnightblue" points="386.238,-44.5001 376.238,-48 386.238,-51.5001 386.238,-44.5001"/>
</g>
<!-- Node4 -->
<g id="node4" class="node"><title>Node4</title>
<g id="a_node4"><a xlink:href="../../dd/dbe/classfront_end_1_1_main.html#a7bae3127415fb2ae80975ebc95057e3f" target="_top" xlink:title="frontEnd.Main.readXML">
<polygon fill="white" stroke="black" points="600.5,-38.5 600.5,-57.5 727.5,-57.5 727.5,-38.5 600.5,-38.5"/>
<text text-anchor="middle" x="664" y="-45.5" font-family="Helvetica,sans-Serif" font-size="10.00">frontEnd.Main.readXML</text>
</a>
</g>
</g>
<!-- Node3&#45;&gt;Node4 -->
<g id="edge3" class="edge"><title>Node3&#45;&gt;Node4</title>
<path fill="none" stroke="midnightblue" d="M574.065,-48C582.959,-48 591.88,-48 600.457,-48"/>
<polygon fill="midnightblue" stroke="midnightblue" points="574.054,-44.5001 564.054,-48 574.054,-51.5001 574.054,-44.5001"/>
</g>
<!-- Node5 -->
<g id="node5" class="node"><title>Node5</title>
<g id="a_node5"><a xlink:href="../../dd/dbe/classfront_end_1_1_main.html#a55d59b110825a1cc153a0091a6e5cb99" target="_top" xlink:title="frontEnd.Main.makeMenu">
<polygon fill="white" stroke="black" points="764.5,-76.5 764.5,-95.5 903.5,-95.5 903.5,-76.5 764.5,-76.5"/>
<text text-anchor="middle" x="834" y="-83.5" font-family="Helvetica,sans-Serif" font-size="10.00">frontEnd.Main.makeMenu</text>
</a>
</g>
</g>
<!-- Node4&#45;&gt;Node5 -->
<g id="edge4" class="edge"><title>Node4&#45;&gt;Node5</title>
<path fill="none" stroke="midnightblue" d="M717.276,-59.8243C740.961,-65.1816 768.59,-71.4311 790.911,-76.4799"/>
<polygon fill="midnightblue" stroke="midnightblue" points="717.919,-56.3815 707.393,-57.589 716.375,-63.209 717.919,-56.3815"/>
</g>
<!-- Node7 -->
<g id="node7" class="node"><title>Node7</title>
<g id="a_node7"><a xlink:href="../../dd/dbe/classfront_end_1_1_main.html#a8e2e836903a64069e4283fa66309c704" target="_top" xlink:title="frontEnd.Main.resetSim">
<polygon fill="white" stroke="black" points="769.5,-0.5 769.5,-19.5 898.5,-19.5 898.5,-0.5 769.5,-0.5"/>
<text text-anchor="middle" x="834" y="-7.5" font-family="Helvetica,sans-Serif" font-size="10.00">frontEnd.Main.resetSim</text>
</a>
</g>
</g>
<!-- Node4&#45;&gt;Node7 -->
<g id="edge6" class="edge"><title>Node4&#45;&gt;Node7</title>
<path fill="none" stroke="midnightblue" d="M717.276,-36.1757C740.961,-30.8184 768.59,-24.5689 790.911,-19.5201"/>
<polygon fill="midnightblue" stroke="midnightblue" points="716.375,-32.791 707.393,-38.411 717.919,-39.6185 716.375,-32.791"/>
</g>
<!-- Node6 -->
<g id="node6" class="node"><title>Node6</title>
<g id="a_node6"><a xlink:href="../../dd/dbe/classfront_end_1_1_main.html#ae53f892716dcc60f3f49714496e30c91" target="_top" xlink:title="frontEnd.Main.start">
<polygon fill="white" stroke="black" points="1160,-38.5 1160,-57.5 1268,-57.5 1268,-38.5 1160,-38.5"/>
<text text-anchor="middle" x="1214" y="-45.5" font-family="Helvetica,sans-Serif" font-size="10.00">frontEnd.Main.start</text>
</a>
</g>
</g>
<!-- Node5&#45;&gt;Node6 -->
<g id="edge5" class="edge"><title>Node5&#45;&gt;Node6</title>
<path fill="none" stroke="midnightblue" d="M913.845,-83.8939C972.122,-81.5912 1053.29,-76.8194 1124,-67 1140.59,-64.6964 1158.7,-61.0429 1174.23,-57.5524"/>
<polygon fill="midnightblue" stroke="midnightblue" points="913.462,-80.4058 903.602,-84.2825 913.728,-87.4007 913.462,-80.4058"/>
</g>
<!-- Node8 -->
<g id="node8" class="node"><title>Node8</title>
<g id="a_node8"><a xlink:href="../../dd/dbe/classfront_end_1_1_main.html#a0ff8a007311f8ecce84d4203dc85d669" target="_top" xlink:title="frontEnd.Main.makeParamControls">
<polygon fill="white" stroke="black" points="940.5,-38.5 940.5,-57.5 1123.5,-57.5 1123.5,-38.5 940.5,-38.5"/>
<text text-anchor="middle" x="1032" y="-45.5" font-family="Helvetica,sans-Serif" font-size="10.00">frontEnd.Main.makeParamControls</text>
</a>
</g>
</g>
<!-- Node7&#45;&gt;Node8 -->
<g id="edge7" class="edge"><title>Node7&#45;&gt;Node8</title>
<path fill="none" stroke="midnightblue" d="M894.261,-21.4894C922.227,-26.9114 955.209,-33.3058 981.774,-38.4561"/>
<polygon fill="midnightblue" stroke="midnightblue" points="894.689,-18.0073 884.206,-19.54 893.357,-24.8794 894.689,-18.0073"/>
</g>
<!-- Node9 -->
<g id="node9" class="node"><title>Node9</title>
<g id="a_node9"><a xlink:href="../../dd/dbe/classfront_end_1_1_main.html#a1f4c19654fe78e5ebca54fc26bf43c94" target="_top" xlink:title="frontEnd.Main.useControls">
<polygon fill="white" stroke="black" points="960.5,-0.5 960.5,-19.5 1103.5,-19.5 1103.5,-0.5 960.5,-0.5"/>
<text text-anchor="middle" x="1032" y="-7.5" font-family="Helvetica,sans-Serif" font-size="10.00">frontEnd.Main.useControls</text>
</a>
</g>
</g>
<!-- Node7&#45;&gt;Node9 -->
<g id="edge9" class="edge"><title>Node7&#45;&gt;Node9</title>
<path fill="none" stroke="midnightblue" d="M908.948,-10C925.749,-10 943.556,-10 960.222,-10"/>
<polygon fill="midnightblue" stroke="midnightblue" points="908.636,-6.5001 898.636,-10 908.636,-13.5001 908.636,-6.5001"/>
</g>
<!-- Node8&#45;&gt;Node4 -->
<g id="edge8" class="edge"><title>Node8&#45;&gt;Node4</title>
<path fill="none" stroke="midnightblue" d="M930.031,-48C865.19,-48 783.025,-48 727.502,-48"/>
<polygon fill="midnightblue" stroke="midnightblue" points="930.282,-51.5001 940.282,-48 930.282,-44.5001 930.282,-51.5001"/>
</g>
<!-- Node9&#45;&gt;Node6 -->
<g id="edge10" class="edge"><title>Node9&#45;&gt;Node6</title>
<path fill="none" stroke="midnightblue" d="M1088.87,-21.6234C1100.48,-24.0513 1112.64,-26.6018 1124,-29 1138.53,-32.0681 1154.39,-35.4447 1168.64,-38.4897"/>
<polygon fill="midnightblue" stroke="midnightblue" points="1089.34,-18.1466 1078.84,-19.5282 1087.91,-24.9987 1089.34,-18.1466"/>
</g>
</g>
</svg>
        <g id="navigator" transform="translate(0 0)" fill="#404254">
                <rect fill="#f2f5e9" fill-opacity="0.5" stroke="#606060" stroke-width=".5" x="0" y="0" width="60" height="60"/>
                <use id="zoomplus" xlink:href="#zoomPlus" x="17" y="9" onmousedown="handleZoom(evt,'in')"/>
                <use id="zoomminus" xlink:href="#zoomMin" x="42" y="9" onmousedown="handleZoom(evt,'out')"/>
                <use id="reset" xlink:href="#resetDef" x="30" y="36" onmousedown="handleReset()"/>
                <g id="arrowUp" xlink:href="#dirArrow" transform="translate(30 24)" onmousedown="handlePan(0,-1)">
                  <use xlink:href="#rim" fill="#404040">
                        <set attributeName="fill" to="#808080" begin="arrowUp.mouseover" end="arrowUp.mouseout"/>
                  </use>
                  <path fill="none" stroke="white" stroke-width="1.5" d="M0,-3.0v7 M-2.5,-0.5L0,-3.0L2.5,-0.5"/>
                </g>
                <g id="arrowRight" xlink:href="#dirArrow" transform="rotate(90) translate(36 -43)" onmousedown="handlePan(1,0)">
                  <use xlink:href="#rim" fill="#404040">
                        <set attributeName="fill" to="#808080" begin="arrowRight.mouseover" end="arrowRight.mouseout"/>
                  </use>
                  <path fill="none" stroke="white" stroke-width="1.5" d="M0,-3.0v7 M-2.5,-0.5L0,-3.0L2.5,-0.5"/>
                </g>
                <g id="arrowDown" xlink:href="#dirArrow" transform="rotate(180) translate(-30 -48)" onmousedown="handlePan(0,1)">
                  <use xlink:href="#rim" fill="#404040">
                        <set attributeName="fill" to="#808080" begin="arrowDown.mouseover" end="arrowDown.mouseout"/>
                  </use>
                  <path fill="none" stroke="white" stroke-width="1.5" d="M0,-3.0v7 M-2.5,-0.5L0,-3.0L2.5,-0.5"/>
                </g>
                <g id="arrowLeft" xlink:href="#dirArrow" transform="rotate(270) translate(-36 17)" onmousedown="handlePan(-1,0)">
                  <use xlink:href="#rim" fill="#404040">
                        <set attributeName="fill" to="#808080" begin="arrowLeft.mouseover" end="arrowLeft.mouseout"/>
                  </use>
                  <path fill="none" stroke="white" stroke-width="1.5" d="M0,-3.0v7 M-2.5,-0.5L0,-3.0L2.5,-0.5"/>
                </g>
        </g>
        <svg viewBox="0 0 15 15" width="100%" height="30px" preserveAspectRatio="xMaxYMin meet">
         <g id="arrow_out" transform="scale(0.3 0.3)">
          <a xlink:href="classfront_end_1_1_main_a1c9672872cb8b8f6efe2d1ddce9a6b61_icgraph_org.svg" target="_base">
           <rect id="button" ry="5" rx="5" y="6" x="6" height="38" width="38"
                fill="#f2f5e9" fill-opacity="0.5" stroke="#606060" stroke-width="1.0"/>
           <path id="arrow"
             d="M 11.500037,31.436501 C 11.940474,20.09759 22.043105,11.32322 32.158766,21.979434 L 37.068811,17.246167 C 37.068811,17.246167 37.088388,32 37.088388,32 L 22.160133,31.978069 C 22.160133,31.978069 26.997745,27.140456 26.997745,27.140456 C 18.528582,18.264221 13.291696,25.230495 11.500037,31.436501 z"
             style="fill:#404040;"/>
          </a>
         </g>
        </svg>
</svg>
