<?xml version="1.0" encoding="UTF-8" standalone="no"?>
<!DOCTYPE svg PUBLIC "-//W3C//DTD SVG 1.1//EN"
 "http://www.w3.org/Graphics/SVG/1.1/DTD/svg11.dtd">
<!-- Generated by graphviz version 2.36.0 (20140111.2315)
 -->
<!-- Title: frontEnd.Main.start Pages: 1 -->
<svg width="1582pt" height="757pt"
 viewBox="0.00 0.00 1582.00 756.92" xmlns="http://www.w3.org/2000/svg" xmlns:xlink="http://www.w3.org/1999/xlink">
<g id="graph0" class="graph" transform="scale(1 1) rotate(0) translate(4 752.919)">
<title>frontEnd.Main.start</title>
<polygon fill="white" stroke="none" points="-4,4 -4,-752.919 1578,-752.919 1578,4 -4,4"/>
<!-- Node1 -->
<g id="node1" class="node"><title>Node1</title>
<polygon fill="#bfbfbf" stroke="black" points="0,-654.419 0,-673.419 108,-673.419 108,-654.419 0,-654.419"/>
<text text-anchor="middle" x="54" y="-661.419" font-family="Helvetica,sans-Serif" font-size="10.00">frontEnd.Main.start</text>
</g>
<!-- Node2 -->
<g id="node2" class="node"><title>Node2</title>
<g id="a_node2"><a xlink:href="../../dd/dbe/classfront_end_1_1_main.html#ab41128273a48f5060927818cf84482ff" target="_top" xlink:title="frontEnd.Main.makeControlBox">
<polygon fill="white" stroke="black" points="144.5,-711.419 144.5,-730.419 309.5,-730.419 309.5,-711.419 144.5,-711.419"/>
<text text-anchor="middle" x="227" y="-718.419" font-family="Helvetica,sans-Serif" font-size="10.00">frontEnd.Main.makeControlBox</text>
</a>
</g>
</g>
<!-- Node1&#45;&gt;Node2 -->
<g id="edge1" class="edge"><title>Node1&#45;&gt;Node2</title>
<path fill="none" stroke="midnightblue" d="M74.7617,-673.549C92.5468,-681.925 119.564,-693.94 144,-701.919 151.802,-704.467 160.128,-706.811 168.371,-708.918"/>
<polygon fill="midnightblue" stroke="midnightblue" points="167.799,-712.382 178.346,-711.37 169.47,-705.584 167.799,-712.382"/>
</g>
<!-- Node3 -->
<g id="node3" class="node"><title>Node3</title>
<g id="a_node3"><a xlink:href="../../dd/dbe/classfront_end_1_1_main.html#a55d59b110825a1cc153a0091a6e5cb99" target="_top" xlink:title="frontEnd.Main.makeMenu">
<polygon fill="white" stroke="black" points="157.5,-597.419 157.5,-616.419 296.5,-616.419 296.5,-597.419 157.5,-597.419"/>
<text text-anchor="middle" x="227" y="-604.419" font-family="Helvetica,sans-Serif" font-size="10.00">frontEnd.Main.makeMenu</text>
</a>
</g>
</g>
<!-- Node1&#45;&gt;Node3 -->
<g id="edge2" class="edge"><title>Node1&#45;&gt;Node3</title>
<path fill="none" stroke="midnightblue" d="M74.7617,-654.29C92.5468,-645.913 119.564,-633.898 144,-625.919 151.802,-623.372 160.128,-621.027 168.371,-618.92"/>
<polygon fill="midnightblue" stroke="midnightblue" points="169.47,-622.254 178.346,-616.469 167.799,-615.456 169.47,-622.254"/>
</g>
<!-- Node35 -->
<g id="node35" class="node"><title>Node35</title>
<g id="a_node35"><a xlink:href="../../dc/da1/classfront_end_1_1_animator_loop.html#a915f4472ef7f13710503b4e73336e0c2" target="_top" xlink:title="frontEnd.AnimatorLoop.start">
<polygon fill="white" stroke="black" points="150.5,-635.419 150.5,-654.419 303.5,-654.419 303.5,-635.419 150.5,-635.419"/>
<text text-anchor="middle" x="227" y="-642.419" font-family="Helvetica,sans-Serif" font-size="10.00">frontEnd.AnimatorLoop.start</text>
</a>
</g>
</g>
<!-- Node1&#45;&gt;Node35 -->
<g id="edge46" class="edge"><title>Node1&#45;&gt;Node35</title>
<path fill="none" stroke="midnightblue" d="M108.168,-658.012C118.377,-656.877 129.307,-655.663 140.242,-654.448"/>
<polygon fill="midnightblue" stroke="midnightblue" points="140.713,-657.917 150.266,-653.334 139.94,-650.96 140.713,-657.917"/>
</g>
<!-- Node36 -->
<g id="node36" class="node"><title>Node36</title>
<g id="a_node36"><a xlink:href="../../dd/dbe/classfront_end_1_1_main.html#a1f4c19654fe78e5ebca54fc26bf43c94" target="_top" xlink:title="frontEnd.Main.useControls">
<polygon fill="white" stroke="black" points="155.5,-673.419 155.5,-692.419 298.5,-692.419 298.5,-673.419 155.5,-673.419"/>
<text text-anchor="middle" x="227" y="-680.419" font-family="Helvetica,sans-Serif" font-size="10.00">frontEnd.Main.useControls</text>
</a>
</g>
</g>
<!-- Node1&#45;&gt;Node36 -->
<g id="edge47" class="edge"><title>Node1&#45;&gt;Node36</title>
<path fill="none" stroke="midnightblue" d="M108.168,-669.827C119.927,-671.133 132.643,-672.546 145.222,-673.944"/>
<polygon fill="midnightblue" stroke="midnightblue" points="144.934,-677.433 155.26,-675.059 145.707,-670.476 144.934,-677.433"/>
</g>
<!-- Node4 -->
<g id="node4" class="node"><title>Node4</title>
<g id="a_node4"><a xlink:href="../../dd/dbe/classfront_end_1_1_main.html#a7bae3127415fb2ae80975ebc95057e3f" target="_top" xlink:title="frontEnd.Main.readXML">
<polygon fill="white" stroke="black" points="358.5,-597.419 358.5,-616.419 485.5,-616.419 485.5,-597.419 358.5,-597.419"/>
<text text-anchor="middle" x="422" y="-604.419" font-family="Helvetica,sans-Serif" font-size="10.00">frontEnd.Main.readXML</text>
</a>
</g>
</g>
<!-- Node3&#45;&gt;Node4 -->
<g id="edge3" class="edge"><title>Node3&#45;&gt;Node4</title>
<path fill="none" stroke="midnightblue" d="M296.588,-606.919C313.277,-606.919 331.184,-606.919 348.067,-606.919"/>
<polygon fill="midnightblue" stroke="midnightblue" points="348.426,-610.419 358.426,-606.919 348.426,-603.419 348.426,-610.419"/>
</g>
<!-- Node30 -->
<g id="node30" class="node"><title>Node30</title>
<g id="a_node30"><a xlink:href="../../dd/dbe/classfront_end_1_1_main.html#ae2ce98421793cead4539f6a0e9e63160" target="_top" xlink:title="frontEnd.Main.writeXML">
<polygon fill="white" stroke="black" points="358,-376.419 358,-395.419 486,-395.419 486,-376.419 358,-376.419"/>
<text text-anchor="middle" x="422" y="-383.419" font-family="Helvetica,sans-Serif" font-size="10.00">frontEnd.Main.writeXML</text>
</a>
</g>
</g>
<!-- Node3&#45;&gt;Node30 -->
<g id="edge32" class="edge"><title>Node3&#45;&gt;Node30</title>
<path fill="none" stroke="midnightblue" d="M236.542,-597.138C266.56,-562.765 367.468,-447.217 405.933,-403.172"/>
<polygon fill="midnightblue" stroke="midnightblue" points="408.615,-405.422 412.557,-395.587 403.343,-400.817 408.615,-405.422"/>
</g>
<!-- Node5 -->
<g id="node5" class="node"><title>Node5</title>
<g id="a_node5"><a xlink:href="../../dd/dbe/classfront_end_1_1_main.html#a0ff8a007311f8ecce84d4203dc85d669" target="_top" xlink:title="frontEnd.Main.makeParamControls">
<polygon fill="white" stroke="black" points="534.5,-635.419 534.5,-654.419 717.5,-654.419 717.5,-635.419 534.5,-635.419"/>
<text text-anchor="middle" x="626" y="-642.419" font-family="Helvetica,sans-Serif" font-size="10.00">frontEnd.Main.makeParamControls</text>
</a>
</g>
</g>
<!-- Node4&#45;&gt;Node5 -->
<g id="edge4" class="edge"><title>Node4&#45;&gt;Node5</title>
<path fill="none" stroke="midnightblue" d="M473.712,-616.459C501.207,-621.631 535.376,-628.059 564.282,-633.497"/>
<polygon fill="midnightblue" stroke="midnightblue" points="563.792,-636.966 574.267,-635.375 565.086,-630.087 563.792,-636.966"/>
</g>
<!-- Node7 -->
<g id="node7" class="node"><title>Node7</title>
<g id="a_node7"><a xlink:href="../../dc/da1/classfront_end_1_1_animator_loop.html#a1f378b18807af5386266685e907aa8c7" target="_top" xlink:title="frontEnd.AnimatorLoop.read\lXMLAndInitializeGrid">
<polygon fill="white" stroke="black" points="550,-437.919 550,-467.919 702,-467.919 702,-437.919 550,-437.919"/>
<text text-anchor="start" x="558" y="-455.919" font-family="Helvetica,sans-Serif" font-size="10.00">frontEnd.AnimatorLoop.read</text>
<text text-anchor="middle" x="626" y="-444.919" font-family="Helvetica,sans-Serif" font-size="10.00">XMLAndInitializeGrid</text>
</a>
</g>
</g>
<!-- Node4&#45;&gt;Node7 -->
<g id="edge7" class="edge"><title>Node4&#45;&gt;Node7</title>
<path fill="none" stroke="midnightblue" d="M435.636,-597.286C467.687,-572.85 552.751,-508 597.147,-474.154"/>
<polygon fill="midnightblue" stroke="midnightblue" points="599.368,-476.861 605.199,-468.015 595.124,-471.295 599.368,-476.861"/>
</g>
<!-- Node6 -->
<g id="node6" class="node"><title>Node6</title>
<g id="a_node6"><a xlink:href="../../dd/dbe/classfront_end_1_1_main.html#a8e2e836903a64069e4283fa66309c704" target="_top" xlink:title="frontEnd.Main.resetSim">
<polygon fill="white" stroke="black" points="771.5,-673.419 771.5,-692.419 900.5,-692.419 900.5,-673.419 771.5,-673.419"/>
<text text-anchor="middle" x="836" y="-680.419" font-family="Helvetica,sans-Serif" font-size="10.00">frontEnd.Main.resetSim</text>
</a>
</g>
</g>
<!-- Node5&#45;&gt;Node6 -->
<g id="edge5" class="edge"><title>Node5&#45;&gt;Node6</title>
<path fill="none" stroke="midnightblue" d="M679.219,-654.459C707.654,-659.654 743.022,-666.115 772.868,-671.568"/>
<polygon fill="midnightblue" stroke="midnightblue" points="772.294,-675.021 782.76,-673.375 773.552,-668.135 772.294,-675.021"/>
</g>
<!-- Node6&#45;&gt;Node4 -->
<g id="edge6" class="edge"><title>Node6&#45;&gt;Node4</title>
<path fill="none" stroke="midnightblue" d="M778.521,-673.302C769.994,-670.637 761.54,-667.242 754,-662.919 734.096,-651.507 738.839,-635.519 718,-625.919 647.684,-593.525 557.803,-592.711 495.832,-597.507"/>
<polygon fill="midnightblue" stroke="midnightblue" points="495.421,-594.029 485.75,-598.356 496.008,-601.005 495.421,-594.029"/>
</g>
<!-- Node8 -->
<g id="node8" class="node"><title>Node8</title>
<g id="a_node8"><a xlink:href="../../d1/dfc/classback_end_1_1_rule_set.html#a9feb2a620b625065a9436f2e2246b094" target="_top" xlink:title="backEnd.RuleSet.addGrid">
<polygon fill="white" stroke="black" points="767.5,-345.419 767.5,-364.419 904.5,-364.419 904.5,-345.419 767.5,-345.419"/>
<text text-anchor="middle" x="836" y="-352.419" font-family="Helvetica,sans-Serif" font-size="10.00">backEnd.RuleSet.addGrid</text>
</a>
</g>
</g>
<!-- Node7&#45;&gt;Node8 -->
<g id="edge8" class="edge"><title>Node7&#45;&gt;Node8</title>
<path fill="none" stroke="midnightblue" d="M646.565,-437.892C670.603,-420.126 713.23,-390.842 754,-373.919 759.953,-371.448 766.292,-369.261 772.702,-367.334"/>
<polygon fill="midnightblue" stroke="midnightblue" points="774.097,-370.579 782.786,-364.517 772.213,-363.837 774.097,-370.579"/>
</g>
<!-- Node9 -->
<g id="node9" class="node"><title>Node9</title>
<g id="a_node9"><a xlink:href="../../dc/da1/classfront_end_1_1_animator_loop.html#a467af791b6cbba9bb796678842386ca2" target="_top" xlink:title="frontEnd.AnimatorLoop.check\lBadXMLFileData">
<polygon fill="white" stroke="black" points="757,-459.919 757,-489.919 915,-489.919 915,-459.919 757,-459.919"/>
<text text-anchor="start" x="765" y="-477.919" font-family="Helvetica,sans-Serif" font-size="10.00">frontEnd.AnimatorLoop.check</text>
<text text-anchor="middle" x="836" y="-466.919" font-family="Helvetica,sans-Serif" font-size="10.00">BadXMLFileData</text>
</a>
</g>
</g>
<!-- Node7&#45;&gt;Node9 -->
<g id="edge9" class="edge"><title>Node7&#45;&gt;Node9</title>
<path fill="none" stroke="midnightblue" d="M702.093,-460.862C716.558,-462.392 731.835,-464.007 746.675,-465.577"/>
<polygon fill="midnightblue" stroke="midnightblue" points="746.551,-469.083 756.864,-466.655 747.288,-462.122 746.551,-469.083"/>
</g>
<!-- Node10 -->
<g id="node10" class="node"><title>Node10</title>
<g id="a_node10"><a xlink:href="../../d5/d51/classfront_end_1_1_c_a_settings.html#a5c62b367ceda95101ac5ff5c3048cf1c" target="_top" xlink:title="frontEnd.CASettings.getType">
<polygon fill="white" stroke="black" points="971.5,-361.419 971.5,-380.419 1124.5,-380.419 1124.5,-361.419 971.5,-361.419"/>
<text text-anchor="middle" x="1048" y="-368.419" font-family="Helvetica,sans-Serif" font-size="10.00">frontEnd.CASettings.getType</text>
</a>
</g>
</g>
<!-- Node7&#45;&gt;Node10 -->
<g id="edge17" class="edge"><title>Node7&#45;&gt;Node10</title>
<path fill="none" stroke="midnightblue" d="M702.085,-445.841C761.223,-439.427 845.494,-428.426 918,-411.919 950.163,-404.597 985.838,-392.978 1011.5,-383.975"/>
<polygon fill="midnightblue" stroke="midnightblue" points="1012.91,-387.19 1021.17,-380.545 1010.57,-380.593 1012.91,-387.19"/>
</g>
<!-- Node13 -->
<g id="node13" class="node"><title>Node13</title>
<g id="a_node13"><a xlink:href="../../d5/d51/classfront_end_1_1_c_a_settings.html#ad1a35159c9a3b860bd4af0d12e40b169" target="_top" xlink:title="frontEnd.CASettings.getColumns">
<polygon fill="white" stroke="black" points="961,-79.4191 961,-98.4191 1135,-98.4191 1135,-79.4191 961,-79.4191"/>
<text text-anchor="middle" x="1048" y="-86.4191" font-family="Helvetica,sans-Serif" font-size="10.00">frontEnd.CASettings.getColumns</text>
</a>
</g>
</g>
<!-- Node7&#45;&gt;Node13 -->
<g id="edge13" class="edge"><title>Node7&#45;&gt;Node13</title>
<path fill="none" stroke="midnightblue" d="M633.128,-437.59C656.89,-378.298 742.206,-166.788 754,-156.919 808.629,-111.207 888.228,-94.9026 950.678,-89.6456"/>
<polygon fill="midnightblue" stroke="midnightblue" points="951.234,-93.1135 960.941,-88.8672 950.705,-86.1336 951.234,-93.1135"/>
</g>
<!-- Node14 -->
<g id="node14" class="node"><title>Node14</title>
<g id="a_node14"><a xlink:href="../../d5/d51/classfront_end_1_1_c_a_settings.html#a9b6c355e48adf9a7db04c30c74aac53f" target="_top" xlink:title="frontEnd.CASettings.getGrid">
<polygon fill="white" stroke="black" points="972,-497.419 972,-516.419 1124,-516.419 1124,-497.419 972,-497.419"/>
<text text-anchor="middle" x="1048" y="-504.419" font-family="Helvetica,sans-Serif" font-size="10.00">frontEnd.CASettings.getGrid</text>
</a>
</g>
</g>
<!-- Node7&#45;&gt;Node14 -->
<g id="edge14" class="edge"><title>Node7&#45;&gt;Node14</title>
<path fill="none" stroke="midnightblue" d="M659.605,-468.016C684.786,-478.86 720.823,-492.628 754,-498.919 823.121,-512.026 903.038,-513.31 961.932,-511.717"/>
<polygon fill="midnightblue" stroke="midnightblue" points="962.046,-515.216 971.936,-511.414 961.834,-508.219 962.046,-515.216"/>
</g>
<!-- Node15 -->
<g id="node15" class="node"><title>Node15</title>
<g id="a_node15"><a xlink:href="../../d5/d51/classfront_end_1_1_c_a_settings.html#a560c336f7aed8050af9a606949926548" target="_top" xlink:title="frontEnd.CASettings.getParameters">
<polygon fill="white" stroke="black" points="954,-231.419 954,-250.419 1142,-250.419 1142,-231.419 954,-231.419"/>
<text text-anchor="middle" x="1048" y="-238.419" font-family="Helvetica,sans-Serif" font-size="10.00">frontEnd.CASettings.getParameters</text>
</a>
</g>
</g>
<!-- Node7&#45;&gt;Node15 -->
<g id="edge15" class="edge"><title>Node7&#45;&gt;Node15</title>
<path fill="none" stroke="midnightblue" d="M639.496,-437.771C660.631,-413.072 705.861,-364.059 754,-335.919 828.125,-292.589 924.526,-266.241 986.102,-252.618"/>
<polygon fill="midnightblue" stroke="midnightblue" points="987.021,-256 996.053,-250.461 985.538,-249.159 987.021,-256"/>
</g>
<!-- Node16 -->
<g id="node16" class="node"><title>Node16</title>
<g id="a_node16"><a xlink:href="../../d5/d51/classfront_end_1_1_c_a_settings.html#aef613fb5595d20d85dad92cf5f5efad9" target="_top" xlink:title="frontEnd.CASettings.getRows">
<polygon fill="white" stroke="black" points="970.5,-155.419 970.5,-174.419 1125.5,-174.419 1125.5,-155.419 970.5,-155.419"/>
<text text-anchor="middle" x="1048" y="-162.419" font-family="Helvetica,sans-Serif" font-size="10.00">frontEnd.CASettings.getRows</text>
</a>
</g>
</g>
<!-- Node7&#45;&gt;Node16 -->
<g id="edge16" class="edge"><title>Node7&#45;&gt;Node16</title>
<path fill="none" stroke="midnightblue" d="M631.955,-437.567C649.174,-385.226 707.879,-215.285 754,-183.919 786.458,-161.845 885.902,-159.454 959.99,-161.052"/>
<polygon fill="midnightblue" stroke="midnightblue" points="960.183,-164.558 970.266,-161.303 960.354,-157.56 960.183,-164.558"/>
</g>
<!-- Node17 -->
<g id="node17" class="node"><title>Node17</title>
<g id="a_node17"><a xlink:href="../../dc/da1/classfront_end_1_1_animator_loop.html#af1d1ddcc3fe02f0d1c6ba1f234d455cc" target="_top" xlink:title="frontEnd.AnimatorLoop.initGrid">
<polygon fill="white" stroke="black" points="754,-547.419 754,-566.419 918,-566.419 918,-547.419 754,-547.419"/>
<text text-anchor="middle" x="836" y="-554.419" font-family="Helvetica,sans-Serif" font-size="10.00">frontEnd.AnimatorLoop.initGrid</text>
</a>
</g>
</g>
<!-- Node7&#45;&gt;Node17 -->
<g id="edge18" class="edge"><title>Node7&#45;&gt;Node17</title>
<path fill="none" stroke="midnightblue" d="M647.133,-468.065C671.384,-485.71 713.881,-514.757 754,-532.919 763.72,-537.32 774.458,-541.157 784.849,-544.396"/>
<polygon fill="midnightblue" stroke="midnightblue" points="784.078,-547.819 794.661,-547.318 786.075,-541.11 784.078,-547.819"/>
</g>
<!-- Node20 -->
<g id="node20" class="node"><title>Node20</title>
<g id="a_node20"><a xlink:href="../../dc/da1/classfront_end_1_1_animator_loop.html#a92b2bebb55107557a33d1621ddae5872" target="_top" xlink:title="frontEnd.AnimatorLoop.init\lGridPane">
<polygon fill="white" stroke="black" points="763.5,-623.919 763.5,-653.919 908.5,-653.919 908.5,-623.919 763.5,-623.919"/>
<text text-anchor="start" x="771.5" y="-641.919" font-family="Helvetica,sans-Serif" font-size="10.00">frontEnd.AnimatorLoop.init</text>
<text text-anchor="middle" x="836" y="-630.919" font-family="Helvetica,sans-Serif" font-size="10.00">GridPane</text>
</a>
</g>
</g>
<!-- Node7&#45;&gt;Node20 -->
<g id="edge22" class="edge"><title>Node7&#45;&gt;Node20</title>
<path fill="none" stroke="midnightblue" d="M634.911,-468.312C652.133,-500.295 696.161,-574.253 754,-613.919 756.879,-615.893 759.919,-617.716 763.067,-619.399"/>
<polygon fill="midnightblue" stroke="midnightblue" points="761.648,-622.6 772.177,-623.78 764.682,-616.292 761.648,-622.6"/>
</g>
<!-- Node26 -->
<g id="node26" class="node"><title>Node26</title>
<g id="a_node26"><a xlink:href="../../d0/d87/classfront_end_1_1_x_m_l_handler.html#a5ec2b2b772a94660c130efe55a8d356e" target="_top" xlink:title="frontEnd.XMLHandler.read">
<polygon fill="white" stroke="black" points="765.5,-585.419 765.5,-604.419 906.5,-604.419 906.5,-585.419 765.5,-585.419"/>
<text text-anchor="middle" x="836" y="-592.419" font-family="Helvetica,sans-Serif" font-size="10.00">frontEnd.XMLHandler.read</text>
</a>
</g>
</g>
<!-- Node7&#45;&gt;Node26 -->
<g id="edge28" class="edge"><title>Node7&#45;&gt;Node26</title>
<path fill="none" stroke="midnightblue" d="M638.082,-468.07C658.128,-494.321 703.087,-548.112 754,-575.919 758.215,-578.221 762.702,-580.246 767.318,-582.026"/>
<polygon fill="midnightblue" stroke="midnightblue" points="766.336,-585.39 776.931,-585.348 768.622,-578.774 766.336,-585.39"/>
</g>
<!-- Node29 -->
<g id="node29" class="node"><title>Node29</title>
<g id="a_node29"><a xlink:href="../../d1/dfc/classback_end_1_1_rule_set.html#ae12bb5fde75014f04b76b4a9f77d5b19" target="_top" xlink:title="backEnd.RuleSet.setParams">
<polygon fill="white" stroke="black" points="761,-383.419 761,-402.419 911,-402.419 911,-383.419 761,-383.419"/>
<text text-anchor="middle" x="836" y="-390.419" font-family="Helvetica,sans-Serif" font-size="10.00">backEnd.RuleSet.setParams</text>
</a>
</g>
</g>
<!-- Node7&#45;&gt;Node29 -->
<g id="edge31" class="edge"><title>Node7&#45;&gt;Node29</title>
<path fill="none" stroke="midnightblue" d="M679.219,-437.856C714.117,-427.789 759.459,-414.71 792.218,-405.26"/>
<polygon fill="midnightblue" stroke="midnightblue" points="793.317,-408.586 801.956,-402.451 791.377,-401.86 793.317,-408.586"/>
</g>
<!-- Node9&#45;&gt;Node10 -->
<g id="edge10" class="edge"><title>Node9&#45;&gt;Node10</title>
<path fill="none" stroke="midnightblue" d="M881.687,-459.878C893.647,-455.445 906.455,-450.323 918,-444.919 956.113,-427.08 997.984,-401.961 1023.38,-386.063"/>
<polygon fill="midnightblue" stroke="midnightblue" points="1025.36,-388.95 1031.95,-380.653 1021.63,-383.03 1025.36,-388.95"/>
</g>
<!-- Node11 -->
<g id="node11" class="node"><title>Node11</title>
<g id="a_node11"><a xlink:href="../../dd/dbe/classfront_end_1_1_main.html#a1c9672872cb8b8f6efe2d1ddce9a6b61" target="_top" xlink:title="frontEnd.Main.showPopupMessage">
<polygon fill="white" stroke="black" points="957,-459.419 957,-478.419 1139,-478.419 1139,-459.419 957,-459.419"/>
<text text-anchor="middle" x="1048" y="-466.419" font-family="Helvetica,sans-Serif" font-size="10.00">frontEnd.Main.showPopupMessage</text>
</a>
</g>
</g>
<!-- Node9&#45;&gt;Node11 -->
<g id="edge11" class="edge"><title>Node9&#45;&gt;Node11</title>
<path fill="none" stroke="midnightblue" d="M915.196,-472.685C925.447,-472.392 936.064,-472.089 946.618,-471.787"/>
<polygon fill="midnightblue" stroke="midnightblue" points="946.807,-475.283 956.703,-471.499 946.607,-468.286 946.807,-475.283"/>
</g>
<!-- Node12 -->
<g id="node12" class="node"><title>Node12</title>
<g id="a_node12"><a xlink:href="../../dd/dbe/classfront_end_1_1_main.html#aef35ad9be3f43a5367d7a8ab30d0bec1" target="_top" xlink:title="frontEnd.Main.createPopup">
<polygon fill="white" stroke="black" points="1198,-459.419 1198,-478.419 1344,-478.419 1344,-459.419 1198,-459.419"/>
<text text-anchor="middle" x="1271" y="-466.419" font-family="Helvetica,sans-Serif" font-size="10.00">frontEnd.Main.createPopup</text>
</a>
</g>
</g>
<!-- Node11&#45;&gt;Node12 -->
<g id="edge12" class="edge"><title>Node11&#45;&gt;Node12</title>
<path fill="none" stroke="midnightblue" d="M1139.21,-468.919C1155.26,-468.919 1171.91,-468.919 1187.73,-468.919"/>
<polygon fill="midnightblue" stroke="midnightblue" points="1188,-472.419 1198,-468.919 1188,-465.419 1188,-472.419"/>
</g>
<!-- Node17&#45;&gt;Node14 -->
<g id="edge19" class="edge"><title>Node17&#45;&gt;Node14</title>
<path fill="none" stroke="midnightblue" d="M870.917,-547.381C894.204,-540.967 925.869,-532.514 954,-525.919 964.81,-523.385 976.372,-520.869 987.54,-518.536"/>
<polygon fill="midnightblue" stroke="midnightblue" points="988.567,-521.898 997.654,-516.451 987.154,-515.043 988.567,-521.898"/>
</g>
<!-- Node18 -->
<g id="node18" class="node"><title>Node18</title>
<g id="a_node18"><a xlink:href="../../d1/dfc/classback_end_1_1_rule_set.html#a603d39da71653ea4bbdadf3d78978981" target="_top" xlink:title="backEnd.RuleSet.initialize\lPatch">
<polygon fill="white" stroke="black" points="979.5,-535.919 979.5,-565.919 1116.5,-565.919 1116.5,-535.919 979.5,-535.919"/>
<text text-anchor="start" x="987.5" y="-553.919" font-family="Helvetica,sans-Serif" font-size="10.00">backEnd.RuleSet.initialize</text>
<text text-anchor="middle" x="1048" y="-542.919" font-family="Helvetica,sans-Serif" font-size="10.00">Patch</text>
</a>
</g>
</g>
<!-- Node17&#45;&gt;Node18 -->
<g id="edge20" class="edge"><title>Node17&#45;&gt;Node18</title>
<path fill="none" stroke="midnightblue" d="M918.191,-554.599C934.918,-554.121 952.496,-553.619 969.102,-553.145"/>
<polygon fill="midnightblue" stroke="midnightblue" points="969.404,-556.638 979.3,-552.853 969.204,-549.641 969.404,-556.638"/>
</g>
<!-- Node19 -->
<g id="node19" class="node"><title>Node19</title>
<g id="a_node19"><a xlink:href="../../db/d5e/classback_end_1_1_patch.html#ac9c7bf582f9e7aec34492785fea4cf68" target="_top" xlink:title="backEnd.Patch.fill">
<polygon fill="white" stroke="black" points="1221.5,-541.419 1221.5,-560.419 1320.5,-560.419 1320.5,-541.419 1221.5,-541.419"/>
<text text-anchor="middle" x="1271" y="-548.419" font-family="Helvetica,sans-Serif" font-size="10.00">backEnd.Patch.fill</text>
</a>
</g>
</g>
<!-- Node18&#45;&gt;Node19 -->
<g id="edge21" class="edge"><title>Node18&#45;&gt;Node19</title>
<path fill="none" stroke="midnightblue" d="M1116.51,-550.919C1146.83,-550.919 1182.26,-550.919 1211.44,-550.919"/>
<polygon fill="midnightblue" stroke="midnightblue" points="1211.48,-554.419 1221.48,-550.919 1211.48,-547.419 1211.48,-554.419"/>
</g>
<!-- Node21 -->
<g id="node21" class="node"><title>Node21</title>
<g id="a_node21"><a xlink:href="../../dc/da1/classfront_end_1_1_animator_loop.html#aa8be847f0f9efee238193322c5ab9f5b" target="_top" xlink:title="frontEnd.AnimatorLoop.add\lCellsToGrid">
<polygon fill="white" stroke="black" points="973.5,-672.919 973.5,-702.919 1122.5,-702.919 1122.5,-672.919 973.5,-672.919"/>
<text text-anchor="start" x="981.5" y="-690.919" font-family="Helvetica,sans-Serif" font-size="10.00">frontEnd.AnimatorLoop.add</text>
<text text-anchor="middle" x="1048" y="-679.919" font-family="Helvetica,sans-Serif" font-size="10.00">CellsToGrid</text>
</a>
</g>
</g>
<!-- Node20&#45;&gt;Node21 -->
<g id="edge23" class="edge"><title>Node20&#45;&gt;Node21</title>
<path fill="none" stroke="midnightblue" d="M901.434,-653.954C924.01,-659.222 949.543,-665.179 972.85,-670.618"/>
<polygon fill="midnightblue" stroke="midnightblue" points="972.154,-674.049 982.688,-672.913 973.745,-667.232 972.154,-674.049"/>
</g>
<!-- Node22 -->
<g id="node22" class="node"><title>Node22</title>
<g id="a_node22"><a xlink:href="../../d4/d6c/classshape_factories_1_1_shape_factory.html#a7a14b33c28eb5951679f13f21633bdf4" target="_top" xlink:title="shapeFactories.ShapeFactory.make\lShape">
<polygon fill="white" stroke="black" points="1178.5,-694.919 1178.5,-724.919 1363.5,-724.919 1363.5,-694.919 1178.5,-694.919"/>
<text text-anchor="start" x="1186.5" y="-712.919" font-family="Helvetica,sans-Serif" font-size="10.00">shapeFactories.ShapeFactory.make</text>
<text text-anchor="middle" x="1271" y="-701.919" font-family="Helvetica,sans-Serif" font-size="10.00">Shape</text>
</a>
</g>
</g>
<!-- Node21&#45;&gt;Node22 -->
<g id="edge24" class="edge"><title>Node21&#45;&gt;Node22</title>
<path fill="none" stroke="midnightblue" d="M1122.59,-695.245C1137.22,-696.701 1152.82,-698.254 1168.19,-699.784"/>
<polygon fill="midnightblue" stroke="midnightblue" points="1167.95,-703.278 1178.25,-700.786 1168.65,-696.312 1167.95,-703.278"/>
</g>
<!-- Node25 -->
<g id="node25" class="node"><title>Node25</title>
<g id="a_node25"><a xlink:href="../../d4/d6c/classshape_factories_1_1_shape_factory.html#a6dbdc6b9de19c9685fc9c2361d982b2f" target="_top" xlink:title="shapeFactories.ShapeFactory.move">
<polygon fill="white" stroke="black" points="1178.5,-656.419 1178.5,-675.419 1363.5,-675.419 1363.5,-656.419 1178.5,-656.419"/>
<text text-anchor="middle" x="1271" y="-663.419" font-family="Helvetica,sans-Serif" font-size="10.00">shapeFactories.ShapeFactory.move</text>
</a>
</g>
</g>
<!-- Node21&#45;&gt;Node25 -->
<g id="edge27" class="edge"><title>Node21&#45;&gt;Node25</title>
<path fill="none" stroke="midnightblue" d="M1122.59,-680.593C1137.22,-679.137 1152.82,-677.584 1168.19,-676.054"/>
<polygon fill="midnightblue" stroke="midnightblue" points="1168.65,-679.526 1178.25,-675.053 1167.95,-672.56 1168.65,-679.526"/>
</g>
<!-- Node23 -->
<g id="node23" class="node"><title>Node23</title>
<g id="a_node23"><a xlink:href="../../d4/d6c/classshape_factories_1_1_shape_factory.html#adcf2f7637e2a6ed76a74dceaf986f8a5" target="_top" xlink:title="shapeFactories.ShapeFactory.set\lDimensions">
<polygon fill="white" stroke="black" points="1400.5,-718.919 1400.5,-748.919 1573.5,-748.919 1573.5,-718.919 1400.5,-718.919"/>
<text text-anchor="start" x="1408.5" y="-736.919" font-family="Helvetica,sans-Serif" font-size="10.00">shapeFactories.ShapeFactory.set</text>
<text text-anchor="middle" x="1487" y="-725.919" font-family="Helvetica,sans-Serif" font-size="10.00">Dimensions</text>
</a>
</g>
</g>
<!-- Node22&#45;&gt;Node23 -->
<g id="edge25" class="edge"><title>Node22&#45;&gt;Node23</title>
<path fill="none" stroke="midnightblue" d="M1363.69,-720.202C1372.51,-721.191 1381.47,-722.196 1390.32,-723.189"/>
<polygon fill="midnightblue" stroke="midnightblue" points="1389.94,-726.668 1400.27,-724.304 1390.72,-719.711 1389.94,-726.668"/>
</g>
<!-- Node24 -->
<g id="node24" class="node"><title>Node24</title>
<g id="a_node24"><a xlink:href="../../d4/d6c/classshape_factories_1_1_shape_factory.html#a02796a37b5651bf8fe6dc075f5e6e444" target="_top" xlink:title="shapeFactories.ShapeFactory.set\lCoords">
<polygon fill="white" stroke="black" points="1400.5,-669.919 1400.5,-699.919 1573.5,-699.919 1573.5,-669.919 1400.5,-669.919"/>
<text text-anchor="start" x="1408.5" y="-687.919" font-family="Helvetica,sans-Serif" font-size="10.00">shapeFactories.ShapeFactory.set</text>
<text text-anchor="middle" x="1487" y="-676.919" font-family="Helvetica,sans-Serif" font-size="10.00">Coords</text>
</a>
</g>
</g>
<!-- Node22&#45;&gt;Node24 -->
<g id="edge26" class="edge"><title>Node22&#45;&gt;Node24</title>
<path fill="none" stroke="midnightblue" d="M1363.69,-699.208C1372.51,-698.178 1381.47,-697.131 1390.32,-696.096"/>
<polygon fill="midnightblue" stroke="midnightblue" points="1390.74,-699.572 1400.27,-694.935 1389.93,-692.619 1390.74,-699.572"/>
</g>
<!-- Node27 -->
<g id="node27" class="node"><title>Node27</title>
<g id="a_node27"><a xlink:href="../../d0/d87/classfront_end_1_1_x_m_l_handler.html#a4946a8ebfe5de06e04a84fee47d14a36" target="_top" xlink:title="frontEnd.XMLHandler.read\lParameters">
<polygon fill="white" stroke="black" points="977.5,-584.919 977.5,-614.919 1118.5,-614.919 1118.5,-584.919 977.5,-584.919"/>
<text text-anchor="start" x="985.5" y="-602.919" font-family="Helvetica,sans-Serif" font-size="10.00">frontEnd.XMLHandler.read</text>
<text text-anchor="middle" x="1048" y="-591.919" font-family="Helvetica,sans-Serif" font-size="10.00">Parameters</text>
</a>
</g>
</g>
<!-- Node26&#45;&gt;Node27 -->
<g id="edge29" class="edge"><title>Node26&#45;&gt;Node27</title>
<path fill="none" stroke="midnightblue" d="M906.635,-596.577C925.953,-597.037 947.078,-597.54 966.94,-598.013"/>
<polygon fill="midnightblue" stroke="midnightblue" points="967.114,-601.518 977.195,-598.257 967.281,-594.52 967.114,-601.518"/>
</g>
<!-- Node28 -->
<g id="node28" class="node"><title>Node28</title>
<g id="a_node28"><a xlink:href="../../d0/d87/classfront_end_1_1_x_m_l_handler.html#ae0df3c17a5ff74491584286b4e830fba" target="_top" xlink:title="frontEnd.XMLHandler.readGrid">
<polygon fill="white" stroke="black" points="967.5,-634.419 967.5,-653.419 1128.5,-653.419 1128.5,-634.419 967.5,-634.419"/>
<text text-anchor="middle" x="1048" y="-641.419" font-family="Helvetica,sans-Serif" font-size="10.00">frontEnd.XMLHandler.readGrid</text>
</a>
</g>
</g>
<!-- Node26&#45;&gt;Node28 -->
<g id="edge30" class="edge"><title>Node26&#45;&gt;Node28</title>
<path fill="none" stroke="midnightblue" d="M879.12,-604.458C891.657,-607.389 905.407,-610.694 918,-613.919 934.087,-618.038 937.876,-619.949 954,-623.919 965.651,-626.788 978.18,-629.639 990.15,-632.251"/>
<polygon fill="midnightblue" stroke="midnightblue" points="989.528,-635.698 1000.04,-634.385 991.004,-628.855 989.528,-635.698"/>
</g>
<!-- Node31 -->
<g id="node31" class="node"><title>Node31</title>
<g id="a_node31"><a xlink:href="../../dc/da1/classfront_end_1_1_animator_loop.html#abeeeb7294620845e96455930decbd7bf" target="_top" xlink:title="frontEnd.AnimatorLoop.write\lToXML">
<polygon fill="white" stroke="black" points="549.5,-187.919 549.5,-217.919 702.5,-217.919 702.5,-187.919 549.5,-187.919"/>
<text text-anchor="start" x="557.5" y="-205.919" font-family="Helvetica,sans-Serif" font-size="10.00">frontEnd.AnimatorLoop.write</text>
<text text-anchor="middle" x="626" y="-194.919" font-family="Helvetica,sans-Serif" font-size="10.00">ToXML</text>
</a>
</g>
</g>
<!-- Node30&#45;&gt;Node31 -->
<g id="edge33" class="edge"><title>Node30&#45;&gt;Node31</title>
<path fill="none" stroke="midnightblue" d="M433.576,-376.338C464.679,-348.16 556.432,-265.038 600.642,-224.986"/>
<polygon fill="midnightblue" stroke="midnightblue" points="603.257,-227.339 608.318,-218.032 598.558,-222.152 603.257,-227.339"/>
</g>
<!-- Node31&#45;&gt;Node10 -->
<g id="edge37" class="edge"><title>Node31&#45;&gt;Node10</title>
<path fill="none" stroke="midnightblue" d="M664.642,-217.976C745.766,-250.426 935.993,-326.516 1013.37,-357.468"/>
<polygon fill="midnightblue" stroke="midnightblue" points="1012.51,-360.891 1023.09,-361.356 1015.11,-354.392 1012.51,-360.891"/>
</g>
<!-- Node31&#45;&gt;Node13 -->
<g id="edge34" class="edge"><title>Node31&#45;&gt;Node13</title>
<path fill="none" stroke="midnightblue" d="M631.939,-187.862C644.957,-150.984 684.099,-56.4933 754,-19.9191 818.583,13.8724 847.298,-2.19831 918,-19.9191 959.25,-30.2581 1001.73,-56.5898 1026.18,-73.5711"/>
<polygon fill="midnightblue" stroke="midnightblue" points="1024.15,-76.4265 1034.33,-79.3574 1028.2,-70.717 1024.15,-76.4265"/>
</g>
<!-- Node31&#45;&gt;Node15 -->
<g id="edge35" class="edge"><title>Node31&#45;&gt;Node15</title>
<path fill="none" stroke="midnightblue" d="M702.753,-215.314C719.59,-217.772 737.374,-220.14 754,-221.919 816.746,-228.635 887.323,-233.299 943.486,-236.325"/>
<polygon fill="midnightblue" stroke="midnightblue" points="943.628,-239.837 953.799,-236.871 943.998,-232.847 943.628,-239.837"/>
</g>
<!-- Node31&#45;&gt;Node16 -->
<g id="edge36" class="edge"><title>Node31&#45;&gt;Node16</title>
<path fill="none" stroke="midnightblue" d="M654.763,-187.858C679.856,-175.157 718.233,-157.958 754,-150.919 833.827,-135.209 928.128,-144.559 987.75,-153.81"/>
<polygon fill="midnightblue" stroke="midnightblue" points="987.313,-157.284 997.74,-155.409 988.419,-150.372 987.313,-157.284"/>
</g>
<!-- Node32 -->
<g id="node32" class="node"><title>Node32</title>
<g id="a_node32"><a xlink:href="../../dc/da1/classfront_end_1_1_animator_loop.html#a49bb0767763415d97458827801531bc6" target="_top" xlink:title="frontEnd.AnimatorLoop.grid\lPatchToString">
<polygon fill="white" stroke="black" points="761.5,-29.9191 761.5,-59.9191 910.5,-59.9191 910.5,-29.9191 761.5,-29.9191"/>
<text text-anchor="start" x="769.5" y="-47.9191" font-family="Helvetica,sans-Serif" font-size="10.00">frontEnd.AnimatorLoop.grid</text>
<text text-anchor="middle" x="836" y="-36.9191" font-family="Helvetica,sans-Serif" font-size="10.00">PatchToString</text>
</a>
</g>
</g>
<!-- Node31&#45;&gt;Node32 -->
<g id="edge38" class="edge"><title>Node31&#45;&gt;Node32</title>
<path fill="none" stroke="midnightblue" d="M638.321,-187.787C658.738,-161.451 704.253,-106.947 754,-74.9191 760.241,-70.9008 767.098,-67.3149 774.097,-64.1443"/>
<polygon fill="midnightblue" stroke="midnightblue" points="775.848,-67.2036 783.687,-60.0766 773.115,-60.7593 775.848,-67.2036"/>
</g>
<!-- Node33 -->
<g id="node33" class="node"><title>Node33</title>
<g id="a_node33"><a xlink:href="../../d0/d87/classfront_end_1_1_x_m_l_handler.html#a8b7864cb0ca3ba8aad07a5b093145861" target="_top" xlink:title="frontEnd.XMLHandler.write">
<polygon fill="white" stroke="black" points="765,-193.419 765,-212.419 907,-212.419 907,-193.419 765,-193.419"/>
<text text-anchor="middle" x="836" y="-200.419" font-family="Helvetica,sans-Serif" font-size="10.00">frontEnd.XMLHandler.write</text>
</a>
</g>
</g>
<!-- Node31&#45;&gt;Node33 -->
<g id="edge39" class="edge"><title>Node31&#45;&gt;Node33</title>
<path fill="none" stroke="midnightblue" d="M702.681,-202.919C719.515,-202.919 737.42,-202.919 754.441,-202.919"/>
<polygon fill="midnightblue" stroke="midnightblue" points="754.908,-206.419 764.908,-202.919 754.908,-199.419 754.908,-206.419"/>
</g>
<!-- Node33&#45;&gt;Node10 -->
<g id="edge40" class="edge"><title>Node33&#45;&gt;Node10</title>
<path fill="none" stroke="midnightblue" d="M848.892,-212.433C883.391,-240.032 983.781,-320.344 1026.92,-354.853"/>
<polygon fill="midnightblue" stroke="midnightblue" points="1024.98,-357.788 1034.98,-361.301 1029.36,-352.321 1024.98,-357.788"/>
</g>
<!-- Node33&#45;&gt;Node13 -->
<g id="edge43" class="edge"><title>Node33&#45;&gt;Node13</title>
<path fill="none" stroke="midnightblue" d="M854.543,-193.396C891.37,-173.404 976.92,-126.962 1020.48,-103.314"/>
<polygon fill="midnightblue" stroke="midnightblue" points="1022.24,-106.343 1029.36,-98.4957 1018.9,-100.191 1022.24,-106.343"/>
</g>
<!-- Node33&#45;&gt;Node14 -->
<g id="edge45" class="edge"><title>Node33&#45;&gt;Node14</title>
<path fill="none" stroke="midnightblue" d="M844.457,-212.682C860.328,-233.921 897.659,-286.404 918,-335.919 944.381,-400.136 904.154,-439.596 954,-487.919 956.623,-490.462 959.49,-492.708 962.538,-494.687"/>
<polygon fill="midnightblue" stroke="midnightblue" points="961.099,-497.889 971.557,-499.591 964.443,-491.739 961.099,-497.889"/>
</g>
<!-- Node33&#45;&gt;Node15 -->
<g id="edge41" class="edge"><title>Node33&#45;&gt;Node15</title>
<path fill="none" stroke="midnightblue" d="M889.721,-212.459C918.429,-217.654 954.137,-224.115 984.27,-229.568"/>
<polygon fill="midnightblue" stroke="midnightblue" points="983.794,-233.039 994.258,-231.375 985.041,-226.15 983.794,-233.039"/>
</g>
<!-- Node33&#45;&gt;Node16 -->
<g id="edge42" class="edge"><title>Node33&#45;&gt;Node16</title>
<path fill="none" stroke="midnightblue" d="M889.721,-193.379C918.429,-188.184 954.137,-181.723 984.27,-176.27"/>
<polygon fill="midnightblue" stroke="midnightblue" points="985.041,-179.688 994.258,-174.463 983.794,-172.8 985.041,-179.688"/>
</g>
<!-- Node34 -->
<g id="node34" class="node"><title>Node34</title>
<g id="a_node34"><a xlink:href="../../d0/d87/classfront_end_1_1_x_m_l_handler.html#a28556434b6cf7a6f8a8505c03aca8336" target="_top" xlink:title="frontEnd.XMLHandler.writeGrid">
<polygon fill="white" stroke="black" points="967.5,-193.419 967.5,-212.419 1128.5,-212.419 1128.5,-193.419 967.5,-193.419"/>
<text text-anchor="middle" x="1048" y="-200.419" font-family="Helvetica,sans-Serif" font-size="10.00">frontEnd.XMLHandler.writeGrid</text>
</a>
</g>
</g>
<!-- Node33&#45;&gt;Node34 -->
<g id="edge44" class="edge"><title>Node33&#45;&gt;Node34</title>
<path fill="none" stroke="midnightblue" d="M907.219,-202.919C923.215,-202.919 940.425,-202.919 957.115,-202.919"/>
<polygon fill="midnightblue" stroke="midnightblue" points="957.424,-206.419 967.424,-202.919 957.424,-199.419 957.424,-206.419"/>
</g>
<!-- Node36&#45;&gt;Node6 -->
<g id="edge49" class="edge"><title>Node36&#45;&gt;Node6</title>
<path fill="none" stroke="midnightblue" d="M298.521,-682.919C414.328,-682.919 643.664,-682.919 761.43,-682.919"/>
<polygon fill="midnightblue" stroke="midnightblue" points="761.437,-686.419 771.437,-682.919 761.437,-679.419 761.437,-686.419"/>
</g>
<!-- Node37 -->
<g id="node37" class="node"><title>Node37</title>
<g id="a_node37"><a xlink:href="../../dd/dbe/classfront_end_1_1_main.html#a1f2180a25c895237d43abff5e7644480" target="_top" xlink:title="frontEnd.Main.playPauseSim">
<polygon fill="white" stroke="black" points="346,-711.419 346,-730.419 498,-730.419 498,-711.419 346,-711.419"/>
<text text-anchor="middle" x="422" y="-718.419" font-family="Helvetica,sans-Serif" font-size="10.00">frontEnd.Main.playPauseSim</text>
</a>
</g>
</g>
<!-- Node36&#45;&gt;Node37 -->
<g id="edge48" class="edge"><title>Node36&#45;&gt;Node37</title>
<path fill="none" stroke="midnightblue" d="M276.702,-692.508C302.859,-697.658 335.284,-704.042 362.767,-709.454"/>
<polygon fill="midnightblue" stroke="midnightblue" points="362.16,-712.901 372.648,-711.399 363.513,-706.033 362.16,-712.901"/>
</g>
</g>
</svg>
