<?xml version="1.0" encoding="UTF-8" standalone="no"?>
<!DOCTYPE svg PUBLIC "-//W3C//DTD SVG 1.1//EN"
 "http://www.w3.org/Graphics/SVG/1.1/DTD/svg11.dtd">
<!-- Generated by graphviz version 2.36.0 (20140111.2315)
 -->
<!-- Title: frontEnd.Main.writeXML Pages: 1 -->
<!--zoomable 262 -->
<svg id="main" version="1.1" xmlns="http://www.w3.org/2000/svg" xmlns:xlink="http://www.w3.org/1999/xlink" xml:space="preserve" onload="init(evt)">
<style type="text/css"><![CDATA[
.edge:hover path { stroke: red; }
.edge:hover polygon { stroke: red; fill: red; }
]]></style>
<script type="text/javascript"><![CDATA[
var edges = document.getElementsByTagName('g');
if (edges && edges.length) {
  for (var i=0;i<edges.length;i++) {
    if (edges[i].id.substr(0,4)=='edge') {
      edges[i].setAttribute('class','edge');
    }
  }
}
]]></script>
        <defs>
                <circle id="rim" cx="0" cy="0" r="7"/>
                <circle id="rim2" cx="0" cy="0" r="3.5"/>
                <g id="zoomPlus">
                        <use xlink:href="#rim" fill="#404040">
                                <set attributeName="fill" to="#808080" begin="zoomplus.mouseover" end="zoomplus.mouseout"/>
                        </use>
                        <path d="M-4,0h8M0,-4v8" fill="none" stroke="white" stroke-width="1.5" pointer-events="none"/>
                </g>
                <g id="zoomMin">
                        <use xlink:href="#rim" fill="#404040">
                                <set attributeName="fill" to="#808080" begin="zoomminus.mouseover" end="zoomminus.mouseout"/>
                        </use>
                        <path d="M-4,0h8" fill="none" stroke="white" stroke-width="1.5" pointer-events="none"/>
                </g>
                <g id="dirArrow">
                        <path fill="none" stroke="white" stroke-width="1.5" d="M0,-3.0v7 M-2.5,-0.5L0,-3.0L2.5,-0.5"/>
                </g>
               <g id="resetDef">
                       <use xlink:href="#rim2" fill="#404040">
                               <set attributeName="fill" to="#808080" begin="reset.mouseover" end="reset.mouseout"/>
                       </use>
               </g>
        </defs>

<script type="text/javascript">
var viewWidth = 736;
var viewHeight = 262;
var sectionId = 'dynsection-18';
</script>
<script xlink:href="../../svgpan.js"/>
<svg id="graph" class="graph">
<g id="viewport">
<title>frontEnd.Main.writeXML</title>
<polygon fill="white" stroke="none" points="-4,4 -4,-258 732,-258 732,4 -4,4"/>
<!-- Node1 -->
<g id="node1" class="node"><title>Node1</title>
<polygon fill="#bfbfbf" stroke="black" points="0,-106.5 0,-125.5 128,-125.5 128,-106.5 0,-106.5"/>
<text text-anchor="middle" x="64" y="-113.5" font-family="Helvetica,sans-Serif" font-size="10.00">frontEnd.Main.writeXML</text>
</g>
<!-- Node2 -->
<g id="node2" class="node"><title>Node2</title>
<g id="a_node2"><a xlink:href="../../dc/da1/classfront_end_1_1_animator_loop.html#abeeeb7294620845e96455930decbd7bf" target="_top" xlink:title="frontEnd.AnimatorLoop.write\lToXML">
<polygon fill="white" stroke="black" points="164.5,-101 164.5,-131 317.5,-131 317.5,-101 164.5,-101"/>
<text text-anchor="start" x="172.5" y="-119" font-family="Helvetica,sans-Serif" font-size="10.00">frontEnd.AnimatorLoop.write</text>
<text text-anchor="middle" x="241" y="-108" font-family="Helvetica,sans-Serif" font-size="10.00">ToXML</text>
</a>
</g>
</g>
<!-- Node1&#45;&gt;Node2 -->
<g id="edge1" class="edge"><title>Node1&#45;&gt;Node2</title>
<path fill="none" stroke="midnightblue" d="M128.179,-116C136.623,-116 145.396,-116 154.146,-116"/>
<polygon fill="midnightblue" stroke="midnightblue" points="154.387,-119.5 164.387,-116 154.387,-112.5 154.387,-119.5"/>
</g>
<!-- Node3 -->
<g id="node3" class="node"><title>Node3</title>
<g id="a_node3"><a xlink:href="../../d5/d51/classfront_end_1_1_c_a_settings.html#ad1a35159c9a3b860bd4af0d12e40b169" target="_top" xlink:title="frontEnd.CASettings.getColumns">
<polygon fill="white" stroke="black" points="547,-234.5 547,-253.5 721,-253.5 721,-234.5 547,-234.5"/>
<text text-anchor="middle" x="634" y="-241.5" font-family="Helvetica,sans-Serif" font-size="10.00">frontEnd.CASettings.getColumns</text>
</a>
</g>
</g>
<!-- Node2&#45;&gt;Node3 -->
<g id="edge2" class="edge"><title>Node2&#45;&gt;Node3</title>
<path fill="none" stroke="midnightblue" d="M262.831,-131.234C284.564,-146.442 320.131,-169.449 354,-183 416.643,-208.063 491.522,-223.717 547.929,-232.883"/>
<polygon fill="midnightblue" stroke="midnightblue" points="547.457,-236.352 557.883,-234.465 548.556,-229.439 547.457,-236.352"/>
</g>
<!-- Node4 -->
<g id="node4" class="node"><title>Node4</title>
<g id="a_node4"><a xlink:href="../../d5/d51/classfront_end_1_1_c_a_settings.html#a560c336f7aed8050af9a606949926548" target="_top" xlink:title="frontEnd.CASettings.getParameters">
<polygon fill="white" stroke="black" points="540,-196.5 540,-215.5 728,-215.5 728,-196.5 540,-196.5"/>
<text text-anchor="middle" x="634" y="-203.5" font-family="Helvetica,sans-Serif" font-size="10.00">frontEnd.CASettings.getParameters</text>
</a>
</g>
</g>
<!-- Node2&#45;&gt;Node4 -->
<g id="edge3" class="edge"><title>Node2&#45;&gt;Node4</title>
<path fill="none" stroke="midnightblue" d="M281.753,-131.034C302.973,-138.664 329.665,-147.639 354,-154 422.017,-171.78 500.885,-185.894 557.379,-194.905"/>
<polygon fill="midnightblue" stroke="midnightblue" points="556.882,-198.37 567.305,-196.473 557.974,-191.456 556.882,-198.37"/>
</g>
<!-- Node5 -->
<g id="node5" class="node"><title>Node5</title>
<g id="a_node5"><a xlink:href="../../d5/d51/classfront_end_1_1_c_a_settings.html#aef613fb5595d20d85dad92cf5f5efad9" target="_top" xlink:title="frontEnd.CASettings.getRows">
<polygon fill="white" stroke="black" points="556.5,-82.5 556.5,-101.5 711.5,-101.5 711.5,-82.5 556.5,-82.5"/>
<text text-anchor="middle" x="634" y="-89.5" font-family="Helvetica,sans-Serif" font-size="10.00">frontEnd.CASettings.getRows</text>
</a>
</g>
</g>
<!-- Node2&#45;&gt;Node5 -->
<g id="edge4" class="edge"><title>Node2&#45;&gt;Node5</title>
<path fill="none" stroke="midnightblue" d="M317.852,-111.344C383.23,-107.331 477.613,-101.538 546.034,-97.3381"/>
<polygon fill="midnightblue" stroke="midnightblue" points="546.591,-100.811 556.358,-96.7044 546.162,-93.8237 546.591,-100.811"/>
</g>
<!-- Node6 -->
<g id="node6" class="node"><title>Node6</title>
<g id="a_node6"><a xlink:href="../../d5/d51/classfront_end_1_1_c_a_settings.html#a5c62b367ceda95101ac5ff5c3048cf1c" target="_top" xlink:title="frontEnd.CASettings.getType">
<polygon fill="white" stroke="black" points="557.5,-44.5 557.5,-63.5 710.5,-63.5 710.5,-44.5 557.5,-44.5"/>
<text text-anchor="middle" x="634" y="-51.5" font-family="Helvetica,sans-Serif" font-size="10.00">frontEnd.CASettings.getType</text>
</a>
</g>
</g>
<!-- Node2&#45;&gt;Node6 -->
<g id="edge5" class="edge"><title>Node2&#45;&gt;Node6</title>
<path fill="none" stroke="midnightblue" d="M317.583,-103.018C329.755,-100.973 342.221,-98.9066 354,-97 423.57,-85.7385 503.014,-73.5609 559.289,-65.0497"/>
<polygon fill="midnightblue" stroke="midnightblue" points="560.155,-68.4588 569.52,-63.5042 559.109,-61.5373 560.155,-68.4588"/>
</g>
<!-- Node7 -->
<g id="node7" class="node"><title>Node7</title>
<g id="a_node7"><a xlink:href="../../dc/da1/classfront_end_1_1_animator_loop.html#a49bb0767763415d97458827801531bc6" target="_top" xlink:title="frontEnd.AnimatorLoop.grid\lPatchToString">
<polygon fill="white" stroke="black" points="354.5,-0 354.5,-30 503.5,-30 503.5,-0 354.5,-0"/>
<text text-anchor="start" x="362.5" y="-18" font-family="Helvetica,sans-Serif" font-size="10.00">frontEnd.AnimatorLoop.grid</text>
<text text-anchor="middle" x="429" y="-7" font-family="Helvetica,sans-Serif" font-size="10.00">PatchToString</text>
</a>
</g>
</g>
<!-- Node2&#45;&gt;Node7 -->
<g id="edge6" class="edge"><title>Node2&#45;&gt;Node7</title>
<path fill="none" stroke="midnightblue" d="M263.206,-100.929C285.238,-85.6653 321.039,-61.9542 354,-45 361.531,-41.1261 369.683,-37.3926 377.729,-33.9531"/>
<polygon fill="midnightblue" stroke="midnightblue" points="379.196,-37.1338 387.083,-30.0598 376.506,-30.6712 379.196,-37.1338"/>
</g>
<!-- Node8 -->
<g id="node8" class="node"><title>Node8</title>
<g id="a_node8"><a xlink:href="../../d0/d87/classfront_end_1_1_x_m_l_handler.html#a8b7864cb0ca3ba8aad07a5b093145861" target="_top" xlink:title="frontEnd.XMLHandler.write">
<polygon fill="white" stroke="black" points="358,-125.5 358,-144.5 500,-144.5 500,-125.5 358,-125.5"/>
<text text-anchor="middle" x="429" y="-132.5" font-family="Helvetica,sans-Serif" font-size="10.00">frontEnd.XMLHandler.write</text>
</a>
</g>
</g>
<!-- Node2&#45;&gt;Node8 -->
<g id="edge7" class="edge"><title>Node2&#45;&gt;Node8</title>
<path fill="none" stroke="midnightblue" d="M317.653,-123.728C327.507,-124.735 337.629,-125.769 347.558,-126.783"/>
<polygon fill="midnightblue" stroke="midnightblue" points="347.51,-130.296 357.814,-127.83 348.221,-123.332 347.51,-130.296"/>
</g>
<!-- Node8&#45;&gt;Node3 -->
<g id="edge11" class="edge"><title>Node8&#45;&gt;Node3</title>
<path fill="none" stroke="midnightblue" d="M438.623,-144.664C455.887,-163.363 496.765,-204.454 540,-225 545.244,-227.492 550.807,-229.658 556.5,-231.541"/>
<polygon fill="midnightblue" stroke="midnightblue" points="555.589,-234.922 566.173,-234.449 557.604,-228.218 555.589,-234.922"/>
</g>
<!-- Node8&#45;&gt;Node4 -->
<g id="edge9" class="edge"><title>Node8&#45;&gt;Node4</title>
<path fill="none" stroke="midnightblue" d="M452.522,-144.583C467.277,-150.973 486.921,-159.696 504,-168 520.27,-175.911 522.966,-180.906 540,-187 547.501,-189.684 555.486,-192.031 563.504,-194.074"/>
<polygon fill="midnightblue" stroke="midnightblue" points="562.73,-197.488 573.27,-196.417 564.362,-190.681 562.73,-197.488"/>
</g>
<!-- Node8&#45;&gt;Node5 -->
<g id="edge10" class="edge"><title>Node8&#45;&gt;Node5</title>
<path fill="none" stroke="midnightblue" d="M473.071,-125.464C493.363,-121.007 517.911,-115.666 540,-111 551.589,-108.552 564.001,-105.981 575.861,-103.549"/>
<polygon fill="midnightblue" stroke="midnightblue" points="576.567,-106.977 585.663,-101.544 575.165,-100.119 576.567,-106.977"/>
</g>
<!-- Node8&#45;&gt;Node6 -->
<g id="edge8" class="edge"><title>Node8&#45;&gt;Node6</title>
<path fill="none" stroke="midnightblue" d="M443.891,-125.273C464.106,-111.57 503.239,-86.7273 540,-73 547.164,-70.3247 554.787,-67.995 562.467,-65.9734"/>
<polygon fill="midnightblue" stroke="midnightblue" points="563.324,-69.3671 572.195,-63.5749 561.648,-62.5707 563.324,-69.3671"/>
</g>
<!-- Node9 -->
<g id="node9" class="node"><title>Node9</title>
<g id="a_node9"><a xlink:href="../../d0/d87/classfront_end_1_1_x_m_l_handler.html#a28556434b6cf7a6f8a8505c03aca8336" target="_top" xlink:title="frontEnd.XMLHandler.writeGrid">
<polygon fill="white" stroke="black" points="553.5,-158.5 553.5,-177.5 714.5,-177.5 714.5,-158.5 553.5,-158.5"/>
<text text-anchor="middle" x="634" y="-165.5" font-family="Helvetica,sans-Serif" font-size="10.00">frontEnd.XMLHandler.writeGrid</text>
</a>
</g>
</g>
<!-- Node8&#45;&gt;Node9 -->
<g id="edge12" class="edge"><title>Node8&#45;&gt;Node9</title>
<path fill="none" stroke="midnightblue" d="M488.444,-144.501C512.121,-148.35 539.636,-152.823 564.267,-156.827"/>
<polygon fill="midnightblue" stroke="midnightblue" points="563.834,-160.302 574.266,-158.452 564.957,-153.393 563.834,-160.302"/>
</g>
<!-- Node10 -->
<g id="node10" class="node"><title>Node10</title>
<g id="a_node10"><a xlink:href="../../d5/d51/classfront_end_1_1_c_a_settings.html#a9b6c355e48adf9a7db04c30c74aac53f" target="_top" xlink:title="frontEnd.CASettings.getGrid">
<polygon fill="white" stroke="black" points="558,-120.5 558,-139.5 710,-139.5 710,-120.5 558,-120.5"/>
<text text-anchor="middle" x="634" y="-127.5" font-family="Helvetica,sans-Serif" font-size="10.00">frontEnd.CASettings.getGrid</text>
</a>
</g>
</g>
<!-- Node8&#45;&gt;Node10 -->
<g id="edge13" class="edge"><title>Node8&#45;&gt;Node10</title>
<path fill="none" stroke="midnightblue" d="M500.145,-133.272C515.375,-132.897 531.649,-132.496 547.399,-132.108"/>
<polygon fill="midnightblue" stroke="midnightblue" points="547.746,-135.601 557.657,-131.856 547.574,-128.603 547.746,-135.601"/>
</g>
</g>
</svg>
        <g id="navigator" transform="translate(0 0)" fill="#404254">
                <rect fill="#f2f5e9" fill-opacity="0.5" stroke="#606060" stroke-width=".5" x="0" y="0" width="60" height="60"/>
                <use id="zoomplus" xlink:href="#zoomPlus" x="17" y="9" onmousedown="handleZoom(evt,'in')"/>
                <use id="zoomminus" xlink:href="#zoomMin" x="42" y="9" onmousedown="handleZoom(evt,'out')"/>
                <use id="reset" xlink:href="#resetDef" x="30" y="36" onmousedown="handleReset()"/>
                <g id="arrowUp" xlink:href="#dirArrow" transform="translate(30 24)" onmousedown="handlePan(0,-1)">
                  <use xlink:href="#rim" fill="#404040">
                        <set attributeName="fill" to="#808080" begin="arrowUp.mouseover" end="arrowUp.mouseout"/>
                  </use>
                  <path fill="none" stroke="white" stroke-width="1.5" d="M0,-3.0v7 M-2.5,-0.5L0,-3.0L2.5,-0.5"/>
                </g>
                <g id="arrowRight" xlink:href="#dirArrow" transform="rotate(90) translate(36 -43)" onmousedown="handlePan(1,0)">
                  <use xlink:href="#rim" fill="#404040">
                        <set attributeName="fill" to="#808080" begin="arrowRight.mouseover" end="arrowRight.mouseout"/>
                  </use>
                  <path fill="none" stroke="white" stroke-width="1.5" d="M0,-3.0v7 M-2.5,-0.5L0,-3.0L2.5,-0.5"/>
                </g>
                <g id="arrowDown" xlink:href="#dirArrow" transform="rotate(180) translate(-30 -48)" onmousedown="handlePan(0,1)">
                  <use xlink:href="#rim" fill="#404040">
                        <set attributeName="fill" to="#808080" begin="arrowDown.mouseover" end="arrowDown.mouseout"/>
                  </use>
                  <path fill="none" stroke="white" stroke-width="1.5" d="M0,-3.0v7 M-2.5,-0.5L0,-3.0L2.5,-0.5"/>
                </g>
                <g id="arrowLeft" xlink:href="#dirArrow" transform="rotate(270) translate(-36 17)" onmousedown="handlePan(-1,0)">
                  <use xlink:href="#rim" fill="#404040">
                        <set attributeName="fill" to="#808080" begin="arrowLeft.mouseover" end="arrowLeft.mouseout"/>
                  </use>
                  <path fill="none" stroke="white" stroke-width="1.5" d="M0,-3.0v7 M-2.5,-0.5L0,-3.0L2.5,-0.5"/>
                </g>
        </g>
        <svg viewBox="0 0 15 15" width="100%" height="30px" preserveAspectRatio="xMaxYMin meet">
         <g id="arrow_out" transform="scale(0.3 0.3)">
          <a xlink:href="classfront_end_1_1_main_ae2ce98421793cead4539f6a0e9e63160_cgraph_org.svg" target="_base">
           <rect id="button" ry="5" rx="5" y="6" x="6" height="38" width="38"
                fill="#f2f5e9" fill-opacity="0.5" stroke="#606060" stroke-width="1.0"/>
           <path id="arrow"
             d="M 11.500037,31.436501 C 11.940474,20.09759 22.043105,11.32322 32.158766,21.979434 L 37.068811,17.246167 C 37.068811,17.246167 37.088388,32 37.088388,32 L 22.160133,31.978069 C 22.160133,31.978069 26.997745,27.140456 26.997745,27.140456 C 18.528582,18.264221 13.291696,25.230495 11.500037,31.436501 z"
             style="fill:#404040;"/>
          </a>
         </g>
        </svg>
</svg>
