<?xml version="1.0" encoding="UTF-8" standalone="no"?>
<!DOCTYPE svg PUBLIC "-//W3C//DTD SVG 1.1//EN"
 "http://www.w3.org/Graphics/SVG/1.1/DTD/svg11.dtd">
<!-- Generated by graphviz version 2.36.0 (20140111.2315)
 -->
<!-- Title: frontEnd.Main.resetSim Pages: 1 -->
<svg width="858pt" height="104pt"
 viewBox="0.00 0.00 858.00 104.00" xmlns="http://www.w3.org/2000/svg" xmlns:xlink="http://www.w3.org/1999/xlink">
<g id="graph0" class="graph" transform="scale(1 1) rotate(0) translate(4 100)">
<title>frontEnd.Main.resetSim</title>
<polygon fill="white" stroke="none" points="-4,4 -4,-100 854,-100 854,4 -4,4"/>
<!-- Node1 -->
<g id="node1" class="node"><title>Node1</title>
<polygon fill="#bfbfbf" stroke="black" points="0.5,-38.5 0.5,-57.5 129.5,-57.5 129.5,-38.5 0.5,-38.5"/>
<text text-anchor="middle" x="65" y="-45.5" font-family="Helvetica,sans-Serif" font-size="10.00">frontEnd.Main.resetSim</text>
</g>
<!-- Node2 -->
<g id="node2" class="node"><title>Node2</title>
<g id="a_node2"><a xlink:href="../../dd/dbe/classfront_end_1_1_main.html#a0ff8a007311f8ecce84d4203dc85d669" target="_top" xlink:title="frontEnd.Main.makeParamControls">
<polygon fill="white" stroke="black" points="166.5,-76.5 166.5,-95.5 349.5,-95.5 349.5,-76.5 166.5,-76.5"/>
<text text-anchor="middle" x="258" y="-83.5" font-family="Helvetica,sans-Serif" font-size="10.00">frontEnd.Main.makeParamControls</text>
</a>
</g>
</g>
<!-- Node1&#45;&gt;Node2 -->
<g id="edge1" class="edge"><title>Node1&#45;&gt;Node2</title>
<path fill="none" stroke="midnightblue" d="M124.353,-59.6095C151.518,-65.014 183.432,-71.3635 209.149,-76.4799"/>
<polygon fill="midnightblue" stroke="midnightblue" points="124.688,-56.1076 114.197,-57.589 123.322,-62.9731 124.688,-56.1076"/>
</g>
<!-- Node6 -->
<g id="node6" class="node"><title>Node6</title>
<g id="a_node6"><a xlink:href="../../dd/dbe/classfront_end_1_1_main.html#a1f4c19654fe78e5ebca54fc26bf43c94" target="_top" xlink:title="frontEnd.Main.useControls">
<polygon fill="white" stroke="black" points="386.5,-0.5 386.5,-19.5 529.5,-19.5 529.5,-0.5 386.5,-0.5"/>
<text text-anchor="middle" x="458" y="-7.5" font-family="Helvetica,sans-Serif" font-size="10.00">frontEnd.Main.useControls</text>
</a>
</g>
</g>
<!-- Node1&#45;&gt;Node6 -->
<g id="edge6" class="edge"><title>Node1&#45;&gt;Node6</title>
<path fill="none" stroke="midnightblue" d="M139.869,-40.8209C210.649,-33.942 316.72,-23.6334 386.39,-16.8623"/>
<polygon fill="midnightblue" stroke="midnightblue" points="139.306,-37.3591 129.691,-41.8101 139.983,-44.3263 139.306,-37.3591"/>
</g>
<!-- Node3 -->
<g id="node3" class="node"><title>Node3</title>
<g id="a_node3"><a xlink:href="../../dd/dbe/classfront_end_1_1_main.html#a7bae3127415fb2ae80975ebc95057e3f" target="_top" xlink:title="frontEnd.Main.readXML">
<polygon fill="white" stroke="black" points="394.5,-38.5 394.5,-57.5 521.5,-57.5 521.5,-38.5 394.5,-38.5"/>
<text text-anchor="middle" x="458" y="-45.5" font-family="Helvetica,sans-Serif" font-size="10.00">frontEnd.Main.readXML</text>
</a>
</g>
</g>
<!-- Node2&#45;&gt;Node3 -->
<g id="edge2" class="edge"><title>Node2&#45;&gt;Node3</title>
<path fill="none" stroke="midnightblue" d="M318.866,-74.5106C347.117,-69.0886 380.436,-62.6942 407.271,-57.5439"/>
<polygon fill="midnightblue" stroke="midnightblue" points="317.869,-71.1379 308.708,-76.46 319.189,-78.0124 317.869,-71.1379"/>
</g>
<!-- Node3&#45;&gt;Node1 -->
<g id="edge5" class="edge"><title>Node3&#45;&gt;Node1</title>
<path fill="none" stroke="midnightblue" d="M384.249,-48C311.099,-48 199.444,-48 129.691,-48"/>
<polygon fill="midnightblue" stroke="midnightblue" points="384.307,-51.5001 394.307,-48 384.307,-44.5001 384.307,-51.5001"/>
</g>
<!-- Node4 -->
<g id="node4" class="node"><title>Node4</title>
<g id="a_node4"><a xlink:href="../../dd/dbe/classfront_end_1_1_main.html#a55d59b110825a1cc153a0091a6e5cb99" target="_top" xlink:title="frontEnd.Main.makeMenu">
<polygon fill="white" stroke="black" points="566.5,-38.5 566.5,-57.5 705.5,-57.5 705.5,-38.5 566.5,-38.5"/>
<text text-anchor="middle" x="636" y="-45.5" font-family="Helvetica,sans-Serif" font-size="10.00">frontEnd.Main.makeMenu</text>
</a>
</g>
</g>
<!-- Node3&#45;&gt;Node4 -->
<g id="edge3" class="edge"><title>Node3&#45;&gt;Node4</title>
<path fill="none" stroke="midnightblue" d="M531.554,-48C543.071,-48 554.953,-48 566.377,-48"/>
<polygon fill="midnightblue" stroke="midnightblue" points="531.547,-44.5001 521.547,-48 531.547,-51.5001 531.547,-44.5001"/>
</g>
<!-- Node5 -->
<g id="node5" class="node"><title>Node5</title>
<g id="a_node5"><a xlink:href="../../dd/dbe/classfront_end_1_1_main.html#ae53f892716dcc60f3f49714496e30c91" target="_top" xlink:title="frontEnd.Main.start">
<polygon fill="white" stroke="black" points="742,-19.5 742,-38.5 850,-38.5 850,-19.5 742,-19.5"/>
<text text-anchor="middle" x="796" y="-26.5" font-family="Helvetica,sans-Serif" font-size="10.00">frontEnd.Main.start</text>
</a>
</g>
</g>
<!-- Node4&#45;&gt;Node5 -->
<g id="edge4" class="edge"><title>Node4&#45;&gt;Node5</title>
<path fill="none" stroke="midnightblue" d="M715.995,-38.5005C724.667,-37.4578 733.338,-36.4151 741.591,-35.4226"/>
<polygon fill="midnightblue" stroke="midnightblue" points="715.352,-35.0526 705.841,-39.7216 716.188,-42.0025 715.352,-35.0526"/>
</g>
<!-- Node6&#45;&gt;Node5 -->
<g id="edge7" class="edge"><title>Node6&#45;&gt;Node5</title>
<path fill="none" stroke="midnightblue" d="M540.093,-14.5856C602.738,-18.128 687.631,-22.9285 741.871,-25.9957"/>
<polygon fill="midnightblue" stroke="midnightblue" points="540.028,-11.0764 529.846,-14.0062 539.633,-18.0653 540.028,-11.0764"/>
</g>
</g>
</svg>
