<?xml version="1.0" encoding="UTF-8" standalone="no"?>
<!DOCTYPE svg PUBLIC "-//W3C//DTD SVG 1.1//EN"
 "http://www.w3.org/Graphics/SVG/1.1/DTD/svg11.dtd">
<!-- Generated by graphviz version 2.36.0 (20140111.2315)
 -->
<!-- Title: frontEnd.Main.makeParamControls Pages: 1 -->
<svg width="846pt" height="66pt"
 viewBox="0.00 0.00 846.00 66.00" xmlns="http://www.w3.org/2000/svg" xmlns:xlink="http://www.w3.org/1999/xlink">
<g id="graph0" class="graph" transform="scale(1 1) rotate(0) translate(4 62)">
<title>frontEnd.Main.makeParamControls</title>
<polygon fill="white" stroke="none" points="-4,4 -4,-62 842,-62 842,4 -4,4"/>
<!-- Node1 -->
<g id="node1" class="node"><title>Node1</title>
<polygon fill="#bfbfbf" stroke="black" points="0.5,-19.5 0.5,-38.5 183.5,-38.5 183.5,-19.5 0.5,-19.5"/>
<text text-anchor="middle" x="92" y="-26.5" font-family="Helvetica,sans-Serif" font-size="10.00">frontEnd.Main.makeParamControls</text>
</g>
<!-- Node2 -->
<g id="node2" class="node"><title>Node2</title>
<g id="a_node2"><a xlink:href="../../dd/dbe/classfront_end_1_1_main.html#a7bae3127415fb2ae80975ebc95057e3f" target="_top" xlink:title="frontEnd.Main.readXML">
<polygon fill="white" stroke="black" points="220.5,-38.5 220.5,-57.5 347.5,-57.5 347.5,-38.5 220.5,-38.5"/>
<text text-anchor="middle" x="284" y="-45.5" font-family="Helvetica,sans-Serif" font-size="10.00">frontEnd.Main.readXML</text>
</a>
</g>
</g>
<!-- Node1&#45;&gt;Node2 -->
<g id="edge1" class="edge"><title>Node1&#45;&gt;Node2</title>
<path fill="none" stroke="midnightblue" d="M193.746,-39.0746C202.768,-39.9768 211.721,-40.8721 220.277,-41.7277"/>
<polygon fill="midnightblue" stroke="midnightblue" points="193.847,-35.5673 183.548,-38.0548 193.15,-42.5326 193.847,-35.5673"/>
</g>
<!-- Node3 -->
<g id="node3" class="node"><title>Node3</title>
<g id="a_node3"><a xlink:href="../../dd/dbe/classfront_end_1_1_main.html#a55d59b110825a1cc153a0091a6e5cb99" target="_top" xlink:title="frontEnd.Main.makeMenu">
<polygon fill="white" stroke="black" points="552.5,-38.5 552.5,-57.5 691.5,-57.5 691.5,-38.5 552.5,-38.5"/>
<text text-anchor="middle" x="622" y="-45.5" font-family="Helvetica,sans-Serif" font-size="10.00">frontEnd.Main.makeMenu</text>
</a>
</g>
</g>
<!-- Node2&#45;&gt;Node3 -->
<g id="edge2" class="edge"><title>Node2&#45;&gt;Node3</title>
<path fill="none" stroke="midnightblue" d="M357.959,-48C415.727,-48 495.839,-48 552.433,-48"/>
<polygon fill="midnightblue" stroke="midnightblue" points="357.805,-44.5001 347.805,-48 357.805,-51.5001 357.805,-44.5001"/>
</g>
<!-- Node5 -->
<g id="node5" class="node"><title>Node5</title>
<g id="a_node5"><a xlink:href="../../dd/dbe/classfront_end_1_1_main.html#a8e2e836903a64069e4283fa66309c704" target="_top" xlink:title="frontEnd.Main.resetSim">
<polygon fill="white" stroke="black" points="384.5,-0.5 384.5,-19.5 513.5,-19.5 513.5,-0.5 384.5,-0.5"/>
<text text-anchor="middle" x="449" y="-7.5" font-family="Helvetica,sans-Serif" font-size="10.00">frontEnd.Main.resetSim</text>
</a>
</g>
</g>
<!-- Node2&#45;&gt;Node5 -->
<g id="edge4" class="edge"><title>Node2&#45;&gt;Node5</title>
<path fill="none" stroke="midnightblue" d="M336.028,-36.1039C358.939,-30.7626 385.604,-24.5463 407.164,-19.5201"/>
<polygon fill="midnightblue" stroke="midnightblue" points="335.076,-32.7319 326.132,-38.411 336.665,-39.5491 335.076,-32.7319"/>
</g>
<!-- Node4 -->
<g id="node4" class="node"><title>Node4</title>
<g id="a_node4"><a xlink:href="../../dd/dbe/classfront_end_1_1_main.html#ae53f892716dcc60f3f49714496e30c91" target="_top" xlink:title="frontEnd.Main.start">
<polygon fill="white" stroke="black" points="730,-19.5 730,-38.5 838,-38.5 838,-19.5 730,-19.5"/>
<text text-anchor="middle" x="784" y="-26.5" font-family="Helvetica,sans-Serif" font-size="10.00">frontEnd.Main.start</text>
</a>
</g>
</g>
<!-- Node3&#45;&gt;Node4 -->
<g id="edge3" class="edge"><title>Node3&#45;&gt;Node4</title>
<path fill="none" stroke="midnightblue" d="M701.964,-38.623C711.376,-37.5054 720.807,-36.3854 729.736,-35.3251"/>
<polygon fill="midnightblue" stroke="midnightblue" points="701.3,-35.1771 691.783,-39.832 702.126,-42.1283 701.3,-35.1771"/>
</g>
<!-- Node5&#45;&gt;Node1 -->
<g id="edge5" class="edge"><title>Node5&#45;&gt;Node1</title>
<path fill="none" stroke="midnightblue" d="M374.159,-13.9521C318.744,-16.9179 242.58,-20.9943 183.5,-24.1563"/>
<polygon fill="midnightblue" stroke="midnightblue" points="374.457,-17.4412 384.255,-13.4117 374.083,-10.4512 374.457,-17.4412"/>
</g>
<!-- Node6 -->
<g id="node6" class="node"><title>Node6</title>
<g id="a_node6"><a xlink:href="../../dd/dbe/classfront_end_1_1_main.html#a1f4c19654fe78e5ebca54fc26bf43c94" target="_top" xlink:title="frontEnd.Main.useControls">
<polygon fill="white" stroke="black" points="550.5,-0.5 550.5,-19.5 693.5,-19.5 693.5,-0.5 550.5,-0.5"/>
<text text-anchor="middle" x="622" y="-7.5" font-family="Helvetica,sans-Serif" font-size="10.00">frontEnd.Main.useControls</text>
</a>
</g>
</g>
<!-- Node5&#45;&gt;Node6 -->
<g id="edge6" class="edge"><title>Node5&#45;&gt;Node6</title>
<path fill="none" stroke="midnightblue" d="M523.891,-10C532.68,-10 541.635,-10 550.376,-10"/>
<polygon fill="midnightblue" stroke="midnightblue" points="523.674,-6.5001 513.674,-10 523.674,-13.5001 523.674,-6.5001"/>
</g>
<!-- Node6&#45;&gt;Node4 -->
<g id="edge7" class="edge"><title>Node6&#45;&gt;Node4</title>
<path fill="none" stroke="midnightblue" d="M703.574,-19.5682C712.387,-20.6147 721.19,-21.66 729.556,-22.6535"/>
<polygon fill="midnightblue" stroke="midnightblue" points="703.987,-16.0927 693.644,-18.389 703.162,-23.0439 703.987,-16.0927"/>
</g>
</g>
</svg>
