<?xml version="1.0" encoding="UTF-8" standalone="no"?>
<!DOCTYPE svg PUBLIC "-//W3C//DTD SVG 1.1//EN"
 "http://www.w3.org/Graphics/SVG/1.1/DTD/svg11.dtd">
<!-- Generated by graphviz version 2.36.0 (20140111.2315)
 -->
<!-- Title: frontEnd.Main.makeParamControls Pages: 1 -->
<!--zoomable 441 -->
<svg id="main" version="1.1" xmlns="http://www.w3.org/2000/svg" xmlns:xlink="http://www.w3.org/1999/xlink" xml:space="preserve" onload="init(evt)">
<style type="text/css"><![CDATA[
.edge:hover path { stroke: red; }
.edge:hover polygon { stroke: red; fill: red; }
]]></style>
<script type="text/javascript"><![CDATA[
var edges = document.getElementsByTagName('g');
if (edges && edges.length) {
  for (var i=0;i<edges.length;i++) {
    if (edges[i].id.substr(0,4)=='edge') {
      edges[i].setAttribute('class','edge');
    }
  }
}
]]></script>
        <defs>
                <circle id="rim" cx="0" cy="0" r="7"/>
                <circle id="rim2" cx="0" cy="0" r="3.5"/>
                <g id="zoomPlus">
                        <use xlink:href="#rim" fill="#404040">
                                <set attributeName="fill" to="#808080" begin="zoomplus.mouseover" end="zoomplus.mouseout"/>
                        </use>
                        <path d="M-4,0h8M0,-4v8" fill="none" stroke="white" stroke-width="1.5" pointer-events="none"/>
                </g>
                <g id="zoomMin">
                        <use xlink:href="#rim" fill="#404040">
                                <set attributeName="fill" to="#808080" begin="zoomminus.mouseover" end="zoomminus.mouseout"/>
                        </use>
                        <path d="M-4,0h8" fill="none" stroke="white" stroke-width="1.5" pointer-events="none"/>
                </g>
                <g id="dirArrow">
                        <path fill="none" stroke="white" stroke-width="1.5" d="M0,-3.0v7 M-2.5,-0.5L0,-3.0L2.5,-0.5"/>
                </g>
               <g id="resetDef">
                       <use xlink:href="#rim2" fill="#404040">
                               <set attributeName="fill" to="#808080" begin="reset.mouseover" end="reset.mouseout"/>
                       </use>
               </g>
        </defs>

<script type="text/javascript">
var viewWidth = 1584;
var viewHeight = 441;
var sectionId = 'dynsection-6';
</script>
<script xlink:href="../../svgpan.js"/>
<svg id="graph" class="graph">
<g id="viewport">
<title>frontEnd.Main.makeParamControls</title>
<polygon fill="white" stroke="none" points="-4,4 -4,-437 1580,-437 1580,4 -4,4"/>
<!-- Node1 -->
<g id="node1" class="node"><title>Node1</title>
<polygon fill="#bfbfbf" stroke="black" points="0.5,-211.5 0.5,-230.5 183.5,-230.5 183.5,-211.5 0.5,-211.5"/>
<text text-anchor="middle" x="92" y="-218.5" font-family="Helvetica,sans-Serif" font-size="10.00">frontEnd.Main.makeParamControls</text>
</g>
<!-- Node2 -->
<g id="node2" class="node"><title>Node2</title>
<g id="a_node2"><a xlink:href="../../dd/dbe/classfront_end_1_1_main.html#a8e2e836903a64069e4283fa66309c704" target="_top" xlink:title="frontEnd.Main.resetSim">
<polygon fill="white" stroke="black" points="220.5,-230.5 220.5,-249.5 349.5,-249.5 349.5,-230.5 220.5,-230.5"/>
<text text-anchor="middle" x="285" y="-237.5" font-family="Helvetica,sans-Serif" font-size="10.00">frontEnd.Main.resetSim</text>
</a>
</g>
</g>
<!-- Node1&#45;&gt;Node2 -->
<g id="edge1" class="edge"><title>Node1&#45;&gt;Node2</title>
<path fill="none" stroke="midnightblue" d="M183.745,-230.027C192.67,-230.915 201.65,-231.808 210.372,-232.676"/>
<polygon fill="midnightblue" stroke="midnightblue" points="210.178,-236.174 220.475,-233.681 210.871,-229.208 210.178,-236.174"/>
</g>
<!-- Node3 -->
<g id="node3" class="node"><title>Node3</title>
<g id="a_node3"><a xlink:href="../../dd/dbe/classfront_end_1_1_main.html#a7bae3127415fb2ae80975ebc95057e3f" target="_top" xlink:title="frontEnd.Main.readXML">
<polygon fill="white" stroke="black" points="386.5,-211.5 386.5,-230.5 513.5,-230.5 513.5,-211.5 386.5,-211.5"/>
<text text-anchor="middle" x="450" y="-218.5" font-family="Helvetica,sans-Serif" font-size="10.00">frontEnd.Main.readXML</text>
</a>
</g>
</g>
<!-- Node2&#45;&gt;Node3 -->
<g id="edge2" class="edge"><title>Node2&#45;&gt;Node3</title>
<path fill="none" stroke="midnightblue" d="M349.954,-232.545C358.544,-231.544 367.407,-230.511 376.137,-229.493"/>
<polygon fill="midnightblue" stroke="midnightblue" points="376.771,-232.943 386.299,-228.309 375.961,-225.99 376.771,-232.943"/>
</g>
<!-- Node3&#45;&gt;Node1 -->
<g id="edge28" class="edge"><title>Node3&#45;&gt;Node1</title>
<path fill="none" stroke="midnightblue" d="M386.448,-221C333.263,-221 255.893,-221 193.95,-221"/>
<polygon fill="midnightblue" stroke="midnightblue" points="193.755,-217.5 183.755,-221 193.755,-224.5 193.755,-217.5"/>
</g>
<!-- Node4 -->
<g id="node4" class="node"><title>Node4</title>
<g id="a_node4"><a xlink:href="../../dc/da1/classfront_end_1_1_animator_loop.html#a1f378b18807af5386266685e907aa8c7" target="_top" xlink:title="frontEnd.AnimatorLoop.read\lXMLAndInitializeGrid">
<polygon fill="white" stroke="black" points="550,-206 550,-236 702,-236 702,-206 550,-206"/>
<text text-anchor="start" x="558" y="-224" font-family="Helvetica,sans-Serif" font-size="10.00">frontEnd.AnimatorLoop.read</text>
<text text-anchor="middle" x="626" y="-213" font-family="Helvetica,sans-Serif" font-size="10.00">XMLAndInitializeGrid</text>
</a>
</g>
</g>
<!-- Node3&#45;&gt;Node4 -->
<g id="edge3" class="edge"><title>Node3&#45;&gt;Node4</title>
<path fill="none" stroke="midnightblue" d="M513.818,-221C522.214,-221 530.936,-221 539.637,-221"/>
<polygon fill="midnightblue" stroke="midnightblue" points="539.819,-224.5 549.819,-221 539.819,-217.5 539.819,-224.5"/>
</g>
<!-- Node5 -->
<g id="node5" class="node"><title>Node5</title>
<g id="a_node5"><a xlink:href="../../d1/dfc/classback_end_1_1_rule_set.html#a9feb2a620b625065a9436f2e2246b094" target="_top" xlink:title="backEnd.RuleSet.addGrid">
<polygon fill="white" stroke="black" points="763.5,-413.5 763.5,-432.5 900.5,-432.5 900.5,-413.5 763.5,-413.5"/>
<text text-anchor="middle" x="832" y="-420.5" font-family="Helvetica,sans-Serif" font-size="10.00">backEnd.RuleSet.addGrid</text>
</a>
</g>
</g>
<!-- Node4&#45;&gt;Node5 -->
<g id="edge4" class="edge"><title>Node4&#45;&gt;Node5</title>
<path fill="none" stroke="midnightblue" d="M631.996,-236.122C644.21,-270.664 678.975,-355.703 738,-399 743.916,-403.34 750.546,-406.896 757.469,-409.811"/>
<polygon fill="midnightblue" stroke="midnightblue" points="756.46,-413.171 767.052,-413.402 758.916,-406.616 756.46,-413.171"/>
</g>
<!-- Node6 -->
<g id="node6" class="node"><title>Node6</title>
<g id="a_node6"><a xlink:href="../../dc/da1/classfront_end_1_1_animator_loop.html#a467af791b6cbba9bb796678842386ca2" target="_top" xlink:title="frontEnd.AnimatorLoop.check\lBadXMLFileData">
<polygon fill="white" stroke="black" points="753,-326 753,-356 911,-356 911,-326 753,-326"/>
<text text-anchor="start" x="761" y="-344" font-family="Helvetica,sans-Serif" font-size="10.00">frontEnd.AnimatorLoop.check</text>
<text text-anchor="middle" x="832" y="-333" font-family="Helvetica,sans-Serif" font-size="10.00">BadXMLFileData</text>
</a>
</g>
</g>
<!-- Node4&#45;&gt;Node6 -->
<g id="edge5" class="edge"><title>Node4&#45;&gt;Node6</title>
<path fill="none" stroke="midnightblue" d="M640.512,-236.219C659.999,-257.238 698.062,-294.941 738,-316 742.303,-318.269 746.829,-320.345 751.471,-322.243"/>
<polygon fill="midnightblue" stroke="midnightblue" points="750.54,-325.632 761.131,-325.892 753.014,-319.084 750.54,-325.632"/>
</g>
<!-- Node7 -->
<g id="node7" class="node"><title>Node7</title>
<g id="a_node7"><a xlink:href="../../d5/d51/classfront_end_1_1_c_a_settings.html#a5c62b367ceda95101ac5ff5c3048cf1c" target="_top" xlink:title="frontEnd.CASettings.getType">
<polygon fill="white" stroke="black" points="976.5,-372.5 976.5,-391.5 1129.5,-391.5 1129.5,-372.5 976.5,-372.5"/>
<text text-anchor="middle" x="1053" y="-379.5" font-family="Helvetica,sans-Serif" font-size="10.00">frontEnd.CASettings.getType</text>
</a>
</g>
</g>
<!-- Node4&#45;&gt;Node7 -->
<g id="edge13" class="edge"><title>Node4&#45;&gt;Node7</title>
<path fill="none" stroke="midnightblue" d="M633.41,-236.278C647.265,-267.093 683.241,-336.206 738,-365 817.694,-406.905 925.029,-401.872 991.313,-392.987"/>
<polygon fill="midnightblue" stroke="midnightblue" points="992.177,-396.4 1001.59,-391.534 991.197,-389.469 992.177,-396.4"/>
</g>
<!-- Node10 -->
<g id="node10" class="node"><title>Node10</title>
<g id="a_node10"><a xlink:href="../../d5/d51/classfront_end_1_1_c_a_settings.html#ad1a35159c9a3b860bd4af0d12e40b169" target="_top" xlink:title="frontEnd.CASettings.getColumns">
<polygon fill="white" stroke="black" points="745,-287.5 745,-306.5 919,-306.5 919,-287.5 745,-287.5"/>
<text text-anchor="middle" x="832" y="-294.5" font-family="Helvetica,sans-Serif" font-size="10.00">frontEnd.CASettings.getColumns</text>
</a>
</g>
</g>
<!-- Node4&#45;&gt;Node10 -->
<g id="edge9" class="edge"><title>Node4&#45;&gt;Node10</title>
<path fill="none" stroke="midnightblue" d="M655.59,-236.194C677.648,-247.47 709.165,-262.627 738,-273 750.503,-277.498 764.234,-281.521 777.216,-284.929"/>
<polygon fill="midnightblue" stroke="midnightblue" points="776.41,-288.336 786.965,-287.413 778.139,-281.553 776.41,-288.336"/>
</g>
<!-- Node11 -->
<g id="node11" class="node"><title>Node11</title>
<g id="a_node11"><a xlink:href="../../d5/d51/classfront_end_1_1_c_a_settings.html#a9b6c355e48adf9a7db04c30c74aac53f" target="_top" xlink:title="frontEnd.CASettings.getGrid">
<polygon fill="white" stroke="black" points="977,-217.5 977,-236.5 1129,-236.5 1129,-217.5 977,-217.5"/>
<text text-anchor="middle" x="1053" y="-224.5" font-family="Helvetica,sans-Serif" font-size="10.00">frontEnd.CASettings.getGrid</text>
</a>
</g>
</g>
<!-- Node4&#45;&gt;Node11 -->
<g id="edge10" class="edge"><title>Node4&#45;&gt;Node11</title>
<path fill="none" stroke="midnightblue" d="M702.011,-235.612C714.004,-237.436 726.311,-239.007 738,-240 821.256,-247.074 842.555,-244.293 926,-240 939.126,-239.325 952.99,-238.256 966.533,-237.015"/>
<polygon fill="midnightblue" stroke="midnightblue" points="967.187,-240.468 976.809,-236.035 966.522,-233.5 967.187,-240.468"/>
</g>
<!-- Node12 -->
<g id="node12" class="node"><title>Node12</title>
<g id="a_node12"><a xlink:href="../../d5/d51/classfront_end_1_1_c_a_settings.html#a560c336f7aed8050af9a606949926548" target="_top" xlink:title="frontEnd.CASettings.getParameters">
<polygon fill="white" stroke="black" points="738,-211.5 738,-230.5 926,-230.5 926,-211.5 738,-211.5"/>
<text text-anchor="middle" x="832" y="-218.5" font-family="Helvetica,sans-Serif" font-size="10.00">frontEnd.CASettings.getParameters</text>
</a>
</g>
</g>
<!-- Node4&#45;&gt;Node12 -->
<g id="edge11" class="edge"><title>Node4&#45;&gt;Node12</title>
<path fill="none" stroke="midnightblue" d="M702.093,-221C710.422,-221 719.008,-221 727.608,-221"/>
<polygon fill="midnightblue" stroke="midnightblue" points="727.695,-224.5 737.695,-221 727.695,-217.5 727.695,-224.5"/>
</g>
<!-- Node13 -->
<g id="node13" class="node"><title>Node13</title>
<g id="a_node13"><a xlink:href="../../d5/d51/classfront_end_1_1_c_a_settings.html#aef613fb5595d20d85dad92cf5f5efad9" target="_top" xlink:title="frontEnd.CASettings.getRows">
<polygon fill="white" stroke="black" points="754.5,-173.5 754.5,-192.5 909.5,-192.5 909.5,-173.5 754.5,-173.5"/>
<text text-anchor="middle" x="832" y="-180.5" font-family="Helvetica,sans-Serif" font-size="10.00">frontEnd.CASettings.getRows</text>
</a>
</g>
</g>
<!-- Node4&#45;&gt;Node13 -->
<g id="edge12" class="edge"><title>Node4&#45;&gt;Node13</title>
<path fill="none" stroke="midnightblue" d="M702.093,-207.012C724.454,-202.847 748.673,-198.335 770.017,-194.359"/>
<polygon fill="midnightblue" stroke="midnightblue" points="770.733,-197.786 779.923,-192.514 769.451,-190.905 770.733,-197.786"/>
</g>
<!-- Node14 -->
<g id="node14" class="node"><title>Node14</title>
<g id="a_node14"><a xlink:href="../../dc/da1/classfront_end_1_1_animator_loop.html#af1d1ddcc3fe02f0d1c6ba1f234d455cc" target="_top" xlink:title="frontEnd.AnimatorLoop.initGrid">
<polygon fill="white" stroke="black" points="750,-135.5 750,-154.5 914,-154.5 914,-135.5 750,-135.5"/>
<text text-anchor="middle" x="832" y="-142.5" font-family="Helvetica,sans-Serif" font-size="10.00">frontEnd.AnimatorLoop.initGrid</text>
</a>
</g>
</g>
<!-- Node4&#45;&gt;Node14 -->
<g id="edge14" class="edge"><title>Node4&#45;&gt;Node14</title>
<path fill="none" stroke="midnightblue" d="M651.693,-205.827C673.628,-192.965 706.935,-174.918 738,-164 745.627,-161.32 753.745,-158.969 761.887,-156.92"/>
<polygon fill="midnightblue" stroke="midnightblue" points="762.877,-160.282 771.799,-154.568 761.261,-153.471 762.877,-160.282"/>
</g>
<!-- Node17 -->
<g id="node17" class="node"><title>Node17</title>
<g id="a_node17"><a xlink:href="../../dc/da1/classfront_end_1_1_animator_loop.html#a92b2bebb55107557a33d1621ddae5872" target="_top" xlink:title="frontEnd.AnimatorLoop.init\lGridPane">
<polygon fill="white" stroke="black" points="759.5,-86 759.5,-116 904.5,-116 904.5,-86 759.5,-86"/>
<text text-anchor="start" x="767.5" y="-104" font-family="Helvetica,sans-Serif" font-size="10.00">frontEnd.AnimatorLoop.init</text>
<text text-anchor="middle" x="832" y="-93" font-family="Helvetica,sans-Serif" font-size="10.00">GridPane</text>
</a>
</g>
</g>
<!-- Node4&#45;&gt;Node17 -->
<g id="edge18" class="edge"><title>Node4&#45;&gt;Node17</title>
<path fill="none" stroke="midnightblue" d="M640.512,-205.781C659.999,-184.762 698.062,-147.059 738,-126 742.303,-123.731 746.829,-121.655 751.471,-119.757"/>
<polygon fill="midnightblue" stroke="midnightblue" points="753.014,-122.916 761.131,-116.108 750.54,-116.368 753.014,-122.916"/>
</g>
<!-- Node23 -->
<g id="node23" class="node"><title>Node23</title>
<g id="a_node23"><a xlink:href="../../d0/d87/classfront_end_1_1_x_m_l_handler.html#a5ec2b2b772a94660c130efe55a8d356e" target="_top" xlink:title="frontEnd.XMLHandler.read">
<polygon fill="white" stroke="black" points="761.5,-45.5 761.5,-64.5 902.5,-64.5 902.5,-45.5 761.5,-45.5"/>
<text text-anchor="middle" x="832" y="-52.5" font-family="Helvetica,sans-Serif" font-size="10.00">frontEnd.XMLHandler.read</text>
</a>
</g>
</g>
<!-- Node4&#45;&gt;Node23 -->
<g id="edge24" class="edge"><title>Node4&#45;&gt;Node23</title>
<path fill="none" stroke="midnightblue" d="M634.037,-205.905C648.789,-176.024 685.945,-109.348 738,-76 742.704,-72.9865 747.784,-70.4026 753.059,-68.1874"/>
<polygon fill="midnightblue" stroke="midnightblue" points="754.578,-71.3566 762.726,-64.585 752.134,-64.7972 754.578,-71.3566"/>
</g>
<!-- Node26 -->
<g id="node26" class="node"><title>Node26</title>
<g id="a_node26"><a xlink:href="../../d1/dfc/classback_end_1_1_rule_set.html#ae12bb5fde75014f04b76b4a9f77d5b19" target="_top" xlink:title="backEnd.RuleSet.setParams">
<polygon fill="white" stroke="black" points="757,-7.5 757,-26.5 907,-26.5 907,-7.5 757,-7.5"/>
<text text-anchor="middle" x="832" y="-14.5" font-family="Helvetica,sans-Serif" font-size="10.00">backEnd.RuleSet.setParams</text>
</a>
</g>
</g>
<!-- Node4&#45;&gt;Node26 -->
<g id="edge27" class="edge"><title>Node4&#45;&gt;Node26</title>
<path fill="none" stroke="midnightblue" d="M631.406,-205.879C642.671,-170.071 676.091,-79.8201 738,-36 740.913,-33.9382 743.999,-32.0892 747.207,-30.4319"/>
<polygon fill="midnightblue" stroke="midnightblue" points="748.839,-33.5359 756.531,-26.2508 745.975,-27.1486 748.839,-33.5359"/>
</g>
<!-- Node6&#45;&gt;Node7 -->
<g id="edge6" class="edge"><title>Node6&#45;&gt;Node7</title>
<path fill="none" stroke="midnightblue" d="M911.137,-355.628C937.48,-360.56 966.468,-365.987 991.264,-370.629"/>
<polygon fill="midnightblue" stroke="midnightblue" points="990.783,-374.1 1001.26,-372.5 992.071,-367.22 990.783,-374.1"/>
</g>
<!-- Node8 -->
<g id="node8" class="node"><title>Node8</title>
<g id="a_node8"><a xlink:href="../../dd/dbe/classfront_end_1_1_main.html#a1c9672872cb8b8f6efe2d1ddce9a6b61" target="_top" xlink:title="frontEnd.Main.showPopupMessage">
<polygon fill="white" stroke="black" points="962,-331.5 962,-350.5 1144,-350.5 1144,-331.5 962,-331.5"/>
<text text-anchor="middle" x="1053" y="-338.5" font-family="Helvetica,sans-Serif" font-size="10.00">frontEnd.Main.showPopupMessage</text>
</a>
</g>
</g>
<!-- Node6&#45;&gt;Node8 -->
<g id="edge7" class="edge"><title>Node6&#45;&gt;Node8</title>
<path fill="none" stroke="midnightblue" d="M911.137,-341C924.253,-341 938.026,-341 951.61,-341"/>
<polygon fill="midnightblue" stroke="midnightblue" points="951.948,-344.5 961.948,-341 951.948,-337.5 951.948,-344.5"/>
</g>
<!-- Node9 -->
<g id="node9" class="node"><title>Node9</title>
<g id="a_node9"><a xlink:href="../../dd/dbe/classfront_end_1_1_main.html#aef35ad9be3f43a5367d7a8ab30d0bec1" target="_top" xlink:title="frontEnd.Main.createPopup">
<polygon fill="white" stroke="black" points="1200,-331.5 1200,-350.5 1346,-350.5 1346,-331.5 1200,-331.5"/>
<text text-anchor="middle" x="1273" y="-338.5" font-family="Helvetica,sans-Serif" font-size="10.00">frontEnd.Main.createPopup</text>
</a>
</g>
</g>
<!-- Node8&#45;&gt;Node9 -->
<g id="edge8" class="edge"><title>Node8&#45;&gt;Node9</title>
<path fill="none" stroke="midnightblue" d="M1144.24,-341C1159.28,-341 1174.81,-341 1189.64,-341"/>
<polygon fill="midnightblue" stroke="midnightblue" points="1189.77,-344.5 1199.77,-341 1189.77,-337.5 1189.77,-344.5"/>
</g>
<!-- Node14&#45;&gt;Node11 -->
<g id="edge15" class="edge"><title>Node14&#45;&gt;Node11</title>
<path fill="none" stroke="midnightblue" d="M891.675,-154.551C903.203,-157.107 915.097,-160.234 926,-164 962.897,-176.745 1002.76,-198.087 1027.55,-212.352"/>
<polygon fill="midnightblue" stroke="midnightblue" points="1025.88,-215.426 1036.28,-217.44 1029.4,-209.379 1025.88,-215.426"/>
</g>
<!-- Node15 -->
<g id="node15" class="node"><title>Node15</title>
<g id="a_node15"><a xlink:href="../../d1/dfc/classback_end_1_1_rule_set.html#a603d39da71653ea4bbdadf3d78978981" target="_top" xlink:title="backEnd.RuleSet.initialize\lPatch">
<polygon fill="white" stroke="black" points="984.5,-137 984.5,-167 1121.5,-167 1121.5,-137 984.5,-137"/>
<text text-anchor="start" x="992.5" y="-155" font-family="Helvetica,sans-Serif" font-size="10.00">backEnd.RuleSet.initialize</text>
<text text-anchor="middle" x="1053" y="-144" font-family="Helvetica,sans-Serif" font-size="10.00">Patch</text>
</a>
</g>
</g>
<!-- Node14&#45;&gt;Node15 -->
<g id="edge16" class="edge"><title>Node14&#45;&gt;Node15</title>
<path fill="none" stroke="midnightblue" d="M914.236,-147.597C933.828,-148.223 954.715,-148.89 974.148,-149.512"/>
<polygon fill="midnightblue" stroke="midnightblue" points="974.056,-153.01 984.163,-149.832 974.28,-146.014 974.056,-153.01"/>
</g>
<!-- Node16 -->
<g id="node16" class="node"><title>Node16</title>
<g id="a_node16"><a xlink:href="../../db/d5e/classback_end_1_1_patch.html#ac9c7bf582f9e7aec34492785fea4cf68" target="_top" xlink:title="backEnd.Patch.fill">
<polygon fill="white" stroke="black" points="1223.5,-142.5 1223.5,-161.5 1322.5,-161.5 1322.5,-142.5 1223.5,-142.5"/>
<text text-anchor="middle" x="1273" y="-149.5" font-family="Helvetica,sans-Serif" font-size="10.00">backEnd.Patch.fill</text>
</a>
</g>
</g>
<!-- Node15&#45;&gt;Node16 -->
<g id="edge17" class="edge"><title>Node15&#45;&gt;Node16</title>
<path fill="none" stroke="midnightblue" d="M1121.78,-152C1151.06,-152 1184.99,-152 1213.18,-152"/>
<polygon fill="midnightblue" stroke="midnightblue" points="1213.29,-155.5 1223.29,-152 1213.29,-148.5 1213.29,-155.5"/>
</g>
<!-- Node18 -->
<g id="node18" class="node"><title>Node18</title>
<g id="a_node18"><a xlink:href="../../dc/da1/classfront_end_1_1_animator_loop.html#aa8be847f0f9efee238193322c5ab9f5b" target="_top" xlink:title="frontEnd.AnimatorLoop.add\lCellsToGrid">
<polygon fill="white" stroke="black" points="978.5,-88 978.5,-118 1127.5,-118 1127.5,-88 978.5,-88"/>
<text text-anchor="start" x="986.5" y="-106" font-family="Helvetica,sans-Serif" font-size="10.00">frontEnd.AnimatorLoop.add</text>
<text text-anchor="middle" x="1053" y="-95" font-family="Helvetica,sans-Serif" font-size="10.00">CellsToGrid</text>
</a>
</g>
</g>
<!-- Node17&#45;&gt;Node18 -->
<g id="edge19" class="edge"><title>Node17&#45;&gt;Node18</title>
<path fill="none" stroke="midnightblue" d="M904.709,-101.655C924.97,-101.84 947.199,-102.043 968.108,-102.234"/>
<polygon fill="midnightblue" stroke="midnightblue" points="968.221,-105.735 978.252,-102.327 968.285,-98.7352 968.221,-105.735"/>
</g>
<!-- Node19 -->
<g id="node19" class="node"><title>Node19</title>
<g id="a_node19"><a xlink:href="../../d4/d6c/classshape_factories_1_1_shape_factory.html#a7a14b33c28eb5951679f13f21633bdf4" target="_top" xlink:title="shapeFactories.ShapeFactory.make\lShape">
<polygon fill="white" stroke="black" points="1180.5,-91 1180.5,-121 1365.5,-121 1365.5,-91 1180.5,-91"/>
<text text-anchor="start" x="1188.5" y="-109" font-family="Helvetica,sans-Serif" font-size="10.00">shapeFactories.ShapeFactory.make</text>
<text text-anchor="middle" x="1273" y="-98" font-family="Helvetica,sans-Serif" font-size="10.00">Shape</text>
</a>
</g>
</g>
<!-- Node18&#45;&gt;Node19 -->
<g id="edge20" class="edge"><title>Node18&#45;&gt;Node19</title>
<path fill="none" stroke="midnightblue" d="M1127.5,-104.011C1141.13,-104.199 1155.59,-104.398 1169.88,-104.595"/>
<polygon fill="midnightblue" stroke="midnightblue" points="1170.21,-108.099 1180.25,-104.737 1170.3,-101.1 1170.21,-108.099"/>
</g>
<!-- Node22 -->
<g id="node22" class="node"><title>Node22</title>
<g id="a_node22"><a xlink:href="../../d4/d6c/classshape_factories_1_1_shape_factory.html#a6dbdc6b9de19c9685fc9c2361d982b2f" target="_top" xlink:title="shapeFactories.ShapeFactory.move">
<polygon fill="white" stroke="black" points="1180.5,-52.5 1180.5,-71.5 1365.5,-71.5 1365.5,-52.5 1180.5,-52.5"/>
<text text-anchor="middle" x="1273" y="-59.5" font-family="Helvetica,sans-Serif" font-size="10.00">shapeFactories.ShapeFactory.move</text>
</a>
</g>
</g>
<!-- Node18&#45;&gt;Node22 -->
<g id="edge23" class="edge"><title>Node18&#45;&gt;Node22</title>
<path fill="none" stroke="midnightblue" d="M1127.5,-89.1764C1154.78,-84.0456 1185.39,-78.2885 1211.39,-73.3983"/>
<polygon fill="midnightblue" stroke="midnightblue" points="1212.31,-76.7883 1221.49,-71.5002 1211.01,-69.9089 1212.31,-76.7883"/>
</g>
<!-- Node20 -->
<g id="node20" class="node"><title>Node20</title>
<g id="a_node20"><a xlink:href="../../d4/d6c/classshape_factories_1_1_shape_factory.html#adcf2f7637e2a6ed76a74dceaf986f8a5" target="_top" xlink:title="shapeFactories.ShapeFactory.set\lDimensions">
<polygon fill="white" stroke="black" points="1402.5,-116 1402.5,-146 1575.5,-146 1575.5,-116 1402.5,-116"/>
<text text-anchor="start" x="1410.5" y="-134" font-family="Helvetica,sans-Serif" font-size="10.00">shapeFactories.ShapeFactory.set</text>
<text text-anchor="middle" x="1489" y="-123" font-family="Helvetica,sans-Serif" font-size="10.00">Dimensions</text>
</a>
</g>
</g>
<!-- Node19&#45;&gt;Node20 -->
<g id="edge21" class="edge"><title>Node19&#45;&gt;Node20</title>
<path fill="none" stroke="midnightblue" d="M1365.69,-116.711C1374.51,-117.741 1383.47,-118.788 1392.32,-119.823"/>
<polygon fill="midnightblue" stroke="midnightblue" points="1391.93,-123.3 1402.27,-120.984 1392.74,-116.347 1391.93,-123.3"/>
</g>
<!-- Node21 -->
<g id="node21" class="node"><title>Node21</title>
<g id="a_node21"><a xlink:href="../../d4/d6c/classshape_factories_1_1_shape_factory.html#a02796a37b5651bf8fe6dc075f5e6e444" target="_top" xlink:title="shapeFactories.ShapeFactory.set\lCoords">
<polygon fill="white" stroke="black" points="1402.5,-67 1402.5,-97 1575.5,-97 1575.5,-67 1402.5,-67"/>
<text text-anchor="start" x="1410.5" y="-85" font-family="Helvetica,sans-Serif" font-size="10.00">shapeFactories.ShapeFactory.set</text>
<text text-anchor="middle" x="1489" y="-74" font-family="Helvetica,sans-Serif" font-size="10.00">Coords</text>
</a>
</g>
</g>
<!-- Node19&#45;&gt;Node21 -->
<g id="edge22" class="edge"><title>Node19&#45;&gt;Node21</title>
<path fill="none" stroke="midnightblue" d="M1365.69,-95.7174C1374.51,-94.7283 1383.47,-93.7233 1392.32,-92.7301"/>
<polygon fill="midnightblue" stroke="midnightblue" points="1392.72,-96.2079 1402.27,-91.6151 1391.94,-89.2515 1392.72,-96.2079"/>
</g>
<!-- Node24 -->
<g id="node24" class="node"><title>Node24</title>
<g id="a_node24"><a xlink:href="../../d0/d87/classfront_end_1_1_x_m_l_handler.html#a4946a8ebfe5de06e04a84fee47d14a36" target="_top" xlink:title="frontEnd.XMLHandler.read\lParameters">
<polygon fill="white" stroke="black" points="982.5,-39 982.5,-69 1123.5,-69 1123.5,-39 982.5,-39"/>
<text text-anchor="start" x="990.5" y="-57" font-family="Helvetica,sans-Serif" font-size="10.00">frontEnd.XMLHandler.read</text>
<text text-anchor="middle" x="1053" y="-46" font-family="Helvetica,sans-Serif" font-size="10.00">Parameters</text>
</a>
</g>
</g>
<!-- Node23&#45;&gt;Node24 -->
<g id="edge25" class="edge"><title>Node23&#45;&gt;Node24</title>
<path fill="none" stroke="midnightblue" d="M902.594,-54.6822C924.642,-54.5815 949.191,-54.4694 971.915,-54.3657"/>
<polygon fill="midnightblue" stroke="midnightblue" points="972.228,-57.8644 982.211,-54.3187 972.196,-50.8645 972.228,-57.8644"/>
</g>
<!-- Node25 -->
<g id="node25" class="node"><title>Node25</title>
<g id="a_node25"><a xlink:href="../../d0/d87/classfront_end_1_1_x_m_l_handler.html#ae0df3c17a5ff74491584286b4e830fba" target="_top" xlink:title="frontEnd.XMLHandler.readGrid">
<polygon fill="white" stroke="black" points="972.5,-0.5 972.5,-19.5 1133.5,-19.5 1133.5,-0.5 972.5,-0.5"/>
<text text-anchor="middle" x="1053" y="-7.5" font-family="Helvetica,sans-Serif" font-size="10.00">frontEnd.XMLHandler.readGrid</text>
</a>
</g>
</g>
<!-- Node23&#45;&gt;Node25 -->
<g id="edge26" class="edge"><title>Node23&#45;&gt;Node25</title>
<path fill="none" stroke="midnightblue" d="M879.838,-45.4496C894.609,-42.4328 910.987,-39.0825 926,-36 948.855,-31.3074 974.036,-26.1155 995.841,-21.613"/>
<polygon fill="midnightblue" stroke="midnightblue" points="996.839,-24.9809 1005.92,-19.5304 995.423,-18.1256 996.839,-24.9809"/>
</g>
</g>
</svg>
        <g id="navigator" transform="translate(0 0)" fill="#404254">
                <rect fill="#f2f5e9" fill-opacity="0.5" stroke="#606060" stroke-width=".5" x="0" y="0" width="60" height="60"/>
                <use id="zoomplus" xlink:href="#zoomPlus" x="17" y="9" onmousedown="handleZoom(evt,'in')"/>
                <use id="zoomminus" xlink:href="#zoomMin" x="42" y="9" onmousedown="handleZoom(evt,'out')"/>
                <use id="reset" xlink:href="#resetDef" x="30" y="36" onmousedown="handleReset()"/>
                <g id="arrowUp" xlink:href="#dirArrow" transform="translate(30 24)" onmousedown="handlePan(0,-1)">
                  <use xlink:href="#rim" fill="#404040">
                        <set attributeName="fill" to="#808080" begin="arrowUp.mouseover" end="arrowUp.mouseout"/>
                  </use>
                  <path fill="none" stroke="white" stroke-width="1.5" d="M0,-3.0v7 M-2.5,-0.5L0,-3.0L2.5,-0.5"/>
                </g>
                <g id="arrowRight" xlink:href="#dirArrow" transform="rotate(90) translate(36 -43)" onmousedown="handlePan(1,0)">
                  <use xlink:href="#rim" fill="#404040">
                        <set attributeName="fill" to="#808080" begin="arrowRight.mouseover" end="arrowRight.mouseout"/>
                  </use>
                  <path fill="none" stroke="white" stroke-width="1.5" d="M0,-3.0v7 M-2.5,-0.5L0,-3.0L2.5,-0.5"/>
                </g>
                <g id="arrowDown" xlink:href="#dirArrow" transform="rotate(180) translate(-30 -48)" onmousedown="handlePan(0,1)">
                  <use xlink:href="#rim" fill="#404040">
                        <set attributeName="fill" to="#808080" begin="arrowDown.mouseover" end="arrowDown.mouseout"/>
                  </use>
                  <path fill="none" stroke="white" stroke-width="1.5" d="M0,-3.0v7 M-2.5,-0.5L0,-3.0L2.5,-0.5"/>
                </g>
                <g id="arrowLeft" xlink:href="#dirArrow" transform="rotate(270) translate(-36 17)" onmousedown="handlePan(-1,0)">
                  <use xlink:href="#rim" fill="#404040">
                        <set attributeName="fill" to="#808080" begin="arrowLeft.mouseover" end="arrowLeft.mouseout"/>
                  </use>
                  <path fill="none" stroke="white" stroke-width="1.5" d="M0,-3.0v7 M-2.5,-0.5L0,-3.0L2.5,-0.5"/>
                </g>
        </g>
        <svg viewBox="0 0 15 15" width="100%" height="30px" preserveAspectRatio="xMaxYMin meet">
         <g id="arrow_out" transform="scale(0.3 0.3)">
          <a xlink:href="classfront_end_1_1_main_a0ff8a007311f8ecce84d4203dc85d669_cgraph_org.svg" target="_base">
           <rect id="button" ry="5" rx="5" y="6" x="6" height="38" width="38"
                fill="#f2f5e9" fill-opacity="0.5" stroke="#606060" stroke-width="1.0"/>
           <path id="arrow"
             d="M 11.500037,31.436501 C 11.940474,20.09759 22.043105,11.32322 32.158766,21.979434 L 37.068811,17.246167 C 37.068811,17.246167 37.088388,32 37.088388,32 L 22.160133,31.978069 C 22.160133,31.978069 26.997745,27.140456 26.997745,27.140456 C 18.528582,18.264221 13.291696,25.230495 11.500037,31.436501 z"
             style="fill:#404040;"/>
          </a>
         </g>
        </svg>
</svg>
