<?xml version="1.0" encoding="UTF-8" standalone="no"?>
<!DOCTYPE svg PUBLIC "-//W3C//DTD SVG 1.1//EN"
 "http://www.w3.org/Graphics/SVG/1.1/DTD/svg11.dtd">
<!-- Generated by graphviz version 2.36.0 (20140111.2315)
 -->
<!-- Title: frontEnd.Main.makeMenu Pages: 1 -->
<!--zoomable 738 -->
<svg id="main" version="1.1" xmlns="http://www.w3.org/2000/svg" xmlns:xlink="http://www.w3.org/1999/xlink" xml:space="preserve" onload="init(evt)">
<style type="text/css"><![CDATA[
.edge:hover path { stroke: red; }
.edge:hover polygon { stroke: red; fill: red; }
]]></style>
<script type="text/javascript"><![CDATA[
var edges = document.getElementsByTagName('g');
if (edges && edges.length) {
  for (var i=0;i<edges.length;i++) {
    if (edges[i].id.substr(0,4)=='edge') {
      edges[i].setAttribute('class','edge');
    }
  }
}
]]></script>
        <defs>
                <circle id="rim" cx="0" cy="0" r="7"/>
                <circle id="rim2" cx="0" cy="0" r="3.5"/>
                <g id="zoomPlus">
                        <use xlink:href="#rim" fill="#404040">
                                <set attributeName="fill" to="#808080" begin="zoomplus.mouseover" end="zoomplus.mouseout"/>
                        </use>
                        <path d="M-4,0h8M0,-4v8" fill="none" stroke="white" stroke-width="1.5" pointer-events="none"/>
                </g>
                <g id="zoomMin">
                        <use xlink:href="#rim" fill="#404040">
                                <set attributeName="fill" to="#808080" begin="zoomminus.mouseover" end="zoomminus.mouseout"/>
                        </use>
                        <path d="M-4,0h8" fill="none" stroke="white" stroke-width="1.5" pointer-events="none"/>
                </g>
                <g id="dirArrow">
                        <path fill="none" stroke="white" stroke-width="1.5" d="M0,-3.0v7 M-2.5,-0.5L0,-3.0L2.5,-0.5"/>
                </g>
               <g id="resetDef">
                       <use xlink:href="#rim2" fill="#404040">
                               <set attributeName="fill" to="#808080" begin="reset.mouseover" end="reset.mouseout"/>
                       </use>
               </g>
        </defs>

<script type="text/javascript">
var viewWidth = 1388;
var viewHeight = 738;
var sectionId = 'dynsection-4';
</script>
<script xlink:href="../../svgpan.js"/>
<svg id="graph" class="graph">
<g id="viewport">
<title>frontEnd.Main.makeMenu</title>
<polygon fill="white" stroke="none" points="-4,4 -4,-734 1384,-734 1384,4 -4,4"/>
<!-- Node1 -->
<g id="node1" class="node"><title>Node1</title>
<polygon fill="#bfbfbf" stroke="black" points="0.5,-424.5 0.5,-443.5 139.5,-443.5 139.5,-424.5 0.5,-424.5"/>
<text text-anchor="middle" x="70" y="-431.5" font-family="Helvetica,sans-Serif" font-size="10.00">frontEnd.Main.makeMenu</text>
</g>
<!-- Node2 -->
<g id="node2" class="node"><title>Node2</title>
<g id="a_node2"><a xlink:href="../../dd/dbe/classfront_end_1_1_main.html#a7bae3127415fb2ae80975ebc95057e3f" target="_top" xlink:title="frontEnd.Main.readXML">
<polygon fill="white" stroke="black" points="176.5,-491.5 176.5,-510.5 303.5,-510.5 303.5,-491.5 176.5,-491.5"/>
<text text-anchor="middle" x="240" y="-498.5" font-family="Helvetica,sans-Serif" font-size="10.00">frontEnd.Main.readXML</text>
</a>
</g>
</g>
<!-- Node1&#45;&gt;Node2 -->
<g id="edge1" class="edge"><title>Node1&#45;&gt;Node2</title>
<path fill="none" stroke="midnightblue" d="M95.0703,-443.599C124.013,-455.142 172.762,-474.584 205.402,-487.601"/>
<polygon fill="midnightblue" stroke="midnightblue" points="204.389,-490.965 214.974,-491.418 206.982,-484.463 204.389,-490.965"/>
</g>
<!-- Node28 -->
<g id="node28" class="node"><title>Node28</title>
<g id="a_node28"><a xlink:href="../../dd/dbe/classfront_end_1_1_main.html#ae2ce98421793cead4539f6a0e9e63160" target="_top" xlink:title="frontEnd.Main.writeXML">
<polygon fill="white" stroke="black" points="176,-358.5 176,-377.5 304,-377.5 304,-358.5 176,-358.5"/>
<text text-anchor="middle" x="240" y="-365.5" font-family="Helvetica,sans-Serif" font-size="10.00">frontEnd.Main.writeXML</text>
</a>
</g>
</g>
<!-- Node1&#45;&gt;Node28 -->
<g id="edge30" class="edge"><title>Node1&#45;&gt;Node28</title>
<path fill="none" stroke="midnightblue" d="M95.4286,-424.403C124.377,-413.031 172.772,-394.018 205.276,-381.249"/>
<polygon fill="midnightblue" stroke="midnightblue" points="206.787,-384.416 214.814,-377.501 204.227,-377.9 206.787,-384.416"/>
</g>
<!-- Node3 -->
<g id="node3" class="node"><title>Node3</title>
<g id="a_node3"><a xlink:href="../../dc/da1/classfront_end_1_1_animator_loop.html#a1f378b18807af5386266685e907aa8c7" target="_top" xlink:title="frontEnd.AnimatorLoop.read\lXMLAndInitializeGrid">
<polygon fill="white" stroke="black" points="356,-443 356,-473 508,-473 508,-443 356,-443"/>
<text text-anchor="start" x="364" y="-461" font-family="Helvetica,sans-Serif" font-size="10.00">frontEnd.AnimatorLoop.read</text>
<text text-anchor="middle" x="432" y="-450" font-family="Helvetica,sans-Serif" font-size="10.00">XMLAndInitializeGrid</text>
</a>
</g>
</g>
<!-- Node2&#45;&gt;Node3 -->
<g id="edge2" class="edge"><title>Node2&#45;&gt;Node3</title>
<path fill="none" stroke="midnightblue" d="M283.167,-491.457C304.211,-486.694 330.325,-480.784 354.724,-475.263"/>
<polygon fill="midnightblue" stroke="midnightblue" points="355.712,-478.627 364.693,-473.006 354.167,-471.8 355.712,-478.627"/>
</g>
<!-- Node26 -->
<g id="node26" class="node"><title>Node26</title>
<g id="a_node26"><a xlink:href="../../dd/dbe/classfront_end_1_1_main.html#a0ff8a007311f8ecce84d4203dc85d669" target="_top" xlink:title="frontEnd.Main.makeParamControls">
<polygon fill="white" stroke="black" points="340.5,-534.5 340.5,-553.5 523.5,-553.5 523.5,-534.5 340.5,-534.5"/>
<text text-anchor="middle" x="432" y="-541.5" font-family="Helvetica,sans-Serif" font-size="10.00">frontEnd.Main.makeParamControls</text>
</a>
</g>
</g>
<!-- Node2&#45;&gt;Node26 -->
<g id="edge27" class="edge"><title>Node2&#45;&gt;Node26</title>
<path fill="none" stroke="midnightblue" d="M283.167,-510.543C311.456,-516.945 348.908,-525.421 379.038,-532.24"/>
<polygon fill="midnightblue" stroke="midnightblue" points="378.425,-535.69 388.951,-534.484 379.97,-528.863 378.425,-535.69"/>
</g>
<!-- Node4 -->
<g id="node4" class="node"><title>Node4</title>
<g id="a_node4"><a xlink:href="../../d1/dfc/classback_end_1_1_rule_set.html#a9feb2a620b625065a9436f2e2246b094" target="_top" xlink:title="backEnd.RuleSet.addGrid">
<polygon fill="white" stroke="black" points="573.5,-429.5 573.5,-448.5 710.5,-448.5 710.5,-429.5 573.5,-429.5"/>
<text text-anchor="middle" x="642" y="-436.5" font-family="Helvetica,sans-Serif" font-size="10.00">backEnd.RuleSet.addGrid</text>
</a>
</g>
</g>
<!-- Node3&#45;&gt;Node4 -->
<g id="edge3" class="edge"><title>Node3&#45;&gt;Node4</title>
<path fill="none" stroke="midnightblue" d="M508.093,-451.141C525.977,-449.507 545.1,-447.76 563.107,-446.115"/>
<polygon fill="midnightblue" stroke="midnightblue" points="563.631,-449.582 573.271,-445.187 562.994,-442.611 563.631,-449.582"/>
</g>
<!-- Node5 -->
<g id="node5" class="node"><title>Node5</title>
<g id="a_node5"><a xlink:href="../../dc/da1/classfront_end_1_1_animator_loop.html#a467af791b6cbba9bb796678842386ca2" target="_top" xlink:title="frontEnd.AnimatorLoop.check\lBadXMLFileData">
<polygon fill="white" stroke="black" points="563,-544 563,-574 721,-574 721,-544 563,-544"/>
<text text-anchor="start" x="571" y="-562" font-family="Helvetica,sans-Serif" font-size="10.00">frontEnd.AnimatorLoop.check</text>
<text text-anchor="middle" x="642" y="-551" font-family="Helvetica,sans-Serif" font-size="10.00">BadXMLFileData</text>
</a>
</g>
</g>
<!-- Node3&#45;&gt;Node5 -->
<g id="edge4" class="edge"><title>Node3&#45;&gt;Node5</title>
<path fill="none" stroke="midnightblue" d="M457.231,-473.037C482.361,-488.274 523.071,-511.964 560,-529 568.59,-532.963 577.866,-536.795 586.967,-540.319"/>
<polygon fill="midnightblue" stroke="midnightblue" points="585.761,-543.605 596.352,-543.873 588.24,-537.058 585.761,-543.605"/>
</g>
<!-- Node6 -->
<g id="node6" class="node"><title>Node6</title>
<g id="a_node6"><a xlink:href="../../d5/d51/classfront_end_1_1_c_a_settings.html#a5c62b367ceda95101ac5ff5c3048cf1c" target="_top" xlink:title="frontEnd.CASettings.getType">
<polygon fill="white" stroke="black" points="777.5,-443.5 777.5,-462.5 930.5,-462.5 930.5,-443.5 777.5,-443.5"/>
<text text-anchor="middle" x="854" y="-450.5" font-family="Helvetica,sans-Serif" font-size="10.00">frontEnd.CASettings.getType</text>
</a>
</g>
</g>
<!-- Node3&#45;&gt;Node6 -->
<g id="edge12" class="edge"><title>Node3&#45;&gt;Node6</title>
<path fill="none" stroke="midnightblue" d="M472.367,-473.012C497.115,-481.634 529.941,-491.599 560,-496 632.12,-506.558 652.052,-507.676 724,-496 758.355,-490.425 795.924,-477.01 821.611,-466.634"/>
<polygon fill="midnightblue" stroke="midnightblue" points="823.267,-469.737 831.177,-462.688 820.598,-463.266 823.267,-469.737"/>
</g>
<!-- Node9 -->
<g id="node9" class="node"><title>Node9</title>
<g id="a_node9"><a xlink:href="../../d5/d51/classfront_end_1_1_c_a_settings.html#ad1a35159c9a3b860bd4af0d12e40b169" target="_top" xlink:title="frontEnd.CASettings.getColumns">
<polygon fill="white" stroke="black" points="767,-239.5 767,-258.5 941,-258.5 941,-239.5 767,-239.5"/>
<text text-anchor="middle" x="854" y="-246.5" font-family="Helvetica,sans-Serif" font-size="10.00">frontEnd.CASettings.getColumns</text>
</a>
</g>
</g>
<!-- Node3&#45;&gt;Node9 -->
<g id="edge8" class="edge"><title>Node3&#45;&gt;Node9</title>
<path fill="none" stroke="midnightblue" d="M441.242,-442.982C458.77,-412.573 502.859,-343.744 560,-310 619.633,-274.784 696.598,-259.703 756.68,-253.336"/>
<polygon fill="midnightblue" stroke="midnightblue" points="757.327,-256.789 766.932,-252.317 756.634,-249.824 757.327,-256.789"/>
</g>
<!-- Node10 -->
<g id="node10" class="node"><title>Node10</title>
<g id="a_node10"><a xlink:href="../../d5/d51/classfront_end_1_1_c_a_settings.html#a9b6c355e48adf9a7db04c30c74aac53f" target="_top" xlink:title="frontEnd.CASettings.getGrid">
<polygon fill="white" stroke="black" points="778,-312.5 778,-331.5 930,-331.5 930,-312.5 778,-312.5"/>
<text text-anchor="middle" x="854" y="-319.5" font-family="Helvetica,sans-Serif" font-size="10.00">frontEnd.CASettings.getGrid</text>
</a>
</g>
</g>
<!-- Node3&#45;&gt;Node10 -->
<g id="edge9" class="edge"><title>Node3&#45;&gt;Node10</title>
<path fill="none" stroke="midnightblue" d="M444.277,-442.769C464.29,-417.092 508.766,-365.857 560,-344 625.755,-315.949 707.324,-312.017 767.687,-314.203"/>
<polygon fill="midnightblue" stroke="midnightblue" points="767.803,-317.711 777.943,-314.641 768.102,-310.718 767.803,-317.711"/>
</g>
<!-- Node11 -->
<g id="node11" class="node"><title>Node11</title>
<g id="a_node11"><a xlink:href="../../d5/d51/classfront_end_1_1_c_a_settings.html#a560c336f7aed8050af9a606949926548" target="_top" xlink:title="frontEnd.CASettings.getParameters">
<polygon fill="white" stroke="black" points="760,-163.5 760,-182.5 948,-182.5 948,-163.5 760,-163.5"/>
<text text-anchor="middle" x="854" y="-170.5" font-family="Helvetica,sans-Serif" font-size="10.00">frontEnd.CASettings.getParameters</text>
</a>
</g>
</g>
<!-- Node3&#45;&gt;Node11 -->
<g id="edge10" class="edge"><title>Node3&#45;&gt;Node11</title>
<path fill="none" stroke="midnightblue" d="M437.981,-442.816C455.284,-391.051 514.232,-222.981 560,-192 632.077,-143.211 738.348,-151.052 801.138,-161.685"/>
<polygon fill="midnightblue" stroke="midnightblue" points="800.748,-165.17 811.206,-163.477 801.975,-158.279 800.748,-165.17"/>
</g>
<!-- Node12 -->
<g id="node12" class="node"><title>Node12</title>
<g id="a_node12"><a xlink:href="../../d5/d51/classfront_end_1_1_c_a_settings.html#aef613fb5595d20d85dad92cf5f5efad9" target="_top" xlink:title="frontEnd.CASettings.getRows">
<polygon fill="white" stroke="black" points="776.5,-125.5 776.5,-144.5 931.5,-144.5 931.5,-125.5 776.5,-125.5"/>
<text text-anchor="middle" x="854" y="-132.5" font-family="Helvetica,sans-Serif" font-size="10.00">frontEnd.CASettings.getRows</text>
</a>
</g>
</g>
<!-- Node3&#45;&gt;Node12 -->
<g id="edge11" class="edge"><title>Node3&#45;&gt;Node12</title>
<path fill="none" stroke="midnightblue" d="M439.209,-442.789C464.483,-380.89 558.365,-151.156 560,-150 592.075,-127.322 691.866,-126.527 766.129,-129.477"/>
<polygon fill="midnightblue" stroke="midnightblue" points="766.288,-132.987 776.428,-129.916 766.587,-125.993 766.288,-132.987"/>
</g>
<!-- Node13 -->
<g id="node13" class="node"><title>Node13</title>
<g id="a_node13"><a xlink:href="../../dc/da1/classfront_end_1_1_animator_loop.html#af1d1ddcc3fe02f0d1c6ba1f234d455cc" target="_top" xlink:title="frontEnd.AnimatorLoop.initGrid">
<polygon fill="white" stroke="black" points="560,-353.5 560,-372.5 724,-372.5 724,-353.5 560,-353.5"/>
<text text-anchor="middle" x="642" y="-360.5" font-family="Helvetica,sans-Serif" font-size="10.00">frontEnd.AnimatorLoop.initGrid</text>
</a>
</g>
</g>
<!-- Node3&#45;&gt;Node13 -->
<g id="edge13" class="edge"><title>Node3&#45;&gt;Node13</title>
<path fill="none" stroke="midnightblue" d="M465.958,-442.947C505.77,-424.764 572.188,-394.429 610.747,-376.818"/>
<polygon fill="midnightblue" stroke="midnightblue" points="612.274,-379.968 619.916,-372.629 609.366,-373.6 612.274,-379.968"/>
</g>
<!-- Node16 -->
<g id="node16" class="node"><title>Node16</title>
<g id="a_node16"><a xlink:href="../../dc/da1/classfront_end_1_1_animator_loop.html#a92b2bebb55107557a33d1621ddae5872" target="_top" xlink:title="frontEnd.AnimatorLoop.init\lGridPane">
<polygon fill="white" stroke="black" points="569.5,-632 569.5,-662 714.5,-662 714.5,-632 569.5,-632"/>
<text text-anchor="start" x="577.5" y="-650" font-family="Helvetica,sans-Serif" font-size="10.00">frontEnd.AnimatorLoop.init</text>
<text text-anchor="middle" x="642" y="-639" font-family="Helvetica,sans-Serif" font-size="10.00">GridPane</text>
</a>
</g>
</g>
<!-- Node3&#45;&gt;Node16 -->
<g id="edge17" class="edge"><title>Node3&#45;&gt;Node16</title>
<path fill="none" stroke="midnightblue" d="M461.514,-473.039C481.438,-484.826 507.353,-502.908 524,-525 551.674,-561.725 526.586,-590.407 560,-622 561.651,-623.561 563.397,-625.024 565.221,-626.397"/>
<polygon fill="midnightblue" stroke="midnightblue" points="563.365,-629.364 573.665,-631.848 567.162,-623.483 563.365,-629.364"/>
</g>
<!-- Node22 -->
<g id="node22" class="node"><title>Node22</title>
<g id="a_node22"><a xlink:href="../../d0/d87/classfront_end_1_1_x_m_l_handler.html#a5ec2b2b772a94660c130efe55a8d356e" target="_top" xlink:title="frontEnd.XMLHandler.read">
<polygon fill="white" stroke="black" points="571.5,-593.5 571.5,-612.5 712.5,-612.5 712.5,-593.5 571.5,-593.5"/>
<text text-anchor="middle" x="642" y="-600.5" font-family="Helvetica,sans-Serif" font-size="10.00">frontEnd.XMLHandler.read</text>
</a>
</g>
</g>
<!-- Node3&#45;&gt;Node22 -->
<g id="edge23" class="edge"><title>Node3&#45;&gt;Node22</title>
<path fill="none" stroke="midnightblue" d="M458.601,-473.08C478.066,-485.385 504.696,-504.105 524,-525 544.588,-547.285 535.461,-565.158 560,-583 563.267,-585.376 566.784,-587.471 570.458,-589.319"/>
<polygon fill="midnightblue" stroke="midnightblue" points="569.292,-592.63 579.857,-593.422 572.093,-586.214 569.292,-592.63"/>
</g>
<!-- Node25 -->
<g id="node25" class="node"><title>Node25</title>
<g id="a_node25"><a xlink:href="../../d1/dfc/classback_end_1_1_rule_set.html#ae12bb5fde75014f04b76b4a9f77d5b19" target="_top" xlink:title="backEnd.RuleSet.setParams">
<polygon fill="white" stroke="black" points="567,-467.5 567,-486.5 717,-486.5 717,-467.5 567,-467.5"/>
<text text-anchor="middle" x="642" y="-474.5" font-family="Helvetica,sans-Serif" font-size="10.00">backEnd.RuleSet.setParams</text>
</a>
</g>
</g>
<!-- Node3&#45;&gt;Node25 -->
<g id="edge26" class="edge"><title>Node3&#45;&gt;Node25</title>
<path fill="none" stroke="midnightblue" d="M508.093,-464.859C523.748,-466.289 540.352,-467.806 556.325,-469.265"/>
<polygon fill="midnightblue" stroke="midnightblue" points="556.438,-472.79 566.715,-470.214 557.075,-465.819 556.438,-472.79"/>
</g>
<!-- Node5&#45;&gt;Node6 -->
<g id="edge5" class="edge"><title>Node5&#45;&gt;Node6</title>
<path fill="none" stroke="midnightblue" d="M688.152,-543.891C699.99,-539.494 712.622,-534.406 724,-529 762.684,-510.62 805.01,-484.417 830.265,-468.075"/>
<polygon fill="midnightblue" stroke="midnightblue" points="832.297,-470.929 838.759,-462.533 828.471,-465.066 832.297,-470.929"/>
</g>
<!-- Node7 -->
<g id="node7" class="node"><title>Node7</title>
<g id="a_node7"><a xlink:href="../../dd/dbe/classfront_end_1_1_main.html#a1c9672872cb8b8f6efe2d1ddce9a6b61" target="_top" xlink:title="frontEnd.Main.showPopupMessage">
<polygon fill="white" stroke="black" points="763,-527.5 763,-546.5 945,-546.5 945,-527.5 763,-527.5"/>
<text text-anchor="middle" x="854" y="-534.5" font-family="Helvetica,sans-Serif" font-size="10.00">frontEnd.Main.showPopupMessage</text>
</a>
</g>
</g>
<!-- Node5&#45;&gt;Node7 -->
<g id="edge6" class="edge"><title>Node5&#45;&gt;Node7</title>
<path fill="none" stroke="midnightblue" d="M721.196,-550.808C731.447,-549.734 742.064,-548.622 752.618,-547.516"/>
<polygon fill="midnightblue" stroke="midnightblue" points="753.122,-550.983 762.703,-546.46 752.393,-544.021 753.122,-550.983"/>
</g>
<!-- Node8 -->
<g id="node8" class="node"><title>Node8</title>
<g id="a_node8"><a xlink:href="../../dd/dbe/classfront_end_1_1_main.html#aef35ad9be3f43a5367d7a8ab30d0bec1" target="_top" xlink:title="frontEnd.Main.createPopup">
<polygon fill="white" stroke="black" points="1004,-527.5 1004,-546.5 1150,-546.5 1150,-527.5 1004,-527.5"/>
<text text-anchor="middle" x="1077" y="-534.5" font-family="Helvetica,sans-Serif" font-size="10.00">frontEnd.Main.createPopup</text>
</a>
</g>
</g>
<!-- Node7&#45;&gt;Node8 -->
<g id="edge7" class="edge"><title>Node7&#45;&gt;Node8</title>
<path fill="none" stroke="midnightblue" d="M945.208,-537C961.265,-537 977.913,-537 993.734,-537"/>
<polygon fill="midnightblue" stroke="midnightblue" points="993.997,-540.5 1004,-537 993.997,-533.5 993.997,-540.5"/>
</g>
<!-- Node13&#45;&gt;Node10 -->
<g id="edge14" class="edge"><title>Node13&#45;&gt;Node10</title>
<path fill="none" stroke="midnightblue" d="M691.706,-353.491C722.21,-347.535 761.713,-339.823 793.99,-333.521"/>
<polygon fill="midnightblue" stroke="midnightblue" points="795.051,-336.88 804.195,-331.529 793.709,-330.01 795.051,-336.88"/>
</g>
<!-- Node14 -->
<g id="node14" class="node"><title>Node14</title>
<g id="a_node14"><a xlink:href="../../d1/dfc/classback_end_1_1_rule_set.html#a603d39da71653ea4bbdadf3d78978981" target="_top" xlink:title="backEnd.RuleSet.initialize\lPatch">
<polygon fill="white" stroke="black" points="785.5,-351 785.5,-381 922.5,-381 922.5,-351 785.5,-351"/>
<text text-anchor="start" x="793.5" y="-369" font-family="Helvetica,sans-Serif" font-size="10.00">backEnd.RuleSet.initialize</text>
<text text-anchor="middle" x="854" y="-358" font-family="Helvetica,sans-Serif" font-size="10.00">Patch</text>
</a>
</g>
</g>
<!-- Node13&#45;&gt;Node14 -->
<g id="edge15" class="edge"><title>Node13&#45;&gt;Node14</title>
<path fill="none" stroke="midnightblue" d="M724.191,-364.16C740.918,-364.399 758.496,-364.65 775.102,-364.887"/>
<polygon fill="midnightblue" stroke="midnightblue" points="775.251,-368.39 785.3,-365.033 775.351,-361.39 775.251,-368.39"/>
</g>
<!-- Node15 -->
<g id="node15" class="node"><title>Node15</title>
<g id="a_node15"><a xlink:href="../../db/d5e/classback_end_1_1_patch.html#ac9c7bf582f9e7aec34492785fea4cf68" target="_top" xlink:title="backEnd.Patch.fill">
<polygon fill="white" stroke="black" points="1027.5,-356.5 1027.5,-375.5 1126.5,-375.5 1126.5,-356.5 1027.5,-356.5"/>
<text text-anchor="middle" x="1077" y="-363.5" font-family="Helvetica,sans-Serif" font-size="10.00">backEnd.Patch.fill</text>
</a>
</g>
</g>
<!-- Node14&#45;&gt;Node15 -->
<g id="edge16" class="edge"><title>Node14&#45;&gt;Node15</title>
<path fill="none" stroke="midnightblue" d="M922.508,-366C952.826,-366 988.259,-366 1017.44,-366"/>
<polygon fill="midnightblue" stroke="midnightblue" points="1017.48,-369.5 1027.48,-366 1017.48,-362.5 1017.48,-369.5"/>
</g>
<!-- Node17 -->
<g id="node17" class="node"><title>Node17</title>
<g id="a_node17"><a xlink:href="../../dc/da1/classfront_end_1_1_animator_loop.html#aa8be847f0f9efee238193322c5ab9f5b" target="_top" xlink:title="frontEnd.AnimatorLoop.add\lCellsToGrid">
<polygon fill="white" stroke="black" points="779.5,-654 779.5,-684 928.5,-684 928.5,-654 779.5,-654"/>
<text text-anchor="start" x="787.5" y="-672" font-family="Helvetica,sans-Serif" font-size="10.00">frontEnd.AnimatorLoop.add</text>
<text text-anchor="middle" x="854" y="-661" font-family="Helvetica,sans-Serif" font-size="10.00">CellsToGrid</text>
</a>
</g>
</g>
<!-- Node16&#45;&gt;Node17 -->
<g id="edge18" class="edge"><title>Node16&#45;&gt;Node17</title>
<path fill="none" stroke="midnightblue" d="M714.683,-654.51C732.327,-656.358 751.372,-658.353 769.521,-660.255"/>
<polygon fill="midnightblue" stroke="midnightblue" points="769.187,-663.739 779.497,-661.3 769.916,-656.777 769.187,-663.739"/>
</g>
<!-- Node18 -->
<g id="node18" class="node"><title>Node18</title>
<g id="a_node18"><a xlink:href="../../d4/d6c/classshape_factories_1_1_shape_factory.html#a7a14b33c28eb5951679f13f21633bdf4" target="_top" xlink:title="shapeFactories.ShapeFactory.make\lShape">
<polygon fill="white" stroke="black" points="984.5,-676 984.5,-706 1169.5,-706 1169.5,-676 984.5,-676"/>
<text text-anchor="start" x="992.5" y="-694" font-family="Helvetica,sans-Serif" font-size="10.00">shapeFactories.ShapeFactory.make</text>
<text text-anchor="middle" x="1077" y="-683" font-family="Helvetica,sans-Serif" font-size="10.00">Shape</text>
</a>
</g>
</g>
<!-- Node17&#45;&gt;Node18 -->
<g id="edge19" class="edge"><title>Node17&#45;&gt;Node18</title>
<path fill="none" stroke="midnightblue" d="M928.59,-676.326C943.216,-677.782 958.817,-679.335 974.192,-680.865"/>
<polygon fill="midnightblue" stroke="midnightblue" points="973.953,-684.359 984.251,-681.867 974.647,-677.393 973.953,-684.359"/>
</g>
<!-- Node21 -->
<g id="node21" class="node"><title>Node21</title>
<g id="a_node21"><a xlink:href="../../d4/d6c/classshape_factories_1_1_shape_factory.html#a6dbdc6b9de19c9685fc9c2361d982b2f" target="_top" xlink:title="shapeFactories.ShapeFactory.move">
<polygon fill="white" stroke="black" points="984.5,-637.5 984.5,-656.5 1169.5,-656.5 1169.5,-637.5 984.5,-637.5"/>
<text text-anchor="middle" x="1077" y="-644.5" font-family="Helvetica,sans-Serif" font-size="10.00">shapeFactories.ShapeFactory.move</text>
</a>
</g>
</g>
<!-- Node17&#45;&gt;Node21 -->
<g id="edge22" class="edge"><title>Node17&#45;&gt;Node21</title>
<path fill="none" stroke="midnightblue" d="M928.59,-661.674C943.216,-660.218 958.817,-658.665 974.192,-657.135"/>
<polygon fill="midnightblue" stroke="midnightblue" points="974.647,-660.607 984.251,-656.133 973.953,-653.641 974.647,-660.607"/>
</g>
<!-- Node19 -->
<g id="node19" class="node"><title>Node19</title>
<g id="a_node19"><a xlink:href="../../d4/d6c/classshape_factories_1_1_shape_factory.html#adcf2f7637e2a6ed76a74dceaf986f8a5" target="_top" xlink:title="shapeFactories.ShapeFactory.set\lDimensions">
<polygon fill="white" stroke="black" points="1206.5,-700 1206.5,-730 1379.5,-730 1379.5,-700 1206.5,-700"/>
<text text-anchor="start" x="1214.5" y="-718" font-family="Helvetica,sans-Serif" font-size="10.00">shapeFactories.ShapeFactory.set</text>
<text text-anchor="middle" x="1293" y="-707" font-family="Helvetica,sans-Serif" font-size="10.00">Dimensions</text>
</a>
</g>
</g>
<!-- Node18&#45;&gt;Node19 -->
<g id="edge20" class="edge"><title>Node18&#45;&gt;Node19</title>
<path fill="none" stroke="midnightblue" d="M1169.69,-701.283C1178.51,-702.272 1187.47,-703.277 1196.32,-704.27"/>
<polygon fill="midnightblue" stroke="midnightblue" points="1195.94,-707.748 1206.27,-705.385 1196.72,-700.792 1195.94,-707.748"/>
</g>
<!-- Node20 -->
<g id="node20" class="node"><title>Node20</title>
<g id="a_node20"><a xlink:href="../../d4/d6c/classshape_factories_1_1_shape_factory.html#a02796a37b5651bf8fe6dc075f5e6e444" target="_top" xlink:title="shapeFactories.ShapeFactory.set\lCoords">
<polygon fill="white" stroke="black" points="1206.5,-651 1206.5,-681 1379.5,-681 1379.5,-651 1206.5,-651"/>
<text text-anchor="start" x="1214.5" y="-669" font-family="Helvetica,sans-Serif" font-size="10.00">shapeFactories.ShapeFactory.set</text>
<text text-anchor="middle" x="1293" y="-658" font-family="Helvetica,sans-Serif" font-size="10.00">Coords</text>
</a>
</g>
</g>
<!-- Node18&#45;&gt;Node20 -->
<g id="edge21" class="edge"><title>Node18&#45;&gt;Node20</title>
<path fill="none" stroke="midnightblue" d="M1169.69,-680.289C1178.51,-679.259 1187.47,-678.212 1196.32,-677.177"/>
<polygon fill="midnightblue" stroke="midnightblue" points="1196.74,-680.653 1206.27,-676.016 1195.93,-673.7 1196.74,-680.653"/>
</g>
<!-- Node23 -->
<g id="node23" class="node"><title>Node23</title>
<g id="a_node23"><a xlink:href="../../d0/d87/classfront_end_1_1_x_m_l_handler.html#a4946a8ebfe5de06e04a84fee47d14a36" target="_top" xlink:title="frontEnd.XMLHandler.read\lParameters">
<polygon fill="white" stroke="black" points="783.5,-566 783.5,-596 924.5,-596 924.5,-566 783.5,-566"/>
<text text-anchor="start" x="791.5" y="-584" font-family="Helvetica,sans-Serif" font-size="10.00">frontEnd.XMLHandler.read</text>
<text text-anchor="middle" x="854" y="-573" font-family="Helvetica,sans-Serif" font-size="10.00">Parameters</text>
</a>
</g>
</g>
<!-- Node22&#45;&gt;Node23 -->
<g id="edge24" class="edge"><title>Node22&#45;&gt;Node23</title>
<path fill="none" stroke="midnightblue" d="M712.635,-595.705C732.041,-593.672 753.272,-591.448 773.213,-589.359"/>
<polygon fill="midnightblue" stroke="midnightblue" points="773.614,-592.836 783.195,-588.313 772.885,-585.874 773.614,-592.836"/>
</g>
<!-- Node24 -->
<g id="node24" class="node"><title>Node24</title>
<g id="a_node24"><a xlink:href="../../d0/d87/classfront_end_1_1_x_m_l_handler.html#ae0df3c17a5ff74491584286b4e830fba" target="_top" xlink:title="frontEnd.XMLHandler.readGrid">
<polygon fill="white" stroke="black" points="773.5,-615.5 773.5,-634.5 934.5,-634.5 934.5,-615.5 773.5,-615.5"/>
<text text-anchor="middle" x="854" y="-622.5" font-family="Helvetica,sans-Serif" font-size="10.00">frontEnd.XMLHandler.readGrid</text>
</a>
</g>
</g>
<!-- Node22&#45;&gt;Node24 -->
<g id="edge25" class="edge"><title>Node22&#45;&gt;Node24</title>
<path fill="none" stroke="midnightblue" d="M712.635,-610.295C728.751,-611.983 746.126,-613.804 762.976,-615.569"/>
<polygon fill="midnightblue" stroke="midnightblue" points="763.073,-619.098 773.383,-616.659 763.802,-612.136 763.073,-619.098"/>
</g>
<!-- Node27 -->
<g id="node27" class="node"><title>Node27</title>
<g id="a_node27"><a xlink:href="../../dd/dbe/classfront_end_1_1_main.html#a8e2e836903a64069e4283fa66309c704" target="_top" xlink:title="frontEnd.Main.resetSim">
<polygon fill="white" stroke="black" points="577.5,-681.5 577.5,-700.5 706.5,-700.5 706.5,-681.5 577.5,-681.5"/>
<text text-anchor="middle" x="642" y="-688.5" font-family="Helvetica,sans-Serif" font-size="10.00">frontEnd.Main.resetSim</text>
</a>
</g>
</g>
<!-- Node26&#45;&gt;Node27 -->
<g id="edge28" class="edge"><title>Node26&#45;&gt;Node27</title>
<path fill="none" stroke="midnightblue" d="M439.734,-553.722C456.848,-577.654 504.601,-639.74 560,-671 564.809,-673.714 569.983,-676.063 575.305,-678.096"/>
<polygon fill="midnightblue" stroke="midnightblue" points="574.405,-681.487 585,-681.424 576.678,-674.866 574.405,-681.487"/>
</g>
<!-- Node27&#45;&gt;Node2 -->
<g id="edge29" class="edge"><title>Node27&#45;&gt;Node2</title>
<path fill="none" stroke="midnightblue" d="M595.076,-681.474C583.482,-678.576 571.161,-675.064 560,-671 442.591,-628.247 314.847,-549.162 263.866,-516.122"/>
<polygon fill="midnightblue" stroke="midnightblue" points="265.548,-513.04 255.26,-510.508 261.724,-518.903 265.548,-513.04"/>
</g>
<!-- Node29 -->
<g id="node29" class="node"><title>Node29</title>
<g id="a_node29"><a xlink:href="../../dc/da1/classfront_end_1_1_animator_loop.html#abeeeb7294620845e96455930decbd7bf" target="_top" xlink:title="frontEnd.AnimatorLoop.write\lToXML">
<polygon fill="white" stroke="black" points="355.5,-196 355.5,-226 508.5,-226 508.5,-196 355.5,-196"/>
<text text-anchor="start" x="363.5" y="-214" font-family="Helvetica,sans-Serif" font-size="10.00">frontEnd.AnimatorLoop.write</text>
<text text-anchor="middle" x="432" y="-203" font-family="Helvetica,sans-Serif" font-size="10.00">ToXML</text>
</a>
</g>
</g>
<!-- Node28&#45;&gt;Node29 -->
<g id="edge31" class="edge"><title>Node28&#45;&gt;Node29</title>
<path fill="none" stroke="midnightblue" d="M252.599,-358.415C282.511,-333.699 362.842,-267.32 404.748,-232.693"/>
<polygon fill="midnightblue" stroke="midnightblue" points="407.111,-235.28 412.59,-226.212 402.652,-229.884 407.111,-235.28"/>
</g>
<!-- Node29&#45;&gt;Node6 -->
<g id="edge35" class="edge"><title>Node29&#45;&gt;Node6</title>
<path fill="none" stroke="midnightblue" d="M439.691,-226.151C455.417,-259.902 498.129,-341.479 560,-382 622.591,-422.993 651.308,-402.283 724,-420 751.537,-426.712 782.287,-434.564 806.856,-440.925"/>
<polygon fill="midnightblue" stroke="midnightblue" points="806.076,-444.338 816.635,-443.462 807.834,-437.562 806.076,-444.338"/>
</g>
<!-- Node29&#45;&gt;Node9 -->
<g id="edge32" class="edge"><title>Node29&#45;&gt;Node9</title>
<path fill="none" stroke="midnightblue" d="M508.753,-223.394C525.59,-225.853 543.374,-228.22 560,-230 625.506,-237.012 699.548,-241.786 756.811,-244.795"/>
<polygon fill="midnightblue" stroke="midnightblue" points="756.772,-248.298 766.939,-245.318 757.133,-241.307 756.772,-248.298"/>
</g>
<!-- Node29&#45;&gt;Node11 -->
<g id="edge33" class="edge"><title>Node29&#45;&gt;Node11</title>
<path fill="none" stroke="midnightblue" d="M460.763,-195.939C485.856,-183.238 524.233,-166.039 560,-159 639.827,-143.29 734.128,-152.64 793.75,-161.891"/>
<polygon fill="midnightblue" stroke="midnightblue" points="793.313,-165.365 803.74,-163.49 794.419,-158.453 793.313,-165.365"/>
</g>
<!-- Node29&#45;&gt;Node12 -->
<g id="edge34" class="edge"><title>Node29&#45;&gt;Node12</title>
<path fill="none" stroke="midnightblue" d="M455.681,-195.8C480.21,-180.29 521.045,-157.107 560,-147 627.78,-129.414 707.306,-127.261 766.39,-129.034"/>
<polygon fill="midnightblue" stroke="midnightblue" points="766.319,-132.534 776.433,-129.379 766.559,-125.538 766.319,-132.534"/>
</g>
<!-- Node30 -->
<g id="node30" class="node"><title>Node30</title>
<g id="a_node30"><a xlink:href="../../dc/da1/classfront_end_1_1_animator_loop.html#a49bb0767763415d97458827801531bc6" target="_top" xlink:title="frontEnd.AnimatorLoop.grid\lPatchToString">
<polygon fill="white" stroke="black" points="567.5,-0 567.5,-30 716.5,-30 716.5,-0 567.5,-0"/>
<text text-anchor="start" x="575.5" y="-18" font-family="Helvetica,sans-Serif" font-size="10.00">frontEnd.AnimatorLoop.grid</text>
<text text-anchor="middle" x="642" y="-7" font-family="Helvetica,sans-Serif" font-size="10.00">PatchToString</text>
</a>
</g>
</g>
<!-- Node29&#45;&gt;Node30 -->
<g id="edge36" class="edge"><title>Node29&#45;&gt;Node30</title>
<path fill="none" stroke="midnightblue" d="M440.704,-195.872C457.842,-163.645 502.21,-87.6883 560,-45 565.43,-40.9891 571.455,-37.4612 577.697,-34.3704"/>
<polygon fill="midnightblue" stroke="midnightblue" points="579.308,-37.4825 586.955,-30.1494 576.404,-31.1132 579.308,-37.4825"/>
</g>
<!-- Node31 -->
<g id="node31" class="node"><title>Node31</title>
<g id="a_node31"><a xlink:href="../../d0/d87/classfront_end_1_1_x_m_l_handler.html#a8b7864cb0ca3ba8aad07a5b093145861" target="_top" xlink:title="frontEnd.XMLHandler.write">
<polygon fill="white" stroke="black" points="571,-201.5 571,-220.5 713,-220.5 713,-201.5 571,-201.5"/>
<text text-anchor="middle" x="642" y="-208.5" font-family="Helvetica,sans-Serif" font-size="10.00">frontEnd.XMLHandler.write</text>
</a>
</g>
</g>
<!-- Node29&#45;&gt;Node31 -->
<g id="edge37" class="edge"><title>Node29&#45;&gt;Node31</title>
<path fill="none" stroke="midnightblue" d="M508.681,-211C525.515,-211 543.42,-211 560.441,-211"/>
<polygon fill="midnightblue" stroke="midnightblue" points="560.908,-214.5 570.908,-211 560.908,-207.5 560.908,-214.5"/>
</g>
<!-- Node31&#45;&gt;Node6 -->
<g id="edge38" class="edge"><title>Node31&#45;&gt;Node6</title>
<path fill="none" stroke="midnightblue" d="M648.617,-220.651C667.919,-253.635 731.882,-361.415 760,-390 779.48,-409.804 806.074,-427.074 825.835,-438.499"/>
<polygon fill="midnightblue" stroke="midnightblue" points="824.225,-441.609 834.654,-443.474 827.664,-435.512 824.225,-441.609"/>
</g>
<!-- Node31&#45;&gt;Node9 -->
<g id="edge41" class="edge"><title>Node31&#45;&gt;Node9</title>
<path fill="none" stroke="midnightblue" d="M695.721,-220.54C724.429,-225.735 760.137,-232.196 790.27,-237.649"/>
<polygon fill="midnightblue" stroke="midnightblue" points="789.794,-241.12 800.258,-239.456 791.041,-234.231 789.794,-241.12"/>
</g>
<!-- Node31&#45;&gt;Node10 -->
<g id="edge43" class="edge"><title>Node31&#45;&gt;Node10</title>
<path fill="none" stroke="midnightblue" d="M661.269,-220.656C698.363,-240.263 782.658,-284.819 826.064,-307.762"/>
<polygon fill="midnightblue" stroke="midnightblue" points="824.446,-310.866 834.923,-312.445 827.718,-304.678 824.446,-310.866"/>
</g>
<!-- Node31&#45;&gt;Node11 -->
<g id="edge39" class="edge"><title>Node31&#45;&gt;Node11</title>
<path fill="none" stroke="midnightblue" d="M695.721,-201.46C724.429,-196.265 760.137,-189.804 790.27,-184.351"/>
<polygon fill="midnightblue" stroke="midnightblue" points="791.041,-187.769 800.258,-182.544 789.794,-180.88 791.041,-187.769"/>
</g>
<!-- Node31&#45;&gt;Node12 -->
<g id="edge40" class="edge"><title>Node31&#45;&gt;Node12</title>
<path fill="none" stroke="midnightblue" d="M659.483,-201.311C681.633,-188.684 722.56,-166.717 760,-154 767.963,-151.295 776.447,-148.914 784.927,-146.835"/>
<polygon fill="midnightblue" stroke="midnightblue" points="785.9,-150.202 794.85,-144.531 784.317,-143.383 785.9,-150.202"/>
</g>
<!-- Node32 -->
<g id="node32" class="node"><title>Node32</title>
<g id="a_node32"><a xlink:href="../../d0/d87/classfront_end_1_1_x_m_l_handler.html#a28556434b6cf7a6f8a8505c03aca8336" target="_top" xlink:title="frontEnd.XMLHandler.writeGrid">
<polygon fill="white" stroke="black" points="773.5,-201.5 773.5,-220.5 934.5,-220.5 934.5,-201.5 773.5,-201.5"/>
<text text-anchor="middle" x="854" y="-208.5" font-family="Helvetica,sans-Serif" font-size="10.00">frontEnd.XMLHandler.writeGrid</text>
</a>
</g>
</g>
<!-- Node31&#45;&gt;Node32 -->
<g id="edge42" class="edge"><title>Node31&#45;&gt;Node32</title>
<path fill="none" stroke="midnightblue" d="M713.219,-211C729.215,-211 746.425,-211 763.115,-211"/>
<polygon fill="midnightblue" stroke="midnightblue" points="763.424,-214.5 773.424,-211 763.424,-207.5 763.424,-214.5"/>
</g>
</g>
</svg>
        <g id="navigator" transform="translate(0 0)" fill="#404254">
                <rect fill="#f2f5e9" fill-opacity="0.5" stroke="#606060" stroke-width=".5" x="0" y="0" width="60" height="60"/>
                <use id="zoomplus" xlink:href="#zoomPlus" x="17" y="9" onmousedown="handleZoom(evt,'in')"/>
                <use id="zoomminus" xlink:href="#zoomMin" x="42" y="9" onmousedown="handleZoom(evt,'out')"/>
                <use id="reset" xlink:href="#resetDef" x="30" y="36" onmousedown="handleReset()"/>
                <g id="arrowUp" xlink:href="#dirArrow" transform="translate(30 24)" onmousedown="handlePan(0,-1)">
                  <use xlink:href="#rim" fill="#404040">
                        <set attributeName="fill" to="#808080" begin="arrowUp.mouseover" end="arrowUp.mouseout"/>
                  </use>
                  <path fill="none" stroke="white" stroke-width="1.5" d="M0,-3.0v7 M-2.5,-0.5L0,-3.0L2.5,-0.5"/>
                </g>
                <g id="arrowRight" xlink:href="#dirArrow" transform="rotate(90) translate(36 -43)" onmousedown="handlePan(1,0)">
                  <use xlink:href="#rim" fill="#404040">
                        <set attributeName="fill" to="#808080" begin="arrowRight.mouseover" end="arrowRight.mouseout"/>
                  </use>
                  <path fill="none" stroke="white" stroke-width="1.5" d="M0,-3.0v7 M-2.5,-0.5L0,-3.0L2.5,-0.5"/>
                </g>
                <g id="arrowDown" xlink:href="#dirArrow" transform="rotate(180) translate(-30 -48)" onmousedown="handlePan(0,1)">
                  <use xlink:href="#rim" fill="#404040">
                        <set attributeName="fill" to="#808080" begin="arrowDown.mouseover" end="arrowDown.mouseout"/>
                  </use>
                  <path fill="none" stroke="white" stroke-width="1.5" d="M0,-3.0v7 M-2.5,-0.5L0,-3.0L2.5,-0.5"/>
                </g>
                <g id="arrowLeft" xlink:href="#dirArrow" transform="rotate(270) translate(-36 17)" onmousedown="handlePan(-1,0)">
                  <use xlink:href="#rim" fill="#404040">
                        <set attributeName="fill" to="#808080" begin="arrowLeft.mouseover" end="arrowLeft.mouseout"/>
                  </use>
                  <path fill="none" stroke="white" stroke-width="1.5" d="M0,-3.0v7 M-2.5,-0.5L0,-3.0L2.5,-0.5"/>
                </g>
        </g>
        <svg viewBox="0 0 15 15" width="100%" height="30px" preserveAspectRatio="xMaxYMin meet">
         <g id="arrow_out" transform="scale(0.3 0.3)">
          <a xlink:href="classfront_end_1_1_main_a55d59b110825a1cc153a0091a6e5cb99_cgraph_org.svg" target="_base">
           <rect id="button" ry="5" rx="5" y="6" x="6" height="38" width="38"
                fill="#f2f5e9" fill-opacity="0.5" stroke="#606060" stroke-width="1.0"/>
           <path id="arrow"
             d="M 11.500037,31.436501 C 11.940474,20.09759 22.043105,11.32322 32.158766,21.979434 L 37.068811,17.246167 C 37.068811,17.246167 37.088388,32 37.088388,32 L 22.160133,31.978069 C 22.160133,31.978069 26.997745,27.140456 26.997745,27.140456 C 18.528582,18.264221 13.291696,25.230495 11.500037,31.436501 z"
             style="fill:#404040;"/>
          </a>
         </g>
        </svg>
</svg>
