<?xml version="1.0" encoding="UTF-8" standalone="no"?>
<!DOCTYPE svg PUBLIC "-//W3C//DTD SVG 1.1//EN"
 "http://www.w3.org/Graphics/SVG/1.1/DTD/svg11.dtd">
<!-- Generated by graphviz version 2.36.0 (20140111.2315)
 -->
<!-- Title: frontEnd.Main.createPopup Pages: 1 -->
<svg width="1458pt" height="104pt"
 viewBox="0.00 0.00 1458.00 104.00" xmlns="http://www.w3.org/2000/svg" xmlns:xlink="http://www.w3.org/1999/xlink">
<g id="graph0" class="graph" transform="scale(1 1) rotate(0) translate(4 100)">
<title>frontEnd.Main.createPopup</title>
<polygon fill="white" stroke="none" points="-4,4 -4,-100 1454,-100 1454,4 -4,4"/>
<!-- Node1 -->
<g id="node1" class="node"><title>Node1</title>
<polygon fill="#bfbfbf" stroke="black" points="0,-38.5 0,-57.5 146,-57.5 146,-38.5 0,-38.5"/>
<text text-anchor="middle" x="73" y="-45.5" font-family="Helvetica,sans-Serif" font-size="10.00">frontEnd.Main.createPopup</text>
</g>
<!-- Node2 -->
<g id="node2" class="node"><title>Node2</title>
<g id="a_node2"><a xlink:href="../../dd/dbe/classfront_end_1_1_main.html#a1c9672872cb8b8f6efe2d1ddce9a6b61" target="_top" xlink:title="frontEnd.Main.showPopupMessage">
<polygon fill="white" stroke="black" points="182,-38.5 182,-57.5 364,-57.5 364,-38.5 182,-38.5"/>
<text text-anchor="middle" x="273" y="-45.5" font-family="Helvetica,sans-Serif" font-size="10.00">frontEnd.Main.showPopupMessage</text>
</a>
</g>
</g>
<!-- Node1&#45;&gt;Node2 -->
<g id="edge1" class="edge"><title>Node1&#45;&gt;Node2</title>
<path fill="none" stroke="midnightblue" d="M156.228,-48C164.66,-48 173.259,-48 181.771,-48"/>
<polygon fill="midnightblue" stroke="midnightblue" points="156.043,-44.5001 146.043,-48 156.043,-51.5001 156.043,-44.5001"/>
</g>
<!-- Node3 -->
<g id="node3" class="node"><title>Node3</title>
<g id="a_node3"><a xlink:href="../../dc/da1/classfront_end_1_1_animator_loop.html#a467af791b6cbba9bb796678842386ca2" target="_top" xlink:title="frontEnd.AnimatorLoop.check\lBadXMLFileData">
<polygon fill="white" stroke="black" points="400,-33 400,-63 558,-63 558,-33 400,-33"/>
<text text-anchor="start" x="408" y="-51" font-family="Helvetica,sans-Serif" font-size="10.00">frontEnd.AnimatorLoop.check</text>
<text text-anchor="middle" x="479" y="-40" font-family="Helvetica,sans-Serif" font-size="10.00">BadXMLFileData</text>
</a>
</g>
</g>
<!-- Node2&#45;&gt;Node3 -->
<g id="edge2" class="edge"><title>Node2&#45;&gt;Node3</title>
<path fill="none" stroke="midnightblue" d="M374.195,-48C382.839,-48 391.5,-48 399.93,-48"/>
<polygon fill="midnightblue" stroke="midnightblue" points="374.071,-44.5001 364.071,-48 374.071,-51.5001 374.071,-44.5001"/>
</g>
<!-- Node4 -->
<g id="node4" class="node"><title>Node4</title>
<g id="a_node4"><a xlink:href="../../dc/da1/classfront_end_1_1_animator_loop.html#a1f378b18807af5386266685e907aa8c7" target="_top" xlink:title="frontEnd.AnimatorLoop.read\lXMLAndInitializeGrid">
<polygon fill="white" stroke="black" points="594,-33 594,-63 746,-63 746,-33 594,-33"/>
<text text-anchor="start" x="602" y="-51" font-family="Helvetica,sans-Serif" font-size="10.00">frontEnd.AnimatorLoop.read</text>
<text text-anchor="middle" x="670" y="-40" font-family="Helvetica,sans-Serif" font-size="10.00">XMLAndInitializeGrid</text>
</a>
</g>
</g>
<!-- Node3&#45;&gt;Node4 -->
<g id="edge3" class="edge"><title>Node3&#45;&gt;Node4</title>
<path fill="none" stroke="midnightblue" d="M568.243,-48C576.807,-48 585.44,-48 593.859,-48"/>
<polygon fill="midnightblue" stroke="midnightblue" points="568.238,-44.5001 558.238,-48 568.238,-51.5001 568.238,-44.5001"/>
</g>
<!-- Node5 -->
<g id="node5" class="node"><title>Node5</title>
<g id="a_node5"><a xlink:href="../../dd/dbe/classfront_end_1_1_main.html#a7bae3127415fb2ae80975ebc95057e3f" target="_top" xlink:title="frontEnd.Main.readXML">
<polygon fill="white" stroke="black" points="782.5,-38.5 782.5,-57.5 909.5,-57.5 909.5,-38.5 782.5,-38.5"/>
<text text-anchor="middle" x="846" y="-45.5" font-family="Helvetica,sans-Serif" font-size="10.00">frontEnd.Main.readXML</text>
</a>
</g>
</g>
<!-- Node4&#45;&gt;Node5 -->
<g id="edge4" class="edge"><title>Node4&#45;&gt;Node5</title>
<path fill="none" stroke="midnightblue" d="M756.065,-48C764.959,-48 773.88,-48 782.457,-48"/>
<polygon fill="midnightblue" stroke="midnightblue" points="756.054,-44.5001 746.054,-48 756.054,-51.5001 756.054,-44.5001"/>
</g>
<!-- Node6 -->
<g id="node6" class="node"><title>Node6</title>
<g id="a_node6"><a xlink:href="../../dd/dbe/classfront_end_1_1_main.html#a55d59b110825a1cc153a0091a6e5cb99" target="_top" xlink:title="frontEnd.Main.makeMenu">
<polygon fill="white" stroke="black" points="946.5,-76.5 946.5,-95.5 1085.5,-95.5 1085.5,-76.5 946.5,-76.5"/>
<text text-anchor="middle" x="1016" y="-83.5" font-family="Helvetica,sans-Serif" font-size="10.00">frontEnd.Main.makeMenu</text>
</a>
</g>
</g>
<!-- Node5&#45;&gt;Node6 -->
<g id="edge5" class="edge"><title>Node5&#45;&gt;Node6</title>
<path fill="none" stroke="midnightblue" d="M899.276,-59.8243C922.961,-65.1816 950.59,-71.4311 972.911,-76.4799"/>
<polygon fill="midnightblue" stroke="midnightblue" points="899.919,-56.3815 889.393,-57.589 898.375,-63.209 899.919,-56.3815"/>
</g>
<!-- Node8 -->
<g id="node8" class="node"><title>Node8</title>
<g id="a_node8"><a xlink:href="../../dd/dbe/classfront_end_1_1_main.html#a8e2e836903a64069e4283fa66309c704" target="_top" xlink:title="frontEnd.Main.resetSim">
<polygon fill="white" stroke="black" points="951.5,-0.5 951.5,-19.5 1080.5,-19.5 1080.5,-0.5 951.5,-0.5"/>
<text text-anchor="middle" x="1016" y="-7.5" font-family="Helvetica,sans-Serif" font-size="10.00">frontEnd.Main.resetSim</text>
</a>
</g>
</g>
<!-- Node5&#45;&gt;Node8 -->
<g id="edge7" class="edge"><title>Node5&#45;&gt;Node8</title>
<path fill="none" stroke="midnightblue" d="M899.276,-36.1757C922.961,-30.8184 950.59,-24.5689 972.911,-19.5201"/>
<polygon fill="midnightblue" stroke="midnightblue" points="898.375,-32.791 889.393,-38.411 899.919,-39.6185 898.375,-32.791"/>
</g>
<!-- Node7 -->
<g id="node7" class="node"><title>Node7</title>
<g id="a_node7"><a xlink:href="../../dd/dbe/classfront_end_1_1_main.html#ae53f892716dcc60f3f49714496e30c91" target="_top" xlink:title="frontEnd.Main.start">
<polygon fill="white" stroke="black" points="1342,-38.5 1342,-57.5 1450,-57.5 1450,-38.5 1342,-38.5"/>
<text text-anchor="middle" x="1396" y="-45.5" font-family="Helvetica,sans-Serif" font-size="10.00">frontEnd.Main.start</text>
</a>
</g>
</g>
<!-- Node6&#45;&gt;Node7 -->
<g id="edge6" class="edge"><title>Node6&#45;&gt;Node7</title>
<path fill="none" stroke="midnightblue" d="M1095.84,-83.8939C1154.12,-81.5912 1235.29,-76.8194 1306,-67 1322.59,-64.6964 1340.7,-61.0429 1356.23,-57.5524"/>
<polygon fill="midnightblue" stroke="midnightblue" points="1095.46,-80.4058 1085.6,-84.2825 1095.73,-87.4007 1095.46,-80.4058"/>
</g>
<!-- Node9 -->
<g id="node9" class="node"><title>Node9</title>
<g id="a_node9"><a xlink:href="../../dd/dbe/classfront_end_1_1_main.html#a0ff8a007311f8ecce84d4203dc85d669" target="_top" xlink:title="frontEnd.Main.makeParamControls">
<polygon fill="white" stroke="black" points="1122.5,-38.5 1122.5,-57.5 1305.5,-57.5 1305.5,-38.5 1122.5,-38.5"/>
<text text-anchor="middle" x="1214" y="-45.5" font-family="Helvetica,sans-Serif" font-size="10.00">frontEnd.Main.makeParamControls</text>
</a>
</g>
</g>
<!-- Node8&#45;&gt;Node9 -->
<g id="edge8" class="edge"><title>Node8&#45;&gt;Node9</title>
<path fill="none" stroke="midnightblue" d="M1076.26,-21.4894C1104.23,-26.9114 1137.21,-33.3058 1163.77,-38.4561"/>
<polygon fill="midnightblue" stroke="midnightblue" points="1076.69,-18.0073 1066.21,-19.54 1075.36,-24.8794 1076.69,-18.0073"/>
</g>
<!-- Node10 -->
<g id="node10" class="node"><title>Node10</title>
<g id="a_node10"><a xlink:href="../../dd/dbe/classfront_end_1_1_main.html#a1f4c19654fe78e5ebca54fc26bf43c94" target="_top" xlink:title="frontEnd.Main.useControls">
<polygon fill="white" stroke="black" points="1142.5,-0.5 1142.5,-19.5 1285.5,-19.5 1285.5,-0.5 1142.5,-0.5"/>
<text text-anchor="middle" x="1214" y="-7.5" font-family="Helvetica,sans-Serif" font-size="10.00">frontEnd.Main.useControls</text>
</a>
</g>
</g>
<!-- Node8&#45;&gt;Node10 -->
<g id="edge10" class="edge"><title>Node8&#45;&gt;Node10</title>
<path fill="none" stroke="midnightblue" d="M1090.95,-10C1107.75,-10 1125.56,-10 1142.22,-10"/>
<polygon fill="midnightblue" stroke="midnightblue" points="1090.64,-6.5001 1080.64,-10 1090.64,-13.5001 1090.64,-6.5001"/>
</g>
<!-- Node9&#45;&gt;Node5 -->
<g id="edge9" class="edge"><title>Node9&#45;&gt;Node5</title>
<path fill="none" stroke="midnightblue" d="M1112.03,-48C1047.19,-48 965.025,-48 909.502,-48"/>
<polygon fill="midnightblue" stroke="midnightblue" points="1112.28,-51.5001 1122.28,-48 1112.28,-44.5001 1112.28,-51.5001"/>
</g>
<!-- Node10&#45;&gt;Node7 -->
<g id="edge11" class="edge"><title>Node10&#45;&gt;Node7</title>
<path fill="none" stroke="midnightblue" d="M1270.87,-21.6234C1282.48,-24.0513 1294.64,-26.6018 1306,-29 1320.53,-32.0681 1336.39,-35.4447 1350.64,-38.4897"/>
<polygon fill="midnightblue" stroke="midnightblue" points="1271.34,-18.1466 1260.84,-19.5282 1269.91,-24.9987 1271.34,-18.1466"/>
</g>
</g>
</svg>
