<?xml version="1.0" encoding="UTF-8" standalone="no"?>
<!DOCTYPE svg PUBLIC "-//W3C//DTD SVG 1.1//EN"
 "http://www.w3.org/Graphics/SVG/1.1/DTD/svg11.dtd">
<!-- Generated by graphviz version 2.36.0 (20140111.2315)
 -->
<!-- Title: frontEnd.Main.useControls Pages: 1 -->
<!--zoomable 441 -->
<svg id="main" version="1.1" xmlns="http://www.w3.org/2000/svg" xmlns:xlink="http://www.w3.org/1999/xlink" xml:space="preserve" onload="init(evt)">
<style type="text/css"><![CDATA[
.edge:hover path { stroke: red; }
.edge:hover polygon { stroke: red; fill: red; }
]]></style>
<script type="text/javascript"><![CDATA[
var edges = document.getElementsByTagName('g');
if (edges && edges.length) {
  for (var i=0;i<edges.length;i++) {
    if (edges[i].id.substr(0,4)=='edge') {
      edges[i].setAttribute('class','edge');
    }
  }
}
]]></script>
        <defs>
                <circle id="rim" cx="0" cy="0" r="7"/>
                <circle id="rim2" cx="0" cy="0" r="3.5"/>
                <g id="zoomPlus">
                        <use xlink:href="#rim" fill="#404040">
                                <set attributeName="fill" to="#808080" begin="zoomplus.mouseover" end="zoomplus.mouseout"/>
                        </use>
                        <path d="M-4,0h8M0,-4v8" fill="none" stroke="white" stroke-width="1.5" pointer-events="none"/>
                </g>
                <g id="zoomMin">
                        <use xlink:href="#rim" fill="#404040">
                                <set attributeName="fill" to="#808080" begin="zoomminus.mouseover" end="zoomminus.mouseout"/>
                        </use>
                        <path d="M-4,0h8" fill="none" stroke="white" stroke-width="1.5" pointer-events="none"/>
                </g>
                <g id="dirArrow">
                        <path fill="none" stroke="white" stroke-width="1.5" d="M0,-3.0v7 M-2.5,-0.5L0,-3.0L2.5,-0.5"/>
                </g>
               <g id="resetDef">
                       <use xlink:href="#rim2" fill="#404040">
                               <set attributeName="fill" to="#808080" begin="reset.mouseover" end="reset.mouseout"/>
                       </use>
               </g>
        </defs>

<script type="text/javascript">
var viewWidth = 1598;
var viewHeight = 441;
var sectionId = 'dynsection-16';
</script>
<script xlink:href="../../svgpan.js"/>
<svg id="graph" class="graph">
<g id="viewport">
<title>frontEnd.Main.useControls</title>
<polygon fill="white" stroke="none" points="-4,4 -4,-437 1594,-437 1594,4 -4,4"/>
<!-- Node1 -->
<g id="node1" class="node"><title>Node1</title>
<polygon fill="#bfbfbf" stroke="black" points="0.5,-255.5 0.5,-274.5 143.5,-274.5 143.5,-255.5 0.5,-255.5"/>
<text text-anchor="middle" x="72" y="-262.5" font-family="Helvetica,sans-Serif" font-size="10.00">frontEnd.Main.useControls</text>
</g>
<!-- Node2 -->
<g id="node2" class="node"><title>Node2</title>
<g id="a_node2"><a xlink:href="../../dd/dbe/classfront_end_1_1_main.html#a1f2180a25c895237d43abff5e7644480" target="_top" xlink:title="frontEnd.Main.playPauseSim">
<polygon fill="white" stroke="black" points="180,-274.5 180,-293.5 332,-293.5 332,-274.5 180,-274.5"/>
<text text-anchor="middle" x="256" y="-281.5" font-family="Helvetica,sans-Serif" font-size="10.00">frontEnd.Main.playPauseSim</text>
</a>
</g>
</g>
<!-- Node1&#45;&gt;Node2 -->
<g id="edge1" class="edge"><title>Node1&#45;&gt;Node2</title>
<path fill="none" stroke="midnightblue" d="M143.626,-272.373C152.173,-273.265 160.972,-274.184 169.7,-275.095"/>
<polygon fill="midnightblue" stroke="midnightblue" points="169.586,-278.602 179.896,-276.159 170.313,-271.64 169.586,-278.602"/>
</g>
<!-- Node3 -->
<g id="node3" class="node"><title>Node3</title>
<g id="a_node3"><a xlink:href="../../dd/dbe/classfront_end_1_1_main.html#a8e2e836903a64069e4283fa66309c704" target="_top" xlink:title="frontEnd.Main.resetSim">
<polygon fill="white" stroke="black" points="191.5,-236.5 191.5,-255.5 320.5,-255.5 320.5,-236.5 191.5,-236.5"/>
<text text-anchor="middle" x="256" y="-243.5" font-family="Helvetica,sans-Serif" font-size="10.00">frontEnd.Main.resetSim</text>
</a>
</g>
</g>
<!-- Node1&#45;&gt;Node3 -->
<g id="edge2" class="edge"><title>Node1&#45;&gt;Node3</title>
<path fill="none" stroke="midnightblue" d="M143.626,-257.627C155.882,-256.347 168.658,-255.014 181.001,-253.725"/>
<polygon fill="midnightblue" stroke="midnightblue" points="181.663,-257.175 191.246,-252.656 180.936,-250.213 181.663,-257.175"/>
</g>
<!-- Node4 -->
<g id="node4" class="node"><title>Node4</title>
<g id="a_node4"><a xlink:href="../../dd/dbe/classfront_end_1_1_main.html#a7bae3127415fb2ae80975ebc95057e3f" target="_top" xlink:title="frontEnd.Main.readXML">
<polygon fill="white" stroke="black" points="368.5,-217.5 368.5,-236.5 495.5,-236.5 495.5,-217.5 368.5,-217.5"/>
<text text-anchor="middle" x="432" y="-224.5" font-family="Helvetica,sans-Serif" font-size="10.00">frontEnd.Main.readXML</text>
</a>
</g>
</g>
<!-- Node3&#45;&gt;Node4 -->
<g id="edge3" class="edge"><title>Node3&#45;&gt;Node4</title>
<path fill="none" stroke="midnightblue" d="M320.803,-239.033C332.927,-237.709 345.699,-236.314 358.081,-234.962"/>
<polygon fill="midnightblue" stroke="midnightblue" points="358.805,-238.404 368.366,-233.839 358.046,-231.446 358.805,-238.404"/>
</g>
<!-- Node5 -->
<g id="node5" class="node"><title>Node5</title>
<g id="a_node5"><a xlink:href="../../dd/dbe/classfront_end_1_1_main.html#a0ff8a007311f8ecce84d4203dc85d669" target="_top" xlink:title="frontEnd.Main.makeParamControls">
<polygon fill="white" stroke="black" points="532.5,-255.5 532.5,-274.5 715.5,-274.5 715.5,-255.5 532.5,-255.5"/>
<text text-anchor="middle" x="624" y="-262.5" font-family="Helvetica,sans-Serif" font-size="10.00">frontEnd.Main.makeParamControls</text>
</a>
</g>
</g>
<!-- Node4&#45;&gt;Node5 -->
<g id="edge4" class="edge"><title>Node4&#45;&gt;Node5</title>
<path fill="none" stroke="midnightblue" d="M480.945,-236.589C506.582,-241.716 538.336,-248.067 565.316,-253.463"/>
<polygon fill="midnightblue" stroke="midnightblue" points="564.908,-256.951 575.4,-255.48 566.28,-250.087 564.908,-256.951"/>
</g>
<!-- Node6 -->
<g id="node6" class="node"><title>Node6</title>
<g id="a_node6"><a xlink:href="../../dc/da1/classfront_end_1_1_animator_loop.html#a1f378b18807af5386266685e907aa8c7" target="_top" xlink:title="frontEnd.AnimatorLoop.read\lXMLAndInitializeGrid">
<polygon fill="white" stroke="black" points="548,-206 548,-236 700,-236 700,-206 548,-206"/>
<text text-anchor="start" x="556" y="-224" font-family="Helvetica,sans-Serif" font-size="10.00">frontEnd.AnimatorLoop.read</text>
<text text-anchor="middle" x="624" y="-213" font-family="Helvetica,sans-Serif" font-size="10.00">XMLAndInitializeGrid</text>
</a>
</g>
</g>
<!-- Node4&#45;&gt;Node6 -->
<g id="edge6" class="edge"><title>Node4&#45;&gt;Node6</title>
<path fill="none" stroke="midnightblue" d="M495.74,-225.019C509.135,-224.596 523.5,-224.142 537.583,-223.697"/>
<polygon fill="midnightblue" stroke="midnightblue" points="537.884,-227.19 547.768,-223.376 537.663,-220.193 537.884,-227.19"/>
</g>
<!-- Node5&#45;&gt;Node3 -->
<g id="edge5" class="edge"><title>Node5&#45;&gt;Node3</title>
<path fill="none" stroke="midnightblue" d="M532.212,-260.287C470.191,-257.067 389.039,-252.854 330.956,-249.839"/>
<polygon fill="midnightblue" stroke="midnightblue" points="330.92,-246.333 320.752,-249.31 330.557,-253.323 330.92,-246.333"/>
</g>
<!-- Node7 -->
<g id="node7" class="node"><title>Node7</title>
<g id="a_node7"><a xlink:href="../../d1/dfc/classback_end_1_1_rule_set.html#a9feb2a620b625065a9436f2e2246b094" target="_top" xlink:title="backEnd.RuleSet.addGrid">
<polygon fill="white" stroke="black" points="777.5,-413.5 777.5,-432.5 914.5,-432.5 914.5,-413.5 777.5,-413.5"/>
<text text-anchor="middle" x="846" y="-420.5" font-family="Helvetica,sans-Serif" font-size="10.00">backEnd.RuleSet.addGrid</text>
</a>
</g>
</g>
<!-- Node6&#45;&gt;Node7 -->
<g id="edge7" class="edge"><title>Node6&#45;&gt;Node7</title>
<path fill="none" stroke="midnightblue" d="M700.317,-234.281C706.104,-237.426 711.452,-241.281 716,-246 764.474,-296.302 703.137,-349.076 752,-399 756.593,-403.692 761.972,-407.509 767.789,-410.608"/>
<polygon fill="midnightblue" stroke="midnightblue" points="766.687,-413.952 777.238,-414.911 769.587,-407.581 766.687,-413.952"/>
</g>
<!-- Node8 -->
<g id="node8" class="node"><title>Node8</title>
<g id="a_node8"><a xlink:href="../../dc/da1/classfront_end_1_1_animator_loop.html#a467af791b6cbba9bb796678842386ca2" target="_top" xlink:title="frontEnd.AnimatorLoop.check\lBadXMLFileData">
<polygon fill="white" stroke="black" points="767,-326 767,-356 925,-356 925,-326 767,-326"/>
<text text-anchor="start" x="775" y="-344" font-family="Helvetica,sans-Serif" font-size="10.00">frontEnd.AnimatorLoop.check</text>
<text text-anchor="middle" x="846" y="-333" font-family="Helvetica,sans-Serif" font-size="10.00">BadXMLFileData</text>
</a>
</g>
</g>
<!-- Node6&#45;&gt;Node8 -->
<g id="edge8" class="edge"><title>Node6&#45;&gt;Node8</title>
<path fill="none" stroke="midnightblue" d="M700.065,-235.974C705.763,-238.766 711.167,-242.076 716,-246 743.16,-268.051 724.78,-294.024 752,-316 754.106,-317.7 756.317,-319.285 758.612,-320.763"/>
<polygon fill="midnightblue" stroke="midnightblue" points="757.402,-324.097 767.834,-325.947 760.832,-317.996 757.402,-324.097"/>
</g>
<!-- Node9 -->
<g id="node9" class="node"><title>Node9</title>
<g id="a_node9"><a xlink:href="../../d5/d51/classfront_end_1_1_c_a_settings.html#a5c62b367ceda95101ac5ff5c3048cf1c" target="_top" xlink:title="frontEnd.CASettings.getType">
<polygon fill="white" stroke="black" points="990.5,-372.5 990.5,-391.5 1143.5,-391.5 1143.5,-372.5 990.5,-372.5"/>
<text text-anchor="middle" x="1067" y="-379.5" font-family="Helvetica,sans-Serif" font-size="10.00">frontEnd.CASettings.getType</text>
</a>
</g>
</g>
<!-- Node6&#45;&gt;Node9 -->
<g id="edge16" class="edge"><title>Node6&#45;&gt;Node9</title>
<path fill="none" stroke="midnightblue" d="M700.006,-234.59C705.859,-237.671 711.307,-241.426 716,-246 755.57,-284.568 708.537,-330.879 752,-365 786.231,-391.873 899.611,-391.868 980.279,-388.04"/>
<polygon fill="midnightblue" stroke="midnightblue" points="980.629,-391.527 990.441,-387.529 980.278,-384.536 980.629,-391.527"/>
</g>
<!-- Node12 -->
<g id="node12" class="node"><title>Node12</title>
<g id="a_node12"><a xlink:href="../../d5/d51/classfront_end_1_1_c_a_settings.html#ad1a35159c9a3b860bd4af0d12e40b169" target="_top" xlink:title="frontEnd.CASettings.getColumns">
<polygon fill="white" stroke="black" points="759,-287.5 759,-306.5 933,-306.5 933,-287.5 759,-287.5"/>
<text text-anchor="middle" x="846" y="-294.5" font-family="Helvetica,sans-Serif" font-size="10.00">frontEnd.CASettings.getColumns</text>
</a>
</g>
</g>
<!-- Node6&#45;&gt;Node12 -->
<g id="edge12" class="edge"><title>Node6&#45;&gt;Node12</title>
<path fill="none" stroke="midnightblue" d="M691.206,-236.019C699.734,-238.866 708.203,-242.178 716,-246 733.958,-254.804 733.974,-264.336 752,-273 761.781,-277.701 772.599,-281.563 783.294,-284.708"/>
<polygon fill="midnightblue" stroke="midnightblue" points="782.479,-288.114 793.049,-287.399 784.34,-281.366 782.479,-288.114"/>
</g>
<!-- Node13 -->
<g id="node13" class="node"><title>Node13</title>
<g id="a_node13"><a xlink:href="../../d5/d51/classfront_end_1_1_c_a_settings.html#a9b6c355e48adf9a7db04c30c74aac53f" target="_top" xlink:title="frontEnd.CASettings.getGrid">
<polygon fill="white" stroke="black" points="991,-217.5 991,-236.5 1143,-236.5 1143,-217.5 991,-217.5"/>
<text text-anchor="middle" x="1067" y="-224.5" font-family="Helvetica,sans-Serif" font-size="10.00">frontEnd.CASettings.getGrid</text>
</a>
</g>
</g>
<!-- Node6&#45;&gt;Node13 -->
<g id="edge13" class="edge"><title>Node6&#45;&gt;Node13</title>
<path fill="none" stroke="midnightblue" d="M700.006,-234.106C717.046,-236.558 735.103,-238.743 752,-240 835.325,-246.199 856.555,-244.293 940,-240 953.126,-239.325 966.99,-238.256 980.533,-237.015"/>
<polygon fill="midnightblue" stroke="midnightblue" points="981.187,-240.468 990.809,-236.035 980.522,-233.5 981.187,-240.468"/>
</g>
<!-- Node14 -->
<g id="node14" class="node"><title>Node14</title>
<g id="a_node14"><a xlink:href="../../d5/d51/classfront_end_1_1_c_a_settings.html#a560c336f7aed8050af9a606949926548" target="_top" xlink:title="frontEnd.CASettings.getParameters">
<polygon fill="white" stroke="black" points="752,-211.5 752,-230.5 940,-230.5 940,-211.5 752,-211.5"/>
<text text-anchor="middle" x="846" y="-218.5" font-family="Helvetica,sans-Serif" font-size="10.00">frontEnd.CASettings.getParameters</text>
</a>
</g>
</g>
<!-- Node6&#45;&gt;Node14 -->
<g id="edge14" class="edge"><title>Node6&#45;&gt;Node14</title>
<path fill="none" stroke="midnightblue" d="M700.096,-221C713.518,-221 727.714,-221 741.762,-221"/>
<polygon fill="midnightblue" stroke="midnightblue" points="741.952,-224.5 751.952,-221 741.952,-217.5 741.952,-224.5"/>
</g>
<!-- Node15 -->
<g id="node15" class="node"><title>Node15</title>
<g id="a_node15"><a xlink:href="../../d5/d51/classfront_end_1_1_c_a_settings.html#aef613fb5595d20d85dad92cf5f5efad9" target="_top" xlink:title="frontEnd.CASettings.getRows">
<polygon fill="white" stroke="black" points="768.5,-173.5 768.5,-192.5 923.5,-192.5 923.5,-173.5 768.5,-173.5"/>
<text text-anchor="middle" x="846" y="-180.5" font-family="Helvetica,sans-Serif" font-size="10.00">frontEnd.CASettings.getRows</text>
</a>
</g>
</g>
<!-- Node6&#45;&gt;Node15 -->
<g id="edge15" class="edge"><title>Node6&#45;&gt;Node15</title>
<path fill="none" stroke="midnightblue" d="M700.096,-208.029C725.915,-203.569 754.597,-198.615 779.584,-194.299"/>
<polygon fill="midnightblue" stroke="midnightblue" points="780.426,-197.706 789.684,-192.555 779.235,-190.808 780.426,-197.706"/>
</g>
<!-- Node16 -->
<g id="node16" class="node"><title>Node16</title>
<g id="a_node16"><a xlink:href="../../dc/da1/classfront_end_1_1_animator_loop.html#af1d1ddcc3fe02f0d1c6ba1f234d455cc" target="_top" xlink:title="frontEnd.AnimatorLoop.initGrid">
<polygon fill="white" stroke="black" points="764,-135.5 764,-154.5 928,-154.5 928,-135.5 764,-135.5"/>
<text text-anchor="middle" x="846" y="-142.5" font-family="Helvetica,sans-Serif" font-size="10.00">frontEnd.AnimatorLoop.initGrid</text>
</a>
</g>
</g>
<!-- Node6&#45;&gt;Node16 -->
<g id="edge17" class="edge"><title>Node6&#45;&gt;Node16</title>
<path fill="none" stroke="midnightblue" d="M653.538,-206C678.819,-193.248 717.035,-175.266 752,-164 760.319,-161.319 769.183,-158.934 778.009,-156.837"/>
<polygon fill="midnightblue" stroke="midnightblue" points="778.947,-160.213 787.927,-154.591 777.401,-153.386 778.947,-160.213"/>
</g>
<!-- Node19 -->
<g id="node19" class="node"><title>Node19</title>
<g id="a_node19"><a xlink:href="../../dc/da1/classfront_end_1_1_animator_loop.html#a92b2bebb55107557a33d1621ddae5872" target="_top" xlink:title="frontEnd.AnimatorLoop.init\lGridPane">
<polygon fill="white" stroke="black" points="773.5,-86 773.5,-116 918.5,-116 918.5,-86 773.5,-86"/>
<text text-anchor="start" x="781.5" y="-104" font-family="Helvetica,sans-Serif" font-size="10.00">frontEnd.AnimatorLoop.init</text>
<text text-anchor="middle" x="846" y="-93" font-family="Helvetica,sans-Serif" font-size="10.00">GridPane</text>
</a>
</g>
</g>
<!-- Node6&#45;&gt;Node19 -->
<g id="edge21" class="edge"><title>Node6&#45;&gt;Node19</title>
<path fill="none" stroke="midnightblue" d="M640.909,-205.883C663.739,-184.985 707.919,-147.425 752,-126 756.887,-123.625 762.032,-121.45 767.291,-119.462"/>
<polygon fill="midnightblue" stroke="midnightblue" points="768.586,-122.717 776.848,-116.084 766.254,-116.117 768.586,-122.717"/>
</g>
<!-- Node25 -->
<g id="node25" class="node"><title>Node25</title>
<g id="a_node25"><a xlink:href="../../d0/d87/classfront_end_1_1_x_m_l_handler.html#a5ec2b2b772a94660c130efe55a8d356e" target="_top" xlink:title="frontEnd.XMLHandler.read">
<polygon fill="white" stroke="black" points="775.5,-45.5 775.5,-64.5 916.5,-64.5 916.5,-45.5 775.5,-45.5"/>
<text text-anchor="middle" x="846" y="-52.5" font-family="Helvetica,sans-Serif" font-size="10.00">frontEnd.XMLHandler.read</text>
</a>
</g>
</g>
<!-- Node6&#45;&gt;Node25 -->
<g id="edge27" class="edge"><title>Node6&#45;&gt;Node25</title>
<path fill="none" stroke="midnightblue" d="M633.644,-205.909C651.588,-176.034 695.922,-109.37 752,-76 757.321,-72.8338 763.072,-70.1445 769.015,-67.8604"/>
<polygon fill="midnightblue" stroke="midnightblue" points="770.166,-71.1658 778.476,-64.5942 767.882,-64.5489 770.166,-71.1658"/>
</g>
<!-- Node28 -->
<g id="node28" class="node"><title>Node28</title>
<g id="a_node28"><a xlink:href="../../d1/dfc/classback_end_1_1_rule_set.html#ae12bb5fde75014f04b76b4a9f77d5b19" target="_top" xlink:title="backEnd.RuleSet.setParams">
<polygon fill="white" stroke="black" points="771,-7.5 771,-26.5 921,-26.5 921,-7.5 771,-7.5"/>
<text text-anchor="middle" x="846" y="-14.5" font-family="Helvetica,sans-Serif" font-size="10.00">backEnd.RuleSet.setParams</text>
</a>
</g>
</g>
<!-- Node6&#45;&gt;Node28 -->
<g id="edge30" class="edge"><title>Node6&#45;&gt;Node28</title>
<path fill="none" stroke="midnightblue" d="M630.706,-205.849C645.052,-169.973 686.245,-79.5866 752,-36 754.975,-34.0282 758.112,-32.2541 761.362,-30.6583"/>
<polygon fill="midnightblue" stroke="midnightblue" points="762.972,-33.776 770.782,-26.6169 760.212,-27.343 762.972,-33.776"/>
</g>
<!-- Node8&#45;&gt;Node9 -->
<g id="edge9" class="edge"><title>Node8&#45;&gt;Node9</title>
<path fill="none" stroke="midnightblue" d="M925.137,-355.628C951.48,-360.56 980.468,-365.987 1005.26,-370.629"/>
<polygon fill="midnightblue" stroke="midnightblue" points="1004.78,-374.1 1015.26,-372.5 1006.07,-367.22 1004.78,-374.1"/>
</g>
<!-- Node10 -->
<g id="node10" class="node"><title>Node10</title>
<g id="a_node10"><a xlink:href="../../dd/dbe/classfront_end_1_1_main.html#a1c9672872cb8b8f6efe2d1ddce9a6b61" target="_top" xlink:title="frontEnd.Main.showPopupMessage">
<polygon fill="white" stroke="black" points="976,-331.5 976,-350.5 1158,-350.5 1158,-331.5 976,-331.5"/>
<text text-anchor="middle" x="1067" y="-338.5" font-family="Helvetica,sans-Serif" font-size="10.00">frontEnd.Main.showPopupMessage</text>
</a>
</g>
</g>
<!-- Node8&#45;&gt;Node10 -->
<g id="edge10" class="edge"><title>Node8&#45;&gt;Node10</title>
<path fill="none" stroke="midnightblue" d="M925.137,-341C938.253,-341 952.026,-341 965.61,-341"/>
<polygon fill="midnightblue" stroke="midnightblue" points="965.948,-344.5 975.948,-341 965.948,-337.5 965.948,-344.5"/>
</g>
<!-- Node11 -->
<g id="node11" class="node"><title>Node11</title>
<g id="a_node11"><a xlink:href="../../dd/dbe/classfront_end_1_1_main.html#aef35ad9be3f43a5367d7a8ab30d0bec1" target="_top" xlink:title="frontEnd.Main.createPopup">
<polygon fill="white" stroke="black" points="1214,-331.5 1214,-350.5 1360,-350.5 1360,-331.5 1214,-331.5"/>
<text text-anchor="middle" x="1287" y="-338.5" font-family="Helvetica,sans-Serif" font-size="10.00">frontEnd.Main.createPopup</text>
</a>
</g>
</g>
<!-- Node10&#45;&gt;Node11 -->
<g id="edge11" class="edge"><title>Node10&#45;&gt;Node11</title>
<path fill="none" stroke="midnightblue" d="M1158.24,-341C1173.28,-341 1188.81,-341 1203.64,-341"/>
<polygon fill="midnightblue" stroke="midnightblue" points="1203.77,-344.5 1213.77,-341 1203.77,-337.5 1203.77,-344.5"/>
</g>
<!-- Node16&#45;&gt;Node13 -->
<g id="edge18" class="edge"><title>Node16&#45;&gt;Node13</title>
<path fill="none" stroke="midnightblue" d="M905.675,-154.551C917.203,-157.107 929.097,-160.234 940,-164 976.897,-176.745 1016.76,-198.087 1041.55,-212.352"/>
<polygon fill="midnightblue" stroke="midnightblue" points="1039.88,-215.426 1050.28,-217.44 1043.4,-209.379 1039.88,-215.426"/>
</g>
<!-- Node17 -->
<g id="node17" class="node"><title>Node17</title>
<g id="a_node17"><a xlink:href="../../d1/dfc/classback_end_1_1_rule_set.html#a603d39da71653ea4bbdadf3d78978981" target="_top" xlink:title="backEnd.RuleSet.initialize\lPatch">
<polygon fill="white" stroke="black" points="998.5,-137 998.5,-167 1135.5,-167 1135.5,-137 998.5,-137"/>
<text text-anchor="start" x="1006.5" y="-155" font-family="Helvetica,sans-Serif" font-size="10.00">backEnd.RuleSet.initialize</text>
<text text-anchor="middle" x="1067" y="-144" font-family="Helvetica,sans-Serif" font-size="10.00">Patch</text>
</a>
</g>
</g>
<!-- Node16&#45;&gt;Node17 -->
<g id="edge19" class="edge"><title>Node16&#45;&gt;Node17</title>
<path fill="none" stroke="midnightblue" d="M928.236,-147.597C947.828,-148.223 968.715,-148.89 988.148,-149.512"/>
<polygon fill="midnightblue" stroke="midnightblue" points="988.056,-153.01 998.163,-149.832 988.28,-146.014 988.056,-153.01"/>
</g>
<!-- Node18 -->
<g id="node18" class="node"><title>Node18</title>
<g id="a_node18"><a xlink:href="../../db/d5e/classback_end_1_1_patch.html#ac9c7bf582f9e7aec34492785fea4cf68" target="_top" xlink:title="backEnd.Patch.fill">
<polygon fill="white" stroke="black" points="1237.5,-142.5 1237.5,-161.5 1336.5,-161.5 1336.5,-142.5 1237.5,-142.5"/>
<text text-anchor="middle" x="1287" y="-149.5" font-family="Helvetica,sans-Serif" font-size="10.00">backEnd.Patch.fill</text>
</a>
</g>
</g>
<!-- Node17&#45;&gt;Node18 -->
<g id="edge20" class="edge"><title>Node17&#45;&gt;Node18</title>
<path fill="none" stroke="midnightblue" d="M1135.78,-152C1165.06,-152 1198.99,-152 1227.18,-152"/>
<polygon fill="midnightblue" stroke="midnightblue" points="1227.29,-155.5 1237.29,-152 1227.29,-148.5 1227.29,-155.5"/>
</g>
<!-- Node20 -->
<g id="node20" class="node"><title>Node20</title>
<g id="a_node20"><a xlink:href="../../dc/da1/classfront_end_1_1_animator_loop.html#aa8be847f0f9efee238193322c5ab9f5b" target="_top" xlink:title="frontEnd.AnimatorLoop.add\lCellsToGrid">
<polygon fill="white" stroke="black" points="992.5,-88 992.5,-118 1141.5,-118 1141.5,-88 992.5,-88"/>
<text text-anchor="start" x="1000.5" y="-106" font-family="Helvetica,sans-Serif" font-size="10.00">frontEnd.AnimatorLoop.add</text>
<text text-anchor="middle" x="1067" y="-95" font-family="Helvetica,sans-Serif" font-size="10.00">CellsToGrid</text>
</a>
</g>
</g>
<!-- Node19&#45;&gt;Node20 -->
<g id="edge22" class="edge"><title>Node19&#45;&gt;Node20</title>
<path fill="none" stroke="midnightblue" d="M918.709,-101.655C938.97,-101.84 961.199,-102.043 982.108,-102.234"/>
<polygon fill="midnightblue" stroke="midnightblue" points="982.221,-105.735 992.252,-102.327 982.285,-98.7352 982.221,-105.735"/>
</g>
<!-- Node21 -->
<g id="node21" class="node"><title>Node21</title>
<g id="a_node21"><a xlink:href="../../d4/d6c/classshape_factories_1_1_shape_factory.html#a7a14b33c28eb5951679f13f21633bdf4" target="_top" xlink:title="shapeFactories.ShapeFactory.make\lShape">
<polygon fill="white" stroke="black" points="1194.5,-91 1194.5,-121 1379.5,-121 1379.5,-91 1194.5,-91"/>
<text text-anchor="start" x="1202.5" y="-109" font-family="Helvetica,sans-Serif" font-size="10.00">shapeFactories.ShapeFactory.make</text>
<text text-anchor="middle" x="1287" y="-98" font-family="Helvetica,sans-Serif" font-size="10.00">Shape</text>
</a>
</g>
</g>
<!-- Node20&#45;&gt;Node21 -->
<g id="edge23" class="edge"><title>Node20&#45;&gt;Node21</title>
<path fill="none" stroke="midnightblue" d="M1141.5,-104.011C1155.13,-104.199 1169.59,-104.398 1183.88,-104.595"/>
<polygon fill="midnightblue" stroke="midnightblue" points="1184.21,-108.099 1194.25,-104.737 1184.3,-101.1 1184.21,-108.099"/>
</g>
<!-- Node24 -->
<g id="node24" class="node"><title>Node24</title>
<g id="a_node24"><a xlink:href="../../d4/d6c/classshape_factories_1_1_shape_factory.html#a6dbdc6b9de19c9685fc9c2361d982b2f" target="_top" xlink:title="shapeFactories.ShapeFactory.move">
<polygon fill="white" stroke="black" points="1194.5,-52.5 1194.5,-71.5 1379.5,-71.5 1379.5,-52.5 1194.5,-52.5"/>
<text text-anchor="middle" x="1287" y="-59.5" font-family="Helvetica,sans-Serif" font-size="10.00">shapeFactories.ShapeFactory.move</text>
</a>
</g>
</g>
<!-- Node20&#45;&gt;Node24 -->
<g id="edge26" class="edge"><title>Node20&#45;&gt;Node24</title>
<path fill="none" stroke="midnightblue" d="M1141.5,-89.1764C1168.78,-84.0456 1199.39,-78.2885 1225.39,-73.3983"/>
<polygon fill="midnightblue" stroke="midnightblue" points="1226.31,-76.7883 1235.49,-71.5002 1225.01,-69.9089 1226.31,-76.7883"/>
</g>
<!-- Node22 -->
<g id="node22" class="node"><title>Node22</title>
<g id="a_node22"><a xlink:href="../../d4/d6c/classshape_factories_1_1_shape_factory.html#adcf2f7637e2a6ed76a74dceaf986f8a5" target="_top" xlink:title="shapeFactories.ShapeFactory.set\lDimensions">
<polygon fill="white" stroke="black" points="1416.5,-116 1416.5,-146 1589.5,-146 1589.5,-116 1416.5,-116"/>
<text text-anchor="start" x="1424.5" y="-134" font-family="Helvetica,sans-Serif" font-size="10.00">shapeFactories.ShapeFactory.set</text>
<text text-anchor="middle" x="1503" y="-123" font-family="Helvetica,sans-Serif" font-size="10.00">Dimensions</text>
</a>
</g>
</g>
<!-- Node21&#45;&gt;Node22 -->
<g id="edge24" class="edge"><title>Node21&#45;&gt;Node22</title>
<path fill="none" stroke="midnightblue" d="M1379.69,-116.711C1388.51,-117.741 1397.47,-118.788 1406.32,-119.823"/>
<polygon fill="midnightblue" stroke="midnightblue" points="1405.93,-123.3 1416.27,-120.984 1406.74,-116.347 1405.93,-123.3"/>
</g>
<!-- Node23 -->
<g id="node23" class="node"><title>Node23</title>
<g id="a_node23"><a xlink:href="../../d4/d6c/classshape_factories_1_1_shape_factory.html#a02796a37b5651bf8fe6dc075f5e6e444" target="_top" xlink:title="shapeFactories.ShapeFactory.set\lCoords">
<polygon fill="white" stroke="black" points="1416.5,-67 1416.5,-97 1589.5,-97 1589.5,-67 1416.5,-67"/>
<text text-anchor="start" x="1424.5" y="-85" font-family="Helvetica,sans-Serif" font-size="10.00">shapeFactories.ShapeFactory.set</text>
<text text-anchor="middle" x="1503" y="-74" font-family="Helvetica,sans-Serif" font-size="10.00">Coords</text>
</a>
</g>
</g>
<!-- Node21&#45;&gt;Node23 -->
<g id="edge25" class="edge"><title>Node21&#45;&gt;Node23</title>
<path fill="none" stroke="midnightblue" d="M1379.69,-95.7174C1388.51,-94.7283 1397.47,-93.7233 1406.32,-92.7301"/>
<polygon fill="midnightblue" stroke="midnightblue" points="1406.72,-96.2079 1416.27,-91.6151 1405.94,-89.2515 1406.72,-96.2079"/>
</g>
<!-- Node26 -->
<g id="node26" class="node"><title>Node26</title>
<g id="a_node26"><a xlink:href="../../d0/d87/classfront_end_1_1_x_m_l_handler.html#a4946a8ebfe5de06e04a84fee47d14a36" target="_top" xlink:title="frontEnd.XMLHandler.read\lParameters">
<polygon fill="white" stroke="black" points="996.5,-39 996.5,-69 1137.5,-69 1137.5,-39 996.5,-39"/>
<text text-anchor="start" x="1004.5" y="-57" font-family="Helvetica,sans-Serif" font-size="10.00">frontEnd.XMLHandler.read</text>
<text text-anchor="middle" x="1067" y="-46" font-family="Helvetica,sans-Serif" font-size="10.00">Parameters</text>
</a>
</g>
</g>
<!-- Node25&#45;&gt;Node26 -->
<g id="edge28" class="edge"><title>Node25&#45;&gt;Node26</title>
<path fill="none" stroke="midnightblue" d="M916.594,-54.6822C938.642,-54.5815 963.191,-54.4694 985.915,-54.3657"/>
<polygon fill="midnightblue" stroke="midnightblue" points="986.228,-57.8644 996.211,-54.3187 986.196,-50.8645 986.228,-57.8644"/>
</g>
<!-- Node27 -->
<g id="node27" class="node"><title>Node27</title>
<g id="a_node27"><a xlink:href="../../d0/d87/classfront_end_1_1_x_m_l_handler.html#ae0df3c17a5ff74491584286b4e830fba" target="_top" xlink:title="frontEnd.XMLHandler.readGrid">
<polygon fill="white" stroke="black" points="986.5,-0.5 986.5,-19.5 1147.5,-19.5 1147.5,-0.5 986.5,-0.5"/>
<text text-anchor="middle" x="1067" y="-7.5" font-family="Helvetica,sans-Serif" font-size="10.00">frontEnd.XMLHandler.readGrid</text>
</a>
</g>
</g>
<!-- Node25&#45;&gt;Node27 -->
<g id="edge29" class="edge"><title>Node25&#45;&gt;Node27</title>
<path fill="none" stroke="midnightblue" d="M893.838,-45.4496C908.609,-42.4328 924.987,-39.0825 940,-36 962.855,-31.3074 988.036,-26.1155 1009.84,-21.613"/>
<polygon fill="midnightblue" stroke="midnightblue" points="1010.84,-24.9809 1019.92,-19.5304 1009.42,-18.1256 1010.84,-24.9809"/>
</g>
</g>
</svg>
        <g id="navigator" transform="translate(0 0)" fill="#404254">
                <rect fill="#f2f5e9" fill-opacity="0.5" stroke="#606060" stroke-width=".5" x="0" y="0" width="60" height="60"/>
                <use id="zoomplus" xlink:href="#zoomPlus" x="17" y="9" onmousedown="handleZoom(evt,'in')"/>
                <use id="zoomminus" xlink:href="#zoomMin" x="42" y="9" onmousedown="handleZoom(evt,'out')"/>
                <use id="reset" xlink:href="#resetDef" x="30" y="36" onmousedown="handleReset()"/>
                <g id="arrowUp" xlink:href="#dirArrow" transform="translate(30 24)" onmousedown="handlePan(0,-1)">
                  <use xlink:href="#rim" fill="#404040">
                        <set attributeName="fill" to="#808080" begin="arrowUp.mouseover" end="arrowUp.mouseout"/>
                  </use>
                  <path fill="none" stroke="white" stroke-width="1.5" d="M0,-3.0v7 M-2.5,-0.5L0,-3.0L2.5,-0.5"/>
                </g>
                <g id="arrowRight" xlink:href="#dirArrow" transform="rotate(90) translate(36 -43)" onmousedown="handlePan(1,0)">
                  <use xlink:href="#rim" fill="#404040">
                        <set attributeName="fill" to="#808080" begin="arrowRight.mouseover" end="arrowRight.mouseout"/>
                  </use>
                  <path fill="none" stroke="white" stroke-width="1.5" d="M0,-3.0v7 M-2.5,-0.5L0,-3.0L2.5,-0.5"/>
                </g>
                <g id="arrowDown" xlink:href="#dirArrow" transform="rotate(180) translate(-30 -48)" onmousedown="handlePan(0,1)">
                  <use xlink:href="#rim" fill="#404040">
                        <set attributeName="fill" to="#808080" begin="arrowDown.mouseover" end="arrowDown.mouseout"/>
                  </use>
                  <path fill="none" stroke="white" stroke-width="1.5" d="M0,-3.0v7 M-2.5,-0.5L0,-3.0L2.5,-0.5"/>
                </g>
                <g id="arrowLeft" xlink:href="#dirArrow" transform="rotate(270) translate(-36 17)" onmousedown="handlePan(-1,0)">
                  <use xlink:href="#rim" fill="#404040">
                        <set attributeName="fill" to="#808080" begin="arrowLeft.mouseover" end="arrowLeft.mouseout"/>
                  </use>
                  <path fill="none" stroke="white" stroke-width="1.5" d="M0,-3.0v7 M-2.5,-0.5L0,-3.0L2.5,-0.5"/>
                </g>
        </g>
        <svg viewBox="0 0 15 15" width="100%" height="30px" preserveAspectRatio="xMaxYMin meet">
         <g id="arrow_out" transform="scale(0.3 0.3)">
          <a xlink:href="classfront_end_1_1_main_a1f4c19654fe78e5ebca54fc26bf43c94_cgraph_org.svg" target="_base">
           <rect id="button" ry="5" rx="5" y="6" x="6" height="38" width="38"
                fill="#f2f5e9" fill-opacity="0.5" stroke="#606060" stroke-width="1.0"/>
           <path id="arrow"
             d="M 11.500037,31.436501 C 11.940474,20.09759 22.043105,11.32322 32.158766,21.979434 L 37.068811,17.246167 C 37.068811,17.246167 37.088388,32 37.088388,32 L 22.160133,31.978069 C 22.160133,31.978069 26.997745,27.140456 26.997745,27.140456 C 18.528582,18.264221 13.291696,25.230495 11.500037,31.436501 z"
             style="fill:#404040;"/>
          </a>
         </g>
        </svg>
</svg>
