<?xml version="1.0" encoding="UTF-8" standalone="no"?>
<!DOCTYPE svg PUBLIC "-//W3C//DTD SVG 1.1//EN"
 "http://www.w3.org/Graphics/SVG/1.1/DTD/svg11.dtd">
<!-- Generated by graphviz version 2.36.0 (20140111.2315)
 -->
<!-- Title: frontEnd.Main.readXML Pages: 1 -->
<svg width="1230pt" height="479pt"
 viewBox="0.00 0.00 1230.00 479.00" xmlns="http://www.w3.org/2000/svg" xmlns:xlink="http://www.w3.org/1999/xlink">
<g id="graph0" class="graph" transform="scale(1 1) rotate(0) translate(4 475)">
<title>frontEnd.Main.readXML</title>
<polygon fill="white" stroke="none" points="-4,4 -4,-475 1226,-475 1226,4 -4,4"/>
<!-- Node1 -->
<g id="node1" class="node"><title>Node1</title>
<polygon fill="#bfbfbf" stroke="black" points="0.5,-413.5 0.5,-432.5 127.5,-432.5 127.5,-413.5 0.5,-413.5"/>
<text text-anchor="middle" x="64" y="-420.5" font-family="Helvetica,sans-Serif" font-size="10.00">frontEnd.Main.readXML</text>
</g>
<!-- Node2 -->
<g id="node2" class="node"><title>Node2</title>
<g id="a_node2"><a xlink:href="../../dd/dbe/classfront_end_1_1_main.html#a0ff8a007311f8ecce84d4203dc85d669" target="_top" xlink:title="frontEnd.Main.makeParamControls">
<polygon fill="white" stroke="black" points="164.5,-451.5 164.5,-470.5 347.5,-470.5 347.5,-451.5 164.5,-451.5"/>
<text text-anchor="middle" x="256" y="-458.5" font-family="Helvetica,sans-Serif" font-size="10.00">frontEnd.Main.makeParamControls</text>
</a>
</g>
</g>
<!-- Node1&#45;&gt;Node2 -->
<g id="edge1" class="edge"><title>Node1&#45;&gt;Node2</title>
<path fill="none" stroke="midnightblue" d="M112.945,-432.589C138.582,-437.716 170.336,-444.067 197.316,-449.463"/>
<polygon fill="midnightblue" stroke="midnightblue" points="196.908,-452.951 207.4,-451.48 198.28,-446.087 196.908,-452.951"/>
</g>
<!-- Node4 -->
<g id="node4" class="node"><title>Node4</title>
<g id="a_node4"><a xlink:href="../../dc/da1/classfront_end_1_1_animator_loop.html#a1f378b18807af5386266685e907aa8c7" target="_top" xlink:title="frontEnd.AnimatorLoop.read\lXMLAndInitializeGrid">
<polygon fill="white" stroke="black" points="180,-225 180,-255 332,-255 332,-225 180,-225"/>
<text text-anchor="start" x="188" y="-243" font-family="Helvetica,sans-Serif" font-size="10.00">frontEnd.AnimatorLoop.read</text>
<text text-anchor="middle" x="256" y="-232" font-family="Helvetica,sans-Serif" font-size="10.00">XMLAndInitializeGrid</text>
</a>
</g>
</g>
<!-- Node1&#45;&gt;Node4 -->
<g id="edge4" class="edge"><title>Node1&#45;&gt;Node4</title>
<path fill="none" stroke="midnightblue" d="M74.9477,-413.419C104.203,-385.241 190.505,-302.119 232.089,-262.067"/>
<polygon fill="midnightblue" stroke="midnightblue" points="234.535,-264.571 239.309,-255.112 229.679,-259.529 234.535,-264.571"/>
</g>
<!-- Node3 -->
<g id="node3" class="node"><title>Node3</title>
<g id="a_node3"><a xlink:href="../../dd/dbe/classfront_end_1_1_main.html#a8e2e836903a64069e4283fa66309c704" target="_top" xlink:title="frontEnd.Main.resetSim">
<polygon fill="white" stroke="black" points="413.5,-451.5 413.5,-470.5 542.5,-470.5 542.5,-451.5 413.5,-451.5"/>
<text text-anchor="middle" x="478" y="-458.5" font-family="Helvetica,sans-Serif" font-size="10.00">frontEnd.Main.resetSim</text>
</a>
</g>
</g>
<!-- Node2&#45;&gt;Node3 -->
<g id="edge2" class="edge"><title>Node2&#45;&gt;Node3</title>
<path fill="none" stroke="midnightblue" d="M347.753,-461C366.156,-461 385.301,-461 403.041,-461"/>
<polygon fill="midnightblue" stroke="midnightblue" points="403.307,-464.5 413.307,-461 403.307,-457.5 403.307,-464.5"/>
</g>
<!-- Node3&#45;&gt;Node1 -->
<g id="edge3" class="edge"><title>Node3&#45;&gt;Node1</title>
<path fill="none" stroke="midnightblue" d="M419.009,-451.461C396.842,-448.077 371.297,-444.494 348,-442 276.637,-434.361 194.801,-429.262 137.549,-426.286"/>
<polygon fill="midnightblue" stroke="midnightblue" points="137.676,-422.788 127.51,-425.773 137.318,-429.779 137.676,-422.788"/>
</g>
<!-- Node5 -->
<g id="node5" class="node"><title>Node5</title>
<g id="a_node5"><a xlink:href="../../d1/dfc/classback_end_1_1_rule_set.html#a9feb2a620b625065a9436f2e2246b094" target="_top" xlink:title="backEnd.RuleSet.addGrid">
<polygon fill="white" stroke="black" points="409.5,-413.5 409.5,-432.5 546.5,-432.5 546.5,-413.5 409.5,-413.5"/>
<text text-anchor="middle" x="478" y="-420.5" font-family="Helvetica,sans-Serif" font-size="10.00">backEnd.RuleSet.addGrid</text>
</a>
</g>
</g>
<!-- Node4&#45;&gt;Node5 -->
<g id="edge5" class="edge"><title>Node4&#45;&gt;Node5</title>
<path fill="none" stroke="midnightblue" d="M264.819,-255.415C281.866,-287.406 325.582,-361.168 384,-399 391.042,-403.56 398.908,-407.255 407.002,-410.249"/>
<polygon fill="midnightblue" stroke="midnightblue" points="405.98,-413.597 416.573,-413.45 408.2,-406.959 405.98,-413.597"/>
</g>
<!-- Node6 -->
<g id="node6" class="node"><title>Node6</title>
<g id="a_node6"><a xlink:href="../../dc/da1/classfront_end_1_1_animator_loop.html#a467af791b6cbba9bb796678842386ca2" target="_top" xlink:title="frontEnd.AnimatorLoop.check\lBadXMLFileData">
<polygon fill="white" stroke="black" points="399,-326 399,-356 557,-356 557,-326 399,-326"/>
<text text-anchor="start" x="407" y="-344" font-family="Helvetica,sans-Serif" font-size="10.00">frontEnd.AnimatorLoop.check</text>
<text text-anchor="middle" x="478" y="-333" font-family="Helvetica,sans-Serif" font-size="10.00">BadXMLFileData</text>
</a>
</g>
</g>
<!-- Node4&#45;&gt;Node6 -->
<g id="edge6" class="edge"><title>Node4&#45;&gt;Node6</title>
<path fill="none" stroke="midnightblue" d="M278.051,-255.098C302.485,-272.014 344.492,-299.253 384,-316 389.758,-318.441 395.819,-320.702 401.971,-322.784"/>
<polygon fill="midnightblue" stroke="midnightblue" points="401.093,-326.178 411.684,-325.909 403.236,-319.514 401.093,-326.178"/>
</g>
<!-- Node7 -->
<g id="node7" class="node"><title>Node7</title>
<g id="a_node7"><a xlink:href="../../d5/d51/classfront_end_1_1_c_a_settings.html#a5c62b367ceda95101ac5ff5c3048cf1c" target="_top" xlink:title="frontEnd.CASettings.getType">
<polygon fill="white" stroke="black" points="622.5,-372.5 622.5,-391.5 775.5,-391.5 775.5,-372.5 622.5,-372.5"/>
<text text-anchor="middle" x="699" y="-379.5" font-family="Helvetica,sans-Serif" font-size="10.00">frontEnd.CASettings.getType</text>
</a>
</g>
</g>
<!-- Node4&#45;&gt;Node7 -->
<g id="edge14" class="edge"><title>Node4&#45;&gt;Node7</title>
<path fill="none" stroke="midnightblue" d="M266.655,-255.033C285.393,-282.692 329.662,-341.009 384,-365 459.85,-398.489 556.218,-398.226 622.062,-392.471"/>
<polygon fill="midnightblue" stroke="midnightblue" points="622.73,-395.924 632.36,-391.505 622.076,-388.955 622.73,-395.924"/>
</g>
<!-- Node10 -->
<g id="node10" class="node"><title>Node10</title>
<g id="a_node10"><a xlink:href="../../d5/d51/classfront_end_1_1_c_a_settings.html#ad1a35159c9a3b860bd4af0d12e40b169" target="_top" xlink:title="frontEnd.CASettings.getColumns">
<polygon fill="white" stroke="black" points="391,-287.5 391,-306.5 565,-306.5 565,-287.5 391,-287.5"/>
<text text-anchor="middle" x="478" y="-294.5" font-family="Helvetica,sans-Serif" font-size="10.00">frontEnd.CASettings.getColumns</text>
</a>
</g>
</g>
<!-- Node4&#45;&gt;Node10 -->
<g id="edge10" class="edge"><title>Node4&#45;&gt;Node10</title>
<path fill="none" stroke="midnightblue" d="M314.843,-255.052C336.532,-260.69 361.395,-267.146 384,-273 398.952,-276.872 415.259,-281.084 429.983,-284.883"/>
<polygon fill="midnightblue" stroke="midnightblue" points="429.33,-288.329 439.887,-287.438 431.079,-281.551 429.33,-288.329"/>
</g>
<!-- Node11 -->
<g id="node11" class="node"><title>Node11</title>
<g id="a_node11"><a xlink:href="../../d5/d51/classfront_end_1_1_c_a_settings.html#a9b6c355e48adf9a7db04c30c74aac53f" target="_top" xlink:title="frontEnd.CASettings.getGrid">
<polygon fill="white" stroke="black" points="623,-217.5 623,-236.5 775,-236.5 775,-217.5 623,-217.5"/>
<text text-anchor="middle" x="699" y="-224.5" font-family="Helvetica,sans-Serif" font-size="10.00">frontEnd.CASettings.getGrid</text>
</a>
</g>
</g>
<!-- Node4&#45;&gt;Node11 -->
<g id="edge11" class="edge"><title>Node4&#45;&gt;Node11</title>
<path fill="none" stroke="midnightblue" d="M332.158,-242.168C396.011,-243.491 490.077,-244.215 572,-240 585.126,-239.325 598.99,-238.256 612.533,-237.015"/>
<polygon fill="midnightblue" stroke="midnightblue" points="613.187,-240.468 622.809,-236.035 612.522,-233.5 613.187,-240.468"/>
</g>
<!-- Node12 -->
<g id="node12" class="node"><title>Node12</title>
<g id="a_node12"><a xlink:href="../../d5/d51/classfront_end_1_1_c_a_settings.html#a560c336f7aed8050af9a606949926548" target="_top" xlink:title="frontEnd.CASettings.getParameters">
<polygon fill="white" stroke="black" points="384,-211.5 384,-230.5 572,-230.5 572,-211.5 384,-211.5"/>
<text text-anchor="middle" x="478" y="-218.5" font-family="Helvetica,sans-Serif" font-size="10.00">frontEnd.CASettings.getParameters</text>
</a>
</g>
</g>
<!-- Node4&#45;&gt;Node12 -->
<g id="edge12" class="edge"><title>Node4&#45;&gt;Node12</title>
<path fill="none" stroke="midnightblue" d="M332.096,-233.514C345.518,-232.355 359.714,-231.129 373.762,-229.916"/>
<polygon fill="midnightblue" stroke="midnightblue" points="374.29,-233.384 383.952,-229.036 373.688,-226.409 374.29,-233.384"/>
</g>
<!-- Node13 -->
<g id="node13" class="node"><title>Node13</title>
<g id="a_node13"><a xlink:href="../../d5/d51/classfront_end_1_1_c_a_settings.html#aef613fb5595d20d85dad92cf5f5efad9" target="_top" xlink:title="frontEnd.CASettings.getRows">
<polygon fill="white" stroke="black" points="400.5,-173.5 400.5,-192.5 555.5,-192.5 555.5,-173.5 400.5,-173.5"/>
<text text-anchor="middle" x="478" y="-180.5" font-family="Helvetica,sans-Serif" font-size="10.00">frontEnd.CASettings.getRows</text>
</a>
</g>
</g>
<!-- Node4&#45;&gt;Node13 -->
<g id="edge13" class="edge"><title>Node4&#45;&gt;Node13</title>
<path fill="none" stroke="midnightblue" d="M303.767,-224.918C327.636,-217.499 357.215,-208.729 384,-202 394.401,-199.387 405.524,-196.875 416.33,-194.581"/>
<polygon fill="midnightblue" stroke="midnightblue" points="417.058,-198.004 426.134,-192.539 415.631,-191.151 417.058,-198.004"/>
</g>
<!-- Node14 -->
<g id="node14" class="node"><title>Node14</title>
<g id="a_node14"><a xlink:href="../../dc/da1/classfront_end_1_1_animator_loop.html#af1d1ddcc3fe02f0d1c6ba1f234d455cc" target="_top" xlink:title="frontEnd.AnimatorLoop.initGrid">
<polygon fill="white" stroke="black" points="396,-135.5 396,-154.5 560,-154.5 560,-135.5 396,-135.5"/>
<text text-anchor="middle" x="478" y="-142.5" font-family="Helvetica,sans-Serif" font-size="10.00">frontEnd.AnimatorLoop.initGrid</text>
</a>
</g>
</g>
<!-- Node4&#45;&gt;Node14 -->
<g id="edge15" class="edge"><title>Node4&#45;&gt;Node14</title>
<path fill="none" stroke="midnightblue" d="M277.438,-224.772C301.641,-207.473 343.76,-179.626 384,-164 390.759,-161.375 397.942,-159.092 405.204,-157.109"/>
<polygon fill="midnightblue" stroke="midnightblue" points="406.292,-160.444 415.122,-154.589 404.568,-153.659 406.292,-160.444"/>
</g>
<!-- Node17 -->
<g id="node17" class="node"><title>Node17</title>
<g id="a_node17"><a xlink:href="../../dc/da1/classfront_end_1_1_animator_loop.html#a92b2bebb55107557a33d1621ddae5872" target="_top" xlink:title="frontEnd.AnimatorLoop.init\lGridPane">
<polygon fill="white" stroke="black" points="405.5,-86 405.5,-116 550.5,-116 550.5,-86 405.5,-86"/>
<text text-anchor="start" x="413.5" y="-104" font-family="Helvetica,sans-Serif" font-size="10.00">frontEnd.AnimatorLoop.init</text>
<text text-anchor="middle" x="478" y="-93" font-family="Helvetica,sans-Serif" font-size="10.00">GridPane</text>
</a>
</g>
</g>
<!-- Node4&#45;&gt;Node17 -->
<g id="edge19" class="edge"><title>Node4&#45;&gt;Node17</title>
<path fill="none" stroke="midnightblue" d="M269.428,-224.985C290.467,-200.551 335.56,-152.278 384,-126 388.188,-123.728 392.597,-121.652 397.124,-119.756"/>
<polygon fill="midnightblue" stroke="midnightblue" points="398.486,-122.983 406.553,-116.114 395.963,-116.453 398.486,-122.983"/>
</g>
<!-- Node23 -->
<g id="node23" class="node"><title>Node23</title>
<g id="a_node23"><a xlink:href="../../d0/d87/classfront_end_1_1_x_m_l_handler.html#a5ec2b2b772a94660c130efe55a8d356e" target="_top" xlink:title="frontEnd.XMLHandler.read">
<polygon fill="white" stroke="black" points="407.5,-45.5 407.5,-64.5 548.5,-64.5 548.5,-45.5 407.5,-45.5"/>
<text text-anchor="middle" x="478" y="-52.5" font-family="Helvetica,sans-Serif" font-size="10.00">frontEnd.XMLHandler.read</text>
</a>
</g>
</g>
<!-- Node4&#45;&gt;Node23 -->
<g id="edge25" class="edge"><title>Node4&#45;&gt;Node23</title>
<path fill="none" stroke="midnightblue" d="M264.094,-224.954C280.34,-192.239 323.551,-114.489 384,-76 388.712,-72.9996 393.799,-70.4254 399.078,-68.217"/>
<polygon fill="midnightblue" stroke="midnightblue" points="400.596,-71.3871 408.751,-64.6242 398.158,-64.8251 400.596,-71.3871"/>
</g>
<!-- Node26 -->
<g id="node26" class="node"><title>Node26</title>
<g id="a_node26"><a xlink:href="../../d1/dfc/classback_end_1_1_rule_set.html#ae12bb5fde75014f04b76b4a9f77d5b19" target="_top" xlink:title="backEnd.RuleSet.setParams">
<polygon fill="white" stroke="black" points="403,-7.5 403,-26.5 553,-26.5 553,-7.5 403,-7.5"/>
<text text-anchor="middle" x="478" y="-14.5" font-family="Helvetica,sans-Serif" font-size="10.00">backEnd.RuleSet.setParams</text>
</a>
</g>
</g>
<!-- Node4&#45;&gt;Node26 -->
<g id="edge28" class="edge"><title>Node4&#45;&gt;Node26</title>
<path fill="none" stroke="midnightblue" d="M261.753,-224.751C274.587,-186.273 313.79,-84.8358 384,-36 386.93,-33.9621 390.029,-32.1331 393.249,-30.4921"/>
<polygon fill="midnightblue" stroke="midnightblue" points="394.875,-33.5998 402.6,-26.3483 392.039,-27.2 394.875,-33.5998"/>
</g>
<!-- Node6&#45;&gt;Node7 -->
<g id="edge7" class="edge"><title>Node6&#45;&gt;Node7</title>
<path fill="none" stroke="midnightblue" d="M557.137,-355.628C583.48,-360.56 612.468,-365.987 637.264,-370.629"/>
<polygon fill="midnightblue" stroke="midnightblue" points="636.783,-374.1 647.256,-372.5 638.071,-367.22 636.783,-374.1"/>
</g>
<!-- Node8 -->
<g id="node8" class="node"><title>Node8</title>
<g id="a_node8"><a xlink:href="../../dd/dbe/classfront_end_1_1_main.html#a1c9672872cb8b8f6efe2d1ddce9a6b61" target="_top" xlink:title="frontEnd.Main.showPopupMessage">
<polygon fill="white" stroke="black" points="608,-331.5 608,-350.5 790,-350.5 790,-331.5 608,-331.5"/>
<text text-anchor="middle" x="699" y="-338.5" font-family="Helvetica,sans-Serif" font-size="10.00">frontEnd.Main.showPopupMessage</text>
</a>
</g>
</g>
<!-- Node6&#45;&gt;Node8 -->
<g id="edge8" class="edge"><title>Node6&#45;&gt;Node8</title>
<path fill="none" stroke="midnightblue" d="M557.137,-341C570.253,-341 584.026,-341 597.61,-341"/>
<polygon fill="midnightblue" stroke="midnightblue" points="597.948,-344.5 607.948,-341 597.948,-337.5 597.948,-344.5"/>
</g>
<!-- Node9 -->
<g id="node9" class="node"><title>Node9</title>
<g id="a_node9"><a xlink:href="../../dd/dbe/classfront_end_1_1_main.html#aef35ad9be3f43a5367d7a8ab30d0bec1" target="_top" xlink:title="frontEnd.Main.createPopup">
<polygon fill="white" stroke="black" points="846,-331.5 846,-350.5 992,-350.5 992,-331.5 846,-331.5"/>
<text text-anchor="middle" x="919" y="-338.5" font-family="Helvetica,sans-Serif" font-size="10.00">frontEnd.Main.createPopup</text>
</a>
</g>
</g>
<!-- Node8&#45;&gt;Node9 -->
<g id="edge9" class="edge"><title>Node8&#45;&gt;Node9</title>
<path fill="none" stroke="midnightblue" d="M790.243,-341C805.28,-341 820.808,-341 835.636,-341"/>
<polygon fill="midnightblue" stroke="midnightblue" points="835.775,-344.5 845.775,-341 835.775,-337.5 835.775,-344.5"/>
</g>
<!-- Node14&#45;&gt;Node11 -->
<g id="edge16" class="edge"><title>Node14&#45;&gt;Node11</title>
<path fill="none" stroke="midnightblue" d="M537.675,-154.551C549.203,-157.107 561.097,-160.234 572,-164 608.897,-176.745 648.764,-198.087 673.555,-212.352"/>
<polygon fill="midnightblue" stroke="midnightblue" points="671.879,-215.426 682.281,-217.44 675.405,-209.379 671.879,-215.426"/>
</g>
<!-- Node15 -->
<g id="node15" class="node"><title>Node15</title>
<g id="a_node15"><a xlink:href="../../d1/dfc/classback_end_1_1_rule_set.html#a603d39da71653ea4bbdadf3d78978981" target="_top" xlink:title="backEnd.RuleSet.initialize\lPatch">
<polygon fill="white" stroke="black" points="630.5,-137 630.5,-167 767.5,-167 767.5,-137 630.5,-137"/>
<text text-anchor="start" x="638.5" y="-155" font-family="Helvetica,sans-Serif" font-size="10.00">backEnd.RuleSet.initialize</text>
<text text-anchor="middle" x="699" y="-144" font-family="Helvetica,sans-Serif" font-size="10.00">Patch</text>
</a>
</g>
</g>
<!-- Node14&#45;&gt;Node15 -->
<g id="edge17" class="edge"><title>Node14&#45;&gt;Node15</title>
<path fill="none" stroke="midnightblue" d="M560.236,-147.597C579.828,-148.223 600.715,-148.89 620.148,-149.512"/>
<polygon fill="midnightblue" stroke="midnightblue" points="620.056,-153.01 630.163,-149.832 620.28,-146.014 620.056,-153.01"/>
</g>
<!-- Node16 -->
<g id="node16" class="node"><title>Node16</title>
<g id="a_node16"><a xlink:href="../../db/d5e/classback_end_1_1_patch.html#ac9c7bf582f9e7aec34492785fea4cf68" target="_top" xlink:title="backEnd.Patch.fill">
<polygon fill="white" stroke="black" points="869.5,-142.5 869.5,-161.5 968.5,-161.5 968.5,-142.5 869.5,-142.5"/>
<text text-anchor="middle" x="919" y="-149.5" font-family="Helvetica,sans-Serif" font-size="10.00">backEnd.Patch.fill</text>
</a>
</g>
</g>
<!-- Node15&#45;&gt;Node16 -->
<g id="edge18" class="edge"><title>Node15&#45;&gt;Node16</title>
<path fill="none" stroke="midnightblue" d="M767.782,-152C797.058,-152 830.988,-152 859.185,-152"/>
<polygon fill="midnightblue" stroke="midnightblue" points="859.295,-155.5 869.295,-152 859.295,-148.5 859.295,-155.5"/>
</g>
<!-- Node18 -->
<g id="node18" class="node"><title>Node18</title>
<g id="a_node18"><a xlink:href="../../dc/da1/classfront_end_1_1_animator_loop.html#aa8be847f0f9efee238193322c5ab9f5b" target="_top" xlink:title="frontEnd.AnimatorLoop.add\lCellsToGrid">
<polygon fill="white" stroke="black" points="624.5,-88 624.5,-118 773.5,-118 773.5,-88 624.5,-88"/>
<text text-anchor="start" x="632.5" y="-106" font-family="Helvetica,sans-Serif" font-size="10.00">frontEnd.AnimatorLoop.add</text>
<text text-anchor="middle" x="699" y="-95" font-family="Helvetica,sans-Serif" font-size="10.00">CellsToGrid</text>
</a>
</g>
</g>
<!-- Node17&#45;&gt;Node18 -->
<g id="edge20" class="edge"><title>Node17&#45;&gt;Node18</title>
<path fill="none" stroke="midnightblue" d="M550.709,-101.655C570.97,-101.84 593.199,-102.043 614.108,-102.234"/>
<polygon fill="midnightblue" stroke="midnightblue" points="614.221,-105.735 624.252,-102.327 614.285,-98.7352 614.221,-105.735"/>
</g>
<!-- Node19 -->
<g id="node19" class="node"><title>Node19</title>
<g id="a_node19"><a xlink:href="../../d4/d6c/classshape_factories_1_1_shape_factory.html#a7a14b33c28eb5951679f13f21633bdf4" target="_top" xlink:title="shapeFactories.ShapeFactory.make\lShape">
<polygon fill="white" stroke="black" points="826.5,-91 826.5,-121 1011.5,-121 1011.5,-91 826.5,-91"/>
<text text-anchor="start" x="834.5" y="-109" font-family="Helvetica,sans-Serif" font-size="10.00">shapeFactories.ShapeFactory.make</text>
<text text-anchor="middle" x="919" y="-98" font-family="Helvetica,sans-Serif" font-size="10.00">Shape</text>
</a>
</g>
</g>
<!-- Node18&#45;&gt;Node19 -->
<g id="edge21" class="edge"><title>Node18&#45;&gt;Node19</title>
<path fill="none" stroke="midnightblue" d="M773.501,-104.011C787.128,-104.199 801.586,-104.398 815.885,-104.595"/>
<polygon fill="midnightblue" stroke="midnightblue" points="816.208,-108.099 826.255,-104.737 816.304,-101.1 816.208,-108.099"/>
</g>
<!-- Node22 -->
<g id="node22" class="node"><title>Node22</title>
<g id="a_node22"><a xlink:href="../../d4/d6c/classshape_factories_1_1_shape_factory.html#a6dbdc6b9de19c9685fc9c2361d982b2f" target="_top" xlink:title="shapeFactories.ShapeFactory.move">
<polygon fill="white" stroke="black" points="826.5,-52.5 826.5,-71.5 1011.5,-71.5 1011.5,-52.5 826.5,-52.5"/>
<text text-anchor="middle" x="919" y="-59.5" font-family="Helvetica,sans-Serif" font-size="10.00">shapeFactories.ShapeFactory.move</text>
</a>
</g>
</g>
<!-- Node18&#45;&gt;Node22 -->
<g id="edge24" class="edge"><title>Node18&#45;&gt;Node22</title>
<path fill="none" stroke="midnightblue" d="M773.501,-89.1764C800.782,-84.0456 831.393,-78.2885 857.394,-73.3983"/>
<polygon fill="midnightblue" stroke="midnightblue" points="858.306,-76.7883 867.487,-71.5002 857.012,-69.9089 858.306,-76.7883"/>
</g>
<!-- Node20 -->
<g id="node20" class="node"><title>Node20</title>
<g id="a_node20"><a xlink:href="../../d4/d6c/classshape_factories_1_1_shape_factory.html#adcf2f7637e2a6ed76a74dceaf986f8a5" target="_top" xlink:title="shapeFactories.ShapeFactory.set\lDimensions">
<polygon fill="white" stroke="black" points="1048.5,-116 1048.5,-146 1221.5,-146 1221.5,-116 1048.5,-116"/>
<text text-anchor="start" x="1056.5" y="-134" font-family="Helvetica,sans-Serif" font-size="10.00">shapeFactories.ShapeFactory.set</text>
<text text-anchor="middle" x="1135" y="-123" font-family="Helvetica,sans-Serif" font-size="10.00">Dimensions</text>
</a>
</g>
</g>
<!-- Node19&#45;&gt;Node20 -->
<g id="edge22" class="edge"><title>Node19&#45;&gt;Node20</title>
<path fill="none" stroke="midnightblue" d="M1011.69,-116.711C1020.51,-117.741 1029.47,-118.788 1038.32,-119.823"/>
<polygon fill="midnightblue" stroke="midnightblue" points="1037.93,-123.3 1048.27,-120.984 1038.74,-116.347 1037.93,-123.3"/>
</g>
<!-- Node21 -->
<g id="node21" class="node"><title>Node21</title>
<g id="a_node21"><a xlink:href="../../d4/d6c/classshape_factories_1_1_shape_factory.html#a02796a37b5651bf8fe6dc075f5e6e444" target="_top" xlink:title="shapeFactories.ShapeFactory.set\lCoords">
<polygon fill="white" stroke="black" points="1048.5,-67 1048.5,-97 1221.5,-97 1221.5,-67 1048.5,-67"/>
<text text-anchor="start" x="1056.5" y="-85" font-family="Helvetica,sans-Serif" font-size="10.00">shapeFactories.ShapeFactory.set</text>
<text text-anchor="middle" x="1135" y="-74" font-family="Helvetica,sans-Serif" font-size="10.00">Coords</text>
</a>
</g>
</g>
<!-- Node19&#45;&gt;Node21 -->
<g id="edge23" class="edge"><title>Node19&#45;&gt;Node21</title>
<path fill="none" stroke="midnightblue" d="M1011.69,-95.7174C1020.51,-94.7283 1029.47,-93.7233 1038.32,-92.7301"/>
<polygon fill="midnightblue" stroke="midnightblue" points="1038.72,-96.2079 1048.27,-91.6151 1037.94,-89.2515 1038.72,-96.2079"/>
</g>
<!-- Node24 -->
<g id="node24" class="node"><title>Node24</title>
<g id="a_node24"><a xlink:href="../../d0/d87/classfront_end_1_1_x_m_l_handler.html#a4946a8ebfe5de06e04a84fee47d14a36" target="_top" xlink:title="frontEnd.XMLHandler.read\lParameters">
<polygon fill="white" stroke="black" points="628.5,-39 628.5,-69 769.5,-69 769.5,-39 628.5,-39"/>
<text text-anchor="start" x="636.5" y="-57" font-family="Helvetica,sans-Serif" font-size="10.00">frontEnd.XMLHandler.read</text>
<text text-anchor="middle" x="699" y="-46" font-family="Helvetica,sans-Serif" font-size="10.00">Parameters</text>
</a>
</g>
</g>
<!-- Node23&#45;&gt;Node24 -->
<g id="edge26" class="edge"><title>Node23&#45;&gt;Node24</title>
<path fill="none" stroke="midnightblue" d="M548.594,-54.6822C570.642,-54.5815 595.191,-54.4694 617.915,-54.3657"/>
<polygon fill="midnightblue" stroke="midnightblue" points="618.228,-57.8644 628.211,-54.3187 618.196,-50.8645 618.228,-57.8644"/>
</g>
<!-- Node25 -->
<g id="node25" class="node"><title>Node25</title>
<g id="a_node25"><a xlink:href="../../d0/d87/classfront_end_1_1_x_m_l_handler.html#ae0df3c17a5ff74491584286b4e830fba" target="_top" xlink:title="frontEnd.XMLHandler.readGrid">
<polygon fill="white" stroke="black" points="618.5,-0.5 618.5,-19.5 779.5,-19.5 779.5,-0.5 618.5,-0.5"/>
<text text-anchor="middle" x="699" y="-7.5" font-family="Helvetica,sans-Serif" font-size="10.00">frontEnd.XMLHandler.readGrid</text>
</a>
</g>
</g>
<!-- Node23&#45;&gt;Node25 -->
<g id="edge27" class="edge"><title>Node23&#45;&gt;Node25</title>
<path fill="none" stroke="midnightblue" d="M525.838,-45.4496C540.609,-42.4328 556.987,-39.0825 572,-36 594.855,-31.3074 620.036,-26.1155 641.841,-21.613"/>
<polygon fill="midnightblue" stroke="midnightblue" points="642.839,-24.9809 651.924,-19.5304 641.423,-18.1256 642.839,-24.9809"/>
</g>
</g>
</svg>
