<?xml version="1.0" encoding="UTF-8" standalone="no"?>
<!DOCTYPE svg PUBLIC "-//W3C//DTD SVG 1.1//EN"
 "http://www.w3.org/Graphics/SVG/1.1/DTD/svg11.dtd">
<!-- Generated by graphviz version 2.36.0 (20140111.2315)
 -->
<!-- Title: frontEnd.Main.resetSim Pages: 1 -->
<!--zoomable 441 -->
<svg id="main" version="1.1" xmlns="http://www.w3.org/2000/svg" xmlns:xlink="http://www.w3.org/1999/xlink" xml:space="preserve" onload="init(evt)">
<style type="text/css"><![CDATA[
.edge:hover path { stroke: red; }
.edge:hover polygon { stroke: red; fill: red; }
]]></style>
<script type="text/javascript"><![CDATA[
var edges = document.getElementsByTagName('g');
if (edges && edges.length) {
  for (var i=0;i<edges.length;i++) {
    if (edges[i].id.substr(0,4)=='edge') {
      edges[i].setAttribute('class','edge');
    }
  }
}
]]></script>
        <defs>
                <circle id="rim" cx="0" cy="0" r="7"/>
                <circle id="rim2" cx="0" cy="0" r="3.5"/>
                <g id="zoomPlus">
                        <use xlink:href="#rim" fill="#404040">
                                <set attributeName="fill" to="#808080" begin="zoomplus.mouseover" end="zoomplus.mouseout"/>
                        </use>
                        <path d="M-4,0h8M0,-4v8" fill="none" stroke="white" stroke-width="1.5" pointer-events="none"/>
                </g>
                <g id="zoomMin">
                        <use xlink:href="#rim" fill="#404040">
                                <set attributeName="fill" to="#808080" begin="zoomminus.mouseover" end="zoomminus.mouseout"/>
                        </use>
                        <path d="M-4,0h8" fill="none" stroke="white" stroke-width="1.5" pointer-events="none"/>
                </g>
                <g id="dirArrow">
                        <path fill="none" stroke="white" stroke-width="1.5" d="M0,-3.0v7 M-2.5,-0.5L0,-3.0L2.5,-0.5"/>
                </g>
               <g id="resetDef">
                       <use xlink:href="#rim2" fill="#404040">
                               <set attributeName="fill" to="#808080" begin="reset.mouseover" end="reset.mouseout"/>
                       </use>
               </g>
        </defs>

<script type="text/javascript">
var viewWidth = 1396;
var viewHeight = 441;
var sectionId = 'dynsection-11';
</script>
<script xlink:href="../../svgpan.js"/>
<svg id="graph" class="graph">
<g id="viewport">
<title>frontEnd.Main.resetSim</title>
<polygon fill="white" stroke="none" points="-4,4 -4,-437 1392,-437 1392,4 -4,4"/>
<!-- Node1 -->
<g id="node1" class="node"><title>Node1</title>
<polygon fill="#bfbfbf" stroke="black" points="0.5,-236.5 0.5,-255.5 129.5,-255.5 129.5,-236.5 0.5,-236.5"/>
<text text-anchor="middle" x="65" y="-243.5" font-family="Helvetica,sans-Serif" font-size="10.00">frontEnd.Main.resetSim</text>
</g>
<!-- Node2 -->
<g id="node2" class="node"><title>Node2</title>
<g id="a_node2"><a xlink:href="../../dd/dbe/classfront_end_1_1_main.html#a7bae3127415fb2ae80975ebc95057e3f" target="_top" xlink:title="frontEnd.Main.readXML">
<polygon fill="white" stroke="black" points="166.5,-217.5 166.5,-236.5 293.5,-236.5 293.5,-217.5 166.5,-217.5"/>
<text text-anchor="middle" x="230" y="-224.5" font-family="Helvetica,sans-Serif" font-size="10.00">frontEnd.Main.readXML</text>
</a>
</g>
</g>
<!-- Node1&#45;&gt;Node2 -->
<g id="edge1" class="edge"><title>Node1&#45;&gt;Node2</title>
<path fill="none" stroke="midnightblue" d="M129.954,-238.545C138.544,-237.544 147.407,-236.511 156.137,-235.493"/>
<polygon fill="midnightblue" stroke="midnightblue" points="156.771,-238.943 166.299,-234.309 155.961,-231.99 156.771,-238.943"/>
</g>
<!-- Node3 -->
<g id="node3" class="node"><title>Node3</title>
<g id="a_node3"><a xlink:href="../../dd/dbe/classfront_end_1_1_main.html#a0ff8a007311f8ecce84d4203dc85d669" target="_top" xlink:title="frontEnd.Main.makeParamControls">
<polygon fill="white" stroke="black" points="330.5,-255.5 330.5,-274.5 513.5,-274.5 513.5,-255.5 330.5,-255.5"/>
<text text-anchor="middle" x="422" y="-262.5" font-family="Helvetica,sans-Serif" font-size="10.00">frontEnd.Main.makeParamControls</text>
</a>
</g>
</g>
<!-- Node2&#45;&gt;Node3 -->
<g id="edge2" class="edge"><title>Node2&#45;&gt;Node3</title>
<path fill="none" stroke="midnightblue" d="M278.945,-236.589C304.582,-241.716 336.336,-248.067 363.316,-253.463"/>
<polygon fill="midnightblue" stroke="midnightblue" points="362.908,-256.951 373.4,-255.48 364.28,-250.087 362.908,-256.951"/>
</g>
<!-- Node4 -->
<g id="node4" class="node"><title>Node4</title>
<g id="a_node4"><a xlink:href="../../dc/da1/classfront_end_1_1_animator_loop.html#a1f378b18807af5386266685e907aa8c7" target="_top" xlink:title="frontEnd.AnimatorLoop.read\lXMLAndInitializeGrid">
<polygon fill="white" stroke="black" points="346,-206 346,-236 498,-236 498,-206 346,-206"/>
<text text-anchor="start" x="354" y="-224" font-family="Helvetica,sans-Serif" font-size="10.00">frontEnd.AnimatorLoop.read</text>
<text text-anchor="middle" x="422" y="-213" font-family="Helvetica,sans-Serif" font-size="10.00">XMLAndInitializeGrid</text>
</a>
</g>
</g>
<!-- Node2&#45;&gt;Node4 -->
<g id="edge4" class="edge"><title>Node2&#45;&gt;Node4</title>
<path fill="none" stroke="midnightblue" d="M293.74,-225.019C307.135,-224.596 321.5,-224.142 335.583,-223.697"/>
<polygon fill="midnightblue" stroke="midnightblue" points="335.884,-227.19 345.768,-223.376 335.663,-220.193 335.884,-227.19"/>
</g>
<!-- Node3&#45;&gt;Node1 -->
<g id="edge3" class="edge"><title>Node3&#45;&gt;Node1</title>
<path fill="none" stroke="midnightblue" d="M330.277,-260.144C271.271,-256.986 195.295,-252.92 139.96,-249.958"/>
<polygon fill="midnightblue" stroke="midnightblue" points="140.05,-246.458 129.877,-249.419 139.676,-253.448 140.05,-246.458"/>
</g>
<!-- Node5 -->
<g id="node5" class="node"><title>Node5</title>
<g id="a_node5"><a xlink:href="../../d1/dfc/classback_end_1_1_rule_set.html#a9feb2a620b625065a9436f2e2246b094" target="_top" xlink:title="backEnd.RuleSet.addGrid">
<polygon fill="white" stroke="black" points="575.5,-413.5 575.5,-432.5 712.5,-432.5 712.5,-413.5 575.5,-413.5"/>
<text text-anchor="middle" x="644" y="-420.5" font-family="Helvetica,sans-Serif" font-size="10.00">backEnd.RuleSet.addGrid</text>
</a>
</g>
</g>
<!-- Node4&#45;&gt;Node5 -->
<g id="edge5" class="edge"><title>Node4&#45;&gt;Node5</title>
<path fill="none" stroke="midnightblue" d="M498.317,-234.281C504.104,-237.426 509.452,-241.281 514,-246 562.474,-296.302 501.137,-349.076 550,-399 554.593,-403.692 559.972,-407.509 565.789,-410.608"/>
<polygon fill="midnightblue" stroke="midnightblue" points="564.687,-413.952 575.238,-414.911 567.587,-407.581 564.687,-413.952"/>
</g>
<!-- Node6 -->
<g id="node6" class="node"><title>Node6</title>
<g id="a_node6"><a xlink:href="../../dc/da1/classfront_end_1_1_animator_loop.html#a467af791b6cbba9bb796678842386ca2" target="_top" xlink:title="frontEnd.AnimatorLoop.check\lBadXMLFileData">
<polygon fill="white" stroke="black" points="565,-326 565,-356 723,-356 723,-326 565,-326"/>
<text text-anchor="start" x="573" y="-344" font-family="Helvetica,sans-Serif" font-size="10.00">frontEnd.AnimatorLoop.check</text>
<text text-anchor="middle" x="644" y="-333" font-family="Helvetica,sans-Serif" font-size="10.00">BadXMLFileData</text>
</a>
</g>
</g>
<!-- Node4&#45;&gt;Node6 -->
<g id="edge6" class="edge"><title>Node4&#45;&gt;Node6</title>
<path fill="none" stroke="midnightblue" d="M498.065,-235.974C503.763,-238.766 509.167,-242.076 514,-246 541.16,-268.051 522.78,-294.024 550,-316 552.106,-317.7 554.317,-319.285 556.612,-320.763"/>
<polygon fill="midnightblue" stroke="midnightblue" points="555.402,-324.097 565.834,-325.947 558.832,-317.996 555.402,-324.097"/>
</g>
<!-- Node7 -->
<g id="node7" class="node"><title>Node7</title>
<g id="a_node7"><a xlink:href="../../d5/d51/classfront_end_1_1_c_a_settings.html#a5c62b367ceda95101ac5ff5c3048cf1c" target="_top" xlink:title="frontEnd.CASettings.getType">
<polygon fill="white" stroke="black" points="788.5,-372.5 788.5,-391.5 941.5,-391.5 941.5,-372.5 788.5,-372.5"/>
<text text-anchor="middle" x="865" y="-379.5" font-family="Helvetica,sans-Serif" font-size="10.00">frontEnd.CASettings.getType</text>
</a>
</g>
</g>
<!-- Node4&#45;&gt;Node7 -->
<g id="edge14" class="edge"><title>Node4&#45;&gt;Node7</title>
<path fill="none" stroke="midnightblue" d="M498.006,-234.59C503.859,-237.671 509.307,-241.426 514,-246 553.57,-284.568 506.537,-330.879 550,-365 584.231,-391.873 697.611,-391.868 778.279,-388.04"/>
<polygon fill="midnightblue" stroke="midnightblue" points="778.629,-391.527 788.441,-387.529 778.278,-384.536 778.629,-391.527"/>
</g>
<!-- Node10 -->
<g id="node10" class="node"><title>Node10</title>
<g id="a_node10"><a xlink:href="../../d5/d51/classfront_end_1_1_c_a_settings.html#ad1a35159c9a3b860bd4af0d12e40b169" target="_top" xlink:title="frontEnd.CASettings.getColumns">
<polygon fill="white" stroke="black" points="557,-287.5 557,-306.5 731,-306.5 731,-287.5 557,-287.5"/>
<text text-anchor="middle" x="644" y="-294.5" font-family="Helvetica,sans-Serif" font-size="10.00">frontEnd.CASettings.getColumns</text>
</a>
</g>
</g>
<!-- Node4&#45;&gt;Node10 -->
<g id="edge10" class="edge"><title>Node4&#45;&gt;Node10</title>
<path fill="none" stroke="midnightblue" d="M489.206,-236.019C497.734,-238.866 506.203,-242.178 514,-246 531.958,-254.804 531.974,-264.336 550,-273 559.781,-277.701 570.599,-281.563 581.294,-284.708"/>
<polygon fill="midnightblue" stroke="midnightblue" points="580.479,-288.114 591.049,-287.399 582.34,-281.366 580.479,-288.114"/>
</g>
<!-- Node11 -->
<g id="node11" class="node"><title>Node11</title>
<g id="a_node11"><a xlink:href="../../d5/d51/classfront_end_1_1_c_a_settings.html#a9b6c355e48adf9a7db04c30c74aac53f" target="_top" xlink:title="frontEnd.CASettings.getGrid">
<polygon fill="white" stroke="black" points="789,-217.5 789,-236.5 941,-236.5 941,-217.5 789,-217.5"/>
<text text-anchor="middle" x="865" y="-224.5" font-family="Helvetica,sans-Serif" font-size="10.00">frontEnd.CASettings.getGrid</text>
</a>
</g>
</g>
<!-- Node4&#45;&gt;Node11 -->
<g id="edge11" class="edge"><title>Node4&#45;&gt;Node11</title>
<path fill="none" stroke="midnightblue" d="M498.006,-234.106C515.046,-236.558 533.103,-238.743 550,-240 633.325,-246.199 654.555,-244.293 738,-240 751.126,-239.325 764.99,-238.256 778.533,-237.015"/>
<polygon fill="midnightblue" stroke="midnightblue" points="779.187,-240.468 788.809,-236.035 778.522,-233.5 779.187,-240.468"/>
</g>
<!-- Node12 -->
<g id="node12" class="node"><title>Node12</title>
<g id="a_node12"><a xlink:href="../../d5/d51/classfront_end_1_1_c_a_settings.html#a560c336f7aed8050af9a606949926548" target="_top" xlink:title="frontEnd.CASettings.getParameters">
<polygon fill="white" stroke="black" points="550,-211.5 550,-230.5 738,-230.5 738,-211.5 550,-211.5"/>
<text text-anchor="middle" x="644" y="-218.5" font-family="Helvetica,sans-Serif" font-size="10.00">frontEnd.CASettings.getParameters</text>
</a>
</g>
</g>
<!-- Node4&#45;&gt;Node12 -->
<g id="edge12" class="edge"><title>Node4&#45;&gt;Node12</title>
<path fill="none" stroke="midnightblue" d="M498.096,-221C511.518,-221 525.714,-221 539.762,-221"/>
<polygon fill="midnightblue" stroke="midnightblue" points="539.952,-224.5 549.952,-221 539.952,-217.5 539.952,-224.5"/>
</g>
<!-- Node13 -->
<g id="node13" class="node"><title>Node13</title>
<g id="a_node13"><a xlink:href="../../d5/d51/classfront_end_1_1_c_a_settings.html#aef613fb5595d20d85dad92cf5f5efad9" target="_top" xlink:title="frontEnd.CASettings.getRows">
<polygon fill="white" stroke="black" points="566.5,-173.5 566.5,-192.5 721.5,-192.5 721.5,-173.5 566.5,-173.5"/>
<text text-anchor="middle" x="644" y="-180.5" font-family="Helvetica,sans-Serif" font-size="10.00">frontEnd.CASettings.getRows</text>
</a>
</g>
</g>
<!-- Node4&#45;&gt;Node13 -->
<g id="edge13" class="edge"><title>Node4&#45;&gt;Node13</title>
<path fill="none" stroke="midnightblue" d="M498.096,-208.029C523.915,-203.569 552.597,-198.615 577.584,-194.299"/>
<polygon fill="midnightblue" stroke="midnightblue" points="578.426,-197.706 587.684,-192.555 577.235,-190.808 578.426,-197.706"/>
</g>
<!-- Node14 -->
<g id="node14" class="node"><title>Node14</title>
<g id="a_node14"><a xlink:href="../../dc/da1/classfront_end_1_1_animator_loop.html#af1d1ddcc3fe02f0d1c6ba1f234d455cc" target="_top" xlink:title="frontEnd.AnimatorLoop.initGrid">
<polygon fill="white" stroke="black" points="562,-135.5 562,-154.5 726,-154.5 726,-135.5 562,-135.5"/>
<text text-anchor="middle" x="644" y="-142.5" font-family="Helvetica,sans-Serif" font-size="10.00">frontEnd.AnimatorLoop.initGrid</text>
</a>
</g>
</g>
<!-- Node4&#45;&gt;Node14 -->
<g id="edge15" class="edge"><title>Node4&#45;&gt;Node14</title>
<path fill="none" stroke="midnightblue" d="M451.538,-206C476.819,-193.248 515.035,-175.266 550,-164 558.319,-161.319 567.183,-158.934 576.009,-156.837"/>
<polygon fill="midnightblue" stroke="midnightblue" points="576.947,-160.213 585.927,-154.591 575.401,-153.386 576.947,-160.213"/>
</g>
<!-- Node17 -->
<g id="node17" class="node"><title>Node17</title>
<g id="a_node17"><a xlink:href="../../dc/da1/classfront_end_1_1_animator_loop.html#a92b2bebb55107557a33d1621ddae5872" target="_top" xlink:title="frontEnd.AnimatorLoop.init\lGridPane">
<polygon fill="white" stroke="black" points="571.5,-86 571.5,-116 716.5,-116 716.5,-86 571.5,-86"/>
<text text-anchor="start" x="579.5" y="-104" font-family="Helvetica,sans-Serif" font-size="10.00">frontEnd.AnimatorLoop.init</text>
<text text-anchor="middle" x="644" y="-93" font-family="Helvetica,sans-Serif" font-size="10.00">GridPane</text>
</a>
</g>
</g>
<!-- Node4&#45;&gt;Node17 -->
<g id="edge19" class="edge"><title>Node4&#45;&gt;Node17</title>
<path fill="none" stroke="midnightblue" d="M438.909,-205.883C461.739,-184.985 505.919,-147.425 550,-126 554.887,-123.625 560.032,-121.45 565.291,-119.462"/>
<polygon fill="midnightblue" stroke="midnightblue" points="566.586,-122.717 574.848,-116.084 564.254,-116.117 566.586,-122.717"/>
</g>
<!-- Node23 -->
<g id="node23" class="node"><title>Node23</title>
<g id="a_node23"><a xlink:href="../../d0/d87/classfront_end_1_1_x_m_l_handler.html#a5ec2b2b772a94660c130efe55a8d356e" target="_top" xlink:title="frontEnd.XMLHandler.read">
<polygon fill="white" stroke="black" points="573.5,-45.5 573.5,-64.5 714.5,-64.5 714.5,-45.5 573.5,-45.5"/>
<text text-anchor="middle" x="644" y="-52.5" font-family="Helvetica,sans-Serif" font-size="10.00">frontEnd.XMLHandler.read</text>
</a>
</g>
</g>
<!-- Node4&#45;&gt;Node23 -->
<g id="edge25" class="edge"><title>Node4&#45;&gt;Node23</title>
<path fill="none" stroke="midnightblue" d="M431.644,-205.909C449.588,-176.034 493.922,-109.37 550,-76 555.321,-72.8338 561.072,-70.1445 567.015,-67.8604"/>
<polygon fill="midnightblue" stroke="midnightblue" points="568.166,-71.1658 576.476,-64.5942 565.882,-64.5489 568.166,-71.1658"/>
</g>
<!-- Node26 -->
<g id="node26" class="node"><title>Node26</title>
<g id="a_node26"><a xlink:href="../../d1/dfc/classback_end_1_1_rule_set.html#ae12bb5fde75014f04b76b4a9f77d5b19" target="_top" xlink:title="backEnd.RuleSet.setParams">
<polygon fill="white" stroke="black" points="569,-7.5 569,-26.5 719,-26.5 719,-7.5 569,-7.5"/>
<text text-anchor="middle" x="644" y="-14.5" font-family="Helvetica,sans-Serif" font-size="10.00">backEnd.RuleSet.setParams</text>
</a>
</g>
</g>
<!-- Node4&#45;&gt;Node26 -->
<g id="edge28" class="edge"><title>Node4&#45;&gt;Node26</title>
<path fill="none" stroke="midnightblue" d="M428.706,-205.849C443.052,-169.973 484.245,-79.5866 550,-36 552.975,-34.0282 556.112,-32.2541 559.362,-30.6583"/>
<polygon fill="midnightblue" stroke="midnightblue" points="560.972,-33.776 568.782,-26.6169 558.212,-27.343 560.972,-33.776"/>
</g>
<!-- Node6&#45;&gt;Node7 -->
<g id="edge7" class="edge"><title>Node6&#45;&gt;Node7</title>
<path fill="none" stroke="midnightblue" d="M723.137,-355.628C749.48,-360.56 778.468,-365.987 803.264,-370.629"/>
<polygon fill="midnightblue" stroke="midnightblue" points="802.783,-374.1 813.256,-372.5 804.071,-367.22 802.783,-374.1"/>
</g>
<!-- Node8 -->
<g id="node8" class="node"><title>Node8</title>
<g id="a_node8"><a xlink:href="../../dd/dbe/classfront_end_1_1_main.html#a1c9672872cb8b8f6efe2d1ddce9a6b61" target="_top" xlink:title="frontEnd.Main.showPopupMessage">
<polygon fill="white" stroke="black" points="774,-331.5 774,-350.5 956,-350.5 956,-331.5 774,-331.5"/>
<text text-anchor="middle" x="865" y="-338.5" font-family="Helvetica,sans-Serif" font-size="10.00">frontEnd.Main.showPopupMessage</text>
</a>
</g>
</g>
<!-- Node6&#45;&gt;Node8 -->
<g id="edge8" class="edge"><title>Node6&#45;&gt;Node8</title>
<path fill="none" stroke="midnightblue" d="M723.137,-341C736.253,-341 750.026,-341 763.61,-341"/>
<polygon fill="midnightblue" stroke="midnightblue" points="763.948,-344.5 773.948,-341 763.948,-337.5 763.948,-344.5"/>
</g>
<!-- Node9 -->
<g id="node9" class="node"><title>Node9</title>
<g id="a_node9"><a xlink:href="../../dd/dbe/classfront_end_1_1_main.html#aef35ad9be3f43a5367d7a8ab30d0bec1" target="_top" xlink:title="frontEnd.Main.createPopup">
<polygon fill="white" stroke="black" points="1012,-331.5 1012,-350.5 1158,-350.5 1158,-331.5 1012,-331.5"/>
<text text-anchor="middle" x="1085" y="-338.5" font-family="Helvetica,sans-Serif" font-size="10.00">frontEnd.Main.createPopup</text>
</a>
</g>
</g>
<!-- Node8&#45;&gt;Node9 -->
<g id="edge9" class="edge"><title>Node8&#45;&gt;Node9</title>
<path fill="none" stroke="midnightblue" d="M956.243,-341C971.28,-341 986.808,-341 1001.64,-341"/>
<polygon fill="midnightblue" stroke="midnightblue" points="1001.77,-344.5 1011.77,-341 1001.77,-337.5 1001.77,-344.5"/>
</g>
<!-- Node14&#45;&gt;Node11 -->
<g id="edge16" class="edge"><title>Node14&#45;&gt;Node11</title>
<path fill="none" stroke="midnightblue" d="M703.675,-154.551C715.203,-157.107 727.097,-160.234 738,-164 774.897,-176.745 814.764,-198.087 839.555,-212.352"/>
<polygon fill="midnightblue" stroke="midnightblue" points="837.879,-215.426 848.281,-217.44 841.405,-209.379 837.879,-215.426"/>
</g>
<!-- Node15 -->
<g id="node15" class="node"><title>Node15</title>
<g id="a_node15"><a xlink:href="../../d1/dfc/classback_end_1_1_rule_set.html#a603d39da71653ea4bbdadf3d78978981" target="_top" xlink:title="backEnd.RuleSet.initialize\lPatch">
<polygon fill="white" stroke="black" points="796.5,-137 796.5,-167 933.5,-167 933.5,-137 796.5,-137"/>
<text text-anchor="start" x="804.5" y="-155" font-family="Helvetica,sans-Serif" font-size="10.00">backEnd.RuleSet.initialize</text>
<text text-anchor="middle" x="865" y="-144" font-family="Helvetica,sans-Serif" font-size="10.00">Patch</text>
</a>
</g>
</g>
<!-- Node14&#45;&gt;Node15 -->
<g id="edge17" class="edge"><title>Node14&#45;&gt;Node15</title>
<path fill="none" stroke="midnightblue" d="M726.236,-147.597C745.828,-148.223 766.715,-148.89 786.148,-149.512"/>
<polygon fill="midnightblue" stroke="midnightblue" points="786.056,-153.01 796.163,-149.832 786.28,-146.014 786.056,-153.01"/>
</g>
<!-- Node16 -->
<g id="node16" class="node"><title>Node16</title>
<g id="a_node16"><a xlink:href="../../db/d5e/classback_end_1_1_patch.html#ac9c7bf582f9e7aec34492785fea4cf68" target="_top" xlink:title="backEnd.Patch.fill">
<polygon fill="white" stroke="black" points="1035.5,-142.5 1035.5,-161.5 1134.5,-161.5 1134.5,-142.5 1035.5,-142.5"/>
<text text-anchor="middle" x="1085" y="-149.5" font-family="Helvetica,sans-Serif" font-size="10.00">backEnd.Patch.fill</text>
</a>
</g>
</g>
<!-- Node15&#45;&gt;Node16 -->
<g id="edge18" class="edge"><title>Node15&#45;&gt;Node16</title>
<path fill="none" stroke="midnightblue" d="M933.782,-152C963.058,-152 996.988,-152 1025.18,-152"/>
<polygon fill="midnightblue" stroke="midnightblue" points="1025.29,-155.5 1035.29,-152 1025.29,-148.5 1025.29,-155.5"/>
</g>
<!-- Node18 -->
<g id="node18" class="node"><title>Node18</title>
<g id="a_node18"><a xlink:href="../../dc/da1/classfront_end_1_1_animator_loop.html#aa8be847f0f9efee238193322c5ab9f5b" target="_top" xlink:title="frontEnd.AnimatorLoop.add\lCellsToGrid">
<polygon fill="white" stroke="black" points="790.5,-88 790.5,-118 939.5,-118 939.5,-88 790.5,-88"/>
<text text-anchor="start" x="798.5" y="-106" font-family="Helvetica,sans-Serif" font-size="10.00">frontEnd.AnimatorLoop.add</text>
<text text-anchor="middle" x="865" y="-95" font-family="Helvetica,sans-Serif" font-size="10.00">CellsToGrid</text>
</a>
</g>
</g>
<!-- Node17&#45;&gt;Node18 -->
<g id="edge20" class="edge"><title>Node17&#45;&gt;Node18</title>
<path fill="none" stroke="midnightblue" d="M716.709,-101.655C736.97,-101.84 759.199,-102.043 780.108,-102.234"/>
<polygon fill="midnightblue" stroke="midnightblue" points="780.221,-105.735 790.252,-102.327 780.285,-98.7352 780.221,-105.735"/>
</g>
<!-- Node19 -->
<g id="node19" class="node"><title>Node19</title>
<g id="a_node19"><a xlink:href="../../d4/d6c/classshape_factories_1_1_shape_factory.html#a7a14b33c28eb5951679f13f21633bdf4" target="_top" xlink:title="shapeFactories.ShapeFactory.make\lShape">
<polygon fill="white" stroke="black" points="992.5,-91 992.5,-121 1177.5,-121 1177.5,-91 992.5,-91"/>
<text text-anchor="start" x="1000.5" y="-109" font-family="Helvetica,sans-Serif" font-size="10.00">shapeFactories.ShapeFactory.make</text>
<text text-anchor="middle" x="1085" y="-98" font-family="Helvetica,sans-Serif" font-size="10.00">Shape</text>
</a>
</g>
</g>
<!-- Node18&#45;&gt;Node19 -->
<g id="edge21" class="edge"><title>Node18&#45;&gt;Node19</title>
<path fill="none" stroke="midnightblue" d="M939.501,-104.011C953.128,-104.199 967.586,-104.398 981.885,-104.595"/>
<polygon fill="midnightblue" stroke="midnightblue" points="982.208,-108.099 992.255,-104.737 982.304,-101.1 982.208,-108.099"/>
</g>
<!-- Node22 -->
<g id="node22" class="node"><title>Node22</title>
<g id="a_node22"><a xlink:href="../../d4/d6c/classshape_factories_1_1_shape_factory.html#a6dbdc6b9de19c9685fc9c2361d982b2f" target="_top" xlink:title="shapeFactories.ShapeFactory.move">
<polygon fill="white" stroke="black" points="992.5,-52.5 992.5,-71.5 1177.5,-71.5 1177.5,-52.5 992.5,-52.5"/>
<text text-anchor="middle" x="1085" y="-59.5" font-family="Helvetica,sans-Serif" font-size="10.00">shapeFactories.ShapeFactory.move</text>
</a>
</g>
</g>
<!-- Node18&#45;&gt;Node22 -->
<g id="edge24" class="edge"><title>Node18&#45;&gt;Node22</title>
<path fill="none" stroke="midnightblue" d="M939.501,-89.1764C966.782,-84.0456 997.393,-78.2885 1023.39,-73.3983"/>
<polygon fill="midnightblue" stroke="midnightblue" points="1024.31,-76.7883 1033.49,-71.5002 1023.01,-69.9089 1024.31,-76.7883"/>
</g>
<!-- Node20 -->
<g id="node20" class="node"><title>Node20</title>
<g id="a_node20"><a xlink:href="../../d4/d6c/classshape_factories_1_1_shape_factory.html#adcf2f7637e2a6ed76a74dceaf986f8a5" target="_top" xlink:title="shapeFactories.ShapeFactory.set\lDimensions">
<polygon fill="white" stroke="black" points="1214.5,-116 1214.5,-146 1387.5,-146 1387.5,-116 1214.5,-116"/>
<text text-anchor="start" x="1222.5" y="-134" font-family="Helvetica,sans-Serif" font-size="10.00">shapeFactories.ShapeFactory.set</text>
<text text-anchor="middle" x="1301" y="-123" font-family="Helvetica,sans-Serif" font-size="10.00">Dimensions</text>
</a>
</g>
</g>
<!-- Node19&#45;&gt;Node20 -->
<g id="edge22" class="edge"><title>Node19&#45;&gt;Node20</title>
<path fill="none" stroke="midnightblue" d="M1177.69,-116.711C1186.51,-117.741 1195.47,-118.788 1204.32,-119.823"/>
<polygon fill="midnightblue" stroke="midnightblue" points="1203.93,-123.3 1214.27,-120.984 1204.74,-116.347 1203.93,-123.3"/>
</g>
<!-- Node21 -->
<g id="node21" class="node"><title>Node21</title>
<g id="a_node21"><a xlink:href="../../d4/d6c/classshape_factories_1_1_shape_factory.html#a02796a37b5651bf8fe6dc075f5e6e444" target="_top" xlink:title="shapeFactories.ShapeFactory.set\lCoords">
<polygon fill="white" stroke="black" points="1214.5,-67 1214.5,-97 1387.5,-97 1387.5,-67 1214.5,-67"/>
<text text-anchor="start" x="1222.5" y="-85" font-family="Helvetica,sans-Serif" font-size="10.00">shapeFactories.ShapeFactory.set</text>
<text text-anchor="middle" x="1301" y="-74" font-family="Helvetica,sans-Serif" font-size="10.00">Coords</text>
</a>
</g>
</g>
<!-- Node19&#45;&gt;Node21 -->
<g id="edge23" class="edge"><title>Node19&#45;&gt;Node21</title>
<path fill="none" stroke="midnightblue" d="M1177.69,-95.7174C1186.51,-94.7283 1195.47,-93.7233 1204.32,-92.7301"/>
<polygon fill="midnightblue" stroke="midnightblue" points="1204.72,-96.2079 1214.27,-91.6151 1203.94,-89.2515 1204.72,-96.2079"/>
</g>
<!-- Node24 -->
<g id="node24" class="node"><title>Node24</title>
<g id="a_node24"><a xlink:href="../../d0/d87/classfront_end_1_1_x_m_l_handler.html#a4946a8ebfe5de06e04a84fee47d14a36" target="_top" xlink:title="frontEnd.XMLHandler.read\lParameters">
<polygon fill="white" stroke="black" points="794.5,-39 794.5,-69 935.5,-69 935.5,-39 794.5,-39"/>
<text text-anchor="start" x="802.5" y="-57" font-family="Helvetica,sans-Serif" font-size="10.00">frontEnd.XMLHandler.read</text>
<text text-anchor="middle" x="865" y="-46" font-family="Helvetica,sans-Serif" font-size="10.00">Parameters</text>
</a>
</g>
</g>
<!-- Node23&#45;&gt;Node24 -->
<g id="edge26" class="edge"><title>Node23&#45;&gt;Node24</title>
<path fill="none" stroke="midnightblue" d="M714.594,-54.6822C736.642,-54.5815 761.191,-54.4694 783.915,-54.3657"/>
<polygon fill="midnightblue" stroke="midnightblue" points="784.228,-57.8644 794.211,-54.3187 784.196,-50.8645 784.228,-57.8644"/>
</g>
<!-- Node25 -->
<g id="node25" class="node"><title>Node25</title>
<g id="a_node25"><a xlink:href="../../d0/d87/classfront_end_1_1_x_m_l_handler.html#ae0df3c17a5ff74491584286b4e830fba" target="_top" xlink:title="frontEnd.XMLHandler.readGrid">
<polygon fill="white" stroke="black" points="784.5,-0.5 784.5,-19.5 945.5,-19.5 945.5,-0.5 784.5,-0.5"/>
<text text-anchor="middle" x="865" y="-7.5" font-family="Helvetica,sans-Serif" font-size="10.00">frontEnd.XMLHandler.readGrid</text>
</a>
</g>
</g>
<!-- Node23&#45;&gt;Node25 -->
<g id="edge27" class="edge"><title>Node23&#45;&gt;Node25</title>
<path fill="none" stroke="midnightblue" d="M691.838,-45.4496C706.609,-42.4328 722.987,-39.0825 738,-36 760.855,-31.3074 786.036,-26.1155 807.841,-21.613"/>
<polygon fill="midnightblue" stroke="midnightblue" points="808.839,-24.9809 817.924,-19.5304 807.423,-18.1256 808.839,-24.9809"/>
</g>
</g>
</svg>
        <g id="navigator" transform="translate(0 0)" fill="#404254">
                <rect fill="#f2f5e9" fill-opacity="0.5" stroke="#606060" stroke-width=".5" x="0" y="0" width="60" height="60"/>
                <use id="zoomplus" xlink:href="#zoomPlus" x="17" y="9" onmousedown="handleZoom(evt,'in')"/>
                <use id="zoomminus" xlink:href="#zoomMin" x="42" y="9" onmousedown="handleZoom(evt,'out')"/>
                <use id="reset" xlink:href="#resetDef" x="30" y="36" onmousedown="handleReset()"/>
                <g id="arrowUp" xlink:href="#dirArrow" transform="translate(30 24)" onmousedown="handlePan(0,-1)">
                  <use xlink:href="#rim" fill="#404040">
                        <set attributeName="fill" to="#808080" begin="arrowUp.mouseover" end="arrowUp.mouseout"/>
                  </use>
                  <path fill="none" stroke="white" stroke-width="1.5" d="M0,-3.0v7 M-2.5,-0.5L0,-3.0L2.5,-0.5"/>
                </g>
                <g id="arrowRight" xlink:href="#dirArrow" transform="rotate(90) translate(36 -43)" onmousedown="handlePan(1,0)">
                  <use xlink:href="#rim" fill="#404040">
                        <set attributeName="fill" to="#808080" begin="arrowRight.mouseover" end="arrowRight.mouseout"/>
                  </use>
                  <path fill="none" stroke="white" stroke-width="1.5" d="M0,-3.0v7 M-2.5,-0.5L0,-3.0L2.5,-0.5"/>
                </g>
                <g id="arrowDown" xlink:href="#dirArrow" transform="rotate(180) translate(-30 -48)" onmousedown="handlePan(0,1)">
                  <use xlink:href="#rim" fill="#404040">
                        <set attributeName="fill" to="#808080" begin="arrowDown.mouseover" end="arrowDown.mouseout"/>
                  </use>
                  <path fill="none" stroke="white" stroke-width="1.5" d="M0,-3.0v7 M-2.5,-0.5L0,-3.0L2.5,-0.5"/>
                </g>
                <g id="arrowLeft" xlink:href="#dirArrow" transform="rotate(270) translate(-36 17)" onmousedown="handlePan(-1,0)">
                  <use xlink:href="#rim" fill="#404040">
                        <set attributeName="fill" to="#808080" begin="arrowLeft.mouseover" end="arrowLeft.mouseout"/>
                  </use>
                  <path fill="none" stroke="white" stroke-width="1.5" d="M0,-3.0v7 M-2.5,-0.5L0,-3.0L2.5,-0.5"/>
                </g>
        </g>
        <svg viewBox="0 0 15 15" width="100%" height="30px" preserveAspectRatio="xMaxYMin meet">
         <g id="arrow_out" transform="scale(0.3 0.3)">
          <a xlink:href="classfront_end_1_1_main_a8e2e836903a64069e4283fa66309c704_cgraph_org.svg" target="_base">
           <rect id="button" ry="5" rx="5" y="6" x="6" height="38" width="38"
                fill="#f2f5e9" fill-opacity="0.5" stroke="#606060" stroke-width="1.0"/>
           <path id="arrow"
             d="M 11.500037,31.436501 C 11.940474,20.09759 22.043105,11.32322 32.158766,21.979434 L 37.068811,17.246167 C 37.068811,17.246167 37.088388,32 37.088388,32 L 22.160133,31.978069 C 22.160133,31.978069 26.997745,27.140456 26.997745,27.140456 C 18.528582,18.264221 13.291696,25.230495 11.500037,31.436501 z"
             style="fill:#404040;"/>
          </a>
         </g>
        </svg>
</svg>
