<?xml version="1.0" encoding="UTF-8" standalone="no"?>
<!DOCTYPE svg PUBLIC "-//W3C//DTD SVG 1.1//EN"
 "http://www.w3.org/Graphics/SVG/1.1/DTD/svg11.dtd">
<!-- Generated by graphviz version 2.36.0 (20140111.2315)
 -->
<!-- Title: backEnd.RuleSet.getNeighbors Pages: 1 -->
<svg width="388pt" height="66pt"
 viewBox="0.00 0.00 388.00 66.00" xmlns="http://www.w3.org/2000/svg" xmlns:xlink="http://www.w3.org/1999/xlink">
<g id="graph0" class="graph" transform="scale(1 1) rotate(0) translate(4 62)">
<title>backEnd.RuleSet.getNeighbors</title>
<polygon fill="white" stroke="none" points="-4,4 -4,-62 384,-62 384,4 -4,4"/>
<!-- Node1 -->
<g id="node1" class="node"><title>Node1</title>
<polygon fill="#bfbfbf" stroke="black" points="0,-19.5 0,-38.5 164,-38.5 164,-19.5 0,-19.5"/>
<text text-anchor="middle" x="82" y="-26.5" font-family="Helvetica,sans-Serif" font-size="10.00">backEnd.RuleSet.getNeighbors</text>
</g>
<!-- Node2 -->
<g id="node2" class="node"><title>Node2</title>
<g id="a_node2"><a xlink:href="../../d1/dfc/classback_end_1_1_rule_set.html#a625f1cd5d7e0e5d6acf7d47e28beb41e" target="_top" xlink:title="backEnd.RuleSet.addWrapArounds">
<polygon fill="white" stroke="black" points="200,-38.5 200,-57.5 380,-57.5 380,-38.5 200,-38.5"/>
<text text-anchor="middle" x="290" y="-45.5" font-family="Helvetica,sans-Serif" font-size="10.00">backEnd.RuleSet.addWrapArounds</text>
</a>
</g>
</g>
<!-- Node1&#45;&gt;Node2 -->
<g id="edge1" class="edge"><title>Node1&#45;&gt;Node2</title>
<path fill="none" stroke="midnightblue" d="M164.121,-36.482C172.537,-37.2583 181.158,-38.0534 189.743,-38.8453"/>
<polygon fill="midnightblue" stroke="midnightblue" points="189.513,-42.3388 199.792,-39.7721 190.156,-35.3684 189.513,-42.3388"/>
</g>
<!-- Node3 -->
<g id="node3" class="node"><title>Node3</title>
<g id="a_node3"><a xlink:href="../../d1/dfc/classback_end_1_1_rule_set.html#ace087d13be0cf3e1f723a663d0e06d8b" target="_top" xlink:title="backEnd.RuleSet.isOutside">
<polygon fill="white" stroke="black" points="218.5,-0.5 218.5,-19.5 361.5,-19.5 361.5,-0.5 218.5,-0.5"/>
<text text-anchor="middle" x="290" y="-7.5" font-family="Helvetica,sans-Serif" font-size="10.00">backEnd.RuleSet.isOutside</text>
</a>
</g>
</g>
<!-- Node1&#45;&gt;Node3 -->
<g id="edge2" class="edge"><title>Node1&#45;&gt;Node3</title>
<path fill="none" stroke="midnightblue" d="M164.121,-21.518C178.526,-20.1893 193.531,-18.8054 207.934,-17.4769"/>
<polygon fill="midnightblue" stroke="midnightblue" points="208.663,-20.9246 218.3,-16.5209 208.02,-13.9542 208.663,-20.9246"/>
</g>
</g>
</svg>
