<?xml version="1.0" encoding="UTF-8" standalone="no"?>
<!DOCTYPE svg PUBLIC "-//W3C//DTD SVG 1.1//EN"
 "http://www.w3.org/Graphics/SVG/1.1/DTD/svg11.dtd">
<!-- Generated by graphviz version 2.36.0 (20140111.2315)
 -->
<!-- Title: backEnd.RuleSet.addDirectWrapArounds Pages: 1 -->
<svg width="920pt" height="71pt"
 viewBox="0.00 0.00 920.00 71.00" xmlns="http://www.w3.org/2000/svg" xmlns:xlink="http://www.w3.org/1999/xlink">
<g id="graph0" class="graph" transform="scale(1 1) rotate(0) translate(4 67)">
<title>backEnd.RuleSet.addDirectWrapArounds</title>
<polygon fill="white" stroke="none" points="-4,4 -4,-67 916,-67 916,4 -4,4"/>
<!-- Node1 -->
<g id="node1" class="node"><title>Node1</title>
<polygon fill="#bfbfbf" stroke="black" points="0,-14 0,-44 146,-44 146,-14 0,-14"/>
<text text-anchor="start" x="8" y="-32" font-family="Helvetica,sans-Serif" font-size="10.00">backEnd.RuleSet.addDirect</text>
<text text-anchor="middle" x="73" y="-21" font-family="Helvetica,sans-Serif" font-size="10.00">WrapArounds</text>
</g>
<!-- Node2 -->
<g id="node2" class="node"><title>Node2</title>
<g id="a_node2"><a xlink:href="../../d1/dfc/classback_end_1_1_rule_set.html#ae5129c070ec6dac5e9d135b8d4ecb521" target="_top" xlink:title="backEnd.RuleSet.getDirect\lNeighbors">
<polygon fill="white" stroke="black" points="182.5,-14 182.5,-44 325.5,-44 325.5,-14 182.5,-14"/>
<text text-anchor="start" x="190.5" y="-32" font-family="Helvetica,sans-Serif" font-size="10.00">backEnd.RuleSet.getDirect</text>
<text text-anchor="middle" x="254" y="-21" font-family="Helvetica,sans-Serif" font-size="10.00">Neighbors</text>
</a>
</g>
</g>
<!-- Node1&#45;&gt;Node2 -->
<g id="edge1" class="edge"><title>Node1&#45;&gt;Node2</title>
<path fill="none" stroke="midnightblue" d="M156.197,-29C164.909,-29 173.714,-29 182.279,-29"/>
<polygon fill="midnightblue" stroke="midnightblue" points="156.032,-25.5001 146.032,-29 156.032,-32.5001 156.032,-25.5001"/>
</g>
<!-- Node3 -->
<g id="node3" class="node"><title>Node3</title>
<g id="a_node3"><a xlink:href="../../d0/d96/classback_end_1_1_predator_prey.html#aecfa40f92acce8997492d12cefd08b48" target="_top" xlink:title="backEnd.PredatorPrey.getNext">
<polygon fill="white" stroke="black" points="365,-38.5 365,-57.5 527,-57.5 527,-38.5 365,-38.5"/>
<text text-anchor="middle" x="446" y="-45.5" font-family="Helvetica,sans-Serif" font-size="10.00">backEnd.PredatorPrey.getNext</text>
</a>
</g>
</g>
<!-- Node2&#45;&gt;Node3 -->
<g id="edge2" class="edge"><title>Node2&#45;&gt;Node3</title>
<path fill="none" stroke="midnightblue" d="M335.731,-37.0731C345.395,-38.0395 355.262,-39.0262 364.918,-39.9918"/>
<polygon fill="midnightblue" stroke="midnightblue" points="336.048,-33.5874 325.749,-36.0749 335.351,-40.5527 336.048,-33.5874"/>
</g>
<!-- Node6 -->
<g id="node6" class="node"><title>Node6</title>
<g id="a_node6"><a xlink:href="../../de/d5a/classback_end_1_1_spreading_fire.html#a14b959c163a3a935ef7856c045b13eeb" target="_top" xlink:title="backEnd.SpreadingFire.getNext">
<polygon fill="white" stroke="black" points="362.5,-0.5 362.5,-19.5 529.5,-19.5 529.5,-0.5 362.5,-0.5"/>
<text text-anchor="middle" x="446" y="-7.5" font-family="Helvetica,sans-Serif" font-size="10.00">backEnd.SpreadingFire.getNext</text>
</a>
</g>
</g>
<!-- Node2&#45;&gt;Node6 -->
<g id="edge5" class="edge"><title>Node2&#45;&gt;Node6</title>
<path fill="none" stroke="midnightblue" d="M335.92,-20.908C344.663,-20.0337 353.569,-19.1431 362.332,-18.2668"/>
<polygon fill="midnightblue" stroke="midnightblue" points="335.351,-17.4473 325.749,-21.9251 336.048,-24.4126 335.351,-17.4473"/>
</g>
<!-- Node4 -->
<g id="node4" class="node"><title>Node4</title>
<g id="a_node4"><a xlink:href="../../d0/d96/classback_end_1_1_predator_prey.html#aa032c15c617e2da8e1ab1a065413fb06" target="_top" xlink:title="backEnd.PredatorPrey.make\lNextGrid">
<polygon fill="white" stroke="black" points="566.5,-33 566.5,-63 717.5,-63 717.5,-33 566.5,-33"/>
<text text-anchor="start" x="574.5" y="-51" font-family="Helvetica,sans-Serif" font-size="10.00">backEnd.PredatorPrey.make</text>
<text text-anchor="middle" x="642" y="-40" font-family="Helvetica,sans-Serif" font-size="10.00">NextGrid</text>
</a>
</g>
</g>
<!-- Node3&#45;&gt;Node4 -->
<g id="edge3" class="edge"><title>Node3&#45;&gt;Node4</title>
<path fill="none" stroke="midnightblue" d="M537.186,-48C546.982,-48 556.872,-48 566.452,-48"/>
<polygon fill="midnightblue" stroke="midnightblue" points="537.027,-44.5001 527.027,-48 537.027,-51.5001 537.027,-44.5001"/>
</g>
<!-- Node5 -->
<g id="node5" class="node"><title>Node5</title>
<g id="a_node5"><a xlink:href="../../d0/d96/classback_end_1_1_predator_prey.html#acf219a8748ddb0ed02c2202a3b3d6b37" target="_top" xlink:title="backEnd.PredatorPrey.update">
<polygon fill="white" stroke="black" points="754,-38.5 754,-57.5 912,-57.5 912,-38.5 754,-38.5"/>
<text text-anchor="middle" x="833" y="-45.5" font-family="Helvetica,sans-Serif" font-size="10.00">backEnd.PredatorPrey.update</text>
</a>
</g>
</g>
<!-- Node4&#45;&gt;Node5 -->
<g id="edge4" class="edge"><title>Node4&#45;&gt;Node5</title>
<path fill="none" stroke="midnightblue" d="M727.795,-48C736.455,-48 745.225,-48 753.809,-48"/>
<polygon fill="midnightblue" stroke="midnightblue" points="727.698,-44.5001 717.698,-48 727.698,-51.5001 727.698,-44.5001"/>
</g>
</g>
</svg>
