<?xml version="1.0" encoding="UTF-8" standalone="no"?>
<!DOCTYPE svg PUBLIC "-//W3C//DTD SVG 1.1//EN"
 "http://www.w3.org/Graphics/SVG/1.1/DTD/svg11.dtd">
<!-- Generated by graphviz version 2.36.0 (20140111.2315)
 -->
<!-- Title: backEnd.RuleSet.addWrapArounds Pages: 1 -->
<!--zoomable 154 -->
<svg id="main" version="1.1" xmlns="http://www.w3.org/2000/svg" xmlns:xlink="http://www.w3.org/1999/xlink" xml:space="preserve" onload="init(evt)">
<style type="text/css"><![CDATA[
.edge:hover path { stroke: red; }
.edge:hover polygon { stroke: red; fill: red; }
]]></style>
<script type="text/javascript"><![CDATA[
var edges = document.getElementsByTagName('g');
if (edges && edges.length) {
  for (var i=0;i<edges.length;i++) {
    if (edges[i].id.substr(0,4)=='edge') {
      edges[i].setAttribute('class','edge');
    }
  }
}
]]></script>
        <defs>
                <circle id="rim" cx="0" cy="0" r="7"/>
                <circle id="rim2" cx="0" cy="0" r="3.5"/>
                <g id="zoomPlus">
                        <use xlink:href="#rim" fill="#404040">
                                <set attributeName="fill" to="#808080" begin="zoomplus.mouseover" end="zoomplus.mouseout"/>
                        </use>
                        <path d="M-4,0h8M0,-4v8" fill="none" stroke="white" stroke-width="1.5" pointer-events="none"/>
                </g>
                <g id="zoomMin">
                        <use xlink:href="#rim" fill="#404040">
                                <set attributeName="fill" to="#808080" begin="zoomminus.mouseover" end="zoomminus.mouseout"/>
                        </use>
                        <path d="M-4,0h8" fill="none" stroke="white" stroke-width="1.5" pointer-events="none"/>
                </g>
                <g id="dirArrow">
                        <path fill="none" stroke="white" stroke-width="1.5" d="M0,-3.0v7 M-2.5,-0.5L0,-3.0L2.5,-0.5"/>
                </g>
               <g id="resetDef">
                       <use xlink:href="#rim2" fill="#404040">
                               <set attributeName="fill" to="#808080" begin="reset.mouseover" end="reset.mouseout"/>
                       </use>
               </g>
        </defs>

<script type="text/javascript">
var viewWidth = 1170;
var viewHeight = 154;
var sectionId = 'dynsection-4';
</script>
<script xlink:href="../../svgpan.js"/>
<svg id="graph" class="graph">
<g id="viewport">
<title>backEnd.RuleSet.addWrapArounds</title>
<polygon fill="white" stroke="none" points="-4,4 -4,-150 1166,-150 1166,4 -4,4"/>
<!-- Node1 -->
<g id="node1" class="node"><title>Node1</title>
<polygon fill="#bfbfbf" stroke="black" points="0,-66.5 0,-85.5 180,-85.5 180,-66.5 0,-66.5"/>
<text text-anchor="middle" x="90" y="-73.5" font-family="Helvetica,sans-Serif" font-size="10.00">backEnd.RuleSet.addWrapArounds</text>
</g>
<!-- Node2 -->
<g id="node2" class="node"><title>Node2</title>
<g id="a_node2"><a xlink:href="../../d1/dfc/classback_end_1_1_rule_set.html#ac09e709af5a347c28f6cafb0aa4f0d34" target="_top" xlink:title="backEnd.RuleSet.getNeighbors">
<polygon fill="white" stroke="black" points="216,-66.5 216,-85.5 380,-85.5 380,-66.5 216,-66.5"/>
<text text-anchor="middle" x="298" y="-73.5" font-family="Helvetica,sans-Serif" font-size="10.00">backEnd.RuleSet.getNeighbors</text>
</a>
</g>
</g>
<!-- Node1&#45;&gt;Node2 -->
<g id="edge1" class="edge"><title>Node1&#45;&gt;Node2</title>
<path fill="none" stroke="midnightblue" d="M190.202,-76C198.785,-76 207.403,-76 215.818,-76"/>
<polygon fill="midnightblue" stroke="midnightblue" points="190.157,-72.5001 180.156,-76 190.156,-79.5001 190.157,-72.5001"/>
</g>
<!-- Node3 -->
<g id="node3" class="node"><title>Node3</title>
<g id="a_node3"><a xlink:href="../../d5/dcb/classback_end_1_1_game_of_life.html#af98fae7f8d156a65231b2d63bf5e27fb" target="_top" xlink:title="backEnd.GameOfLife.getNext">
<polygon fill="white" stroke="black" points="417,-126.5 417,-145.5 575,-145.5 575,-126.5 417,-126.5"/>
<text text-anchor="middle" x="496" y="-133.5" font-family="Helvetica,sans-Serif" font-size="10.00">backEnd.GameOfLife.getNext</text>
</a>
</g>
</g>
<!-- Node2&#45;&gt;Node3 -->
<g id="edge2" class="edge"><title>Node2&#45;&gt;Node3</title>
<path fill="none" stroke="midnightblue" d="M339.363,-88.4582C361.906,-95.4062 390.507,-104.206 416,-112 431.627,-116.778 449.002,-122.06 463.47,-126.449"/>
<polygon fill="midnightblue" stroke="midnightblue" points="340.371,-85.1063 329.783,-85.5045 338.308,-91.7956 340.371,-85.1063"/>
</g>
<!-- Node4 -->
<g id="node4" class="node"><title>Node4</title>
<g id="a_node4"><a xlink:href="../../d0/d96/classback_end_1_1_predator_prey.html#ac9689f0a85de526bd6d2f1e23657dfe8" target="_top" xlink:title="backEnd.PredatorPrey.breed\lIfNecessary">
<polygon fill="white" stroke="black" points="816,-86 816,-116 968,-116 968,-86 816,-86"/>
<text text-anchor="start" x="824" y="-104" font-family="Helvetica,sans-Serif" font-size="10.00">backEnd.PredatorPrey.breed</text>
<text text-anchor="middle" x="892" y="-93" font-family="Helvetica,sans-Serif" font-size="10.00">IfNecessary</text>
</a>
</g>
</g>
<!-- Node2&#45;&gt;Node4 -->
<g id="edge3" class="edge"><title>Node2&#45;&gt;Node4</title>
<path fill="none" stroke="midnightblue" d="M390.414,-79.8604C507.174,-84.7911 707.075,-93.2329 815.579,-97.815"/>
<polygon fill="midnightblue" stroke="midnightblue" points="390.213,-76.3489 380.074,-79.4237 389.917,-83.3426 390.213,-76.3489"/>
</g>
<!-- Node6 -->
<g id="node6" class="node"><title>Node6</title>
<g id="a_node6"><a xlink:href="../../d1/dfc/classback_end_1_1_rule_set.html#ae5129c070ec6dac5e9d135b8d4ecb521" target="_top" xlink:title="backEnd.RuleSet.getDirect\lNeighbors">
<polygon fill="white" stroke="black" points="424.5,-39 424.5,-69 567.5,-69 567.5,-39 424.5,-39"/>
<text text-anchor="start" x="432.5" y="-57" font-family="Helvetica,sans-Serif" font-size="10.00">backEnd.RuleSet.getDirect</text>
<text text-anchor="middle" x="496" y="-46" font-family="Helvetica,sans-Serif" font-size="10.00">Neighbors</text>
</a>
</g>
</g>
<!-- Node2&#45;&gt;Node6 -->
<g id="edge5" class="edge"><title>Node2&#45;&gt;Node6</title>
<path fill="none" stroke="midnightblue" d="M390.149,-65.769C401.599,-64.4838 413.173,-63.1846 424.244,-61.942"/>
<polygon fill="midnightblue" stroke="midnightblue" points="389.683,-62.2993 380.136,-66.893 390.464,-69.2556 389.683,-62.2993"/>
</g>
<!-- Node10 -->
<g id="node10" class="node"><title>Node10</title>
<g id="a_node10"><a xlink:href="../../d9/d2e/classback_end_1_1_segregation.html#a306bcff5f217b04d83849a3cc77bddfb" target="_top" xlink:title="backEnd.Segregation.getNext">
<polygon fill="white" stroke="black" points="416,-0.5 416,-19.5 576,-19.5 576,-0.5 416,-0.5"/>
<text text-anchor="middle" x="496" y="-7.5" font-family="Helvetica,sans-Serif" font-size="10.00">backEnd.Segregation.getNext</text>
</a>
</g>
</g>
<!-- Node2&#45;&gt;Node10 -->
<g id="edge10" class="edge"><title>Node2&#45;&gt;Node10</title>
<path fill="none" stroke="midnightblue" d="M330.512,-62.3537C353.84,-52.5611 386.548,-39.4756 416,-30 427.987,-26.1435 441.187,-22.5512 453.309,-19.5054"/>
<polygon fill="midnightblue" stroke="midnightblue" points="328.969,-59.2063 321.125,-66.3288 331.698,-65.6521 328.969,-59.2063"/>
</g>
<!-- Node5 -->
<g id="node5" class="node"><title>Node5</title>
<g id="a_node5"><a xlink:href="../../d0/d96/classback_end_1_1_predator_prey.html#acf219a8748ddb0ed02c2202a3b3d6b37" target="_top" xlink:title="backEnd.PredatorPrey.update">
<polygon fill="white" stroke="black" points="1004,-66.5 1004,-85.5 1162,-85.5 1162,-66.5 1004,-66.5"/>
<text text-anchor="middle" x="1083" y="-73.5" font-family="Helvetica,sans-Serif" font-size="10.00">backEnd.PredatorPrey.update</text>
</a>
</g>
</g>
<!-- Node4&#45;&gt;Node5 -->
<g id="edge4" class="edge"><title>Node4&#45;&gt;Node5</title>
<path fill="none" stroke="midnightblue" d="M978.346,-89.7108C988.954,-88.3077 999.717,-86.884 1010.09,-85.5113"/>
<polygon fill="midnightblue" stroke="midnightblue" points="977.696,-86.2663 968.241,-91.0475 978.614,-93.2059 977.696,-86.2663"/>
</g>
<!-- Node7 -->
<g id="node7" class="node"><title>Node7</title>
<g id="a_node7"><a xlink:href="../../d0/d96/classback_end_1_1_predator_prey.html#aecfa40f92acce8997492d12cefd08b48" target="_top" xlink:title="backEnd.PredatorPrey.getNext">
<polygon fill="white" stroke="black" points="615,-44.5 615,-63.5 777,-63.5 777,-44.5 615,-44.5"/>
<text text-anchor="middle" x="696" y="-51.5" font-family="Helvetica,sans-Serif" font-size="10.00">backEnd.PredatorPrey.getNext</text>
</a>
</g>
</g>
<!-- Node6&#45;&gt;Node7 -->
<g id="edge6" class="edge"><title>Node6&#45;&gt;Node7</title>
<path fill="none" stroke="midnightblue" d="M577.827,-54C590.077,-54 602.712,-54 614.946,-54"/>
<polygon fill="midnightblue" stroke="midnightblue" points="577.644,-50.5001 567.644,-54 577.644,-57.5001 577.644,-50.5001"/>
</g>
<!-- Node9 -->
<g id="node9" class="node"><title>Node9</title>
<g id="a_node9"><a xlink:href="../../de/d5a/classback_end_1_1_spreading_fire.html#a14b959c163a3a935ef7856c045b13eeb" target="_top" xlink:title="backEnd.SpreadingFire.getNext">
<polygon fill="white" stroke="black" points="612.5,-6.5 612.5,-25.5 779.5,-25.5 779.5,-6.5 612.5,-6.5"/>
<text text-anchor="middle" x="696" y="-13.5" font-family="Helvetica,sans-Serif" font-size="10.00">backEnd.SpreadingFire.getNext</text>
</a>
</g>
</g>
<!-- Node6&#45;&gt;Node9 -->
<g id="edge9" class="edge"><title>Node6&#45;&gt;Node9</title>
<path fill="none" stroke="midnightblue" d="M577.687,-38.5146C600.546,-34.1275 624.755,-29.4814 645.206,-25.5563"/>
<polygon fill="midnightblue" stroke="midnightblue" points="576.805,-35.1199 567.644,-40.4421 578.124,-41.9945 576.805,-35.1199"/>
</g>
<!-- Node8 -->
<g id="node8" class="node"><title>Node8</title>
<g id="a_node8"><a xlink:href="../../d0/d96/classback_end_1_1_predator_prey.html#aa032c15c617e2da8e1ab1a065413fb06" target="_top" xlink:title="backEnd.PredatorPrey.make\lNextGrid">
<polygon fill="white" stroke="black" points="816.5,-37 816.5,-67 967.5,-67 967.5,-37 816.5,-37"/>
<text text-anchor="start" x="824.5" y="-55" font-family="Helvetica,sans-Serif" font-size="10.00">backEnd.PredatorPrey.make</text>
<text text-anchor="middle" x="892" y="-44" font-family="Helvetica,sans-Serif" font-size="10.00">NextGrid</text>
</a>
</g>
</g>
<!-- Node7&#45;&gt;Node8 -->
<g id="edge7" class="edge"><title>Node7&#45;&gt;Node8</title>
<path fill="none" stroke="midnightblue" d="M787.186,-53.0703C796.982,-52.9693 806.872,-52.8673 816.452,-52.7685"/>
<polygon fill="midnightblue" stroke="midnightblue" points="786.991,-49.572 777.027,-53.175 787.063,-56.5716 786.991,-49.572"/>
</g>
<!-- Node8&#45;&gt;Node5 -->
<g id="edge8" class="edge"><title>Node8&#45;&gt;Node5</title>
<path fill="none" stroke="midnightblue" d="M977.759,-62.763C987.478,-63.9972 997.336,-65.249 1006.92,-66.4655"/>
<polygon fill="midnightblue" stroke="midnightblue" points="978.059,-59.2731 967.698,-61.4854 977.177,-66.2174 978.059,-59.2731"/>
</g>
</g>
</svg>
        <g id="navigator" transform="translate(0 0)" fill="#404254">
                <rect fill="#f2f5e9" fill-opacity="0.5" stroke="#606060" stroke-width=".5" x="0" y="0" width="60" height="60"/>
                <use id="zoomplus" xlink:href="#zoomPlus" x="17" y="9" onmousedown="handleZoom(evt,'in')"/>
                <use id="zoomminus" xlink:href="#zoomMin" x="42" y="9" onmousedown="handleZoom(evt,'out')"/>
                <use id="reset" xlink:href="#resetDef" x="30" y="36" onmousedown="handleReset()"/>
                <g id="arrowUp" xlink:href="#dirArrow" transform="translate(30 24)" onmousedown="handlePan(0,-1)">
                  <use xlink:href="#rim" fill="#404040">
                        <set attributeName="fill" to="#808080" begin="arrowUp.mouseover" end="arrowUp.mouseout"/>
                  </use>
                  <path fill="none" stroke="white" stroke-width="1.5" d="M0,-3.0v7 M-2.5,-0.5L0,-3.0L2.5,-0.5"/>
                </g>
                <g id="arrowRight" xlink:href="#dirArrow" transform="rotate(90) translate(36 -43)" onmousedown="handlePan(1,0)">
                  <use xlink:href="#rim" fill="#404040">
                        <set attributeName="fill" to="#808080" begin="arrowRight.mouseover" end="arrowRight.mouseout"/>
                  </use>
                  <path fill="none" stroke="white" stroke-width="1.5" d="M0,-3.0v7 M-2.5,-0.5L0,-3.0L2.5,-0.5"/>
                </g>
                <g id="arrowDown" xlink:href="#dirArrow" transform="rotate(180) translate(-30 -48)" onmousedown="handlePan(0,1)">
                  <use xlink:href="#rim" fill="#404040">
                        <set attributeName="fill" to="#808080" begin="arrowDown.mouseover" end="arrowDown.mouseout"/>
                  </use>
                  <path fill="none" stroke="white" stroke-width="1.5" d="M0,-3.0v7 M-2.5,-0.5L0,-3.0L2.5,-0.5"/>
                </g>
                <g id="arrowLeft" xlink:href="#dirArrow" transform="rotate(270) translate(-36 17)" onmousedown="handlePan(-1,0)">
                  <use xlink:href="#rim" fill="#404040">
                        <set attributeName="fill" to="#808080" begin="arrowLeft.mouseover" end="arrowLeft.mouseout"/>
                  </use>
                  <path fill="none" stroke="white" stroke-width="1.5" d="M0,-3.0v7 M-2.5,-0.5L0,-3.0L2.5,-0.5"/>
                </g>
        </g>
        <svg viewBox="0 0 15 15" width="100%" height="30px" preserveAspectRatio="xMaxYMin meet">
         <g id="arrow_out" transform="scale(0.3 0.3)">
          <a xlink:href="classback_end_1_1_rule_set_a625f1cd5d7e0e5d6acf7d47e28beb41e_icgraph_org.svg" target="_base">
           <rect id="button" ry="5" rx="5" y="6" x="6" height="38" width="38"
                fill="#f2f5e9" fill-opacity="0.5" stroke="#606060" stroke-width="1.0"/>
           <path id="arrow"
             d="M 11.500037,31.436501 C 11.940474,20.09759 22.043105,11.32322 32.158766,21.979434 L 37.068811,17.246167 C 37.068811,17.246167 37.088388,32 37.088388,32 L 22.160133,31.978069 C 22.160133,31.978069 26.997745,27.140456 26.997745,27.140456 C 18.528582,18.264221 13.291696,25.230495 11.500037,31.436501 z"
             style="fill:#404040;"/>
          </a>
         </g>
        </svg>
</svg>
