<?xml version="1.0" encoding="UTF-8" standalone="no"?>
<!DOCTYPE svg PUBLIC "-//W3C//DTD SVG 1.1//EN"
 "http://www.w3.org/Graphics/SVG/1.1/DTD/svg11.dtd">
<!-- Generated by graphviz version 2.36.0 (20140111.2315)
 -->
<!-- Title: backEnd.RuleSet.setParams Pages: 1 -->
<svg width="1050pt" height="104pt"
 viewBox="0.00 0.00 1050.00 104.00" xmlns="http://www.w3.org/2000/svg" xmlns:xlink="http://www.w3.org/1999/xlink">
<g id="graph0" class="graph" transform="scale(1 1) rotate(0) translate(4 100)">
<title>backEnd.RuleSet.setParams</title>
<polygon fill="white" stroke="none" points="-4,4 -4,-100 1046,-100 1046,4 -4,4"/>
<!-- Node1 -->
<g id="node1" class="node"><title>Node1</title>
<polygon fill="#bfbfbf" stroke="black" points="0,-38.5 0,-57.5 150,-57.5 150,-38.5 0,-38.5"/>
<text text-anchor="middle" x="75" y="-45.5" font-family="Helvetica,sans-Serif" font-size="10.00">backEnd.RuleSet.setParams</text>
</g>
<!-- Node2 -->
<g id="node2" class="node"><title>Node2</title>
<g id="a_node2"><a xlink:href="../../dc/da1/classfront_end_1_1_animator_loop.html#a1f378b18807af5386266685e907aa8c7" target="_top" xlink:title="frontEnd.AnimatorLoop.read\lXMLAndInitializeGrid">
<polygon fill="white" stroke="black" points="186,-33 186,-63 338,-63 338,-33 186,-33"/>
<text text-anchor="start" x="194" y="-51" font-family="Helvetica,sans-Serif" font-size="10.00">frontEnd.AnimatorLoop.read</text>
<text text-anchor="middle" x="262" y="-40" font-family="Helvetica,sans-Serif" font-size="10.00">XMLAndInitializeGrid</text>
</a>
</g>
</g>
<!-- Node1&#45;&gt;Node2 -->
<g id="edge1" class="edge"><title>Node1&#45;&gt;Node2</title>
<path fill="none" stroke="midnightblue" d="M160.184,-48C168.758,-48 177.429,-48 185.897,-48"/>
<polygon fill="midnightblue" stroke="midnightblue" points="160.181,-44.5001 150.181,-48 160.181,-51.5001 160.181,-44.5001"/>
</g>
<!-- Node3 -->
<g id="node3" class="node"><title>Node3</title>
<g id="a_node3"><a xlink:href="../../dd/dbe/classfront_end_1_1_main.html#a7bae3127415fb2ae80975ebc95057e3f" target="_top" xlink:title="frontEnd.Main.readXML">
<polygon fill="white" stroke="black" points="374.5,-38.5 374.5,-57.5 501.5,-57.5 501.5,-38.5 374.5,-38.5"/>
<text text-anchor="middle" x="438" y="-45.5" font-family="Helvetica,sans-Serif" font-size="10.00">frontEnd.Main.readXML</text>
</a>
</g>
</g>
<!-- Node2&#45;&gt;Node3 -->
<g id="edge2" class="edge"><title>Node2&#45;&gt;Node3</title>
<path fill="none" stroke="midnightblue" d="M348.065,-48C356.959,-48 365.88,-48 374.457,-48"/>
<polygon fill="midnightblue" stroke="midnightblue" points="348.054,-44.5001 338.054,-48 348.054,-51.5001 348.054,-44.5001"/>
</g>
<!-- Node4 -->
<g id="node4" class="node"><title>Node4</title>
<g id="a_node4"><a xlink:href="../../dd/dbe/classfront_end_1_1_main.html#a55d59b110825a1cc153a0091a6e5cb99" target="_top" xlink:title="frontEnd.Main.makeMenu">
<polygon fill="white" stroke="black" points="538.5,-76.5 538.5,-95.5 677.5,-95.5 677.5,-76.5 538.5,-76.5"/>
<text text-anchor="middle" x="608" y="-83.5" font-family="Helvetica,sans-Serif" font-size="10.00">frontEnd.Main.makeMenu</text>
</a>
</g>
</g>
<!-- Node3&#45;&gt;Node4 -->
<g id="edge3" class="edge"><title>Node3&#45;&gt;Node4</title>
<path fill="none" stroke="midnightblue" d="M491.276,-59.8243C514.961,-65.1816 542.59,-71.4311 564.911,-76.4799"/>
<polygon fill="midnightblue" stroke="midnightblue" points="491.919,-56.3815 481.393,-57.589 490.375,-63.209 491.919,-56.3815"/>
</g>
<!-- Node6 -->
<g id="node6" class="node"><title>Node6</title>
<g id="a_node6"><a xlink:href="../../dd/dbe/classfront_end_1_1_main.html#a8e2e836903a64069e4283fa66309c704" target="_top" xlink:title="frontEnd.Main.resetSim">
<polygon fill="white" stroke="black" points="543.5,-0.5 543.5,-19.5 672.5,-19.5 672.5,-0.5 543.5,-0.5"/>
<text text-anchor="middle" x="608" y="-7.5" font-family="Helvetica,sans-Serif" font-size="10.00">frontEnd.Main.resetSim</text>
</a>
</g>
</g>
<!-- Node3&#45;&gt;Node6 -->
<g id="edge5" class="edge"><title>Node3&#45;&gt;Node6</title>
<path fill="none" stroke="midnightblue" d="M491.276,-36.1757C514.961,-30.8184 542.59,-24.5689 564.911,-19.5201"/>
<polygon fill="midnightblue" stroke="midnightblue" points="490.375,-32.791 481.393,-38.411 491.919,-39.6185 490.375,-32.791"/>
</g>
<!-- Node5 -->
<g id="node5" class="node"><title>Node5</title>
<g id="a_node5"><a xlink:href="../../dd/dbe/classfront_end_1_1_main.html#ae53f892716dcc60f3f49714496e30c91" target="_top" xlink:title="frontEnd.Main.start">
<polygon fill="white" stroke="black" points="934,-38.5 934,-57.5 1042,-57.5 1042,-38.5 934,-38.5"/>
<text text-anchor="middle" x="988" y="-45.5" font-family="Helvetica,sans-Serif" font-size="10.00">frontEnd.Main.start</text>
</a>
</g>
</g>
<!-- Node4&#45;&gt;Node5 -->
<g id="edge4" class="edge"><title>Node4&#45;&gt;Node5</title>
<path fill="none" stroke="midnightblue" d="M687.845,-83.8939C746.122,-81.5912 827.29,-76.8194 898,-67 914.588,-64.6964 932.698,-61.0429 948.226,-57.5524"/>
<polygon fill="midnightblue" stroke="midnightblue" points="687.462,-80.4058 677.602,-84.2825 687.728,-87.4007 687.462,-80.4058"/>
</g>
<!-- Node7 -->
<g id="node7" class="node"><title>Node7</title>
<g id="a_node7"><a xlink:href="../../dd/dbe/classfront_end_1_1_main.html#a0ff8a007311f8ecce84d4203dc85d669" target="_top" xlink:title="frontEnd.Main.makeParamControls">
<polygon fill="white" stroke="black" points="714.5,-38.5 714.5,-57.5 897.5,-57.5 897.5,-38.5 714.5,-38.5"/>
<text text-anchor="middle" x="806" y="-45.5" font-family="Helvetica,sans-Serif" font-size="10.00">frontEnd.Main.makeParamControls</text>
</a>
</g>
</g>
<!-- Node6&#45;&gt;Node7 -->
<g id="edge6" class="edge"><title>Node6&#45;&gt;Node7</title>
<path fill="none" stroke="midnightblue" d="M668.261,-21.4894C696.227,-26.9114 729.209,-33.3058 755.774,-38.4561"/>
<polygon fill="midnightblue" stroke="midnightblue" points="668.689,-18.0073 658.206,-19.54 667.357,-24.8794 668.689,-18.0073"/>
</g>
<!-- Node8 -->
<g id="node8" class="node"><title>Node8</title>
<g id="a_node8"><a xlink:href="../../dd/dbe/classfront_end_1_1_main.html#a1f4c19654fe78e5ebca54fc26bf43c94" target="_top" xlink:title="frontEnd.Main.useControls">
<polygon fill="white" stroke="black" points="734.5,-0.5 734.5,-19.5 877.5,-19.5 877.5,-0.5 734.5,-0.5"/>
<text text-anchor="middle" x="806" y="-7.5" font-family="Helvetica,sans-Serif" font-size="10.00">frontEnd.Main.useControls</text>
</a>
</g>
</g>
<!-- Node6&#45;&gt;Node8 -->
<g id="edge8" class="edge"><title>Node6&#45;&gt;Node8</title>
<path fill="none" stroke="midnightblue" d="M682.948,-10C699.749,-10 717.556,-10 734.222,-10"/>
<polygon fill="midnightblue" stroke="midnightblue" points="682.636,-6.5001 672.636,-10 682.636,-13.5001 682.636,-6.5001"/>
</g>
<!-- Node7&#45;&gt;Node3 -->
<g id="edge7" class="edge"><title>Node7&#45;&gt;Node3</title>
<path fill="none" stroke="midnightblue" d="M704.031,-48C639.19,-48 557.025,-48 501.502,-48"/>
<polygon fill="midnightblue" stroke="midnightblue" points="704.282,-51.5001 714.282,-48 704.282,-44.5001 704.282,-51.5001"/>
</g>
<!-- Node8&#45;&gt;Node5 -->
<g id="edge9" class="edge"><title>Node8&#45;&gt;Node5</title>
<path fill="none" stroke="midnightblue" d="M862.868,-21.6234C874.482,-24.0513 886.641,-26.6018 898,-29 912.531,-32.0681 928.391,-35.4447 942.644,-38.4897"/>
<polygon fill="midnightblue" stroke="midnightblue" points="863.34,-18.1466 852.836,-19.5282 861.909,-24.9987 863.34,-18.1466"/>
</g>
</g>
</svg>
