<?xml version="1.0" encoding="UTF-8" standalone="no"?>
<!DOCTYPE svg PUBLIC "-//W3C//DTD SVG 1.1//EN"
 "http://www.w3.org/Graphics/SVG/1.1/DTD/svg11.dtd">
<!-- Generated by graphviz version 2.36.0 (20140111.2315)
 -->
<!-- Title: backEnd.RuleSet.addGrid Pages: 1 -->
<svg width="1038pt" height="104pt"
 viewBox="0.00 0.00 1038.00 104.00" xmlns="http://www.w3.org/2000/svg" xmlns:xlink="http://www.w3.org/1999/xlink">
<g id="graph0" class="graph" transform="scale(1 1) rotate(0) translate(4 100)">
<title>backEnd.RuleSet.addGrid</title>
<polygon fill="white" stroke="none" points="-4,4 -4,-100 1034,-100 1034,4 -4,4"/>
<!-- Node1 -->
<g id="node1" class="node"><title>Node1</title>
<polygon fill="#bfbfbf" stroke="black" points="0.5,-38.5 0.5,-57.5 137.5,-57.5 137.5,-38.5 0.5,-38.5"/>
<text text-anchor="middle" x="69" y="-45.5" font-family="Helvetica,sans-Serif" font-size="10.00">backEnd.RuleSet.addGrid</text>
</g>
<!-- Node2 -->
<g id="node2" class="node"><title>Node2</title>
<g id="a_node2"><a xlink:href="../../dc/da1/classfront_end_1_1_animator_loop.html#a1f378b18807af5386266685e907aa8c7" target="_top" xlink:title="frontEnd.AnimatorLoop.read\lXMLAndInitializeGrid">
<polygon fill="white" stroke="black" points="174,-33 174,-63 326,-63 326,-33 174,-33"/>
<text text-anchor="start" x="182" y="-51" font-family="Helvetica,sans-Serif" font-size="10.00">frontEnd.AnimatorLoop.read</text>
<text text-anchor="middle" x="250" y="-40" font-family="Helvetica,sans-Serif" font-size="10.00">XMLAndInitializeGrid</text>
</a>
</g>
</g>
<!-- Node1&#45;&gt;Node2 -->
<g id="edge1" class="edge"><title>Node1&#45;&gt;Node2</title>
<path fill="none" stroke="midnightblue" d="M147.721,-48C156.355,-48 165.139,-48 173.742,-48"/>
<polygon fill="midnightblue" stroke="midnightblue" points="147.672,-44.5001 137.672,-48 147.672,-51.5001 147.672,-44.5001"/>
</g>
<!-- Node3 -->
<g id="node3" class="node"><title>Node3</title>
<g id="a_node3"><a xlink:href="../../dd/dbe/classfront_end_1_1_main.html#a7bae3127415fb2ae80975ebc95057e3f" target="_top" xlink:title="frontEnd.Main.readXML">
<polygon fill="white" stroke="black" points="362.5,-38.5 362.5,-57.5 489.5,-57.5 489.5,-38.5 362.5,-38.5"/>
<text text-anchor="middle" x="426" y="-45.5" font-family="Helvetica,sans-Serif" font-size="10.00">frontEnd.Main.readXML</text>
</a>
</g>
</g>
<!-- Node2&#45;&gt;Node3 -->
<g id="edge2" class="edge"><title>Node2&#45;&gt;Node3</title>
<path fill="none" stroke="midnightblue" d="M336.065,-48C344.959,-48 353.88,-48 362.457,-48"/>
<polygon fill="midnightblue" stroke="midnightblue" points="336.054,-44.5001 326.054,-48 336.054,-51.5001 336.054,-44.5001"/>
</g>
<!-- Node4 -->
<g id="node4" class="node"><title>Node4</title>
<g id="a_node4"><a xlink:href="../../dd/dbe/classfront_end_1_1_main.html#a55d59b110825a1cc153a0091a6e5cb99" target="_top" xlink:title="frontEnd.Main.makeMenu">
<polygon fill="white" stroke="black" points="526.5,-76.5 526.5,-95.5 665.5,-95.5 665.5,-76.5 526.5,-76.5"/>
<text text-anchor="middle" x="596" y="-83.5" font-family="Helvetica,sans-Serif" font-size="10.00">frontEnd.Main.makeMenu</text>
</a>
</g>
</g>
<!-- Node3&#45;&gt;Node4 -->
<g id="edge3" class="edge"><title>Node3&#45;&gt;Node4</title>
<path fill="none" stroke="midnightblue" d="M479.276,-59.8243C502.961,-65.1816 530.59,-71.4311 552.911,-76.4799"/>
<polygon fill="midnightblue" stroke="midnightblue" points="479.919,-56.3815 469.393,-57.589 478.375,-63.209 479.919,-56.3815"/>
</g>
<!-- Node6 -->
<g id="node6" class="node"><title>Node6</title>
<g id="a_node6"><a xlink:href="../../dd/dbe/classfront_end_1_1_main.html#a8e2e836903a64069e4283fa66309c704" target="_top" xlink:title="frontEnd.Main.resetSim">
<polygon fill="white" stroke="black" points="531.5,-0.5 531.5,-19.5 660.5,-19.5 660.5,-0.5 531.5,-0.5"/>
<text text-anchor="middle" x="596" y="-7.5" font-family="Helvetica,sans-Serif" font-size="10.00">frontEnd.Main.resetSim</text>
</a>
</g>
</g>
<!-- Node3&#45;&gt;Node6 -->
<g id="edge5" class="edge"><title>Node3&#45;&gt;Node6</title>
<path fill="none" stroke="midnightblue" d="M479.276,-36.1757C502.961,-30.8184 530.59,-24.5689 552.911,-19.5201"/>
<polygon fill="midnightblue" stroke="midnightblue" points="478.375,-32.791 469.393,-38.411 479.919,-39.6185 478.375,-32.791"/>
</g>
<!-- Node5 -->
<g id="node5" class="node"><title>Node5</title>
<g id="a_node5"><a xlink:href="../../dd/dbe/classfront_end_1_1_main.html#ae53f892716dcc60f3f49714496e30c91" target="_top" xlink:title="frontEnd.Main.start">
<polygon fill="white" stroke="black" points="922,-38.5 922,-57.5 1030,-57.5 1030,-38.5 922,-38.5"/>
<text text-anchor="middle" x="976" y="-45.5" font-family="Helvetica,sans-Serif" font-size="10.00">frontEnd.Main.start</text>
</a>
</g>
</g>
<!-- Node4&#45;&gt;Node5 -->
<g id="edge4" class="edge"><title>Node4&#45;&gt;Node5</title>
<path fill="none" stroke="midnightblue" d="M675.845,-83.8939C734.122,-81.5912 815.29,-76.8194 886,-67 902.588,-64.6964 920.698,-61.0429 936.226,-57.5524"/>
<polygon fill="midnightblue" stroke="midnightblue" points="675.462,-80.4058 665.602,-84.2825 675.728,-87.4007 675.462,-80.4058"/>
</g>
<!-- Node7 -->
<g id="node7" class="node"><title>Node7</title>
<g id="a_node7"><a xlink:href="../../dd/dbe/classfront_end_1_1_main.html#a0ff8a007311f8ecce84d4203dc85d669" target="_top" xlink:title="frontEnd.Main.makeParamControls">
<polygon fill="white" stroke="black" points="702.5,-38.5 702.5,-57.5 885.5,-57.5 885.5,-38.5 702.5,-38.5"/>
<text text-anchor="middle" x="794" y="-45.5" font-family="Helvetica,sans-Serif" font-size="10.00">frontEnd.Main.makeParamControls</text>
</a>
</g>
</g>
<!-- Node6&#45;&gt;Node7 -->
<g id="edge6" class="edge"><title>Node6&#45;&gt;Node7</title>
<path fill="none" stroke="midnightblue" d="M656.261,-21.4894C684.227,-26.9114 717.209,-33.3058 743.774,-38.4561"/>
<polygon fill="midnightblue" stroke="midnightblue" points="656.689,-18.0073 646.206,-19.54 655.357,-24.8794 656.689,-18.0073"/>
</g>
<!-- Node8 -->
<g id="node8" class="node"><title>Node8</title>
<g id="a_node8"><a xlink:href="../../dd/dbe/classfront_end_1_1_main.html#a1f4c19654fe78e5ebca54fc26bf43c94" target="_top" xlink:title="frontEnd.Main.useControls">
<polygon fill="white" stroke="black" points="722.5,-0.5 722.5,-19.5 865.5,-19.5 865.5,-0.5 722.5,-0.5"/>
<text text-anchor="middle" x="794" y="-7.5" font-family="Helvetica,sans-Serif" font-size="10.00">frontEnd.Main.useControls</text>
</a>
</g>
</g>
<!-- Node6&#45;&gt;Node8 -->
<g id="edge8" class="edge"><title>Node6&#45;&gt;Node8</title>
<path fill="none" stroke="midnightblue" d="M670.948,-10C687.749,-10 705.556,-10 722.222,-10"/>
<polygon fill="midnightblue" stroke="midnightblue" points="670.636,-6.5001 660.636,-10 670.636,-13.5001 670.636,-6.5001"/>
</g>
<!-- Node7&#45;&gt;Node3 -->
<g id="edge7" class="edge"><title>Node7&#45;&gt;Node3</title>
<path fill="none" stroke="midnightblue" d="M692.031,-48C627.19,-48 545.025,-48 489.502,-48"/>
<polygon fill="midnightblue" stroke="midnightblue" points="692.282,-51.5001 702.282,-48 692.282,-44.5001 692.282,-51.5001"/>
</g>
<!-- Node8&#45;&gt;Node5 -->
<g id="edge9" class="edge"><title>Node8&#45;&gt;Node5</title>
<path fill="none" stroke="midnightblue" d="M850.868,-21.6234C862.482,-24.0513 874.641,-26.6018 886,-29 900.531,-32.0681 916.391,-35.4447 930.644,-38.4897"/>
<polygon fill="midnightblue" stroke="midnightblue" points="851.34,-18.1466 840.836,-19.5282 849.909,-24.9987 851.34,-18.1466"/>
</g>
</g>
</svg>
