<?xml version="1.0" encoding="UTF-8" standalone="no"?>
<!DOCTYPE svg PUBLIC "-//W3C//DTD SVG 1.1//EN"
 "http://www.w3.org/Graphics/SVG/1.1/DTD/svg11.dtd">
<!-- Generated by graphviz version 2.36.0 (20140111.2315)
 -->
<!-- Title: backEnd.RuleSet.getNext Pages: 1 -->
<svg width="516pt" height="38pt"
 viewBox="0.00 0.00 516.00 38.00" xmlns="http://www.w3.org/2000/svg" xmlns:xlink="http://www.w3.org/1999/xlink">
<g id="graph0" class="graph" transform="scale(1 1) rotate(0) translate(4 34)">
<title>backEnd.RuleSet.getNext</title>
<polygon fill="white" stroke="none" points="-4,4 -4,-34 512,-34 512,4 -4,4"/>
<!-- Node1 -->
<g id="node1" class="node"><title>Node1</title>
<polygon fill="#bfbfbf" stroke="black" points="0.5,-5.5 0.5,-24.5 137.5,-24.5 137.5,-5.5 0.5,-5.5"/>
<text text-anchor="middle" x="69" y="-12.5" font-family="Helvetica,sans-Serif" font-size="10.00">backEnd.RuleSet.getNext</text>
</g>
<!-- Node2 -->
<g id="node2" class="node"><title>Node2</title>
<g id="a_node2"><a xlink:href="../../d1/dfc/classback_end_1_1_rule_set.html#a889a9db9ebcdb5db18f373286fd100cb" target="_top" xlink:title="backEnd.RuleSet.update">
<polygon fill="white" stroke="black" points="174.5,-5.5 174.5,-24.5 307.5,-24.5 307.5,-5.5 174.5,-5.5"/>
<text text-anchor="middle" x="241" y="-12.5" font-family="Helvetica,sans-Serif" font-size="10.00">backEnd.RuleSet.update</text>
</a>
</g>
</g>
<!-- Node1&#45;&gt;Node2 -->
<g id="edge1" class="edge"><title>Node1&#45;&gt;Node2</title>
<path fill="none" stroke="midnightblue" d="M147.716,-15C156.667,-15 165.727,-15 174.495,-15"/>
<polygon fill="midnightblue" stroke="midnightblue" points="147.677,-11.5001 137.677,-15 147.677,-18.5001 147.677,-11.5001"/>
</g>
<!-- Node3 -->
<g id="node3" class="node"><title>Node3</title>
<g id="a_node3"><a xlink:href="../../dc/da1/classfront_end_1_1_animator_loop.html#abadf9135a2378edada1bde19397c3c76" target="_top" xlink:title="frontEnd.AnimatorLoop.update\lCells">
<polygon fill="white" stroke="black" points="344,-0 344,-30 508,-30 508,-0 344,-0"/>
<text text-anchor="start" x="352" y="-18" font-family="Helvetica,sans-Serif" font-size="10.00">frontEnd.AnimatorLoop.update</text>
<text text-anchor="middle" x="426" y="-7" font-family="Helvetica,sans-Serif" font-size="10.00">Cells</text>
</a>
</g>
</g>
<!-- Node2&#45;&gt;Node3 -->
<g id="edge2" class="edge"><title>Node2&#45;&gt;Node3</title>
<path fill="none" stroke="midnightblue" d="M317.631,-15C326.312,-15 335.189,-15 343.937,-15"/>
<polygon fill="midnightblue" stroke="midnightblue" points="317.55,-11.5001 307.55,-15 317.55,-18.5001 317.55,-11.5001"/>
</g>
</g>
</svg>
