<?xml version="1.0" encoding="UTF-8" standalone="no"?>
<!DOCTYPE svg PUBLIC "-//W3C//DTD SVG 1.1//EN"
 "http://www.w3.org/Graphics/SVG/1.1/DTD/svg11.dtd">
<!-- Generated by graphviz version 2.36.0 (20140111.2315)
 -->
<!-- Title: backEnd.RuleSet.getNeighbors Pages: 1 -->
<svg width="954pt" height="152pt"
 viewBox="0.00 0.00 954.00 152.00" xmlns="http://www.w3.org/2000/svg" xmlns:xlink="http://www.w3.org/1999/xlink">
<g id="graph0" class="graph" transform="scale(1 1) rotate(0) translate(4 148)">
<title>backEnd.RuleSet.getNeighbors</title>
<polygon fill="white" stroke="none" points="-4,4 -4,-148 950,-148 950,4 -4,4"/>
<!-- Node1 -->
<g id="node1" class="node"><title>Node1</title>
<polygon fill="#bfbfbf" stroke="black" points="0,-60.5 0,-79.5 164,-79.5 164,-60.5 0,-60.5"/>
<text text-anchor="middle" x="82" y="-67.5" font-family="Helvetica,sans-Serif" font-size="10.00">backEnd.RuleSet.getNeighbors</text>
</g>
<!-- Node2 -->
<g id="node2" class="node"><title>Node2</title>
<g id="a_node2"><a xlink:href="../../d0/d96/classback_end_1_1_predator_prey.html#ac9689f0a85de526bd6d2f1e23657dfe8" target="_top" xlink:title="backEnd.PredatorPrey.breed\lIfNecessary">
<polygon fill="white" stroke="black" points="600,-114 600,-144 752,-144 752,-114 600,-114"/>
<text text-anchor="start" x="608" y="-132" font-family="Helvetica,sans-Serif" font-size="10.00">backEnd.PredatorPrey.breed</text>
<text text-anchor="middle" x="676" y="-121" font-family="Helvetica,sans-Serif" font-size="10.00">IfNecessary</text>
</a>
</g>
</g>
<!-- Node1&#45;&gt;Node2 -->
<g id="edge1" class="edge"><title>Node1&#45;&gt;Node2</title>
<path fill="none" stroke="midnightblue" d="M110.649,-84.0436C133.842,-95.0387 168.187,-109.519 200,-116 338.835,-144.285 505.181,-140.469 599.634,-134.893"/>
<polygon fill="midnightblue" stroke="midnightblue" points="111.957,-80.7882 101.431,-79.5782 108.905,-87.0879 111.957,-80.7882"/>
</g>
<!-- Node4 -->
<g id="node4" class="node"><title>Node4</title>
<g id="a_node4"><a xlink:href="../../d1/dfc/classback_end_1_1_rule_set.html#ae5129c070ec6dac5e9d135b8d4ecb521" target="_top" xlink:title="backEnd.RuleSet.getDirect\lNeighbors">
<polygon fill="white" stroke="black" points="208.5,-77 208.5,-107 351.5,-107 351.5,-77 208.5,-77"/>
<text text-anchor="start" x="216.5" y="-95" font-family="Helvetica,sans-Serif" font-size="10.00">backEnd.RuleSet.getDirect</text>
<text text-anchor="middle" x="280" y="-84" font-family="Helvetica,sans-Serif" font-size="10.00">Neighbors</text>
</a>
</g>
</g>
<!-- Node1&#45;&gt;Node4 -->
<g id="edge3" class="edge"><title>Node1&#45;&gt;Node4</title>
<path fill="none" stroke="midnightblue" d="M174.149,-80.231C185.599,-81.5162 197.173,-82.8154 208.244,-84.058"/>
<polygon fill="midnightblue" stroke="midnightblue" points="174.464,-76.7444 164.136,-79.107 173.683,-83.7007 174.464,-76.7444"/>
</g>
<!-- Node8 -->
<g id="node8" class="node"><title>Node8</title>
<g id="a_node8"><a xlink:href="../../d5/dcb/classback_end_1_1_game_of_life.html#af98fae7f8d156a65231b2d63bf5e27fb" target="_top" xlink:title="backEnd.GameOfLife.getNext">
<polygon fill="white" stroke="black" points="201,-38.5 201,-57.5 359,-57.5 359,-38.5 201,-38.5"/>
<text text-anchor="middle" x="280" y="-45.5" font-family="Helvetica,sans-Serif" font-size="10.00">backEnd.GameOfLife.getNext</text>
</a>
</g>
</g>
<!-- Node1&#45;&gt;Node8 -->
<g id="edge8" class="edge"><title>Node1&#45;&gt;Node8</title>
<path fill="none" stroke="midnightblue" d="M174.134,-59.7707C183.033,-58.7719 192.007,-57.7645 200.762,-56.7819"/>
<polygon fill="midnightblue" stroke="midnightblue" points="173.683,-56.2993 164.136,-60.893 174.464,-63.2556 173.683,-56.2993"/>
</g>
<!-- Node9 -->
<g id="node9" class="node"><title>Node9</title>
<g id="a_node9"><a xlink:href="../../d9/d2e/classback_end_1_1_segregation.html#a306bcff5f217b04d83849a3cc77bddfb" target="_top" xlink:title="backEnd.Segregation.getNext">
<polygon fill="white" stroke="black" points="200,-0.5 200,-19.5 360,-19.5 360,-0.5 200,-0.5"/>
<text text-anchor="middle" x="280" y="-7.5" font-family="Helvetica,sans-Serif" font-size="10.00">backEnd.Segregation.getNext</text>
</a>
</g>
</g>
<!-- Node1&#45;&gt;Node9 -->
<g id="edge9" class="edge"><title>Node1&#45;&gt;Node9</title>
<path fill="none" stroke="midnightblue" d="M117.259,-56.9671C140.426,-48.4088 171.818,-37.3037 200,-29 211.502,-25.6111 224.075,-22.378 235.74,-19.5708"/>
<polygon fill="midnightblue" stroke="midnightblue" points="116.018,-53.6944 107.867,-60.4634 118.46,-60.2546 116.018,-53.6944"/>
</g>
<!-- Node3 -->
<g id="node3" class="node"><title>Node3</title>
<g id="a_node3"><a xlink:href="../../d0/d96/classback_end_1_1_predator_prey.html#acf219a8748ddb0ed02c2202a3b3d6b37" target="_top" xlink:title="backEnd.PredatorPrey.update">
<polygon fill="white" stroke="black" points="788,-91.5 788,-110.5 946,-110.5 946,-91.5 788,-91.5"/>
<text text-anchor="middle" x="867" y="-98.5" font-family="Helvetica,sans-Serif" font-size="10.00">backEnd.PredatorPrey.update</text>
</a>
</g>
</g>
<!-- Node2&#45;&gt;Node3 -->
<g id="edge2" class="edge"><title>Node2&#45;&gt;Node3</title>
<path fill="none" stroke="midnightblue" d="M762.297,-116.363C775.532,-114.403 789.011,-112.406 801.68,-110.529"/>
<polygon fill="midnightblue" stroke="midnightblue" points="761.62,-112.925 752.241,-117.853 762.646,-119.85 761.62,-112.925"/>
</g>
<!-- Node5 -->
<g id="node5" class="node"><title>Node5</title>
<g id="a_node5"><a xlink:href="../../de/d5a/classback_end_1_1_spreading_fire.html#a14b959c163a3a935ef7856c045b13eeb" target="_top" xlink:title="backEnd.SpreadingFire.getNext">
<polygon fill="white" stroke="black" points="396.5,-88.5 396.5,-107.5 563.5,-107.5 563.5,-88.5 396.5,-88.5"/>
<text text-anchor="middle" x="480" y="-95.5" font-family="Helvetica,sans-Serif" font-size="10.00">backEnd.SpreadingFire.getNext</text>
</a>
</g>
</g>
<!-- Node4&#45;&gt;Node5 -->
<g id="edge4" class="edge"><title>Node4&#45;&gt;Node5</title>
<path fill="none" stroke="midnightblue" d="M361.923,-94.4522C373.234,-94.795 384.871,-95.1476 396.217,-95.4914"/>
<polygon fill="midnightblue" stroke="midnightblue" points="361.745,-90.9453 351.644,-94.1407 361.533,-97.9421 361.745,-90.9453"/>
</g>
<!-- Node6 -->
<g id="node6" class="node"><title>Node6</title>
<g id="a_node6"><a xlink:href="../../d0/d96/classback_end_1_1_predator_prey.html#aecfa40f92acce8997492d12cefd08b48" target="_top" xlink:title="backEnd.PredatorPrey.getNext">
<polygon fill="white" stroke="black" points="399,-50.5 399,-69.5 561,-69.5 561,-50.5 399,-50.5"/>
<text text-anchor="middle" x="480" y="-57.5" font-family="Helvetica,sans-Serif" font-size="10.00">backEnd.PredatorPrey.getNext</text>
</a>
</g>
</g>
<!-- Node4&#45;&gt;Node6 -->
<g id="edge5" class="edge"><title>Node4&#45;&gt;Node6</title>
<path fill="none" stroke="midnightblue" d="M361.758,-78.9483C381.301,-75.7897 401.827,-72.4724 420.145,-69.5119"/>
<polygon fill="midnightblue" stroke="midnightblue" points="360.957,-75.5321 351.644,-80.5828 362.074,-82.4424 360.957,-75.5321"/>
</g>
<!-- Node7 -->
<g id="node7" class="node"><title>Node7</title>
<g id="a_node7"><a xlink:href="../../d0/d96/classback_end_1_1_predator_prey.html#aa032c15c617e2da8e1ab1a065413fb06" target="_top" xlink:title="backEnd.PredatorPrey.make\lNextGrid">
<polygon fill="white" stroke="black" points="600.5,-58 600.5,-88 751.5,-88 751.5,-58 600.5,-58"/>
<text text-anchor="start" x="608.5" y="-76" font-family="Helvetica,sans-Serif" font-size="10.00">backEnd.PredatorPrey.make</text>
<text text-anchor="middle" x="676" y="-65" font-family="Helvetica,sans-Serif" font-size="10.00">NextGrid</text>
</a>
</g>
</g>
<!-- Node6&#45;&gt;Node7 -->
<g id="edge6" class="edge"><title>Node6&#45;&gt;Node7</title>
<path fill="none" stroke="midnightblue" d="M571.186,-66.0434C580.982,-66.6998 590.872,-67.3625 600.452,-68.0045"/>
<polygon fill="midnightblue" stroke="midnightblue" points="571.239,-62.5392 561.027,-65.3627 570.771,-69.5235 571.239,-62.5392"/>
</g>
<!-- Node7&#45;&gt;Node3 -->
<g id="edge7" class="edge"><title>Node7&#45;&gt;Node3</title>
<path fill="none" stroke="midnightblue" d="M761.845,-85.5696C775.203,-87.5486 788.822,-89.5662 801.618,-91.4619"/>
<polygon fill="midnightblue" stroke="midnightblue" points="762.103,-82.0697 751.698,-84.0663 761.077,-88.9941 762.103,-82.0697"/>
</g>
</g>
</svg>
