<?xml version="1.0" encoding="UTF-8" standalone="no"?>
<!DOCTYPE svg PUBLIC "-//W3C//DTD SVG 1.1//EN"
 "http://www.w3.org/Graphics/SVG/1.1/DTD/svg11.dtd">
<!-- Generated by graphviz version 2.36.0 (20140111.2315)
 -->
<!-- Title: frontEnd.Main Pages: 1 -->
<!--zoomable 613 -->
<svg id="main" version="1.1" xmlns="http://www.w3.org/2000/svg" xmlns:xlink="http://www.w3.org/1999/xlink" xml:space="preserve" onload="init(evt)">
<style type="text/css"><![CDATA[
.edge:hover path { stroke: red; }
.edge:hover polygon { stroke: red; fill: red; }
]]></style>
<script type="text/javascript"><![CDATA[
var edges = document.getElementsByTagName('g');
if (edges && edges.length) {
  for (var i=0;i<edges.length;i++) {
    if (edges[i].id.substr(0,4)=='edge') {
      edges[i].setAttribute('class','edge');
    }
  }
}
]]></script>
        <defs>
                <circle id="rim" cx="0" cy="0" r="7"/>
                <circle id="rim2" cx="0" cy="0" r="3.5"/>
                <g id="zoomPlus">
                        <use xlink:href="#rim" fill="#404040">
                                <set attributeName="fill" to="#808080" begin="zoomplus.mouseover" end="zoomplus.mouseout"/>
                        </use>
                        <path d="M-4,0h8M0,-4v8" fill="none" stroke="white" stroke-width="1.5" pointer-events="none"/>
                </g>
                <g id="zoomMin">
                        <use xlink:href="#rim" fill="#404040">
                                <set attributeName="fill" to="#808080" begin="zoomminus.mouseover" end="zoomminus.mouseout"/>
                        </use>
                        <path d="M-4,0h8" fill="none" stroke="white" stroke-width="1.5" pointer-events="none"/>
                </g>
                <g id="dirArrow">
                        <path fill="none" stroke="white" stroke-width="1.5" d="M0,-3.0v7 M-2.5,-0.5L0,-3.0L2.5,-0.5"/>
                </g>
               <g id="resetDef">
                       <use xlink:href="#rim2" fill="#404040">
                               <set attributeName="fill" to="#808080" begin="reset.mouseover" end="reset.mouseout"/>
                       </use>
               </g>
        </defs>

<script type="text/javascript">
var viewWidth = 1324;
var viewHeight = 613;
var sectionId = 'dynsection-1';
</script>
<script xlink:href="../../svgpan.js"/>
<svg id="graph" class="graph">
<g id="viewport">
<title>frontEnd.Main</title>
<polygon fill="white" stroke="none" points="-4,4 -4,-608.677 1320,-608.677 1320,4 -4,4"/>
<!-- Node1 -->
<g id="node1" class="node"><title>Node1</title>
<polygon fill="#bfbfbf" stroke="black" points="1232.5,-337.177 1232.5,-356.177 1315.5,-356.177 1315.5,-337.177 1232.5,-337.177"/>
<text text-anchor="middle" x="1274" y="-344.177" font-family="Helvetica,sans-Serif" font-size="10.00">frontEnd.Main</text>
</g>
<!-- Node2 -->
<g id="node2" class="node"><title>Node2</title>
<polygon fill="white" stroke="#bfbfbf" points="1007.5,-585.177 1007.5,-604.177 1076.5,-604.177 1076.5,-585.177 1007.5,-585.177"/>
<text text-anchor="middle" x="1042" y="-592.177" font-family="Helvetica,sans-Serif" font-size="10.00">Application</text>
</g>
<!-- Node2&#45;&gt;Node1 -->
<g id="edge1" class="edge"><title>Node2&#45;&gt;Node1</title>
<path fill="none" stroke="midnightblue" d="M1086.93,-602.461C1125.07,-606.566 1179.46,-605.648 1214,-575.677 1248.34,-545.879 1267.43,-396.209 1271.95,-356.409"/>
<polygon fill="midnightblue" stroke="midnightblue" points="1086.98,-598.942 1076.63,-601.191 1086.13,-605.889 1086.98,-598.942"/>
</g>
<!-- Node3 -->
<g id="node3" class="node"><title>Node3</title>
<polygon fill="white" stroke="#bfbfbf" points="1021.5,-547.177 1021.5,-566.177 1062.5,-566.177 1062.5,-547.177 1021.5,-547.177"/>
<text text-anchor="middle" x="1042" y="-554.177" font-family="Helvetica,sans-Serif" font-size="10.00">VBox</text>
</g>
<!-- Node3&#45;&gt;Node1 -->
<g id="edge2" class="edge"><title>Node3&#45;&gt;Node1</title>
<path fill="none" stroke="#9a32cd" stroke-dasharray="5,2" d="M1072.86,-560.667C1110.34,-563.927 1174.51,-563.467 1214,-529.677 1268.02,-483.451 1272.99,-387.461 1273.14,-356.519"/>
<polygon fill="#9a32cd" stroke="#9a32cd" points="1072.89,-557.152 1062.59,-559.621 1072.18,-564.116 1072.89,-557.152"/>
<text text-anchor="middle" x="1169" y="-563.677" font-family="Helvetica,sans-Serif" font-size="10.00"> myParamControls</text>
</g>
<!-- Node4 -->
<g id="node4" class="node"><title>Node4</title>
<polygon fill="white" stroke="#bfbfbf" points="1014,-509.177 1014,-528.177 1070,-528.177 1070,-509.177 1014,-509.177"/>
<text text-anchor="middle" x="1042" y="-516.177" font-family="Helvetica,sans-Serif" font-size="10.00">Timeline</text>
</g>
<!-- Node4&#45;&gt;Node1 -->
<g id="edge3" class="edge"><title>Node4&#45;&gt;Node1</title>
<path fill="none" stroke="#9a32cd" stroke-dasharray="5,2" d="M1080.16,-517.979C1124.09,-516.432 1193.79,-511.48 1214,-495.677 1259.8,-459.854 1270.14,-383.212 1272.4,-356.277"/>
<polygon fill="#9a32cd" stroke="#9a32cd" points="1080.01,-514.482 1070.13,-518.29 1080.23,-521.479 1080.01,-514.482"/>
<text text-anchor="middle" x="1169" y="-517.677" font-family="Helvetica,sans-Serif" font-size="10.00"> myAnimation</text>
</g>
<!-- Node5 -->
<g id="node5" class="node"><title>Node5</title>
<polygon fill="white" stroke="#bfbfbf" points="1019.5,-471.177 1019.5,-490.177 1064.5,-490.177 1064.5,-471.177 1019.5,-471.177"/>
<text text-anchor="middle" x="1042" y="-478.177" font-family="Helvetica,sans-Serif" font-size="10.00">Stage</text>
</g>
<!-- Node5&#45;&gt;Node1 -->
<g id="edge4" class="edge"><title>Node5&#45;&gt;Node1</title>
<path fill="none" stroke="#9a32cd" stroke-dasharray="5,2" d="M1074.82,-483.318C1111.66,-484.727 1172.56,-481.802 1214,-452.677 1248.46,-428.456 1265.09,-377.383 1270.71,-356.198"/>
<polygon fill="#9a32cd" stroke="#9a32cd" points="1074.82,-479.813 1064.66,-482.795 1074.46,-486.804 1074.82,-479.813"/>
<text text-anchor="middle" x="1169" y="-483.677" font-family="Helvetica,sans-Serif" font-size="10.00"> myStage</text>
</g>
<!-- Node6 -->
<g id="node6" class="node"><title>Node6</title>
<polygon fill="white" stroke="#bfbfbf" points="1006.5,-433.177 1006.5,-452.177 1077.5,-452.177 1077.5,-433.177 1006.5,-433.177"/>
<text text-anchor="middle" x="1042" y="-440.177" font-family="Helvetica,sans-Serif" font-size="10.00">FileChooser</text>
</g>
<!-- Node6&#45;&gt;Node1 -->
<g id="edge5" class="edge"><title>Node6&#45;&gt;Node1</title>
<path fill="none" stroke="#9a32cd" stroke-dasharray="5,2" d="M1087.78,-441.554C1123.86,-438.943 1174.85,-431.288 1214,-409.677 1237.61,-396.641 1257.19,-370.791 1266.73,-356.591"/>
<polygon fill="#9a32cd" stroke="#9a32cd" points="1087.32,-438.076 1077.56,-442.189 1087.75,-445.063 1087.32,-438.076"/>
<text text-anchor="middle" x="1169" y="-440.677" font-family="Helvetica,sans-Serif" font-size="10.00"> fileChooser</text>
</g>
<!-- Node7 -->
<g id="node7" class="node"><title>Node7</title>
<polygon fill="white" stroke="#bfbfbf" points="1014,-395.177 1014,-414.177 1070,-414.177 1070,-395.177 1014,-395.177"/>
<text text-anchor="middle" x="1042" y="-402.177" font-family="Helvetica,sans-Serif" font-size="10.00">TextField</text>
</g>
<!-- Node7&#45;&gt;Node1 -->
<g id="edge6" class="edge"><title>Node7&#45;&gt;Node1</title>
<path fill="none" stroke="#9a32cd" stroke-dasharray="5,2" d="M1080.47,-401.043C1115.59,-396.954 1169.23,-388.937 1214,-374.677 1228.69,-369.997 1244.43,-362.387 1255.95,-356.281"/>
<polygon fill="#9a32cd" stroke="#9a32cd" points="1079.75,-397.602 1070.2,-402.189 1080.52,-404.559 1079.75,-397.602"/>
<text text-anchor="middle" x="1169" y="-397.677" font-family="Helvetica,sans-Serif" font-size="10.00"> myField</text>
</g>
<!-- Node8 -->
<g id="node8" class="node"><title>Node8</title>
<polygon fill="white" stroke="#bfbfbf" points="1020,-357.177 1020,-376.177 1064,-376.177 1064,-357.177 1020,-357.177"/>
<text text-anchor="middle" x="1042" y="-364.177" font-family="Helvetica,sans-Serif" font-size="10.00">Slider</text>
</g>
<!-- Node8&#45;&gt;Node1 -->
<g id="edge7" class="edge"><title>Node8&#45;&gt;Node1</title>
<path fill="none" stroke="#9a32cd" stroke-dasharray="5,2" d="M1074.43,-363.944C1115.4,-360.381 1187.13,-354.143 1232.24,-350.221"/>
<polygon fill="#9a32cd" stroke="#9a32cd" points="1073.88,-360.478 1064.23,-364.831 1074.49,-367.452 1073.88,-360.478"/>
<text text-anchor="middle" x="1169" y="-362.677" font-family="Helvetica,sans-Serif" font-size="10.00"> mySlider</text>
</g>
<!-- Node9 -->
<g id="node9" class="node"><title>Node9</title>
<polygon fill="white" stroke="#bfbfbf" points="1017.5,-319.177 1017.5,-338.177 1066.5,-338.177 1066.5,-319.177 1017.5,-319.177"/>
<text text-anchor="middle" x="1042" y="-326.177" font-family="Helvetica,sans-Serif" font-size="10.00">Button</text>
</g>
<!-- Node9&#45;&gt;Node1 -->
<g id="edge8" class="edge"><title>Node9&#45;&gt;Node1</title>
<path fill="none" stroke="#9a32cd" stroke-dasharray="5,2" d="M1076.8,-324.374C1111.5,-320.821 1166.93,-317.55 1214,-325.677 1226.86,-327.897 1240.62,-332.65 1251.62,-337.073"/>
<polygon fill="#9a32cd" stroke="#9a32cd" points="1076.29,-320.909 1066.73,-325.474 1077.05,-327.868 1076.29,-320.909"/>
<text text-anchor="middle" x="1169" y="-339.677" font-family="Helvetica,sans-Serif" font-size="10.00"> myResetButton</text>
<text text-anchor="middle" x="1169" y="-328.677" font-family="Helvetica,sans-Serif" font-size="10.00">myPauseButton</text>
</g>
<!-- Node10 -->
<g id="node10" class="node"><title>Node10</title>
<polygon fill="white" stroke="#bfbfbf" points="1026,-281.177 1026,-300.177 1058,-300.177 1058,-281.177 1026,-281.177"/>
<text text-anchor="middle" x="1042" y="-288.177" font-family="Helvetica,sans-Serif" font-size="10.00">File</text>
</g>
<!-- Node10&#45;&gt;Node1 -->
<g id="edge9" class="edge"><title>Node10&#45;&gt;Node1</title>
<path fill="none" stroke="#9a32cd" stroke-dasharray="5,2" d="M1068.24,-288.923C1102.38,-287.426 1164.69,-287.824 1214,-305.677 1233,-312.556 1251.58,-327.148 1262.66,-336.935"/>
<polygon fill="#9a32cd" stroke="#9a32cd" points="1067.99,-285.431 1058.19,-289.456 1068.36,-292.421 1067.99,-285.431"/>
<text text-anchor="middle" x="1169" y="-308.677" font-family="Helvetica,sans-Serif" font-size="10.00"> XMLFile</text>
</g>
<!-- Node11 -->
<g id="node11" class="node"><title>Node11</title>
<polygon fill="white" stroke="#bfbfbf" points="1012.5,-243.177 1012.5,-262.177 1071.5,-262.177 1071.5,-243.177 1012.5,-243.177"/>
<text text-anchor="middle" x="1042" y="-250.177" font-family="Helvetica,sans-Serif" font-size="10.00">MenuBar</text>
</g>
<!-- Node11&#45;&gt;Node1 -->
<g id="edge10" class="edge"><title>Node11&#45;&gt;Node1</title>
<path fill="none" stroke="#9a32cd" stroke-dasharray="5,2" d="M1081.82,-249.773C1118.21,-248.8 1173.02,-251.96 1214,-274.677 1240.43,-289.328 1259.73,-320.993 1268.21,-336.998"/>
<polygon fill="#9a32cd" stroke="#9a32cd" points="1081.46,-246.283 1071.61,-250.167 1081.73,-253.278 1081.46,-246.283"/>
<text text-anchor="middle" x="1169" y="-277.677" font-family="Helvetica,sans-Serif" font-size="10.00"> myMenuBar</text>
</g>
<!-- Node12 -->
<g id="node12" class="node"><title>Node12</title>
<g id="a_node12"><a xlink:href="../../dc/da1/classfront_end_1_1_animator_loop.html" target="_top" xlink:title="frontEnd.AnimatorLoop">
<polygon fill="white" stroke="black" points="978,-205.177 978,-224.177 1106,-224.177 1106,-205.177 978,-205.177"/>
<text text-anchor="middle" x="1042" y="-212.177" font-family="Helvetica,sans-Serif" font-size="10.00">frontEnd.AnimatorLoop</text>
</a>
</g>
</g>
<!-- Node12&#45;&gt;Node1 -->
<g id="edge11" class="edge"><title>Node12&#45;&gt;Node1</title>
<path fill="none" stroke="#9a32cd" stroke-dasharray="5,2" d="M1116.41,-209.602C1148.82,-210.823 1185.86,-217.294 1214,-236.677 1249.87,-261.387 1265.79,-315.106 1270.97,-337.048"/>
<polygon fill="#9a32cd" stroke="#9a32cd" points="1116.14,-206.095 1106.07,-209.38 1115.99,-213.094 1116.14,-206.095"/>
<text text-anchor="middle" x="1169" y="-239.677" font-family="Helvetica,sans-Serif" font-size="10.00"> myLoop</text>
</g>
<!-- Node13 -->
<g id="node13" class="node"><title>Node13</title>
<g id="a_node13"><a xlink:href="../../d4/d6c/classshape_factories_1_1_shape_factory.html" target="_top" xlink:title="shapeFactories.ShapeFactory">
<polygon fill="white" stroke="black" points="626.5,-441.177 626.5,-460.177 783.5,-460.177 783.5,-441.177 626.5,-441.177"/>
<text text-anchor="middle" x="705" y="-448.177" font-family="Helvetica,sans-Serif" font-size="10.00">shapeFactories.ShapeFactory</text>
</a>
</g>
</g>
<!-- Node13&#45;&gt;Node12 -->
<g id="edge12" class="edge"><title>Node13&#45;&gt;Node12</title>
<path fill="none" stroke="#9a32cd" stroke-dasharray="5,2" d="M752.026,-462.338C809.203,-473.772 905.816,-482.556 960,-428.677 990.858,-397.992 950.469,-267.379 978,-233.677 981.18,-229.784 985.128,-226.668 989.486,-224.177"/>
<polygon fill="#9a32cd" stroke="#9a32cd" points="752.678,-458.899 742.171,-460.263 751.235,-465.748 752.678,-458.899"/>
<text text-anchor="middle" x="882" y="-473.677" font-family="Helvetica,sans-Serif" font-size="10.00"> myShapeBuilder</text>
</g>
<!-- Node14 -->
<g id="node14" class="node"><title>Node14</title>
<g id="a_node14"><a xlink:href="../../db/d5e/classback_end_1_1_patch.html" target="_top" xlink:title="backEnd.Patch">
<polygon fill="white" stroke="black" points="392,-324.177 392,-343.177 478,-343.177 478,-324.177 392,-324.177"/>
<text text-anchor="middle" x="435" y="-331.177" font-family="Helvetica,sans-Serif" font-size="10.00">backEnd.Patch</text>
</a>
</g>
</g>
<!-- Node14&#45;&gt;Node12 -->
<g id="edge13" class="edge"><title>Node14&#45;&gt;Node12</title>
<path fill="none" stroke="#9a32cd" stroke-dasharray="5,2" d="M488.254,-335.687C606.037,-339.15 887.615,-341.131 960,-284.677 978.954,-269.894 960.614,-250.275 978,-233.677 982.049,-229.811 986.856,-226.73 991.983,-224.273"/>
<polygon fill="#9a32cd" stroke="#9a32cd" points="488.151,-332.182 478.047,-335.371 487.934,-339.179 488.151,-332.182"/>
<text text-anchor="middle" x="705" y="-340.677" font-family="Helvetica,sans-Serif" font-size="10.00"> myPatches</text>
</g>
<!-- Node22 -->
<g id="node22" class="node"><title>Node22</title>
<g id="a_node22"><a xlink:href="../../d1/dfc/classback_end_1_1_rule_set.html" target="_top" xlink:title="backEnd.RuleSet">
<polygon fill="white" stroke="black" points="657,-365.177 657,-384.177 753,-384.177 753,-365.177 657,-365.177"/>
<text text-anchor="middle" x="705" y="-372.177" font-family="Helvetica,sans-Serif" font-size="10.00">backEnd.RuleSet</text>
</a>
</g>
</g>
<!-- Node14&#45;&gt;Node22 -->
<g id="edge22" class="edge"><title>Node14&#45;&gt;Node22</title>
<path fill="none" stroke="#9a32cd" stroke-dasharray="5,2" d="M488.223,-341.666C537.087,-349.142 609.443,-360.211 656.66,-367.434"/>
<polygon fill="#9a32cd" stroke="#9a32cd" points="488.584,-338.181 478.17,-340.128 487.525,-345.1 488.584,-338.181"/>
<text text-anchor="middle" x="561" y="-362.677" font-family="Helvetica,sans-Serif" font-size="10.00"> myPatches</text>
</g>
<!-- Node15 -->
<g id="node15" class="node"><title>Node15</title>
<polygon fill="white" stroke="#bfbfbf" points="221.5,-331.177 221.5,-350.177 284.5,-350.177 284.5,-331.177 221.5,-331.177"/>
<text text-anchor="middle" x="253" y="-338.177" font-family="Helvetica,sans-Serif" font-size="10.00">Rectangle</text>
</g>
<!-- Node15&#45;&gt;Node14 -->
<g id="edge14" class="edge"><title>Node15&#45;&gt;Node14</title>
<path fill="none" stroke="midnightblue" d="M294.728,-339.093C323.703,-337.966 362.527,-336.456 391.823,-335.317"/>
<polygon fill="midnightblue" stroke="midnightblue" points="294.391,-335.603 284.535,-339.489 294.663,-342.598 294.391,-335.603"/>
</g>
<!-- Node16 -->
<g id="node16" class="node"><title>Node16</title>
<g id="a_node16"><a xlink:href="../../d0/d08/classback_end_1_1_cell.html" target="_top" xlink:title="backEnd.Cell">
<polygon fill="white" stroke="black" points="214.5,-293.177 214.5,-312.177 291.5,-312.177 291.5,-293.177 214.5,-293.177"/>
<text text-anchor="middle" x="253" y="-300.177" font-family="Helvetica,sans-Serif" font-size="10.00">backEnd.Cell</text>
</a>
</g>
</g>
<!-- Node16&#45;&gt;Node14 -->
<g id="edge15" class="edge"><title>Node16&#45;&gt;Node14</title>
<path fill="none" stroke="#9a32cd" stroke-dasharray="5,2" d="M301.718,-310.895C329.763,-315.725 364.898,-321.776 391.908,-326.428"/>
<polygon fill="#9a32cd" stroke="#9a32cd" points="302.183,-307.424 291.734,-309.175 300.995,-314.322 302.183,-307.424"/>
<text text-anchor="middle" x="332" y="-322.677" font-family="Helvetica,sans-Serif" font-size="10.00"> myCell</text>
</g>
<!-- Node17 -->
<g id="node17" class="node"><title>Node17</title>
<polygon fill="white" stroke="#bfbfbf" points="0.5,-293.177 0.5,-312.177 125.5,-312.177 125.5,-293.177 0.5,-293.177"/>
<text text-anchor="middle" x="63" y="-300.177" font-family="Helvetica,sans-Serif" font-size="10.00">List&lt; backEnd.State &gt;</text>
</g>
<!-- Node17&#45;&gt;Node16 -->
<g id="edge16" class="edge"><title>Node17&#45;&gt;Node16</title>
<path fill="none" stroke="#9a32cd" stroke-dasharray="5,2" d="M135.695,-302.677C162.525,-302.677 191.927,-302.677 214.457,-302.677"/>
<polygon fill="#9a32cd" stroke="#9a32cd" points="135.558,-299.177 125.558,-302.677 135.558,-306.177 135.558,-299.177"/>
<text text-anchor="middle" x="170" y="-305.677" font-family="Helvetica,sans-Serif" font-size="10.00"> myHistory</text>
</g>
<!-- Node18 -->
<g id="node18" class="node"><title>Node18</title>
<polygon fill="white" stroke="#bfbfbf" points="678,-266.177 678,-285.177 732,-285.177 732,-266.177 678,-266.177"/>
<text text-anchor="middle" x="705" y="-273.177" font-family="Helvetica,sans-Serif" font-size="10.00">Polygon</text>
</g>
<!-- Node18&#45;&gt;Node12 -->
<g id="edge17" class="edge"><title>Node18&#45;&gt;Node12</title>
<path fill="none" stroke="#9a32cd" stroke-dasharray="5,2" d="M742.373,-274.062C792.284,-271.117 884.419,-263.055 960,-241.677 968.424,-239.294 969.793,-236.724 978,-233.677 987.103,-230.296 997.107,-227.066 1006.41,-224.259"/>
<polygon fill="#9a32cd" stroke="#9a32cd" points="741.882,-270.584 732.091,-274.631 742.269,-277.573 741.882,-270.584"/>
<text text-anchor="middle" x="882" y="-272.677" font-family="Helvetica,sans-Serif" font-size="10.00"> myGUICells</text>
</g>
<!-- Node19 -->
<g id="node19" class="node"><title>Node19</title>
<g id="a_node19"><a xlink:href="../../d5/d51/classfront_end_1_1_c_a_settings.html" target="_top" xlink:title="frontEnd.CASettings">
<polygon fill="white" stroke="black" points="648.5,-403.177 648.5,-422.177 761.5,-422.177 761.5,-403.177 648.5,-403.177"/>
<text text-anchor="middle" x="705" y="-410.177" font-family="Helvetica,sans-Serif" font-size="10.00">frontEnd.CASettings</text>
</a>
</g>
</g>
<!-- Node19&#45;&gt;Node12 -->
<g id="edge18" class="edge"><title>Node19&#45;&gt;Node12</title>
<path fill="none" stroke="#9a32cd" stroke-dasharray="5,2" d="M771.984,-414.913C838.292,-415.639 934.258,-412.033 960,-386.677 1008.78,-338.629 934.022,-286.155 978,-233.677 981.229,-229.824 985.208,-226.735 989.586,-224.26"/>
<polygon fill="#9a32cd" stroke="#9a32cd" points="771.661,-411.408 761.612,-414.762 771.559,-418.407 771.661,-411.408"/>
<text text-anchor="middle" x="882" y="-418.677" font-family="Helvetica,sans-Serif" font-size="10.00"> mySettings</text>
</g>
<!-- Node20 -->
<g id="node20" class="node"><title>Node20</title>
<polygon fill="white" stroke="#bfbfbf" points="372.5,-466.177 372.5,-485.177 497.5,-485.177 497.5,-466.177 372.5,-466.177"/>
<text text-anchor="middle" x="435" y="-473.177" font-family="Helvetica,sans-Serif" font-size="10.00">Map&lt; String, Object &gt;</text>
</g>
<!-- Node20&#45;&gt;Node19 -->
<g id="edge19" class="edge"><title>Node20&#45;&gt;Node19</title>
<path fill="none" stroke="#9a32cd" stroke-dasharray="5,2" d="M488.346,-486.693C524.308,-491.296 571.584,-491.205 606,-468.677 621.301,-458.661 609.73,-443.113 624,-431.677 631.018,-426.053 639.427,-422.046 648.117,-419.201"/>
<polygon fill="#9a32cd" stroke="#9a32cd" points="488.447,-483.171 478.05,-485.21 487.449,-490.1 488.447,-483.171"/>
<text text-anchor="middle" x="561" y="-491.677" font-family="Helvetica,sans-Serif" font-size="10.00"> myParameters</text>
</g>
<!-- Node20&#45;&gt;Node22 -->
<g id="edge23" class="edge"><title>Node20&#45;&gt;Node22</title>
<path fill="none" stroke="#9a32cd" stroke-dasharray="5,2" d="M485.127,-463.573C531.838,-451.736 596.374,-434.398 606,-426.677 619.032,-416.223 610.724,-403.818 624,-393.677 633.416,-386.484 645.135,-381.959 656.675,-379.126"/>
<polygon fill="#9a32cd" stroke="#9a32cd" points="484.004,-460.247 475.162,-466.084 485.714,-467.034 484.004,-460.247"/>
<text text-anchor="middle" x="561" y="-456.677" font-family="Helvetica,sans-Serif" font-size="10.00"> myParams</text>
</g>
<!-- Node21 -->
<g id="node21" class="node"><title>Node21</title>
<polygon fill="white" stroke="#bfbfbf" points="626,-216.677 626,-246.677 784,-246.677 784,-216.677 626,-216.677"/>
<text text-anchor="start" x="634" y="-234.677" font-family="Helvetica,sans-Serif" font-size="10.00">Map&lt; String, shapeFactories.</text>
<text text-anchor="middle" x="705" y="-223.677" font-family="Helvetica,sans-Serif" font-size="10.00">ShapeFactory &gt;</text>
</g>
<!-- Node21&#45;&gt;Node12 -->
<g id="edge20" class="edge"><title>Node21&#45;&gt;Node12</title>
<path fill="none" stroke="#9a32cd" stroke-dasharray="5,2" d="M794.333,-227.194C852.056,-224.265 926.071,-220.509 977.902,-217.879"/>
<polygon fill="#9a32cd" stroke="#9a32cd" points="793.93,-223.71 784.12,-227.713 794.284,-230.701 793.93,-223.71"/>
<text text-anchor="middle" x="882" y="-229.677" font-family="Helvetica,sans-Serif" font-size="10.00"> myImplementedShapeFactories</text>
</g>
<!-- Node22&#45;&gt;Node12 -->
<g id="edge21" class="edge"><title>Node22&#45;&gt;Node12</title>
<path fill="none" stroke="#9a32cd" stroke-dasharray="5,2" d="M763.384,-373.414C829.596,-370.704 932.864,-362.214 960,-335.677 992.912,-303.491 947.429,-268.094 978,-233.677 981.414,-229.833 985.574,-226.754 990.113,-224.289"/>
<polygon fill="#9a32cd" stroke="#9a32cd" points="762.954,-369.927 753.093,-373.801 763.217,-376.922 762.954,-369.927"/>
<text text-anchor="middle" x="882" y="-374.677" font-family="Helvetica,sans-Serif" font-size="10.00"> myRuleSet</text>
</g>
<!-- Node23 -->
<g id="node23" class="node"><title>Node23</title>
<polygon fill="white" stroke="#bfbfbf" points="407,-413.177 407,-432.177 463,-432.177 463,-413.177 407,-413.177"/>
<text text-anchor="middle" x="435" y="-420.177" font-family="Helvetica,sans-Serif" font-size="10.00">Random</text>
</g>
<!-- Node23&#45;&gt;Node22 -->
<g id="edge24" class="edge"><title>Node23&#45;&gt;Node22</title>
<path fill="none" stroke="#9a32cd" stroke-dasharray="5,2" d="M473.289,-417.729C507.816,-412.969 560.531,-405.247 606,-396.677 625.363,-393.027 646.727,-388.313 664.552,-384.185"/>
<polygon fill="#9a32cd" stroke="#9a32cd" points="472.62,-414.288 463.186,-419.109 473.567,-421.223 472.62,-414.288"/>
<text text-anchor="middle" x="561" y="-414.677" font-family="Helvetica,sans-Serif" font-size="10.00"> gridCoord</text>
</g>
<!-- Node24 -->
<g id="node24" class="node"><title>Node24</title>
<g id="a_node24"><a xlink:href="../../d3/dea/classback_end_1_1_state.html" target="_top" xlink:title="backEnd.State">
<polygon fill="white" stroke="black" points="392,-375.177 392,-394.177 478,-394.177 478,-375.177 392,-375.177"/>
<text text-anchor="middle" x="435" y="-382.177" font-family="Helvetica,sans-Serif" font-size="10.00">backEnd.State</text>
</a>
</g>
</g>
<!-- Node24&#45;&gt;Node22 -->
<g id="edge25" class="edge"><title>Node24&#45;&gt;Node22</title>
<path fill="none" stroke="#9a32cd" stroke-dasharray="5,2" d="M488.223,-382.728C537.087,-380.905 609.443,-378.205 656.66,-376.443"/>
<polygon fill="#9a32cd" stroke="#9a32cd" points="488.032,-379.233 478.17,-383.103 488.293,-386.228 488.032,-379.233"/>
<text text-anchor="middle" x="561" y="-384.677" font-family="Helvetica,sans-Serif" font-size="10.00"> myPossibleStates</text>
</g>
<!-- Node25 -->
<g id="node25" class="node"><title>Node25</title>
<polygon fill="white" stroke="#bfbfbf" points="232.5,-375.177 232.5,-394.177 273.5,-394.177 273.5,-375.177 232.5,-375.177"/>
<text text-anchor="middle" x="253" y="-382.177" font-family="Helvetica,sans-Serif" font-size="10.00">Color</text>
</g>
<!-- Node25&#45;&gt;Node24 -->
<g id="edge26" class="edge"><title>Node25&#45;&gt;Node24</title>
<path fill="none" stroke="#9a32cd" stroke-dasharray="5,2" d="M283.704,-384.677C313.225,-384.677 358.773,-384.677 391.991,-384.677"/>
<polygon fill="#9a32cd" stroke="#9a32cd" points="283.606,-381.177 273.606,-384.677 283.606,-388.177 283.606,-381.177"/>
<text text-anchor="middle" x="332" y="-387.677" font-family="Helvetica,sans-Serif" font-size="10.00"> myColor</text>
</g>
<!-- Node26 -->
<g id="node26" class="node"><title>Node26</title>
<polygon fill="white" stroke="#bfbfbf" points="632,-167.677 632,-197.677 778,-197.677 778,-167.677 632,-167.677"/>
<text text-anchor="start" x="640" y="-185.677" font-family="Helvetica,sans-Serif" font-size="10.00">Map&lt; String, backEnd.Rule</text>
<text text-anchor="middle" x="705" y="-174.677" font-family="Helvetica,sans-Serif" font-size="10.00">Set &gt;</text>
</g>
<!-- Node26&#45;&gt;Node12 -->
<g id="edge27" class="edge"><title>Node26&#45;&gt;Node12</title>
<path fill="none" stroke="#9a32cd" stroke-dasharray="5,2" d="M788.119,-189.027C837.895,-193.065 902.653,-198.655 960,-204.677 965.778,-205.283 971.782,-205.952 977.793,-206.648"/>
<polygon fill="#9a32cd" stroke="#9a32cd" points="788.302,-185.53 778.052,-188.214 787.739,-192.507 788.302,-185.53"/>
<text text-anchor="middle" x="882" y="-207.677" font-family="Helvetica,sans-Serif" font-size="10.00"> myImplementedRulesets</text>
</g>
<!-- Node27 -->
<g id="node27" class="node"><title>Node27</title>
<polygon fill="white" stroke="#bfbfbf" points="624.5,-129.177 624.5,-148.177 785.5,-148.177 785.5,-129.177 624.5,-129.177"/>
<text text-anchor="middle" x="705" y="-136.177" font-family="Helvetica,sans-Serif" font-size="10.00">EventHandler&lt; ActionEvent &gt;</text>
</g>
<!-- Node27&#45;&gt;Node12 -->
<g id="edge28" class="edge"><title>Node27&#45;&gt;Node12</title>
<path fill="none" stroke="#9a32cd" stroke-dasharray="5,2" d="M795.677,-145.688C844.944,-151.126 906.694,-160.562 960,-176.677 983.195,-183.689 1008.2,-196.266 1024.19,-205.022"/>
<polygon fill="#9a32cd" stroke="#9a32cd" points="795.995,-142.202 785.679,-144.62 795.251,-149.163 795.995,-142.202"/>
<text text-anchor="middle" x="882" y="-179.677" font-family="Helvetica,sans-Serif" font-size="10.00"> oneFrame</text>
</g>
<!-- Node28 -->
<g id="node28" class="node"><title>Node28</title>
<polygon fill="white" stroke="#bfbfbf" points="682,-89.1768 682,-108.177 728,-108.177 728,-89.1768 682,-89.1768"/>
<text text-anchor="middle" x="705" y="-96.1768" font-family="Helvetica,sans-Serif" font-size="10.00">Group</text>
</g>
<!-- Node28&#45;&gt;Node1 -->
<g id="edge30" class="edge"><title>Node28&#45;&gt;Node1</title>
<path fill="none" stroke="#9a32cd" stroke-dasharray="5,2" d="M738.27,-94.9556C827.304,-86.618 1078.74,-76.3945 1214,-206.677 1253.13,-244.37 1267.49,-312.054 1271.61,-337.055"/>
<polygon fill="#9a32cd" stroke="#9a32cd" points="737.841,-91.4809 728.237,-95.9535 738.534,-98.4466 737.841,-91.4809"/>
<text text-anchor="middle" x="1042" y="-140.677" font-family="Helvetica,sans-Serif" font-size="10.00"> myGrid</text>
</g>
<!-- Node28&#45;&gt;Node12 -->
<g id="edge29" class="edge"><title>Node28&#45;&gt;Node12</title>
<path fill="none" stroke="#9a32cd" stroke-dasharray="5,2" d="M738.419,-101.69C802.426,-107.814 940.541,-121.953 960,-131.677 994.581,-148.956 1022.85,-187.004 1034.83,-204.948"/>
<polygon fill="#9a32cd" stroke="#9a32cd" points="738.378,-98.1707 728.092,-100.71 737.717,-105.139 738.378,-98.1707"/>
<text text-anchor="middle" x="882" y="-134.677" font-family="Helvetica,sans-Serif" font-size="10.00"> myNodes</text>
</g>
<!-- Node29 -->
<g id="node29" class="node"><title>Node29</title>
<polygon fill="white" stroke="#bfbfbf" points="1021,-41.1768 1021,-60.1768 1063,-60.1768 1063,-41.1768 1021,-41.1768"/>
<text text-anchor="middle" x="1042" y="-48.1768" font-family="Helvetica,sans-Serif" font-size="10.00">HBox</text>
</g>
<!-- Node29&#45;&gt;Node1 -->
<g id="edge31" class="edge"><title>Node29&#45;&gt;Node1</title>
<path fill="none" stroke="#9a32cd" stroke-dasharray="5,2" d="M1073.09,-44.875C1110.99,-39.4481 1175.77,-36.7108 1214,-71.6768 1254.45,-108.669 1269.33,-292.268 1272.38,-336.891"/>
<polygon fill="#9a32cd" stroke="#9a32cd" points="1072.48,-41.4268 1063.15,-46.4479 1073.58,-48.3407 1072.48,-41.4268"/>
<text text-anchor="middle" x="1169" y="-74.6768" font-family="Helvetica,sans-Serif" font-size="10.00"> myControls</text>
</g>
<!-- Node30 -->
<g id="node30" class="node"><title>Node30</title>
<polygon fill="white" stroke="#bfbfbf" points="1006,-3.17681 1006,-22.1768 1078,-22.1768 1078,-3.17681 1006,-3.17681"/>
<text text-anchor="middle" x="1042" y="-10.1768" font-family="Helvetica,sans-Serif" font-size="10.00">BorderPane</text>
</g>
<!-- Node30&#45;&gt;Node1 -->
<g id="edge32" class="edge"><title>Node30&#45;&gt;Node1</title>
<path fill="none" stroke="#9a32cd" stroke-dasharray="5,2" d="M1088.69,-2.93104C1126.99,2.36918 1180.64,2.6455 1214,-27.6768 1261.31,-70.6718 1271.11,-288.238 1272.72,-336.979"/>
<polygon fill="#9a32cd" stroke="#9a32cd" points="1087.66,0.452405 1078.32,-4.53794 1088.74,-6.46501 1087.66,0.452405"/>
<text text-anchor="middle" x="1169" y="-30.6768" font-family="Helvetica,sans-Serif" font-size="10.00"> myRoot</text>
</g>
</g>
</svg>
        <g id="navigator" transform="translate(0 0)" fill="#404254">
                <rect fill="#f2f5e9" fill-opacity="0.5" stroke="#606060" stroke-width=".5" x="0" y="0" width="60" height="60"/>
                <use id="zoomplus" xlink:href="#zoomPlus" x="17" y="9" onmousedown="handleZoom(evt,'in')"/>
                <use id="zoomminus" xlink:href="#zoomMin" x="42" y="9" onmousedown="handleZoom(evt,'out')"/>
                <use id="reset" xlink:href="#resetDef" x="30" y="36" onmousedown="handleReset()"/>
                <g id="arrowUp" xlink:href="#dirArrow" transform="translate(30 24)" onmousedown="handlePan(0,-1)">
                  <use xlink:href="#rim" fill="#404040">
                        <set attributeName="fill" to="#808080" begin="arrowUp.mouseover" end="arrowUp.mouseout"/>
                  </use>
                  <path fill="none" stroke="white" stroke-width="1.5" d="M0,-3.0v7 M-2.5,-0.5L0,-3.0L2.5,-0.5"/>
                </g>
                <g id="arrowRight" xlink:href="#dirArrow" transform="rotate(90) translate(36 -43)" onmousedown="handlePan(1,0)">
                  <use xlink:href="#rim" fill="#404040">
                        <set attributeName="fill" to="#808080" begin="arrowRight.mouseover" end="arrowRight.mouseout"/>
                  </use>
                  <path fill="none" stroke="white" stroke-width="1.5" d="M0,-3.0v7 M-2.5,-0.5L0,-3.0L2.5,-0.5"/>
                </g>
                <g id="arrowDown" xlink:href="#dirArrow" transform="rotate(180) translate(-30 -48)" onmousedown="handlePan(0,1)">
                  <use xlink:href="#rim" fill="#404040">
                        <set attributeName="fill" to="#808080" begin="arrowDown.mouseover" end="arrowDown.mouseout"/>
                  </use>
                  <path fill="none" stroke="white" stroke-width="1.5" d="M0,-3.0v7 M-2.5,-0.5L0,-3.0L2.5,-0.5"/>
                </g>
                <g id="arrowLeft" xlink:href="#dirArrow" transform="rotate(270) translate(-36 17)" onmousedown="handlePan(-1,0)">
                  <use xlink:href="#rim" fill="#404040">
                        <set attributeName="fill" to="#808080" begin="arrowLeft.mouseover" end="arrowLeft.mouseout"/>
                  </use>
                  <path fill="none" stroke="white" stroke-width="1.5" d="M0,-3.0v7 M-2.5,-0.5L0,-3.0L2.5,-0.5"/>
                </g>
        </g>
        <svg viewBox="0 0 15 15" width="100%" height="30px" preserveAspectRatio="xMaxYMin meet">
         <g id="arrow_out" transform="scale(0.3 0.3)">
          <a xlink:href="classfront_end_1_1_main__coll__graph_org.svg" target="_base">
           <rect id="button" ry="5" rx="5" y="6" x="6" height="38" width="38"
                fill="#f2f5e9" fill-opacity="0.5" stroke="#606060" stroke-width="1.0"/>
           <path id="arrow"
             d="M 11.500037,31.436501 C 11.940474,20.09759 22.043105,11.32322 32.158766,21.979434 L 37.068811,17.246167 C 37.068811,17.246167 37.088388,32 37.088388,32 L 22.160133,31.978069 C 22.160133,31.978069 26.997745,27.140456 26.997745,27.140456 C 18.528582,18.264221 13.291696,25.230495 11.500037,31.436501 z"
             style="fill:#404040;"/>
          </a>
         </g>
        </svg>
</svg>
