<?xml version="1.0" encoding="UTF-8" standalone="no"?>
<!DOCTYPE svg PUBLIC "-//W3C//DTD SVG 1.1//EN"
 "http://www.w3.org/Graphics/SVG/1.1/DTD/svg11.dtd">
<!-- Generated by graphviz version 2.36.0 (20140111.2315)
 -->
<!-- Title: backEnd.Patch Pages: 1 -->
<svg width="189pt" height="164pt"
 viewBox="0.00 0.00 189.00 164.00" xmlns="http://www.w3.org/2000/svg" xmlns:xlink="http://www.w3.org/1999/xlink">
<g id="graph0" class="graph" transform="scale(1 1) rotate(0) translate(4 160)">
<title>backEnd.Patch</title>
<polygon fill="white" stroke="none" points="-4,4 -4,-160 185,-160 185,4 -4,4"/>
<!-- Node1 -->
<g id="node1" class="node"><title>Node1</title>
<polygon fill="#bfbfbf" stroke="black" points="18,-0.5 18,-19.5 104,-19.5 104,-0.5 18,-0.5"/>
<text text-anchor="middle" x="61" y="-7.5" font-family="Helvetica,sans-Serif" font-size="10.00">backEnd.Patch</text>
</g>
<!-- Node2 -->
<g id="node2" class="node"><title>Node2</title>
<polygon fill="white" stroke="#bfbfbf" points="-0.5,-68.5 -0.5,-87.5 62.5,-87.5 62.5,-68.5 -0.5,-68.5"/>
<text text-anchor="middle" x="31" y="-75.5" font-family="Helvetica,sans-Serif" font-size="10.00">Rectangle</text>
</g>
<!-- Node2&#45;&gt;Node1 -->
<g id="edge1" class="edge"><title>Node2&#45;&gt;Node1</title>
<path fill="none" stroke="midnightblue" d="M39.0973,-59.1859C44.8853,-46.4523 52.4269,-29.8607 56.9813,-19.8411"/>
<polygon fill="midnightblue" stroke="midnightblue" points="35.8738,-57.8196 34.922,-68.3717 42.2463,-60.7163 35.8738,-57.8196"/>
</g>
<!-- Node3 -->
<g id="node3" class="node"><title>Node3</title>
<g id="a_node3"><a xlink:href="../../d0/d08/classback_end_1_1_cell.html" target="_top" xlink:title="backEnd.Cell">
<polygon fill="white" stroke="black" points="80.5,-68.5 80.5,-87.5 157.5,-87.5 157.5,-68.5 80.5,-68.5"/>
<text text-anchor="middle" x="119" y="-75.5" font-family="Helvetica,sans-Serif" font-size="10.00">backEnd.Cell</text>
</a>
</g>
</g>
<!-- Node3&#45;&gt;Node1 -->
<g id="edge2" class="edge"><title>Node3&#45;&gt;Node1</title>
<path fill="none" stroke="#9a32cd" stroke-dasharray="5,2" d="M104.658,-60.68C93.319,-47.7768 77.9233,-30.2575 68.7695,-19.8411"/>
<polygon fill="#9a32cd" stroke="#9a32cd" points="102.187,-63.1704 111.418,-68.3717 107.445,-58.5496 102.187,-63.1704"/>
<text text-anchor="middle" x="113" y="-41.5" font-family="Helvetica,sans-Serif" font-size="10.00"> myCell</text>
</g>
<!-- Node4 -->
<g id="node4" class="node"><title>Node4</title>
<polygon fill="white" stroke="#bfbfbf" points="56.5,-136.5 56.5,-155.5 181.5,-155.5 181.5,-136.5 56.5,-136.5"/>
<text text-anchor="middle" x="119" y="-143.5" font-family="Helvetica,sans-Serif" font-size="10.00">List&lt; backEnd.State &gt;</text>
</g>
<!-- Node4&#45;&gt;Node3 -->
<g id="edge3" class="edge"><title>Node4&#45;&gt;Node3</title>
<path fill="none" stroke="#9a32cd" stroke-dasharray="5,2" d="M119,-126.041C119,-113.472 119,-97.5631 119,-87.8411"/>
<polygon fill="#9a32cd" stroke="#9a32cd" points="115.5,-126.372 119,-136.372 122.5,-126.372 115.5,-126.372"/>
<text text-anchor="middle" x="145" y="-109.5" font-family="Helvetica,sans-Serif" font-size="10.00"> myHistory</text>
</g>
</g>
</svg>
