<?xml version="1.0" encoding="UTF-8" standalone="no"?>
<!DOCTYPE svg PUBLIC "-//W3C//DTD SVG 1.1//EN"
 "http://www.w3.org/Graphics/SVG/1.1/DTD/svg11.dtd">
<!-- Generated by graphviz version 2.36.0 (20140111.2315)
 -->
<!-- Title: backEnd.SugarScape Pages: 1 -->
<!--zoomable 300 -->
<svg id="main" version="1.1" xmlns="http://www.w3.org/2000/svg" xmlns:xlink="http://www.w3.org/1999/xlink" xml:space="preserve" onload="init(evt)">
<style type="text/css"><![CDATA[
.edge:hover path { stroke: red; }
.edge:hover polygon { stroke: red; fill: red; }
]]></style>
<script type="text/javascript"><![CDATA[
var edges = document.getElementsByTagName('g');
if (edges && edges.length) {
  for (var i=0;i<edges.length;i++) {
    if (edges[i].id.substr(0,4)=='edge') {
      edges[i].setAttribute('class','edge');
    }
  }
}
]]></script>
        <defs>
                <circle id="rim" cx="0" cy="0" r="7"/>
                <circle id="rim2" cx="0" cy="0" r="3.5"/>
                <g id="zoomPlus">
                        <use xlink:href="#rim" fill="#404040">
                                <set attributeName="fill" to="#808080" begin="zoomplus.mouseover" end="zoomplus.mouseout"/>
                        </use>
                        <path d="M-4,0h8M0,-4v8" fill="none" stroke="white" stroke-width="1.5" pointer-events="none"/>
                </g>
                <g id="zoomMin">
                        <use xlink:href="#rim" fill="#404040">
                                <set attributeName="fill" to="#808080" begin="zoomminus.mouseover" end="zoomminus.mouseout"/>
                        </use>
                        <path d="M-4,0h8" fill="none" stroke="white" stroke-width="1.5" pointer-events="none"/>
                </g>
                <g id="dirArrow">
                        <path fill="none" stroke="white" stroke-width="1.5" d="M0,-3.0v7 M-2.5,-0.5L0,-3.0L2.5,-0.5"/>
                </g>
               <g id="resetDef">
                       <use xlink:href="#rim2" fill="#404040">
                               <set attributeName="fill" to="#808080" begin="reset.mouseover" end="reset.mouseout"/>
                       </use>
               </g>
        </defs>

<script type="text/javascript">
var viewWidth = 761;
var viewHeight = 300;
var sectionId = 'dynsection-1';
</script>
<script xlink:href="../../svgpan.js"/>
<svg id="graph" class="graph">
<g id="viewport">
<title>backEnd.SugarScape</title>
<polygon fill="white" stroke="none" points="-4,4 -4,-296 757,-296 757,4 -4,4"/>
<!-- Node1 -->
<g id="node1" class="node"><title>Node1</title>
<polygon fill="#bfbfbf" stroke="black" points="434.5,-0.5 434.5,-19.5 553.5,-19.5 553.5,-0.5 434.5,-0.5"/>
<text text-anchor="middle" x="494" y="-7.5" font-family="Helvetica,sans-Serif" font-size="10.00">backEnd.SugarScape</text>
</g>
<!-- Node2 -->
<g id="node2" class="node"><title>Node2</title>
<g id="a_node2"><a xlink:href="../../d1/dfc/classback_end_1_1_rule_set.html" target="_top" xlink:title="backEnd.RuleSet">
<polygon fill="white" stroke="black" points="217,-68.5 217,-87.5 313,-87.5 313,-68.5 217,-68.5"/>
<text text-anchor="middle" x="265" y="-75.5" font-family="Helvetica,sans-Serif" font-size="10.00">backEnd.RuleSet</text>
</a>
</g>
</g>
<!-- Node2&#45;&gt;Node1 -->
<g id="edge1" class="edge"><title>Node2&#45;&gt;Node1</title>
<path fill="none" stroke="midnightblue" d="M304.753,-65.5428C350.244,-52.4319 423.693,-31.2632 464.418,-19.5259"/>
<polygon fill="midnightblue" stroke="midnightblue" points="303.577,-62.2391 294.938,-68.3717 305.516,-68.9653 303.577,-62.2391"/>
</g>
<!-- Node3 -->
<g id="node3" class="node"><title>Node3</title>
<g id="a_node3"><a xlink:href="../../db/d5e/classback_end_1_1_patch.html" target="_top" xlink:title="backEnd.Patch">
<polygon fill="white" stroke="black" points="143,-136.5 143,-155.5 229,-155.5 229,-136.5 143,-136.5"/>
<text text-anchor="middle" x="186" y="-143.5" font-family="Helvetica,sans-Serif" font-size="10.00">backEnd.Patch</text>
</a>
</g>
</g>
<!-- Node3&#45;&gt;Node2 -->
<g id="edge2" class="edge"><title>Node3&#45;&gt;Node2</title>
<path fill="none" stroke="#9a32cd" stroke-dasharray="5,2" d="M191.377,-126.533C194.198,-119.402 198.287,-111.624 204,-106 212.418,-97.7128 223.812,-91.7432 234.474,-87.5599"/>
<polygon fill="#9a32cd" stroke="#9a32cd" points="187.998,-125.597 188.108,-136.191 194.629,-127.841 187.998,-125.597"/>
<text text-anchor="middle" x="232" y="-109.5" font-family="Helvetica,sans-Serif" font-size="10.00"> myPatches</text>
</g>
<!-- Node4 -->
<g id="node4" class="node"><title>Node4</title>
<polygon fill="white" stroke="#bfbfbf" points="171.5,-204.5 171.5,-223.5 234.5,-223.5 234.5,-204.5 171.5,-204.5"/>
<text text-anchor="middle" x="203" y="-211.5" font-family="Helvetica,sans-Serif" font-size="10.00">Rectangle</text>
</g>
<!-- Node4&#45;&gt;Node3 -->
<g id="edge3" class="edge"><title>Node4&#45;&gt;Node3</title>
<path fill="none" stroke="midnightblue" d="M198.216,-194.425C194.963,-181.798 190.807,-165.662 188.277,-155.841"/>
<polygon fill="midnightblue" stroke="midnightblue" points="194.894,-195.561 200.778,-204.372 201.673,-193.815 194.894,-195.561"/>
</g>
<!-- Node5 -->
<g id="node5" class="node"><title>Node5</title>
<g id="a_node5"><a xlink:href="../../d0/d08/classback_end_1_1_cell.html" target="_top" xlink:title="backEnd.Cell">
<polygon fill="white" stroke="black" points="76.5,-204.5 76.5,-223.5 153.5,-223.5 153.5,-204.5 76.5,-204.5"/>
<text text-anchor="middle" x="115" y="-211.5" font-family="Helvetica,sans-Serif" font-size="10.00">backEnd.Cell</text>
</a>
</g>
</g>
<!-- Node5&#45;&gt;Node3 -->
<g id="edge4" class="edge"><title>Node5&#45;&gt;Node3</title>
<path fill="none" stroke="#9a32cd" stroke-dasharray="5,2" d="M130.113,-196.679C136.929,-189.533 145.187,-181.163 153,-174 159.984,-167.597 168.234,-160.847 174.738,-155.697"/>
<polygon fill="#9a32cd" stroke="#9a32cd" points="127.191,-194.677 122.889,-204.359 132.29,-199.473 127.191,-194.677"/>
<text text-anchor="middle" x="171" y="-177.5" font-family="Helvetica,sans-Serif" font-size="10.00"> myCell</text>
</g>
<!-- Node6 -->
<g id="node6" class="node"><title>Node6</title>
<polygon fill="white" stroke="#bfbfbf" points="52.5,-272.5 52.5,-291.5 177.5,-291.5 177.5,-272.5 52.5,-272.5"/>
<text text-anchor="middle" x="115" y="-279.5" font-family="Helvetica,sans-Serif" font-size="10.00">List&lt; backEnd.State &gt;</text>
</g>
<!-- Node6&#45;&gt;Node5 -->
<g id="edge5" class="edge"><title>Node6&#45;&gt;Node5</title>
<path fill="none" stroke="#9a32cd" stroke-dasharray="5,2" d="M115,-262.041C115,-249.472 115,-233.563 115,-223.841"/>
<polygon fill="#9a32cd" stroke="#9a32cd" points="111.5,-262.372 115,-272.372 118.5,-262.372 111.5,-262.372"/>
<text text-anchor="middle" x="141" y="-245.5" font-family="Helvetica,sans-Serif" font-size="10.00"> myHistory</text>
</g>
<!-- Node7 -->
<g id="node7" class="node"><title>Node7</title>
<polygon fill="white" stroke="#bfbfbf" points="-0.5,-136.5 -0.5,-155.5 124.5,-155.5 124.5,-136.5 -0.5,-136.5"/>
<text text-anchor="middle" x="62" y="-143.5" font-family="Helvetica,sans-Serif" font-size="10.00">Map&lt; String, Object &gt;</text>
</g>
<!-- Node7&#45;&gt;Node2 -->
<g id="edge6" class="edge"><title>Node7&#45;&gt;Node2</title>
<path fill="none" stroke="#9a32cd" stroke-dasharray="5,2" d="M84.3441,-131.331C98.8881,-122.957 118.524,-112.613 137,-106 162.659,-96.8162 192.388,-90.3096 216.733,-85.9882"/>
<polygon fill="#9a32cd" stroke="#9a32cd" points="82.4252,-128.399 75.5852,-136.49 85.978,-134.431 82.4252,-128.399"/>
<text text-anchor="middle" x="164.5" y="-109.5" font-family="Helvetica,sans-Serif" font-size="10.00"> myParams</text>
</g>
<!-- Node8 -->
<g id="node8" class="node"><title>Node8</title>
<polygon fill="white" stroke="#bfbfbf" points="382,-136.5 382,-155.5 438,-155.5 438,-136.5 382,-136.5"/>
<text text-anchor="middle" x="410" y="-143.5" font-family="Helvetica,sans-Serif" font-size="10.00">Random</text>
</g>
<!-- Node8&#45;&gt;Node1 -->
<g id="edge12" class="edge"><title>Node8&#45;&gt;Node1</title>
<path fill="none" stroke="#9a32cd" stroke-dasharray="5,2" d="M422.03,-127.822C424.111,-124.613 426.186,-121.246 428,-118 439.932,-96.647 438.451,-88.9961 451,-68 461.811,-49.9117 477.226,-30.7111 486.363,-19.8521"/>
<polygon fill="#9a32cd" stroke="#9a32cd" points="419.055,-125.974 416.362,-136.221 424.857,-129.89 419.055,-125.974"/>
<text text-anchor="middle" x="463.5" y="-75.5" font-family="Helvetica,sans-Serif" font-size="10.00"> rand</text>
</g>
<!-- Node8&#45;&gt;Node2 -->
<g id="edge7" class="edge"><title>Node8&#45;&gt;Node2</title>
<path fill="none" stroke="#9a32cd" stroke-dasharray="5,2" d="M392.247,-130.156C381.906,-122.104 368.313,-112.499 355,-106 338.728,-98.0566 319.646,-91.9256 303.251,-87.5286"/>
<polygon fill="#9a32cd" stroke="#9a32cd" points="390.102,-132.922 400.092,-136.452 394.484,-127.463 390.102,-132.922"/>
<text text-anchor="middle" x="400" y="-109.5" font-family="Helvetica,sans-Serif" font-size="10.00"> gridCoord</text>
</g>
<!-- Node9 -->
<g id="node9" class="node"><title>Node9</title>
<g id="a_node9"><a xlink:href="../../d3/dea/classback_end_1_1_state.html" target="_top" xlink:title="backEnd.State">
<polygon fill="white" stroke="black" points="247,-136.5 247,-155.5 333,-155.5 333,-136.5 247,-136.5"/>
<text text-anchor="middle" x="290" y="-143.5" font-family="Helvetica,sans-Serif" font-size="10.00">backEnd.State</text>
</a>
</g>
</g>
<!-- Node9&#45;&gt;Node2 -->
<g id="edge8" class="edge"><title>Node9&#45;&gt;Node2</title>
<path fill="none" stroke="#9a32cd" stroke-dasharray="5,2" d="M272.431,-128.764C269.826,-125.468 267.512,-121.828 266,-118 262.119,-108.173 262.596,-95.8402 263.562,-87.705"/>
<polygon fill="#9a32cd" stroke="#9a32cd" points="269.878,-131.159 279.217,-136.163 275.037,-126.427 269.878,-131.159"/>
<text text-anchor="middle" x="310.5" y="-109.5" font-family="Helvetica,sans-Serif" font-size="10.00"> myPossibleStates</text>
</g>
<!-- Node10 -->
<g id="node10" class="node"><title>Node10</title>
<polygon fill="white" stroke="#bfbfbf" points="269.5,-204.5 269.5,-223.5 310.5,-223.5 310.5,-204.5 269.5,-204.5"/>
<text text-anchor="middle" x="290" y="-211.5" font-family="Helvetica,sans-Serif" font-size="10.00">Color</text>
</g>
<!-- Node10&#45;&gt;Node9 -->
<g id="edge9" class="edge"><title>Node10&#45;&gt;Node9</title>
<path fill="none" stroke="#9a32cd" stroke-dasharray="5,2" d="M290,-194.041C290,-181.472 290,-165.563 290,-155.841"/>
<polygon fill="#9a32cd" stroke="#9a32cd" points="286.5,-194.372 290,-204.372 293.5,-194.372 286.5,-194.372"/>
<text text-anchor="middle" x="311.5" y="-177.5" font-family="Helvetica,sans-Serif" font-size="10.00"> myColor</text>
</g>
<!-- Node11 -->
<g id="node11" class="node"><title>Node11</title>
<polygon fill="white" stroke="#bfbfbf" points="485,-68.5 485,-87.5 609,-87.5 609,-68.5 485,-68.5"/>
<text text-anchor="middle" x="547" y="-75.5" font-family="Helvetica,sans-Serif" font-size="10.00">Map&lt; Integer, Color &gt;</text>
</g>
<!-- Node11&#45;&gt;Node1 -->
<g id="edge10" class="edge"><title>Node11&#45;&gt;Node1</title>
<path fill="none" stroke="#9a32cd" stroke-dasharray="5,2" d="M533.598,-60.3101C523.265,-47.4437 509.385,-30.1583 501.1,-19.8411"/>
<polygon fill="#9a32cd" stroke="#9a32cd" points="531.081,-62.766 540.071,-68.3717 536.539,-58.383 531.081,-62.766"/>
<text text-anchor="middle" x="558" y="-41.5" font-family="Helvetica,sans-Serif" font-size="10.00"> myColorMap</text>
</g>
<!-- Node12 -->
<g id="node12" class="node"><title>Node12</title>
<polygon fill="white" stroke="#bfbfbf" points="627.5,-68.5 627.5,-87.5 752.5,-87.5 752.5,-68.5 627.5,-68.5"/>
<text text-anchor="middle" x="690" y="-75.5" font-family="Helvetica,sans-Serif" font-size="10.00">List&lt; backEnd.Patch &gt;</text>
</g>
<!-- Node12&#45;&gt;Node1 -->
<g id="edge11" class="edge"><title>Node12&#45;&gt;Node1</title>
<path fill="none" stroke="#9a32cd" stroke-dasharray="5,2" d="M661.526,-64.364C642.604,-56.2333 617.084,-45.7729 594,-38 573.038,-30.9415 549.134,-24.4328 529.954,-19.5751"/>
<polygon fill="#9a32cd" stroke="#9a32cd" points="660.205,-67.606 670.772,-68.3769 662.992,-61.1848 660.205,-67.606"/>
<text text-anchor="middle" x="665.5" y="-41.5" font-family="Helvetica,sans-Serif" font-size="10.00"> patchesToMove</text>
</g>
</g>
</svg>
        <g id="navigator" transform="translate(0 0)" fill="#404254">
                <rect fill="#f2f5e9" fill-opacity="0.5" stroke="#606060" stroke-width=".5" x="0" y="0" width="60" height="60"/>
                <use id="zoomplus" xlink:href="#zoomPlus" x="17" y="9" onmousedown="handleZoom(evt,'in')"/>
                <use id="zoomminus" xlink:href="#zoomMin" x="42" y="9" onmousedown="handleZoom(evt,'out')"/>
                <use id="reset" xlink:href="#resetDef" x="30" y="36" onmousedown="handleReset()"/>
                <g id="arrowUp" xlink:href="#dirArrow" transform="translate(30 24)" onmousedown="handlePan(0,-1)">
                  <use xlink:href="#rim" fill="#404040">
                        <set attributeName="fill" to="#808080" begin="arrowUp.mouseover" end="arrowUp.mouseout"/>
                  </use>
                  <path fill="none" stroke="white" stroke-width="1.5" d="M0,-3.0v7 M-2.5,-0.5L0,-3.0L2.5,-0.5"/>
                </g>
                <g id="arrowRight" xlink:href="#dirArrow" transform="rotate(90) translate(36 -43)" onmousedown="handlePan(1,0)">
                  <use xlink:href="#rim" fill="#404040">
                        <set attributeName="fill" to="#808080" begin="arrowRight.mouseover" end="arrowRight.mouseout"/>
                  </use>
                  <path fill="none" stroke="white" stroke-width="1.5" d="M0,-3.0v7 M-2.5,-0.5L0,-3.0L2.5,-0.5"/>
                </g>
                <g id="arrowDown" xlink:href="#dirArrow" transform="rotate(180) translate(-30 -48)" onmousedown="handlePan(0,1)">
                  <use xlink:href="#rim" fill="#404040">
                        <set attributeName="fill" to="#808080" begin="arrowDown.mouseover" end="arrowDown.mouseout"/>
                  </use>
                  <path fill="none" stroke="white" stroke-width="1.5" d="M0,-3.0v7 M-2.5,-0.5L0,-3.0L2.5,-0.5"/>
                </g>
                <g id="arrowLeft" xlink:href="#dirArrow" transform="rotate(270) translate(-36 17)" onmousedown="handlePan(-1,0)">
                  <use xlink:href="#rim" fill="#404040">
                        <set attributeName="fill" to="#808080" begin="arrowLeft.mouseover" end="arrowLeft.mouseout"/>
                  </use>
                  <path fill="none" stroke="white" stroke-width="1.5" d="M0,-3.0v7 M-2.5,-0.5L0,-3.0L2.5,-0.5"/>
                </g>
        </g>
        <svg viewBox="0 0 15 15" width="100%" height="30px" preserveAspectRatio="xMaxYMin meet">
         <g id="arrow_out" transform="scale(0.3 0.3)">
          <a xlink:href="classback_end_1_1_sugar_scape__coll__graph_org.svg" target="_base">
           <rect id="button" ry="5" rx="5" y="6" x="6" height="38" width="38"
                fill="#f2f5e9" fill-opacity="0.5" stroke="#606060" stroke-width="1.0"/>
           <path id="arrow"
             d="M 11.500037,31.436501 C 11.940474,20.09759 22.043105,11.32322 32.158766,21.979434 L 37.068811,17.246167 C 37.068811,17.246167 37.088388,32 37.088388,32 L 22.160133,31.978069 C 22.160133,31.978069 26.997745,27.140456 26.997745,27.140456 C 18.528582,18.264221 13.291696,25.230495 11.500037,31.436501 z"
             style="fill:#404040;"/>
          </a>
         </g>
        </svg>
</svg>
