<?xml version="1.0" encoding="UTF-8" standalone="no"?>
<!DOCTYPE svg PUBLIC "-//W3C//DTD SVG 1.1//EN"
 "http://www.w3.org/Graphics/SVG/1.1/DTD/svg11.dtd">
<!-- Generated by graphviz version 2.36.0 (20140111.2315)
 -->
<!-- Title: backEnd.RuleSet Pages: 1 -->
<svg width="449pt" height="232pt"
 viewBox="0.00 0.00 449.00 232.00" xmlns="http://www.w3.org/2000/svg" xmlns:xlink="http://www.w3.org/1999/xlink">
<g id="graph0" class="graph" transform="scale(1 1) rotate(0) translate(4 228)">
<title>backEnd.RuleSet</title>
<polygon fill="white" stroke="none" points="-4,4 -4,-228 445,-228 445,4 -4,4"/>
<!-- Node1 -->
<g id="node1" class="node"><title>Node1</title>
<polygon fill="#bfbfbf" stroke="black" points="191,-0.5 191,-19.5 287,-19.5 287,-0.5 191,-0.5"/>
<text text-anchor="middle" x="239" y="-7.5" font-family="Helvetica,sans-Serif" font-size="10.00">backEnd.RuleSet</text>
</g>
<!-- Node2 -->
<g id="node2" class="node"><title>Node2</title>
<g id="a_node2"><a xlink:href="../../db/d5e/classback_end_1_1_patch.html" target="_top" xlink:title="backEnd.Patch">
<polygon fill="white" stroke="black" points="18,-68.5 18,-87.5 104,-87.5 104,-68.5 18,-68.5"/>
<text text-anchor="middle" x="61" y="-75.5" font-family="Helvetica,sans-Serif" font-size="10.00">backEnd.Patch</text>
</a>
</g>
</g>
<!-- Node2&#45;&gt;Node1 -->
<g id="edge1" class="edge"><title>Node2&#45;&gt;Node1</title>
<path fill="none" stroke="#9a32cd" stroke-dasharray="5,2" d="M87.3587,-63.8837C104.175,-55.8082 126.573,-45.5864 147,-38 166.193,-30.8716 188.181,-24.3602 205.848,-19.5185"/>
<polygon fill="#9a32cd" stroke="#9a32cd" points="85.6239,-60.8353 78.1596,-68.3543 88.6836,-67.1312 85.6239,-60.8353"/>
<text text-anchor="middle" x="175" y="-41.5" font-family="Helvetica,sans-Serif" font-size="10.00"> myPatches</text>
</g>
<!-- Node3 -->
<g id="node3" class="node"><title>Node3</title>
<polygon fill="white" stroke="#bfbfbf" points="-0.5,-136.5 -0.5,-155.5 62.5,-155.5 62.5,-136.5 -0.5,-136.5"/>
<text text-anchor="middle" x="31" y="-143.5" font-family="Helvetica,sans-Serif" font-size="10.00">Rectangle</text>
</g>
<!-- Node3&#45;&gt;Node2 -->
<g id="edge2" class="edge"><title>Node3&#45;&gt;Node2</title>
<path fill="none" stroke="midnightblue" d="M39.0973,-127.186C44.8853,-114.452 52.4269,-97.8607 56.9813,-87.8411"/>
<polygon fill="midnightblue" stroke="midnightblue" points="35.8738,-125.82 34.922,-136.372 42.2463,-128.716 35.8738,-125.82"/>
</g>
<!-- Node4 -->
<g id="node4" class="node"><title>Node4</title>
<g id="a_node4"><a xlink:href="../../d0/d08/classback_end_1_1_cell.html" target="_top" xlink:title="backEnd.Cell">
<polygon fill="white" stroke="black" points="80.5,-136.5 80.5,-155.5 157.5,-155.5 157.5,-136.5 80.5,-136.5"/>
<text text-anchor="middle" x="119" y="-143.5" font-family="Helvetica,sans-Serif" font-size="10.00">backEnd.Cell</text>
</a>
</g>
</g>
<!-- Node4&#45;&gt;Node2 -->
<g id="edge3" class="edge"><title>Node4&#45;&gt;Node2</title>
<path fill="none" stroke="#9a32cd" stroke-dasharray="5,2" d="M104.658,-128.68C93.319,-115.777 77.9233,-98.2575 68.7695,-87.8411"/>
<polygon fill="#9a32cd" stroke="#9a32cd" points="102.187,-131.17 111.418,-136.372 107.445,-126.55 102.187,-131.17"/>
<text text-anchor="middle" x="114" y="-109.5" font-family="Helvetica,sans-Serif" font-size="10.00"> myCell</text>
</g>
<!-- Node5 -->
<g id="node5" class="node"><title>Node5</title>
<polygon fill="white" stroke="#bfbfbf" points="56.5,-204.5 56.5,-223.5 181.5,-223.5 181.5,-204.5 56.5,-204.5"/>
<text text-anchor="middle" x="119" y="-211.5" font-family="Helvetica,sans-Serif" font-size="10.00">List&lt; backEnd.State &gt;</text>
</g>
<!-- Node5&#45;&gt;Node4 -->
<g id="edge4" class="edge"><title>Node5&#45;&gt;Node4</title>
<path fill="none" stroke="#9a32cd" stroke-dasharray="5,2" d="M119,-194.041C119,-181.472 119,-165.563 119,-155.841"/>
<polygon fill="#9a32cd" stroke="#9a32cd" points="115.5,-194.372 119,-204.372 122.5,-194.372 115.5,-194.372"/>
<text text-anchor="middle" x="145" y="-177.5" font-family="Helvetica,sans-Serif" font-size="10.00"> myHistory</text>
</g>
<!-- Node6 -->
<g id="node6" class="node"><title>Node6</title>
<polygon fill="white" stroke="#bfbfbf" points="122.5,-68.5 122.5,-87.5 247.5,-87.5 247.5,-68.5 122.5,-68.5"/>
<text text-anchor="middle" x="185" y="-75.5" font-family="Helvetica,sans-Serif" font-size="10.00">Map&lt; String, Object &gt;</text>
</g>
<!-- Node6&#45;&gt;Node1 -->
<g id="edge5" class="edge"><title>Node6&#45;&gt;Node1</title>
<path fill="none" stroke="#9a32cd" stroke-dasharray="5,2" d="M198.109,-60.253C203.586,-53.3229 210.049,-45.2315 216,-38 221.008,-31.9141 226.758,-25.1641 231.256,-19.9356"/>
<polygon fill="#9a32cd" stroke="#9a32cd" points="195.244,-58.2344 191.811,-68.2579 200.745,-62.5626 195.244,-58.2344"/>
<text text-anchor="middle" x="243.5" y="-41.5" font-family="Helvetica,sans-Serif" font-size="10.00"> myParams</text>
</g>
<!-- Node7 -->
<g id="node7" class="node"><title>Node7</title>
<polygon fill="white" stroke="#bfbfbf" points="265,-68.5 265,-87.5 321,-87.5 321,-68.5 265,-68.5"/>
<text text-anchor="middle" x="293" y="-75.5" font-family="Helvetica,sans-Serif" font-size="10.00">Random</text>
</g>
<!-- Node7&#45;&gt;Node1 -->
<g id="edge6" class="edge"><title>Node7&#45;&gt;Node1</title>
<path fill="none" stroke="#9a32cd" stroke-dasharray="5,2" d="M284.622,-59.0889C280.946,-52.1461 276.264,-44.3553 271,-38 265.25,-31.0586 257.563,-24.507 251.164,-19.5961"/>
<polygon fill="#9a32cd" stroke="#9a32cd" points="281.658,-60.9892 289.241,-68.3885 287.927,-57.8754 281.658,-60.9892"/>
<text text-anchor="middle" x="304" y="-41.5" font-family="Helvetica,sans-Serif" font-size="10.00"> gridCoord</text>
</g>
<!-- Node8 -->
<g id="node8" class="node"><title>Node8</title>
<g id="a_node8"><a xlink:href="../../d3/dea/classback_end_1_1_state.html" target="_top" xlink:title="backEnd.State">
<polygon fill="white" stroke="black" points="339,-68.5 339,-87.5 425,-87.5 425,-68.5 339,-68.5"/>
<text text-anchor="middle" x="382" y="-75.5" font-family="Helvetica,sans-Serif" font-size="10.00">backEnd.State</text>
</a>
</g>
</g>
<!-- Node8&#45;&gt;Node1 -->
<g id="edge7" class="edge"><title>Node8&#45;&gt;Node1</title>
<path fill="none" stroke="#9a32cd" stroke-dasharray="5,2" d="M365.917,-61.5195C356.86,-53.5254 344.986,-44.1791 333,-38 317.153,-29.831 298.493,-23.8209 281.992,-19.5731"/>
<polygon fill="#9a32cd" stroke="#9a32cd" points="363.629,-64.1707 373.365,-68.3512 368.361,-59.0122 363.629,-64.1707"/>
<text text-anchor="middle" x="396.5" y="-41.5" font-family="Helvetica,sans-Serif" font-size="10.00"> myPossibleStates</text>
</g>
<!-- Node9 -->
<g id="node9" class="node"><title>Node9</title>
<polygon fill="white" stroke="#bfbfbf" points="361.5,-136.5 361.5,-155.5 402.5,-155.5 402.5,-136.5 361.5,-136.5"/>
<text text-anchor="middle" x="382" y="-143.5" font-family="Helvetica,sans-Serif" font-size="10.00">Color</text>
</g>
<!-- Node9&#45;&gt;Node8 -->
<g id="edge8" class="edge"><title>Node9&#45;&gt;Node8</title>
<path fill="none" stroke="#9a32cd" stroke-dasharray="5,2" d="M382,-126.041C382,-113.472 382,-97.5631 382,-87.8411"/>
<polygon fill="#9a32cd" stroke="#9a32cd" points="378.5,-126.372 382,-136.372 385.5,-126.372 378.5,-126.372"/>
<text text-anchor="middle" x="403.5" y="-109.5" font-family="Helvetica,sans-Serif" font-size="10.00"> myColor</text>
</g>
</g>
</svg>
