<?xml version="1.0" encoding="UTF-8" standalone="no"?>
<!DOCTYPE svg PUBLIC "-//W3C//DTD SVG 1.1//EN"
 "http://www.w3.org/Graphics/SVG/1.1/DTD/svg11.dtd">
<!-- Generated by graphviz version 2.36.0 (20140111.2315)
 -->
<!-- Title: backEnd.SugarScape.testRandomness Pages: 1 -->
<svg width="564pt" height="66pt"
 viewBox="0.00 0.00 564.00 66.00" xmlns="http://www.w3.org/2000/svg" xmlns:xlink="http://www.w3.org/1999/xlink">
<g id="graph0" class="graph" transform="scale(1 1) rotate(0) translate(4 62)">
<title>backEnd.SugarScape.testRandomness</title>
<polygon fill="white" stroke="none" points="-4,4 -4,-62 560,-62 560,4 -4,4"/>
<!-- Node1 -->
<g id="node1" class="node"><title>Node1</title>
<polygon fill="#bfbfbf" stroke="black" points="0.5,-19.5 0.5,-38.5 203.5,-38.5 203.5,-19.5 0.5,-19.5"/>
<text text-anchor="middle" x="102" y="-26.5" font-family="Helvetica,sans-Serif" font-size="10.00">backEnd.SugarScape.testRandomness</text>
</g>
<!-- Node2 -->
<g id="node2" class="node"><title>Node2</title>
<g id="a_node2"><a xlink:href="../../d0/d08/classback_end_1_1_cell.html#a9eb4afaad28f514cef9159dc5945313b" target="_top" xlink:title="backEnd.Cell.getColor">
<polygon fill="white" stroke="black" points="258.5,-38.5 258.5,-57.5 379.5,-57.5 379.5,-38.5 258.5,-38.5"/>
<text text-anchor="middle" x="319" y="-45.5" font-family="Helvetica,sans-Serif" font-size="10.00">backEnd.Cell.getColor</text>
</a>
</g>
</g>
<!-- Node1&#45;&gt;Node2 -->
<g id="edge1" class="edge"><title>Node1&#45;&gt;Node2</title>
<path fill="none" stroke="midnightblue" d="M203.576,-37.8881C218.614,-39.217 233.834,-40.5621 248.051,-41.8185"/>
<polygon fill="midnightblue" stroke="midnightblue" points="247.941,-45.3222 258.21,-42.7162 248.557,-38.3494 247.941,-45.3222"/>
</g>
<!-- Node4 -->
<g id="node4" class="node"><title>Node4</title>
<g id="a_node4"><a xlink:href="../../de/d49/classback_end_1_1_sugar_scape.html#aaf84272d68cbd5b1ae5a30fba6c77967" target="_top" xlink:title="backEnd.SugarScape.isSugar">
<polygon fill="white" stroke="black" points="240,-0.5 240,-19.5 398,-19.5 398,-0.5 240,-0.5"/>
<text text-anchor="middle" x="319" y="-7.5" font-family="Helvetica,sans-Serif" font-size="10.00">backEnd.SugarScape.isSugar</text>
</a>
</g>
</g>
<!-- Node1&#45;&gt;Node4 -->
<g id="edge3" class="edge"><title>Node1&#45;&gt;Node4</title>
<path fill="none" stroke="midnightblue" d="M203.576,-20.1119C212.295,-19.3414 221.075,-18.5655 229.686,-17.8045"/>
<polygon fill="midnightblue" stroke="midnightblue" points="230.049,-21.2862 239.702,-16.9194 229.432,-14.3134 230.049,-21.2862"/>
</g>
<!-- Node3 -->
<g id="node3" class="node"><title>Node3</title>
<g id="a_node3"><a xlink:href="../../d0/d08/classback_end_1_1_cell.html#a780d63fdf3ec4f64bd01f9c1c01f54e9" target="_top" xlink:title="backEnd.Cell.getState">
<polygon fill="white" stroke="black" points="434,-38.5 434,-57.5 556,-57.5 556,-38.5 434,-38.5"/>
<text text-anchor="middle" x="495" y="-45.5" font-family="Helvetica,sans-Serif" font-size="10.00">backEnd.Cell.getState</text>
</a>
</g>
</g>
<!-- Node2&#45;&gt;Node3 -->
<g id="edge2" class="edge"><title>Node2&#45;&gt;Node3</title>
<path fill="none" stroke="midnightblue" d="M379.881,-48C393.882,-48 408.925,-48 423.346,-48"/>
<polygon fill="midnightblue" stroke="midnightblue" points="423.714,-51.5001 433.714,-48 423.713,-44.5001 423.714,-51.5001"/>
</g>
<!-- Node4&#45;&gt;Node3 -->
<g id="edge5" class="edge"><title>Node4&#45;&gt;Node3</title>
<path fill="none" stroke="midnightblue" d="M363.908,-19.589C387.179,-24.6713 415.954,-30.9554 440.519,-36.3203"/>
<polygon fill="midnightblue" stroke="midnightblue" points="439.892,-39.7657 450.408,-38.4799 441.385,-32.9268 439.892,-39.7657"/>
</g>
<!-- Node5 -->
<g id="node5" class="node"><title>Node5</title>
<g id="a_node5"><a xlink:href="../../db/d5e/classback_end_1_1_patch.html#a8d97ca84fd6d69378e9fc0b96eff7cb9" target="_top" xlink:title="backEnd.Patch.getCell">
<polygon fill="white" stroke="black" points="434,-0.5 434,-19.5 556,-19.5 556,-0.5 434,-0.5"/>
<text text-anchor="middle" x="495" y="-7.5" font-family="Helvetica,sans-Serif" font-size="10.00">backEnd.Patch.getCell</text>
</a>
</g>
</g>
<!-- Node4&#45;&gt;Node5 -->
<g id="edge4" class="edge"><title>Node4&#45;&gt;Node5</title>
<path fill="none" stroke="midnightblue" d="M398.093,-10C406.636,-10 415.294,-10 423.734,-10"/>
<polygon fill="midnightblue" stroke="midnightblue" points="423.898,-13.5001 433.898,-10 423.898,-6.5001 423.898,-13.5001"/>
</g>
</g>
</svg>
