<?xml version="1.0" encoding="UTF-8" standalone="no"?>
<!DOCTYPE svg PUBLIC "-//W3C//DTD SVG 1.1//EN"
 "http://www.w3.org/Graphics/SVG/1.1/DTD/svg11.dtd">
<!-- Generated by graphviz version 2.36.0 (20140111.2315)
 -->
<!-- Title: backEnd.SugarScape.getNext Pages: 1 -->
<svg width="750pt" height="329pt"
 viewBox="0.00 0.00 750.00 329.00" xmlns="http://www.w3.org/2000/svg" xmlns:xlink="http://www.w3.org/1999/xlink">
<g id="graph0" class="graph" transform="scale(1 1) rotate(0) translate(4 325)">
<title>backEnd.SugarScape.getNext</title>
<polygon fill="white" stroke="none" points="-4,4 -4,-325 746,-325 746,4 -4,4"/>
<!-- Node1 -->
<g id="node1" class="node"><title>Node1</title>
<polygon fill="#bfbfbf" stroke="black" points="0,-147.5 0,-166.5 160,-166.5 160,-147.5 0,-147.5"/>
<text text-anchor="middle" x="80" y="-154.5" font-family="Helvetica,sans-Serif" font-size="10.00">backEnd.SugarScape.getNext</text>
</g>
<!-- Node2 -->
<g id="node2" class="node"><title>Node2</title>
<g id="a_node2"><a xlink:href="../../de/d49/classback_end_1_1_sugar_scape.html#aa2fdd5bae947568882522d9b1427fe59" target="_top" xlink:title="backEnd.SugarScape.addLater">
<polygon fill="white" stroke="black" points="207,-301.5 207,-320.5 371,-320.5 371,-301.5 207,-301.5"/>
<text text-anchor="middle" x="289" y="-308.5" font-family="Helvetica,sans-Serif" font-size="10.00">backEnd.SugarScape.addLater</text>
</a>
</g>
</g>
<!-- Node1&#45;&gt;Node2 -->
<g id="edge1" class="edge"><title>Node1&#45;&gt;Node2</title>
<path fill="none" stroke="midnightblue" d="M86.2401,-166.636C100.348,-191.595 141.763,-258.65 196,-291 200.448,-293.653 205.205,-295.956 210.125,-297.954"/>
<polygon fill="midnightblue" stroke="midnightblue" points="209.157,-301.326 219.752,-301.435 211.537,-294.743 209.157,-301.326"/>
</g>
<!-- Node3 -->
<g id="node3" class="node"><title>Node3</title>
<g id="a_node3"><a xlink:href="../../de/d49/classback_end_1_1_sugar_scape.html#a4b3bd085af29e9071f8b19c9a271fa23" target="_top" xlink:title="backEnd.SugarScape.clear\lPatch">
<polygon fill="white" stroke="black" points="216.5,-252 216.5,-282 361.5,-282 361.5,-252 216.5,-252"/>
<text text-anchor="start" x="224.5" y="-270" font-family="Helvetica,sans-Serif" font-size="10.00">backEnd.SugarScape.clear</text>
<text text-anchor="middle" x="289" y="-259" font-family="Helvetica,sans-Serif" font-size="10.00">Patch</text>
</a>
</g>
</g>
<!-- Node1&#45;&gt;Node3 -->
<g id="edge2" class="edge"><title>Node1&#45;&gt;Node3</title>
<path fill="none" stroke="midnightblue" d="M91.2222,-166.66C110.311,-184.19 153.32,-221.335 196,-242 200.935,-244.389 206.133,-246.579 211.443,-248.58"/>
<polygon fill="midnightblue" stroke="midnightblue" points="210.496,-251.958 221.091,-251.982 212.824,-245.356 210.496,-251.958"/>
</g>
<!-- Node8 -->
<g id="node8" class="node"><title>Node8</title>
<g id="a_node8"><a xlink:href="../../de/d49/classback_end_1_1_sugar_scape.html#a960fa32657cb19f50dd7446619fe93e9" target="_top" xlink:title="backEnd.SugarScape.getClosest\lNeighbor">
<polygon fill="white" stroke="black" points="202.5,-0 202.5,-30 375.5,-30 375.5,-0 202.5,-0"/>
<text text-anchor="start" x="210.5" y="-18" font-family="Helvetica,sans-Serif" font-size="10.00">backEnd.SugarScape.getClosest</text>
<text text-anchor="middle" x="289" y="-7" font-family="Helvetica,sans-Serif" font-size="10.00">Neighbor</text>
</a>
</g>
</g>
<!-- Node1&#45;&gt;Node8 -->
<g id="edge7" class="edge"><title>Node1&#45;&gt;Node8</title>
<path fill="none" stroke="midnightblue" d="M87.5646,-147.459C103.453,-125.11 146.351,-69.0688 196,-40 199.696,-37.8362 203.584,-35.8543 207.589,-34.0398"/>
<polygon fill="midnightblue" stroke="midnightblue" points="209.205,-37.1592 217.108,-30.1028 206.529,-30.6907 209.205,-37.1592"/>
</g>
<!-- Node10 -->
<g id="node10" class="node"><title>Node10</title>
<g id="a_node10"><a xlink:href="../../de/d49/classback_end_1_1_sugar_scape.html#aef8d78e2988a976344c3b83a9259d519" target="_top" xlink:title="backEnd.SugarScape.getNeighbors">
<polygon fill="white" stroke="black" points="196,-49.5 196,-68.5 382,-68.5 382,-49.5 196,-49.5"/>
<text text-anchor="middle" x="289" y="-56.5" font-family="Helvetica,sans-Serif" font-size="10.00">backEnd.SugarScape.getNeighbors</text>
</a>
</g>
</g>
<!-- Node1&#45;&gt;Node10 -->
<g id="edge9" class="edge"><title>Node1&#45;&gt;Node10</title>
<path fill="none" stroke="midnightblue" d="M93.0224,-147.407C113.178,-131.767 155.562,-100.743 196,-83 206.639,-78.3319 218.382,-74.4166 229.818,-71.1929"/>
<polygon fill="midnightblue" stroke="midnightblue" points="230.996,-74.5008 239.753,-68.5364 229.188,-67.7383 230.996,-74.5008"/>
</g>
<!-- Node12 -->
<g id="node12" class="node"><title>Node12</title>
<g id="a_node12"><a xlink:href="../../de/d49/classback_end_1_1_sugar_scape.html#aaf84272d68cbd5b1ae5a30fba6c77967" target="_top" xlink:title="backEnd.SugarScape.isSugar">
<polygon fill="white" stroke="black" points="422,-87.5 422,-106.5 580,-106.5 580,-87.5 422,-87.5"/>
<text text-anchor="middle" x="501" y="-94.5" font-family="Helvetica,sans-Serif" font-size="10.00">backEnd.SugarScape.isSugar</text>
</a>
</g>
</g>
<!-- Node1&#45;&gt;Node12 -->
<g id="edge16" class="edge"><title>Node1&#45;&gt;Node12</title>
<path fill="none" stroke="midnightblue" d="M147.392,-147.493C222.367,-136.757 344.183,-119.313 423.197,-107.998"/>
<polygon fill="midnightblue" stroke="midnightblue" points="424.17,-111.394 433.573,-106.512 423.178,-104.465 424.17,-111.394"/>
</g>
<!-- Node14 -->
<g id="node14" class="node"><title>Node14</title>
<g id="a_node14"><a xlink:href="../../de/d49/classback_end_1_1_sugar_scape.html#a6eca38a51f9c17bf46e8137754c5e513" target="_top" xlink:title="backEnd.SugarScape.getSugar\lLevel">
<polygon fill="white" stroke="black" points="418,-126 418,-156 584,-156 584,-126 418,-126"/>
<text text-anchor="start" x="426" y="-144" font-family="Helvetica,sans-Serif" font-size="10.00">backEnd.SugarScape.getSugar</text>
<text text-anchor="middle" x="501" y="-133" font-family="Helvetica,sans-Serif" font-size="10.00">Level</text>
</a>
</g>
</g>
<!-- Node1&#45;&gt;Node14 -->
<g id="edge14" class="edge"><title>Node1&#45;&gt;Node14</title>
<path fill="none" stroke="midnightblue" d="M160.303,-153.972C230.66,-151.285 333.476,-147.359 407.546,-144.53"/>
<polygon fill="midnightblue" stroke="midnightblue" points="407.941,-148.018 417.8,-144.139 407.674,-141.023 407.941,-148.018"/>
</g>
<!-- Node15 -->
<g id="node15" class="node"><title>Node15</title>
<g id="a_node15"><a xlink:href="../../de/d49/classback_end_1_1_sugar_scape.html#a96fcf395199ef2ca7af1e01d2ec362bf" target="_top" xlink:title="backEnd.SugarScape.moveAgent">
<polygon fill="white" stroke="black" points="200.5,-213.5 200.5,-232.5 377.5,-232.5 377.5,-213.5 200.5,-213.5"/>
<text text-anchor="middle" x="289" y="-220.5" font-family="Helvetica,sans-Serif" font-size="10.00">backEnd.SugarScape.moveAgent</text>
</a>
</g>
</g>
<!-- Node1&#45;&gt;Node15 -->
<g id="edge17" class="edge"><title>Node1&#45;&gt;Node15</title>
<path fill="none" stroke="midnightblue" d="M101.818,-166.55C124.569,-176.697 162.282,-192.67 196,-203 205.948,-206.048 216.638,-208.817 227.084,-211.256"/>
<polygon fill="midnightblue" stroke="midnightblue" points="226.468,-214.705 236.994,-213.493 228.01,-207.877 226.468,-214.705"/>
</g>
<!-- Node16 -->
<g id="node16" class="node"><title>Node16</title>
<g id="a_node16"><a xlink:href="../../de/d49/classback_end_1_1_sugar_scape.html#a9e07dd6e4d60049bb525ee8032b5f0a8" target="_top" xlink:title="backEnd.SugarScape.subtract\lMetabolism">
<polygon fill="white" stroke="black" points="208.5,-164 208.5,-194 369.5,-194 369.5,-164 208.5,-164"/>
<text text-anchor="start" x="216.5" y="-182" font-family="Helvetica,sans-Serif" font-size="10.00">backEnd.SugarScape.subtract</text>
<text text-anchor="middle" x="289" y="-171" font-family="Helvetica,sans-Serif" font-size="10.00">Metabolism</text>
</a>
</g>
</g>
<!-- Node1&#45;&gt;Node16 -->
<g id="edge22" class="edge"><title>Node1&#45;&gt;Node16</title>
<path fill="none" stroke="midnightblue" d="M160.144,-165.411C172.572,-166.732 185.497,-168.106 198.145,-169.45"/>
<polygon fill="midnightblue" stroke="midnightblue" points="197.901,-172.944 208.215,-170.52 198.641,-165.983 197.901,-172.944"/>
</g>
<!-- Node4 -->
<g id="node4" class="node"><title>Node4</title>
<g id="a_node4"><a xlink:href="../../db/d5e/classback_end_1_1_patch.html#ac9c7bf582f9e7aec34492785fea4cf68" target="_top" xlink:title="backEnd.Patch.fill">
<polygon fill="white" stroke="black" points="451.5,-224.5 451.5,-243.5 550.5,-243.5 550.5,-224.5 451.5,-224.5"/>
<text text-anchor="middle" x="501" y="-231.5" font-family="Helvetica,sans-Serif" font-size="10.00">backEnd.Patch.fill</text>
</a>
</g>
</g>
<!-- Node3&#45;&gt;Node4 -->
<g id="edge3" class="edge"><title>Node3&#45;&gt;Node4</title>
<path fill="none" stroke="midnightblue" d="M361.683,-255.736C387.686,-251.649 416.731,-247.085 441.466,-243.198"/>
<polygon fill="midnightblue" stroke="midnightblue" points="442.09,-246.643 451.425,-241.633 441.003,-239.728 442.09,-246.643"/>
</g>
<!-- Node5 -->
<g id="node5" class="node"><title>Node5</title>
<g id="a_node5"><a xlink:href="../../db/d5e/classback_end_1_1_patch.html#a3c6c0521d023d1883b92717afa1340f0" target="_top" xlink:title="backEnd.Patch.flag">
<polygon fill="white" stroke="black" points="447.5,-262.5 447.5,-281.5 554.5,-281.5 554.5,-262.5 447.5,-262.5"/>
<text text-anchor="middle" x="501" y="-269.5" font-family="Helvetica,sans-Serif" font-size="10.00">backEnd.Patch.flag</text>
</a>
</g>
</g>
<!-- Node3&#45;&gt;Node5 -->
<g id="edge4" class="edge"><title>Node3&#45;&gt;Node5</title>
<path fill="none" stroke="midnightblue" d="M361.683,-268.707C386.109,-269.288 413.22,-269.934 436.921,-270.498"/>
<polygon fill="midnightblue" stroke="midnightblue" points="437.118,-274.004 447.199,-270.743 437.285,-267.006 437.118,-274.004"/>
</g>
<!-- Node6 -->
<g id="node6" class="node"><title>Node6</title>
<g id="a_node6"><a xlink:href="../../de/d49/classback_end_1_1_sugar_scape.html#ac39421d9c6ae9dea8c02c724fdd0c395" target="_top" xlink:title="backEnd.SugarScape.setSugar\lLevel">
<polygon fill="white" stroke="black" points="418.5,-175 418.5,-205 583.5,-205 583.5,-175 418.5,-175"/>
<text text-anchor="start" x="426.5" y="-193" font-family="Helvetica,sans-Serif" font-size="10.00">backEnd.SugarScape.setSugar</text>
<text text-anchor="middle" x="501" y="-182" font-family="Helvetica,sans-Serif" font-size="10.00">Level</text>
</a>
</g>
</g>
<!-- Node3&#45;&gt;Node6 -->
<g id="edge5" class="edge"><title>Node3&#45;&gt;Node6</title>
<path fill="none" stroke="midnightblue" d="M357.422,-251.872C365.879,-249.052 374.267,-245.778 382,-242 399.97,-233.221 400.166,-224.053 418,-215 422.529,-212.701 427.307,-210.571 432.188,-208.605"/>
<polygon fill="midnightblue" stroke="midnightblue" points="433.545,-211.834 441.663,-205.027 431.071,-205.286 433.545,-211.834"/>
</g>
<!-- Node7 -->
<g id="node7" class="node"><title>Node7</title>
<g id="a_node7"><a xlink:href="../../d0/d08/classback_end_1_1_cell.html#a780d63fdf3ec4f64bd01f9c1c01f54e9" target="_top" xlink:title="backEnd.Cell.getState">
<polygon fill="white" stroke="black" points="620,-131.5 620,-150.5 742,-150.5 742,-131.5 620,-131.5"/>
<text text-anchor="middle" x="681" y="-138.5" font-family="Helvetica,sans-Serif" font-size="10.00">backEnd.Cell.getState</text>
</a>
</g>
</g>
<!-- Node6&#45;&gt;Node7 -->
<g id="edge6" class="edge"><title>Node6&#45;&gt;Node7</title>
<path fill="none" stroke="midnightblue" d="M556.858,-174.899C582.153,-167.935 611.785,-159.778 635.641,-153.211"/>
<polygon fill="midnightblue" stroke="midnightblue" points="636.77,-156.531 645.483,-150.502 634.912,-149.782 636.77,-156.531"/>
</g>
<!-- Node9 -->
<g id="node9" class="node"><title>Node9</title>
<g id="a_node9"><a xlink:href="../../d5/de7/jquery_8js.html#a2335e57f79b6acfb6de59c235dc8a83e" target="_top" xlink:title="p">
<polygon fill="white" stroke="black" points="486.5,-5.5 486.5,-24.5 515.5,-24.5 515.5,-5.5 486.5,-5.5"/>
<text text-anchor="middle" x="501" y="-12.5" font-family="Helvetica,sans-Serif" font-size="10.00">p</text>
</a>
</g>
</g>
<!-- Node8&#45;&gt;Node9 -->
<g id="edge8" class="edge"><title>Node8&#45;&gt;Node9</title>
<path fill="none" stroke="midnightblue" d="M375.718,-15C412.107,-15 451.697,-15 476.184,-15"/>
<polygon fill="midnightblue" stroke="midnightblue" points="476.307,-18.5001 486.307,-15 476.307,-11.5001 476.307,-18.5001"/>
</g>
<!-- Node11 -->
<g id="node11" class="node"><title>Node11</title>
<g id="a_node11"><a xlink:href="../../d1/dfc/classback_end_1_1_rule_set.html#ace087d13be0cf3e1f723a663d0e06d8b" target="_top" xlink:title="backEnd.RuleSet.isOutside">
<polygon fill="white" stroke="black" points="429.5,-49.5 429.5,-68.5 572.5,-68.5 572.5,-49.5 429.5,-49.5"/>
<text text-anchor="middle" x="501" y="-56.5" font-family="Helvetica,sans-Serif" font-size="10.00">backEnd.RuleSet.isOutside</text>
</a>
</g>
</g>
<!-- Node10&#45;&gt;Node11 -->
<g id="edge10" class="edge"><title>Node10&#45;&gt;Node11</title>
<path fill="none" stroke="midnightblue" d="M382.109,-59C394.507,-59 407.148,-59 419.328,-59"/>
<polygon fill="midnightblue" stroke="midnightblue" points="419.434,-62.5001 429.434,-59 419.434,-55.5001 419.434,-62.5001"/>
</g>
<!-- Node10&#45;&gt;Node12 -->
<g id="edge11" class="edge"><title>Node10&#45;&gt;Node12</title>
<path fill="none" stroke="midnightblue" d="M342.721,-68.54C371.429,-73.7348 407.137,-80.1963 437.27,-85.6489"/>
<polygon fill="midnightblue" stroke="midnightblue" points="436.794,-89.1195 447.258,-87.4561 438.041,-82.2314 436.794,-89.1195"/>
</g>
<!-- Node12&#45;&gt;Node7 -->
<g id="edge13" class="edge"><title>Node12&#45;&gt;Node7</title>
<path fill="none" stroke="midnightblue" d="M544.189,-106.545C556.993,-109.504 571.087,-112.823 584,-116 600.325,-120.016 618.159,-124.605 633.977,-128.745"/>
<polygon fill="midnightblue" stroke="midnightblue" points="633.483,-132.234 644.045,-131.39 635.263,-125.464 633.483,-132.234"/>
</g>
<!-- Node13 -->
<g id="node13" class="node"><title>Node13</title>
<g id="a_node13"><a xlink:href="../../db/d5e/classback_end_1_1_patch.html#a8d97ca84fd6d69378e9fc0b96eff7cb9" target="_top" xlink:title="backEnd.Patch.getCell">
<polygon fill="white" stroke="black" points="620,-87.5 620,-106.5 742,-106.5 742,-87.5 620,-87.5"/>
<text text-anchor="middle" x="681" y="-94.5" font-family="Helvetica,sans-Serif" font-size="10.00">backEnd.Patch.getCell</text>
</a>
</g>
</g>
<!-- Node12&#45;&gt;Node13 -->
<g id="edge12" class="edge"><title>Node12&#45;&gt;Node13</title>
<path fill="none" stroke="midnightblue" d="M580.073,-97C589.987,-97 600.085,-97 609.864,-97"/>
<polygon fill="midnightblue" stroke="midnightblue" points="609.919,-100.5 619.919,-97 609.919,-93.5001 609.919,-100.5"/>
</g>
<!-- Node14&#45;&gt;Node7 -->
<g id="edge15" class="edge"><title>Node14&#45;&gt;Node7</title>
<path fill="none" stroke="midnightblue" d="M584.227,-141C592.775,-141 601.407,-141 609.805,-141"/>
<polygon fill="midnightblue" stroke="midnightblue" points="609.912,-144.5 619.912,-141 609.912,-137.5 609.912,-144.5"/>
</g>
<!-- Node15&#45;&gt;Node4 -->
<g id="edge18" class="edge"><title>Node15&#45;&gt;Node4</title>
<path fill="none" stroke="midnightblue" d="M377.538,-227.585C399.006,-228.71 421.475,-229.887 441.22,-230.921"/>
<polygon fill="midnightblue" stroke="midnightblue" points="441.108,-234.42 451.277,-231.448 441.474,-227.429 441.108,-234.42"/>
</g>
<!-- Node15&#45;&gt;Node5 -->
<g id="edge21" class="edge"><title>Node15&#45;&gt;Node5</title>
<path fill="none" stroke="midnightblue" d="M340.329,-232.514C353.914,-235.322 368.568,-238.569 382,-242 398.21,-246.141 401.841,-248.665 418,-253 427.218,-255.473 437.07,-257.921 446.633,-260.196"/>
<polygon fill="midnightblue" stroke="midnightblue" points="445.919,-263.623 456.454,-262.497 447.516,-256.808 445.919,-263.623"/>
</g>
<!-- Node15&#45;&gt;Node6 -->
<g id="edge19" class="edge"><title>Node15&#45;&gt;Node6</title>
<path fill="none" stroke="midnightblue" d="M350.459,-213.499C368.599,-210.649 388.916,-207.456 408.586,-204.365"/>
<polygon fill="midnightblue" stroke="midnightblue" points="409.151,-207.819 418.486,-202.809 408.064,-200.904 409.151,-207.819"/>
</g>
<!-- Node15&#45;&gt;Node14 -->
<g id="edge20" class="edge"><title>Node15&#45;&gt;Node14</title>
<path fill="none" stroke="midnightblue" d="M357.084,-213.389C365.772,-210.729 374.311,-207.334 382,-203 402.267,-191.577 398.149,-177.132 418,-165 420.785,-163.298 423.696,-161.712 426.692,-160.233"/>
<polygon fill="midnightblue" stroke="midnightblue" points="428.195,-163.395 435.892,-156.115 425.335,-157.006 428.195,-163.395"/>
</g>
<!-- Node16&#45;&gt;Node6 -->
<g id="edge24" class="edge"><title>Node16&#45;&gt;Node6</title>
<path fill="none" stroke="midnightblue" d="M369.691,-183.174C382.234,-183.831 395.29,-184.515 408.082,-185.185"/>
<polygon fill="midnightblue" stroke="midnightblue" points="408.101,-188.691 418.27,-185.719 408.467,-181.701 408.101,-188.691"/>
</g>
<!-- Node16&#45;&gt;Node14 -->
<g id="edge23" class="edge"><title>Node16&#45;&gt;Node14</title>
<path fill="none" stroke="midnightblue" d="M369.691,-164.58C382.143,-162.327 395.099,-159.982 407.802,-157.683"/>
<polygon fill="midnightblue" stroke="midnightblue" points="408.703,-161.077 417.92,-155.853 407.457,-154.189 408.703,-161.077"/>
</g>
</g>
</svg>
