<?xml version="1.0" encoding="UTF-8" standalone="no"?>
<!DOCTYPE svg PUBLIC "-//W3C//DTD SVG 1.1//EN"
 "http://www.w3.org/Graphics/SVG/1.1/DTD/svg11.dtd">
<!-- Generated by graphviz version 2.36.0 (20140111.2315)
 -->
<!-- Title: backEnd.SugarScape.getSugarLevel Pages: 1 -->
<svg width="776pt" height="91pt"
 viewBox="0.00 0.00 776.00 90.81" xmlns="http://www.w3.org/2000/svg" xmlns:xlink="http://www.w3.org/1999/xlink">
<g id="graph0" class="graph" transform="scale(1 1) rotate(0) translate(4 86.8118)">
<title>backEnd.SugarScape.getSugarLevel</title>
<polygon fill="white" stroke="none" points="-4,4 -4,-86.8118 772,-86.8118 772,4 -4,4"/>
<!-- Node1 -->
<g id="node1" class="node"><title>Node1</title>
<polygon fill="#bfbfbf" stroke="black" points="0,-44 0,-74 166,-74 166,-44 0,-44"/>
<text text-anchor="start" x="8" y="-62" font-family="Helvetica,sans-Serif" font-size="10.00">backEnd.SugarScape.getSugar</text>
<text text-anchor="middle" x="83" y="-51" font-family="Helvetica,sans-Serif" font-size="10.00">Level</text>
</g>
<!-- Node2 -->
<g id="node2" class="node"><title>Node2</title>
<g id="a_node2"><a xlink:href="../../de/d49/classback_end_1_1_sugar_scape.html#a13186ddb64e70b5941d0cd12163c3e84" target="_top" xlink:title="backEnd.SugarScape.getNext">
<polygon fill="white" stroke="black" points="416,-49.5 416,-68.5 576,-68.5 576,-49.5 416,-49.5"/>
<text text-anchor="middle" x="496" y="-56.5" font-family="Helvetica,sans-Serif" font-size="10.00">backEnd.SugarScape.getNext</text>
</a>
</g>
</g>
<!-- Node1&#45;&gt;Node2 -->
<g id="edge1" class="edge"><title>Node1&#45;&gt;Node2</title>
<path fill="none" stroke="midnightblue" d="M176.196,-75.2904C184.896,-76.3912 193.6,-77.3281 202,-78 280.859,-84.3082 301.154,-84.4695 380,-78 402.588,-76.1466 427.424,-72.2782 448.216,-68.5127"/>
<polygon fill="midnightblue" stroke="midnightblue" points="176.378,-71.7837 166.002,-73.9289 175.451,-78.7221 176.378,-71.7837"/>
</g>
<!-- Node4 -->
<g id="node4" class="node"><title>Node4</title>
<g id="a_node4"><a xlink:href="../../de/d49/classback_end_1_1_sugar_scape.html#a96fcf395199ef2ca7af1e01d2ec362bf" target="_top" xlink:title="backEnd.SugarScape.moveAgent">
<polygon fill="white" stroke="black" points="202.5,-49.5 202.5,-68.5 379.5,-68.5 379.5,-49.5 202.5,-49.5"/>
<text text-anchor="middle" x="291" y="-56.5" font-family="Helvetica,sans-Serif" font-size="10.00">backEnd.SugarScape.moveAgent</text>
</a>
</g>
</g>
<!-- Node1&#45;&gt;Node4 -->
<g id="edge3" class="edge"><title>Node1&#45;&gt;Node4</title>
<path fill="none" stroke="midnightblue" d="M176.121,-59C184.789,-59 193.561,-59 202.187,-59"/>
<polygon fill="midnightblue" stroke="midnightblue" points="176.009,-55.5001 166.009,-59 176.009,-62.5001 176.009,-55.5001"/>
</g>
<!-- Node5 -->
<g id="node5" class="node"><title>Node5</title>
<g id="a_node5"><a xlink:href="../../de/d49/classback_end_1_1_sugar_scape.html#a9e07dd6e4d60049bb525ee8032b5f0a8" target="_top" xlink:title="backEnd.SugarScape.subtract\lMetabolism">
<polygon fill="white" stroke="black" points="210.5,-0 210.5,-30 371.5,-30 371.5,-0 210.5,-0"/>
<text text-anchor="start" x="218.5" y="-18" font-family="Helvetica,sans-Serif" font-size="10.00">backEnd.SugarScape.subtract</text>
<text text-anchor="middle" x="291" y="-7" font-family="Helvetica,sans-Serif" font-size="10.00">Metabolism</text>
</a>
</g>
</g>
<!-- Node1&#45;&gt;Node5 -->
<g id="edge5" class="edge"><title>Node1&#45;&gt;Node5</title>
<path fill="none" stroke="midnightblue" d="M164.34,-41.8399C182.595,-37.941 201.848,-33.8286 219.65,-30.0262"/>
<polygon fill="midnightblue" stroke="midnightblue" points="163.366,-38.4691 154.317,-43.9808 164.828,-45.3147 163.366,-38.4691"/>
</g>
<!-- Node3 -->
<g id="node3" class="node"><title>Node3</title>
<g id="a_node3"><a xlink:href="../../de/d49/classback_end_1_1_sugar_scape.html#ab0c2eb832afef056e0a72aea2bf8ddc1" target="_top" xlink:title="backEnd.SugarScape.update">
<polygon fill="white" stroke="black" points="612.5,-49.5 612.5,-68.5 767.5,-68.5 767.5,-49.5 612.5,-49.5"/>
<text text-anchor="middle" x="690" y="-56.5" font-family="Helvetica,sans-Serif" font-size="10.00">backEnd.SugarScape.update</text>
</a>
</g>
</g>
<!-- Node2&#45;&gt;Node3 -->
<g id="edge2" class="edge"><title>Node2&#45;&gt;Node3</title>
<path fill="none" stroke="midnightblue" d="M586.381,-59C595.095,-59 603.882,-59 612.453,-59"/>
<polygon fill="midnightblue" stroke="midnightblue" points="586.202,-55.5001 576.202,-59 586.202,-62.5001 586.202,-55.5001"/>
</g>
<!-- Node4&#45;&gt;Node2 -->
<g id="edge4" class="edge"><title>Node4&#45;&gt;Node2</title>
<path fill="none" stroke="midnightblue" d="M389.751,-59C398.458,-59 407.201,-59 415.725,-59"/>
<polygon fill="midnightblue" stroke="midnightblue" points="389.563,-55.5001 379.563,-59 389.563,-62.5001 389.563,-55.5001"/>
</g>
<!-- Node5&#45;&gt;Node2 -->
<g id="edge6" class="edge"><title>Node5&#45;&gt;Node2</title>
<path fill="none" stroke="midnightblue" d="M371.187,-32.1637C398.358,-38.053 427.774,-44.4288 451.113,-49.4876"/>
<polygon fill="midnightblue" stroke="midnightblue" points="371.808,-28.717 361.293,-30.0192 370.325,-35.5582 371.808,-28.717"/>
</g>
</g>
</svg>
