<?xml version="1.0" encoding="UTF-8" standalone="no"?>
<!DOCTYPE svg PUBLIC "-//W3C//DTD SVG 1.1//EN"
 "http://www.w3.org/Graphics/SVG/1.1/DTD/svg11.dtd">
<!-- Generated by graphviz version 2.36.0 (20140111.2315)
 -->
<!-- Title: backEnd.SugarScape.randomizeSugar Pages: 1 -->
<svg width="542pt" height="77pt"
 viewBox="0.00 0.00 542.00 77.00" xmlns="http://www.w3.org/2000/svg" xmlns:xlink="http://www.w3.org/1999/xlink">
<g id="graph0" class="graph" transform="scale(1 1) rotate(0) translate(4 73)">
<title>backEnd.SugarScape.randomizeSugar</title>
<polygon fill="white" stroke="none" points="-4,4 -4,-73 538,-73 538,4 -4,4"/>
<!-- Node1 -->
<g id="node1" class="node"><title>Node1</title>
<polygon fill="#bfbfbf" stroke="black" points="0.5,-22 0.5,-52 173.5,-52 173.5,-22 0.5,-22"/>
<text text-anchor="start" x="8.5" y="-40" font-family="Helvetica,sans-Serif" font-size="10.00">backEnd.SugarScape.randomize</text>
<text text-anchor="middle" x="87" y="-29" font-family="Helvetica,sans-Serif" font-size="10.00">Sugar</text>
</g>
<!-- Node2 -->
<g id="node2" class="node"><title>Node2</title>
<g id="a_node2"><a xlink:href="../../de/d49/classback_end_1_1_sugar_scape.html#aaf84272d68cbd5b1ae5a30fba6c77967" target="_top" xlink:title="backEnd.SugarScape.isSugar">
<polygon fill="white" stroke="black" points="214,-49.5 214,-68.5 372,-68.5 372,-49.5 214,-49.5"/>
<text text-anchor="middle" x="293" y="-56.5" font-family="Helvetica,sans-Serif" font-size="10.00">backEnd.SugarScape.isSugar</text>
</a>
</g>
</g>
<!-- Node1&#45;&gt;Node2 -->
<g id="edge1" class="edge"><title>Node1&#45;&gt;Node2</title>
<path fill="none" stroke="midnightblue" d="M173.628,-46.2344C183.501,-47.2991 193.584,-48.3865 203.494,-49.4552"/>
<polygon fill="midnightblue" stroke="midnightblue" points="203.425,-52.968 213.742,-50.5605 204.175,-46.0083 203.425,-52.968"/>
</g>
<!-- Node5 -->
<g id="node5" class="node"><title>Node5</title>
<g id="a_node5"><a xlink:href="../../de/d49/classback_end_1_1_sugar_scape.html#ac39421d9c6ae9dea8c02c724fdd0c395" target="_top" xlink:title="backEnd.SugarScape.setSugar\lLevel">
<polygon fill="white" stroke="black" points="210.5,-0 210.5,-30 375.5,-30 375.5,-0 210.5,-0"/>
<text text-anchor="start" x="218.5" y="-18" font-family="Helvetica,sans-Serif" font-size="10.00">backEnd.SugarScape.setSugar</text>
<text text-anchor="middle" x="293" y="-7" font-family="Helvetica,sans-Serif" font-size="10.00">Level</text>
</a>
</g>
</g>
<!-- Node1&#45;&gt;Node5 -->
<g id="edge4" class="edge"><title>Node1&#45;&gt;Node5</title>
<path fill="none" stroke="midnightblue" d="M173.628,-27.7656C182.327,-26.8275 191.189,-25.8718 199.952,-24.9267"/>
<polygon fill="midnightblue" stroke="midnightblue" points="200.611,-28.376 210.178,-23.8239 199.861,-21.4164 200.611,-28.376"/>
</g>
<!-- Node3 -->
<g id="node3" class="node"><title>Node3</title>
<g id="a_node3"><a xlink:href="../../db/d5e/classback_end_1_1_patch.html#a8d97ca84fd6d69378e9fc0b96eff7cb9" target="_top" xlink:title="backEnd.Patch.getCell">
<polygon fill="white" stroke="black" points="412,-49.5 412,-68.5 534,-68.5 534,-49.5 412,-49.5"/>
<text text-anchor="middle" x="473" y="-56.5" font-family="Helvetica,sans-Serif" font-size="10.00">backEnd.Patch.getCell</text>
</a>
</g>
</g>
<!-- Node2&#45;&gt;Node3 -->
<g id="edge2" class="edge"><title>Node2&#45;&gt;Node3</title>
<path fill="none" stroke="midnightblue" d="M372.073,-59C381.987,-59 392.085,-59 401.864,-59"/>
<polygon fill="midnightblue" stroke="midnightblue" points="401.919,-62.5001 411.919,-59 401.919,-55.5001 401.919,-62.5001"/>
</g>
<!-- Node4 -->
<g id="node4" class="node"><title>Node4</title>
<g id="a_node4"><a xlink:href="../../d0/d08/classback_end_1_1_cell.html#a780d63fdf3ec4f64bd01f9c1c01f54e9" target="_top" xlink:title="backEnd.Cell.getState">
<polygon fill="white" stroke="black" points="412,-8.5 412,-27.5 534,-27.5 534,-8.5 412,-8.5"/>
<text text-anchor="middle" x="473" y="-15.5" font-family="Helvetica,sans-Serif" font-size="10.00">backEnd.Cell.getState</text>
</a>
</g>
</g>
<!-- Node2&#45;&gt;Node4 -->
<g id="edge3" class="edge"><title>Node2&#45;&gt;Node4</title>
<path fill="none" stroke="midnightblue" d="M335.284,-49.4907C360.692,-43.6384 393.466,-36.0894 420.555,-29.8497"/>
<polygon fill="midnightblue" stroke="midnightblue" points="421.673,-33.184 430.632,-27.5286 420.101,-26.3626 421.673,-33.184"/>
</g>
<!-- Node5&#45;&gt;Node4 -->
<g id="edge5" class="edge"><title>Node5&#45;&gt;Node4</title>
<path fill="none" stroke="midnightblue" d="M375.706,-16.3771C384.348,-16.5227 393.082,-16.6699 401.58,-16.8131"/>
<polygon fill="midnightblue" stroke="midnightblue" points="401.748,-20.3164 411.805,-16.9855 401.866,-13.3174 401.748,-20.3164"/>
</g>
</g>
</svg>
