<?xml version="1.0" encoding="UTF-8" standalone="no"?>
<!DOCTYPE svg PUBLIC "-//W3C//DTD SVG 1.1//EN"
 "http://www.w3.org/Graphics/SVG/1.1/DTD/svg11.dtd">
<!-- Generated by graphviz version 2.36.0 (20140111.2315)
 -->
<!-- Title: backEnd.SugarScape.clearPatch Pages: 1 -->
<svg width="514pt" height="115pt"
 viewBox="0.00 0.00 514.00 115.00" xmlns="http://www.w3.org/2000/svg" xmlns:xlink="http://www.w3.org/1999/xlink">
<g id="graph0" class="graph" transform="scale(1 1) rotate(0) translate(4 111)">
<title>backEnd.SugarScape.clearPatch</title>
<polygon fill="white" stroke="none" points="-4,4 -4,-111 510,-111 510,4 -4,4"/>
<!-- Node1 -->
<g id="node1" class="node"><title>Node1</title>
<polygon fill="#bfbfbf" stroke="black" points="0.5,-44 0.5,-74 145.5,-74 145.5,-44 0.5,-44"/>
<text text-anchor="start" x="8.5" y="-62" font-family="Helvetica,sans-Serif" font-size="10.00">backEnd.SugarScape.clear</text>
<text text-anchor="middle" x="73" y="-51" font-family="Helvetica,sans-Serif" font-size="10.00">Patch</text>
</g>
<!-- Node2 -->
<g id="node2" class="node"><title>Node2</title>
<g id="a_node2"><a xlink:href="../../db/d5e/classback_end_1_1_patch.html#ac9c7bf582f9e7aec34492785fea4cf68" target="_top" xlink:title="backEnd.Patch.fill">
<polygon fill="white" stroke="black" points="215.5,-87.5 215.5,-106.5 314.5,-106.5 314.5,-87.5 215.5,-87.5"/>
<text text-anchor="middle" x="265" y="-94.5" font-family="Helvetica,sans-Serif" font-size="10.00">backEnd.Patch.fill</text>
</a>
</g>
</g>
<!-- Node1&#45;&gt;Node2 -->
<g id="edge1" class="edge"><title>Node1&#45;&gt;Node2</title>
<path fill="none" stroke="midnightblue" d="M145.56,-73.312C165.623,-77.3246 187.174,-81.6347 206.319,-85.4639"/>
<polygon fill="midnightblue" stroke="midnightblue" points="205.895,-88.9482 216.387,-87.4774 207.267,-82.0841 205.895,-88.9482"/>
</g>
<!-- Node3 -->
<g id="node3" class="node"><title>Node3</title>
<g id="a_node3"><a xlink:href="../../db/d5e/classback_end_1_1_patch.html#a3c6c0521d023d1883b92717afa1340f0" target="_top" xlink:title="backEnd.Patch.flag">
<polygon fill="white" stroke="black" points="211.5,-49.5 211.5,-68.5 318.5,-68.5 318.5,-49.5 211.5,-49.5"/>
<text text-anchor="middle" x="265" y="-56.5" font-family="Helvetica,sans-Serif" font-size="10.00">backEnd.Patch.flag</text>
</a>
</g>
</g>
<!-- Node1&#45;&gt;Node3 -->
<g id="edge2" class="edge"><title>Node1&#45;&gt;Node3</title>
<path fill="none" stroke="midnightblue" d="M145.56,-59C163.851,-59 183.378,-59 201.192,-59"/>
<polygon fill="midnightblue" stroke="midnightblue" points="201.461,-62.5001 211.461,-59 201.461,-55.5001 201.461,-62.5001"/>
</g>
<!-- Node4 -->
<g id="node4" class="node"><title>Node4</title>
<g id="a_node4"><a xlink:href="../../de/d49/classback_end_1_1_sugar_scape.html#ac39421d9c6ae9dea8c02c724fdd0c395" target="_top" xlink:title="backEnd.SugarScape.setSugar\lLevel">
<polygon fill="white" stroke="black" points="182.5,-0 182.5,-30 347.5,-30 347.5,-0 182.5,-0"/>
<text text-anchor="start" x="190.5" y="-18" font-family="Helvetica,sans-Serif" font-size="10.00">backEnd.SugarScape.setSugar</text>
<text text-anchor="middle" x="265" y="-7" font-family="Helvetica,sans-Serif" font-size="10.00">Level</text>
</a>
</g>
</g>
<!-- Node1&#45;&gt;Node4 -->
<g id="edge3" class="edge"><title>Node1&#45;&gt;Node4</title>
<path fill="none" stroke="midnightblue" d="M138.856,-43.9808C154.97,-40.2492 172.374,-36.2186 188.933,-32.384"/>
<polygon fill="midnightblue" stroke="midnightblue" points="190.162,-35.6921 199.114,-30.0262 188.582,-28.8726 190.162,-35.6921"/>
</g>
<!-- Node5 -->
<g id="node5" class="node"><title>Node5</title>
<g id="a_node5"><a xlink:href="../../d0/d08/classback_end_1_1_cell.html#a780d63fdf3ec4f64bd01f9c1c01f54e9" target="_top" xlink:title="backEnd.Cell.getState">
<polygon fill="white" stroke="black" points="384,-5.5 384,-24.5 506,-24.5 506,-5.5 384,-5.5"/>
<text text-anchor="middle" x="445" y="-12.5" font-family="Helvetica,sans-Serif" font-size="10.00">backEnd.Cell.getState</text>
</a>
</g>
</g>
<!-- Node4&#45;&gt;Node5 -->
<g id="edge4" class="edge"><title>Node4&#45;&gt;Node5</title>
<path fill="none" stroke="midnightblue" d="M347.706,-15C356.348,-15 365.082,-15 373.58,-15"/>
<polygon fill="midnightblue" stroke="midnightblue" points="373.805,-18.5001 383.805,-15 373.805,-11.5001 373.805,-18.5001"/>
</g>
</g>
</svg>
