<?xml version="1.0" encoding="UTF-8" standalone="no"?>
<!DOCTYPE svg PUBLIC "-//W3C//DTD SVG 1.1//EN"
 "http://www.w3.org/Graphics/SVG/1.1/DTD/svg11.dtd">
<!-- Generated by graphviz version 2.36.0 (20140111.2315)
 -->
<!-- Title: backEnd.SugarScape.moveAgent Pages: 1 -->
<svg width="546pt" height="164pt"
 viewBox="0.00 0.00 546.00 164.00" xmlns="http://www.w3.org/2000/svg" xmlns:xlink="http://www.w3.org/1999/xlink">
<g id="graph0" class="graph" transform="scale(1 1) rotate(0) translate(4 160)">
<title>backEnd.SugarScape.moveAgent</title>
<polygon fill="white" stroke="none" points="-4,4 -4,-160 542,-160 542,4 -4,4"/>
<!-- Node1 -->
<g id="node1" class="node"><title>Node1</title>
<polygon fill="#bfbfbf" stroke="black" points="0.5,-76.5 0.5,-95.5 177.5,-95.5 177.5,-76.5 0.5,-76.5"/>
<text text-anchor="middle" x="89" y="-83.5" font-family="Helvetica,sans-Serif" font-size="10.00">backEnd.SugarScape.moveAgent</text>
</g>
<!-- Node2 -->
<g id="node2" class="node"><title>Node2</title>
<g id="a_node2"><a xlink:href="../../db/d5e/classback_end_1_1_patch.html#ac9c7bf582f9e7aec34492785fea4cf68" target="_top" xlink:title="backEnd.Patch.fill">
<polygon fill="white" stroke="black" points="247.5,-136.5 247.5,-155.5 346.5,-155.5 346.5,-136.5 247.5,-136.5"/>
<text text-anchor="middle" x="297" y="-143.5" font-family="Helvetica,sans-Serif" font-size="10.00">backEnd.Patch.fill</text>
</a>
</g>
</g>
<!-- Node1&#45;&gt;Node2 -->
<g id="edge1" class="edge"><title>Node1&#45;&gt;Node2</title>
<path fill="none" stroke="midnightblue" d="M116.391,-95.5071C141.347,-104.311 179.943,-117.446 214,-127 222.886,-129.493 232.379,-131.912 241.637,-134.142"/>
<polygon fill="midnightblue" stroke="midnightblue" points="241.016,-137.592 251.552,-136.483 242.624,-130.779 241.016,-137.592"/>
</g>
<!-- Node3 -->
<g id="node3" class="node"><title>Node3</title>
<g id="a_node3"><a xlink:href="../../db/d5e/classback_end_1_1_patch.html#a3c6c0521d023d1883b92717afa1340f0" target="_top" xlink:title="backEnd.Patch.flag">
<polygon fill="white" stroke="black" points="243.5,-98.5 243.5,-117.5 350.5,-117.5 350.5,-98.5 243.5,-98.5"/>
<text text-anchor="middle" x="297" y="-105.5" font-family="Helvetica,sans-Serif" font-size="10.00">backEnd.Patch.flag</text>
</a>
</g>
</g>
<!-- Node1&#45;&gt;Node3 -->
<g id="edge2" class="edge"><title>Node1&#45;&gt;Node3</title>
<path fill="none" stroke="midnightblue" d="M177.661,-95.3619C196.336,-97.3562 215.698,-99.4241 233.219,-101.295"/>
<polygon fill="midnightblue" stroke="midnightblue" points="232.988,-104.79 243.303,-102.372 233.731,-97.8299 232.988,-104.79"/>
</g>
<!-- Node4 -->
<g id="node4" class="node"><title>Node4</title>
<g id="a_node4"><a xlink:href="../../de/d49/classback_end_1_1_sugar_scape.html#a6eca38a51f9c17bf46e8137754c5e513" target="_top" xlink:title="backEnd.SugarScape.getSugar\lLevel">
<polygon fill="white" stroke="black" points="214,-49 214,-79 380,-79 380,-49 214,-49"/>
<text text-anchor="start" x="222" y="-67" font-family="Helvetica,sans-Serif" font-size="10.00">backEnd.SugarScape.getSugar</text>
<text text-anchor="middle" x="297" y="-56" font-family="Helvetica,sans-Serif" font-size="10.00">Level</text>
</a>
</g>
</g>
<!-- Node1&#45;&gt;Node4 -->
<g id="edge3" class="edge"><title>Node1&#45;&gt;Node4</title>
<path fill="none" stroke="midnightblue" d="M177.661,-76.6381C186.319,-75.7135 195.125,-74.773 203.827,-73.8437"/>
<polygon fill="midnightblue" stroke="midnightblue" points="204.407,-77.3018 213.979,-72.7596 203.664,-70.3414 204.407,-77.3018"/>
</g>
<!-- Node6 -->
<g id="node6" class="node"><title>Node6</title>
<g id="a_node6"><a xlink:href="../../de/d49/classback_end_1_1_sugar_scape.html#ac39421d9c6ae9dea8c02c724fdd0c395" target="_top" xlink:title="backEnd.SugarScape.setSugar\lLevel">
<polygon fill="white" stroke="black" points="214.5,-0 214.5,-30 379.5,-30 379.5,-0 214.5,-0"/>
<text text-anchor="start" x="222.5" y="-18" font-family="Helvetica,sans-Serif" font-size="10.00">backEnd.SugarScape.setSugar</text>
<text text-anchor="middle" x="297" y="-7" font-family="Helvetica,sans-Serif" font-size="10.00">Level</text>
</a>
</g>
</g>
<!-- Node1&#45;&gt;Node6 -->
<g id="edge5" class="edge"><title>Node1&#45;&gt;Node6</title>
<path fill="none" stroke="midnightblue" d="M114.55,-76.4027C139.456,-66.782 179.192,-51.7509 214,-40 220.883,-37.6763 228.123,-35.3298 235.332,-33.0538"/>
<polygon fill="midnightblue" stroke="midnightblue" points="236.606,-36.3228 245.109,-30.0024 234.52,-29.6407 236.606,-36.3228"/>
</g>
<!-- Node5 -->
<g id="node5" class="node"><title>Node5</title>
<g id="a_node5"><a xlink:href="../../d0/d08/classback_end_1_1_cell.html#a780d63fdf3ec4f64bd01f9c1c01f54e9" target="_top" xlink:title="backEnd.Cell.getState">
<polygon fill="white" stroke="black" points="416,-29.5 416,-48.5 538,-48.5 538,-29.5 416,-29.5"/>
<text text-anchor="middle" x="477" y="-36.5" font-family="Helvetica,sans-Serif" font-size="10.00">backEnd.Cell.getState</text>
</a>
</g>
</g>
<!-- Node4&#45;&gt;Node5 -->
<g id="edge4" class="edge"><title>Node4&#45;&gt;Node5</title>
<path fill="none" stroke="midnightblue" d="M380.227,-52.4513C388.775,-51.2507 397.407,-50.0383 405.805,-48.8588"/>
<polygon fill="midnightblue" stroke="midnightblue" points="406.496,-52.2963 415.912,-47.4394 405.522,-45.3643 406.496,-52.2963"/>
</g>
<!-- Node6&#45;&gt;Node5 -->
<g id="edge6" class="edge"><title>Node6&#45;&gt;Node5</title>
<path fill="none" stroke="midnightblue" d="M379.706,-26.0166C388.443,-27.1946 397.274,-28.3853 405.86,-29.5429"/>
<polygon fill="midnightblue" stroke="midnightblue" points="405.427,-33.0162 415.805,-30.8838 406.363,-26.0789 405.427,-33.0162"/>
</g>
</g>
</svg>
