<?xml version="1.0" encoding="UTF-8" standalone="no"?>
<!DOCTYPE svg PUBLIC "-//W3C//DTD SVG 1.1//EN"
 "http://www.w3.org/Graphics/SVG/1.1/DTD/svg11.dtd">
<!-- Generated by graphviz version 2.36.0 (20140111.2315)
 -->
<!-- Title: backEnd.SugarScape.isSugar Pages: 1 -->
<svg width="808pt" height="192pt"
 viewBox="0.00 0.00 808.00 192.00" xmlns="http://www.w3.org/2000/svg" xmlns:xlink="http://www.w3.org/1999/xlink">
<g id="graph0" class="graph" transform="scale(1 1) rotate(0) translate(4 188)">
<title>backEnd.SugarScape.isSugar</title>
<polygon fill="white" stroke="none" points="-4,4 -4,-188 804,-188 804,4 -4,4"/>
<!-- Node1 -->
<g id="node1" class="node"><title>Node1</title>
<polygon fill="#bfbfbf" stroke="black" points="0,-88.5 0,-107.5 158,-107.5 158,-88.5 0,-88.5"/>
<text text-anchor="middle" x="79" y="-95.5" font-family="Helvetica,sans-Serif" font-size="10.00">backEnd.SugarScape.isSugar</text>
</g>
<!-- Node2 -->
<g id="node2" class="node"><title>Node2</title>
<g id="a_node2"><a xlink:href="../../de/d49/classback_end_1_1_sugar_scape.html#aef8d78e2988a976344c3b83a9259d519" target="_top" xlink:title="backEnd.SugarScape.getNeighbors">
<polygon fill="white" stroke="black" points="203,-164.5 203,-183.5 389,-183.5 389,-164.5 203,-164.5"/>
<text text-anchor="middle" x="296" y="-171.5" font-family="Helvetica,sans-Serif" font-size="10.00">backEnd.SugarScape.getNeighbors</text>
</a>
</g>
</g>
<!-- Node1&#45;&gt;Node2 -->
<g id="edge1" class="edge"><title>Node1&#45;&gt;Node2</title>
<path fill="none" stroke="midnightblue" d="M107.146,-112.202C129.867,-123.642 163.394,-139.495 194,-150 210.791,-155.763 229.613,-160.644 246.418,-164.469"/>
<polygon fill="midnightblue" stroke="midnightblue" points="108.609,-109.019 98.11,-107.598 105.431,-115.256 108.609,-109.019"/>
</g>
<!-- Node3 -->
<g id="node3" class="node"><title>Node3</title>
<g id="a_node3"><a xlink:href="../../de/d49/classback_end_1_1_sugar_scape.html#a13186ddb64e70b5941d0cd12163c3e84" target="_top" xlink:title="backEnd.SugarScape.getNext">
<polygon fill="white" stroke="black" points="441,-126.5 441,-145.5 601,-145.5 601,-126.5 441,-126.5"/>
<text text-anchor="middle" x="521" y="-133.5" font-family="Helvetica,sans-Serif" font-size="10.00">backEnd.SugarScape.getNext</text>
</a>
</g>
</g>
<!-- Node1&#45;&gt;Node3 -->
<g id="edge4" class="edge"><title>Node1&#45;&gt;Node3</title>
<path fill="none" stroke="midnightblue" d="M163.455,-108.723C173.734,-109.904 184.102,-111.028 194,-112 278.154,-120.26 374.783,-127.035 440.858,-131.256"/>
<polygon fill="midnightblue" stroke="midnightblue" points="163.564,-105.212 153.225,-107.527 162.751,-112.165 163.564,-105.212"/>
</g>
<!-- Node5 -->
<g id="node5" class="node"><title>Node5</title>
<g id="a_node5"><a xlink:href="../../de/d49/classback_end_1_1_sugar_scape.html#a35c8ec7798b62668018c0992b6f8a991" target="_top" xlink:title="backEnd.SugarScape.growSugar">
<polygon fill="white" stroke="black" points="434.5,-88.5 434.5,-107.5 607.5,-107.5 607.5,-88.5 434.5,-88.5"/>
<text text-anchor="middle" x="521" y="-95.5" font-family="Helvetica,sans-Serif" font-size="10.00">backEnd.SugarScape.growSugar</text>
</a>
</g>
</g>
<!-- Node1&#45;&gt;Node5 -->
<g id="edge5" class="edge"><title>Node1&#45;&gt;Node5</title>
<path fill="none" stroke="midnightblue" d="M168.373,-98C245.813,-98 357.666,-98 434.301,-98"/>
<polygon fill="midnightblue" stroke="midnightblue" points="168.156,-94.5001 158.156,-98 168.156,-101.5 168.156,-94.5001"/>
</g>
<!-- Node6 -->
<g id="node6" class="node"><title>Node6</title>
<g id="a_node6"><a xlink:href="../../de/d49/classback_end_1_1_sugar_scape.html#a9be1da134b1e998ed27dba1b82b1a4f4" target="_top" xlink:title="backEnd.SugarScape.randomize\lSugar">
<polygon fill="white" stroke="black" points="209.5,-39 209.5,-69 382.5,-69 382.5,-39 209.5,-39"/>
<text text-anchor="start" x="217.5" y="-57" font-family="Helvetica,sans-Serif" font-size="10.00">backEnd.SugarScape.randomize</text>
<text text-anchor="middle" x="296" y="-46" font-family="Helvetica,sans-Serif" font-size="10.00">Sugar</text>
</a>
</g>
</g>
<!-- Node1&#45;&gt;Node6 -->
<g id="edge7" class="edge"><title>Node1&#45;&gt;Node6</title>
<path fill="none" stroke="midnightblue" d="M136.688,-86.3987C162.62,-81.0917 193.676,-74.7362 221.385,-69.0654"/>
<polygon fill="midnightblue" stroke="midnightblue" points="135.747,-83.0187 126.652,-88.4527 137.151,-89.8766 135.747,-83.0187"/>
</g>
<!-- Node7 -->
<g id="node7" class="node"><title>Node7</title>
<g id="a_node7"><a xlink:href="../../de/d49/classback_end_1_1_sugar_scape.html#a4f6e2db365ea19041ac0cf88cdc8c183" target="_top" xlink:title="backEnd.SugarScape.testRandomness">
<polygon fill="white" stroke="black" points="194.5,-0.5 194.5,-19.5 397.5,-19.5 397.5,-0.5 194.5,-0.5"/>
<text text-anchor="middle" x="296" y="-7.5" font-family="Helvetica,sans-Serif" font-size="10.00">backEnd.SugarScape.testRandomness</text>
</a>
</g>
</g>
<!-- Node1&#45;&gt;Node7 -->
<g id="edge8" class="edge"><title>Node1&#45;&gt;Node7</title>
<path fill="none" stroke="midnightblue" d="M100.841,-82.5606C122.881,-66.9774 159.209,-43.3608 194,-30 205.264,-25.6744 217.609,-22.2394 229.683,-19.5261"/>
<polygon fill="midnightblue" stroke="midnightblue" points="98.6622,-79.8165 92.5867,-88.4963 102.749,-85.4997 98.6622,-79.8165"/>
</g>
<!-- Node2&#45;&gt;Node3 -->
<g id="edge2" class="edge"><title>Node2&#45;&gt;Node3</title>
<path fill="none" stroke="midnightblue" d="M363.172,-162.724C395.254,-157.257 433.371,-150.762 463.992,-145.544"/>
<polygon fill="midnightblue" stroke="midnightblue" points="362.254,-159.33 352.984,-164.46 363.43,-166.23 362.254,-159.33"/>
</g>
<!-- Node4 -->
<g id="node4" class="node"><title>Node4</title>
<g id="a_node4"><a xlink:href="../../de/d49/classback_end_1_1_sugar_scape.html#ab0c2eb832afef056e0a72aea2bf8ddc1" target="_top" xlink:title="backEnd.SugarScape.update">
<polygon fill="white" stroke="black" points="644.5,-107.5 644.5,-126.5 799.5,-126.5 799.5,-107.5 644.5,-107.5"/>
<text text-anchor="middle" x="722" y="-114.5" font-family="Helvetica,sans-Serif" font-size="10.00">backEnd.SugarScape.update</text>
</a>
</g>
</g>
<!-- Node3&#45;&gt;Node4 -->
<g id="edge3" class="edge"><title>Node3&#45;&gt;Node4</title>
<path fill="none" stroke="midnightblue" d="M611.284,-127.475C622.31,-126.423 633.506,-125.354 644.32,-124.321"/>
<polygon fill="midnightblue" stroke="midnightblue" points="610.844,-124.001 601.222,-128.436 611.509,-130.97 610.844,-124.001"/>
</g>
<!-- Node5&#45;&gt;Node4 -->
<g id="edge6" class="edge"><title>Node5&#45;&gt;Node4</title>
<path fill="none" stroke="midnightblue" d="M617.622,-107.13C626.573,-107.984 635.566,-108.843 644.31,-109.678"/>
<polygon fill="midnightblue" stroke="midnightblue" points="617.836,-103.634 607.549,-106.168 617.171,-110.603 617.836,-103.634"/>
</g>
</g>
</svg>
