<?xml version="1.0" encoding="UTF-8" standalone="no"?>
<!DOCTYPE svg PUBLIC "-//W3C//DTD SVG 1.1//EN"
 "http://www.w3.org/Graphics/SVG/1.1/DTD/svg11.dtd">
<!-- Generated by graphviz version 2.36.0 (20140111.2315)
 -->
<!-- Title: backEnd.SugarScape.subtractMetabolism Pages: 1 -->
<svg width="530pt" height="87pt"
 viewBox="0.00 0.00 530.00 87.00" xmlns="http://www.w3.org/2000/svg" xmlns:xlink="http://www.w3.org/1999/xlink">
<g id="graph0" class="graph" transform="scale(1 1) rotate(0) translate(4 83)">
<title>backEnd.SugarScape.subtractMetabolism</title>
<polygon fill="white" stroke="none" points="-4,4 -4,-83 526,-83 526,4 -4,4"/>
<!-- Node1 -->
<g id="node1" class="node"><title>Node1</title>
<polygon fill="#bfbfbf" stroke="black" points="0.5,-24 0.5,-54 161.5,-54 161.5,-24 0.5,-24"/>
<text text-anchor="start" x="8.5" y="-42" font-family="Helvetica,sans-Serif" font-size="10.00">backEnd.SugarScape.subtract</text>
<text text-anchor="middle" x="81" y="-31" font-family="Helvetica,sans-Serif" font-size="10.00">Metabolism</text>
</g>
<!-- Node2 -->
<g id="node2" class="node"><title>Node2</title>
<g id="a_node2"><a xlink:href="../../de/d49/classback_end_1_1_sugar_scape.html#a6eca38a51f9c17bf46e8137754c5e513" target="_top" xlink:title="backEnd.SugarScape.getSugar\lLevel">
<polygon fill="white" stroke="black" points="198,-49 198,-79 364,-79 364,-49 198,-49"/>
<text text-anchor="start" x="206" y="-67" font-family="Helvetica,sans-Serif" font-size="10.00">backEnd.SugarScape.getSugar</text>
<text text-anchor="middle" x="281" y="-56" font-family="Helvetica,sans-Serif" font-size="10.00">Level</text>
</a>
</g>
</g>
<!-- Node1&#45;&gt;Node2 -->
<g id="edge1" class="edge"><title>Node1&#45;&gt;Node2</title>
<path fill="none" stroke="midnightblue" d="M161.678,-49.0604C170.252,-50.1429 179.026,-51.2507 187.73,-52.3498"/>
<polygon fill="midnightblue" stroke="midnightblue" points="187.541,-55.8536 197.901,-53.6339 188.418,-48.9087 187.541,-55.8536"/>
</g>
<!-- Node4 -->
<g id="node4" class="node"><title>Node4</title>
<g id="a_node4"><a xlink:href="../../de/d49/classback_end_1_1_sugar_scape.html#ac39421d9c6ae9dea8c02c724fdd0c395" target="_top" xlink:title="backEnd.SugarScape.setSugar\lLevel">
<polygon fill="white" stroke="black" points="198.5,-0 198.5,-30 363.5,-30 363.5,-0 198.5,-0"/>
<text text-anchor="start" x="206.5" y="-18" font-family="Helvetica,sans-Serif" font-size="10.00">backEnd.SugarScape.setSugar</text>
<text text-anchor="middle" x="281" y="-7" font-family="Helvetica,sans-Serif" font-size="10.00">Level</text>
</a>
</g>
</g>
<!-- Node1&#45;&gt;Node4 -->
<g id="edge3" class="edge"><title>Node1&#45;&gt;Node4</title>
<path fill="none" stroke="midnightblue" d="M161.678,-29.342C170.423,-28.2821 179.376,-27.1968 188.252,-26.121"/>
<polygon fill="midnightblue" stroke="midnightblue" points="188.718,-29.5902 198.224,-24.9122 187.876,-22.641 188.718,-29.5902"/>
</g>
<!-- Node3 -->
<g id="node3" class="node"><title>Node3</title>
<g id="a_node3"><a xlink:href="../../d0/d08/classback_end_1_1_cell.html#a780d63fdf3ec4f64bd01f9c1c01f54e9" target="_top" xlink:title="backEnd.Cell.getState">
<polygon fill="white" stroke="black" points="400,-29.5 400,-48.5 522,-48.5 522,-29.5 400,-29.5"/>
<text text-anchor="middle" x="461" y="-36.5" font-family="Helvetica,sans-Serif" font-size="10.00">backEnd.Cell.getState</text>
</a>
</g>
</g>
<!-- Node2&#45;&gt;Node3 -->
<g id="edge2" class="edge"><title>Node2&#45;&gt;Node3</title>
<path fill="none" stroke="midnightblue" d="M364.227,-52.4513C372.775,-51.2507 381.407,-50.0383 389.805,-48.8588"/>
<polygon fill="midnightblue" stroke="midnightblue" points="390.496,-52.2963 399.912,-47.4394 389.522,-45.3643 390.496,-52.2963"/>
</g>
<!-- Node4&#45;&gt;Node3 -->
<g id="edge4" class="edge"><title>Node4&#45;&gt;Node3</title>
<path fill="none" stroke="midnightblue" d="M363.706,-26.0166C372.443,-27.1946 381.274,-28.3853 389.86,-29.5429"/>
<polygon fill="midnightblue" stroke="midnightblue" points="389.427,-33.0162 399.805,-30.8838 390.363,-26.0789 389.427,-33.0162"/>
</g>
</g>
</svg>
