<?xml version="1.0" encoding="UTF-8" standalone="no"?>
<!DOCTYPE svg PUBLIC "-//W3C//DTD SVG 1.1//EN"
 "http://www.w3.org/Graphics/SVG/1.1/DTD/svg11.dtd">
<!-- Generated by graphviz version 2.36.0 (20140111.2315)
 -->
<!-- Title: backEnd.SugarScape.update Pages: 1 -->
<!--zoomable 386 -->
<svg id="main" version="1.1" xmlns="http://www.w3.org/2000/svg" xmlns:xlink="http://www.w3.org/1999/xlink" xml:space="preserve" onload="init(evt)">
<style type="text/css"><![CDATA[
.edge:hover path { stroke: red; }
.edge:hover polygon { stroke: red; fill: red; }
]]></style>
<script type="text/javascript"><![CDATA[
var edges = document.getElementsByTagName('g');
if (edges && edges.length) {
  for (var i=0;i<edges.length;i++) {
    if (edges[i].id.substr(0,4)=='edge') {
      edges[i].setAttribute('class','edge');
    }
  }
}
]]></script>
        <defs>
                <circle id="rim" cx="0" cy="0" r="7"/>
                <circle id="rim2" cx="0" cy="0" r="3.5"/>
                <g id="zoomPlus">
                        <use xlink:href="#rim" fill="#404040">
                                <set attributeName="fill" to="#808080" begin="zoomplus.mouseover" end="zoomplus.mouseout"/>
                        </use>
                        <path d="M-4,0h8M0,-4v8" fill="none" stroke="white" stroke-width="1.5" pointer-events="none"/>
                </g>
                <g id="zoomMin">
                        <use xlink:href="#rim" fill="#404040">
                                <set attributeName="fill" to="#808080" begin="zoomminus.mouseover" end="zoomminus.mouseout"/>
                        </use>
                        <path d="M-4,0h8" fill="none" stroke="white" stroke-width="1.5" pointer-events="none"/>
                </g>
                <g id="dirArrow">
                        <path fill="none" stroke="white" stroke-width="1.5" d="M0,-3.0v7 M-2.5,-0.5L0,-3.0L2.5,-0.5"/>
                </g>
               <g id="resetDef">
                       <use xlink:href="#rim2" fill="#404040">
                               <set attributeName="fill" to="#808080" begin="reset.mouseover" end="reset.mouseout"/>
                       </use>
               </g>
        </defs>

<script type="text/javascript">
var viewWidth = 968;
var viewHeight = 386;
var sectionId = 'dynsection-29';
</script>
<script xlink:href="../../svgpan.js"/>
<svg id="graph" class="graph">
<g id="viewport">
<title>backEnd.SugarScape.update</title>
<polygon fill="white" stroke="none" points="-4,4 -4,-382.415 964,-382.415 964,4 -4,4"/>
<!-- Node1 -->
<g id="node1" class="node"><title>Node1</title>
<polygon fill="#bfbfbf" stroke="black" points="0.5,-144.915 0.5,-163.915 155.5,-163.915 155.5,-144.915 0.5,-144.915"/>
<text text-anchor="middle" x="78" y="-151.915" font-family="Helvetica,sans-Serif" font-size="10.00">backEnd.SugarScape.update</text>
</g>
<!-- Node2 -->
<g id="node2" class="node"><title>Node2</title>
<g id="a_node2"><a xlink:href="../../de/d49/classback_end_1_1_sugar_scape.html#a13186ddb64e70b5941d0cd12163c3e84" target="_top" xlink:title="backEnd.SugarScape.getNext">
<polygon fill="white" stroke="black" points="205,-182.915 205,-201.915 365,-201.915 365,-182.915 205,-182.915"/>
<text text-anchor="middle" x="285" y="-189.915" font-family="Helvetica,sans-Serif" font-size="10.00">backEnd.SugarScape.getNext</text>
</a>
</g>
</g>
<!-- Node1&#45;&gt;Node2 -->
<g id="edge1" class="edge"><title>Node1&#45;&gt;Node2</title>
<path fill="none" stroke="midnightblue" d="M130.466,-163.955C158.368,-169.127 193.045,-175.555 222.38,-180.993"/>
<polygon fill="midnightblue" stroke="midnightblue" points="222.043,-184.49 232.513,-182.871 223.319,-177.607 222.043,-184.49"/>
</g>
<!-- Node18 -->
<g id="node18" class="node"><title>Node18</title>
<g id="a_node18"><a xlink:href="../../de/d49/classback_end_1_1_sugar_scape.html#a35c8ec7798b62668018c0992b6f8a991" target="_top" xlink:title="backEnd.SugarScape.growSugar">
<polygon fill="white" stroke="black" points="420.5,-144.915 420.5,-163.915 593.5,-163.915 593.5,-144.915 420.5,-144.915"/>
<text text-anchor="middle" x="507" y="-151.915" font-family="Helvetica,sans-Serif" font-size="10.00">backEnd.SugarScape.growSugar</text>
</a>
</g>
</g>
<!-- Node1&#45;&gt;Node18 -->
<g id="edge26" class="edge"><title>Node1&#45;&gt;Node18</title>
<path fill="none" stroke="midnightblue" d="M155.832,-154.415C227.068,-154.415 333.322,-154.415 410.094,-154.415"/>
<polygon fill="midnightblue" stroke="midnightblue" points="410.25,-157.915 420.25,-154.415 410.25,-150.915 410.25,-157.915"/>
</g>
<!-- Node19 -->
<g id="node19" class="node"><title>Node19</title>
<g id="a_node19"><a xlink:href="../../de/d49/classback_end_1_1_sugar_scape.html#a344d27aea6e78113b3d570c4465dee2f" target="_top" xlink:title="backEnd.SugarScape.movePatches">
<polygon fill="white" stroke="black" points="192,-43.9151 192,-62.9151 378,-62.9151 378,-43.9151 192,-43.9151"/>
<text text-anchor="middle" x="285" y="-50.9151" font-family="Helvetica,sans-Serif" font-size="10.00">backEnd.SugarScape.movePatches</text>
</a>
</g>
</g>
<!-- Node1&#45;&gt;Node19 -->
<g id="edge30" class="edge"><title>Node1&#45;&gt;Node19</title>
<path fill="none" stroke="midnightblue" d="M98.2859,-144.913C134.534,-127.055 212.985,-88.4031 255.398,-67.507"/>
<polygon fill="midnightblue" stroke="midnightblue" points="257.192,-70.5245 264.616,-62.9653 254.099,-64.2453 257.192,-70.5245"/>
</g>
<!-- Node3 -->
<g id="node3" class="node"><title>Node3</title>
<g id="a_node3"><a xlink:href="../../de/d49/classback_end_1_1_sugar_scape.html#aa2fdd5bae947568882522d9b1427fe59" target="_top" xlink:title="backEnd.SugarScape.addLater">
<polygon fill="white" stroke="black" points="425,-358.915 425,-377.915 589,-377.915 589,-358.915 425,-358.915"/>
<text text-anchor="middle" x="507" y="-365.915" font-family="Helvetica,sans-Serif" font-size="10.00">backEnd.SugarScape.addLater</text>
</a>
</g>
</g>
<!-- Node2&#45;&gt;Node3 -->
<g id="edge2" class="edge"><title>Node2&#45;&gt;Node3</title>
<path fill="none" stroke="midnightblue" d="M290.834,-201.998C305.311,-229.647 351.236,-310.032 414,-348.415 418.334,-351.065 422.971,-353.367 427.774,-355.365"/>
<polygon fill="midnightblue" stroke="midnightblue" points="426.587,-358.658 437.18,-358.847 429.017,-352.093 426.587,-358.658"/>
</g>
<!-- Node4 -->
<g id="node4" class="node"><title>Node4</title>
<g id="a_node4"><a xlink:href="../../de/d49/classback_end_1_1_sugar_scape.html#a4b3bd085af29e9071f8b19c9a271fa23" target="_top" xlink:title="backEnd.SugarScape.clear\lPatch">
<polygon fill="white" stroke="black" points="434.5,-309.415 434.5,-339.415 579.5,-339.415 579.5,-309.415 434.5,-309.415"/>
<text text-anchor="start" x="442.5" y="-327.415" font-family="Helvetica,sans-Serif" font-size="10.00">backEnd.SugarScape.clear</text>
<text text-anchor="middle" x="507" y="-316.415" font-family="Helvetica,sans-Serif" font-size="10.00">Patch</text>
</a>
</g>
</g>
<!-- Node2&#45;&gt;Node4 -->
<g id="edge3" class="edge"><title>Node2&#45;&gt;Node4</title>
<path fill="none" stroke="midnightblue" d="M294.611,-202.002C313.897,-222.888 362.897,-272.758 414,-299.415 418.471,-301.747 423.181,-303.879 428.01,-305.824"/>
<polygon fill="midnightblue" stroke="midnightblue" points="426.819,-309.115 437.411,-309.339 429.27,-302.558 426.819,-309.115"/>
</g>
<!-- Node9 -->
<g id="node9" class="node"><title>Node9</title>
<g id="a_node9"><a xlink:href="../../de/d49/classback_end_1_1_sugar_scape.html#a960fa32657cb19f50dd7446619fe93e9" target="_top" xlink:title="backEnd.SugarScape.getClosest\lNeighbor">
<polygon fill="white" stroke="black" points="420.5,-19.4151 420.5,-49.4151 593.5,-49.4151 593.5,-19.4151 420.5,-19.4151"/>
<text text-anchor="start" x="428.5" y="-37.4151" font-family="Helvetica,sans-Serif" font-size="10.00">backEnd.SugarScape.getClosest</text>
<text text-anchor="middle" x="507" y="-26.4151" font-family="Helvetica,sans-Serif" font-size="10.00">Neighbor</text>
</a>
</g>
</g>
<!-- Node2&#45;&gt;Node9 -->
<g id="edge8" class="edge"><title>Node2&#45;&gt;Node9</title>
<path fill="none" stroke="midnightblue" d="M292.487,-182.67C309.401,-158.046 357.482,-92.9062 414,-59.4151 417.684,-57.2319 421.564,-55.2345 425.561,-53.4079"/>
<polygon fill="midnightblue" stroke="midnightblue" points="427.181,-56.5245 435.067,-49.4482 424.49,-50.0628 427.181,-56.5245"/>
</g>
<!-- Node11 -->
<g id="node11" class="node"><title>Node11</title>
<g id="a_node11"><a xlink:href="../../de/d49/classback_end_1_1_sugar_scape.html#aef8d78e2988a976344c3b83a9259d519" target="_top" xlink:title="backEnd.SugarScape.getNeighbors">
<polygon fill="white" stroke="black" points="414,-68.9151 414,-87.9151 600,-87.9151 600,-68.9151 414,-68.9151"/>
<text text-anchor="middle" x="507" y="-75.9151" font-family="Helvetica,sans-Serif" font-size="10.00">backEnd.SugarScape.getNeighbors</text>
</a>
</g>
</g>
<!-- Node2&#45;&gt;Node11 -->
<g id="edge10" class="edge"><title>Node2&#45;&gt;Node11</title>
<path fill="none" stroke="midnightblue" d="M296.798,-182.752C317.835,-164.42 366.431,-124.462 414,-102.415 424.09,-97.7385 435.242,-93.8612 446.197,-90.6863"/>
<polygon fill="midnightblue" stroke="midnightblue" points="447.441,-93.9748 456.167,-87.9652 445.598,-87.2218 447.441,-93.9748"/>
</g>
<!-- Node13 -->
<g id="node13" class="node"><title>Node13</title>
<g id="a_node13"><a xlink:href="../../de/d49/classback_end_1_1_sugar_scape.html#aaf84272d68cbd5b1ae5a30fba6c77967" target="_top" xlink:title="backEnd.SugarScape.isSugar">
<polygon fill="white" stroke="black" points="640,-106.915 640,-125.915 798,-125.915 798,-106.915 640,-106.915"/>
<text text-anchor="middle" x="719" y="-113.915" font-family="Helvetica,sans-Serif" font-size="10.00">backEnd.SugarScape.isSugar</text>
</a>
</g>
</g>
<!-- Node2&#45;&gt;Node13 -->
<g id="edge17" class="edge"><title>Node2&#45;&gt;Node13</title>
<path fill="none" stroke="midnightblue" d="M302.297,-182.864C325.981,-169.527 371.712,-145.794 414,-135.415 485.148,-117.952 568.319,-113.826 629.664,-113.715"/>
<polygon fill="midnightblue" stroke="midnightblue" points="629.695,-117.215 639.701,-113.733 629.707,-110.215 629.695,-117.215"/>
</g>
<!-- Node15 -->
<g id="node15" class="node"><title>Node15</title>
<g id="a_node15"><a xlink:href="../../de/d49/classback_end_1_1_sugar_scape.html#a6eca38a51f9c17bf46e8137754c5e513" target="_top" xlink:title="backEnd.SugarScape.getSugar\lLevel">
<polygon fill="white" stroke="black" points="636,-183.415 636,-213.415 802,-213.415 802,-183.415 636,-183.415"/>
<text text-anchor="start" x="644" y="-201.415" font-family="Helvetica,sans-Serif" font-size="10.00">backEnd.SugarScape.getSugar</text>
<text text-anchor="middle" x="719" y="-190.415" font-family="Helvetica,sans-Serif" font-size="10.00">Level</text>
</a>
</g>
</g>
<!-- Node2&#45;&gt;Node15 -->
<g id="edge15" class="edge"><title>Node2&#45;&gt;Node15</title>
<path fill="none" stroke="midnightblue" d="M365.235,-193.516C438.784,-194.537 548.271,-196.058 625.729,-197.134"/>
<polygon fill="midnightblue" stroke="midnightblue" points="625.914,-200.636 635.962,-197.276 626.012,-193.637 625.914,-200.636"/>
</g>
<!-- Node16 -->
<g id="node16" class="node"><title>Node16</title>
<g id="a_node16"><a xlink:href="../../de/d49/classback_end_1_1_sugar_scape.html#a96fcf395199ef2ca7af1e01d2ec362bf" target="_top" xlink:title="backEnd.SugarScape.moveAgent">
<polygon fill="white" stroke="black" points="418.5,-270.915 418.5,-289.915 595.5,-289.915 595.5,-270.915 418.5,-270.915"/>
<text text-anchor="middle" x="507" y="-277.915" font-family="Helvetica,sans-Serif" font-size="10.00">backEnd.SugarScape.moveAgent</text>
</a>
</g>
</g>
<!-- Node2&#45;&gt;Node16 -->
<g id="edge18" class="edge"><title>Node2&#45;&gt;Node16</title>
<path fill="none" stroke="midnightblue" d="M300.741,-201.985C323.932,-216.632 370.762,-244.573 414,-260.415 422.453,-263.512 431.528,-266.202 440.565,-268.518"/>
<polygon fill="midnightblue" stroke="midnightblue" points="439.782,-271.929 450.325,-270.884 441.431,-265.126 439.782,-271.929"/>
</g>
<!-- Node17 -->
<g id="node17" class="node"><title>Node17</title>
<g id="a_node17"><a xlink:href="../../de/d49/classback_end_1_1_sugar_scape.html#a9e07dd6e4d60049bb525ee8032b5f0a8" target="_top" xlink:title="backEnd.SugarScape.subtract\lMetabolism">
<polygon fill="white" stroke="black" points="426.5,-221.415 426.5,-251.415 587.5,-251.415 587.5,-221.415 426.5,-221.415"/>
<text text-anchor="start" x="434.5" y="-239.415" font-family="Helvetica,sans-Serif" font-size="10.00">backEnd.SugarScape.subtract</text>
<text text-anchor="middle" x="507" y="-228.415" font-family="Helvetica,sans-Serif" font-size="10.00">Metabolism</text>
</a>
</g>
</g>
<!-- Node2&#45;&gt;Node17 -->
<g id="edge23" class="edge"><title>Node2&#45;&gt;Node17</title>
<path fill="none" stroke="midnightblue" d="M333.737,-201.962C359.17,-207.049 391.224,-213.46 420.765,-219.368"/>
<polygon fill="midnightblue" stroke="midnightblue" points="420.181,-222.821 430.673,-221.35 421.554,-215.956 420.181,-222.821"/>
</g>
<!-- Node5 -->
<g id="node5" class="node"><title>Node5</title>
<g id="a_node5"><a xlink:href="../../db/d5e/classback_end_1_1_patch.html#ac9c7bf582f9e7aec34492785fea4cf68" target="_top" xlink:title="backEnd.Patch.fill">
<polygon fill="white" stroke="black" points="669.5,-319.915 669.5,-338.915 768.5,-338.915 768.5,-319.915 669.5,-319.915"/>
<text text-anchor="middle" x="719" y="-326.915" font-family="Helvetica,sans-Serif" font-size="10.00">backEnd.Patch.fill</text>
</a>
</g>
</g>
<!-- Node4&#45;&gt;Node5 -->
<g id="edge4" class="edge"><title>Node4&#45;&gt;Node5</title>
<path fill="none" stroke="midnightblue" d="M579.683,-326.122C605.57,-326.738 634.473,-327.426 659.136,-328.014"/>
<polygon fill="midnightblue" stroke="midnightblue" points="659.345,-331.519 669.425,-328.259 659.511,-324.521 659.345,-331.519"/>
</g>
<!-- Node6 -->
<g id="node6" class="node"><title>Node6</title>
<g id="a_node6"><a xlink:href="../../db/d5e/classback_end_1_1_patch.html#a3c6c0521d023d1883b92717afa1340f0" target="_top" xlink:title="backEnd.Patch.flag">
<polygon fill="white" stroke="black" points="665.5,-281.915 665.5,-300.915 772.5,-300.915 772.5,-281.915 665.5,-281.915"/>
<text text-anchor="middle" x="719" y="-288.915" font-family="Helvetica,sans-Serif" font-size="10.00">backEnd.Patch.flag</text>
</a>
</g>
</g>
<!-- Node4&#45;&gt;Node6 -->
<g id="edge5" class="edge"><title>Node4&#45;&gt;Node6</title>
<path fill="none" stroke="midnightblue" d="M579.683,-313.151C604.219,-309.295 631.463,-305.014 655.239,-301.278"/>
<polygon fill="midnightblue" stroke="midnightblue" points="655.863,-304.723 665.199,-299.712 654.777,-297.807 655.863,-304.723"/>
</g>
<!-- Node7 -->
<g id="node7" class="node"><title>Node7</title>
<g id="a_node7"><a xlink:href="../../de/d49/classback_end_1_1_sugar_scape.html#ac39421d9c6ae9dea8c02c724fdd0c395" target="_top" xlink:title="backEnd.SugarScape.setSugar\lLevel">
<polygon fill="white" stroke="black" points="636.5,-232.415 636.5,-262.415 801.5,-262.415 801.5,-232.415 636.5,-232.415"/>
<text text-anchor="start" x="644.5" y="-250.415" font-family="Helvetica,sans-Serif" font-size="10.00">backEnd.SugarScape.setSugar</text>
<text text-anchor="middle" x="719" y="-239.415" font-family="Helvetica,sans-Serif" font-size="10.00">Level</text>
</a>
</g>
</g>
<!-- Node4&#45;&gt;Node7 -->
<g id="edge6" class="edge"><title>Node4&#45;&gt;Node7</title>
<path fill="none" stroke="midnightblue" d="M575.422,-309.287C583.879,-306.468 592.267,-303.193 600,-299.415 617.97,-290.636 618.166,-281.468 636,-272.415 640.529,-270.116 645.307,-267.986 650.188,-266.02"/>
<polygon fill="midnightblue" stroke="midnightblue" points="651.545,-269.25 659.663,-262.442 649.071,-262.701 651.545,-269.25"/>
</g>
<!-- Node8 -->
<g id="node8" class="node"><title>Node8</title>
<g id="a_node8"><a xlink:href="../../d0/d08/classback_end_1_1_cell.html#a780d63fdf3ec4f64bd01f9c1c01f54e9" target="_top" xlink:title="backEnd.Cell.getState">
<polygon fill="white" stroke="black" points="838,-166.915 838,-185.915 960,-185.915 960,-166.915 838,-166.915"/>
<text text-anchor="middle" x="899" y="-173.915" font-family="Helvetica,sans-Serif" font-size="10.00">backEnd.Cell.getState</text>
</a>
</g>
</g>
<!-- Node7&#45;&gt;Node8 -->
<g id="edge7" class="edge"><title>Node7&#45;&gt;Node8</title>
<path fill="none" stroke="midnightblue" d="M773.771,-232.295C783.262,-229.266 792.986,-225.926 802,-222.415 825.866,-213.12 852.026,-200.408 871.002,-190.703"/>
<polygon fill="midnightblue" stroke="midnightblue" points="872.684,-193.773 879.96,-186.072 869.469,-187.555 872.684,-193.773"/>
</g>
<!-- Node10 -->
<g id="node10" class="node"><title>Node10</title>
<g id="a_node10"><a xlink:href="../../d5/de7/jquery_8js.html#a2335e57f79b6acfb6de59c235dc8a83e" target="_top" xlink:title="p">
<polygon fill="white" stroke="black" points="704.5,-2.91513 704.5,-21.9151 733.5,-21.9151 733.5,-2.91513 704.5,-2.91513"/>
<text text-anchor="middle" x="719" y="-9.91513" font-family="Helvetica,sans-Serif" font-size="10.00">p</text>
</a>
</g>
</g>
<!-- Node9&#45;&gt;Node10 -->
<g id="edge9" class="edge"><title>Node9&#45;&gt;Node10</title>
<path fill="none" stroke="midnightblue" d="M593.718,-25.4352C630.107,-21.6229 669.697,-17.4755 694.184,-14.9101"/>
<polygon fill="midnightblue" stroke="midnightblue" points="694.726,-18.3726 704.307,-13.8497 693.996,-11.4107 694.726,-18.3726"/>
</g>
<!-- Node12 -->
<g id="node12" class="node"><title>Node12</title>
<g id="a_node12"><a xlink:href="../../d1/dfc/classback_end_1_1_rule_set.html#ace087d13be0cf3e1f723a663d0e06d8b" target="_top" xlink:title="backEnd.RuleSet.isOutside">
<polygon fill="white" stroke="black" points="647.5,-68.9151 647.5,-87.9151 790.5,-87.9151 790.5,-68.9151 647.5,-68.9151"/>
<text text-anchor="middle" x="719" y="-75.9151" font-family="Helvetica,sans-Serif" font-size="10.00">backEnd.RuleSet.isOutside</text>
</a>
</g>
</g>
<!-- Node11&#45;&gt;Node12 -->
<g id="edge11" class="edge"><title>Node11&#45;&gt;Node12</title>
<path fill="none" stroke="midnightblue" d="M600.109,-78.4151C612.507,-78.4151 625.148,-78.4151 637.328,-78.4151"/>
<polygon fill="midnightblue" stroke="midnightblue" points="637.434,-81.9152 647.434,-78.4151 637.434,-74.9152 637.434,-81.9152"/>
</g>
<!-- Node11&#45;&gt;Node13 -->
<g id="edge12" class="edge"><title>Node11&#45;&gt;Node13</title>
<path fill="none" stroke="midnightblue" d="M560.721,-87.9551C589.429,-93.1499 625.137,-99.6114 655.27,-105.064"/>
<polygon fill="midnightblue" stroke="midnightblue" points="654.794,-108.535 665.258,-106.871 656.041,-101.646 654.794,-108.535"/>
</g>
<!-- Node13&#45;&gt;Node8 -->
<g id="edge14" class="edge"><title>Node13&#45;&gt;Node8</title>
<path fill="none" stroke="midnightblue" d="M754.889,-126.01C769.519,-130.192 786.661,-135.302 802,-140.415 823.042,-147.429 846.344,-156.144 864.72,-163.242"/>
<polygon fill="midnightblue" stroke="midnightblue" points="863.521,-166.531 874.11,-166.894 866.058,-160.007 863.521,-166.531"/>
</g>
<!-- Node14 -->
<g id="node14" class="node"><title>Node14</title>
<g id="a_node14"><a xlink:href="../../db/d5e/classback_end_1_1_patch.html#a8d97ca84fd6d69378e9fc0b96eff7cb9" target="_top" xlink:title="backEnd.Patch.getCell">
<polygon fill="white" stroke="black" points="838,-106.915 838,-125.915 960,-125.915 960,-106.915 838,-106.915"/>
<text text-anchor="middle" x="899" y="-113.915" font-family="Helvetica,sans-Serif" font-size="10.00">backEnd.Patch.getCell</text>
</a>
</g>
</g>
<!-- Node13&#45;&gt;Node14 -->
<g id="edge13" class="edge"><title>Node13&#45;&gt;Node14</title>
<path fill="none" stroke="midnightblue" d="M798.073,-116.415C807.987,-116.415 818.085,-116.415 827.864,-116.415"/>
<polygon fill="midnightblue" stroke="midnightblue" points="827.919,-119.915 837.919,-116.415 827.919,-112.915 827.919,-119.915"/>
</g>
<!-- Node15&#45;&gt;Node8 -->
<g id="edge16" class="edge"><title>Node15&#45;&gt;Node8</title>
<path fill="none" stroke="midnightblue" d="M802.227,-188.252C810.775,-187.196 819.407,-186.129 827.805,-185.091"/>
<polygon fill="midnightblue" stroke="midnightblue" points="828.417,-188.542 837.912,-183.842 827.558,-181.595 828.417,-188.542"/>
</g>
<!-- Node16&#45;&gt;Node5 -->
<g id="edge19" class="edge"><title>Node16&#45;&gt;Node5</title>
<path fill="none" stroke="midnightblue" d="M554.45,-289.975C569.067,-293.127 585.244,-296.765 600,-300.415 616.12,-304.403 619.908,-306.318 636,-310.415 645.459,-312.824 655.565,-315.269 665.336,-317.568"/>
<polygon fill="midnightblue" stroke="midnightblue" points="664.822,-321.042 675.356,-319.902 666.411,-314.224 664.822,-321.042"/>
</g>
<!-- Node16&#45;&gt;Node6 -->
<g id="edge20" class="edge"><title>Node16&#45;&gt;Node6</title>
<path fill="none" stroke="midnightblue" d="M595.538,-285C615.574,-286.05 636.483,-287.145 655.235,-288.127"/>
<polygon fill="midnightblue" stroke="midnightblue" points="655.243,-291.633 665.412,-288.661 655.609,-284.642 655.243,-291.633"/>
</g>
<!-- Node16&#45;&gt;Node7 -->
<g id="edge22" class="edge"><title>Node16&#45;&gt;Node7</title>
<path fill="none" stroke="midnightblue" d="M568.459,-270.914C586.599,-268.064 606.916,-264.871 626.586,-261.78"/>
<polygon fill="midnightblue" stroke="midnightblue" points="627.151,-265.234 636.486,-260.224 626.064,-258.319 627.151,-265.234"/>
</g>
<!-- Node16&#45;&gt;Node15 -->
<g id="edge21" class="edge"><title>Node16&#45;&gt;Node15</title>
<path fill="none" stroke="midnightblue" d="M575.084,-270.804C583.772,-268.144 592.311,-264.749 600,-260.415 620.267,-248.992 616.149,-234.547 636,-222.415 638.785,-220.713 641.696,-219.127 644.692,-217.648"/>
<polygon fill="midnightblue" stroke="midnightblue" points="646.195,-220.81 653.892,-213.53 643.335,-214.421 646.195,-220.81"/>
</g>
<!-- Node17&#45;&gt;Node7 -->
<g id="edge25" class="edge"><title>Node17&#45;&gt;Node7</title>
<path fill="none" stroke="midnightblue" d="M587.691,-240.589C600.234,-241.246 613.29,-241.93 626.082,-242.6"/>
<polygon fill="midnightblue" stroke="midnightblue" points="626.101,-246.106 636.27,-243.134 626.467,-239.116 626.101,-246.106"/>
</g>
<!-- Node17&#45;&gt;Node15 -->
<g id="edge24" class="edge"><title>Node17&#45;&gt;Node15</title>
<path fill="none" stroke="midnightblue" d="M587.691,-221.995C600.143,-219.742 613.099,-217.397 625.802,-215.099"/>
<polygon fill="midnightblue" stroke="midnightblue" points="626.703,-218.492 635.92,-213.268 625.457,-211.604 626.703,-218.492"/>
</g>
<!-- Node18&#45;&gt;Node7 -->
<g id="edge29" class="edge"><title>Node18&#45;&gt;Node7</title>
<path fill="none" stroke="midnightblue" d="M523.684,-164.023C547.352,-178.224 593.911,-205.009 636,-222.415 641.686,-224.767 647.674,-227.011 653.719,-229.121"/>
<polygon fill="midnightblue" stroke="midnightblue" points="652.634,-232.448 663.228,-232.322 654.868,-225.814 652.634,-232.448"/>
</g>
<!-- Node18&#45;&gt;Node8 -->
<g id="edge27" class="edge"><title>Node18&#45;&gt;Node8</title>
<path fill="none" stroke="midnightblue" d="M593.587,-159.243C663.717,-163.199 761.763,-168.73 827.448,-172.435"/>
<polygon fill="midnightblue" stroke="midnightblue" points="827.522,-175.945 837.703,-173.014 827.916,-168.956 827.522,-175.945"/>
</g>
<!-- Node18&#45;&gt;Node13 -->
<g id="edge28" class="edge"><title>Node18&#45;&gt;Node13</title>
<path fill="none" stroke="midnightblue" d="M560.721,-144.875C589.429,-139.68 625.137,-133.219 655.27,-127.766"/>
<polygon fill="midnightblue" stroke="midnightblue" points="656.041,-131.184 665.258,-125.959 654.794,-124.296 656.041,-131.184"/>
</g>
<!-- Node19&#45;&gt;Node10 -->
<g id="edge31" class="edge"><title>Node19&#45;&gt;Node10</title>
<path fill="none" stroke="midnightblue" d="M306.73,-43.8914C331.594,-33.0387 374.83,-15.9595 414,-9.41513 517.063,7.80427 642.528,-3.40318 694.11,-9.36856"/>
<polygon fill="midnightblue" stroke="midnightblue" points="693.887,-12.8669 704.233,-10.5837 694.721,-5.91676 693.887,-12.8669"/>
</g>
</g>
</svg>
        <g id="navigator" transform="translate(0 0)" fill="#404254">
                <rect fill="#f2f5e9" fill-opacity="0.5" stroke="#606060" stroke-width=".5" x="0" y="0" width="60" height="60"/>
                <use id="zoomplus" xlink:href="#zoomPlus" x="17" y="9" onmousedown="handleZoom(evt,'in')"/>
                <use id="zoomminus" xlink:href="#zoomMin" x="42" y="9" onmousedown="handleZoom(evt,'out')"/>
                <use id="reset" xlink:href="#resetDef" x="30" y="36" onmousedown="handleReset()"/>
                <g id="arrowUp" xlink:href="#dirArrow" transform="translate(30 24)" onmousedown="handlePan(0,-1)">
                  <use xlink:href="#rim" fill="#404040">
                        <set attributeName="fill" to="#808080" begin="arrowUp.mouseover" end="arrowUp.mouseout"/>
                  </use>
                  <path fill="none" stroke="white" stroke-width="1.5" d="M0,-3.0v7 M-2.5,-0.5L0,-3.0L2.5,-0.5"/>
                </g>
                <g id="arrowRight" xlink:href="#dirArrow" transform="rotate(90) translate(36 -43)" onmousedown="handlePan(1,0)">
                  <use xlink:href="#rim" fill="#404040">
                        <set attributeName="fill" to="#808080" begin="arrowRight.mouseover" end="arrowRight.mouseout"/>
                  </use>
                  <path fill="none" stroke="white" stroke-width="1.5" d="M0,-3.0v7 M-2.5,-0.5L0,-3.0L2.5,-0.5"/>
                </g>
                <g id="arrowDown" xlink:href="#dirArrow" transform="rotate(180) translate(-30 -48)" onmousedown="handlePan(0,1)">
                  <use xlink:href="#rim" fill="#404040">
                        <set attributeName="fill" to="#808080" begin="arrowDown.mouseover" end="arrowDown.mouseout"/>
                  </use>
                  <path fill="none" stroke="white" stroke-width="1.5" d="M0,-3.0v7 M-2.5,-0.5L0,-3.0L2.5,-0.5"/>
                </g>
                <g id="arrowLeft" xlink:href="#dirArrow" transform="rotate(270) translate(-36 17)" onmousedown="handlePan(-1,0)">
                  <use xlink:href="#rim" fill="#404040">
                        <set attributeName="fill" to="#808080" begin="arrowLeft.mouseover" end="arrowLeft.mouseout"/>
                  </use>
                  <path fill="none" stroke="white" stroke-width="1.5" d="M0,-3.0v7 M-2.5,-0.5L0,-3.0L2.5,-0.5"/>
                </g>
        </g>
        <svg viewBox="0 0 15 15" width="100%" height="30px" preserveAspectRatio="xMaxYMin meet">
         <g id="arrow_out" transform="scale(0.3 0.3)">
          <a xlink:href="classback_end_1_1_sugar_scape_ab0c2eb832afef056e0a72aea2bf8ddc1_cgraph_org.svg" target="_base">
           <rect id="button" ry="5" rx="5" y="6" x="6" height="38" width="38"
                fill="#f2f5e9" fill-opacity="0.5" stroke="#606060" stroke-width="1.0"/>
           <path id="arrow"
             d="M 11.500037,31.436501 C 11.940474,20.09759 22.043105,11.32322 32.158766,21.979434 L 37.068811,17.246167 C 37.068811,17.246167 37.088388,32 37.088388,32 L 22.160133,31.978069 C 22.160133,31.978069 26.997745,27.140456 26.997745,27.140456 C 18.528582,18.264221 13.291696,25.230495 11.500037,31.436501 z"
             style="fill:#404040;"/>
          </a>
         </g>
        </svg>
</svg>
