<?xml version="1.0" encoding="UTF-8" standalone="no"?>
<!DOCTYPE svg PUBLIC "-//W3C//DTD SVG 1.1//EN"
 "http://www.w3.org/Graphics/SVG/1.1/DTD/svg11.dtd">
<!-- Generated by graphviz version 2.36.0 (20140111.2315)
 -->
<!-- Title: backEnd.SugarScape.growSugar Pages: 1 -->
<svg width="542pt" height="92pt"
 viewBox="0.00 0.00 542.00 92.30" xmlns="http://www.w3.org/2000/svg" xmlns:xlink="http://www.w3.org/1999/xlink">
<g id="graph0" class="graph" transform="scale(1 1) rotate(0) translate(4 88.2957)">
<title>backEnd.SugarScape.growSugar</title>
<polygon fill="white" stroke="none" points="-4,4 -4,-88.2957 538,-88.2957 538,4 -4,4"/>
<!-- Node1 -->
<g id="node1" class="node"><title>Node1</title>
<polygon fill="#bfbfbf" stroke="black" points="0.5,-44.5 0.5,-63.5 173.5,-63.5 173.5,-44.5 0.5,-44.5"/>
<text text-anchor="middle" x="87" y="-51.5" font-family="Helvetica,sans-Serif" font-size="10.00">backEnd.SugarScape.growSugar</text>
</g>
<!-- Node2 -->
<g id="node2" class="node"><title>Node2</title>
<g id="a_node2"><a xlink:href="../../d0/d08/classback_end_1_1_cell.html#a780d63fdf3ec4f64bd01f9c1c01f54e9" target="_top" xlink:title="backEnd.Cell.getState">
<polygon fill="white" stroke="black" points="412,-44.5 412,-63.5 534,-63.5 534,-44.5 412,-44.5"/>
<text text-anchor="middle" x="473" y="-51.5" font-family="Helvetica,sans-Serif" font-size="10.00">backEnd.Cell.getState</text>
</a>
</g>
</g>
<!-- Node1&#45;&gt;Node2 -->
<g id="edge1" class="edge"><title>Node1&#45;&gt;Node2</title>
<path fill="none" stroke="midnightblue" d="M126.452,-63.5549C150.329,-68.9901 181.748,-75.2474 210,-78 283.43,-85.1541 302.775,-87.0144 376,-78 394.672,-75.7014 414.936,-70.9777 432.013,-66.3243"/>
<polygon fill="midnightblue" stroke="midnightblue" points="432.984,-69.6871 441.664,-63.6114 431.09,-62.9483 432.984,-69.6871"/>
</g>
<!-- Node3 -->
<g id="node3" class="node"><title>Node3</title>
<g id="a_node3"><a xlink:href="../../de/d49/classback_end_1_1_sugar_scape.html#aaf84272d68cbd5b1ae5a30fba6c77967" target="_top" xlink:title="backEnd.SugarScape.isSugar">
<polygon fill="white" stroke="black" points="214,-0.5 214,-19.5 372,-19.5 372,-0.5 214,-0.5"/>
<text text-anchor="middle" x="293" y="-7.5" font-family="Helvetica,sans-Serif" font-size="10.00">backEnd.SugarScape.isSugar</text>
</a>
</g>
</g>
<!-- Node1&#45;&gt;Node3 -->
<g id="edge2" class="edge"><title>Node1&#45;&gt;Node3</title>
<path fill="none" stroke="midnightblue" d="M132.265,-44.4527C163.275,-37.7643 204.9,-28.7863 237.884,-21.6721"/>
<polygon fill="midnightblue" stroke="midnightblue" points="238.784,-25.0585 247.821,-19.5287 237.308,-18.2158 238.784,-25.0585"/>
</g>
<!-- Node5 -->
<g id="node5" class="node"><title>Node5</title>
<g id="a_node5"><a xlink:href="../../de/d49/classback_end_1_1_sugar_scape.html#ac39421d9c6ae9dea8c02c724fdd0c395" target="_top" xlink:title="backEnd.SugarScape.setSugar\lLevel">
<polygon fill="white" stroke="black" points="210.5,-39 210.5,-69 375.5,-69 375.5,-39 210.5,-39"/>
<text text-anchor="start" x="218.5" y="-57" font-family="Helvetica,sans-Serif" font-size="10.00">backEnd.SugarScape.setSugar</text>
<text text-anchor="middle" x="293" y="-46" font-family="Helvetica,sans-Serif" font-size="10.00">Level</text>
</a>
</g>
</g>
<!-- Node1&#45;&gt;Node5 -->
<g id="edge5" class="edge"><title>Node1&#45;&gt;Node5</title>
<path fill="none" stroke="midnightblue" d="M173.628,-54C182.327,-54 191.189,-54 199.952,-54"/>
<polygon fill="midnightblue" stroke="midnightblue" points="200.179,-57.5001 210.178,-54 200.178,-50.5001 200.179,-57.5001"/>
</g>
<!-- Node3&#45;&gt;Node2 -->
<g id="edge4" class="edge"><title>Node3&#45;&gt;Node2</title>
<path fill="none" stroke="midnightblue" d="M336.189,-19.5453C348.993,-22.5041 363.087,-25.8232 376,-29 392.325,-33.0163 410.159,-37.6047 425.977,-41.7449"/>
<polygon fill="midnightblue" stroke="midnightblue" points="425.483,-45.2339 436.045,-44.3904 427.263,-38.4638 425.483,-45.2339"/>
</g>
<!-- Node4 -->
<g id="node4" class="node"><title>Node4</title>
<g id="a_node4"><a xlink:href="../../db/d5e/classback_end_1_1_patch.html#a8d97ca84fd6d69378e9fc0b96eff7cb9" target="_top" xlink:title="backEnd.Patch.getCell">
<polygon fill="white" stroke="black" points="412,-0.5 412,-19.5 534,-19.5 534,-0.5 412,-0.5"/>
<text text-anchor="middle" x="473" y="-7.5" font-family="Helvetica,sans-Serif" font-size="10.00">backEnd.Patch.getCell</text>
</a>
</g>
</g>
<!-- Node3&#45;&gt;Node4 -->
<g id="edge3" class="edge"><title>Node3&#45;&gt;Node4</title>
<path fill="none" stroke="midnightblue" d="M372.073,-10C381.987,-10 392.085,-10 401.864,-10"/>
<polygon fill="midnightblue" stroke="midnightblue" points="401.919,-13.5001 411.919,-10 401.919,-6.5001 401.919,-13.5001"/>
</g>
<!-- Node5&#45;&gt;Node2 -->
<g id="edge6" class="edge"><title>Node5&#45;&gt;Node2</title>
<path fill="none" stroke="midnightblue" d="M375.706,-54C384.348,-54 393.082,-54 401.58,-54"/>
<polygon fill="midnightblue" stroke="midnightblue" points="401.805,-57.5001 411.805,-54 401.805,-50.5001 401.805,-57.5001"/>
</g>
</g>
</svg>
