<?xml version="1.0" encoding="UTF-8" standalone="no"?>
<!DOCTYPE svg PUBLIC "-//W3C//DTD SVG 1.1//EN"
 "http://www.w3.org/Graphics/SVG/1.1/DTD/svg11.dtd">
<!-- Generated by graphviz version 2.36.0 (20140111.2315)
 -->
<!-- Title: backEnd.SugarScape.setSugarLevel Pages: 1 -->
<svg width="790pt" height="201pt"
 viewBox="0.00 0.00 790.00 200.61" xmlns="http://www.w3.org/2000/svg" xmlns:xlink="http://www.w3.org/1999/xlink">
<g id="graph0" class="graph" transform="scale(1 1) rotate(0) translate(4 196.613)">
<title>backEnd.SugarScape.setSugarLevel</title>
<polygon fill="white" stroke="none" points="-4,4 -4,-196.613 786,-196.613 786,4 -4,4"/>
<!-- Node1 -->
<g id="node1" class="node"><title>Node1</title>
<polygon fill="#bfbfbf" stroke="black" points="0.5,-74.6128 0.5,-104.613 165.5,-104.613 165.5,-74.6128 0.5,-74.6128"/>
<text text-anchor="start" x="8.5" y="-92.6128" font-family="Helvetica,sans-Serif" font-size="10.00">backEnd.SugarScape.setSugar</text>
<text text-anchor="middle" x="83" y="-81.6128" font-family="Helvetica,sans-Serif" font-size="10.00">Level</text>
</g>
<!-- Node2 -->
<g id="node2" class="node"><title>Node2</title>
<g id="a_node2"><a xlink:href="../../de/d49/classback_end_1_1_sugar_scape.html#a4b3bd085af29e9071f8b19c9a271fa23" target="_top" xlink:title="backEnd.SugarScape.clear\lPatch">
<polygon fill="white" stroke="black" points="218.5,-74.6128 218.5,-104.613 363.5,-104.613 363.5,-74.6128 218.5,-74.6128"/>
<text text-anchor="start" x="226.5" y="-92.6128" font-family="Helvetica,sans-Serif" font-size="10.00">backEnd.SugarScape.clear</text>
<text text-anchor="middle" x="291" y="-81.6128" font-family="Helvetica,sans-Serif" font-size="10.00">Patch</text>
</a>
</g>
</g>
<!-- Node1&#45;&gt;Node2 -->
<g id="edge1" class="edge"><title>Node1&#45;&gt;Node2</title>
<path fill="none" stroke="midnightblue" d="M175.996,-89.6128C190.209,-89.6128 204.704,-89.6128 218.383,-89.6128"/>
<polygon fill="midnightblue" stroke="midnightblue" points="175.713,-86.1129 165.713,-89.6128 175.712,-93.1129 175.713,-86.1129"/>
</g>
<!-- Node5 -->
<g id="node5" class="node"><title>Node5</title>
<g id="a_node5"><a xlink:href="../../de/d49/classback_end_1_1_sugar_scape.html#a35c8ec7798b62668018c0992b6f8a991" target="_top" xlink:title="backEnd.SugarScape.growSugar">
<polygon fill="white" stroke="black" points="416.5,-10.1128 416.5,-29.1128 589.5,-29.1128 589.5,-10.1128 416.5,-10.1128"/>
<text text-anchor="middle" x="503" y="-17.1128" font-family="Helvetica,sans-Serif" font-size="10.00">backEnd.SugarScape.growSugar</text>
</a>
</g>
</g>
<!-- Node1&#45;&gt;Node5 -->
<g id="edge4" class="edge"><title>Node1&#45;&gt;Node5</title>
<path fill="none" stroke="midnightblue" d="M109.277,-67.7956C131.871,-49.8375 166.763,-25.7477 202,-15.6128 286.599,8.71954 390.243,-0.817639 450.917,-10.1102"/>
<polygon fill="midnightblue" stroke="midnightblue" points="106.789,-65.3078 101.245,-74.3362 111.209,-70.7359 106.789,-65.3078"/>
</g>
<!-- Node6 -->
<g id="node6" class="node"><title>Node6</title>
<g id="a_node6"><a xlink:href="../../de/d49/classback_end_1_1_sugar_scape.html#a96fcf395199ef2ca7af1e01d2ec362bf" target="_top" xlink:title="backEnd.SugarScape.moveAgent">
<polygon fill="white" stroke="black" points="202.5,-173.113 202.5,-192.113 379.5,-192.113 379.5,-173.113 202.5,-173.113"/>
<text text-anchor="middle" x="291" y="-180.113" font-family="Helvetica,sans-Serif" font-size="10.00">backEnd.SugarScape.moveAgent</text>
</a>
</g>
</g>
<!-- Node1&#45;&gt;Node6 -->
<g id="edge6" class="edge"><title>Node1&#45;&gt;Node6</title>
<path fill="none" stroke="midnightblue" d="M112.046,-110.681C135.097,-127.054 169.187,-149.173 202,-162.613 212.439,-166.888 223.967,-170.341 235.145,-173.095"/>
<polygon fill="midnightblue" stroke="midnightblue" points="113.935,-107.728 103.777,-104.716 109.84,-113.405 113.935,-107.728"/>
</g>
<!-- Node7 -->
<g id="node7" class="node"><title>Node7</title>
<g id="a_node7"><a xlink:href="../../de/d49/classback_end_1_1_sugar_scape.html#a9be1da134b1e998ed27dba1b82b1a4f4" target="_top" xlink:title="backEnd.SugarScape.randomize\lSugar">
<polygon fill="white" stroke="black" points="204.5,-25.6128 204.5,-55.6128 377.5,-55.6128 377.5,-25.6128 204.5,-25.6128"/>
<text text-anchor="start" x="212.5" y="-43.6128" font-family="Helvetica,sans-Serif" font-size="10.00">backEnd.SugarScape.randomize</text>
<text text-anchor="middle" x="291" y="-32.6128" font-family="Helvetica,sans-Serif" font-size="10.00">Sugar</text>
</a>
</g>
</g>
<!-- Node1&#45;&gt;Node7 -->
<g id="edge8" class="edge"><title>Node1&#45;&gt;Node7</title>
<path fill="none" stroke="midnightblue" d="M157.167,-72.209C179.955,-66.7885 204.876,-60.8608 226.913,-55.619"/>
<polygon fill="midnightblue" stroke="midnightblue" points="156.125,-68.859 147.207,-74.5782 157.745,-75.669 156.125,-68.859"/>
</g>
<!-- Node8 -->
<g id="node8" class="node"><title>Node8</title>
<g id="a_node8"><a xlink:href="../../de/d49/classback_end_1_1_sugar_scape.html#a9e07dd6e4d60049bb525ee8032b5f0a8" target="_top" xlink:title="backEnd.SugarScape.subtract\lMetabolism">
<polygon fill="white" stroke="black" points="210.5,-123.613 210.5,-153.613 371.5,-153.613 371.5,-123.613 210.5,-123.613"/>
<text text-anchor="start" x="218.5" y="-141.613" font-family="Helvetica,sans-Serif" font-size="10.00">backEnd.SugarScape.subtract</text>
<text text-anchor="middle" x="291" y="-130.613" font-family="Helvetica,sans-Serif" font-size="10.00">Metabolism</text>
</a>
</g>
</g>
<!-- Node1&#45;&gt;Node8 -->
<g id="edge9" class="edge"><title>Node1&#45;&gt;Node8</title>
<path fill="none" stroke="midnightblue" d="M157.167,-107.017C179.955,-112.437 204.876,-118.365 226.913,-123.607"/>
<polygon fill="midnightblue" stroke="midnightblue" points="157.745,-103.557 147.207,-104.647 156.125,-110.367 157.745,-103.557"/>
</g>
<!-- Node3 -->
<g id="node3" class="node"><title>Node3</title>
<g id="a_node3"><a xlink:href="../../de/d49/classback_end_1_1_sugar_scape.html#a13186ddb64e70b5941d0cd12163c3e84" target="_top" xlink:title="backEnd.SugarScape.getNext">
<polygon fill="white" stroke="black" points="423,-104.113 423,-123.113 583,-123.113 583,-104.113 423,-104.113"/>
<text text-anchor="middle" x="503" y="-111.113" font-family="Helvetica,sans-Serif" font-size="10.00">backEnd.SugarScape.getNext</text>
</a>
</g>
</g>
<!-- Node2&#45;&gt;Node3 -->
<g id="edge2" class="edge"><title>Node2&#45;&gt;Node3</title>
<path fill="none" stroke="midnightblue" d="M374.072,-98.9924C390.07,-100.821 406.815,-102.734 422.72,-104.552"/>
<polygon fill="midnightblue" stroke="midnightblue" points="374.016,-95.4633 363.683,-97.8051 373.221,-102.418 374.016,-95.4633"/>
</g>
<!-- Node4 -->
<g id="node4" class="node"><title>Node4</title>
<g id="a_node4"><a xlink:href="../../de/d49/classback_end_1_1_sugar_scape.html#ab0c2eb832afef056e0a72aea2bf8ddc1" target="_top" xlink:title="backEnd.SugarScape.update">
<polygon fill="white" stroke="black" points="626.5,-56.1128 626.5,-75.1128 781.5,-75.1128 781.5,-56.1128 626.5,-56.1128"/>
<text text-anchor="middle" x="704" y="-63.1128" font-family="Helvetica,sans-Serif" font-size="10.00">backEnd.SugarScape.update</text>
</a>
</g>
</g>
<!-- Node3&#45;&gt;Node4 -->
<g id="edge3" class="edge"><title>Node3&#45;&gt;Node4</title>
<path fill="none" stroke="midnightblue" d="M553.934,-101.568C587.757,-93.4102 631.841,-82.7768 663.277,-75.1943"/>
<polygon fill="midnightblue" stroke="midnightblue" points="552.693,-98.2673 543.792,-104.015 554.334,-105.072 552.693,-98.2673"/>
</g>
<!-- Node5&#45;&gt;Node4 -->
<g id="edge5" class="edge"><title>Node5&#45;&gt;Node4</title>
<path fill="none" stroke="midnightblue" d="M555.188,-31.4452C588.317,-39.1032 630.882,-48.9422 661.82,-56.0938"/>
<polygon fill="midnightblue" stroke="midnightblue" points="555.764,-27.9862 545.233,-29.144 554.188,-34.8064 555.764,-27.9862"/>
</g>
<!-- Node6&#45;&gt;Node3 -->
<g id="edge7" class="edge"><title>Node6&#45;&gt;Node3</title>
<path fill="none" stroke="midnightblue" d="M350.216,-170.753C360.223,-168.325 370.466,-165.59 380,-162.613 416.385,-151.25 457.216,-133.86 481.209,-123.142"/>
<polygon fill="midnightblue" stroke="midnightblue" points="349.257,-167.383 340.322,-173.077 350.858,-174.198 349.257,-167.383"/>
</g>
<!-- Node8&#45;&gt;Node3 -->
<g id="edge10" class="edge"><title>Node8&#45;&gt;Node3</title>
<path fill="none" stroke="midnightblue" d="M381.97,-127.902C395.519,-126.289 409.408,-124.636 422.711,-123.052"/>
<polygon fill="midnightblue" stroke="midnightblue" points="381.208,-124.468 371.691,-129.126 382.035,-131.419 381.208,-124.468"/>
</g>
</g>
</svg>
