<?xml version="1.0" encoding="UTF-8" standalone="no"?>
<!DOCTYPE svg PUBLIC "-//W3C//DTD SVG 1.1//EN"
 "http://www.w3.org/Graphics/SVG/1.1/DTD/svg11.dtd">
<!-- Generated by graphviz version 2.36.0 (20140111.2315)
 -->
<!-- Title: backEnd.SugarScape.getNeighbors Pages: 1 -->
<svg width="582pt" height="28pt"
 viewBox="0.00 0.00 582.00 28.00" xmlns="http://www.w3.org/2000/svg" xmlns:xlink="http://www.w3.org/1999/xlink">
<g id="graph0" class="graph" transform="scale(1 1) rotate(0) translate(4 24)">
<title>backEnd.SugarScape.getNeighbors</title>
<polygon fill="white" stroke="none" points="-4,4 -4,-24 578,-24 578,4 -4,4"/>
<!-- Node1 -->
<g id="node1" class="node"><title>Node1</title>
<polygon fill="#bfbfbf" stroke="black" points="0,-0.5 0,-19.5 186,-19.5 186,-0.5 0,-0.5"/>
<text text-anchor="middle" x="93" y="-7.5" font-family="Helvetica,sans-Serif" font-size="10.00">backEnd.SugarScape.getNeighbors</text>
</g>
<!-- Node2 -->
<g id="node2" class="node"><title>Node2</title>
<g id="a_node2"><a xlink:href="../../de/d49/classback_end_1_1_sugar_scape.html#a13186ddb64e70b5941d0cd12163c3e84" target="_top" xlink:title="backEnd.SugarScape.getNext">
<polygon fill="white" stroke="black" points="222,-0.5 222,-19.5 382,-19.5 382,-0.5 222,-0.5"/>
<text text-anchor="middle" x="302" y="-7.5" font-family="Helvetica,sans-Serif" font-size="10.00">backEnd.SugarScape.getNext</text>
</a>
</g>
</g>
<!-- Node1&#45;&gt;Node2 -->
<g id="edge1" class="edge"><title>Node1&#45;&gt;Node2</title>
<path fill="none" stroke="midnightblue" d="M196.34,-10C204.908,-10 213.487,-10 221.841,-10"/>
<polygon fill="midnightblue" stroke="midnightblue" points="196.3,-6.5001 186.3,-10 196.3,-13.5001 196.3,-6.5001"/>
</g>
<!-- Node3 -->
<g id="node3" class="node"><title>Node3</title>
<g id="a_node3"><a xlink:href="../../de/d49/classback_end_1_1_sugar_scape.html#ab0c2eb832afef056e0a72aea2bf8ddc1" target="_top" xlink:title="backEnd.SugarScape.update">
<polygon fill="white" stroke="black" points="418.5,-0.5 418.5,-19.5 573.5,-19.5 573.5,-0.5 418.5,-0.5"/>
<text text-anchor="middle" x="496" y="-7.5" font-family="Helvetica,sans-Serif" font-size="10.00">backEnd.SugarScape.update</text>
</a>
</g>
</g>
<!-- Node2&#45;&gt;Node3 -->
<g id="edge2" class="edge"><title>Node2&#45;&gt;Node3</title>
<path fill="none" stroke="midnightblue" d="M392.381,-10C401.095,-10 409.882,-10 418.453,-10"/>
<polygon fill="midnightblue" stroke="midnightblue" points="392.202,-6.5001 382.202,-10 392.202,-13.5001 392.202,-6.5001"/>
</g>
</g>
</svg>
