<?xml version="1.0" encoding="UTF-8" standalone="no"?>
<!DOCTYPE svg PUBLIC "-//W3C//DTD SVG 1.1//EN"
 "http://www.w3.org/Graphics/SVG/1.1/DTD/svg11.dtd">
<!-- Generated by graphviz version 2.36.0 (20140111.2315)
 -->
<!-- Title: backEnd.Segregation.getNext Pages: 1 -->
<!--zoomable 218 -->
<svg id="main" version="1.1" xmlns="http://www.w3.org/2000/svg" xmlns:xlink="http://www.w3.org/1999/xlink" xml:space="preserve" onload="init(evt)">
<style type="text/css"><![CDATA[
.edge:hover path { stroke: red; }
.edge:hover polygon { stroke: red; fill: red; }
]]></style>
<script type="text/javascript"><![CDATA[
var edges = document.getElementsByTagName('g');
if (edges && edges.length) {
  for (var i=0;i<edges.length;i++) {
    if (edges[i].id.substr(0,4)=='edge') {
      edges[i].setAttribute('class','edge');
    }
  }
}
]]></script>
        <defs>
                <circle id="rim" cx="0" cy="0" r="7"/>
                <circle id="rim2" cx="0" cy="0" r="3.5"/>
                <g id="zoomPlus">
                        <use xlink:href="#rim" fill="#404040">
                                <set attributeName="fill" to="#808080" begin="zoomplus.mouseover" end="zoomplus.mouseout"/>
                        </use>
                        <path d="M-4,0h8M0,-4v8" fill="none" stroke="white" stroke-width="1.5" pointer-events="none"/>
                </g>
                <g id="zoomMin">
                        <use xlink:href="#rim" fill="#404040">
                                <set attributeName="fill" to="#808080" begin="zoomminus.mouseover" end="zoomminus.mouseout"/>
                        </use>
                        <path d="M-4,0h8" fill="none" stroke="white" stroke-width="1.5" pointer-events="none"/>
                </g>
                <g id="dirArrow">
                        <path fill="none" stroke="white" stroke-width="1.5" d="M0,-3.0v7 M-2.5,-0.5L0,-3.0L2.5,-0.5"/>
                </g>
               <g id="resetDef">
                       <use xlink:href="#rim2" fill="#404040">
                               <set attributeName="fill" to="#808080" begin="reset.mouseover" end="reset.mouseout"/>
                       </use>
               </g>
        </defs>

<script type="text/javascript">
var viewWidth = 614;
var viewHeight = 218;
var sectionId = 'dynsection-2';
</script>
<script xlink:href="../../svgpan.js"/>
<svg id="graph" class="graph">
<g id="viewport">
<title>backEnd.Segregation.getNext</title>
<polygon fill="white" stroke="none" points="-4,4 -4,-214 610,-214 610,4 -4,4"/>
<!-- Node1 -->
<g id="node1" class="node"><title>Node1</title>
<polygon fill="#bfbfbf" stroke="black" points="0,-95.5 0,-114.5 160,-114.5 160,-95.5 0,-95.5"/>
<text text-anchor="middle" x="80" y="-102.5" font-family="Helvetica,sans-Serif" font-size="10.00">backEnd.Segregation.getNext</text>
</g>
<!-- Node2 -->
<g id="node2" class="node"><title>Node2</title>
<g id="a_node2"><a xlink:href="../../db/d5e/classback_end_1_1_patch.html#ae544417dcc2d70361cb77d46dd63c60b" target="_top" xlink:title="backEnd.Patch.clear">
<polygon fill="white" stroke="black" points="236.5,-190.5 236.5,-209.5 349.5,-209.5 349.5,-190.5 236.5,-190.5"/>
<text text-anchor="middle" x="293" y="-197.5" font-family="Helvetica,sans-Serif" font-size="10.00">backEnd.Patch.clear</text>
</a>
</g>
</g>
<!-- Node1&#45;&gt;Node2 -->
<g id="edge1" class="edge"><title>Node1&#45;&gt;Node2</title>
<path fill="none" stroke="midnightblue" d="M92.2222,-114.62C111.87,-130.933 154.382,-163.908 196,-181 205.587,-184.937 216.057,-188.077 226.444,-190.576"/>
<polygon fill="midnightblue" stroke="midnightblue" points="225.824,-194.024 236.345,-192.78 227.345,-187.191 225.824,-194.024"/>
</g>
<!-- Node3 -->
<g id="node3" class="node"><title>Node3</title>
<g id="a_node3"><a xlink:href="../../db/d5e/classback_end_1_1_patch.html#a8d97ca84fd6d69378e9fc0b96eff7cb9" target="_top" xlink:title="backEnd.Patch.getCell">
<polygon fill="white" stroke="black" points="232,-152.5 232,-171.5 354,-171.5 354,-152.5 232,-152.5"/>
<text text-anchor="middle" x="293" y="-159.5" font-family="Helvetica,sans-Serif" font-size="10.00">backEnd.Patch.getCell</text>
</a>
</g>
</g>
<!-- Node1&#45;&gt;Node3 -->
<g id="edge2" class="edge"><title>Node1&#45;&gt;Node3</title>
<path fill="none" stroke="midnightblue" d="M106.759,-114.529C129.887,-122.84 164.887,-134.814 196,-143 206.148,-145.67 216.987,-148.157 227.593,-150.395"/>
<polygon fill="midnightblue" stroke="midnightblue" points="227.161,-153.879 237.66,-152.462 228.568,-147.022 227.161,-153.879"/>
</g>
<!-- Node4 -->
<g id="node4" class="node"><title>Node4</title>
<g id="a_node4"><a xlink:href="../../d1/dfc/classback_end_1_1_rule_set.html#ac09e709af5a347c28f6cafb0aa4f0d34" target="_top" xlink:title="backEnd.RuleSet.getNeighbors">
<polygon fill="white" stroke="black" points="211,-114.5 211,-133.5 375,-133.5 375,-114.5 211,-114.5"/>
<text text-anchor="middle" x="293" y="-121.5" font-family="Helvetica,sans-Serif" font-size="10.00">backEnd.RuleSet.getNeighbors</text>
</a>
</g>
</g>
<!-- Node1&#45;&gt;Node4 -->
<g id="edge3" class="edge"><title>Node1&#45;&gt;Node4</title>
<path fill="none" stroke="midnightblue" d="M160.169,-112.129C173.401,-113.32 187.224,-114.565 200.729,-115.781"/>
<polygon fill="midnightblue" stroke="midnightblue" points="200.707,-119.293 210.981,-116.704 201.335,-112.322 200.707,-119.293"/>
</g>
<!-- Node7 -->
<g id="node7" class="node"><title>Node7</title>
<g id="a_node7"><a xlink:href="../../d9/d2e/classback_end_1_1_segregation.html#a3cfddc34f7afe36f208eb6470d6e0f7d" target="_top" xlink:title="backEnd.Segregation.getSatisfaction">
<polygon fill="white" stroke="black" points="196,-76.5 196,-95.5 390,-95.5 390,-76.5 196,-76.5"/>
<text text-anchor="middle" x="293" y="-83.5" font-family="Helvetica,sans-Serif" font-size="10.00">backEnd.Segregation.getSatisfaction</text>
</a>
</g>
</g>
<!-- Node1&#45;&gt;Node7 -->
<g id="edge6" class="edge"><title>Node1&#45;&gt;Node7</title>
<path fill="none" stroke="midnightblue" d="M160.169,-97.871C168.49,-97.1218 177.044,-96.3515 185.606,-95.5805"/>
<polygon fill="midnightblue" stroke="midnightblue" points="186.002,-99.0591 195.648,-94.6763 185.374,-92.0873 186.002,-99.0591"/>
</g>
<!-- Node9 -->
<g id="node9" class="node"><title>Node9</title>
<g id="a_node9"><a xlink:href="../../d0/d08/classback_end_1_1_cell.html#a780d63fdf3ec4f64bd01f9c1c01f54e9" target="_top" xlink:title="backEnd.Cell.getState">
<polygon fill="white" stroke="black" points="455,-38.5 455,-57.5 577,-57.5 577,-38.5 455,-38.5"/>
<text text-anchor="middle" x="516" y="-45.5" font-family="Helvetica,sans-Serif" font-size="10.00">backEnd.Cell.getState</text>
</a>
</g>
</g>
<!-- Node1&#45;&gt;Node9 -->
<g id="edge9" class="edge"><title>Node1&#45;&gt;Node9</title>
<path fill="none" stroke="midnightblue" d="M103.877,-95.4773C126.755,-86.4267 163.164,-73.2916 196,-67 280.436,-50.8213 379.534,-47.2672 444.607,-46.9821"/>
<polygon fill="midnightblue" stroke="midnightblue" points="444.757,-50.4819 454.751,-46.963 444.744,-43.4819 444.757,-50.4819"/>
</g>
<!-- Node10 -->
<g id="node10" class="node"><title>Node10</title>
<g id="a_node10"><a xlink:href="../../d1/dfc/classback_end_1_1_rule_set.html#a59b2ba8a67d5961912fcb64410f17c45" target="_top" xlink:title="backEnd.RuleSet.moveCell">
<polygon fill="white" stroke="black" points="221.5,-0.5 221.5,-19.5 364.5,-19.5 364.5,-0.5 221.5,-0.5"/>
<text text-anchor="middle" x="293" y="-7.5" font-family="Helvetica,sans-Serif" font-size="10.00">backEnd.RuleSet.moveCell</text>
</a>
</g>
</g>
<!-- Node1&#45;&gt;Node10 -->
<g id="edge10" class="edge"><title>Node1&#45;&gt;Node10</title>
<path fill="none" stroke="midnightblue" d="M93.7328,-95.2912C114.214,-80.1144 156.219,-50.7745 196,-34 207.13,-29.3067 219.389,-25.381 231.316,-22.1553"/>
<polygon fill="midnightblue" stroke="midnightblue" points="232.41,-25.4878 241.224,-19.6089 230.668,-18.7081 232.41,-25.4878"/>
</g>
<!-- Node5 -->
<g id="node5" class="node"><title>Node5</title>
<g id="a_node5"><a xlink:href="../../d1/dfc/classback_end_1_1_rule_set.html#a625f1cd5d7e0e5d6acf7d47e28beb41e" target="_top" xlink:title="backEnd.RuleSet.addWrapArounds">
<polygon fill="white" stroke="black" points="426,-152.5 426,-171.5 606,-171.5 606,-152.5 426,-152.5"/>
<text text-anchor="middle" x="516" y="-159.5" font-family="Helvetica,sans-Serif" font-size="10.00">backEnd.RuleSet.addWrapArounds</text>
</a>
</g>
</g>
<!-- Node4&#45;&gt;Node5 -->
<g id="edge4" class="edge"><title>Node4&#45;&gt;Node5</title>
<path fill="none" stroke="midnightblue" d="M349.482,-133.54C379.826,-138.757 417.6,-145.253 449.398,-150.72"/>
<polygon fill="midnightblue" stroke="midnightblue" points="449.046,-154.211 459.495,-152.456 450.233,-147.312 449.046,-154.211"/>
</g>
<!-- Node6 -->
<g id="node6" class="node"><title>Node6</title>
<g id="a_node6"><a xlink:href="../../d1/dfc/classback_end_1_1_rule_set.html#ace087d13be0cf3e1f723a663d0e06d8b" target="_top" xlink:title="backEnd.RuleSet.isOutside">
<polygon fill="white" stroke="black" points="444.5,-114.5 444.5,-133.5 587.5,-133.5 587.5,-114.5 444.5,-114.5"/>
<text text-anchor="middle" x="516" y="-121.5" font-family="Helvetica,sans-Serif" font-size="10.00">backEnd.RuleSet.isOutside</text>
</a>
</g>
</g>
<!-- Node4&#45;&gt;Node6 -->
<g id="edge5" class="edge"><title>Node4&#45;&gt;Node6</title>
<path fill="none" stroke="midnightblue" d="M375.037,-124C394.251,-124 414.747,-124 433.961,-124"/>
<polygon fill="midnightblue" stroke="midnightblue" points="434.181,-127.5 444.181,-124 434.181,-120.5 434.181,-127.5"/>
</g>
<!-- Node8 -->
<g id="node8" class="node"><title>Node8</title>
<g id="a_node8"><a xlink:href="../../d5/de7/jquery_8js.html#a2335e57f79b6acfb6de59c235dc8a83e" target="_top" xlink:title="p">
<polygon fill="white" stroke="black" points="501.5,-76.5 501.5,-95.5 530.5,-95.5 530.5,-76.5 501.5,-76.5"/>
<text text-anchor="middle" x="516" y="-83.5" font-family="Helvetica,sans-Serif" font-size="10.00">p</text>
</a>
</g>
</g>
<!-- Node7&#45;&gt;Node8 -->
<g id="edge7" class="edge"><title>Node7&#45;&gt;Node8</title>
<path fill="none" stroke="midnightblue" d="M390.291,-86C427.613,-86 467.133,-86 491.44,-86"/>
<polygon fill="midnightblue" stroke="midnightblue" points="491.475,-89.5001 501.475,-86 491.474,-82.5001 491.475,-89.5001"/>
</g>
<!-- Node7&#45;&gt;Node9 -->
<g id="edge8" class="edge"><title>Node7&#45;&gt;Node9</title>
<path fill="none" stroke="midnightblue" d="M349.482,-76.46C379.826,-71.2426 417.6,-64.7475 449.398,-59.28"/>
<polygon fill="midnightblue" stroke="midnightblue" points="450.233,-62.6879 459.495,-57.5439 449.046,-55.7892 450.233,-62.6879"/>
</g>
<!-- Node11 -->
<g id="node11" class="node"><title>Node11</title>
<g id="a_node11"><a xlink:href="../../db/d5e/classback_end_1_1_patch.html#ac9c7bf582f9e7aec34492785fea4cf68" target="_top" xlink:title="backEnd.Patch.fill">
<polygon fill="white" stroke="black" points="466.5,-0.5 466.5,-19.5 565.5,-19.5 565.5,-0.5 466.5,-0.5"/>
<text text-anchor="middle" x="516" y="-7.5" font-family="Helvetica,sans-Serif" font-size="10.00">backEnd.Patch.fill</text>
</a>
</g>
</g>
<!-- Node10&#45;&gt;Node11 -->
<g id="edge11" class="edge"><title>Node10&#45;&gt;Node11</title>
<path fill="none" stroke="midnightblue" d="M364.533,-10C394.123,-10 428.13,-10 456.321,-10"/>
<polygon fill="midnightblue" stroke="midnightblue" points="456.425,-13.5001 466.425,-10 456.425,-6.5001 456.425,-13.5001"/>
</g>
</g>
</svg>
        <g id="navigator" transform="translate(0 0)" fill="#404254">
                <rect fill="#f2f5e9" fill-opacity="0.5" stroke="#606060" stroke-width=".5" x="0" y="0" width="60" height="60"/>
                <use id="zoomplus" xlink:href="#zoomPlus" x="17" y="9" onmousedown="handleZoom(evt,'in')"/>
                <use id="zoomminus" xlink:href="#zoomMin" x="42" y="9" onmousedown="handleZoom(evt,'out')"/>
                <use id="reset" xlink:href="#resetDef" x="30" y="36" onmousedown="handleReset()"/>
                <g id="arrowUp" xlink:href="#dirArrow" transform="translate(30 24)" onmousedown="handlePan(0,-1)">
                  <use xlink:href="#rim" fill="#404040">
                        <set attributeName="fill" to="#808080" begin="arrowUp.mouseover" end="arrowUp.mouseout"/>
                  </use>
                  <path fill="none" stroke="white" stroke-width="1.5" d="M0,-3.0v7 M-2.5,-0.5L0,-3.0L2.5,-0.5"/>
                </g>
                <g id="arrowRight" xlink:href="#dirArrow" transform="rotate(90) translate(36 -43)" onmousedown="handlePan(1,0)">
                  <use xlink:href="#rim" fill="#404040">
                        <set attributeName="fill" to="#808080" begin="arrowRight.mouseover" end="arrowRight.mouseout"/>
                  </use>
                  <path fill="none" stroke="white" stroke-width="1.5" d="M0,-3.0v7 M-2.5,-0.5L0,-3.0L2.5,-0.5"/>
                </g>
                <g id="arrowDown" xlink:href="#dirArrow" transform="rotate(180) translate(-30 -48)" onmousedown="handlePan(0,1)">
                  <use xlink:href="#rim" fill="#404040">
                        <set attributeName="fill" to="#808080" begin="arrowDown.mouseover" end="arrowDown.mouseout"/>
                  </use>
                  <path fill="none" stroke="white" stroke-width="1.5" d="M0,-3.0v7 M-2.5,-0.5L0,-3.0L2.5,-0.5"/>
                </g>
                <g id="arrowLeft" xlink:href="#dirArrow" transform="rotate(270) translate(-36 17)" onmousedown="handlePan(-1,0)">
                  <use xlink:href="#rim" fill="#404040">
                        <set attributeName="fill" to="#808080" begin="arrowLeft.mouseover" end="arrowLeft.mouseout"/>
                  </use>
                  <path fill="none" stroke="white" stroke-width="1.5" d="M0,-3.0v7 M-2.5,-0.5L0,-3.0L2.5,-0.5"/>
                </g>
        </g>
        <svg viewBox="0 0 15 15" width="100%" height="30px" preserveAspectRatio="xMaxYMin meet">
         <g id="arrow_out" transform="scale(0.3 0.3)">
          <a xlink:href="classback_end_1_1_segregation_a306bcff5f217b04d83849a3cc77bddfb_cgraph_org.svg" target="_base">
           <rect id="button" ry="5" rx="5" y="6" x="6" height="38" width="38"
                fill="#f2f5e9" fill-opacity="0.5" stroke="#606060" stroke-width="1.0"/>
           <path id="arrow"
             d="M 11.500037,31.436501 C 11.940474,20.09759 22.043105,11.32322 32.158766,21.979434 L 37.068811,17.246167 C 37.068811,17.246167 37.088388,32 37.088388,32 L 22.160133,31.978069 C 22.160133,31.978069 26.997745,27.140456 26.997745,27.140456 C 18.528582,18.264221 13.291696,25.230495 11.500037,31.436501 z"
             style="fill:#404040;"/>
          </a>
         </g>
        </svg>
</svg>
