<?xml version="1.0" encoding="UTF-8" standalone="no"?>
<!DOCTYPE svg PUBLIC "-//W3C//DTD SVG 1.1//EN"
 "http://www.w3.org/Graphics/SVG/1.1/DTD/svg11.dtd">
<!-- Generated by graphviz version 2.36.0 (20140111.2315)
 -->
<!-- Title: backEnd.Segregation.getNext Pages: 1 -->
<svg width="614pt" height="218pt"
 viewBox="0.00 0.00 614.00 218.00" xmlns="http://www.w3.org/2000/svg" xmlns:xlink="http://www.w3.org/1999/xlink">
<g id="graph0" class="graph" transform="scale(1 1) rotate(0) translate(4 214)">
<title>backEnd.Segregation.getNext</title>
<polygon fill="white" stroke="none" points="-4,4 -4,-214 610,-214 610,4 -4,4"/>
<!-- Node1 -->
<g id="node1" class="node"><title>Node1</title>
<polygon fill="#bfbfbf" stroke="black" points="0,-95.5 0,-114.5 160,-114.5 160,-95.5 0,-95.5"/>
<text text-anchor="middle" x="80" y="-102.5" font-family="Helvetica,sans-Serif" font-size="10.00">backEnd.Segregation.getNext</text>
</g>
<!-- Node2 -->
<g id="node2" class="node"><title>Node2</title>
<g id="a_node2"><a xlink:href="../../db/d5e/classback_end_1_1_patch.html#ae544417dcc2d70361cb77d46dd63c60b" target="_top" xlink:title="backEnd.Patch.clear">
<polygon fill="white" stroke="black" points="236.5,-190.5 236.5,-209.5 349.5,-209.5 349.5,-190.5 236.5,-190.5"/>
<text text-anchor="middle" x="293" y="-197.5" font-family="Helvetica,sans-Serif" font-size="10.00">backEnd.Patch.clear</text>
</a>
</g>
</g>
<!-- Node1&#45;&gt;Node2 -->
<g id="edge1" class="edge"><title>Node1&#45;&gt;Node2</title>
<path fill="none" stroke="midnightblue" d="M92.2222,-114.62C111.87,-130.933 154.382,-163.908 196,-181 205.587,-184.937 216.057,-188.077 226.444,-190.576"/>
<polygon fill="midnightblue" stroke="midnightblue" points="225.824,-194.024 236.345,-192.78 227.345,-187.191 225.824,-194.024"/>
</g>
<!-- Node3 -->
<g id="node3" class="node"><title>Node3</title>
<g id="a_node3"><a xlink:href="../../db/d5e/classback_end_1_1_patch.html#a8d97ca84fd6d69378e9fc0b96eff7cb9" target="_top" xlink:title="backEnd.Patch.getCell">
<polygon fill="white" stroke="black" points="232,-152.5 232,-171.5 354,-171.5 354,-152.5 232,-152.5"/>
<text text-anchor="middle" x="293" y="-159.5" font-family="Helvetica,sans-Serif" font-size="10.00">backEnd.Patch.getCell</text>
</a>
</g>
</g>
<!-- Node1&#45;&gt;Node3 -->
<g id="edge2" class="edge"><title>Node1&#45;&gt;Node3</title>
<path fill="none" stroke="midnightblue" d="M106.759,-114.529C129.887,-122.84 164.887,-134.814 196,-143 206.148,-145.67 216.987,-148.157 227.593,-150.395"/>
<polygon fill="midnightblue" stroke="midnightblue" points="227.161,-153.879 237.66,-152.462 228.568,-147.022 227.161,-153.879"/>
</g>
<!-- Node4 -->
<g id="node4" class="node"><title>Node4</title>
<g id="a_node4"><a xlink:href="../../d1/dfc/classback_end_1_1_rule_set.html#ac09e709af5a347c28f6cafb0aa4f0d34" target="_top" xlink:title="backEnd.RuleSet.getNeighbors">
<polygon fill="white" stroke="black" points="211,-114.5 211,-133.5 375,-133.5 375,-114.5 211,-114.5"/>
<text text-anchor="middle" x="293" y="-121.5" font-family="Helvetica,sans-Serif" font-size="10.00">backEnd.RuleSet.getNeighbors</text>
</a>
</g>
</g>
<!-- Node1&#45;&gt;Node4 -->
<g id="edge3" class="edge"><title>Node1&#45;&gt;Node4</title>
<path fill="none" stroke="midnightblue" d="M160.169,-112.129C173.401,-113.32 187.224,-114.565 200.729,-115.781"/>
<polygon fill="midnightblue" stroke="midnightblue" points="200.707,-119.293 210.981,-116.704 201.335,-112.322 200.707,-119.293"/>
</g>
<!-- Node7 -->
<g id="node7" class="node"><title>Node7</title>
<g id="a_node7"><a xlink:href="../../d9/d2e/classback_end_1_1_segregation.html#a3cfddc34f7afe36f208eb6470d6e0f7d" target="_top" xlink:title="backEnd.Segregation.getSatisfaction">
<polygon fill="white" stroke="black" points="196,-76.5 196,-95.5 390,-95.5 390,-76.5 196,-76.5"/>
<text text-anchor="middle" x="293" y="-83.5" font-family="Helvetica,sans-Serif" font-size="10.00">backEnd.Segregation.getSatisfaction</text>
</a>
</g>
</g>
<!-- Node1&#45;&gt;Node7 -->
<g id="edge6" class="edge"><title>Node1&#45;&gt;Node7</title>
<path fill="none" stroke="midnightblue" d="M160.169,-97.871C168.49,-97.1218 177.044,-96.3515 185.606,-95.5805"/>
<polygon fill="midnightblue" stroke="midnightblue" points="186.002,-99.0591 195.648,-94.6763 185.374,-92.0873 186.002,-99.0591"/>
</g>
<!-- Node8 -->
<g id="node8" class="node"><title>Node8</title>
<g id="a_node8"><a xlink:href="../../d0/d08/classback_end_1_1_cell.html#a780d63fdf3ec4f64bd01f9c1c01f54e9" target="_top" xlink:title="backEnd.Cell.getState">
<polygon fill="white" stroke="black" points="455,-47.5 455,-66.5 577,-66.5 577,-47.5 455,-47.5"/>
<text text-anchor="middle" x="516" y="-54.5" font-family="Helvetica,sans-Serif" font-size="10.00">backEnd.Cell.getState</text>
</a>
</g>
</g>
<!-- Node1&#45;&gt;Node8 -->
<g id="edge8" class="edge"><title>Node1&#45;&gt;Node8</title>
<path fill="none" stroke="midnightblue" d="M103.411,-95.4511C126.232,-86.2429 162.872,-72.8655 196,-67 280.547,-52.0306 379.622,-51.5195 444.659,-53.4479"/>
<polygon fill="midnightblue" stroke="midnightblue" points="444.689,-56.9506 454.797,-53.7765 444.916,-49.9543 444.689,-56.9506"/>
</g>
<!-- Node9 -->
<g id="node9" class="node"><title>Node9</title>
<g id="a_node9"><a xlink:href="../../d1/dfc/classback_end_1_1_rule_set.html#a59b2ba8a67d5961912fcb64410f17c45" target="_top" xlink:title="backEnd.RuleSet.moveCell">
<polygon fill="white" stroke="black" points="221.5,-0.5 221.5,-19.5 364.5,-19.5 364.5,-0.5 221.5,-0.5"/>
<text text-anchor="middle" x="293" y="-7.5" font-family="Helvetica,sans-Serif" font-size="10.00">backEnd.RuleSet.moveCell</text>
</a>
</g>
</g>
<!-- Node1&#45;&gt;Node9 -->
<g id="edge9" class="edge"><title>Node1&#45;&gt;Node9</title>
<path fill="none" stroke="midnightblue" d="M93.7328,-95.2912C114.214,-80.1144 156.219,-50.7745 196,-34 207.13,-29.3067 219.389,-25.381 231.316,-22.1553"/>
<polygon fill="midnightblue" stroke="midnightblue" points="232.41,-25.4878 241.224,-19.6089 230.668,-18.7081 232.41,-25.4878"/>
</g>
<!-- Node5 -->
<g id="node5" class="node"><title>Node5</title>
<g id="a_node5"><a xlink:href="../../d1/dfc/classback_end_1_1_rule_set.html#a625f1cd5d7e0e5d6acf7d47e28beb41e" target="_top" xlink:title="backEnd.RuleSet.addWrapArounds">
<polygon fill="white" stroke="black" points="426,-142.5 426,-161.5 606,-161.5 606,-142.5 426,-142.5"/>
<text text-anchor="middle" x="516" y="-149.5" font-family="Helvetica,sans-Serif" font-size="10.00">backEnd.RuleSet.addWrapArounds</text>
</a>
</g>
</g>
<!-- Node4&#45;&gt;Node5 -->
<g id="edge4" class="edge"><title>Node4&#45;&gt;Node5</title>
<path fill="none" stroke="midnightblue" d="M369.129,-133.519C388.612,-135.987 409.734,-138.663 429.698,-141.192"/>
<polygon fill="midnightblue" stroke="midnightblue" points="429.343,-144.675 439.704,-142.46 430.223,-137.731 429.343,-144.675"/>
</g>
<!-- Node6 -->
<g id="node6" class="node"><title>Node6</title>
<g id="a_node6"><a xlink:href="../../d1/dfc/classback_end_1_1_rule_set.html#ace087d13be0cf3e1f723a663d0e06d8b" target="_top" xlink:title="backEnd.RuleSet.isOutside">
<polygon fill="white" stroke="black" points="444.5,-104.5 444.5,-123.5 587.5,-123.5 587.5,-104.5 444.5,-104.5"/>
<text text-anchor="middle" x="516" y="-111.5" font-family="Helvetica,sans-Serif" font-size="10.00">backEnd.RuleSet.isOutside</text>
</a>
</g>
</g>
<!-- Node4&#45;&gt;Node6 -->
<g id="edge5" class="edge"><title>Node4&#45;&gt;Node6</title>
<path fill="none" stroke="midnightblue" d="M375.037,-120.333C394.251,-119.464 414.747,-118.536 433.961,-117.667"/>
<polygon fill="midnightblue" stroke="midnightblue" points="434.35,-121.153 444.181,-117.204 434.033,-114.16 434.35,-121.153"/>
</g>
<!-- Node7&#45;&gt;Node8 -->
<g id="edge7" class="edge"><title>Node7&#45;&gt;Node8</title>
<path fill="none" stroke="midnightblue" d="M366.67,-76.4641C391.77,-73.1705 419.831,-69.4882 444.735,-66.2203"/>
<polygon fill="midnightblue" stroke="midnightblue" points="445.373,-69.6667 454.833,-64.8953 444.462,-62.7262 445.373,-69.6667"/>
</g>
<!-- Node10 -->
<g id="node10" class="node"><title>Node10</title>
<g id="a_node10"><a xlink:href="../../db/d5e/classback_end_1_1_patch.html#ac9c7bf582f9e7aec34492785fea4cf68" target="_top" xlink:title="backEnd.Patch.fill">
<polygon fill="white" stroke="black" points="466.5,-0.5 466.5,-19.5 565.5,-19.5 565.5,-0.5 466.5,-0.5"/>
<text text-anchor="middle" x="516" y="-7.5" font-family="Helvetica,sans-Serif" font-size="10.00">backEnd.Patch.fill</text>
</a>
</g>
</g>
<!-- Node9&#45;&gt;Node10 -->
<g id="edge10" class="edge"><title>Node9&#45;&gt;Node10</title>
<path fill="none" stroke="midnightblue" d="M364.533,-10C394.123,-10 428.13,-10 456.321,-10"/>
<polygon fill="midnightblue" stroke="midnightblue" points="456.425,-13.5001 466.425,-10 456.425,-6.5001 456.425,-13.5001"/>
</g>
</g>
</svg>
