<?xml version="1.0" encoding="UTF-8" standalone="no"?>
<!DOCTYPE svg PUBLIC "-//W3C//DTD SVG 1.1//EN"
 "http://www.w3.org/Graphics/SVG/1.1/DTD/svg11.dtd">
<!-- Generated by graphviz version 2.36.0 (20140111.2315)
 -->
<!-- Title: shapeFactories.ShapeFactory Pages: 1 -->
<svg width="444pt" height="84pt"
 viewBox="0.00 0.00 444.00 84.00" xmlns="http://www.w3.org/2000/svg" xmlns:xlink="http://www.w3.org/1999/xlink">
<g id="graph0" class="graph" transform="scale(1 1) rotate(0) translate(4 80)">
<title>shapeFactories.ShapeFactory</title>
<polygon fill="white" stroke="none" points="-4,4 -4,-80 440,-80 440,4 -4,4"/>
<!-- Node1 -->
<g id="node1" class="node"><title>Node1</title>
<polygon fill="#bfbfbf" stroke="black" points="142.5,-56.5 142.5,-75.5 299.5,-75.5 299.5,-56.5 142.5,-56.5"/>
<text text-anchor="middle" x="221" y="-63.5" font-family="Helvetica,sans-Serif" font-size="10.00">shapeFactories.ShapeFactory</text>
</g>
<!-- Node2 -->
<g id="node2" class="node"><title>Node2</title>
<g id="a_node2"><a xlink:href="../../db/d90/classshape_factories_1_1_hexagon.html" target="_top" xlink:title="shapeFactories.Hexagon">
<polygon fill="white" stroke="black" points="0,-0.5 0,-19.5 134,-19.5 134,-0.5 0,-0.5"/>
<text text-anchor="middle" x="67" y="-7.5" font-family="Helvetica,sans-Serif" font-size="10.00">shapeFactories.Hexagon</text>
</a>
</g>
</g>
<!-- Node1&#45;&gt;Node2 -->
<g id="edge1" class="edge"><title>Node1&#45;&gt;Node2</title>
<path fill="none" stroke="midnightblue" d="M186.889,-53.0392C157.913,-42.8786 117.038,-28.5457 91.2876,-19.5164"/>
<polygon fill="midnightblue" stroke="midnightblue" points="186.003,-56.4373 196.598,-56.4435 188.32,-49.8317 186.003,-56.4373"/>
</g>
<!-- Node3 -->
<g id="node3" class="node"><title>Node3</title>
<g id="a_node3"><a xlink:href="../../d8/da7/classshape_factories_1_1_rectangle.html" target="_top" xlink:title="shapeFactories.Rectangle">
<polygon fill="white" stroke="black" points="152,-0.5 152,-19.5 290,-19.5 290,-0.5 152,-0.5"/>
<text text-anchor="middle" x="221" y="-7.5" font-family="Helvetica,sans-Serif" font-size="10.00">shapeFactories.Rectangle</text>
</a>
</g>
</g>
<!-- Node1&#45;&gt;Node3 -->
<g id="edge2" class="edge"><title>Node1&#45;&gt;Node3</title>
<path fill="none" stroke="midnightblue" d="M221,-45.8045C221,-36.9102 221,-26.7798 221,-19.7511"/>
<polygon fill="midnightblue" stroke="midnightblue" points="217.5,-46.083 221,-56.083 224.5,-46.083 217.5,-46.083"/>
</g>
<!-- Node4 -->
<g id="node4" class="node"><title>Node4</title>
<g id="a_node4"><a xlink:href="../../db/d7c/classshape_factories_1_1_triangle.html" target="_top" xlink:title="shapeFactories.Triangle">
<polygon fill="white" stroke="black" points="308,-0.5 308,-19.5 436,-19.5 436,-0.5 308,-0.5"/>
<text text-anchor="middle" x="372" y="-7.5" font-family="Helvetica,sans-Serif" font-size="10.00">shapeFactories.Triangle</text>
</a>
</g>
</g>
<!-- Node1&#45;&gt;Node4 -->
<g id="edge3" class="edge"><title>Node1&#45;&gt;Node4</title>
<path fill="none" stroke="midnightblue" d="M254.446,-53.0392C282.858,-42.8786 322.937,-28.5457 348.186,-19.5164"/>
<polygon fill="midnightblue" stroke="midnightblue" points="253.164,-49.7806 244.926,-56.4435 255.521,-56.3718 253.164,-49.7806"/>
</g>
</g>
</svg>
