<?xml version="1.0" encoding="UTF-8" standalone="no"?>
<!DOCTYPE svg PUBLIC "-//W3C//DTD SVG 1.1//EN"
 "http://www.w3.org/Graphics/SVG/1.1/DTD/svg11.dtd">
<!-- Generated by graphviz version 2.36.0 (20140111.2315)
 -->
<!-- Title: Graphical Class Hierarchy Pages: 1 -->
<svg width="340pt" height="104pt"
 viewBox="0.00 0.00 340.00 104.00" xmlns="http://www.w3.org/2000/svg" xmlns:xlink="http://www.w3.org/1999/xlink">
<g id="graph0" class="graph" transform="scale(1 1) rotate(0) translate(4 100)">
<title>Graphical Class Hierarchy</title>
<polygon fill="white" stroke="none" points="-4,4 -4,-100 336,-100 336,4 -4,4"/>
<!-- Node1 -->
<g id="node1" class="node"><title>Node1</title>
<g id="a_node1"><a xlink:href="d4/d6c/classshape_factories_1_1_shape_factory.html" target="_top" xlink:title="shapeFactories.ShapeFactory">
<polygon fill="white" stroke="black" points="0.5,-38.5 0.5,-57.5 157.5,-57.5 157.5,-38.5 0.5,-38.5"/>
<text text-anchor="middle" x="79" y="-45.5" font-family="Helvetica,sans-Serif" font-size="10.00">shapeFactories.ShapeFactory</text>
</a>
</g>
</g>
<!-- Node2 -->
<g id="node2" class="node"><title>Node2</title>
<g id="a_node2"><a xlink:href="db/d90/classshape_factories_1_1_hexagon.html" target="_top" xlink:title="shapeFactories.Hexagon">
<polygon fill="white" stroke="black" points="196,-76.5 196,-95.5 330,-95.5 330,-76.5 196,-76.5"/>
<text text-anchor="middle" x="263" y="-83.5" font-family="Helvetica,sans-Serif" font-size="10.00">shapeFactories.Hexagon</text>
</a>
</g>
</g>
<!-- Node1&#45;&gt;Node2 -->
<g id="edge1" class="edge"><title>Node1&#45;&gt;Node2</title>
<path fill="none" stroke="midnightblue" d="M135.946,-59.681C161.756,-65.0699 192.007,-71.3861 216.404,-76.4799"/>
<polygon fill="midnightblue" stroke="midnightblue" points="136.431,-56.2068 125.926,-57.589 135,-63.059 136.431,-56.2068"/>
</g>
<!-- Node3 -->
<g id="node3" class="node"><title>Node3</title>
<g id="a_node3"><a xlink:href="d8/da7/classshape_factories_1_1_rectangle.html" target="_top" xlink:title="shapeFactories.Rectangle">
<polygon fill="white" stroke="black" points="194,-38.5 194,-57.5 332,-57.5 332,-38.5 194,-38.5"/>
<text text-anchor="middle" x="263" y="-45.5" font-family="Helvetica,sans-Serif" font-size="10.00">shapeFactories.Rectangle</text>
</a>
</g>
</g>
<!-- Node1&#45;&gt;Node3 -->
<g id="edge2" class="edge"><title>Node1&#45;&gt;Node3</title>
<path fill="none" stroke="midnightblue" d="M167.876,-48C176.565,-48 185.293,-48 193.74,-48"/>
<polygon fill="midnightblue" stroke="midnightblue" points="167.712,-44.5001 157.712,-48 167.712,-51.5001 167.712,-44.5001"/>
</g>
<!-- Node4 -->
<g id="node4" class="node"><title>Node4</title>
<g id="a_node4"><a xlink:href="db/d7c/classshape_factories_1_1_triangle.html" target="_top" xlink:title="shapeFactories.Triangle">
<polygon fill="white" stroke="black" points="199,-0.5 199,-19.5 327,-19.5 327,-0.5 199,-0.5"/>
<text text-anchor="middle" x="263" y="-7.5" font-family="Helvetica,sans-Serif" font-size="10.00">shapeFactories.Triangle</text>
</a>
</g>
</g>
<!-- Node1&#45;&gt;Node4 -->
<g id="edge3" class="edge"><title>Node1&#45;&gt;Node4</title>
<path fill="none" stroke="midnightblue" d="M135.946,-36.319C161.756,-30.9301 192.007,-24.6139 216.404,-19.5201"/>
<polygon fill="midnightblue" stroke="midnightblue" points="135,-32.941 125.926,-38.411 136.431,-39.7932 135,-32.941"/>
</g>
</g>
</svg>
