<?xml version="1.0" encoding="UTF-8" standalone="no"?>
<!DOCTYPE svg PUBLIC "-//W3C//DTD SVG 1.1//EN"
 "http://www.w3.org/Graphics/SVG/1.1/DTD/svg11.dtd">
<!-- Generated by graphviz version 2.36.0 (20140111.2315)
 -->
<!-- Title: backEnd.PredatorPrey Pages: 1 -->
<svg width="472pt" height="300pt"
 viewBox="0.00 0.00 472.00 300.00" xmlns="http://www.w3.org/2000/svg" xmlns:xlink="http://www.w3.org/1999/xlink">
<g id="graph0" class="graph" transform="scale(1 1) rotate(0) translate(4 296)">
<title>backEnd.PredatorPrey</title>
<polygon fill="white" stroke="none" points="-4,4 -4,-296 468,-296 468,4 -4,4"/>
<!-- Node1 -->
<g id="node1" class="node"><title>Node1</title>
<polygon fill="#bfbfbf" stroke="black" points="75,-0.5 75,-19.5 197,-19.5 197,-0.5 75,-0.5"/>
<text text-anchor="middle" x="136" y="-7.5" font-family="Helvetica,sans-Serif" font-size="10.00">backEnd.PredatorPrey</text>
</g>
<!-- Node2 -->
<g id="node2" class="node"><title>Node2</title>
<g id="a_node2"><a xlink:href="../../d1/dfc/classback_end_1_1_rule_set.html" target="_top" xlink:title="backEnd.RuleSet">
<polygon fill="white" stroke="black" points="88,-68.5 88,-87.5 184,-87.5 184,-68.5 88,-68.5"/>
<text text-anchor="middle" x="136" y="-75.5" font-family="Helvetica,sans-Serif" font-size="10.00">backEnd.RuleSet</text>
</a>
</g>
</g>
<!-- Node2&#45;&gt;Node1 -->
<g id="edge1" class="edge"><title>Node2&#45;&gt;Node1</title>
<path fill="none" stroke="midnightblue" d="M136,-58.0413C136,-45.4724 136,-29.5631 136,-19.8411"/>
<polygon fill="midnightblue" stroke="midnightblue" points="132.5,-58.3716 136,-68.3717 139.5,-58.3717 132.5,-58.3716"/>
</g>
<!-- Node3 -->
<g id="node3" class="node"><title>Node3</title>
<g id="a_node3"><a xlink:href="../../db/d5e/classback_end_1_1_patch.html" target="_top" xlink:title="backEnd.Patch">
<polygon fill="white" stroke="black" points="321,-136.5 321,-155.5 407,-155.5 407,-136.5 321,-136.5"/>
<text text-anchor="middle" x="364" y="-143.5" font-family="Helvetica,sans-Serif" font-size="10.00">backEnd.Patch</text>
</a>
</g>
</g>
<!-- Node3&#45;&gt;Node2 -->
<g id="edge2" class="edge"><title>Node3&#45;&gt;Node2</title>
<path fill="none" stroke="#9a32cd" stroke-dasharray="5,2" d="M346.943,-129.749C336.661,-121.401 322.898,-111.638 309,-106 260.654,-86.3881 244.545,-96.0685 193,-88 190.13,-87.5507 187.178,-87.0877 184.201,-86.6198"/>
<polygon fill="#9a32cd" stroke="#9a32cd" points="344.794,-132.515 354.688,-136.306 349.318,-127.173 344.794,-132.515"/>
<text text-anchor="middle" x="359" y="-109.5" font-family="Helvetica,sans-Serif" font-size="10.00"> myPatches</text>
</g>
<!-- Node4 -->
<g id="node4" class="node"><title>Node4</title>
<polygon fill="white" stroke="#bfbfbf" points="400.5,-204.5 400.5,-223.5 463.5,-223.5 463.5,-204.5 400.5,-204.5"/>
<text text-anchor="middle" x="432" y="-211.5" font-family="Helvetica,sans-Serif" font-size="10.00">Rectangle</text>
</g>
<!-- Node4&#45;&gt;Node3 -->
<g id="edge3" class="edge"><title>Node4&#45;&gt;Node3</title>
<path fill="none" stroke="midnightblue" d="M417.744,-196.658C411.299,-189.508 403.467,-181.141 396,-174 389.276,-167.569 381.276,-160.819 374.957,-155.677"/>
<polygon fill="midnightblue" stroke="midnightblue" points="415.311,-199.19 424.567,-204.344 420.546,-194.542 415.311,-199.19"/>
</g>
<!-- Node5 -->
<g id="node5" class="node"><title>Node5</title>
<g id="a_node5"><a xlink:href="../../d0/d08/classback_end_1_1_cell.html" target="_top" xlink:title="backEnd.Cell">
<polygon fill="white" stroke="black" points="305.5,-204.5 305.5,-223.5 382.5,-223.5 382.5,-204.5 305.5,-204.5"/>
<text text-anchor="middle" x="344" y="-211.5" font-family="Helvetica,sans-Serif" font-size="10.00">backEnd.Cell</text>
</a>
</g>
</g>
<!-- Node5&#45;&gt;Node3 -->
<g id="edge4" class="edge"><title>Node5&#45;&gt;Node3</title>
<path fill="none" stroke="#9a32cd" stroke-dasharray="5,2" d="M349.629,-194.425C353.455,-181.798 358.345,-165.662 361.321,-155.841"/>
<polygon fill="#9a32cd" stroke="#9a32cd" points="346.165,-193.786 346.615,-204.372 352.864,-195.816 346.165,-193.786"/>
<text text-anchor="middle" x="374" y="-177.5" font-family="Helvetica,sans-Serif" font-size="10.00"> myCell</text>
</g>
<!-- Node6 -->
<g id="node6" class="node"><title>Node6</title>
<polygon fill="white" stroke="#bfbfbf" points="281.5,-272.5 281.5,-291.5 406.5,-291.5 406.5,-272.5 281.5,-272.5"/>
<text text-anchor="middle" x="344" y="-279.5" font-family="Helvetica,sans-Serif" font-size="10.00">List&lt; backEnd.State &gt;</text>
</g>
<!-- Node6&#45;&gt;Node5 -->
<g id="edge5" class="edge"><title>Node6&#45;&gt;Node5</title>
<path fill="none" stroke="#9a32cd" stroke-dasharray="5,2" d="M344,-262.041C344,-249.472 344,-233.563 344,-223.841"/>
<polygon fill="#9a32cd" stroke="#9a32cd" points="340.5,-262.372 344,-272.372 347.5,-262.372 340.5,-262.372"/>
<text text-anchor="middle" x="370" y="-245.5" font-family="Helvetica,sans-Serif" font-size="10.00"> myHistory</text>
</g>
<!-- Node7 -->
<g id="node7" class="node"><title>Node7</title>
<polygon fill="white" stroke="#bfbfbf" points="73.5,-136.5 73.5,-155.5 198.5,-155.5 198.5,-136.5 73.5,-136.5"/>
<text text-anchor="middle" x="136" y="-143.5" font-family="Helvetica,sans-Serif" font-size="10.00">Map&lt; String, Object &gt;</text>
</g>
<!-- Node7&#45;&gt;Node2 -->
<g id="edge6" class="edge"><title>Node7&#45;&gt;Node2</title>
<path fill="none" stroke="#9a32cd" stroke-dasharray="5,2" d="M136,-126.041C136,-113.472 136,-97.5631 136,-87.8411"/>
<polygon fill="#9a32cd" stroke="#9a32cd" points="132.5,-126.372 136,-136.372 139.5,-126.372 132.5,-126.372"/>
<text text-anchor="middle" x="163.5" y="-109.5" font-family="Helvetica,sans-Serif" font-size="10.00"> myParams</text>
</g>
<!-- Node8 -->
<g id="node8" class="node"><title>Node8</title>
<polygon fill="white" stroke="#bfbfbf" points="0,-136.5 0,-155.5 56,-155.5 56,-136.5 0,-136.5"/>
<text text-anchor="middle" x="28" y="-143.5" font-family="Helvetica,sans-Serif" font-size="10.00">Random</text>
</g>
<!-- Node8&#45;&gt;Node1 -->
<g id="edge11" class="edge"><title>Node8&#45;&gt;Node1</title>
<path fill="none" stroke="#9a32cd" stroke-dasharray="5,2" d="M30.9575,-125.935C34.2985,-109.312 41.0514,-85.229 54,-68 70.7704,-45.6858 98.8797,-28.8939 117.433,-19.504"/>
<polygon fill="#9a32cd" stroke="#9a32cd" points="27.4592,-125.618 29.1555,-136.076 34.3512,-126.843 27.4592,-125.618"/>
<text text-anchor="middle" x="66.5" y="-75.5" font-family="Helvetica,sans-Serif" font-size="10.00"> rand</text>
</g>
<!-- Node8&#45;&gt;Node2 -->
<g id="edge7" class="edge"><title>Node8&#45;&gt;Node2</title>
<path fill="none" stroke="#9a32cd" stroke-dasharray="5,2" d="M46.9273,-130.176C57.0598,-122.539 69.9121,-113.321 82,-106 93.2964,-99.1583 106.554,-92.5107 117.106,-87.5235"/>
<polygon fill="#9a32cd" stroke="#9a32cd" points="44.622,-127.533 38.8107,-136.391 48.8781,-133.09 44.622,-127.533"/>
<text text-anchor="middle" x="107" y="-109.5" font-family="Helvetica,sans-Serif" font-size="10.00"> gridCoord</text>
</g>
<!-- Node9 -->
<g id="node9" class="node"><title>Node9</title>
<g id="a_node9"><a xlink:href="../../d3/dea/classback_end_1_1_state.html" target="_top" xlink:title="backEnd.State">
<polygon fill="white" stroke="black" points="217,-136.5 217,-155.5 303,-155.5 303,-136.5 217,-136.5"/>
<text text-anchor="middle" x="260" y="-143.5" font-family="Helvetica,sans-Serif" font-size="10.00">backEnd.State</text>
</a>
</g>
</g>
<!-- Node9&#45;&gt;Node2 -->
<g id="edge8" class="edge"><title>Node9&#45;&gt;Node2</title>
<path fill="none" stroke="#9a32cd" stroke-dasharray="5,2" d="M238.06,-131.004C225.623,-123.282 209.66,-113.722 195,-106 182.342,-99.3329 167.723,-92.6359 156.204,-87.5794"/>
<polygon fill="#9a32cd" stroke="#9a32cd" points="236.474,-134.14 246.805,-136.49 240.194,-128.211 236.474,-134.14"/>
<text text-anchor="middle" x="260.5" y="-109.5" font-family="Helvetica,sans-Serif" font-size="10.00"> myPossibleStates</text>
</g>
<!-- Node10 -->
<g id="node10" class="node"><title>Node10</title>
<polygon fill="white" stroke="#bfbfbf" points="239.5,-204.5 239.5,-223.5 280.5,-223.5 280.5,-204.5 239.5,-204.5"/>
<text text-anchor="middle" x="260" y="-211.5" font-family="Helvetica,sans-Serif" font-size="10.00">Color</text>
</g>
<!-- Node10&#45;&gt;Node9 -->
<g id="edge9" class="edge"><title>Node10&#45;&gt;Node9</title>
<path fill="none" stroke="#9a32cd" stroke-dasharray="5,2" d="M260,-194.041C260,-181.472 260,-165.563 260,-155.841"/>
<polygon fill="#9a32cd" stroke="#9a32cd" points="256.5,-194.372 260,-204.372 263.5,-194.372 256.5,-194.372"/>
<text text-anchor="middle" x="281.5" y="-177.5" font-family="Helvetica,sans-Serif" font-size="10.00"> myColor</text>
</g>
<!-- Node11 -->
<g id="node11" class="node"><title>Node11</title>
<polygon fill="white" stroke="#bfbfbf" points="202.5,-68.5 202.5,-87.5 327.5,-87.5 327.5,-68.5 202.5,-68.5"/>
<text text-anchor="middle" x="265" y="-75.5" font-family="Helvetica,sans-Serif" font-size="10.00">List&lt; backEnd.Patch &gt;</text>
</g>
<!-- Node11&#45;&gt;Node1 -->
<g id="edge10" class="edge"><title>Node11&#45;&gt;Node1</title>
<path fill="none" stroke="#9a32cd" stroke-dasharray="5,2" d="M238.983,-63.6889C213.303,-50.5502 174.793,-30.8475 152.869,-19.6305"/>
<polygon fill="#9a32cd" stroke="#9a32cd" points="237.639,-66.9327 248.136,-68.3717 240.827,-60.701 237.639,-66.9327"/>
<text text-anchor="middle" x="251.5" y="-41.5" font-family="Helvetica,sans-Serif" font-size="10.00"> patchesToMove</text>
</g>
</g>
</svg>
