<?xml version="1.0" encoding="UTF-8" standalone="no"?>
<!DOCTYPE svg PUBLIC "-//W3C//DTD SVG 1.1//EN"
 "http://www.w3.org/Graphics/SVG/1.1/DTD/svg11.dtd">
<!-- Generated by graphviz version 2.36.0 (20140111.2315)
 -->
<!-- Title: backEnd.Cell.setState Pages: 1 -->
<!--zoomable 87 -->
<svg id="main" version="1.1" xmlns="http://www.w3.org/2000/svg" xmlns:xlink="http://www.w3.org/1999/xlink" xml:space="preserve" onload="init(evt)">
<style type="text/css"><![CDATA[
.edge:hover path { stroke: red; }
.edge:hover polygon { stroke: red; fill: red; }
]]></style>
<script type="text/javascript"><![CDATA[
var edges = document.getElementsByTagName('g');
if (edges && edges.length) {
  for (var i=0;i<edges.length;i++) {
    if (edges[i].id.substr(0,4)=='edge') {
      edges[i].setAttribute('class','edge');
    }
  }
}
]]></script>
        <defs>
                <circle id="rim" cx="0" cy="0" r="7"/>
                <circle id="rim2" cx="0" cy="0" r="3.5"/>
                <g id="zoomPlus">
                        <use xlink:href="#rim" fill="#404040">
                                <set attributeName="fill" to="#808080" begin="zoomplus.mouseover" end="zoomplus.mouseout"/>
                        </use>
                        <path d="M-4,0h8M0,-4v8" fill="none" stroke="white" stroke-width="1.5" pointer-events="none"/>
                </g>
                <g id="zoomMin">
                        <use xlink:href="#rim" fill="#404040">
                                <set attributeName="fill" to="#808080" begin="zoomminus.mouseover" end="zoomminus.mouseout"/>
                        </use>
                        <path d="M-4,0h8" fill="none" stroke="white" stroke-width="1.5" pointer-events="none"/>
                </g>
                <g id="dirArrow">
                        <path fill="none" stroke="white" stroke-width="1.5" d="M0,-3.0v7 M-2.5,-0.5L0,-3.0L2.5,-0.5"/>
                </g>
               <g id="resetDef">
                       <use xlink:href="#rim2" fill="#404040">
                               <set attributeName="fill" to="#808080" begin="reset.mouseover" end="reset.mouseout"/>
                       </use>
               </g>
        </defs>

<script type="text/javascript">
var viewWidth = 1096;
var viewHeight = 87;
var sectionId = 'dynsection-4';
</script>
<script xlink:href="../../svgpan.js"/>
<svg id="graph" class="graph">
<g id="viewport">
<title>backEnd.Cell.setState</title>
<polygon fill="white" stroke="none" points="-4,4 -4,-83 1092,-83 1092,4 -4,4"/>
<!-- Node1 -->
<g id="node1" class="node"><title>Node1</title>
<polygon fill="#bfbfbf" stroke="black" points="0,-30.5 0,-49.5 122,-49.5 122,-30.5 0,-30.5"/>
<text text-anchor="middle" x="61" y="-37.5" font-family="Helvetica,sans-Serif" font-size="10.00">backEnd.Cell.setState</text>
</g>
<!-- Node2 -->
<g id="node2" class="node"><title>Node2</title>
<g id="a_node2"><a xlink:href="../../d0/d96/classback_end_1_1_predator_prey.html#ae2c9b91296f82e101e9dd0ea350d3f62" target="_top" xlink:title="backEnd.PredatorPrey.eatFish">
<polygon fill="white" stroke="black" points="160,-51.5 160,-70.5 318,-70.5 318,-51.5 160,-51.5"/>
<text text-anchor="middle" x="239" y="-58.5" font-family="Helvetica,sans-Serif" font-size="10.00">backEnd.PredatorPrey.eatFish</text>
</a>
</g>
</g>
<!-- Node1&#45;&gt;Node2 -->
<g id="edge1" class="edge"><title>Node1&#45;&gt;Node2</title>
<path fill="none" stroke="midnightblue" d="M132.199,-48.376C141.283,-49.4598 150.63,-50.5752 159.833,-51.6733"/>
<polygon fill="midnightblue" stroke="midnightblue" points="132.421,-44.8778 122.077,-47.1683 131.592,-51.8285 132.421,-44.8778"/>
</g>
<!-- Node7 -->
<g id="node7" class="node"><title>Node7</title>
<g id="a_node7"><a xlink:href="../../db/d5e/classback_end_1_1_patch.html#a59b689bcfb17aa8603d5e3278521174b" target="_top" xlink:title="backEnd.Patch.setMyCellState">
<polygon fill="white" stroke="black" points="158.5,-10.5 158.5,-29.5 319.5,-29.5 319.5,-10.5 158.5,-10.5"/>
<text text-anchor="middle" x="239" y="-17.5" font-family="Helvetica,sans-Serif" font-size="10.00">backEnd.Patch.setMyCellState</text>
</a>
</g>
</g>
<!-- Node1&#45;&gt;Node7 -->
<g id="edge6" class="edge"><title>Node1&#45;&gt;Node7</title>
<path fill="none" stroke="midnightblue" d="M132.059,-32.0387C140.675,-31.0597 149.53,-30.0535 158.274,-29.0597"/>
<polygon fill="midnightblue" stroke="midnightblue" points="131.618,-28.5663 122.077,-33.1731 132.408,-35.5215 131.618,-28.5663"/>
</g>
<!-- Node3 -->
<g id="node3" class="node"><title>Node3</title>
<g id="a_node3"><a xlink:href="../../d0/d96/classback_end_1_1_predator_prey.html#afbf1847ebcb9a605eec41be73dec7c8c" target="_top" xlink:title="backEnd.PredatorPrey.check\lForFishAndMove">
<polygon fill="white" stroke="black" points="356,-49 356,-79 508,-79 508,-49 356,-49"/>
<text text-anchor="start" x="364" y="-67" font-family="Helvetica,sans-Serif" font-size="10.00">backEnd.PredatorPrey.check</text>
<text text-anchor="middle" x="432" y="-56" font-family="Helvetica,sans-Serif" font-size="10.00">ForFishAndMove</text>
</a>
</g>
</g>
<!-- Node2&#45;&gt;Node3 -->
<g id="edge2" class="edge"><title>Node2&#45;&gt;Node3</title>
<path fill="none" stroke="midnightblue" d="M328.241,-62.386C337.508,-62.5315 346.866,-62.6785 355.965,-62.8214"/>
<polygon fill="midnightblue" stroke="midnightblue" points="328.292,-58.8864 318.238,-62.2289 328.182,-65.8856 328.292,-58.8864"/>
</g>
<!-- Node4 -->
<g id="node4" class="node"><title>Node4</title>
<g id="a_node4"><a xlink:href="../../d0/d96/classback_end_1_1_predator_prey.html#aecfa40f92acce8997492d12cefd08b48" target="_top" xlink:title="backEnd.PredatorPrey.getNext">
<polygon fill="white" stroke="black" points="544,-29.5 544,-48.5 706,-48.5 706,-29.5 544,-29.5"/>
<text text-anchor="middle" x="625" y="-36.5" font-family="Helvetica,sans-Serif" font-size="10.00">backEnd.PredatorPrey.getNext</text>
</a>
</g>
</g>
<!-- Node3&#45;&gt;Node4 -->
<g id="edge3" class="edge"><title>Node3&#45;&gt;Node4</title>
<path fill="none" stroke="midnightblue" d="M518.283,-52.8373C529.322,-51.3925 540.545,-49.9235 551.353,-48.5088"/>
<polygon fill="midnightblue" stroke="midnightblue" points="517.675,-49.3869 508.214,-54.1552 518.584,-56.3277 517.675,-49.3869"/>
</g>
<!-- Node5 -->
<g id="node5" class="node"><title>Node5</title>
<g id="a_node5"><a xlink:href="../../d0/d96/classback_end_1_1_predator_prey.html#aa032c15c617e2da8e1ab1a065413fb06" target="_top" xlink:title="backEnd.PredatorPrey.make\lNextGrid">
<polygon fill="white" stroke="black" points="742.5,-24 742.5,-54 893.5,-54 893.5,-24 742.5,-24"/>
<text text-anchor="start" x="750.5" y="-42" font-family="Helvetica,sans-Serif" font-size="10.00">backEnd.PredatorPrey.make</text>
<text text-anchor="middle" x="818" y="-31" font-family="Helvetica,sans-Serif" font-size="10.00">NextGrid</text>
</a>
</g>
</g>
<!-- Node4&#45;&gt;Node5 -->
<g id="edge4" class="edge"><title>Node4&#45;&gt;Node5</title>
<path fill="none" stroke="midnightblue" d="M716.31,-39C724.984,-39 733.715,-39 742.216,-39"/>
<polygon fill="midnightblue" stroke="midnightblue" points="716.171,-35.5001 706.171,-39 716.171,-42.5001 716.171,-35.5001"/>
</g>
<!-- Node6 -->
<g id="node6" class="node"><title>Node6</title>
<g id="a_node6"><a xlink:href="../../d0/d96/classback_end_1_1_predator_prey.html#acf219a8748ddb0ed02c2202a3b3d6b37" target="_top" xlink:title="backEnd.PredatorPrey.update">
<polygon fill="white" stroke="black" points="930,-29.5 930,-48.5 1088,-48.5 1088,-29.5 930,-29.5"/>
<text text-anchor="middle" x="1009" y="-36.5" font-family="Helvetica,sans-Serif" font-size="10.00">backEnd.PredatorPrey.update</text>
</a>
</g>
</g>
<!-- Node5&#45;&gt;Node6 -->
<g id="edge5" class="edge"><title>Node5&#45;&gt;Node6</title>
<path fill="none" stroke="midnightblue" d="M903.795,-39C912.455,-39 921.225,-39 929.809,-39"/>
<polygon fill="midnightblue" stroke="midnightblue" points="903.698,-35.5001 893.698,-39 903.698,-42.5001 903.698,-35.5001"/>
</g>
<!-- Node8 -->
<g id="node8" class="node"><title>Node8</title>
<g id="a_node8"><a xlink:href="../../d0/d96/classback_end_1_1_predator_prey.html#ab8aeaa141af352c221182d3b427cc492" target="_top" xlink:title="backEnd.PredatorPrey.check\lStarve">
<polygon fill="white" stroke="black" points="356,-0 356,-30 508,-30 508,-0 356,-0"/>
<text text-anchor="start" x="364" y="-18" font-family="Helvetica,sans-Serif" font-size="10.00">backEnd.PredatorPrey.check</text>
<text text-anchor="middle" x="432" y="-7" font-family="Helvetica,sans-Serif" font-size="10.00">Starve</text>
</a>
</g>
</g>
<!-- Node7&#45;&gt;Node8 -->
<g id="edge7" class="edge"><title>Node7&#45;&gt;Node8</title>
<path fill="none" stroke="midnightblue" d="M329.787,-17.6496C338.489,-17.4218 347.254,-17.1923 355.793,-16.9688"/>
<polygon fill="midnightblue" stroke="midnightblue" points="329.523,-14.1552 319.618,-17.9158 329.706,-21.1528 329.523,-14.1552"/>
</g>
<!-- Node8&#45;&gt;Node4 -->
<g id="edge8" class="edge"><title>Node8&#45;&gt;Node4</title>
<path fill="none" stroke="midnightblue" d="M518.164,-25.7012C528.181,-26.9599 538.351,-28.2379 548.228,-29.4789"/>
<polygon fill="midnightblue" stroke="midnightblue" points="518.572,-22.2251 508.214,-24.451 517.7,-29.1705 518.572,-22.2251"/>
</g>
</g>
</svg>
        <g id="navigator" transform="translate(0 0)" fill="#404254">
                <rect fill="#f2f5e9" fill-opacity="0.5" stroke="#606060" stroke-width=".5" x="0" y="0" width="60" height="60"/>
                <use id="zoomplus" xlink:href="#zoomPlus" x="17" y="9" onmousedown="handleZoom(evt,'in')"/>
                <use id="zoomminus" xlink:href="#zoomMin" x="42" y="9" onmousedown="handleZoom(evt,'out')"/>
                <use id="reset" xlink:href="#resetDef" x="30" y="36" onmousedown="handleReset()"/>
                <g id="arrowUp" xlink:href="#dirArrow" transform="translate(30 24)" onmousedown="handlePan(0,-1)">
                  <use xlink:href="#rim" fill="#404040">
                        <set attributeName="fill" to="#808080" begin="arrowUp.mouseover" end="arrowUp.mouseout"/>
                  </use>
                  <path fill="none" stroke="white" stroke-width="1.5" d="M0,-3.0v7 M-2.5,-0.5L0,-3.0L2.5,-0.5"/>
                </g>
                <g id="arrowRight" xlink:href="#dirArrow" transform="rotate(90) translate(36 -43)" onmousedown="handlePan(1,0)">
                  <use xlink:href="#rim" fill="#404040">
                        <set attributeName="fill" to="#808080" begin="arrowRight.mouseover" end="arrowRight.mouseout"/>
                  </use>
                  <path fill="none" stroke="white" stroke-width="1.5" d="M0,-3.0v7 M-2.5,-0.5L0,-3.0L2.5,-0.5"/>
                </g>
                <g id="arrowDown" xlink:href="#dirArrow" transform="rotate(180) translate(-30 -48)" onmousedown="handlePan(0,1)">
                  <use xlink:href="#rim" fill="#404040">
                        <set attributeName="fill" to="#808080" begin="arrowDown.mouseover" end="arrowDown.mouseout"/>
                  </use>
                  <path fill="none" stroke="white" stroke-width="1.5" d="M0,-3.0v7 M-2.5,-0.5L0,-3.0L2.5,-0.5"/>
                </g>
                <g id="arrowLeft" xlink:href="#dirArrow" transform="rotate(270) translate(-36 17)" onmousedown="handlePan(-1,0)">
                  <use xlink:href="#rim" fill="#404040">
                        <set attributeName="fill" to="#808080" begin="arrowLeft.mouseover" end="arrowLeft.mouseout"/>
                  </use>
                  <path fill="none" stroke="white" stroke-width="1.5" d="M0,-3.0v7 M-2.5,-0.5L0,-3.0L2.5,-0.5"/>
                </g>
        </g>
        <svg viewBox="0 0 15 15" width="100%" height="30px" preserveAspectRatio="xMaxYMin meet">
         <g id="arrow_out" transform="scale(0.3 0.3)">
          <a xlink:href="classback_end_1_1_cell_a1f5840c8483f25559567cbf9c6f1eef4_icgraph_org.svg" target="_base">
           <rect id="button" ry="5" rx="5" y="6" x="6" height="38" width="38"
                fill="#f2f5e9" fill-opacity="0.5" stroke="#606060" stroke-width="1.0"/>
           <path id="arrow"
             d="M 11.500037,31.436501 C 11.940474,20.09759 22.043105,11.32322 32.158766,21.979434 L 37.068811,17.246167 C 37.068811,17.246167 37.088388,32 37.088388,32 L 22.160133,31.978069 C 22.160133,31.978069 26.997745,27.140456 26.997745,27.140456 C 18.528582,18.264221 13.291696,25.230495 11.500037,31.436501 z"
             style="fill:#404040;"/>
          </a>
         </g>
        </svg>
</svg>
