<?xml version="1.0" encoding="UTF-8" standalone="no"?>
<!DOCTYPE svg PUBLIC "-//W3C//DTD SVG 1.1//EN"
 "http://www.w3.org/Graphics/SVG/1.1/DTD/svg11.dtd">
<!-- Generated by graphviz version 2.36.0 (20140111.2315)
 -->
<!-- Title: backEnd.Cell.getState Pages: 1 -->
<svg width="1380pt" height="725pt"
 viewBox="0.00 0.00 1380.00 725.19" xmlns="http://www.w3.org/2000/svg" xmlns:xlink="http://www.w3.org/1999/xlink">
<g id="graph0" class="graph" transform="scale(1 1) rotate(0) translate(4 721.191)">
<title>backEnd.Cell.getState</title>
<polygon fill="white" stroke="none" points="-4,4 -4,-721.191 1376,-721.191 1376,4 -4,4"/>
<!-- Node1 -->
<g id="node1" class="node"><title>Node1</title>
<polygon fill="#bfbfbf" stroke="black" points="0,-347.5 0,-366.5 122,-366.5 122,-347.5 0,-347.5"/>
<text text-anchor="middle" x="61" y="-354.5" font-family="Helvetica,sans-Serif" font-size="10.00">backEnd.Cell.getState</text>
</g>
<!-- Node2 -->
<g id="node2" class="node"><title>Node2</title>
<g id="a_node2"><a xlink:href="../../d0/d96/classback_end_1_1_predator_prey.html#a5a08efbe832d34c3c5f9bd15cf376f73" target="_top" xlink:title="backEnd.PredatorPrey.breed">
<polygon fill="white" stroke="black" points="179,-642.5 179,-661.5 331,-661.5 331,-642.5 179,-642.5"/>
<text text-anchor="middle" x="255" y="-649.5" font-family="Helvetica,sans-Serif" font-size="10.00">backEnd.PredatorPrey.breed</text>
</a>
</g>
</g>
<!-- Node1&#45;&gt;Node2 -->
<g id="edge1" class="edge"><title>Node1&#45;&gt;Node2</title>
<path fill="none" stroke="midnightblue" d="M62.8947,-376.766C66.2645,-426.764 82.2661,-559.172 158,-628 164.865,-634.239 173.106,-638.914 181.836,-642.407"/>
<polygon fill="midnightblue" stroke="midnightblue" points="66.3816,-376.435 62.315,-366.651 59.3931,-376.835 66.3816,-376.435"/>
</g>
<!-- Node3 -->
<g id="node3" class="node"><title>Node3</title>
<g id="a_node3"><a xlink:href="../../d0/d96/classback_end_1_1_predator_prey.html#acb81c56992e5c1bc58a34daa5b04e9aa" target="_top" xlink:title="backEnd.PredatorPrey.check\lBreed">
<polygon fill="white" stroke="black" points="414,-675 414,-705 566,-705 566,-675 414,-675"/>
<text text-anchor="start" x="422" y="-693" font-family="Helvetica,sans-Serif" font-size="10.00">backEnd.PredatorPrey.check</text>
<text text-anchor="middle" x="490" y="-682" font-family="Helvetica,sans-Serif" font-size="10.00">Breed</text>
</a>
</g>
</g>
<!-- Node1&#45;&gt;Node3 -->
<g id="edge6" class="edge"><title>Node1&#45;&gt;Node3</title>
<path fill="none" stroke="midnightblue" d="M65.0734,-376.805C75.2735,-439.764 110.096,-633.381 158,-671 235.75,-732.057 358.16,-719.74 430.31,-705.02"/>
<polygon fill="midnightblue" stroke="midnightblue" points="68.4837,-375.964 63.4577,-366.637 61.5704,-377.062 68.4837,-375.964"/>
</g>
<!-- Node6 -->
<g id="node6" class="node"><title>Node6</title>
<g id="a_node6"><a xlink:href="../../db/d5e/classback_end_1_1_patch.html#a35a66d67eff8b0d183f4b0dd9d8aaf98" target="_top" xlink:title="backEnd.Patch.changeColor">
<polygon fill="white" stroke="black" points="180.5,-442.5 180.5,-461.5 329.5,-461.5 329.5,-442.5 180.5,-442.5"/>
<text text-anchor="middle" x="255" y="-449.5" font-family="Helvetica,sans-Serif" font-size="10.00">backEnd.Patch.changeColor</text>
</a>
</g>
</g>
<!-- Node1&#45;&gt;Node6 -->
<g id="edge5" class="edge"><title>Node1&#45;&gt;Node6</title>
<path fill="none" stroke="midnightblue" d="M78.3378,-374.042C96.2123,-391.626 126.535,-418.474 158,-433 166.484,-436.917 175.754,-440.028 185.08,-442.498"/>
<polygon fill="midnightblue" stroke="midnightblue" points="80.5708,-371.324 71.0418,-366.693 75.6029,-376.255 80.5708,-371.324"/>
</g>
<!-- Node7 -->
<g id="node7" class="node"><title>Node7</title>
<g id="a_node7"><a xlink:href="../../d0/d96/classback_end_1_1_predator_prey.html#ab8aeaa141af352c221182d3b427cc492" target="_top" xlink:title="backEnd.PredatorPrey.check\lStarve">
<polygon fill="white" stroke="black" points="414,-626 414,-656 566,-656 566,-626 414,-626"/>
<text text-anchor="start" x="422" y="-644" font-family="Helvetica,sans-Serif" font-size="10.00">backEnd.PredatorPrey.check</text>
<text text-anchor="middle" x="490" y="-633" font-family="Helvetica,sans-Serif" font-size="10.00">Starve</text>
</a>
</g>
</g>
<!-- Node1&#45;&gt;Node7 -->
<g id="edge7" class="edge"><title>Node1&#45;&gt;Node7</title>
<path fill="none" stroke="midnightblue" d="M63.5197,-376.69C68.2386,-423.089 86.9409,-539.538 158,-595 177.809,-610.461 322.405,-626.064 413.814,-634.535"/>
<polygon fill="midnightblue" stroke="midnightblue" points="67.0041,-376.359 62.6161,-366.716 60.0327,-376.991 67.0041,-376.359"/>
</g>
<!-- Node10 -->
<g id="node10" class="node"><title>Node10</title>
<g id="a_node10"><a xlink:href="../../d0/d08/classback_end_1_1_cell.html#a9eb4afaad28f514cef9159dc5945313b" target="_top" xlink:title="backEnd.Cell.getColor">
<polygon fill="white" stroke="black" points="194.5,-404.5 194.5,-423.5 315.5,-423.5 315.5,-404.5 194.5,-404.5"/>
<text text-anchor="middle" x="255" y="-411.5" font-family="Helvetica,sans-Serif" font-size="10.00">backEnd.Cell.getColor</text>
</a>
</g>
</g>
<!-- Node1&#45;&gt;Node10 -->
<g id="edge11" class="edge"><title>Node1&#45;&gt;Node10</title>
<path fill="none" stroke="midnightblue" d="M104.173,-369.52C139.595,-380.036 189.463,-394.84 221.759,-404.428"/>
<polygon fill="midnightblue" stroke="midnightblue" points="104.719,-366.031 94.1365,-366.541 102.727,-372.742 104.719,-366.031"/>
</g>
<!-- Node14 -->
<g id="node14" class="node"><title>Node14</title>
<g id="a_node14"><a xlink:href="../../db/d5e/classback_end_1_1_patch.html#a3ff9ee1d7f36a53d2fb9011411fa58c5" target="_top" xlink:title="backEnd.Patch.getMyCellState">
<polygon fill="white" stroke="black" points="174,-566.5 174,-585.5 336,-585.5 336,-566.5 174,-566.5"/>
<text text-anchor="middle" x="255" y="-573.5" font-family="Helvetica,sans-Serif" font-size="10.00">backEnd.Patch.getMyCellState</text>
</a>
</g>
</g>
<!-- Node1&#45;&gt;Node14 -->
<g id="edge15" class="edge"><title>Node1&#45;&gt;Node14</title>
<path fill="none" stroke="midnightblue" d="M67.6428,-376.22C79.069,-412.049 108.181,-489.519 158,-535 174.463,-550.029 197.268,-560.081 216.519,-566.469"/>
<polygon fill="midnightblue" stroke="midnightblue" points="70.9447,-375.05 64.6612,-366.52 64.2537,-377.107 70.9447,-375.05"/>
</g>
<!-- Node17 -->
<g id="node17" class="node"><title>Node17</title>
<g id="a_node17"><a xlink:href="../../de/d5a/classback_end_1_1_spreading_fire.html#a14b959c163a3a935ef7856c045b13eeb" target="_top" xlink:title="backEnd.SpreadingFire.getNext">
<polygon fill="white" stroke="black" points="406.5,-47.5 406.5,-66.5 573.5,-66.5 573.5,-47.5 406.5,-47.5"/>
<text text-anchor="middle" x="490" y="-54.5" font-family="Helvetica,sans-Serif" font-size="10.00">backEnd.SpreadingFire.getNext</text>
</a>
</g>
</g>
<!-- Node1&#45;&gt;Node17 -->
<g id="edge22" class="edge"><title>Node1&#45;&gt;Node17</title>
<path fill="none" stroke="midnightblue" d="M65.3456,-337.222C73.3712,-296.26 97.7193,-202.052 158,-155 227.328,-100.886 272.987,-154.622 352,-116 370.97,-106.728 369.377,-94.9496 388,-85 403.327,-76.8115 421.274,-70.8358 437.754,-66.5615"/>
<polygon fill="midnightblue" stroke="midnightblue" points="61.9013,-336.6 63.5346,-347.068 68.7858,-337.866 61.9013,-336.6"/>
</g>
<!-- Node18 -->
<g id="node18" class="node"><title>Node18</title>
<g id="a_node18"><a xlink:href="../../d9/d2e/classback_end_1_1_segregation.html#a306bcff5f217b04d83849a3cc77bddfb" target="_top" xlink:title="backEnd.Segregation.getNext">
<polygon fill="white" stroke="black" points="410,-6.5 410,-25.5 570,-25.5 570,-6.5 410,-6.5"/>
<text text-anchor="middle" x="490" y="-13.5" font-family="Helvetica,sans-Serif" font-size="10.00">backEnd.Segregation.getNext</text>
</a>
</g>
</g>
<!-- Node1&#45;&gt;Node18 -->
<g id="edge23" class="edge"><title>Node1&#45;&gt;Node18</title>
<path fill="none" stroke="midnightblue" d="M61.9871,-337.208C63.1134,-284.155 74.059,-137.989 158,-67 176.951,-50.9727 317.877,-33.6367 409.634,-23.8681"/>
<polygon fill="midnightblue" stroke="midnightblue" points="58.4862,-337.277 61.8728,-347.316 65.4858,-337.356 58.4862,-337.277"/>
</g>
<!-- Node19 -->
<g id="node19" class="node"><title>Node19</title>
<g id="a_node19"><a xlink:href="../../d9/d2e/classback_end_1_1_segregation.html#a3cfddc34f7afe36f208eb6470d6e0f7d" target="_top" xlink:title="backEnd.Segregation.getSatisfaction">
<polygon fill="white" stroke="black" points="158,-0.5 158,-19.5 352,-19.5 352,-0.5 158,-0.5"/>
<text text-anchor="middle" x="255" y="-7.5" font-family="Helvetica,sans-Serif" font-size="10.00">backEnd.Segregation.getSatisfaction</text>
</a>
</g>
</g>
<!-- Node1&#45;&gt;Node19 -->
<g id="edge24" class="edge"><title>Node1&#45;&gt;Node19</title>
<path fill="none" stroke="midnightblue" d="M61.5874,-337.339C61.5364,-281.198 69.4292,-118.764 158,-34 164.454,-27.8234 172.247,-23.1658 180.569,-19.6649"/>
<polygon fill="midnightblue" stroke="midnightblue" points="58.0877,-337.404 61.6872,-347.368 65.0874,-337.334 58.0877,-337.404"/>
</g>
<!-- Node20 -->
<g id="node20" class="node"><title>Node20</title>
<g id="a_node20"><a xlink:href="../../de/d49/classback_end_1_1_sugar_scape.html#a6eca38a51f9c17bf46e8137754c5e513" target="_top" xlink:title="backEnd.SugarScape.getSugar\lLevel">
<polygon fill="white" stroke="black" points="172,-165 172,-195 338,-195 338,-165 172,-165"/>
<text text-anchor="start" x="180" y="-183" font-family="Helvetica,sans-Serif" font-size="10.00">backEnd.SugarScape.getSugar</text>
<text text-anchor="middle" x="255" y="-172" font-family="Helvetica,sans-Serif" font-size="10.00">Level</text>
</a>
</g>
</g>
<!-- Node1&#45;&gt;Node20 -->
<g id="edge26" class="edge"><title>Node1&#45;&gt;Node20</title>
<path fill="none" stroke="midnightblue" d="M72.6848,-338.555C88.6045,-312.296 120.709,-263.804 158,-232 175.883,-216.748 198.966,-204.071 218.015,-195.053"/>
<polygon fill="midnightblue" stroke="midnightblue" points="69.4992,-337.064 67.3987,-347.449 75.5166,-340.64 69.4992,-337.064"/>
</g>
<!-- Node25 -->
<g id="node25" class="node"><title>Node25</title>
<g id="a_node25"><a xlink:href="../../de/d49/classback_end_1_1_sugar_scape.html#a35c8ec7798b62668018c0992b6f8a991" target="_top" xlink:title="backEnd.SugarScape.growSugar">
<polygon fill="white" stroke="black" points="403.5,-309.5 403.5,-328.5 576.5,-328.5 576.5,-309.5 403.5,-309.5"/>
<text text-anchor="middle" x="490" y="-316.5" font-family="Helvetica,sans-Serif" font-size="10.00">backEnd.SugarScape.growSugar</text>
</a>
</g>
</g>
<!-- Node1&#45;&gt;Node25 -->
<g id="edge33" class="edge"><title>Node1&#45;&gt;Node25</title>
<path fill="none" stroke="midnightblue" d="M113.953,-345.359C128.17,-342.545 143.624,-339.826 158,-338 240.939,-327.463 336.318,-322.767 403.321,-320.675"/>
<polygon fill="midnightblue" stroke="midnightblue" points="112.954,-341.99 103.852,-347.413 114.349,-348.85 112.954,-341.99"/>
</g>
<!-- Node26 -->
<g id="node26" class="node"><title>Node26</title>
<g id="a_node26"><a xlink:href="../../de/d5a/classback_end_1_1_spreading_fire.html#a83460ccc721b0c3c4bdd2f89d8ecf218" target="_top" xlink:title="backEnd.SpreadingFire.is\lBurning">
<polygon fill="white" stroke="black" points="187,-77 187,-107 323,-107 323,-77 187,-77"/>
<text text-anchor="start" x="195" y="-95" font-family="Helvetica,sans-Serif" font-size="10.00">backEnd.SpreadingFire.is</text>
<text text-anchor="middle" x="255" y="-84" font-family="Helvetica,sans-Serif" font-size="10.00">Burning</text>
</a>
</g>
</g>
<!-- Node1&#45;&gt;Node26 -->
<g id="edge35" class="edge"><title>Node1&#45;&gt;Node26</title>
<path fill="none" stroke="midnightblue" d="M64.3994,-337.111C70.8857,-292.115 92.9072,-181.786 158,-122 166.231,-114.44 176.346,-108.786 186.889,-104.556"/>
<polygon fill="midnightblue" stroke="midnightblue" points="60.8933,-336.924 63.0405,-347.299 67.8319,-337.85 60.8933,-336.924"/>
</g>
<!-- Node27 -->
<g id="node27" class="node"><title>Node27</title>
<g id="a_node27"><a xlink:href="../../de/d49/classback_end_1_1_sugar_scape.html#aaf84272d68cbd5b1ae5a30fba6c77967" target="_top" xlink:title="backEnd.SugarScape.isSugar">
<polygon fill="white" stroke="black" points="176,-347.5 176,-366.5 334,-366.5 334,-347.5 176,-347.5"/>
<text text-anchor="middle" x="255" y="-354.5" font-family="Helvetica,sans-Serif" font-size="10.00">backEnd.SugarScape.isSugar</text>
</a>
</g>
</g>
<!-- Node1&#45;&gt;Node27 -->
<g id="edge37" class="edge"><title>Node1&#45;&gt;Node27</title>
<path fill="none" stroke="midnightblue" d="M132.326,-357C146.42,-357 161.311,-357 175.657,-357"/>
<polygon fill="midnightblue" stroke="midnightblue" points="132.223,-353.5 122.223,-357 132.223,-360.5 132.223,-353.5"/>
</g>
<!-- Node30 -->
<g id="node30" class="node"><title>Node30</title>
<g id="a_node30"><a xlink:href="../../db/d5e/classback_end_1_1_patch.html#a9efa671e6b11dc96a024a5df769b7546" target="_top" xlink:title="backEnd.Patch.myCellState\lEquals">
<polygon fill="white" stroke="black" points="636,-500 636,-530 784,-530 784,-500 636,-500"/>
<text text-anchor="start" x="644" y="-518" font-family="Helvetica,sans-Serif" font-size="10.00">backEnd.Patch.myCellState</text>
<text text-anchor="middle" x="710" y="-507" font-family="Helvetica,sans-Serif" font-size="10.00">Equals</text>
</a>
</g>
</g>
<!-- Node1&#45;&gt;Node30 -->
<g id="edge44" class="edge"><title>Node1&#45;&gt;Node30</title>
<path fill="none" stroke="midnightblue" d="M71.7718,-375.655C86.5779,-401.838 117.335,-448.768 158,-471 311.249,-554.78 525.09,-541.675 635.912,-527.097"/>
<polygon fill="midnightblue" stroke="midnightblue" points="74.7601,-373.825 66.8908,-366.731 68.6186,-377.184 74.7601,-373.825"/>
</g>
<!-- Node31 -->
<g id="node31" class="node"><title>Node31</title>
<g id="a_node31"><a xlink:href="../../de/d49/classback_end_1_1_sugar_scape.html#ac39421d9c6ae9dea8c02c724fdd0c395" target="_top" xlink:title="backEnd.SugarScape.setSugar\lLevel">
<polygon fill="white" stroke="black" points="172.5,-242 172.5,-272 337.5,-272 337.5,-242 172.5,-242"/>
<text text-anchor="start" x="180.5" y="-260" font-family="Helvetica,sans-Serif" font-size="10.00">backEnd.SugarScape.setSugar</text>
<text text-anchor="middle" x="255" y="-249" font-family="Helvetica,sans-Serif" font-size="10.00">Level</text>
</a>
</g>
</g>
<!-- Node1&#45;&gt;Node31 -->
<g id="edge46" class="edge"><title>Node1&#45;&gt;Node31</title>
<path fill="none" stroke="midnightblue" d="M88.0364,-342.598C107.278,-332.028 134.161,-317.412 158,-305 179.652,-293.727 204.282,-281.422 223.174,-272.093"/>
<polygon fill="midnightblue" stroke="midnightblue" points="86.3236,-339.545 79.2515,-347.434 89.6997,-345.678 86.3236,-339.545"/>
</g>
<!-- Node2&#45;&gt;Node3 -->
<g id="edge2" class="edge"><title>Node2&#45;&gt;Node3</title>
<path fill="none" stroke="midnightblue" d="M324.592,-663.187C352.588,-667.752 385.053,-673.047 413.703,-677.72"/>
<polygon fill="midnightblue" stroke="midnightblue" points="324.928,-659.695 314.495,-661.54 323.801,-666.604 324.928,-659.695"/>
</g>
<!-- Node4 -->
<g id="node4" class="node"><title>Node4</title>
<g id="a_node4"><a xlink:href="../../d0/d96/classback_end_1_1_predator_prey.html#ac9689f0a85de526bd6d2f1e23657dfe8" target="_top" xlink:title="backEnd.PredatorPrey.breed\lIfNecessary">
<polygon fill="white" stroke="black" points="1026,-663 1026,-693 1178,-693 1178,-663 1026,-663"/>
<text text-anchor="start" x="1034" y="-681" font-family="Helvetica,sans-Serif" font-size="10.00">backEnd.PredatorPrey.breed</text>
<text text-anchor="middle" x="1102" y="-670" font-family="Helvetica,sans-Serif" font-size="10.00">IfNecessary</text>
</a>
</g>
</g>
<!-- Node3&#45;&gt;Node4 -->
<g id="edge3" class="edge"><title>Node3&#45;&gt;Node4</title>
<path fill="none" stroke="midnightblue" d="M576.315,-688.322C695.955,-685.968 911.674,-681.724 1025.68,-679.482"/>
<polygon fill="midnightblue" stroke="midnightblue" points="576.033,-684.826 566.104,-688.523 576.171,-691.825 576.033,-684.826"/>
</g>
<!-- Node5 -->
<g id="node5" class="node"><title>Node5</title>
<g id="a_node5"><a xlink:href="../../d0/d96/classback_end_1_1_predator_prey.html#acf219a8748ddb0ed02c2202a3b3d6b37" target="_top" xlink:title="backEnd.PredatorPrey.update">
<polygon fill="white" stroke="black" points="1214,-639.5 1214,-658.5 1372,-658.5 1372,-639.5 1214,-639.5"/>
<text text-anchor="middle" x="1293" y="-646.5" font-family="Helvetica,sans-Serif" font-size="10.00">backEnd.PredatorPrey.update</text>
</a>
</g>
</g>
<!-- Node4&#45;&gt;Node5 -->
<g id="edge4" class="edge"><title>Node4&#45;&gt;Node5</title>
<path fill="none" stroke="midnightblue" d="M1188.4,-664.897C1202.44,-662.743 1216.75,-660.547 1230.07,-658.502"/>
<polygon fill="midnightblue" stroke="midnightblue" points="1187.59,-661.479 1178.24,-666.455 1188.66,-668.398 1187.59,-661.479"/>
</g>
<!-- Node8 -->
<g id="node8" class="node"><title>Node8</title>
<g id="a_node8"><a xlink:href="../../d0/d96/classback_end_1_1_predator_prey.html#aecfa40f92acce8997492d12cefd08b48" target="_top" xlink:title="backEnd.PredatorPrey.getNext">
<polygon fill="white" stroke="black" points="828,-593.5 828,-612.5 990,-612.5 990,-593.5 828,-593.5"/>
<text text-anchor="middle" x="909" y="-600.5" font-family="Helvetica,sans-Serif" font-size="10.00">backEnd.PredatorPrey.getNext</text>
</a>
</g>
</g>
<!-- Node7&#45;&gt;Node8 -->
<g id="edge8" class="edge"><title>Node7&#45;&gt;Node8</title>
<path fill="none" stroke="midnightblue" d="M576.374,-640.603C636.8,-639.451 719.629,-636.112 792,-627 818.118,-623.712 847.118,-617.712 869.588,-612.534"/>
<polygon fill="midnightblue" stroke="midnightblue" points="576.056,-637.108 566.118,-640.782 576.178,-644.107 576.056,-637.108"/>
</g>
<!-- Node9 -->
<g id="node9" class="node"><title>Node9</title>
<g id="a_node9"><a xlink:href="../../d0/d96/classback_end_1_1_predator_prey.html#aa032c15c617e2da8e1ab1a065413fb06" target="_top" xlink:title="backEnd.PredatorPrey.make\lNextGrid">
<polygon fill="white" stroke="black" points="1026.5,-605 1026.5,-635 1177.5,-635 1177.5,-605 1026.5,-605"/>
<text text-anchor="start" x="1034.5" y="-623" font-family="Helvetica,sans-Serif" font-size="10.00">backEnd.PredatorPrey.make</text>
<text text-anchor="middle" x="1102" y="-612" font-family="Helvetica,sans-Serif" font-size="10.00">NextGrid</text>
</a>
</g>
</g>
<!-- Node8&#45;&gt;Node9 -->
<g id="edge9" class="edge"><title>Node8&#45;&gt;Node9</title>
<path fill="none" stroke="midnightblue" d="M1000.31,-611.038C1008.98,-611.81 1017.71,-612.587 1026.22,-613.344"/>
<polygon fill="midnightblue" stroke="midnightblue" points="1000.44,-607.536 990.171,-610.136 999.821,-614.508 1000.44,-607.536"/>
</g>
<!-- Node9&#45;&gt;Node5 -->
<g id="edge10" class="edge"><title>Node9&#45;&gt;Node5</title>
<path fill="none" stroke="midnightblue" d="M1187.94,-633.034C1202.11,-635.207 1216.56,-637.425 1230.02,-639.489"/>
<polygon fill="midnightblue" stroke="midnightblue" points="1188.11,-629.519 1177.7,-631.462 1187.05,-636.438 1188.11,-629.519"/>
</g>
<!-- Node11 -->
<g id="node11" class="node"><title>Node11</title>
<g id="a_node11"><a xlink:href="../../de/d49/classback_end_1_1_sugar_scape.html#a4f6e2db365ea19041ac0cf88cdc8c183" target="_top" xlink:title="backEnd.SugarScape.testRandomness">
<polygon fill="white" stroke="black" points="388.5,-423.5 388.5,-442.5 591.5,-442.5 591.5,-423.5 388.5,-423.5"/>
<text text-anchor="middle" x="490" y="-430.5" font-family="Helvetica,sans-Serif" font-size="10.00">backEnd.SugarScape.testRandomness</text>
</a>
</g>
</g>
<!-- Node10&#45;&gt;Node11 -->
<g id="edge12" class="edge"><title>Node10&#45;&gt;Node11</title>
<path fill="none" stroke="midnightblue" d="M325.772,-419.69C345.43,-421.293 367.216,-423.069 388.298,-424.788"/>
<polygon fill="midnightblue" stroke="midnightblue" points="325.952,-416.193 315.701,-418.868 325.383,-423.17 325.952,-416.193"/>
</g>
<!-- Node12 -->
<g id="node12" class="node"><title>Node12</title>
<g id="a_node12"><a xlink:href="../../dc/da1/classfront_end_1_1_animator_loop.html#a3d3ba37be380538b0fdfaada6256a125" target="_top" xlink:title="frontEnd.AnimatorLoop.update\lGUICells">
<polygon fill="white" stroke="black" points="408,-462 408,-492 572,-492 572,-462 408,-462"/>
<text text-anchor="start" x="416" y="-480" font-family="Helvetica,sans-Serif" font-size="10.00">frontEnd.AnimatorLoop.update</text>
<text text-anchor="middle" x="490" y="-469" font-family="Helvetica,sans-Serif" font-size="10.00">GUICells</text>
</a>
</g>
</g>
<!-- Node10&#45;&gt;Node12 -->
<g id="edge13" class="edge"><title>Node10&#45;&gt;Node12</title>
<path fill="none" stroke="midnightblue" d="M325.413,-425.237C334.467,-427.428 343.532,-430 352,-433 369.053,-439.042 371.095,-445.557 388,-452 397.79,-455.731 408.328,-459.055 418.773,-461.965"/>
<polygon fill="midnightblue" stroke="midnightblue" points="326.148,-421.815 315.62,-423.005 324.593,-428.64 326.148,-421.815"/>
</g>
<!-- Node13 -->
<g id="node13" class="node"><title>Node13</title>
<g id="a_node13"><a xlink:href="../../dc/da1/classfront_end_1_1_animator_loop.html#abadf9135a2378edada1bde19397c3c76" target="_top" xlink:title="frontEnd.AnimatorLoop.update\lCells">
<polygon fill="white" stroke="black" points="628,-451 628,-481 792,-481 792,-451 628,-451"/>
<text text-anchor="start" x="636" y="-469" font-family="Helvetica,sans-Serif" font-size="10.00">frontEnd.AnimatorLoop.update</text>
<text text-anchor="middle" x="710" y="-458" font-family="Helvetica,sans-Serif" font-size="10.00">Cells</text>
</a>
</g>
</g>
<!-- Node12&#45;&gt;Node13 -->
<g id="edge14" class="edge"><title>Node12&#45;&gt;Node13</title>
<path fill="none" stroke="midnightblue" d="M582.491,-472.383C597.518,-471.625 613.001,-470.844 627.757,-470.099"/>
<polygon fill="midnightblue" stroke="midnightblue" points="581.986,-468.904 572.175,-472.904 582.339,-475.896 581.986,-468.904"/>
</g>
<!-- Node14&#45;&gt;Node3 -->
<g id="edge18" class="edge"><title>Node14&#45;&gt;Node3</title>
<path fill="none" stroke="midnightblue" d="M283.382,-590.423C303.078,-601.232 329.946,-616.879 352,-633 369.282,-645.633 369.058,-655.026 388,-665 396.072,-669.25 404.889,-672.796 413.844,-675.751"/>
<polygon fill="midnightblue" stroke="midnightblue" points="284.801,-587.212 274.341,-585.525 281.466,-593.366 284.801,-587.212"/>
</g>
<!-- Node14&#45;&gt;Node7 -->
<g id="edge17" class="edge"><title>Node14&#45;&gt;Node7</title>
<path fill="none" stroke="midnightblue" d="M310.666,-587.926C324.303,-591.376 338.798,-595.454 352,-600 368.555,-605.7 371.438,-610.319 388,-616 398.594,-619.634 409.98,-622.974 421.154,-625.949"/>
<polygon fill="midnightblue" stroke="midnightblue" points="311.466,-584.519 300.919,-585.528 309.793,-591.316 311.466,-584.519"/>
</g>
<!-- Node14&#45;&gt;Node8 -->
<g id="edge16" class="edge"><title>Node14&#45;&gt;Node8</title>
<path fill="none" stroke="midnightblue" d="M346.277,-571.068C453.052,-566.49 636.002,-562.59 792,-579 818.895,-581.829 848.767,-588.084 871.462,-593.499"/>
<polygon fill="midnightblue" stroke="midnightblue" points="346.022,-567.576 336.185,-571.512 346.33,-574.569 346.022,-567.576"/>
</g>
<!-- Node15 -->
<g id="node15" class="node"><title>Node15</title>
<g id="a_node15"><a xlink:href="../../d0/d96/classback_end_1_1_predator_prey.html#ae2c9b91296f82e101e9dd0ea350d3f62" target="_top" xlink:title="backEnd.PredatorPrey.eatFish">
<polygon fill="white" stroke="black" points="411,-587.5 411,-606.5 569,-606.5 569,-587.5 411,-587.5"/>
<text text-anchor="middle" x="490" y="-594.5" font-family="Helvetica,sans-Serif" font-size="10.00">backEnd.PredatorPrey.eatFish</text>
</a>
</g>
</g>
<!-- Node14&#45;&gt;Node15 -->
<g id="edge19" class="edge"><title>Node14&#45;&gt;Node15</title>
<path fill="none" stroke="midnightblue" d="M346.183,-584.128C367.446,-586.045 389.944,-588.072 410.637,-589.937"/>
<polygon fill="midnightblue" stroke="midnightblue" points="346.459,-580.639 336.185,-583.227 345.831,-587.611 346.459,-580.639"/>
</g>
<!-- Node16 -->
<g id="node16" class="node"><title>Node16</title>
<g id="a_node16"><a xlink:href="../../d0/d96/classback_end_1_1_predator_prey.html#afbf1847ebcb9a605eec41be73dec7c8c" target="_top" xlink:title="backEnd.PredatorPrey.check\lForFishAndMove">
<polygon fill="white" stroke="black" points="634,-588 634,-618 786,-618 786,-588 634,-588"/>
<text text-anchor="start" x="642" y="-606" font-family="Helvetica,sans-Serif" font-size="10.00">backEnd.PredatorPrey.check</text>
<text text-anchor="middle" x="710" y="-595" font-family="Helvetica,sans-Serif" font-size="10.00">ForFishAndMove</text>
</a>
</g>
</g>
<!-- Node15&#45;&gt;Node16 -->
<g id="edge20" class="edge"><title>Node15&#45;&gt;Node16</title>
<path fill="none" stroke="midnightblue" d="M579.298,-599.43C597.321,-599.926 616.127,-600.444 633.648,-600.926"/>
<polygon fill="midnightblue" stroke="midnightblue" points="579.18,-595.926 569.087,-599.149 578.987,-602.923 579.18,-595.926"/>
</g>
<!-- Node16&#45;&gt;Node8 -->
<g id="edge21" class="edge"><title>Node16&#45;&gt;Node8</title>
<path fill="none" stroke="midnightblue" d="M796.09,-603C806.658,-603 817.435,-603 827.924,-603"/>
<polygon fill="midnightblue" stroke="midnightblue" points="796.039,-599.5 786.039,-603 796.039,-606.5 796.039,-599.5"/>
</g>
<!-- Node19&#45;&gt;Node18 -->
<g id="edge25" class="edge"><title>Node19&#45;&gt;Node18</title>
<path fill="none" stroke="midnightblue" d="M362.515,-12.7429C378.415,-13.1523 394.565,-13.5682 409.769,-13.9597"/>
<polygon fill="midnightblue" stroke="midnightblue" points="362.202,-9.23375 352.115,-12.4751 362.022,-16.2314 362.202,-9.23375"/>
</g>
<!-- Node21 -->
<g id="node21" class="node"><title>Node21</title>
<g id="a_node21"><a xlink:href="../../de/d49/classback_end_1_1_sugar_scape.html#a13186ddb64e70b5941d0cd12163c3e84" target="_top" xlink:title="backEnd.SugarScape.getNext">
<polygon fill="white" stroke="black" points="630,-216.5 630,-235.5 790,-235.5 790,-216.5 630,-216.5"/>
<text text-anchor="middle" x="710" y="-223.5" font-family="Helvetica,sans-Serif" font-size="10.00">backEnd.SugarScape.getNext</text>
</a>
</g>
</g>
<!-- Node20&#45;&gt;Node21 -->
<g id="edge27" class="edge"><title>Node20&#45;&gt;Node21</title>
<path fill="none" stroke="midnightblue" d="M328.86,-161.394C336.921,-158.13 344.806,-154.353 352,-150 371.359,-138.286 367.095,-122.659 388,-114 471.765,-79.3034 507.861,-80.2197 592,-114 644.972,-135.267 687.503,-193.232 702.843,-216.321"/>
<polygon fill="midnightblue" stroke="midnightblue" points="327.462,-158.18 319.348,-164.993 329.939,-164.727 327.462,-158.18"/>
</g>
<!-- Node23 -->
<g id="node23" class="node"><title>Node23</title>
<g id="a_node23"><a xlink:href="../../de/d49/classback_end_1_1_sugar_scape.html#a96fcf395199ef2ca7af1e01d2ec362bf" target="_top" xlink:title="backEnd.SugarScape.moveAgent">
<polygon fill="white" stroke="black" points="401.5,-123.5 401.5,-142.5 578.5,-142.5 578.5,-123.5 401.5,-123.5"/>
<text text-anchor="middle" x="490" y="-130.5" font-family="Helvetica,sans-Serif" font-size="10.00">backEnd.SugarScape.moveAgent</text>
</a>
</g>
</g>
<!-- Node20&#45;&gt;Node23 -->
<g id="edge29" class="edge"><title>Node20&#45;&gt;Node23</title>
<path fill="none" stroke="midnightblue" d="M335.526,-162.821C352.81,-159.174 371.006,-155.4 388,-152 403.921,-148.814 421.285,-145.493 437.055,-142.534"/>
<polygon fill="midnightblue" stroke="midnightblue" points="334.53,-159.454 325.472,-164.95 335.98,-166.302 334.53,-159.454"/>
</g>
<!-- Node24 -->
<g id="node24" class="node"><title>Node24</title>
<g id="a_node24"><a xlink:href="../../de/d49/classback_end_1_1_sugar_scape.html#a9e07dd6e4d60049bb525ee8032b5f0a8" target="_top" xlink:title="backEnd.SugarScape.subtract\lMetabolism">
<polygon fill="white" stroke="black" points="409.5,-162 409.5,-192 570.5,-192 570.5,-162 409.5,-162"/>
<text text-anchor="start" x="417.5" y="-180" font-family="Helvetica,sans-Serif" font-size="10.00">backEnd.SugarScape.subtract</text>
<text text-anchor="middle" x="490" y="-169" font-family="Helvetica,sans-Serif" font-size="10.00">Metabolism</text>
</a>
</g>
</g>
<!-- Node20&#45;&gt;Node24 -->
<g id="edge31" class="edge"><title>Node20&#45;&gt;Node24</title>
<path fill="none" stroke="midnightblue" d="M348.257,-178.812C368.398,-178.553 389.551,-178.28 409.161,-178.028"/>
<polygon fill="midnightblue" stroke="midnightblue" points="348.101,-175.314 338.147,-178.942 348.191,-182.313 348.101,-175.314"/>
</g>
<!-- Node22 -->
<g id="node22" class="node"><title>Node22</title>
<g id="a_node22"><a xlink:href="../../de/d49/classback_end_1_1_sugar_scape.html#ab0c2eb832afef056e0a72aea2bf8ddc1" target="_top" xlink:title="backEnd.SugarScape.update">
<polygon fill="white" stroke="black" points="831.5,-249.5 831.5,-268.5 986.5,-268.5 986.5,-249.5 831.5,-249.5"/>
<text text-anchor="middle" x="909" y="-256.5" font-family="Helvetica,sans-Serif" font-size="10.00">backEnd.SugarScape.update</text>
</a>
</g>
</g>
<!-- Node21&#45;&gt;Node22 -->
<g id="edge28" class="edge"><title>Node21&#45;&gt;Node22</title>
<path fill="none" stroke="midnightblue" d="M777.727,-237.178C801.526,-241.164 828.096,-245.615 851.002,-249.452"/>
<polygon fill="midnightblue" stroke="midnightblue" points="778.157,-233.701 767.716,-235.501 777.001,-240.605 778.157,-233.701"/>
</g>
<!-- Node23&#45;&gt;Node21 -->
<g id="edge30" class="edge"><title>Node23&#45;&gt;Node21</title>
<path fill="none" stroke="midnightblue" d="M570.704,-145.039C578.009,-147.023 585.208,-149.327 592,-152 633.822,-168.46 676.974,-200.358 697.197,-216.358"/>
<polygon fill="midnightblue" stroke="midnightblue" points="571.259,-141.569 560.707,-142.526 569.553,-148.358 571.259,-141.569"/>
</g>
<!-- Node24&#45;&gt;Node21 -->
<g id="edge32" class="edge"><title>Node24&#45;&gt;Node21</title>
<path fill="none" stroke="midnightblue" d="M568.02,-194.312C601.163,-201.761 638.634,-210.184 666.61,-216.472"/>
<polygon fill="midnightblue" stroke="midnightblue" points="568.413,-190.813 557.889,-192.035 566.878,-197.642 568.413,-190.813"/>
</g>
<!-- Node25&#45;&gt;Node22 -->
<g id="edge34" class="edge"><title>Node25&#45;&gt;Node22</title>
<path fill="none" stroke="midnightblue" d="M567.399,-308.007C646.023,-296.695 767.258,-279.251 841.89,-268.512"/>
<polygon fill="midnightblue" stroke="midnightblue" points="566.474,-304.604 557.075,-309.493 567.471,-311.533 566.474,-304.604"/>
</g>
<!-- Node26&#45;&gt;Node17 -->
<g id="edge36" class="edge"><title>Node26&#45;&gt;Node17</title>
<path fill="none" stroke="midnightblue" d="M333.09,-80.4199C363.092,-75.9132 397.046,-70.8128 425.591,-66.5249"/>
<polygon fill="midnightblue" stroke="midnightblue" points="332.45,-76.9768 323.081,-81.9235 333.49,-83.8991 332.45,-76.9768"/>
</g>
<!-- Node27&#45;&gt;Node11 -->
<g id="edge43" class="edge"><title>Node27&#45;&gt;Node11</title>
<path fill="none" stroke="midnightblue" d="M291.783,-370.102C310.008,-377.042 332.4,-385.981 352,-395 368.435,-402.563 370.919,-408.039 388,-414 399.034,-417.851 411.034,-420.975 422.782,-423.492"/>
<polygon fill="midnightblue" stroke="midnightblue" points="292.992,-366.818 282.4,-366.565 290.523,-373.368 292.992,-366.818"/>
</g>
<!-- Node27&#45;&gt;Node21 -->
<g id="edge39" class="edge"><title>Node27&#45;&gt;Node21</title>
<path fill="none" stroke="midnightblue" d="M334.313,-367.445C404.748,-373.458 509.519,-373.852 592,-338 644.092,-315.357 686.823,-258.714 702.532,-235.825"/>
<polygon fill="midnightblue" stroke="midnightblue" points="334.453,-363.944 324.177,-366.521 333.818,-370.915 334.453,-363.944"/>
</g>
<!-- Node27&#45;&gt;Node25 -->
<g id="edge38" class="edge"><title>Node27&#45;&gt;Node25</title>
<path fill="none" stroke="midnightblue" d="M324.704,-345.795C358.315,-340.313 398.348,-333.785 430.481,-328.544"/>
<polygon fill="midnightblue" stroke="midnightblue" points="323.801,-342.396 314.495,-347.46 324.928,-349.305 323.801,-342.396"/>
</g>
<!-- Node28 -->
<g id="node28" class="node"><title>Node28</title>
<g id="a_node28"><a xlink:href="../../de/d49/classback_end_1_1_sugar_scape.html#aef8d78e2988a976344c3b83a9259d519" target="_top" xlink:title="backEnd.SugarScape.getNeighbors">
<polygon fill="white" stroke="black" points="397,-385.5 397,-404.5 583,-404.5 583,-385.5 397,-385.5"/>
<text text-anchor="middle" x="490" y="-392.5" font-family="Helvetica,sans-Serif" font-size="10.00">backEnd.SugarScape.getNeighbors</text>
</a>
</g>
</g>
<!-- Node27&#45;&gt;Node28 -->
<g id="edge40" class="edge"><title>Node27&#45;&gt;Node28</title>
<path fill="none" stroke="midnightblue" d="M324.704,-368.205C358.315,-373.687 398.348,-380.215 430.481,-385.456"/>
<polygon fill="midnightblue" stroke="midnightblue" points="324.928,-364.695 314.495,-366.54 323.801,-371.604 324.928,-364.695"/>
</g>
<!-- Node29 -->
<g id="node29" class="node"><title>Node29</title>
<g id="a_node29"><a xlink:href="../../de/d49/classback_end_1_1_sugar_scape.html#a9be1da134b1e998ed27dba1b82b1a4f4" target="_top" xlink:title="backEnd.SugarScape.randomize\lSugar">
<polygon fill="white" stroke="black" points="403.5,-260 403.5,-290 576.5,-290 576.5,-260 403.5,-260"/>
<text text-anchor="start" x="411.5" y="-278" font-family="Helvetica,sans-Serif" font-size="10.00">backEnd.SugarScape.randomize</text>
<text text-anchor="middle" x="490" y="-267" font-family="Helvetica,sans-Serif" font-size="10.00">Sugar</text>
</a>
</g>
</g>
<!-- Node27&#45;&gt;Node29 -->
<g id="edge42" class="edge"><title>Node27&#45;&gt;Node29</title>
<path fill="none" stroke="midnightblue" d="M284.322,-343.148C310.696,-330.641 351.343,-312.357 388,-300 398.784,-296.365 410.377,-293.005 421.728,-290.004"/>
<polygon fill="midnightblue" stroke="midnightblue" points="282.794,-339.999 275.285,-347.472 285.816,-346.313 282.794,-339.999"/>
</g>
<!-- Node28&#45;&gt;Node21 -->
<g id="edge41" class="edge"><title>Node28&#45;&gt;Node21</title>
<path fill="none" stroke="midnightblue" d="M568.211,-382.344C576.574,-379.335 584.689,-375.61 592,-371 648.912,-335.114 690.58,-261.82 704.205,-235.597"/>
<polygon fill="midnightblue" stroke="midnightblue" points="567.117,-379.02 558.694,-385.448 569.287,-385.675 567.117,-379.02"/>
</g>
<!-- Node30&#45;&gt;Node8 -->
<g id="edge45" class="edge"><title>Node30&#45;&gt;Node8</title>
<path fill="none" stroke="midnightblue" d="M763.619,-533.539C773.138,-537.161 782.92,-541.062 792,-545 827.53,-560.408 867.681,-581.294 890.205,-593.341"/>
<polygon fill="midnightblue" stroke="midnightblue" points="764.816,-530.25 754.224,-530.019 762.36,-536.805 764.816,-530.25"/>
</g>
<!-- Node31&#45;&gt;Node23 -->
<g id="edge50" class="edge"><title>Node31&#45;&gt;Node23</title>
<path fill="none" stroke="midnightblue" d="M301.501,-237.33C318.488,-228.646 337.222,-217.355 352,-204 372.855,-185.154 364.42,-167.301 388,-152 393.912,-148.164 400.404,-145.059 407.157,-142.551"/>
<polygon fill="midnightblue" stroke="midnightblue" points="299.697,-234.317 292.279,-241.883 302.795,-240.594 299.697,-234.317"/>
</g>
<!-- Node31&#45;&gt;Node24 -->
<g id="edge51" class="edge"><title>Node31&#45;&gt;Node24</title>
<path fill="none" stroke="midnightblue" d="M296.523,-237.714C322.298,-225.975 356.614,-211.306 388,-201 397.932,-197.739 408.547,-194.724 419.027,-192.01"/>
<polygon fill="midnightblue" stroke="midnightblue" points="295.058,-234.536 287.434,-241.893 297.982,-240.895 295.058,-234.536"/>
</g>
<!-- Node31&#45;&gt;Node25 -->
<g id="edge47" class="edge"><title>Node31&#45;&gt;Node25</title>
<path fill="none" stroke="midnightblue" d="M308.671,-275.258C332.686,-283.193 361.593,-292.207 388,-299 403.148,-302.896 419.74,-306.466 435.019,-309.476"/>
<polygon fill="midnightblue" stroke="midnightblue" points="309.637,-271.89 299.044,-272.048 307.423,-278.531 309.637,-271.89"/>
</g>
<!-- Node31&#45;&gt;Node29 -->
<g id="edge52" class="edge"><title>Node31&#45;&gt;Node29</title>
<path fill="none" stroke="midnightblue" d="M347.889,-264.099C366.192,-265.513 385.345,-266.992 403.427,-268.389"/>
<polygon fill="midnightblue" stroke="midnightblue" points="348.059,-260.602 337.819,-263.321 347.52,-267.581 348.059,-260.602"/>
</g>
<!-- Node32 -->
<g id="node32" class="node"><title>Node32</title>
<g id="a_node32"><a xlink:href="../../de/d49/classback_end_1_1_sugar_scape.html#a4b3bd085af29e9071f8b19c9a271fa23" target="_top" xlink:title="backEnd.SugarScape.clear\lPatch">
<polygon fill="white" stroke="black" points="417.5,-211 417.5,-241 562.5,-241 562.5,-211 417.5,-211"/>
<text text-anchor="start" x="425.5" y="-229" font-family="Helvetica,sans-Serif" font-size="10.00">backEnd.SugarScape.clear</text>
<text text-anchor="middle" x="490" y="-218" font-family="Helvetica,sans-Serif" font-size="10.00">Patch</text>
</a>
</g>
</g>
<!-- Node31&#45;&gt;Node32 -->
<g id="edge48" class="edge"><title>Node31&#45;&gt;Node32</title>
<path fill="none" stroke="midnightblue" d="M347.973,-244.763C371.073,-241.69 395.52,-238.437 417.456,-235.519"/>
<polygon fill="midnightblue" stroke="midnightblue" points="347.27,-241.326 337.819,-246.114 348.194,-248.265 347.27,-241.326"/>
</g>
<!-- Node32&#45;&gt;Node21 -->
<g id="edge49" class="edge"><title>Node32&#45;&gt;Node21</title>
<path fill="none" stroke="midnightblue" d="M572.893,-226C591.505,-226 611.244,-226 629.745,-226"/>
<polygon fill="midnightblue" stroke="midnightblue" points="572.683,-222.5 562.683,-226 572.683,-229.5 572.683,-222.5"/>
</g>
</g>
</svg>
