<?xml version="1.0" encoding="UTF-8" standalone="no"?>
<!DOCTYPE svg PUBLIC "-//W3C//DTD SVG 1.1//EN"
 "http://www.w3.org/Graphics/SVG/1.1/DTD/svg11.dtd">
<!-- Generated by graphviz version 2.36.0 (20140111.2315)
 -->
<!-- Title: frontEnd.AnimatorLoop.updateGUICells Pages: 1 -->
<svg width="488pt" height="66pt"
 viewBox="0.00 0.00 488.00 66.00" xmlns="http://www.w3.org/2000/svg" xmlns:xlink="http://www.w3.org/1999/xlink">
<g id="graph0" class="graph" transform="scale(1 1) rotate(0) translate(4 62)">
<title>frontEnd.AnimatorLoop.updateGUICells</title>
<polygon fill="white" stroke="none" points="-4,4 -4,-62 484,-62 484,4 -4,4"/>
<!-- Node1 -->
<g id="node1" class="node"><title>Node1</title>
<polygon fill="#bfbfbf" stroke="black" points="0,-14 0,-44 164,-44 164,-14 0,-14"/>
<text text-anchor="start" x="8" y="-32" font-family="Helvetica,sans-Serif" font-size="10.00">frontEnd.AnimatorLoop.update</text>
<text text-anchor="middle" x="82" y="-21" font-family="Helvetica,sans-Serif" font-size="10.00">GUICells</text>
</g>
<!-- Node2 -->
<g id="node2" class="node"><title>Node2</title>
<g id="a_node2"><a xlink:href="../../db/d5e/classback_end_1_1_patch.html#a8d97ca84fd6d69378e9fc0b96eff7cb9" target="_top" xlink:title="backEnd.Patch.getCell">
<polygon fill="white" stroke="black" points="200,-38.5 200,-57.5 322,-57.5 322,-38.5 200,-38.5"/>
<text text-anchor="middle" x="261" y="-45.5" font-family="Helvetica,sans-Serif" font-size="10.00">backEnd.Patch.getCell</text>
</a>
</g>
</g>
<!-- Node1&#45;&gt;Node2 -->
<g id="edge1" class="edge"><title>Node1&#45;&gt;Node2</title>
<path fill="none" stroke="midnightblue" d="M164.247,-37.7215C172.776,-38.637 181.395,-39.5622 189.785,-40.4627"/>
<polygon fill="midnightblue" stroke="midnightblue" points="189.566,-43.9594 199.883,-41.5468 190.314,-36.9993 189.566,-43.9594"/>
</g>
<!-- Node3 -->
<g id="node3" class="node"><title>Node3</title>
<g id="a_node3"><a xlink:href="../../d0/d08/classback_end_1_1_cell.html#a9eb4afaad28f514cef9159dc5945313b" target="_top" xlink:title="backEnd.Cell.getColor">
<polygon fill="white" stroke="black" points="200.5,-0.5 200.5,-19.5 321.5,-19.5 321.5,-0.5 200.5,-0.5"/>
<text text-anchor="middle" x="261" y="-7.5" font-family="Helvetica,sans-Serif" font-size="10.00">backEnd.Cell.getColor</text>
</a>
</g>
</g>
<!-- Node1&#45;&gt;Node3 -->
<g id="edge2" class="edge"><title>Node1&#45;&gt;Node3</title>
<path fill="none" stroke="midnightblue" d="M164.247,-20.2785C173,-19.3389 181.848,-18.3892 190.446,-17.4662"/>
<polygon fill="midnightblue" stroke="midnightblue" points="190.834,-20.9448 200.404,-16.3974 190.087,-13.9848 190.834,-20.9448"/>
</g>
<!-- Node4 -->
<g id="node4" class="node"><title>Node4</title>
<g id="a_node4"><a xlink:href="../../d0/d08/classback_end_1_1_cell.html#a780d63fdf3ec4f64bd01f9c1c01f54e9" target="_top" xlink:title="backEnd.Cell.getState">
<polygon fill="white" stroke="black" points="358,-0.5 358,-19.5 480,-19.5 480,-0.5 358,-0.5"/>
<text text-anchor="middle" x="419" y="-7.5" font-family="Helvetica,sans-Serif" font-size="10.00">backEnd.Cell.getState</text>
</a>
</g>
</g>
<!-- Node3&#45;&gt;Node4 -->
<g id="edge3" class="edge"><title>Node3&#45;&gt;Node4</title>
<path fill="none" stroke="midnightblue" d="M321.868,-10C330.328,-10 339.09,-10 347.725,-10"/>
<polygon fill="midnightblue" stroke="midnightblue" points="347.777,-13.5001 357.777,-10 347.777,-6.5001 347.777,-13.5001"/>
</g>
</g>
</svg>
