<?xml version="1.0" encoding="UTF-8" standalone="no"?>
<!DOCTYPE svg PUBLIC "-//W3C//DTD SVG 1.1//EN"
 "http://www.w3.org/Graphics/SVG/1.1/DTD/svg11.dtd">
<!-- Generated by graphviz version 2.36.0 (20140111.2315)
 -->
<!-- Title: frontEnd.AnimatorLoop.gridPatchToString Pages: 1 -->
<svg width="832pt" height="38pt"
 viewBox="0.00 0.00 832.00 38.00" xmlns="http://www.w3.org/2000/svg" xmlns:xlink="http://www.w3.org/1999/xlink">
<g id="graph0" class="graph" transform="scale(1 1) rotate(0) translate(4 34)">
<title>frontEnd.AnimatorLoop.gridPatchToString</title>
<polygon fill="white" stroke="none" points="-4,4 -4,-34 828,-34 828,4 -4,4"/>
<!-- Node1 -->
<g id="node1" class="node"><title>Node1</title>
<polygon fill="#bfbfbf" stroke="black" points="0.5,-0 0.5,-30 149.5,-30 149.5,-0 0.5,-0"/>
<text text-anchor="start" x="8.5" y="-18" font-family="Helvetica,sans-Serif" font-size="10.00">frontEnd.AnimatorLoop.grid</text>
<text text-anchor="middle" x="75" y="-7" font-family="Helvetica,sans-Serif" font-size="10.00">PatchToString</text>
</g>
<!-- Node2 -->
<g id="node2" class="node"><title>Node2</title>
<g id="a_node2"><a xlink:href="../../dc/da1/classfront_end_1_1_animator_loop.html#abeeeb7294620845e96455930decbd7bf" target="_top" xlink:title="frontEnd.AnimatorLoop.write\lToXML">
<polygon fill="white" stroke="black" points="186.5,-0 186.5,-30 339.5,-30 339.5,-0 186.5,-0"/>
<text text-anchor="start" x="194.5" y="-18" font-family="Helvetica,sans-Serif" font-size="10.00">frontEnd.AnimatorLoop.write</text>
<text text-anchor="middle" x="263" y="-7" font-family="Helvetica,sans-Serif" font-size="10.00">ToXML</text>
</a>
</g>
</g>
<!-- Node1&#45;&gt;Node2 -->
<g id="edge1" class="edge"><title>Node1&#45;&gt;Node2</title>
<path fill="none" stroke="midnightblue" d="M159.797,-15C168.619,-15 177.552,-15 186.275,-15"/>
<polygon fill="midnightblue" stroke="midnightblue" points="159.512,-11.5001 149.512,-15 159.512,-18.5001 159.512,-11.5001"/>
</g>
<!-- Node3 -->
<g id="node3" class="node"><title>Node3</title>
<g id="a_node3"><a xlink:href="../../dd/dbe/classfront_end_1_1_main.html#ae2ce98421793cead4539f6a0e9e63160" target="_top" xlink:title="frontEnd.Main.writeXML">
<polygon fill="white" stroke="black" points="376,-5.5 376,-24.5 504,-24.5 504,-5.5 376,-5.5"/>
<text text-anchor="middle" x="440" y="-12.5" font-family="Helvetica,sans-Serif" font-size="10.00">frontEnd.Main.writeXML</text>
</a>
</g>
</g>
<!-- Node2&#45;&gt;Node3 -->
<g id="edge2" class="edge"><title>Node2&#45;&gt;Node3</title>
<path fill="none" stroke="midnightblue" d="M349.923,-15C358.623,-15 367.344,-15 375.742,-15"/>
<polygon fill="midnightblue" stroke="midnightblue" points="349.74,-11.5001 339.74,-15 349.74,-18.5001 349.74,-11.5001"/>
</g>
<!-- Node4 -->
<g id="node4" class="node"><title>Node4</title>
<g id="a_node4"><a xlink:href="../../dd/dbe/classfront_end_1_1_main.html#a55d59b110825a1cc153a0091a6e5cb99" target="_top" xlink:title="frontEnd.Main.makeMenu">
<polygon fill="white" stroke="black" points="540.5,-5.5 540.5,-24.5 679.5,-24.5 679.5,-5.5 540.5,-5.5"/>
<text text-anchor="middle" x="610" y="-12.5" font-family="Helvetica,sans-Serif" font-size="10.00">frontEnd.Main.makeMenu</text>
</a>
</g>
</g>
<!-- Node3&#45;&gt;Node4 -->
<g id="edge3" class="edge"><title>Node3&#45;&gt;Node4</title>
<path fill="none" stroke="midnightblue" d="M514.13,-15C522.81,-15 531.648,-15 540.264,-15"/>
<polygon fill="midnightblue" stroke="midnightblue" points="514.035,-11.5001 504.035,-15 514.035,-18.5001 514.035,-11.5001"/>
</g>
<!-- Node5 -->
<g id="node5" class="node"><title>Node5</title>
<g id="a_node5"><a xlink:href="../../dd/dbe/classfront_end_1_1_main.html#ae53f892716dcc60f3f49714496e30c91" target="_top" xlink:title="frontEnd.Main.start">
<polygon fill="white" stroke="black" points="716,-5.5 716,-24.5 824,-24.5 824,-5.5 716,-5.5"/>
<text text-anchor="middle" x="770" y="-12.5" font-family="Helvetica,sans-Serif" font-size="10.00">frontEnd.Main.start</text>
</a>
</g>
</g>
<!-- Node4&#45;&gt;Node5 -->
<g id="edge4" class="edge"><title>Node4&#45;&gt;Node5</title>
<path fill="none" stroke="midnightblue" d="M689.995,-15C698.667,-15 707.338,-15 715.591,-15"/>
<polygon fill="midnightblue" stroke="midnightblue" points="689.842,-11.5001 679.841,-15 689.841,-18.5001 689.842,-11.5001"/>
</g>
</g>
</svg>
