<?xml version="1.0" encoding="UTF-8" standalone="no"?>
<!DOCTYPE svg PUBLIC "-//W3C//DTD SVG 1.1//EN"
 "http://www.w3.org/Graphics/SVG/1.1/DTD/svg11.dtd">
<!-- Generated by graphviz version 2.36.0 (20140111.2315)
 -->
<!-- Title: frontEnd.AnimatorLoop.readXMLAndInitializeGrid Pages: 1 -->
<svg width="864pt" height="104pt"
 viewBox="0.00 0.00 864.00 104.00" xmlns="http://www.w3.org/2000/svg" xmlns:xlink="http://www.w3.org/1999/xlink">
<g id="graph0" class="graph" transform="scale(1 1) rotate(0) translate(4 100)">
<title>frontEnd.AnimatorLoop.readXMLAndInitializeGrid</title>
<polygon fill="white" stroke="none" points="-4,4 -4,-100 860,-100 860,4 -4,4"/>
<!-- Node1 -->
<g id="node1" class="node"><title>Node1</title>
<polygon fill="#bfbfbf" stroke="black" points="0,-33 0,-63 152,-63 152,-33 0,-33"/>
<text text-anchor="start" x="8" y="-51" font-family="Helvetica,sans-Serif" font-size="10.00">frontEnd.AnimatorLoop.read</text>
<text text-anchor="middle" x="76" y="-40" font-family="Helvetica,sans-Serif" font-size="10.00">XMLAndInitializeGrid</text>
</g>
<!-- Node2 -->
<g id="node2" class="node"><title>Node2</title>
<g id="a_node2"><a xlink:href="../../dd/dbe/classfront_end_1_1_main.html#a7bae3127415fb2ae80975ebc95057e3f" target="_top" xlink:title="frontEnd.Main.readXML">
<polygon fill="white" stroke="black" points="188.5,-38.5 188.5,-57.5 315.5,-57.5 315.5,-38.5 188.5,-38.5"/>
<text text-anchor="middle" x="252" y="-45.5" font-family="Helvetica,sans-Serif" font-size="10.00">frontEnd.Main.readXML</text>
</a>
</g>
</g>
<!-- Node1&#45;&gt;Node2 -->
<g id="edge1" class="edge"><title>Node1&#45;&gt;Node2</title>
<path fill="none" stroke="midnightblue" d="M162.065,-48C170.959,-48 179.88,-48 188.457,-48"/>
<polygon fill="midnightblue" stroke="midnightblue" points="162.054,-44.5001 152.054,-48 162.054,-51.5001 162.054,-44.5001"/>
</g>
<!-- Node3 -->
<g id="node3" class="node"><title>Node3</title>
<g id="a_node3"><a xlink:href="../../dd/dbe/classfront_end_1_1_main.html#a55d59b110825a1cc153a0091a6e5cb99" target="_top" xlink:title="frontEnd.Main.makeMenu">
<polygon fill="white" stroke="black" points="352.5,-76.5 352.5,-95.5 491.5,-95.5 491.5,-76.5 352.5,-76.5"/>
<text text-anchor="middle" x="422" y="-83.5" font-family="Helvetica,sans-Serif" font-size="10.00">frontEnd.Main.makeMenu</text>
</a>
</g>
</g>
<!-- Node2&#45;&gt;Node3 -->
<g id="edge2" class="edge"><title>Node2&#45;&gt;Node3</title>
<path fill="none" stroke="midnightblue" d="M305.276,-59.8243C328.961,-65.1816 356.59,-71.4311 378.911,-76.4799"/>
<polygon fill="midnightblue" stroke="midnightblue" points="305.919,-56.3815 295.393,-57.589 304.375,-63.209 305.919,-56.3815"/>
</g>
<!-- Node5 -->
<g id="node5" class="node"><title>Node5</title>
<g id="a_node5"><a xlink:href="../../dd/dbe/classfront_end_1_1_main.html#a8e2e836903a64069e4283fa66309c704" target="_top" xlink:title="frontEnd.Main.resetSim">
<polygon fill="white" stroke="black" points="357.5,-0.5 357.5,-19.5 486.5,-19.5 486.5,-0.5 357.5,-0.5"/>
<text text-anchor="middle" x="422" y="-7.5" font-family="Helvetica,sans-Serif" font-size="10.00">frontEnd.Main.resetSim</text>
</a>
</g>
</g>
<!-- Node2&#45;&gt;Node5 -->
<g id="edge4" class="edge"><title>Node2&#45;&gt;Node5</title>
<path fill="none" stroke="midnightblue" d="M305.276,-36.1757C328.961,-30.8184 356.59,-24.5689 378.911,-19.5201"/>
<polygon fill="midnightblue" stroke="midnightblue" points="304.375,-32.791 295.393,-38.411 305.919,-39.6185 304.375,-32.791"/>
</g>
<!-- Node4 -->
<g id="node4" class="node"><title>Node4</title>
<g id="a_node4"><a xlink:href="../../dd/dbe/classfront_end_1_1_main.html#ae53f892716dcc60f3f49714496e30c91" target="_top" xlink:title="frontEnd.Main.start">
<polygon fill="white" stroke="black" points="748,-38.5 748,-57.5 856,-57.5 856,-38.5 748,-38.5"/>
<text text-anchor="middle" x="802" y="-45.5" font-family="Helvetica,sans-Serif" font-size="10.00">frontEnd.Main.start</text>
</a>
</g>
</g>
<!-- Node3&#45;&gt;Node4 -->
<g id="edge3" class="edge"><title>Node3&#45;&gt;Node4</title>
<path fill="none" stroke="midnightblue" d="M501.845,-83.8939C560.122,-81.5912 641.29,-76.8194 712,-67 728.588,-64.6964 746.698,-61.0429 762.226,-57.5524"/>
<polygon fill="midnightblue" stroke="midnightblue" points="501.462,-80.4058 491.602,-84.2825 501.728,-87.4007 501.462,-80.4058"/>
</g>
<!-- Node6 -->
<g id="node6" class="node"><title>Node6</title>
<g id="a_node6"><a xlink:href="../../dd/dbe/classfront_end_1_1_main.html#a0ff8a007311f8ecce84d4203dc85d669" target="_top" xlink:title="frontEnd.Main.makeParamControls">
<polygon fill="white" stroke="black" points="528.5,-38.5 528.5,-57.5 711.5,-57.5 711.5,-38.5 528.5,-38.5"/>
<text text-anchor="middle" x="620" y="-45.5" font-family="Helvetica,sans-Serif" font-size="10.00">frontEnd.Main.makeParamControls</text>
</a>
</g>
</g>
<!-- Node5&#45;&gt;Node6 -->
<g id="edge5" class="edge"><title>Node5&#45;&gt;Node6</title>
<path fill="none" stroke="midnightblue" d="M482.261,-21.4894C510.227,-26.9114 543.209,-33.3058 569.774,-38.4561"/>
<polygon fill="midnightblue" stroke="midnightblue" points="482.689,-18.0073 472.206,-19.54 481.357,-24.8794 482.689,-18.0073"/>
</g>
<!-- Node7 -->
<g id="node7" class="node"><title>Node7</title>
<g id="a_node7"><a xlink:href="../../dd/dbe/classfront_end_1_1_main.html#a1f4c19654fe78e5ebca54fc26bf43c94" target="_top" xlink:title="frontEnd.Main.useControls">
<polygon fill="white" stroke="black" points="548.5,-0.5 548.5,-19.5 691.5,-19.5 691.5,-0.5 548.5,-0.5"/>
<text text-anchor="middle" x="620" y="-7.5" font-family="Helvetica,sans-Serif" font-size="10.00">frontEnd.Main.useControls</text>
</a>
</g>
</g>
<!-- Node5&#45;&gt;Node7 -->
<g id="edge7" class="edge"><title>Node5&#45;&gt;Node7</title>
<path fill="none" stroke="midnightblue" d="M496.948,-10C513.749,-10 531.556,-10 548.222,-10"/>
<polygon fill="midnightblue" stroke="midnightblue" points="496.636,-6.5001 486.636,-10 496.636,-13.5001 496.636,-6.5001"/>
</g>
<!-- Node6&#45;&gt;Node2 -->
<g id="edge6" class="edge"><title>Node6&#45;&gt;Node2</title>
<path fill="none" stroke="midnightblue" d="M518.031,-48C453.19,-48 371.025,-48 315.502,-48"/>
<polygon fill="midnightblue" stroke="midnightblue" points="518.282,-51.5001 528.282,-48 518.282,-44.5001 518.282,-51.5001"/>
</g>
<!-- Node7&#45;&gt;Node4 -->
<g id="edge8" class="edge"><title>Node7&#45;&gt;Node4</title>
<path fill="none" stroke="midnightblue" d="M676.868,-21.6234C688.482,-24.0513 700.641,-26.6018 712,-29 726.531,-32.0681 742.391,-35.4447 756.644,-38.4897"/>
<polygon fill="midnightblue" stroke="midnightblue" points="677.34,-18.1466 666.836,-19.5282 675.909,-24.9987 677.34,-18.1466"/>
</g>
</g>
</svg>
