<?xml version="1.0" encoding="UTF-8" standalone="no"?>
<!DOCTYPE svg PUBLIC "-//W3C//DTD SVG 1.1//EN"
 "http://www.w3.org/Graphics/SVG/1.1/DTD/svg11.dtd">
<!-- Generated by graphviz version 2.36.0 (20140111.2315)
 -->
<!-- Title: frontEnd.AnimatorLoop.readXMLAndInitializeGrid Pages: 1 -->
<svg width="1034pt" height="441pt"
 viewBox="0.00 0.00 1034.00 441.00" xmlns="http://www.w3.org/2000/svg" xmlns:xlink="http://www.w3.org/1999/xlink">
<g id="graph0" class="graph" transform="scale(1 1) rotate(0) translate(4 437)">
<title>frontEnd.AnimatorLoop.readXMLAndInitializeGrid</title>
<polygon fill="white" stroke="none" points="-4,4 -4,-437 1030,-437 1030,4 -4,4"/>
<!-- Node1 -->
<g id="node1" class="node"><title>Node1</title>
<polygon fill="#bfbfbf" stroke="black" points="0,-206 0,-236 152,-236 152,-206 0,-206"/>
<text text-anchor="start" x="8" y="-224" font-family="Helvetica,sans-Serif" font-size="10.00">frontEnd.AnimatorLoop.read</text>
<text text-anchor="middle" x="76" y="-213" font-family="Helvetica,sans-Serif" font-size="10.00">XMLAndInitializeGrid</text>
</g>
<!-- Node2 -->
<g id="node2" class="node"><title>Node2</title>
<g id="a_node2"><a xlink:href="../../d1/dfc/classback_end_1_1_rule_set.html#a9feb2a620b625065a9436f2e2246b094" target="_top" xlink:title="backEnd.RuleSet.addGrid">
<polygon fill="white" stroke="black" points="213.5,-413.5 213.5,-432.5 350.5,-432.5 350.5,-413.5 213.5,-413.5"/>
<text text-anchor="middle" x="282" y="-420.5" font-family="Helvetica,sans-Serif" font-size="10.00">backEnd.RuleSet.addGrid</text>
</a>
</g>
</g>
<!-- Node1&#45;&gt;Node2 -->
<g id="edge1" class="edge"><title>Node1&#45;&gt;Node2</title>
<path fill="none" stroke="midnightblue" d="M81.9957,-236.122C94.2095,-270.664 128.975,-355.703 188,-399 193.916,-403.34 200.546,-406.896 207.469,-409.811"/>
<polygon fill="midnightblue" stroke="midnightblue" points="206.46,-413.171 217.052,-413.402 208.916,-406.616 206.46,-413.171"/>
</g>
<!-- Node3 -->
<g id="node3" class="node"><title>Node3</title>
<g id="a_node3"><a xlink:href="../../dc/da1/classfront_end_1_1_animator_loop.html#a467af791b6cbba9bb796678842386ca2" target="_top" xlink:title="frontEnd.AnimatorLoop.check\lBadXMLFileData">
<polygon fill="white" stroke="black" points="203,-326 203,-356 361,-356 361,-326 203,-326"/>
<text text-anchor="start" x="211" y="-344" font-family="Helvetica,sans-Serif" font-size="10.00">frontEnd.AnimatorLoop.check</text>
<text text-anchor="middle" x="282" y="-333" font-family="Helvetica,sans-Serif" font-size="10.00">BadXMLFileData</text>
</a>
</g>
</g>
<!-- Node1&#45;&gt;Node3 -->
<g id="edge2" class="edge"><title>Node1&#45;&gt;Node3</title>
<path fill="none" stroke="midnightblue" d="M90.5117,-236.219C109.999,-257.238 148.062,-294.941 188,-316 192.303,-318.269 196.829,-320.345 201.471,-322.243"/>
<polygon fill="midnightblue" stroke="midnightblue" points="200.54,-325.632 211.131,-325.892 203.014,-319.084 200.54,-325.632"/>
</g>
<!-- Node4 -->
<g id="node4" class="node"><title>Node4</title>
<g id="a_node4"><a xlink:href="../../d5/d51/classfront_end_1_1_c_a_settings.html#a5c62b367ceda95101ac5ff5c3048cf1c" target="_top" xlink:title="frontEnd.CASettings.getType">
<polygon fill="white" stroke="black" points="426.5,-372.5 426.5,-391.5 579.5,-391.5 579.5,-372.5 426.5,-372.5"/>
<text text-anchor="middle" x="503" y="-379.5" font-family="Helvetica,sans-Serif" font-size="10.00">frontEnd.CASettings.getType</text>
</a>
</g>
</g>
<!-- Node1&#45;&gt;Node4 -->
<g id="edge10" class="edge"><title>Node1&#45;&gt;Node4</title>
<path fill="none" stroke="midnightblue" d="M83.41,-236.278C97.2655,-267.093 133.241,-336.206 188,-365 267.694,-406.905 375.029,-401.872 441.313,-392.987"/>
<polygon fill="midnightblue" stroke="midnightblue" points="442.177,-396.4 451.588,-391.534 441.197,-389.469 442.177,-396.4"/>
</g>
<!-- Node7 -->
<g id="node7" class="node"><title>Node7</title>
<g id="a_node7"><a xlink:href="../../d5/d51/classfront_end_1_1_c_a_settings.html#ad1a35159c9a3b860bd4af0d12e40b169" target="_top" xlink:title="frontEnd.CASettings.getColumns">
<polygon fill="white" stroke="black" points="195,-287.5 195,-306.5 369,-306.5 369,-287.5 195,-287.5"/>
<text text-anchor="middle" x="282" y="-294.5" font-family="Helvetica,sans-Serif" font-size="10.00">frontEnd.CASettings.getColumns</text>
</a>
</g>
</g>
<!-- Node1&#45;&gt;Node7 -->
<g id="edge6" class="edge"><title>Node1&#45;&gt;Node7</title>
<path fill="none" stroke="midnightblue" d="M105.59,-236.194C127.648,-247.47 159.165,-262.627 188,-273 200.503,-277.498 214.234,-281.521 227.216,-284.929"/>
<polygon fill="midnightblue" stroke="midnightblue" points="226.41,-288.336 236.965,-287.413 228.139,-281.553 226.41,-288.336"/>
</g>
<!-- Node8 -->
<g id="node8" class="node"><title>Node8</title>
<g id="a_node8"><a xlink:href="../../d5/d51/classfront_end_1_1_c_a_settings.html#a9b6c355e48adf9a7db04c30c74aac53f" target="_top" xlink:title="frontEnd.CASettings.getGrid">
<polygon fill="white" stroke="black" points="427,-217.5 427,-236.5 579,-236.5 579,-217.5 427,-217.5"/>
<text text-anchor="middle" x="503" y="-224.5" font-family="Helvetica,sans-Serif" font-size="10.00">frontEnd.CASettings.getGrid</text>
</a>
</g>
</g>
<!-- Node1&#45;&gt;Node8 -->
<g id="edge7" class="edge"><title>Node1&#45;&gt;Node8</title>
<path fill="none" stroke="midnightblue" d="M152.011,-235.612C164.004,-237.436 176.311,-239.007 188,-240 271.256,-247.074 292.555,-244.293 376,-240 389.126,-239.325 402.99,-238.256 416.533,-237.015"/>
<polygon fill="midnightblue" stroke="midnightblue" points="417.187,-240.468 426.809,-236.035 416.522,-233.5 417.187,-240.468"/>
</g>
<!-- Node9 -->
<g id="node9" class="node"><title>Node9</title>
<g id="a_node9"><a xlink:href="../../d5/d51/classfront_end_1_1_c_a_settings.html#a560c336f7aed8050af9a606949926548" target="_top" xlink:title="frontEnd.CASettings.getParameters">
<polygon fill="white" stroke="black" points="188,-211.5 188,-230.5 376,-230.5 376,-211.5 188,-211.5"/>
<text text-anchor="middle" x="282" y="-218.5" font-family="Helvetica,sans-Serif" font-size="10.00">frontEnd.CASettings.getParameters</text>
</a>
</g>
</g>
<!-- Node1&#45;&gt;Node9 -->
<g id="edge8" class="edge"><title>Node1&#45;&gt;Node9</title>
<path fill="none" stroke="midnightblue" d="M152.093,-221C160.422,-221 169.008,-221 177.608,-221"/>
<polygon fill="midnightblue" stroke="midnightblue" points="177.695,-224.5 187.695,-221 177.695,-217.5 177.695,-224.5"/>
</g>
<!-- Node10 -->
<g id="node10" class="node"><title>Node10</title>
<g id="a_node10"><a xlink:href="../../d5/d51/classfront_end_1_1_c_a_settings.html#aef613fb5595d20d85dad92cf5f5efad9" target="_top" xlink:title="frontEnd.CASettings.getRows">
<polygon fill="white" stroke="black" points="204.5,-173.5 204.5,-192.5 359.5,-192.5 359.5,-173.5 204.5,-173.5"/>
<text text-anchor="middle" x="282" y="-180.5" font-family="Helvetica,sans-Serif" font-size="10.00">frontEnd.CASettings.getRows</text>
</a>
</g>
</g>
<!-- Node1&#45;&gt;Node10 -->
<g id="edge9" class="edge"><title>Node1&#45;&gt;Node10</title>
<path fill="none" stroke="midnightblue" d="M152.093,-207.012C174.454,-202.847 198.673,-198.335 220.017,-194.359"/>
<polygon fill="midnightblue" stroke="midnightblue" points="220.733,-197.786 229.923,-192.514 219.451,-190.905 220.733,-197.786"/>
</g>
<!-- Node11 -->
<g id="node11" class="node"><title>Node11</title>
<g id="a_node11"><a xlink:href="../../dc/da1/classfront_end_1_1_animator_loop.html#af1d1ddcc3fe02f0d1c6ba1f234d455cc" target="_top" xlink:title="frontEnd.AnimatorLoop.initGrid">
<polygon fill="white" stroke="black" points="200,-135.5 200,-154.5 364,-154.5 364,-135.5 200,-135.5"/>
<text text-anchor="middle" x="282" y="-142.5" font-family="Helvetica,sans-Serif" font-size="10.00">frontEnd.AnimatorLoop.initGrid</text>
</a>
</g>
</g>
<!-- Node1&#45;&gt;Node11 -->
<g id="edge11" class="edge"><title>Node1&#45;&gt;Node11</title>
<path fill="none" stroke="midnightblue" d="M101.693,-205.827C123.628,-192.965 156.935,-174.918 188,-164 195.627,-161.32 203.745,-158.969 211.887,-156.92"/>
<polygon fill="midnightblue" stroke="midnightblue" points="212.877,-160.282 221.799,-154.568 211.261,-153.471 212.877,-160.282"/>
</g>
<!-- Node14 -->
<g id="node14" class="node"><title>Node14</title>
<g id="a_node14"><a xlink:href="../../dc/da1/classfront_end_1_1_animator_loop.html#a92b2bebb55107557a33d1621ddae5872" target="_top" xlink:title="frontEnd.AnimatorLoop.init\lGridPane">
<polygon fill="white" stroke="black" points="209.5,-86 209.5,-116 354.5,-116 354.5,-86 209.5,-86"/>
<text text-anchor="start" x="217.5" y="-104" font-family="Helvetica,sans-Serif" font-size="10.00">frontEnd.AnimatorLoop.init</text>
<text text-anchor="middle" x="282" y="-93" font-family="Helvetica,sans-Serif" font-size="10.00">GridPane</text>
</a>
</g>
</g>
<!-- Node1&#45;&gt;Node14 -->
<g id="edge15" class="edge"><title>Node1&#45;&gt;Node14</title>
<path fill="none" stroke="midnightblue" d="M90.5117,-205.781C109.999,-184.762 148.062,-147.059 188,-126 192.303,-123.731 196.829,-121.655 201.471,-119.757"/>
<polygon fill="midnightblue" stroke="midnightblue" points="203.014,-122.916 211.131,-116.108 200.54,-116.368 203.014,-122.916"/>
</g>
<!-- Node20 -->
<g id="node20" class="node"><title>Node20</title>
<g id="a_node20"><a xlink:href="../../d0/d87/classfront_end_1_1_x_m_l_handler.html#a5ec2b2b772a94660c130efe55a8d356e" target="_top" xlink:title="frontEnd.XMLHandler.read">
<polygon fill="white" stroke="black" points="211.5,-45.5 211.5,-64.5 352.5,-64.5 352.5,-45.5 211.5,-45.5"/>
<text text-anchor="middle" x="282" y="-52.5" font-family="Helvetica,sans-Serif" font-size="10.00">frontEnd.XMLHandler.read</text>
</a>
</g>
</g>
<!-- Node1&#45;&gt;Node20 -->
<g id="edge21" class="edge"><title>Node1&#45;&gt;Node20</title>
<path fill="none" stroke="midnightblue" d="M84.0369,-205.905C98.7887,-176.024 135.945,-109.348 188,-76 192.704,-72.9865 197.784,-70.4026 203.059,-68.1874"/>
<polygon fill="midnightblue" stroke="midnightblue" points="204.578,-71.3566 212.726,-64.585 202.134,-64.7972 204.578,-71.3566"/>
</g>
<!-- Node23 -->
<g id="node23" class="node"><title>Node23</title>
<g id="a_node23"><a xlink:href="../../d1/dfc/classback_end_1_1_rule_set.html#ae12bb5fde75014f04b76b4a9f77d5b19" target="_top" xlink:title="backEnd.RuleSet.setParams">
<polygon fill="white" stroke="black" points="207,-7.5 207,-26.5 357,-26.5 357,-7.5 207,-7.5"/>
<text text-anchor="middle" x="282" y="-14.5" font-family="Helvetica,sans-Serif" font-size="10.00">backEnd.RuleSet.setParams</text>
</a>
</g>
</g>
<!-- Node1&#45;&gt;Node23 -->
<g id="edge24" class="edge"><title>Node1&#45;&gt;Node23</title>
<path fill="none" stroke="midnightblue" d="M81.4058,-205.879C92.6707,-170.071 126.091,-79.8201 188,-36 190.913,-33.9382 193.999,-32.0892 197.207,-30.4319"/>
<polygon fill="midnightblue" stroke="midnightblue" points="198.839,-33.5359 206.531,-26.2508 195.975,-27.1486 198.839,-33.5359"/>
</g>
<!-- Node3&#45;&gt;Node4 -->
<g id="edge3" class="edge"><title>Node3&#45;&gt;Node4</title>
<path fill="none" stroke="midnightblue" d="M361.137,-355.628C387.48,-360.56 416.468,-365.987 441.264,-370.629"/>
<polygon fill="midnightblue" stroke="midnightblue" points="440.783,-374.1 451.256,-372.5 442.071,-367.22 440.783,-374.1"/>
</g>
<!-- Node5 -->
<g id="node5" class="node"><title>Node5</title>
<g id="a_node5"><a xlink:href="../../dd/dbe/classfront_end_1_1_main.html#a1c9672872cb8b8f6efe2d1ddce9a6b61" target="_top" xlink:title="frontEnd.Main.showPopupMessage">
<polygon fill="white" stroke="black" points="412,-331.5 412,-350.5 594,-350.5 594,-331.5 412,-331.5"/>
<text text-anchor="middle" x="503" y="-338.5" font-family="Helvetica,sans-Serif" font-size="10.00">frontEnd.Main.showPopupMessage</text>
</a>
</g>
</g>
<!-- Node3&#45;&gt;Node5 -->
<g id="edge4" class="edge"><title>Node3&#45;&gt;Node5</title>
<path fill="none" stroke="midnightblue" d="M361.137,-341C374.253,-341 388.026,-341 401.61,-341"/>
<polygon fill="midnightblue" stroke="midnightblue" points="401.948,-344.5 411.948,-341 401.948,-337.5 401.948,-344.5"/>
</g>
<!-- Node6 -->
<g id="node6" class="node"><title>Node6</title>
<g id="a_node6"><a xlink:href="../../dd/dbe/classfront_end_1_1_main.html#aef35ad9be3f43a5367d7a8ab30d0bec1" target="_top" xlink:title="frontEnd.Main.createPopup">
<polygon fill="white" stroke="black" points="650,-331.5 650,-350.5 796,-350.5 796,-331.5 650,-331.5"/>
<text text-anchor="middle" x="723" y="-338.5" font-family="Helvetica,sans-Serif" font-size="10.00">frontEnd.Main.createPopup</text>
</a>
</g>
</g>
<!-- Node5&#45;&gt;Node6 -->
<g id="edge5" class="edge"><title>Node5&#45;&gt;Node6</title>
<path fill="none" stroke="midnightblue" d="M594.243,-341C609.28,-341 624.808,-341 639.636,-341"/>
<polygon fill="midnightblue" stroke="midnightblue" points="639.775,-344.5 649.775,-341 639.775,-337.5 639.775,-344.5"/>
</g>
<!-- Node11&#45;&gt;Node8 -->
<g id="edge12" class="edge"><title>Node11&#45;&gt;Node8</title>
<path fill="none" stroke="midnightblue" d="M341.675,-154.551C353.203,-157.107 365.097,-160.234 376,-164 412.897,-176.745 452.764,-198.087 477.555,-212.352"/>
<polygon fill="midnightblue" stroke="midnightblue" points="475.879,-215.426 486.281,-217.44 479.405,-209.379 475.879,-215.426"/>
</g>
<!-- Node12 -->
<g id="node12" class="node"><title>Node12</title>
<g id="a_node12"><a xlink:href="../../d1/dfc/classback_end_1_1_rule_set.html#a603d39da71653ea4bbdadf3d78978981" target="_top" xlink:title="backEnd.RuleSet.initialize\lPatch">
<polygon fill="white" stroke="black" points="434.5,-137 434.5,-167 571.5,-167 571.5,-137 434.5,-137"/>
<text text-anchor="start" x="442.5" y="-155" font-family="Helvetica,sans-Serif" font-size="10.00">backEnd.RuleSet.initialize</text>
<text text-anchor="middle" x="503" y="-144" font-family="Helvetica,sans-Serif" font-size="10.00">Patch</text>
</a>
</g>
</g>
<!-- Node11&#45;&gt;Node12 -->
<g id="edge13" class="edge"><title>Node11&#45;&gt;Node12</title>
<path fill="none" stroke="midnightblue" d="M364.236,-147.597C383.828,-148.223 404.715,-148.89 424.148,-149.512"/>
<polygon fill="midnightblue" stroke="midnightblue" points="424.056,-153.01 434.163,-149.832 424.28,-146.014 424.056,-153.01"/>
</g>
<!-- Node13 -->
<g id="node13" class="node"><title>Node13</title>
<g id="a_node13"><a xlink:href="../../db/d5e/classback_end_1_1_patch.html#ac9c7bf582f9e7aec34492785fea4cf68" target="_top" xlink:title="backEnd.Patch.fill">
<polygon fill="white" stroke="black" points="673.5,-142.5 673.5,-161.5 772.5,-161.5 772.5,-142.5 673.5,-142.5"/>
<text text-anchor="middle" x="723" y="-149.5" font-family="Helvetica,sans-Serif" font-size="10.00">backEnd.Patch.fill</text>
</a>
</g>
</g>
<!-- Node12&#45;&gt;Node13 -->
<g id="edge14" class="edge"><title>Node12&#45;&gt;Node13</title>
<path fill="none" stroke="midnightblue" d="M571.782,-152C601.058,-152 634.988,-152 663.185,-152"/>
<polygon fill="midnightblue" stroke="midnightblue" points="663.295,-155.5 673.295,-152 663.295,-148.5 663.295,-155.5"/>
</g>
<!-- Node15 -->
<g id="node15" class="node"><title>Node15</title>
<g id="a_node15"><a xlink:href="../../dc/da1/classfront_end_1_1_animator_loop.html#aa8be847f0f9efee238193322c5ab9f5b" target="_top" xlink:title="frontEnd.AnimatorLoop.add\lCellsToGrid">
<polygon fill="white" stroke="black" points="428.5,-88 428.5,-118 577.5,-118 577.5,-88 428.5,-88"/>
<text text-anchor="start" x="436.5" y="-106" font-family="Helvetica,sans-Serif" font-size="10.00">frontEnd.AnimatorLoop.add</text>
<text text-anchor="middle" x="503" y="-95" font-family="Helvetica,sans-Serif" font-size="10.00">CellsToGrid</text>
</a>
</g>
</g>
<!-- Node14&#45;&gt;Node15 -->
<g id="edge16" class="edge"><title>Node14&#45;&gt;Node15</title>
<path fill="none" stroke="midnightblue" d="M354.709,-101.655C374.97,-101.84 397.199,-102.043 418.108,-102.234"/>
<polygon fill="midnightblue" stroke="midnightblue" points="418.221,-105.735 428.252,-102.327 418.285,-98.7352 418.221,-105.735"/>
</g>
<!-- Node16 -->
<g id="node16" class="node"><title>Node16</title>
<g id="a_node16"><a xlink:href="../../d4/d6c/classshape_factories_1_1_shape_factory.html#a7a14b33c28eb5951679f13f21633bdf4" target="_top" xlink:title="shapeFactories.ShapeFactory.make\lShape">
<polygon fill="white" stroke="black" points="630.5,-91 630.5,-121 815.5,-121 815.5,-91 630.5,-91"/>
<text text-anchor="start" x="638.5" y="-109" font-family="Helvetica,sans-Serif" font-size="10.00">shapeFactories.ShapeFactory.make</text>
<text text-anchor="middle" x="723" y="-98" font-family="Helvetica,sans-Serif" font-size="10.00">Shape</text>
</a>
</g>
</g>
<!-- Node15&#45;&gt;Node16 -->
<g id="edge17" class="edge"><title>Node15&#45;&gt;Node16</title>
<path fill="none" stroke="midnightblue" d="M577.501,-104.011C591.128,-104.199 605.586,-104.398 619.885,-104.595"/>
<polygon fill="midnightblue" stroke="midnightblue" points="620.208,-108.099 630.255,-104.737 620.304,-101.1 620.208,-108.099"/>
</g>
<!-- Node19 -->
<g id="node19" class="node"><title>Node19</title>
<g id="a_node19"><a xlink:href="../../d4/d6c/classshape_factories_1_1_shape_factory.html#a6dbdc6b9de19c9685fc9c2361d982b2f" target="_top" xlink:title="shapeFactories.ShapeFactory.move">
<polygon fill="white" stroke="black" points="630.5,-52.5 630.5,-71.5 815.5,-71.5 815.5,-52.5 630.5,-52.5"/>
<text text-anchor="middle" x="723" y="-59.5" font-family="Helvetica,sans-Serif" font-size="10.00">shapeFactories.ShapeFactory.move</text>
</a>
</g>
</g>
<!-- Node15&#45;&gt;Node19 -->
<g id="edge20" class="edge"><title>Node15&#45;&gt;Node19</title>
<path fill="none" stroke="midnightblue" d="M577.501,-89.1764C604.782,-84.0456 635.393,-78.2885 661.394,-73.3983"/>
<polygon fill="midnightblue" stroke="midnightblue" points="662.306,-76.7883 671.487,-71.5002 661.012,-69.9089 662.306,-76.7883"/>
</g>
<!-- Node17 -->
<g id="node17" class="node"><title>Node17</title>
<g id="a_node17"><a xlink:href="../../d4/d6c/classshape_factories_1_1_shape_factory.html#adcf2f7637e2a6ed76a74dceaf986f8a5" target="_top" xlink:title="shapeFactories.ShapeFactory.set\lDimensions">
<polygon fill="white" stroke="black" points="852.5,-116 852.5,-146 1025.5,-146 1025.5,-116 852.5,-116"/>
<text text-anchor="start" x="860.5" y="-134" font-family="Helvetica,sans-Serif" font-size="10.00">shapeFactories.ShapeFactory.set</text>
<text text-anchor="middle" x="939" y="-123" font-family="Helvetica,sans-Serif" font-size="10.00">Dimensions</text>
</a>
</g>
</g>
<!-- Node16&#45;&gt;Node17 -->
<g id="edge18" class="edge"><title>Node16&#45;&gt;Node17</title>
<path fill="none" stroke="midnightblue" d="M815.687,-116.711C824.506,-117.741 833.467,-118.788 842.323,-119.823"/>
<polygon fill="midnightblue" stroke="midnightblue" points="841.926,-123.3 852.265,-120.984 842.739,-116.347 841.926,-123.3"/>
</g>
<!-- Node18 -->
<g id="node18" class="node"><title>Node18</title>
<g id="a_node18"><a xlink:href="../../d4/d6c/classshape_factories_1_1_shape_factory.html#a02796a37b5651bf8fe6dc075f5e6e444" target="_top" xlink:title="shapeFactories.ShapeFactory.set\lCoords">
<polygon fill="white" stroke="black" points="852.5,-67 852.5,-97 1025.5,-97 1025.5,-67 852.5,-67"/>
<text text-anchor="start" x="860.5" y="-85" font-family="Helvetica,sans-Serif" font-size="10.00">shapeFactories.ShapeFactory.set</text>
<text text-anchor="middle" x="939" y="-74" font-family="Helvetica,sans-Serif" font-size="10.00">Coords</text>
</a>
</g>
</g>
<!-- Node16&#45;&gt;Node18 -->
<g id="edge19" class="edge"><title>Node16&#45;&gt;Node18</title>
<path fill="none" stroke="midnightblue" d="M815.687,-95.7174C824.506,-94.7283 833.467,-93.7233 842.323,-92.7301"/>
<polygon fill="midnightblue" stroke="midnightblue" points="842.717,-96.2079 852.265,-91.6151 841.937,-89.2515 842.717,-96.2079"/>
</g>
<!-- Node21 -->
<g id="node21" class="node"><title>Node21</title>
<g id="a_node21"><a xlink:href="../../d0/d87/classfront_end_1_1_x_m_l_handler.html#a4946a8ebfe5de06e04a84fee47d14a36" target="_top" xlink:title="frontEnd.XMLHandler.read\lParameters">
<polygon fill="white" stroke="black" points="432.5,-39 432.5,-69 573.5,-69 573.5,-39 432.5,-39"/>
<text text-anchor="start" x="440.5" y="-57" font-family="Helvetica,sans-Serif" font-size="10.00">frontEnd.XMLHandler.read</text>
<text text-anchor="middle" x="503" y="-46" font-family="Helvetica,sans-Serif" font-size="10.00">Parameters</text>
</a>
</g>
</g>
<!-- Node20&#45;&gt;Node21 -->
<g id="edge22" class="edge"><title>Node20&#45;&gt;Node21</title>
<path fill="none" stroke="midnightblue" d="M352.594,-54.6822C374.642,-54.5815 399.191,-54.4694 421.915,-54.3657"/>
<polygon fill="midnightblue" stroke="midnightblue" points="422.228,-57.8644 432.211,-54.3187 422.196,-50.8645 422.228,-57.8644"/>
</g>
<!-- Node22 -->
<g id="node22" class="node"><title>Node22</title>
<g id="a_node22"><a xlink:href="../../d0/d87/classfront_end_1_1_x_m_l_handler.html#ae0df3c17a5ff74491584286b4e830fba" target="_top" xlink:title="frontEnd.XMLHandler.readGrid">
<polygon fill="white" stroke="black" points="422.5,-0.5 422.5,-19.5 583.5,-19.5 583.5,-0.5 422.5,-0.5"/>
<text text-anchor="middle" x="503" y="-7.5" font-family="Helvetica,sans-Serif" font-size="10.00">frontEnd.XMLHandler.readGrid</text>
</a>
</g>
</g>
<!-- Node20&#45;&gt;Node22 -->
<g id="edge23" class="edge"><title>Node20&#45;&gt;Node22</title>
<path fill="none" stroke="midnightblue" d="M329.838,-45.4496C344.609,-42.4328 360.987,-39.0825 376,-36 398.855,-31.3074 424.036,-26.1155 445.841,-21.613"/>
<polygon fill="midnightblue" stroke="midnightblue" points="446.839,-24.9809 455.924,-19.5304 445.423,-18.1256 446.839,-24.9809"/>
</g>
</g>
</svg>
