<?xml version="1.0" encoding="UTF-8" standalone="no"?>
<!DOCTYPE svg PUBLIC "-//W3C//DTD SVG 1.1//EN"
 "http://www.w3.org/Graphics/SVG/1.1/DTD/svg11.dtd">
<!-- Generated by graphviz version 2.36.0 (20140111.2315)
 -->
<!-- Title: frontEnd.AnimatorLoop.initGrid Pages: 1 -->
<svg width="1064pt" height="104pt"
 viewBox="0.00 0.00 1064.00 104.00" xmlns="http://www.w3.org/2000/svg" xmlns:xlink="http://www.w3.org/1999/xlink">
<g id="graph0" class="graph" transform="scale(1 1) rotate(0) translate(4 100)">
<title>frontEnd.AnimatorLoop.initGrid</title>
<polygon fill="white" stroke="none" points="-4,4 -4,-100 1060,-100 1060,4 -4,4"/>
<!-- Node1 -->
<g id="node1" class="node"><title>Node1</title>
<polygon fill="#bfbfbf" stroke="black" points="0,-38.5 0,-57.5 164,-57.5 164,-38.5 0,-38.5"/>
<text text-anchor="middle" x="82" y="-45.5" font-family="Helvetica,sans-Serif" font-size="10.00">frontEnd.AnimatorLoop.initGrid</text>
</g>
<!-- Node2 -->
<g id="node2" class="node"><title>Node2</title>
<g id="a_node2"><a xlink:href="../../dc/da1/classfront_end_1_1_animator_loop.html#a1f378b18807af5386266685e907aa8c7" target="_top" xlink:title="frontEnd.AnimatorLoop.read\lXMLAndInitializeGrid">
<polygon fill="white" stroke="black" points="200,-33 200,-63 352,-63 352,-33 200,-33"/>
<text text-anchor="start" x="208" y="-51" font-family="Helvetica,sans-Serif" font-size="10.00">frontEnd.AnimatorLoop.read</text>
<text text-anchor="middle" x="276" y="-40" font-family="Helvetica,sans-Serif" font-size="10.00">XMLAndInitializeGrid</text>
</a>
</g>
</g>
<!-- Node1&#45;&gt;Node2 -->
<g id="edge1" class="edge"><title>Node1&#45;&gt;Node2</title>
<path fill="none" stroke="midnightblue" d="M174.221,-48C182.837,-48 191.505,-48 199.945,-48"/>
<polygon fill="midnightblue" stroke="midnightblue" points="174.147,-44.5001 164.147,-48 174.147,-51.5001 174.147,-44.5001"/>
</g>
<!-- Node3 -->
<g id="node3" class="node"><title>Node3</title>
<g id="a_node3"><a xlink:href="../../dd/dbe/classfront_end_1_1_main.html#a7bae3127415fb2ae80975ebc95057e3f" target="_top" xlink:title="frontEnd.Main.readXML">
<polygon fill="white" stroke="black" points="388.5,-38.5 388.5,-57.5 515.5,-57.5 515.5,-38.5 388.5,-38.5"/>
<text text-anchor="middle" x="452" y="-45.5" font-family="Helvetica,sans-Serif" font-size="10.00">frontEnd.Main.readXML</text>
</a>
</g>
</g>
<!-- Node2&#45;&gt;Node3 -->
<g id="edge2" class="edge"><title>Node2&#45;&gt;Node3</title>
<path fill="none" stroke="midnightblue" d="M362.065,-48C370.959,-48 379.88,-48 388.457,-48"/>
<polygon fill="midnightblue" stroke="midnightblue" points="362.054,-44.5001 352.054,-48 362.054,-51.5001 362.054,-44.5001"/>
</g>
<!-- Node4 -->
<g id="node4" class="node"><title>Node4</title>
<g id="a_node4"><a xlink:href="../../dd/dbe/classfront_end_1_1_main.html#a55d59b110825a1cc153a0091a6e5cb99" target="_top" xlink:title="frontEnd.Main.makeMenu">
<polygon fill="white" stroke="black" points="552.5,-76.5 552.5,-95.5 691.5,-95.5 691.5,-76.5 552.5,-76.5"/>
<text text-anchor="middle" x="622" y="-83.5" font-family="Helvetica,sans-Serif" font-size="10.00">frontEnd.Main.makeMenu</text>
</a>
</g>
</g>
<!-- Node3&#45;&gt;Node4 -->
<g id="edge3" class="edge"><title>Node3&#45;&gt;Node4</title>
<path fill="none" stroke="midnightblue" d="M505.276,-59.8243C528.961,-65.1816 556.59,-71.4311 578.911,-76.4799"/>
<polygon fill="midnightblue" stroke="midnightblue" points="505.919,-56.3815 495.393,-57.589 504.375,-63.209 505.919,-56.3815"/>
</g>
<!-- Node6 -->
<g id="node6" class="node"><title>Node6</title>
<g id="a_node6"><a xlink:href="../../dd/dbe/classfront_end_1_1_main.html#a8e2e836903a64069e4283fa66309c704" target="_top" xlink:title="frontEnd.Main.resetSim">
<polygon fill="white" stroke="black" points="557.5,-0.5 557.5,-19.5 686.5,-19.5 686.5,-0.5 557.5,-0.5"/>
<text text-anchor="middle" x="622" y="-7.5" font-family="Helvetica,sans-Serif" font-size="10.00">frontEnd.Main.resetSim</text>
</a>
</g>
</g>
<!-- Node3&#45;&gt;Node6 -->
<g id="edge5" class="edge"><title>Node3&#45;&gt;Node6</title>
<path fill="none" stroke="midnightblue" d="M505.276,-36.1757C528.961,-30.8184 556.59,-24.5689 578.911,-19.5201"/>
<polygon fill="midnightblue" stroke="midnightblue" points="504.375,-32.791 495.393,-38.411 505.919,-39.6185 504.375,-32.791"/>
</g>
<!-- Node5 -->
<g id="node5" class="node"><title>Node5</title>
<g id="a_node5"><a xlink:href="../../dd/dbe/classfront_end_1_1_main.html#ae53f892716dcc60f3f49714496e30c91" target="_top" xlink:title="frontEnd.Main.start">
<polygon fill="white" stroke="black" points="948,-38.5 948,-57.5 1056,-57.5 1056,-38.5 948,-38.5"/>
<text text-anchor="middle" x="1002" y="-45.5" font-family="Helvetica,sans-Serif" font-size="10.00">frontEnd.Main.start</text>
</a>
</g>
</g>
<!-- Node4&#45;&gt;Node5 -->
<g id="edge4" class="edge"><title>Node4&#45;&gt;Node5</title>
<path fill="none" stroke="midnightblue" d="M701.845,-83.8939C760.122,-81.5912 841.29,-76.8194 912,-67 928.588,-64.6964 946.698,-61.0429 962.226,-57.5524"/>
<polygon fill="midnightblue" stroke="midnightblue" points="701.462,-80.4058 691.602,-84.2825 701.728,-87.4007 701.462,-80.4058"/>
</g>
<!-- Node7 -->
<g id="node7" class="node"><title>Node7</title>
<g id="a_node7"><a xlink:href="../../dd/dbe/classfront_end_1_1_main.html#a0ff8a007311f8ecce84d4203dc85d669" target="_top" xlink:title="frontEnd.Main.makeParamControls">
<polygon fill="white" stroke="black" points="728.5,-38.5 728.5,-57.5 911.5,-57.5 911.5,-38.5 728.5,-38.5"/>
<text text-anchor="middle" x="820" y="-45.5" font-family="Helvetica,sans-Serif" font-size="10.00">frontEnd.Main.makeParamControls</text>
</a>
</g>
</g>
<!-- Node6&#45;&gt;Node7 -->
<g id="edge6" class="edge"><title>Node6&#45;&gt;Node7</title>
<path fill="none" stroke="midnightblue" d="M682.261,-21.4894C710.227,-26.9114 743.209,-33.3058 769.774,-38.4561"/>
<polygon fill="midnightblue" stroke="midnightblue" points="682.689,-18.0073 672.206,-19.54 681.357,-24.8794 682.689,-18.0073"/>
</g>
<!-- Node8 -->
<g id="node8" class="node"><title>Node8</title>
<g id="a_node8"><a xlink:href="../../dd/dbe/classfront_end_1_1_main.html#a1f4c19654fe78e5ebca54fc26bf43c94" target="_top" xlink:title="frontEnd.Main.useControls">
<polygon fill="white" stroke="black" points="748.5,-0.5 748.5,-19.5 891.5,-19.5 891.5,-0.5 748.5,-0.5"/>
<text text-anchor="middle" x="820" y="-7.5" font-family="Helvetica,sans-Serif" font-size="10.00">frontEnd.Main.useControls</text>
</a>
</g>
</g>
<!-- Node6&#45;&gt;Node8 -->
<g id="edge8" class="edge"><title>Node6&#45;&gt;Node8</title>
<path fill="none" stroke="midnightblue" d="M696.948,-10C713.749,-10 731.556,-10 748.222,-10"/>
<polygon fill="midnightblue" stroke="midnightblue" points="696.636,-6.5001 686.636,-10 696.636,-13.5001 696.636,-6.5001"/>
</g>
<!-- Node7&#45;&gt;Node3 -->
<g id="edge7" class="edge"><title>Node7&#45;&gt;Node3</title>
<path fill="none" stroke="midnightblue" d="M718.031,-48C653.19,-48 571.025,-48 515.502,-48"/>
<polygon fill="midnightblue" stroke="midnightblue" points="718.282,-51.5001 728.282,-48 718.282,-44.5001 718.282,-51.5001"/>
</g>
<!-- Node8&#45;&gt;Node5 -->
<g id="edge9" class="edge"><title>Node8&#45;&gt;Node5</title>
<path fill="none" stroke="midnightblue" d="M876.868,-21.6234C888.482,-24.0513 900.641,-26.6018 912,-29 926.531,-32.0681 942.391,-35.4447 956.644,-38.4897"/>
<polygon fill="midnightblue" stroke="midnightblue" points="877.34,-18.1466 866.836,-19.5282 875.909,-24.9987 877.34,-18.1466"/>
</g>
</g>
</svg>
