<?xml version="1.0" encoding="UTF-8" standalone="no"?>
<!DOCTYPE svg PUBLIC "-//W3C//DTD SVG 1.1//EN"
 "http://www.w3.org/Graphics/SVG/1.1/DTD/svg11.dtd">
<!-- Generated by graphviz version 2.36.0 (20140111.2315)
 -->
<!-- Title: frontEnd.AnimatorLoop.initGrid Pages: 1 -->
<svg width="496pt" height="77pt"
 viewBox="0.00 0.00 496.00 77.00" xmlns="http://www.w3.org/2000/svg" xmlns:xlink="http://www.w3.org/1999/xlink">
<g id="graph0" class="graph" transform="scale(1 1) rotate(0) translate(4 73)">
<title>frontEnd.AnimatorLoop.initGrid</title>
<polygon fill="white" stroke="none" points="-4,4 -4,-73 492,-73 492,4 -4,4"/>
<!-- Node1 -->
<g id="node1" class="node"><title>Node1</title>
<polygon fill="#bfbfbf" stroke="black" points="0,-27.5 0,-46.5 164,-46.5 164,-27.5 0,-27.5"/>
<text text-anchor="middle" x="82" y="-34.5" font-family="Helvetica,sans-Serif" font-size="10.00">frontEnd.AnimatorLoop.initGrid</text>
</g>
<!-- Node2 -->
<g id="node2" class="node"><title>Node2</title>
<g id="a_node2"><a xlink:href="../../d5/d51/classfront_end_1_1_c_a_settings.html#a9b6c355e48adf9a7db04c30c74aac53f" target="_top" xlink:title="frontEnd.CASettings.getGrid">
<polygon fill="white" stroke="black" points="200,-49.5 200,-68.5 352,-68.5 352,-49.5 200,-49.5"/>
<text text-anchor="middle" x="276" y="-56.5" font-family="Helvetica,sans-Serif" font-size="10.00">frontEnd.CASettings.getGrid</text>
</a>
</g>
</g>
<!-- Node1&#45;&gt;Node2 -->
<g id="edge1" class="edge"><title>Node1&#45;&gt;Node2</title>
<path fill="none" stroke="midnightblue" d="M164.147,-46.2981C172.68,-47.2758 181.374,-48.272 189.949,-49.2546"/>
<polygon fill="midnightblue" stroke="midnightblue" points="189.612,-52.7387 199.945,-50.4 190.408,-45.7842 189.612,-52.7387"/>
</g>
<!-- Node3 -->
<g id="node3" class="node"><title>Node3</title>
<g id="a_node3"><a xlink:href="../../d1/dfc/classback_end_1_1_rule_set.html#a603d39da71653ea4bbdadf3d78978981" target="_top" xlink:title="backEnd.RuleSet.initialize\lPatch">
<polygon fill="white" stroke="black" points="207.5,-0 207.5,-30 344.5,-30 344.5,-0 207.5,-0"/>
<text text-anchor="start" x="215.5" y="-18" font-family="Helvetica,sans-Serif" font-size="10.00">backEnd.RuleSet.initialize</text>
<text text-anchor="middle" x="276" y="-7" font-family="Helvetica,sans-Serif" font-size="10.00">Patch</text>
</a>
</g>
</g>
<!-- Node1&#45;&gt;Node3 -->
<g id="edge2" class="edge"><title>Node1&#45;&gt;Node3</title>
<path fill="none" stroke="midnightblue" d="M164.147,-27.7019C175.196,-26.4359 186.513,-25.1391 197.495,-23.8808"/>
<polygon fill="midnightblue" stroke="midnightblue" points="197.932,-27.3537 207.469,-22.7379 197.135,-20.3992 197.932,-27.3537"/>
</g>
<!-- Node4 -->
<g id="node4" class="node"><title>Node4</title>
<g id="a_node4"><a xlink:href="../../db/d5e/classback_end_1_1_patch.html#ac9c7bf582f9e7aec34492785fea4cf68" target="_top" xlink:title="backEnd.Patch.fill">
<polygon fill="white" stroke="black" points="388.5,-5.5 388.5,-24.5 487.5,-24.5 487.5,-5.5 388.5,-5.5"/>
<text text-anchor="middle" x="438" y="-12.5" font-family="Helvetica,sans-Serif" font-size="10.00">backEnd.Patch.fill</text>
</a>
</g>
</g>
<!-- Node3&#45;&gt;Node4 -->
<g id="edge3" class="edge"><title>Node3&#45;&gt;Node4</title>
<path fill="none" stroke="midnightblue" d="M344.854,-15C355.956,-15 367.377,-15 378.236,-15"/>
<polygon fill="midnightblue" stroke="midnightblue" points="378.445,-18.5001 388.445,-15 378.445,-11.5001 378.445,-18.5001"/>
</g>
</g>
</svg>
