<?xml version="1.0" encoding="UTF-8" standalone="no"?>
<!DOCTYPE svg PUBLIC "-//W3C//DTD SVG 1.1//EN"
 "http://www.w3.org/Graphics/SVG/1.1/DTD/svg11.dtd">
<!-- Generated by graphviz version 2.36.0 (20140111.2315)
 -->
<!-- Title: frontEnd.AnimatorLoop.writeToXML Pages: 1 -->
<svg width="572pt" height="262pt"
 viewBox="0.00 0.00 572.00 262.00" xmlns="http://www.w3.org/2000/svg" xmlns:xlink="http://www.w3.org/1999/xlink">
<g id="graph0" class="graph" transform="scale(1 1) rotate(0) translate(4 258)">
<title>frontEnd.AnimatorLoop.writeToXML</title>
<polygon fill="white" stroke="none" points="-4,4 -4,-258 568,-258 568,4 -4,4"/>
<!-- Node1 -->
<g id="node1" class="node"><title>Node1</title>
<polygon fill="#bfbfbf" stroke="black" points="0.5,-101 0.5,-131 153.5,-131 153.5,-101 0.5,-101"/>
<text text-anchor="start" x="8.5" y="-119" font-family="Helvetica,sans-Serif" font-size="10.00">frontEnd.AnimatorLoop.write</text>
<text text-anchor="middle" x="77" y="-108" font-family="Helvetica,sans-Serif" font-size="10.00">ToXML</text>
</g>
<!-- Node2 -->
<g id="node2" class="node"><title>Node2</title>
<g id="a_node2"><a xlink:href="../../d5/d51/classfront_end_1_1_c_a_settings.html#ad1a35159c9a3b860bd4af0d12e40b169" target="_top" xlink:title="frontEnd.CASettings.getColumns">
<polygon fill="white" stroke="black" points="383,-234.5 383,-253.5 557,-253.5 557,-234.5 383,-234.5"/>
<text text-anchor="middle" x="470" y="-241.5" font-family="Helvetica,sans-Serif" font-size="10.00">frontEnd.CASettings.getColumns</text>
</a>
</g>
</g>
<!-- Node1&#45;&gt;Node2 -->
<g id="edge1" class="edge"><title>Node1&#45;&gt;Node2</title>
<path fill="none" stroke="midnightblue" d="M98.8311,-131.234C120.564,-146.442 156.131,-169.449 190,-183 252.643,-208.063 327.522,-223.717 383.929,-232.883"/>
<polygon fill="midnightblue" stroke="midnightblue" points="383.457,-236.352 393.883,-234.465 384.556,-229.439 383.457,-236.352"/>
</g>
<!-- Node3 -->
<g id="node3" class="node"><title>Node3</title>
<g id="a_node3"><a xlink:href="../../d5/d51/classfront_end_1_1_c_a_settings.html#a560c336f7aed8050af9a606949926548" target="_top" xlink:title="frontEnd.CASettings.getParameters">
<polygon fill="white" stroke="black" points="376,-196.5 376,-215.5 564,-215.5 564,-196.5 376,-196.5"/>
<text text-anchor="middle" x="470" y="-203.5" font-family="Helvetica,sans-Serif" font-size="10.00">frontEnd.CASettings.getParameters</text>
</a>
</g>
</g>
<!-- Node1&#45;&gt;Node3 -->
<g id="edge2" class="edge"><title>Node1&#45;&gt;Node3</title>
<path fill="none" stroke="midnightblue" d="M117.753,-131.034C138.973,-138.664 165.665,-147.639 190,-154 258.017,-171.78 336.885,-185.894 393.379,-194.905"/>
<polygon fill="midnightblue" stroke="midnightblue" points="392.882,-198.37 403.305,-196.473 393.974,-191.456 392.882,-198.37"/>
</g>
<!-- Node4 -->
<g id="node4" class="node"><title>Node4</title>
<g id="a_node4"><a xlink:href="../../d5/d51/classfront_end_1_1_c_a_settings.html#aef613fb5595d20d85dad92cf5f5efad9" target="_top" xlink:title="frontEnd.CASettings.getRows">
<polygon fill="white" stroke="black" points="392.5,-82.5 392.5,-101.5 547.5,-101.5 547.5,-82.5 392.5,-82.5"/>
<text text-anchor="middle" x="470" y="-89.5" font-family="Helvetica,sans-Serif" font-size="10.00">frontEnd.CASettings.getRows</text>
</a>
</g>
</g>
<!-- Node1&#45;&gt;Node4 -->
<g id="edge3" class="edge"><title>Node1&#45;&gt;Node4</title>
<path fill="none" stroke="midnightblue" d="M153.852,-111.344C219.23,-107.331 313.613,-101.538 382.034,-97.3381"/>
<polygon fill="midnightblue" stroke="midnightblue" points="382.591,-100.811 392.358,-96.7044 382.162,-93.8237 382.591,-100.811"/>
</g>
<!-- Node5 -->
<g id="node5" class="node"><title>Node5</title>
<g id="a_node5"><a xlink:href="../../d5/d51/classfront_end_1_1_c_a_settings.html#a5c62b367ceda95101ac5ff5c3048cf1c" target="_top" xlink:title="frontEnd.CASettings.getType">
<polygon fill="white" stroke="black" points="393.5,-44.5 393.5,-63.5 546.5,-63.5 546.5,-44.5 393.5,-44.5"/>
<text text-anchor="middle" x="470" y="-51.5" font-family="Helvetica,sans-Serif" font-size="10.00">frontEnd.CASettings.getType</text>
</a>
</g>
</g>
<!-- Node1&#45;&gt;Node5 -->
<g id="edge4" class="edge"><title>Node1&#45;&gt;Node5</title>
<path fill="none" stroke="midnightblue" d="M153.583,-103.018C165.755,-100.973 178.221,-98.9066 190,-97 259.57,-85.7385 339.014,-73.5609 395.289,-65.0497"/>
<polygon fill="midnightblue" stroke="midnightblue" points="396.155,-68.4588 405.52,-63.5042 395.109,-61.5373 396.155,-68.4588"/>
</g>
<!-- Node6 -->
<g id="node6" class="node"><title>Node6</title>
<g id="a_node6"><a xlink:href="../../dc/da1/classfront_end_1_1_animator_loop.html#a49bb0767763415d97458827801531bc6" target="_top" xlink:title="frontEnd.AnimatorLoop.grid\lPatchToString">
<polygon fill="white" stroke="black" points="190.5,-0 190.5,-30 339.5,-30 339.5,-0 190.5,-0"/>
<text text-anchor="start" x="198.5" y="-18" font-family="Helvetica,sans-Serif" font-size="10.00">frontEnd.AnimatorLoop.grid</text>
<text text-anchor="middle" x="265" y="-7" font-family="Helvetica,sans-Serif" font-size="10.00">PatchToString</text>
</a>
</g>
</g>
<!-- Node1&#45;&gt;Node6 -->
<g id="edge5" class="edge"><title>Node1&#45;&gt;Node6</title>
<path fill="none" stroke="midnightblue" d="M99.2063,-100.929C121.238,-85.6653 157.039,-61.9542 190,-45 197.531,-41.1261 205.683,-37.3926 213.729,-33.9531"/>
<polygon fill="midnightblue" stroke="midnightblue" points="215.196,-37.1338 223.083,-30.0598 212.506,-30.6712 215.196,-37.1338"/>
</g>
<!-- Node7 -->
<g id="node7" class="node"><title>Node7</title>
<g id="a_node7"><a xlink:href="../../d0/d87/classfront_end_1_1_x_m_l_handler.html#a8b7864cb0ca3ba8aad07a5b093145861" target="_top" xlink:title="frontEnd.XMLHandler.write">
<polygon fill="white" stroke="black" points="194,-125.5 194,-144.5 336,-144.5 336,-125.5 194,-125.5"/>
<text text-anchor="middle" x="265" y="-132.5" font-family="Helvetica,sans-Serif" font-size="10.00">frontEnd.XMLHandler.write</text>
</a>
</g>
</g>
<!-- Node1&#45;&gt;Node7 -->
<g id="edge6" class="edge"><title>Node1&#45;&gt;Node7</title>
<path fill="none" stroke="midnightblue" d="M153.653,-123.728C163.507,-124.735 173.629,-125.769 183.558,-126.783"/>
<polygon fill="midnightblue" stroke="midnightblue" points="183.51,-130.296 193.814,-127.83 184.221,-123.332 183.51,-130.296"/>
</g>
<!-- Node7&#45;&gt;Node2 -->
<g id="edge10" class="edge"><title>Node7&#45;&gt;Node2</title>
<path fill="none" stroke="midnightblue" d="M274.623,-144.664C291.887,-163.363 332.765,-204.454 376,-225 381.244,-227.492 386.807,-229.658 392.5,-231.541"/>
<polygon fill="midnightblue" stroke="midnightblue" points="391.589,-234.922 402.173,-234.449 393.604,-228.218 391.589,-234.922"/>
</g>
<!-- Node7&#45;&gt;Node3 -->
<g id="edge8" class="edge"><title>Node7&#45;&gt;Node3</title>
<path fill="none" stroke="midnightblue" d="M288.522,-144.583C303.277,-150.973 322.921,-159.696 340,-168 356.27,-175.911 358.966,-180.906 376,-187 383.501,-189.684 391.486,-192.031 399.504,-194.074"/>
<polygon fill="midnightblue" stroke="midnightblue" points="398.73,-197.488 409.27,-196.417 400.362,-190.681 398.73,-197.488"/>
</g>
<!-- Node7&#45;&gt;Node4 -->
<g id="edge9" class="edge"><title>Node7&#45;&gt;Node4</title>
<path fill="none" stroke="midnightblue" d="M309.071,-125.464C329.363,-121.007 353.911,-115.666 376,-111 387.589,-108.552 400.001,-105.981 411.861,-103.549"/>
<polygon fill="midnightblue" stroke="midnightblue" points="412.567,-106.977 421.663,-101.544 411.165,-100.119 412.567,-106.977"/>
</g>
<!-- Node7&#45;&gt;Node5 -->
<g id="edge7" class="edge"><title>Node7&#45;&gt;Node5</title>
<path fill="none" stroke="midnightblue" d="M279.891,-125.273C300.106,-111.57 339.239,-86.7273 376,-73 383.164,-70.3247 390.787,-67.995 398.467,-65.9734"/>
<polygon fill="midnightblue" stroke="midnightblue" points="399.324,-69.3671 408.195,-63.5749 397.648,-62.5707 399.324,-69.3671"/>
</g>
<!-- Node8 -->
<g id="node8" class="node"><title>Node8</title>
<g id="a_node8"><a xlink:href="../../d0/d87/classfront_end_1_1_x_m_l_handler.html#a28556434b6cf7a6f8a8505c03aca8336" target="_top" xlink:title="frontEnd.XMLHandler.writeGrid">
<polygon fill="white" stroke="black" points="389.5,-158.5 389.5,-177.5 550.5,-177.5 550.5,-158.5 389.5,-158.5"/>
<text text-anchor="middle" x="470" y="-165.5" font-family="Helvetica,sans-Serif" font-size="10.00">frontEnd.XMLHandler.writeGrid</text>
</a>
</g>
</g>
<!-- Node7&#45;&gt;Node8 -->
<g id="edge11" class="edge"><title>Node7&#45;&gt;Node8</title>
<path fill="none" stroke="midnightblue" d="M324.444,-144.501C348.121,-148.35 375.636,-152.823 400.267,-156.827"/>
<polygon fill="midnightblue" stroke="midnightblue" points="399.834,-160.302 410.266,-158.452 400.957,-153.393 399.834,-160.302"/>
</g>
<!-- Node9 -->
<g id="node9" class="node"><title>Node9</title>
<g id="a_node9"><a xlink:href="../../d5/d51/classfront_end_1_1_c_a_settings.html#a9b6c355e48adf9a7db04c30c74aac53f" target="_top" xlink:title="frontEnd.CASettings.getGrid">
<polygon fill="white" stroke="black" points="394,-120.5 394,-139.5 546,-139.5 546,-120.5 394,-120.5"/>
<text text-anchor="middle" x="470" y="-127.5" font-family="Helvetica,sans-Serif" font-size="10.00">frontEnd.CASettings.getGrid</text>
</a>
</g>
</g>
<!-- Node7&#45;&gt;Node9 -->
<g id="edge12" class="edge"><title>Node7&#45;&gt;Node9</title>
<path fill="none" stroke="midnightblue" d="M336.145,-133.272C351.375,-132.897 367.649,-132.496 383.399,-132.108"/>
<polygon fill="midnightblue" stroke="midnightblue" points="383.746,-135.601 393.657,-131.856 383.574,-128.603 383.746,-135.601"/>
</g>
</g>
</svg>
