<?xml version="1.0" encoding="UTF-8" standalone="no"?>
<!DOCTYPE svg PUBLIC "-//W3C//DTD SVG 1.1//EN"
 "http://www.w3.org/Graphics/SVG/1.1/DTD/svg11.dtd">
<!-- Generated by graphviz version 2.36.0 (20140111.2315)
 -->
<!-- Title: frontEnd.AnimatorLoop.addCellsToGrid Pages: 1 -->
<svg width="1232pt" height="104pt"
 viewBox="0.00 0.00 1232.00 104.00" xmlns="http://www.w3.org/2000/svg" xmlns:xlink="http://www.w3.org/1999/xlink">
<g id="graph0" class="graph" transform="scale(1 1) rotate(0) translate(4 100)">
<title>frontEnd.AnimatorLoop.addCellsToGrid</title>
<polygon fill="white" stroke="none" points="-4,4 -4,-100 1228,-100 1228,4 -4,4"/>
<!-- Node1 -->
<g id="node1" class="node"><title>Node1</title>
<polygon fill="#bfbfbf" stroke="black" points="0.5,-33 0.5,-63 149.5,-63 149.5,-33 0.5,-33"/>
<text text-anchor="start" x="8.5" y="-51" font-family="Helvetica,sans-Serif" font-size="10.00">frontEnd.AnimatorLoop.add</text>
<text text-anchor="middle" x="75" y="-40" font-family="Helvetica,sans-Serif" font-size="10.00">CellsToGrid</text>
</g>
<!-- Node2 -->
<g id="node2" class="node"><title>Node2</title>
<g id="a_node2"><a xlink:href="../../dc/da1/classfront_end_1_1_animator_loop.html#a92b2bebb55107557a33d1621ddae5872" target="_top" xlink:title="frontEnd.AnimatorLoop.init\lGridPane">
<polygon fill="white" stroke="black" points="186.5,-33 186.5,-63 331.5,-63 331.5,-33 186.5,-33"/>
<text text-anchor="start" x="194.5" y="-51" font-family="Helvetica,sans-Serif" font-size="10.00">frontEnd.AnimatorLoop.init</text>
<text text-anchor="middle" x="259" y="-40" font-family="Helvetica,sans-Serif" font-size="10.00">GridPane</text>
</a>
</g>
</g>
<!-- Node1&#45;&gt;Node2 -->
<g id="edge1" class="edge"><title>Node1&#45;&gt;Node2</title>
<path fill="none" stroke="midnightblue" d="M159.534,-48C168.473,-48 177.508,-48 186.292,-48"/>
<polygon fill="midnightblue" stroke="midnightblue" points="159.502,-44.5001 149.502,-48 159.502,-51.5001 159.502,-44.5001"/>
</g>
<!-- Node3 -->
<g id="node3" class="node"><title>Node3</title>
<g id="a_node3"><a xlink:href="../../dc/da1/classfront_end_1_1_animator_loop.html#a1f378b18807af5386266685e907aa8c7" target="_top" xlink:title="frontEnd.AnimatorLoop.read\lXMLAndInitializeGrid">
<polygon fill="white" stroke="black" points="368,-33 368,-63 520,-63 520,-33 368,-33"/>
<text text-anchor="start" x="376" y="-51" font-family="Helvetica,sans-Serif" font-size="10.00">frontEnd.AnimatorLoop.read</text>
<text text-anchor="middle" x="444" y="-40" font-family="Helvetica,sans-Serif" font-size="10.00">XMLAndInitializeGrid</text>
</a>
</g>
</g>
<!-- Node2&#45;&gt;Node3 -->
<g id="edge2" class="edge"><title>Node2&#45;&gt;Node3</title>
<path fill="none" stroke="midnightblue" d="M341.698,-48C350.415,-48 359.253,-48 367.889,-48"/>
<polygon fill="midnightblue" stroke="midnightblue" points="341.539,-44.5001 331.539,-48 341.539,-51.5001 341.539,-44.5001"/>
</g>
<!-- Node4 -->
<g id="node4" class="node"><title>Node4</title>
<g id="a_node4"><a xlink:href="../../dd/dbe/classfront_end_1_1_main.html#a7bae3127415fb2ae80975ebc95057e3f" target="_top" xlink:title="frontEnd.Main.readXML">
<polygon fill="white" stroke="black" points="556.5,-38.5 556.5,-57.5 683.5,-57.5 683.5,-38.5 556.5,-38.5"/>
<text text-anchor="middle" x="620" y="-45.5" font-family="Helvetica,sans-Serif" font-size="10.00">frontEnd.Main.readXML</text>
</a>
</g>
</g>
<!-- Node3&#45;&gt;Node4 -->
<g id="edge3" class="edge"><title>Node3&#45;&gt;Node4</title>
<path fill="none" stroke="midnightblue" d="M530.065,-48C538.959,-48 547.88,-48 556.457,-48"/>
<polygon fill="midnightblue" stroke="midnightblue" points="530.054,-44.5001 520.054,-48 530.054,-51.5001 530.054,-44.5001"/>
</g>
<!-- Node5 -->
<g id="node5" class="node"><title>Node5</title>
<g id="a_node5"><a xlink:href="../../dd/dbe/classfront_end_1_1_main.html#a55d59b110825a1cc153a0091a6e5cb99" target="_top" xlink:title="frontEnd.Main.makeMenu">
<polygon fill="white" stroke="black" points="720.5,-76.5 720.5,-95.5 859.5,-95.5 859.5,-76.5 720.5,-76.5"/>
<text text-anchor="middle" x="790" y="-83.5" font-family="Helvetica,sans-Serif" font-size="10.00">frontEnd.Main.makeMenu</text>
</a>
</g>
</g>
<!-- Node4&#45;&gt;Node5 -->
<g id="edge4" class="edge"><title>Node4&#45;&gt;Node5</title>
<path fill="none" stroke="midnightblue" d="M673.276,-59.8243C696.961,-65.1816 724.59,-71.4311 746.911,-76.4799"/>
<polygon fill="midnightblue" stroke="midnightblue" points="673.919,-56.3815 663.393,-57.589 672.375,-63.209 673.919,-56.3815"/>
</g>
<!-- Node7 -->
<g id="node7" class="node"><title>Node7</title>
<g id="a_node7"><a xlink:href="../../dd/dbe/classfront_end_1_1_main.html#a8e2e836903a64069e4283fa66309c704" target="_top" xlink:title="frontEnd.Main.resetSim">
<polygon fill="white" stroke="black" points="725.5,-0.5 725.5,-19.5 854.5,-19.5 854.5,-0.5 725.5,-0.5"/>
<text text-anchor="middle" x="790" y="-7.5" font-family="Helvetica,sans-Serif" font-size="10.00">frontEnd.Main.resetSim</text>
</a>
</g>
</g>
<!-- Node4&#45;&gt;Node7 -->
<g id="edge6" class="edge"><title>Node4&#45;&gt;Node7</title>
<path fill="none" stroke="midnightblue" d="M673.276,-36.1757C696.961,-30.8184 724.59,-24.5689 746.911,-19.5201"/>
<polygon fill="midnightblue" stroke="midnightblue" points="672.375,-32.791 663.393,-38.411 673.919,-39.6185 672.375,-32.791"/>
</g>
<!-- Node6 -->
<g id="node6" class="node"><title>Node6</title>
<g id="a_node6"><a xlink:href="../../dd/dbe/classfront_end_1_1_main.html#ae53f892716dcc60f3f49714496e30c91" target="_top" xlink:title="frontEnd.Main.start">
<polygon fill="white" stroke="black" points="1116,-38.5 1116,-57.5 1224,-57.5 1224,-38.5 1116,-38.5"/>
<text text-anchor="middle" x="1170" y="-45.5" font-family="Helvetica,sans-Serif" font-size="10.00">frontEnd.Main.start</text>
</a>
</g>
</g>
<!-- Node5&#45;&gt;Node6 -->
<g id="edge5" class="edge"><title>Node5&#45;&gt;Node6</title>
<path fill="none" stroke="midnightblue" d="M869.845,-83.8939C928.122,-81.5912 1009.29,-76.8194 1080,-67 1096.59,-64.6964 1114.7,-61.0429 1130.23,-57.5524"/>
<polygon fill="midnightblue" stroke="midnightblue" points="869.462,-80.4058 859.602,-84.2825 869.728,-87.4007 869.462,-80.4058"/>
</g>
<!-- Node8 -->
<g id="node8" class="node"><title>Node8</title>
<g id="a_node8"><a xlink:href="../../dd/dbe/classfront_end_1_1_main.html#a0ff8a007311f8ecce84d4203dc85d669" target="_top" xlink:title="frontEnd.Main.makeParamControls">
<polygon fill="white" stroke="black" points="896.5,-38.5 896.5,-57.5 1079.5,-57.5 1079.5,-38.5 896.5,-38.5"/>
<text text-anchor="middle" x="988" y="-45.5" font-family="Helvetica,sans-Serif" font-size="10.00">frontEnd.Main.makeParamControls</text>
</a>
</g>
</g>
<!-- Node7&#45;&gt;Node8 -->
<g id="edge7" class="edge"><title>Node7&#45;&gt;Node8</title>
<path fill="none" stroke="midnightblue" d="M850.261,-21.4894C878.227,-26.9114 911.209,-33.3058 937.774,-38.4561"/>
<polygon fill="midnightblue" stroke="midnightblue" points="850.689,-18.0073 840.206,-19.54 849.357,-24.8794 850.689,-18.0073"/>
</g>
<!-- Node9 -->
<g id="node9" class="node"><title>Node9</title>
<g id="a_node9"><a xlink:href="../../dd/dbe/classfront_end_1_1_main.html#a1f4c19654fe78e5ebca54fc26bf43c94" target="_top" xlink:title="frontEnd.Main.useControls">
<polygon fill="white" stroke="black" points="916.5,-0.5 916.5,-19.5 1059.5,-19.5 1059.5,-0.5 916.5,-0.5"/>
<text text-anchor="middle" x="988" y="-7.5" font-family="Helvetica,sans-Serif" font-size="10.00">frontEnd.Main.useControls</text>
</a>
</g>
</g>
<!-- Node7&#45;&gt;Node9 -->
<g id="edge9" class="edge"><title>Node7&#45;&gt;Node9</title>
<path fill="none" stroke="midnightblue" d="M864.948,-10C881.749,-10 899.556,-10 916.222,-10"/>
<polygon fill="midnightblue" stroke="midnightblue" points="864.636,-6.5001 854.636,-10 864.636,-13.5001 864.636,-6.5001"/>
</g>
<!-- Node8&#45;&gt;Node4 -->
<g id="edge8" class="edge"><title>Node8&#45;&gt;Node4</title>
<path fill="none" stroke="midnightblue" d="M886.031,-48C821.19,-48 739.025,-48 683.502,-48"/>
<polygon fill="midnightblue" stroke="midnightblue" points="886.282,-51.5001 896.282,-48 886.282,-44.5001 886.282,-51.5001"/>
</g>
<!-- Node9&#45;&gt;Node6 -->
<g id="edge10" class="edge"><title>Node9&#45;&gt;Node6</title>
<path fill="none" stroke="midnightblue" d="M1044.87,-21.6234C1056.48,-24.0513 1068.64,-26.6018 1080,-29 1094.53,-32.0681 1110.39,-35.4447 1124.64,-38.4897"/>
<polygon fill="midnightblue" stroke="midnightblue" points="1045.34,-18.1466 1034.84,-19.5282 1043.91,-24.9987 1045.34,-18.1466"/>
</g>
</g>
</svg>
