<?xml version="1.0" encoding="UTF-8" standalone="no"?>
<!DOCTYPE svg PUBLIC "-//W3C//DTD SVG 1.1//EN"
 "http://www.w3.org/Graphics/SVG/1.1/DTD/svg11.dtd">
<!-- Generated by graphviz version 2.36.0 (20140111.2315)
 -->
<!-- Title: frontEnd.AnimatorLoop.AnimatorLoop Pages: 1 -->
<svg width="400pt" height="87pt"
 viewBox="0.00 0.00 400.00 87.00" xmlns="http://www.w3.org/2000/svg" xmlns:xlink="http://www.w3.org/1999/xlink">
<g id="graph0" class="graph" transform="scale(1 1) rotate(0) translate(4 83)">
<title>frontEnd.AnimatorLoop.AnimatorLoop</title>
<polygon fill="white" stroke="none" points="-4,4 -4,-83 396,-83 396,4 -4,4"/>
<!-- Node1 -->
<g id="node1" class="node"><title>Node1</title>
<polygon fill="#bfbfbf" stroke="black" points="0,-29.5 0,-48.5 198,-48.5 198,-29.5 0,-29.5"/>
<text text-anchor="middle" x="99" y="-36.5" font-family="Helvetica,sans-Serif" font-size="10.00">frontEnd.AnimatorLoop.AnimatorLoop</text>
</g>
<!-- Node2 -->
<g id="node2" class="node"><title>Node2</title>
<g id="a_node2"><a xlink:href="../../dc/da1/classfront_end_1_1_animator_loop.html#a0ba7bdaa13e8f358589686175467edb3" target="_top" xlink:title="frontEnd.AnimatorLoop.make\lPossibleRules">
<polygon fill="white" stroke="black" points="234,-49 234,-79 392,-79 392,-49 234,-49"/>
<text text-anchor="start" x="242" y="-67" font-family="Helvetica,sans-Serif" font-size="10.00">frontEnd.AnimatorLoop.make</text>
<text text-anchor="middle" x="313" y="-56" font-family="Helvetica,sans-Serif" font-size="10.00">PossibleRules</text>
</a>
</g>
</g>
<!-- Node1&#45;&gt;Node2 -->
<g id="edge1" class="edge"><title>Node1&#45;&gt;Node2</title>
<path fill="none" stroke="midnightblue" d="M180.753,-48.5227C194.783,-50.1772 209.439,-51.9055 223.659,-53.5824"/>
<polygon fill="midnightblue" stroke="midnightblue" points="223.58,-57.0973 233.921,-54.7926 224.4,-50.1454 223.58,-57.0973"/>
</g>
<!-- Node3 -->
<g id="node3" class="node"><title>Node3</title>
<g id="a_node3"><a xlink:href="../../dc/da1/classfront_end_1_1_animator_loop.html#a31ffe93bc5b752154a741f7a95912626" target="_top" xlink:title="frontEnd.AnimatorLoop.make\lPossibleShapeFactories">
<polygon fill="white" stroke="black" points="234,-0 234,-30 392,-30 392,-0 234,-0"/>
<text text-anchor="start" x="242" y="-18" font-family="Helvetica,sans-Serif" font-size="10.00">frontEnd.AnimatorLoop.make</text>
<text text-anchor="middle" x="313" y="-7" font-family="Helvetica,sans-Serif" font-size="10.00">PossibleShapeFactories</text>
</a>
</g>
</g>
<!-- Node1&#45;&gt;Node3 -->
<g id="edge2" class="edge"><title>Node1&#45;&gt;Node3</title>
<path fill="none" stroke="midnightblue" d="M184.093,-29.4801C197.174,-27.9992 210.721,-26.4656 223.888,-24.9749"/>
<polygon fill="midnightblue" stroke="midnightblue" points="224.327,-28.4477 233.869,-23.845 223.539,-21.4922 224.327,-28.4477"/>
</g>
</g>
</svg>
