<?xml version="1.0" encoding="UTF-8" standalone="no"?>
<!DOCTYPE svg PUBLIC "-//W3C//DTD SVG 1.1//EN"
 "http://www.w3.org/Graphics/SVG/1.1/DTD/svg11.dtd">
<!-- Generated by graphviz version 2.36.0 (20140111.2315)
 -->
<!-- Title: frontEnd.AnimatorLoop.updateCells Pages: 1 -->
<svg width="704pt" height="107pt"
 viewBox="0.00 0.00 704.00 107.00" xmlns="http://www.w3.org/2000/svg" xmlns:xlink="http://www.w3.org/1999/xlink">
<g id="graph0" class="graph" transform="scale(1 1) rotate(0) translate(4 103)">
<title>frontEnd.AnimatorLoop.updateCells</title>
<polygon fill="white" stroke="none" points="-4,4 -4,-103 700,-103 700,4 -4,4"/>
<!-- Node1 -->
<g id="node1" class="node"><title>Node1</title>
<polygon fill="#bfbfbf" stroke="black" points="0,-52 0,-82 164,-82 164,-52 0,-52"/>
<text text-anchor="start" x="8" y="-70" font-family="Helvetica,sans-Serif" font-size="10.00">frontEnd.AnimatorLoop.update</text>
<text text-anchor="middle" x="82" y="-59" font-family="Helvetica,sans-Serif" font-size="10.00">Cells</text>
</g>
<!-- Node2 -->
<g id="node2" class="node"><title>Node2</title>
<g id="a_node2"><a xlink:href="../../d1/dfc/classback_end_1_1_rule_set.html#a889a9db9ebcdb5db18f373286fd100cb" target="_top" xlink:title="backEnd.RuleSet.update">
<polygon fill="white" stroke="black" points="215.5,-79.5 215.5,-98.5 348.5,-98.5 348.5,-79.5 215.5,-79.5"/>
<text text-anchor="middle" x="282" y="-86.5" font-family="Helvetica,sans-Serif" font-size="10.00">backEnd.RuleSet.update</text>
</a>
</g>
</g>
<!-- Node1&#45;&gt;Node2 -->
<g id="edge1" class="edge"><title>Node1&#45;&gt;Node2</title>
<path fill="none" stroke="midnightblue" d="M164.105,-76.0117C177.722,-77.5247 191.806,-79.0896 205.28,-80.5867"/>
<polygon fill="midnightblue" stroke="midnightblue" points="205.122,-84.0905 215.447,-81.7163 205.895,-77.1333 205.122,-84.0905"/>
</g>
<!-- Node4 -->
<g id="node4" class="node"><title>Node4</title>
<g id="a_node4"><a xlink:href="../../dc/da1/classfront_end_1_1_animator_loop.html#a3d3ba37be380538b0fdfaada6256a125" target="_top" xlink:title="frontEnd.AnimatorLoop.update\lGUICells">
<polygon fill="white" stroke="black" points="200,-30 200,-60 364,-60 364,-30 200,-30"/>
<text text-anchor="start" x="208" y="-48" font-family="Helvetica,sans-Serif" font-size="10.00">frontEnd.AnimatorLoop.update</text>
<text text-anchor="middle" x="282" y="-37" font-family="Helvetica,sans-Serif" font-size="10.00">GUICells</text>
</a>
</g>
</g>
<!-- Node1&#45;&gt;Node4 -->
<g id="edge3" class="edge"><title>Node1&#45;&gt;Node4</title>
<path fill="none" stroke="midnightblue" d="M164.105,-57.9883C172.549,-57.0501 181.172,-56.0919 189.719,-55.1424"/>
<polygon fill="midnightblue" stroke="midnightblue" points="190.148,-58.6163 199.7,-54.0333 189.375,-51.6591 190.148,-58.6163"/>
</g>
<!-- Node3 -->
<g id="node3" class="node"><title>Node3</title>
<g id="a_node3"><a xlink:href="../../d1/dfc/classback_end_1_1_rule_set.html#aa123734a8de5c94cef0589bd13a43a9f" target="_top" xlink:title="backEnd.RuleSet.getNext">
<polygon fill="white" stroke="black" points="400.5,-79.5 400.5,-98.5 537.5,-98.5 537.5,-79.5 400.5,-79.5"/>
<text text-anchor="middle" x="469" y="-86.5" font-family="Helvetica,sans-Serif" font-size="10.00">backEnd.RuleSet.getNext</text>
</a>
</g>
</g>
<!-- Node2&#45;&gt;Node3 -->
<g id="edge2" class="edge"><title>Node2&#45;&gt;Node3</title>
<path fill="none" stroke="midnightblue" d="M348.745,-89C362.069,-89 376.204,-89 389.907,-89"/>
<polygon fill="midnightblue" stroke="midnightblue" points="390.28,-92.5001 400.28,-89 390.28,-85.5001 390.28,-92.5001"/>
</g>
<!-- Node5 -->
<g id="node5" class="node"><title>Node5</title>
<g id="a_node5"><a xlink:href="../../db/d5e/classback_end_1_1_patch.html#a8d97ca84fd6d69378e9fc0b96eff7cb9" target="_top" xlink:title="backEnd.Patch.getCell">
<polygon fill="white" stroke="black" points="408,-38.5 408,-57.5 530,-57.5 530,-38.5 408,-38.5"/>
<text text-anchor="middle" x="469" y="-45.5" font-family="Helvetica,sans-Serif" font-size="10.00">backEnd.Patch.getCell</text>
</a>
</g>
</g>
<!-- Node4&#45;&gt;Node5 -->
<g id="edge4" class="edge"><title>Node4&#45;&gt;Node5</title>
<path fill="none" stroke="midnightblue" d="M364.144,-46.3158C375.253,-46.496 386.584,-46.6797 397.483,-46.8565"/>
<polygon fill="midnightblue" stroke="midnightblue" points="397.724,-50.3607 407.779,-47.0234 397.837,-43.3617 397.724,-50.3607"/>
</g>
<!-- Node6 -->
<g id="node6" class="node"><title>Node6</title>
<g id="a_node6"><a xlink:href="../../d0/d08/classback_end_1_1_cell.html#a9eb4afaad28f514cef9159dc5945313b" target="_top" xlink:title="backEnd.Cell.getColor">
<polygon fill="white" stroke="black" points="408.5,-0.5 408.5,-19.5 529.5,-19.5 529.5,-0.5 408.5,-0.5"/>
<text text-anchor="middle" x="469" y="-7.5" font-family="Helvetica,sans-Serif" font-size="10.00">backEnd.Cell.getColor</text>
</a>
</g>
</g>
<!-- Node4&#45;&gt;Node6 -->
<g id="edge5" class="edge"><title>Node4&#45;&gt;Node6</title>
<path fill="none" stroke="midnightblue" d="M362.53,-29.9537C377.582,-27.1061 393.101,-24.17 407.451,-21.4553"/>
<polygon fill="midnightblue" stroke="midnightblue" points="408.494,-24.82 417.669,-19.522 407.193,-17.942 408.494,-24.82"/>
</g>
<!-- Node7 -->
<g id="node7" class="node"><title>Node7</title>
<g id="a_node7"><a xlink:href="../../d0/d08/classback_end_1_1_cell.html#a780d63fdf3ec4f64bd01f9c1c01f54e9" target="_top" xlink:title="backEnd.Cell.getState">
<polygon fill="white" stroke="black" points="574,-0.5 574,-19.5 696,-19.5 696,-0.5 574,-0.5"/>
<text text-anchor="middle" x="635" y="-7.5" font-family="Helvetica,sans-Serif" font-size="10.00">backEnd.Cell.getState</text>
</a>
</g>
</g>
<!-- Node6&#45;&gt;Node7 -->
<g id="edge6" class="edge"><title>Node6&#45;&gt;Node7</title>
<path fill="none" stroke="midnightblue" d="M529.672,-10C540.681,-10 552.271,-10 563.562,-10"/>
<polygon fill="midnightblue" stroke="midnightblue" points="563.823,-13.5001 573.823,-10 563.823,-6.5001 563.823,-13.5001"/>
</g>
</g>
</svg>
