<?xml version="1.0" encoding="UTF-8" standalone="no"?>
<!DOCTYPE svg PUBLIC "-//W3C//DTD SVG 1.1//EN"
 "http://www.w3.org/Graphics/SVG/1.1/DTD/svg11.dtd">
<!-- Generated by graphviz version 2.36.0 (20140111.2315)
 -->
<!-- Title: backEnd.SpreadingFire.getNext Pages: 1 -->
<svg width="772pt" height="242pt"
 viewBox="0.00 0.00 772.00 242.00" xmlns="http://www.w3.org/2000/svg" xmlns:xlink="http://www.w3.org/1999/xlink">
<g id="graph0" class="graph" transform="scale(1 1) rotate(0) translate(4 238)">
<title>backEnd.SpreadingFire.getNext</title>
<polygon fill="white" stroke="none" points="-4,4 -4,-238 768,-238 768,4 -4,4"/>
<!-- Node1 -->
<g id="node1" class="node"><title>Node1</title>
<polygon fill="#bfbfbf" stroke="black" points="0.5,-110.5 0.5,-129.5 167.5,-129.5 167.5,-110.5 0.5,-110.5"/>
<text text-anchor="middle" x="84" y="-117.5" font-family="Helvetica,sans-Serif" font-size="10.00">backEnd.SpreadingFire.getNext</text>
</g>
<!-- Node2 -->
<g id="node2" class="node"><title>Node2</title>
<g id="a_node2"><a xlink:href="../../d3/dea/classback_end_1_1_state.html#a5e12a9ec49bc055f98f47974b0334a6d" target="_top" xlink:title="backEnd.State.equals">
<polygon fill="white" stroke="black" points="215.5,-214.5 215.5,-233.5 336.5,-233.5 336.5,-214.5 215.5,-214.5"/>
<text text-anchor="middle" x="276" y="-221.5" font-family="Helvetica,sans-Serif" font-size="10.00">backEnd.State.equals</text>
</a>
</g>
</g>
<!-- Node1&#45;&gt;Node2 -->
<g id="edge1" class="edge"><title>Node1&#45;&gt;Node2</title>
<path fill="none" stroke="midnightblue" d="M95.6374,-129.655C115.487,-147.176 160.144,-184.307 204,-205 208.977,-207.348 214.291,-209.444 219.689,-211.307"/>
<polygon fill="midnightblue" stroke="midnightblue" points="218.849,-214.712 229.44,-214.411 220.973,-208.042 218.849,-214.712"/>
</g>
<!-- Node3 -->
<g id="node3" class="node"><title>Node3</title>
<g id="a_node3"><a xlink:href="../../db/d5e/classback_end_1_1_patch.html#ac9c7bf582f9e7aec34492785fea4cf68" target="_top" xlink:title="backEnd.Patch.fill">
<polygon fill="white" stroke="black" points="226.5,-176.5 226.5,-195.5 325.5,-195.5 325.5,-176.5 226.5,-176.5"/>
<text text-anchor="middle" x="276" y="-183.5" font-family="Helvetica,sans-Serif" font-size="10.00">backEnd.Patch.fill</text>
</a>
</g>
</g>
<!-- Node1&#45;&gt;Node3 -->
<g id="edge2" class="edge"><title>Node1&#45;&gt;Node3</title>
<path fill="none" stroke="midnightblue" d="M108.023,-129.644C131.824,-139.437 170.169,-154.724 204,-166 212.034,-168.678 220.654,-171.306 229.022,-173.733"/>
<polygon fill="midnightblue" stroke="midnightblue" points="228.104,-177.11 238.68,-176.479 230.018,-170.377 228.104,-177.11"/>
</g>
<!-- Node4 -->
<g id="node4" class="node"><title>Node4</title>
<g id="a_node4"><a xlink:href="../../d1/dfc/classback_end_1_1_rule_set.html#ae5129c070ec6dac5e9d135b8d4ecb521" target="_top" xlink:title="backEnd.RuleSet.getDirect\lNeighbors">
<polygon fill="white" stroke="black" points="204.5,-127 204.5,-157 347.5,-157 347.5,-127 204.5,-127"/>
<text text-anchor="start" x="212.5" y="-145" font-family="Helvetica,sans-Serif" font-size="10.00">backEnd.RuleSet.getDirect</text>
<text text-anchor="middle" x="276" y="-134" font-family="Helvetica,sans-Serif" font-size="10.00">Neighbors</text>
</a>
</g>
</g>
<!-- Node1&#45;&gt;Node4 -->
<g id="edge3" class="edge"><title>Node1&#45;&gt;Node4</title>
<path fill="none" stroke="midnightblue" d="M167.232,-129.522C176.195,-130.559 185.312,-131.615 194.257,-132.651"/>
<polygon fill="midnightblue" stroke="midnightblue" points="193.928,-136.136 204.265,-133.81 194.734,-129.183 193.928,-136.136"/>
</g>
<!-- Node9 -->
<g id="node9" class="node"><title>Node9</title>
<g id="a_node9"><a xlink:href="../../d0/d08/classback_end_1_1_cell.html#a780d63fdf3ec4f64bd01f9c1c01f54e9" target="_top" xlink:title="backEnd.Cell.getState">
<polygon fill="white" stroke="black" points="405,-69.5 405,-88.5 527,-88.5 527,-69.5 405,-69.5"/>
<text text-anchor="middle" x="466" y="-76.5" font-family="Helvetica,sans-Serif" font-size="10.00">backEnd.Cell.getState</text>
</a>
</g>
</g>
<!-- Node1&#45;&gt;Node9 -->
<g id="edge9" class="edge"><title>Node1&#45;&gt;Node9</title>
<path fill="none" stroke="midnightblue" d="M167.923,-111.053C235.811,-103.728 330.778,-93.4818 394.914,-86.5619"/>
<polygon fill="midnightblue" stroke="midnightblue" points="395.367,-90.0334 404.934,-85.4808 394.616,-83.0738 395.367,-90.0334"/>
</g>
<!-- Node10 -->
<g id="node10" class="node"><title>Node10</title>
<g id="a_node10"><a xlink:href="../../de/d5a/classback_end_1_1_spreading_fire.html#a83460ccc721b0c3c4bdd2f89d8ecf218" target="_top" xlink:title="backEnd.SpreadingFire.is\lBurning">
<polygon fill="white" stroke="black" points="208,-39 208,-69 344,-69 344,-39 208,-39"/>
<text text-anchor="start" x="216" y="-57" font-family="Helvetica,sans-Serif" font-size="10.00">backEnd.SpreadingFire.is</text>
<text text-anchor="middle" x="276" y="-46" font-family="Helvetica,sans-Serif" font-size="10.00">Burning</text>
</a>
</g>
</g>
<!-- Node1&#45;&gt;Node10 -->
<g id="edge10" class="edge"><title>Node1&#45;&gt;Node10</title>
<path fill="none" stroke="midnightblue" d="M112.628,-110.403C141.133,-100.501 186.312,-84.8075 221.784,-72.4855"/>
<polygon fill="midnightblue" stroke="midnightblue" points="223.212,-75.6948 231.51,-69.1071 220.915,-69.0823 223.212,-75.6948"/>
</g>
<!-- Node12 -->
<g id="node12" class="node"><title>Node12</title>
<g id="a_node12"><a xlink:href="../../d5/de7/jquery_8js.html#a2335e57f79b6acfb6de59c235dc8a83e" target="_top" xlink:title="p">
<polygon fill="white" stroke="black" points="261.5,-0.5 261.5,-19.5 290.5,-19.5 290.5,-0.5 261.5,-0.5"/>
<text text-anchor="middle" x="276" y="-7.5" font-family="Helvetica,sans-Serif" font-size="10.00">p</text>
</a>
</g>
</g>
<!-- Node1&#45;&gt;Node12 -->
<g id="edge13" class="edge"><title>Node1&#45;&gt;Node12</title>
<path fill="none" stroke="midnightblue" d="M94.5922,-110.492C113.731,-92.0471 158.726,-51.2713 204,-29 218.963,-21.6392 237.152,-16.8422 251.374,-13.9096"/>
<polygon fill="midnightblue" stroke="midnightblue" points="252.183,-17.3187 261.357,-12.0189 250.88,-10.441 252.183,-17.3187"/>
</g>
<!-- Node5 -->
<g id="node5" class="node"><title>Node5</title>
<g id="a_node5"><a xlink:href="../../d1/dfc/classback_end_1_1_rule_set.html#a4cf4a92c89c23ea81b43ca8fadb46975" target="_top" xlink:title="backEnd.RuleSet.addDirect\lWrapArounds">
<polygon fill="white" stroke="black" points="393,-184 393,-214 539,-214 539,-184 393,-184"/>
<text text-anchor="start" x="401" y="-202" font-family="Helvetica,sans-Serif" font-size="10.00">backEnd.RuleSet.addDirect</text>
<text text-anchor="middle" x="466" y="-191" font-family="Helvetica,sans-Serif" font-size="10.00">WrapArounds</text>
</a>
</g>
</g>
<!-- Node4&#45;&gt;Node5 -->
<g id="edge4" class="edge"><title>Node4&#45;&gt;Node5</title>
<path fill="none" stroke="midnightblue" d="M326.887,-157.125C350.991,-164.434 380.101,-173.259 405.368,-180.92"/>
<polygon fill="midnightblue" stroke="midnightblue" points="404.621,-184.351 415.206,-183.903 406.652,-177.652 404.621,-184.351"/>
</g>
<!-- Node6 -->
<g id="node6" class="node"><title>Node6</title>
<g id="a_node6"><a xlink:href="../../d1/dfc/classback_end_1_1_rule_set.html#ac09e709af5a347c28f6cafb0aa4f0d34" target="_top" xlink:title="backEnd.RuleSet.getNeighbors">
<polygon fill="white" stroke="black" points="384,-145.5 384,-164.5 548,-164.5 548,-145.5 384,-145.5"/>
<text text-anchor="middle" x="466" y="-152.5" font-family="Helvetica,sans-Serif" font-size="10.00">backEnd.RuleSet.getNeighbors</text>
</a>
</g>
</g>
<!-- Node4&#45;&gt;Node6 -->
<g id="edge5" class="edge"><title>Node4&#45;&gt;Node6</title>
<path fill="none" stroke="midnightblue" d="M347.539,-146.878C356.169,-147.474 365.081,-148.091 373.957,-148.705"/>
<polygon fill="midnightblue" stroke="midnightblue" points="373.73,-152.197 383.948,-149.395 374.213,-145.214 373.73,-152.197"/>
</g>
<!-- Node8 -->
<g id="node8" class="node"><title>Node8</title>
<g id="a_node8"><a xlink:href="../../d1/dfc/classback_end_1_1_rule_set.html#ace087d13be0cf3e1f723a663d0e06d8b" target="_top" xlink:title="backEnd.RuleSet.isOutside">
<polygon fill="white" stroke="black" points="602.5,-107.5 602.5,-126.5 745.5,-126.5 745.5,-107.5 602.5,-107.5"/>
<text text-anchor="middle" x="674" y="-114.5" font-family="Helvetica,sans-Serif" font-size="10.00">backEnd.RuleSet.isOutside</text>
</a>
</g>
</g>
<!-- Node4&#45;&gt;Node8 -->
<g id="edge8" class="edge"><title>Node4&#45;&gt;Node8</title>
<path fill="none" stroke="midnightblue" d="M347.797,-137.531C416.392,-133.2 520.309,-126.64 592.128,-122.106"/>
<polygon fill="midnightblue" stroke="midnightblue" points="592.724,-125.575 602.483,-121.452 592.282,-118.589 592.724,-125.575"/>
</g>
<!-- Node7 -->
<g id="node7" class="node"><title>Node7</title>
<g id="a_node7"><a xlink:href="../../d1/dfc/classback_end_1_1_rule_set.html#a625f1cd5d7e0e5d6acf7d47e28beb41e" target="_top" xlink:title="backEnd.RuleSet.addWrapArounds">
<polygon fill="white" stroke="black" points="584,-145.5 584,-164.5 764,-164.5 764,-145.5 584,-145.5"/>
<text text-anchor="middle" x="674" y="-152.5" font-family="Helvetica,sans-Serif" font-size="10.00">backEnd.RuleSet.addWrapArounds</text>
</a>
</g>
</g>
<!-- Node6&#45;&gt;Node7 -->
<g id="edge6" class="edge"><title>Node6&#45;&gt;Node7</title>
<path fill="none" stroke="midnightblue" d="M548.121,-155C556.537,-155 565.158,-155 573.743,-155"/>
<polygon fill="midnightblue" stroke="midnightblue" points="573.792,-158.5 583.792,-155 573.792,-151.5 573.792,-158.5"/>
</g>
<!-- Node6&#45;&gt;Node8 -->
<g id="edge7" class="edge"><title>Node6&#45;&gt;Node8</title>
<path fill="none" stroke="midnightblue" d="M518.717,-145.46C546.756,-140.288 581.602,-133.86 611.079,-128.422"/>
<polygon fill="midnightblue" stroke="midnightblue" points="612.063,-131.8 621.262,-126.544 610.793,-124.916 612.063,-131.8"/>
</g>
<!-- Node10&#45;&gt;Node9 -->
<g id="edge12" class="edge"><title>Node10&#45;&gt;Node9</title>
<path fill="none" stroke="midnightblue" d="M344.076,-62.9197C360.493,-65.1029 378.108,-67.4452 394.673,-69.6479"/>
<polygon fill="midnightblue" stroke="midnightblue" points="394.457,-73.15 404.831,-70.9988 395.38,-66.2111 394.457,-73.15"/>
</g>
<!-- Node11 -->
<g id="node11" class="node"><title>Node11</title>
<g id="a_node11"><a xlink:href="../../db/d5e/classback_end_1_1_patch.html#a8d97ca84fd6d69378e9fc0b96eff7cb9" target="_top" xlink:title="backEnd.Patch.getCell">
<polygon fill="white" stroke="black" points="405,-31.5 405,-50.5 527,-50.5 527,-31.5 405,-31.5"/>
<text text-anchor="middle" x="466" y="-38.5" font-family="Helvetica,sans-Serif" font-size="10.00">backEnd.Patch.getCell</text>
</a>
</g>
</g>
<!-- Node10&#45;&gt;Node11 -->
<g id="edge11" class="edge"><title>Node10&#45;&gt;Node11</title>
<path fill="none" stroke="midnightblue" d="M344.076,-49.3618C360.493,-48.2265 378.108,-47.0085 394.673,-45.8631"/>
<polygon fill="midnightblue" stroke="midnightblue" points="395.096,-49.3422 404.831,-45.1606 394.613,-42.3589 395.096,-49.3422"/>
</g>
</g>
</svg>
