<?xml version="1.0" encoding="UTF-8" standalone="no"?>
<!DOCTYPE svg PUBLIC "-//W3C//DTD SVG 1.1//EN"
 "http://www.w3.org/Graphics/SVG/1.1/DTD/svg11.dtd">
<!-- Generated by graphviz version 2.36.0 (20140111.2315)
 -->
<!-- Title: frontEnd.XMLHandler.read Pages: 1 -->
<svg width="1042pt" height="104pt"
 viewBox="0.00 0.00 1042.00 104.00" xmlns="http://www.w3.org/2000/svg" xmlns:xlink="http://www.w3.org/1999/xlink">
<g id="graph0" class="graph" transform="scale(1 1) rotate(0) translate(4 100)">
<title>frontEnd.XMLHandler.read</title>
<polygon fill="white" stroke="none" points="-4,4 -4,-100 1038,-100 1038,4 -4,4"/>
<!-- Node1 -->
<g id="node1" class="node"><title>Node1</title>
<polygon fill="#bfbfbf" stroke="black" points="0.5,-38.5 0.5,-57.5 141.5,-57.5 141.5,-38.5 0.5,-38.5"/>
<text text-anchor="middle" x="71" y="-45.5" font-family="Helvetica,sans-Serif" font-size="10.00">frontEnd.XMLHandler.read</text>
</g>
<!-- Node2 -->
<g id="node2" class="node"><title>Node2</title>
<g id="a_node2"><a xlink:href="../../dc/da1/classfront_end_1_1_animator_loop.html#a1f378b18807af5386266685e907aa8c7" target="_top" xlink:title="frontEnd.AnimatorLoop.read\lXMLAndInitializeGrid">
<polygon fill="white" stroke="black" points="178,-33 178,-63 330,-63 330,-33 178,-33"/>
<text text-anchor="start" x="186" y="-51" font-family="Helvetica,sans-Serif" font-size="10.00">frontEnd.AnimatorLoop.read</text>
<text text-anchor="middle" x="254" y="-40" font-family="Helvetica,sans-Serif" font-size="10.00">XMLAndInitializeGrid</text>
</a>
</g>
</g>
<!-- Node1&#45;&gt;Node2 -->
<g id="edge1" class="edge"><title>Node1&#45;&gt;Node2</title>
<path fill="none" stroke="midnightblue" d="M151.819,-48C160.491,-48 169.295,-48 177.907,-48"/>
<polygon fill="midnightblue" stroke="midnightblue" points="151.72,-44.5001 141.72,-48 151.72,-51.5001 151.72,-44.5001"/>
</g>
<!-- Node3 -->
<g id="node3" class="node"><title>Node3</title>
<g id="a_node3"><a xlink:href="../../dd/dbe/classfront_end_1_1_main.html#a7bae3127415fb2ae80975ebc95057e3f" target="_top" xlink:title="frontEnd.Main.readXML">
<polygon fill="white" stroke="black" points="366.5,-38.5 366.5,-57.5 493.5,-57.5 493.5,-38.5 366.5,-38.5"/>
<text text-anchor="middle" x="430" y="-45.5" font-family="Helvetica,sans-Serif" font-size="10.00">frontEnd.Main.readXML</text>
</a>
</g>
</g>
<!-- Node2&#45;&gt;Node3 -->
<g id="edge2" class="edge"><title>Node2&#45;&gt;Node3</title>
<path fill="none" stroke="midnightblue" d="M340.065,-48C348.959,-48 357.88,-48 366.457,-48"/>
<polygon fill="midnightblue" stroke="midnightblue" points="340.054,-44.5001 330.054,-48 340.054,-51.5001 340.054,-44.5001"/>
</g>
<!-- Node4 -->
<g id="node4" class="node"><title>Node4</title>
<g id="a_node4"><a xlink:href="../../dd/dbe/classfront_end_1_1_main.html#a55d59b110825a1cc153a0091a6e5cb99" target="_top" xlink:title="frontEnd.Main.makeMenu">
<polygon fill="white" stroke="black" points="530.5,-76.5 530.5,-95.5 669.5,-95.5 669.5,-76.5 530.5,-76.5"/>
<text text-anchor="middle" x="600" y="-83.5" font-family="Helvetica,sans-Serif" font-size="10.00">frontEnd.Main.makeMenu</text>
</a>
</g>
</g>
<!-- Node3&#45;&gt;Node4 -->
<g id="edge3" class="edge"><title>Node3&#45;&gt;Node4</title>
<path fill="none" stroke="midnightblue" d="M483.276,-59.8243C506.961,-65.1816 534.59,-71.4311 556.911,-76.4799"/>
<polygon fill="midnightblue" stroke="midnightblue" points="483.919,-56.3815 473.393,-57.589 482.375,-63.209 483.919,-56.3815"/>
</g>
<!-- Node6 -->
<g id="node6" class="node"><title>Node6</title>
<g id="a_node6"><a xlink:href="../../dd/dbe/classfront_end_1_1_main.html#a8e2e836903a64069e4283fa66309c704" target="_top" xlink:title="frontEnd.Main.resetSim">
<polygon fill="white" stroke="black" points="535.5,-0.5 535.5,-19.5 664.5,-19.5 664.5,-0.5 535.5,-0.5"/>
<text text-anchor="middle" x="600" y="-7.5" font-family="Helvetica,sans-Serif" font-size="10.00">frontEnd.Main.resetSim</text>
</a>
</g>
</g>
<!-- Node3&#45;&gt;Node6 -->
<g id="edge5" class="edge"><title>Node3&#45;&gt;Node6</title>
<path fill="none" stroke="midnightblue" d="M483.276,-36.1757C506.961,-30.8184 534.59,-24.5689 556.911,-19.5201"/>
<polygon fill="midnightblue" stroke="midnightblue" points="482.375,-32.791 473.393,-38.411 483.919,-39.6185 482.375,-32.791"/>
</g>
<!-- Node5 -->
<g id="node5" class="node"><title>Node5</title>
<g id="a_node5"><a xlink:href="../../dd/dbe/classfront_end_1_1_main.html#ae53f892716dcc60f3f49714496e30c91" target="_top" xlink:title="frontEnd.Main.start">
<polygon fill="white" stroke="black" points="926,-38.5 926,-57.5 1034,-57.5 1034,-38.5 926,-38.5"/>
<text text-anchor="middle" x="980" y="-45.5" font-family="Helvetica,sans-Serif" font-size="10.00">frontEnd.Main.start</text>
</a>
</g>
</g>
<!-- Node4&#45;&gt;Node5 -->
<g id="edge4" class="edge"><title>Node4&#45;&gt;Node5</title>
<path fill="none" stroke="midnightblue" d="M679.845,-83.8939C738.122,-81.5912 819.29,-76.8194 890,-67 906.588,-64.6964 924.698,-61.0429 940.226,-57.5524"/>
<polygon fill="midnightblue" stroke="midnightblue" points="679.462,-80.4058 669.602,-84.2825 679.728,-87.4007 679.462,-80.4058"/>
</g>
<!-- Node7 -->
<g id="node7" class="node"><title>Node7</title>
<g id="a_node7"><a xlink:href="../../dd/dbe/classfront_end_1_1_main.html#a0ff8a007311f8ecce84d4203dc85d669" target="_top" xlink:title="frontEnd.Main.makeParamControls">
<polygon fill="white" stroke="black" points="706.5,-38.5 706.5,-57.5 889.5,-57.5 889.5,-38.5 706.5,-38.5"/>
<text text-anchor="middle" x="798" y="-45.5" font-family="Helvetica,sans-Serif" font-size="10.00">frontEnd.Main.makeParamControls</text>
</a>
</g>
</g>
<!-- Node6&#45;&gt;Node7 -->
<g id="edge6" class="edge"><title>Node6&#45;&gt;Node7</title>
<path fill="none" stroke="midnightblue" d="M660.261,-21.4894C688.227,-26.9114 721.209,-33.3058 747.774,-38.4561"/>
<polygon fill="midnightblue" stroke="midnightblue" points="660.689,-18.0073 650.206,-19.54 659.357,-24.8794 660.689,-18.0073"/>
</g>
<!-- Node8 -->
<g id="node8" class="node"><title>Node8</title>
<g id="a_node8"><a xlink:href="../../dd/dbe/classfront_end_1_1_main.html#a1f4c19654fe78e5ebca54fc26bf43c94" target="_top" xlink:title="frontEnd.Main.useControls">
<polygon fill="white" stroke="black" points="726.5,-0.5 726.5,-19.5 869.5,-19.5 869.5,-0.5 726.5,-0.5"/>
<text text-anchor="middle" x="798" y="-7.5" font-family="Helvetica,sans-Serif" font-size="10.00">frontEnd.Main.useControls</text>
</a>
</g>
</g>
<!-- Node6&#45;&gt;Node8 -->
<g id="edge8" class="edge"><title>Node6&#45;&gt;Node8</title>
<path fill="none" stroke="midnightblue" d="M674.948,-10C691.749,-10 709.556,-10 726.222,-10"/>
<polygon fill="midnightblue" stroke="midnightblue" points="674.636,-6.5001 664.636,-10 674.636,-13.5001 674.636,-6.5001"/>
</g>
<!-- Node7&#45;&gt;Node3 -->
<g id="edge7" class="edge"><title>Node7&#45;&gt;Node3</title>
<path fill="none" stroke="midnightblue" d="M696.031,-48C631.19,-48 549.025,-48 493.502,-48"/>
<polygon fill="midnightblue" stroke="midnightblue" points="696.282,-51.5001 706.282,-48 696.282,-44.5001 696.282,-51.5001"/>
</g>
<!-- Node8&#45;&gt;Node5 -->
<g id="edge9" class="edge"><title>Node8&#45;&gt;Node5</title>
<path fill="none" stroke="midnightblue" d="M854.868,-21.6234C866.482,-24.0513 878.641,-26.6018 890,-29 904.531,-32.0681 920.391,-35.4447 934.644,-38.4897"/>
<polygon fill="midnightblue" stroke="midnightblue" points="855.34,-18.1466 844.836,-19.5282 853.909,-24.9987 855.34,-18.1466"/>
</g>
</g>
</svg>
