<?xml version="1.0" encoding="UTF-8" standalone="no"?>
<!DOCTYPE svg PUBLIC "-//W3C//DTD SVG 1.1//EN"
 "http://www.w3.org/Graphics/SVG/1.1/DTD/svg11.dtd">
<!-- Generated by graphviz version 2.36.0 (20140111.2315)
 -->
<!-- Title: frontEnd.XMLHandler.write Pages: 1 -->
<svg width="374pt" height="218pt"
 viewBox="0.00 0.00 374.00 218.00" xmlns="http://www.w3.org/2000/svg" xmlns:xlink="http://www.w3.org/1999/xlink">
<g id="graph0" class="graph" transform="scale(1 1) rotate(0) translate(4 214)">
<title>frontEnd.XMLHandler.write</title>
<polygon fill="white" stroke="none" points="-4,4 -4,-214 370,-214 370,4 -4,4"/>
<!-- Node1 -->
<g id="node1" class="node"><title>Node1</title>
<polygon fill="#bfbfbf" stroke="black" points="0,-95.5 0,-114.5 142,-114.5 142,-95.5 0,-95.5"/>
<text text-anchor="middle" x="71" y="-102.5" font-family="Helvetica,sans-Serif" font-size="10.00">frontEnd.XMLHandler.write</text>
</g>
<!-- Node2 -->
<g id="node2" class="node"><title>Node2</title>
<g id="a_node2"><a xlink:href="../../d5/d51/classfront_end_1_1_c_a_settings.html#ad1a35159c9a3b860bd4af0d12e40b169" target="_top" xlink:title="frontEnd.CASettings.getColumns">
<polygon fill="white" stroke="black" points="185,-190.5 185,-209.5 359,-209.5 359,-190.5 185,-190.5"/>
<text text-anchor="middle" x="272" y="-197.5" font-family="Helvetica,sans-Serif" font-size="10.00">frontEnd.CASettings.getColumns</text>
</a>
</g>
</g>
<!-- Node1&#45;&gt;Node2 -->
<g id="edge1" class="edge"><title>Node1&#45;&gt;Node2</title>
<path fill="none" stroke="midnightblue" d="M82.206,-114.632C100.108,-130.961 138.988,-163.961 178,-181 183.847,-183.554 190.053,-185.77 196.375,-187.692"/>
<polygon fill="midnightblue" stroke="midnightblue" points="195.799,-191.164 206.371,-190.476 197.677,-184.421 195.799,-191.164"/>
</g>
<!-- Node3 -->
<g id="node3" class="node"><title>Node3</title>
<g id="a_node3"><a xlink:href="../../d5/d51/classfront_end_1_1_c_a_settings.html#a9b6c355e48adf9a7db04c30c74aac53f" target="_top" xlink:title="frontEnd.CASettings.getGrid">
<polygon fill="white" stroke="black" points="196,-152.5 196,-171.5 348,-171.5 348,-152.5 196,-152.5"/>
<text text-anchor="middle" x="272" y="-159.5" font-family="Helvetica,sans-Serif" font-size="10.00">frontEnd.CASettings.getGrid</text>
</a>
</g>
</g>
<!-- Node1&#45;&gt;Node3 -->
<g id="edge2" class="edge"><title>Node1&#45;&gt;Node3</title>
<path fill="none" stroke="midnightblue" d="M95.6816,-114.59C116.959,-122.94 149.196,-134.939 178,-143 187.522,-145.665 197.689,-148.124 207.676,-150.328"/>
<polygon fill="midnightblue" stroke="midnightblue" points="207.061,-153.775 217.572,-152.445 208.525,-146.93 207.061,-153.775"/>
</g>
<!-- Node4 -->
<g id="node4" class="node"><title>Node4</title>
<g id="a_node4"><a xlink:href="../../d5/d51/classfront_end_1_1_c_a_settings.html#a560c336f7aed8050af9a606949926548" target="_top" xlink:title="frontEnd.CASettings.getParameters">
<polygon fill="white" stroke="black" points="178,-114.5 178,-133.5 366,-133.5 366,-114.5 178,-114.5"/>
<text text-anchor="middle" x="272" y="-121.5" font-family="Helvetica,sans-Serif" font-size="10.00">frontEnd.CASettings.getParameters</text>
</a>
</g>
</g>
<!-- Node1&#45;&gt;Node4 -->
<g id="edge3" class="edge"><title>Node1&#45;&gt;Node4</title>
<path fill="none" stroke="midnightblue" d="M142.16,-111.699C150.444,-112.49 159.026,-113.309 167.647,-114.132"/>
<polygon fill="midnightblue" stroke="midnightblue" points="167.482,-117.632 177.769,-115.099 168.147,-110.664 167.482,-117.632"/>
</g>
<!-- Node5 -->
<g id="node5" class="node"><title>Node5</title>
<g id="a_node5"><a xlink:href="../../d5/d51/classfront_end_1_1_c_a_settings.html#aef613fb5595d20d85dad92cf5f5efad9" target="_top" xlink:title="frontEnd.CASettings.getRows">
<polygon fill="white" stroke="black" points="194.5,-76.5 194.5,-95.5 349.5,-95.5 349.5,-76.5 194.5,-76.5"/>
<text text-anchor="middle" x="272" y="-83.5" font-family="Helvetica,sans-Serif" font-size="10.00">frontEnd.CASettings.getRows</text>
</a>
</g>
</g>
<!-- Node1&#45;&gt;Node5 -->
<g id="edge4" class="edge"><title>Node1&#45;&gt;Node5</title>
<path fill="none" stroke="midnightblue" d="M142.16,-98.3013C155.757,-97.0031 170.156,-95.6283 184.212,-94.2863"/>
<polygon fill="midnightblue" stroke="midnightblue" points="184.747,-97.7512 194.369,-93.3165 184.082,-90.7829 184.747,-97.7512"/>
</g>
<!-- Node6 -->
<g id="node6" class="node"><title>Node6</title>
<g id="a_node6"><a xlink:href="../../d5/d51/classfront_end_1_1_c_a_settings.html#a5c62b367ceda95101ac5ff5c3048cf1c" target="_top" xlink:title="frontEnd.CASettings.getType">
<polygon fill="white" stroke="black" points="195.5,-38.5 195.5,-57.5 348.5,-57.5 348.5,-38.5 195.5,-38.5"/>
<text text-anchor="middle" x="272" y="-45.5" font-family="Helvetica,sans-Serif" font-size="10.00">frontEnd.CASettings.getType</text>
</a>
</g>
</g>
<!-- Node1&#45;&gt;Node6 -->
<g id="edge5" class="edge"><title>Node1&#45;&gt;Node6</title>
<path fill="none" stroke="midnightblue" d="M95.6816,-95.4104C116.959,-87.0599 149.196,-75.061 178,-67 187.522,-64.3353 197.689,-61.876 207.676,-59.6721"/>
<polygon fill="midnightblue" stroke="midnightblue" points="208.525,-63.0697 217.572,-57.5553 207.061,-56.2245 208.525,-63.0697"/>
</g>
<!-- Node7 -->
<g id="node7" class="node"><title>Node7</title>
<g id="a_node7"><a xlink:href="../../d0/d87/classfront_end_1_1_x_m_l_handler.html#a28556434b6cf7a6f8a8505c03aca8336" target="_top" xlink:title="frontEnd.XMLHandler.writeGrid">
<polygon fill="white" stroke="black" points="191.5,-0.5 191.5,-19.5 352.5,-19.5 352.5,-0.5 191.5,-0.5"/>
<text text-anchor="middle" x="272" y="-7.5" font-family="Helvetica,sans-Serif" font-size="10.00">frontEnd.XMLHandler.writeGrid</text>
</a>
</g>
</g>
<!-- Node1&#45;&gt;Node7 -->
<g id="edge6" class="edge"><title>Node1&#45;&gt;Node7</title>
<path fill="none" stroke="midnightblue" d="M82.206,-95.3684C100.108,-79.0391 138.988,-46.0386 178,-29 183.847,-26.4462 190.053,-24.2303 196.375,-22.3085"/>
<polygon fill="midnightblue" stroke="midnightblue" points="197.677,-25.5792 206.371,-19.5242 195.799,-18.8359 197.677,-25.5792"/>
</g>
</g>
</svg>
