<?xml version="1.0" encoding="UTF-8" standalone="no"?>
<!DOCTYPE svg PUBLIC "-//W3C//DTD SVG 1.1//EN"
 "http://www.w3.org/Graphics/SVG/1.1/DTD/svg11.dtd">
<!-- Generated by graphviz version 2.36.0 (20140111.2315)
 -->
<!-- Title: frontEnd.XMLHandler.readGrid Pages: 1 -->
<svg width="1240pt" height="104pt"
 viewBox="0.00 0.00 1240.00 104.00" xmlns="http://www.w3.org/2000/svg" xmlns:xlink="http://www.w3.org/1999/xlink">
<g id="graph0" class="graph" transform="scale(1 1) rotate(0) translate(4 100)">
<title>frontEnd.XMLHandler.readGrid</title>
<polygon fill="white" stroke="none" points="-4,4 -4,-100 1236,-100 1236,4 -4,4"/>
<!-- Node1 -->
<g id="node1" class="node"><title>Node1</title>
<polygon fill="#bfbfbf" stroke="black" points="0.5,-38.5 0.5,-57.5 161.5,-57.5 161.5,-38.5 0.5,-38.5"/>
<text text-anchor="middle" x="81" y="-45.5" font-family="Helvetica,sans-Serif" font-size="10.00">frontEnd.XMLHandler.readGrid</text>
</g>
<!-- Node2 -->
<g id="node2" class="node"><title>Node2</title>
<g id="a_node2"><a xlink:href="../../d0/d87/classfront_end_1_1_x_m_l_handler.html#a5ec2b2b772a94660c130efe55a8d356e" target="_top" xlink:title="frontEnd.XMLHandler.read">
<polygon fill="white" stroke="black" points="198.5,-38.5 198.5,-57.5 339.5,-57.5 339.5,-38.5 198.5,-38.5"/>
<text text-anchor="middle" x="269" y="-45.5" font-family="Helvetica,sans-Serif" font-size="10.00">frontEnd.XMLHandler.read</text>
</a>
</g>
</g>
<!-- Node1&#45;&gt;Node2 -->
<g id="edge1" class="edge"><title>Node1&#45;&gt;Node2</title>
<path fill="none" stroke="midnightblue" d="M171.772,-48C180.733,-48 189.733,-48 198.441,-48"/>
<polygon fill="midnightblue" stroke="midnightblue" points="171.69,-44.5001 161.69,-48 171.69,-51.5001 171.69,-44.5001"/>
</g>
<!-- Node3 -->
<g id="node3" class="node"><title>Node3</title>
<g id="a_node3"><a xlink:href="../../dc/da1/classfront_end_1_1_animator_loop.html#a1f378b18807af5386266685e907aa8c7" target="_top" xlink:title="frontEnd.AnimatorLoop.read\lXMLAndInitializeGrid">
<polygon fill="white" stroke="black" points="376,-33 376,-63 528,-63 528,-33 376,-33"/>
<text text-anchor="start" x="384" y="-51" font-family="Helvetica,sans-Serif" font-size="10.00">frontEnd.AnimatorLoop.read</text>
<text text-anchor="middle" x="452" y="-40" font-family="Helvetica,sans-Serif" font-size="10.00">XMLAndInitializeGrid</text>
</a>
</g>
</g>
<!-- Node2&#45;&gt;Node3 -->
<g id="edge2" class="edge"><title>Node2&#45;&gt;Node3</title>
<path fill="none" stroke="midnightblue" d="M349.819,-48C358.491,-48 367.295,-48 375.907,-48"/>
<polygon fill="midnightblue" stroke="midnightblue" points="349.72,-44.5001 339.72,-48 349.72,-51.5001 349.72,-44.5001"/>
</g>
<!-- Node4 -->
<g id="node4" class="node"><title>Node4</title>
<g id="a_node4"><a xlink:href="../../dd/dbe/classfront_end_1_1_main.html#a7bae3127415fb2ae80975ebc95057e3f" target="_top" xlink:title="frontEnd.Main.readXML">
<polygon fill="white" stroke="black" points="564.5,-38.5 564.5,-57.5 691.5,-57.5 691.5,-38.5 564.5,-38.5"/>
<text text-anchor="middle" x="628" y="-45.5" font-family="Helvetica,sans-Serif" font-size="10.00">frontEnd.Main.readXML</text>
</a>
</g>
</g>
<!-- Node3&#45;&gt;Node4 -->
<g id="edge3" class="edge"><title>Node3&#45;&gt;Node4</title>
<path fill="none" stroke="midnightblue" d="M538.065,-48C546.959,-48 555.88,-48 564.457,-48"/>
<polygon fill="midnightblue" stroke="midnightblue" points="538.054,-44.5001 528.054,-48 538.054,-51.5001 538.054,-44.5001"/>
</g>
<!-- Node5 -->
<g id="node5" class="node"><title>Node5</title>
<g id="a_node5"><a xlink:href="../../dd/dbe/classfront_end_1_1_main.html#a55d59b110825a1cc153a0091a6e5cb99" target="_top" xlink:title="frontEnd.Main.makeMenu">
<polygon fill="white" stroke="black" points="728.5,-76.5 728.5,-95.5 867.5,-95.5 867.5,-76.5 728.5,-76.5"/>
<text text-anchor="middle" x="798" y="-83.5" font-family="Helvetica,sans-Serif" font-size="10.00">frontEnd.Main.makeMenu</text>
</a>
</g>
</g>
<!-- Node4&#45;&gt;Node5 -->
<g id="edge4" class="edge"><title>Node4&#45;&gt;Node5</title>
<path fill="none" stroke="midnightblue" d="M681.276,-59.8243C704.961,-65.1816 732.59,-71.4311 754.911,-76.4799"/>
<polygon fill="midnightblue" stroke="midnightblue" points="681.919,-56.3815 671.393,-57.589 680.375,-63.209 681.919,-56.3815"/>
</g>
<!-- Node7 -->
<g id="node7" class="node"><title>Node7</title>
<g id="a_node7"><a xlink:href="../../dd/dbe/classfront_end_1_1_main.html#a8e2e836903a64069e4283fa66309c704" target="_top" xlink:title="frontEnd.Main.resetSim">
<polygon fill="white" stroke="black" points="733.5,-0.5 733.5,-19.5 862.5,-19.5 862.5,-0.5 733.5,-0.5"/>
<text text-anchor="middle" x="798" y="-7.5" font-family="Helvetica,sans-Serif" font-size="10.00">frontEnd.Main.resetSim</text>
</a>
</g>
</g>
<!-- Node4&#45;&gt;Node7 -->
<g id="edge6" class="edge"><title>Node4&#45;&gt;Node7</title>
<path fill="none" stroke="midnightblue" d="M681.276,-36.1757C704.961,-30.8184 732.59,-24.5689 754.911,-19.5201"/>
<polygon fill="midnightblue" stroke="midnightblue" points="680.375,-32.791 671.393,-38.411 681.919,-39.6185 680.375,-32.791"/>
</g>
<!-- Node6 -->
<g id="node6" class="node"><title>Node6</title>
<g id="a_node6"><a xlink:href="../../dd/dbe/classfront_end_1_1_main.html#ae53f892716dcc60f3f49714496e30c91" target="_top" xlink:title="frontEnd.Main.start">
<polygon fill="white" stroke="black" points="1124,-38.5 1124,-57.5 1232,-57.5 1232,-38.5 1124,-38.5"/>
<text text-anchor="middle" x="1178" y="-45.5" font-family="Helvetica,sans-Serif" font-size="10.00">frontEnd.Main.start</text>
</a>
</g>
</g>
<!-- Node5&#45;&gt;Node6 -->
<g id="edge5" class="edge"><title>Node5&#45;&gt;Node6</title>
<path fill="none" stroke="midnightblue" d="M877.845,-83.8939C936.122,-81.5912 1017.29,-76.8194 1088,-67 1104.59,-64.6964 1122.7,-61.0429 1138.23,-57.5524"/>
<polygon fill="midnightblue" stroke="midnightblue" points="877.462,-80.4058 867.602,-84.2825 877.728,-87.4007 877.462,-80.4058"/>
</g>
<!-- Node8 -->
<g id="node8" class="node"><title>Node8</title>
<g id="a_node8"><a xlink:href="../../dd/dbe/classfront_end_1_1_main.html#a0ff8a007311f8ecce84d4203dc85d669" target="_top" xlink:title="frontEnd.Main.makeParamControls">
<polygon fill="white" stroke="black" points="904.5,-38.5 904.5,-57.5 1087.5,-57.5 1087.5,-38.5 904.5,-38.5"/>
<text text-anchor="middle" x="996" y="-45.5" font-family="Helvetica,sans-Serif" font-size="10.00">frontEnd.Main.makeParamControls</text>
</a>
</g>
</g>
<!-- Node7&#45;&gt;Node8 -->
<g id="edge7" class="edge"><title>Node7&#45;&gt;Node8</title>
<path fill="none" stroke="midnightblue" d="M858.261,-21.4894C886.227,-26.9114 919.209,-33.3058 945.774,-38.4561"/>
<polygon fill="midnightblue" stroke="midnightblue" points="858.689,-18.0073 848.206,-19.54 857.357,-24.8794 858.689,-18.0073"/>
</g>
<!-- Node9 -->
<g id="node9" class="node"><title>Node9</title>
<g id="a_node9"><a xlink:href="../../dd/dbe/classfront_end_1_1_main.html#a1f4c19654fe78e5ebca54fc26bf43c94" target="_top" xlink:title="frontEnd.Main.useControls">
<polygon fill="white" stroke="black" points="924.5,-0.5 924.5,-19.5 1067.5,-19.5 1067.5,-0.5 924.5,-0.5"/>
<text text-anchor="middle" x="996" y="-7.5" font-family="Helvetica,sans-Serif" font-size="10.00">frontEnd.Main.useControls</text>
</a>
</g>
</g>
<!-- Node7&#45;&gt;Node9 -->
<g id="edge9" class="edge"><title>Node7&#45;&gt;Node9</title>
<path fill="none" stroke="midnightblue" d="M872.948,-10C889.749,-10 907.556,-10 924.222,-10"/>
<polygon fill="midnightblue" stroke="midnightblue" points="872.636,-6.5001 862.636,-10 872.636,-13.5001 872.636,-6.5001"/>
</g>
<!-- Node8&#45;&gt;Node4 -->
<g id="edge8" class="edge"><title>Node8&#45;&gt;Node4</title>
<path fill="none" stroke="midnightblue" d="M894.031,-48C829.19,-48 747.025,-48 691.502,-48"/>
<polygon fill="midnightblue" stroke="midnightblue" points="894.282,-51.5001 904.282,-48 894.282,-44.5001 894.282,-51.5001"/>
</g>
<!-- Node9&#45;&gt;Node6 -->
<g id="edge10" class="edge"><title>Node9&#45;&gt;Node6</title>
<path fill="none" stroke="midnightblue" d="M1052.87,-21.6234C1064.48,-24.0513 1076.64,-26.6018 1088,-29 1102.53,-32.0681 1118.39,-35.4447 1132.64,-38.4897"/>
<polygon fill="midnightblue" stroke="midnightblue" points="1053.34,-18.1466 1042.84,-19.5282 1051.91,-24.9987 1053.34,-18.1466"/>
</g>
</g>
</svg>
