<?xml version="1.0" encoding="UTF-8" standalone="no"?>
<!DOCTYPE svg PUBLIC "-//W3C//DTD SVG 1.1//EN"
 "http://www.w3.org/Graphics/SVG/1.1/DTD/svg11.dtd">
<!-- Generated by graphviz version 2.36.0 (20140111.2315)
 -->
<!-- Title: frontEnd.XMLHandler.readParameters Pages: 1 -->
<svg width="1220pt" height="104pt"
 viewBox="0.00 0.00 1220.00 104.00" xmlns="http://www.w3.org/2000/svg" xmlns:xlink="http://www.w3.org/1999/xlink">
<g id="graph0" class="graph" transform="scale(1 1) rotate(0) translate(4 100)">
<title>frontEnd.XMLHandler.readParameters</title>
<polygon fill="white" stroke="none" points="-4,4 -4,-100 1216,-100 1216,4 -4,4"/>
<!-- Node1 -->
<g id="node1" class="node"><title>Node1</title>
<polygon fill="#bfbfbf" stroke="black" points="0.5,-33 0.5,-63 141.5,-63 141.5,-33 0.5,-33"/>
<text text-anchor="start" x="8.5" y="-51" font-family="Helvetica,sans-Serif" font-size="10.00">frontEnd.XMLHandler.read</text>
<text text-anchor="middle" x="71" y="-40" font-family="Helvetica,sans-Serif" font-size="10.00">Parameters</text>
</g>
<!-- Node2 -->
<g id="node2" class="node"><title>Node2</title>
<g id="a_node2"><a xlink:href="../../d0/d87/classfront_end_1_1_x_m_l_handler.html#a5ec2b2b772a94660c130efe55a8d356e" target="_top" xlink:title="frontEnd.XMLHandler.read">
<polygon fill="white" stroke="black" points="178.5,-38.5 178.5,-57.5 319.5,-57.5 319.5,-38.5 178.5,-38.5"/>
<text text-anchor="middle" x="249" y="-45.5" font-family="Helvetica,sans-Serif" font-size="10.00">frontEnd.XMLHandler.read</text>
</a>
</g>
</g>
<!-- Node1&#45;&gt;Node2 -->
<g id="edge1" class="edge"><title>Node1&#45;&gt;Node2</title>
<path fill="none" stroke="midnightblue" d="M151.581,-48C160.518,-48 169.571,-48 178.369,-48"/>
<polygon fill="midnightblue" stroke="midnightblue" points="151.56,-44.5001 141.56,-48 151.56,-51.5001 151.56,-44.5001"/>
</g>
<!-- Node3 -->
<g id="node3" class="node"><title>Node3</title>
<g id="a_node3"><a xlink:href="../../dc/da1/classfront_end_1_1_animator_loop.html#a1f378b18807af5386266685e907aa8c7" target="_top" xlink:title="frontEnd.AnimatorLoop.read\lXMLAndInitializeGrid">
<polygon fill="white" stroke="black" points="356,-33 356,-63 508,-63 508,-33 356,-33"/>
<text text-anchor="start" x="364" y="-51" font-family="Helvetica,sans-Serif" font-size="10.00">frontEnd.AnimatorLoop.read</text>
<text text-anchor="middle" x="432" y="-40" font-family="Helvetica,sans-Serif" font-size="10.00">XMLAndInitializeGrid</text>
</a>
</g>
</g>
<!-- Node2&#45;&gt;Node3 -->
<g id="edge2" class="edge"><title>Node2&#45;&gt;Node3</title>
<path fill="none" stroke="midnightblue" d="M329.819,-48C338.491,-48 347.295,-48 355.907,-48"/>
<polygon fill="midnightblue" stroke="midnightblue" points="329.72,-44.5001 319.72,-48 329.72,-51.5001 329.72,-44.5001"/>
</g>
<!-- Node4 -->
<g id="node4" class="node"><title>Node4</title>
<g id="a_node4"><a xlink:href="../../dd/dbe/classfront_end_1_1_main.html#a7bae3127415fb2ae80975ebc95057e3f" target="_top" xlink:title="frontEnd.Main.readXML">
<polygon fill="white" stroke="black" points="544.5,-38.5 544.5,-57.5 671.5,-57.5 671.5,-38.5 544.5,-38.5"/>
<text text-anchor="middle" x="608" y="-45.5" font-family="Helvetica,sans-Serif" font-size="10.00">frontEnd.Main.readXML</text>
</a>
</g>
</g>
<!-- Node3&#45;&gt;Node4 -->
<g id="edge3" class="edge"><title>Node3&#45;&gt;Node4</title>
<path fill="none" stroke="midnightblue" d="M518.065,-48C526.959,-48 535.88,-48 544.457,-48"/>
<polygon fill="midnightblue" stroke="midnightblue" points="518.054,-44.5001 508.054,-48 518.054,-51.5001 518.054,-44.5001"/>
</g>
<!-- Node5 -->
<g id="node5" class="node"><title>Node5</title>
<g id="a_node5"><a xlink:href="../../dd/dbe/classfront_end_1_1_main.html#a55d59b110825a1cc153a0091a6e5cb99" target="_top" xlink:title="frontEnd.Main.makeMenu">
<polygon fill="white" stroke="black" points="708.5,-76.5 708.5,-95.5 847.5,-95.5 847.5,-76.5 708.5,-76.5"/>
<text text-anchor="middle" x="778" y="-83.5" font-family="Helvetica,sans-Serif" font-size="10.00">frontEnd.Main.makeMenu</text>
</a>
</g>
</g>
<!-- Node4&#45;&gt;Node5 -->
<g id="edge4" class="edge"><title>Node4&#45;&gt;Node5</title>
<path fill="none" stroke="midnightblue" d="M661.276,-59.8243C684.961,-65.1816 712.59,-71.4311 734.911,-76.4799"/>
<polygon fill="midnightblue" stroke="midnightblue" points="661.919,-56.3815 651.393,-57.589 660.375,-63.209 661.919,-56.3815"/>
</g>
<!-- Node7 -->
<g id="node7" class="node"><title>Node7</title>
<g id="a_node7"><a xlink:href="../../dd/dbe/classfront_end_1_1_main.html#a8e2e836903a64069e4283fa66309c704" target="_top" xlink:title="frontEnd.Main.resetSim">
<polygon fill="white" stroke="black" points="713.5,-0.5 713.5,-19.5 842.5,-19.5 842.5,-0.5 713.5,-0.5"/>
<text text-anchor="middle" x="778" y="-7.5" font-family="Helvetica,sans-Serif" font-size="10.00">frontEnd.Main.resetSim</text>
</a>
</g>
</g>
<!-- Node4&#45;&gt;Node7 -->
<g id="edge6" class="edge"><title>Node4&#45;&gt;Node7</title>
<path fill="none" stroke="midnightblue" d="M661.276,-36.1757C684.961,-30.8184 712.59,-24.5689 734.911,-19.5201"/>
<polygon fill="midnightblue" stroke="midnightblue" points="660.375,-32.791 651.393,-38.411 661.919,-39.6185 660.375,-32.791"/>
</g>
<!-- Node6 -->
<g id="node6" class="node"><title>Node6</title>
<g id="a_node6"><a xlink:href="../../dd/dbe/classfront_end_1_1_main.html#ae53f892716dcc60f3f49714496e30c91" target="_top" xlink:title="frontEnd.Main.start">
<polygon fill="white" stroke="black" points="1104,-38.5 1104,-57.5 1212,-57.5 1212,-38.5 1104,-38.5"/>
<text text-anchor="middle" x="1158" y="-45.5" font-family="Helvetica,sans-Serif" font-size="10.00">frontEnd.Main.start</text>
</a>
</g>
</g>
<!-- Node5&#45;&gt;Node6 -->
<g id="edge5" class="edge"><title>Node5&#45;&gt;Node6</title>
<path fill="none" stroke="midnightblue" d="M857.845,-83.8939C916.122,-81.5912 997.29,-76.8194 1068,-67 1084.59,-64.6964 1102.7,-61.0429 1118.23,-57.5524"/>
<polygon fill="midnightblue" stroke="midnightblue" points="857.462,-80.4058 847.602,-84.2825 857.728,-87.4007 857.462,-80.4058"/>
</g>
<!-- Node8 -->
<g id="node8" class="node"><title>Node8</title>
<g id="a_node8"><a xlink:href="../../dd/dbe/classfront_end_1_1_main.html#a0ff8a007311f8ecce84d4203dc85d669" target="_top" xlink:title="frontEnd.Main.makeParamControls">
<polygon fill="white" stroke="black" points="884.5,-38.5 884.5,-57.5 1067.5,-57.5 1067.5,-38.5 884.5,-38.5"/>
<text text-anchor="middle" x="976" y="-45.5" font-family="Helvetica,sans-Serif" font-size="10.00">frontEnd.Main.makeParamControls</text>
</a>
</g>
</g>
<!-- Node7&#45;&gt;Node8 -->
<g id="edge7" class="edge"><title>Node7&#45;&gt;Node8</title>
<path fill="none" stroke="midnightblue" d="M838.261,-21.4894C866.227,-26.9114 899.209,-33.3058 925.774,-38.4561"/>
<polygon fill="midnightblue" stroke="midnightblue" points="838.689,-18.0073 828.206,-19.54 837.357,-24.8794 838.689,-18.0073"/>
</g>
<!-- Node9 -->
<g id="node9" class="node"><title>Node9</title>
<g id="a_node9"><a xlink:href="../../dd/dbe/classfront_end_1_1_main.html#a1f4c19654fe78e5ebca54fc26bf43c94" target="_top" xlink:title="frontEnd.Main.useControls">
<polygon fill="white" stroke="black" points="904.5,-0.5 904.5,-19.5 1047.5,-19.5 1047.5,-0.5 904.5,-0.5"/>
<text text-anchor="middle" x="976" y="-7.5" font-family="Helvetica,sans-Serif" font-size="10.00">frontEnd.Main.useControls</text>
</a>
</g>
</g>
<!-- Node7&#45;&gt;Node9 -->
<g id="edge9" class="edge"><title>Node7&#45;&gt;Node9</title>
<path fill="none" stroke="midnightblue" d="M852.948,-10C869.749,-10 887.556,-10 904.222,-10"/>
<polygon fill="midnightblue" stroke="midnightblue" points="852.636,-6.5001 842.636,-10 852.636,-13.5001 852.636,-6.5001"/>
</g>
<!-- Node8&#45;&gt;Node4 -->
<g id="edge8" class="edge"><title>Node8&#45;&gt;Node4</title>
<path fill="none" stroke="midnightblue" d="M874.031,-48C809.19,-48 727.025,-48 671.502,-48"/>
<polygon fill="midnightblue" stroke="midnightblue" points="874.282,-51.5001 884.282,-48 874.282,-44.5001 874.282,-51.5001"/>
</g>
<!-- Node9&#45;&gt;Node6 -->
<g id="edge10" class="edge"><title>Node9&#45;&gt;Node6</title>
<path fill="none" stroke="midnightblue" d="M1032.87,-21.6234C1044.48,-24.0513 1056.64,-26.6018 1068,-29 1082.53,-32.0681 1098.39,-35.4447 1112.64,-38.4897"/>
<polygon fill="midnightblue" stroke="midnightblue" points="1033.34,-18.1466 1022.84,-19.5282 1031.91,-24.9987 1033.34,-18.1466"/>
</g>
</g>
</svg>
