<?xml version="1.0" encoding="UTF-8" standalone="no"?>
<!DOCTYPE svg PUBLIC "-//W3C//DTD SVG 1.1//EN"
 "http://www.w3.org/Graphics/SVG/1.1/DTD/svg11.dtd">
<!-- Generated by graphviz version 2.36.0 (20140111.2315)
 -->
<!-- Title: frontEnd.XMLHandler.write Pages: 1 -->
<svg width="824pt" height="38pt"
 viewBox="0.00 0.00 824.00 38.00" xmlns="http://www.w3.org/2000/svg" xmlns:xlink="http://www.w3.org/1999/xlink">
<g id="graph0" class="graph" transform="scale(1 1) rotate(0) translate(4 34)">
<title>frontEnd.XMLHandler.write</title>
<polygon fill="white" stroke="none" points="-4,4 -4,-34 820,-34 820,4 -4,4"/>
<!-- Node1 -->
<g id="node1" class="node"><title>Node1</title>
<polygon fill="#bfbfbf" stroke="black" points="0,-5.5 0,-24.5 142,-24.5 142,-5.5 0,-5.5"/>
<text text-anchor="middle" x="71" y="-12.5" font-family="Helvetica,sans-Serif" font-size="10.00">frontEnd.XMLHandler.write</text>
</g>
<!-- Node2 -->
<g id="node2" class="node"><title>Node2</title>
<g id="a_node2"><a xlink:href="../../dc/da1/classfront_end_1_1_animator_loop.html#abeeeb7294620845e96455930decbd7bf" target="_top" xlink:title="frontEnd.AnimatorLoop.write\lToXML">
<polygon fill="white" stroke="black" points="178.5,-0 178.5,-30 331.5,-30 331.5,-0 178.5,-0"/>
<text text-anchor="start" x="186.5" y="-18" font-family="Helvetica,sans-Serif" font-size="10.00">frontEnd.AnimatorLoop.write</text>
<text text-anchor="middle" x="255" y="-7" font-family="Helvetica,sans-Serif" font-size="10.00">ToXML</text>
</a>
</g>
</g>
<!-- Node1&#45;&gt;Node2 -->
<g id="edge1" class="edge"><title>Node1&#45;&gt;Node2</title>
<path fill="none" stroke="midnightblue" d="M152.26,-15C160.98,-15 169.832,-15 178.492,-15"/>
<polygon fill="midnightblue" stroke="midnightblue" points="152.106,-11.5001 142.106,-15 152.106,-18.5001 152.106,-11.5001"/>
</g>
<!-- Node3 -->
<g id="node3" class="node"><title>Node3</title>
<g id="a_node3"><a xlink:href="../../dd/dbe/classfront_end_1_1_main.html#ae2ce98421793cead4539f6a0e9e63160" target="_top" xlink:title="frontEnd.Main.writeXML">
<polygon fill="white" stroke="black" points="368,-5.5 368,-24.5 496,-24.5 496,-5.5 368,-5.5"/>
<text text-anchor="middle" x="432" y="-12.5" font-family="Helvetica,sans-Serif" font-size="10.00">frontEnd.Main.writeXML</text>
</a>
</g>
</g>
<!-- Node2&#45;&gt;Node3 -->
<g id="edge2" class="edge"><title>Node2&#45;&gt;Node3</title>
<path fill="none" stroke="midnightblue" d="M341.923,-15C350.623,-15 359.344,-15 367.742,-15"/>
<polygon fill="midnightblue" stroke="midnightblue" points="341.74,-11.5001 331.74,-15 341.74,-18.5001 341.74,-11.5001"/>
</g>
<!-- Node4 -->
<g id="node4" class="node"><title>Node4</title>
<g id="a_node4"><a xlink:href="../../dd/dbe/classfront_end_1_1_main.html#a55d59b110825a1cc153a0091a6e5cb99" target="_top" xlink:title="frontEnd.Main.makeMenu">
<polygon fill="white" stroke="black" points="532.5,-5.5 532.5,-24.5 671.5,-24.5 671.5,-5.5 532.5,-5.5"/>
<text text-anchor="middle" x="602" y="-12.5" font-family="Helvetica,sans-Serif" font-size="10.00">frontEnd.Main.makeMenu</text>
</a>
</g>
</g>
<!-- Node3&#45;&gt;Node4 -->
<g id="edge3" class="edge"><title>Node3&#45;&gt;Node4</title>
<path fill="none" stroke="midnightblue" d="M506.13,-15C514.81,-15 523.648,-15 532.264,-15"/>
<polygon fill="midnightblue" stroke="midnightblue" points="506.035,-11.5001 496.035,-15 506.035,-18.5001 506.035,-11.5001"/>
</g>
<!-- Node5 -->
<g id="node5" class="node"><title>Node5</title>
<g id="a_node5"><a xlink:href="../../dd/dbe/classfront_end_1_1_main.html#ae53f892716dcc60f3f49714496e30c91" target="_top" xlink:title="frontEnd.Main.start">
<polygon fill="white" stroke="black" points="708,-5.5 708,-24.5 816,-24.5 816,-5.5 708,-5.5"/>
<text text-anchor="middle" x="762" y="-12.5" font-family="Helvetica,sans-Serif" font-size="10.00">frontEnd.Main.start</text>
</a>
</g>
</g>
<!-- Node4&#45;&gt;Node5 -->
<g id="edge4" class="edge"><title>Node4&#45;&gt;Node5</title>
<path fill="none" stroke="midnightblue" d="M681.995,-15C690.667,-15 699.338,-15 707.591,-15"/>
<polygon fill="midnightblue" stroke="midnightblue" points="681.842,-11.5001 671.841,-15 681.841,-18.5001 681.842,-11.5001"/>
</g>
</g>
</svg>
