<?xml version="1.0" encoding="UTF-8" standalone="no"?>
<!DOCTYPE svg PUBLIC "-//W3C//DTD SVG 1.1//EN"
 "http://www.w3.org/Graphics/SVG/1.1/DTD/svg11.dtd">
<!-- Generated by graphviz version 2.36.0 (20140111.2315)
 -->
<!-- Title: backEnd.SpreadingFire Pages: 1 -->
<svg width="461pt" height="290pt"
 viewBox="0.00 0.00 461.00 290.00" xmlns="http://www.w3.org/2000/svg" xmlns:xlink="http://www.w3.org/1999/xlink">
<g id="graph0" class="graph" transform="scale(1 1) rotate(0) translate(4 286)">
<title>backEnd.SpreadingFire</title>
<polygon fill="white" stroke="none" points="-4,4 -4,-286 457,-286 457,4 -4,4"/>
<!-- Node1 -->
<g id="node1" class="node"><title>Node1</title>
<polygon fill="#bfbfbf" stroke="black" points="328.5,-0.5 328.5,-19.5 453.5,-19.5 453.5,-0.5 328.5,-0.5"/>
<text text-anchor="middle" x="391" y="-7.5" font-family="Helvetica,sans-Serif" font-size="10.00">backEnd.SpreadingFire</text>
</g>
<!-- Node2 -->
<g id="node2" class="node"><title>Node2</title>
<g id="a_node2"><a xlink:href="../../d1/dfc/classback_end_1_1_rule_set.html" target="_top" xlink:title="backEnd.RuleSet">
<polygon fill="white" stroke="black" points="217,-58.5 217,-77.5 313,-77.5 313,-58.5 217,-58.5"/>
<text text-anchor="middle" x="265" y="-65.5" font-family="Helvetica,sans-Serif" font-size="10.00">backEnd.RuleSet</text>
</a>
</g>
</g>
<!-- Node2&#45;&gt;Node1 -->
<g id="edge1" class="edge"><title>Node2&#45;&gt;Node1</title>
<path fill="none" stroke="midnightblue" d="M293.404,-54.376C317.291,-43.7596 350.796,-28.8685 371.683,-19.5852"/>
<polygon fill="midnightblue" stroke="midnightblue" points="291.853,-51.235 284.137,-58.4948 294.696,-57.6317 291.853,-51.235"/>
</g>
<!-- Node3 -->
<g id="node3" class="node"><title>Node3</title>
<g id="a_node3"><a xlink:href="../../db/d5e/classback_end_1_1_patch.html" target="_top" xlink:title="backEnd.Patch">
<polygon fill="white" stroke="black" points="143,-126.5 143,-145.5 229,-145.5 229,-126.5 143,-126.5"/>
<text text-anchor="middle" x="186" y="-133.5" font-family="Helvetica,sans-Serif" font-size="10.00">backEnd.Patch</text>
</a>
</g>
</g>
<!-- Node3&#45;&gt;Node2 -->
<g id="edge2" class="edge"><title>Node3&#45;&gt;Node2</title>
<path fill="none" stroke="#9a32cd" stroke-dasharray="5,2" d="M191.377,-116.533C194.198,-109.402 198.287,-101.624 204,-96 212.418,-87.7128 223.812,-81.7432 234.474,-77.5599"/>
<polygon fill="#9a32cd" stroke="#9a32cd" points="187.998,-115.597 188.108,-126.191 194.629,-117.841 187.998,-115.597"/>
<text text-anchor="middle" x="232" y="-99.5" font-family="Helvetica,sans-Serif" font-size="10.00"> myPatches</text>
</g>
<!-- Node4 -->
<g id="node4" class="node"><title>Node4</title>
<polygon fill="white" stroke="#bfbfbf" points="171.5,-194.5 171.5,-213.5 234.5,-213.5 234.5,-194.5 171.5,-194.5"/>
<text text-anchor="middle" x="203" y="-201.5" font-family="Helvetica,sans-Serif" font-size="10.00">Rectangle</text>
</g>
<!-- Node4&#45;&gt;Node3 -->
<g id="edge3" class="edge"><title>Node4&#45;&gt;Node3</title>
<path fill="none" stroke="midnightblue" d="M198.216,-184.425C194.963,-171.798 190.807,-155.662 188.277,-145.841"/>
<polygon fill="midnightblue" stroke="midnightblue" points="194.894,-185.561 200.778,-194.372 201.673,-183.815 194.894,-185.561"/>
</g>
<!-- Node5 -->
<g id="node5" class="node"><title>Node5</title>
<g id="a_node5"><a xlink:href="../../d0/d08/classback_end_1_1_cell.html" target="_top" xlink:title="backEnd.Cell">
<polygon fill="white" stroke="black" points="76.5,-194.5 76.5,-213.5 153.5,-213.5 153.5,-194.5 76.5,-194.5"/>
<text text-anchor="middle" x="115" y="-201.5" font-family="Helvetica,sans-Serif" font-size="10.00">backEnd.Cell</text>
</a>
</g>
</g>
<!-- Node5&#45;&gt;Node3 -->
<g id="edge4" class="edge"><title>Node5&#45;&gt;Node3</title>
<path fill="none" stroke="#9a32cd" stroke-dasharray="5,2" d="M130.113,-186.679C136.929,-179.533 145.187,-171.163 153,-164 159.984,-157.597 168.234,-150.847 174.738,-145.697"/>
<polygon fill="#9a32cd" stroke="#9a32cd" points="127.191,-184.677 122.889,-194.359 132.29,-189.473 127.191,-184.677"/>
<text text-anchor="middle" x="171" y="-167.5" font-family="Helvetica,sans-Serif" font-size="10.00"> myCell</text>
</g>
<!-- Node6 -->
<g id="node6" class="node"><title>Node6</title>
<polygon fill="white" stroke="#bfbfbf" points="52.5,-262.5 52.5,-281.5 177.5,-281.5 177.5,-262.5 52.5,-262.5"/>
<text text-anchor="middle" x="115" y="-269.5" font-family="Helvetica,sans-Serif" font-size="10.00">List&lt; backEnd.State &gt;</text>
</g>
<!-- Node6&#45;&gt;Node5 -->
<g id="edge5" class="edge"><title>Node6&#45;&gt;Node5</title>
<path fill="none" stroke="#9a32cd" stroke-dasharray="5,2" d="M115,-252.041C115,-239.472 115,-223.563 115,-213.841"/>
<polygon fill="#9a32cd" stroke="#9a32cd" points="111.5,-252.372 115,-262.372 118.5,-252.372 111.5,-252.372"/>
<text text-anchor="middle" x="141" y="-235.5" font-family="Helvetica,sans-Serif" font-size="10.00"> myHistory</text>
</g>
<!-- Node7 -->
<g id="node7" class="node"><title>Node7</title>
<polygon fill="white" stroke="#bfbfbf" points="-0.5,-126.5 -0.5,-145.5 124.5,-145.5 124.5,-126.5 -0.5,-126.5"/>
<text text-anchor="middle" x="62" y="-133.5" font-family="Helvetica,sans-Serif" font-size="10.00">Map&lt; String, Object &gt;</text>
</g>
<!-- Node7&#45;&gt;Node2 -->
<g id="edge6" class="edge"><title>Node7&#45;&gt;Node2</title>
<path fill="none" stroke="#9a32cd" stroke-dasharray="5,2" d="M84.3441,-121.331C98.8881,-112.957 118.524,-102.613 137,-96 162.659,-86.8162 192.388,-80.3096 216.733,-75.9882"/>
<polygon fill="#9a32cd" stroke="#9a32cd" points="82.4252,-118.399 75.5852,-126.49 85.978,-124.431 82.4252,-118.399"/>
<text text-anchor="middle" x="164.5" y="-99.5" font-family="Helvetica,sans-Serif" font-size="10.00"> myParams</text>
</g>
<!-- Node8 -->
<g id="node8" class="node"><title>Node8</title>
<polygon fill="white" stroke="#bfbfbf" points="382,-126.5 382,-145.5 438,-145.5 438,-126.5 382,-126.5"/>
<text text-anchor="middle" x="410" y="-133.5" font-family="Helvetica,sans-Serif" font-size="10.00">Random</text>
</g>
<!-- Node8&#45;&gt;Node1 -->
<g id="edge10" class="edge"><title>Node8&#45;&gt;Node1</title>
<path fill="none" stroke="#9a32cd" stroke-dasharray="5,2" d="M423.6,-117.743C425.41,-114.65 426.988,-111.343 428,-108 429.546,-102.896 429.087,-101.221 428,-96 421.832,-66.3778 404.769,-34.4221 396.139,-19.5357"/>
<polygon fill="#9a32cd" stroke="#9a32cd" points="420.571,-115.972 417.807,-126.2 426.346,-119.928 420.571,-115.972"/>
<text text-anchor="middle" x="434.5" y="-65.5" font-family="Helvetica,sans-Serif" font-size="10.00"> rand</text>
</g>
<!-- Node8&#45;&gt;Node2 -->
<g id="edge7" class="edge"><title>Node8&#45;&gt;Node2</title>
<path fill="none" stroke="#9a32cd" stroke-dasharray="5,2" d="M392.247,-120.156C381.906,-112.104 368.313,-102.499 355,-96 338.728,-88.0566 319.646,-81.9256 303.251,-77.5286"/>
<polygon fill="#9a32cd" stroke="#9a32cd" points="390.102,-122.922 400.092,-126.452 394.484,-117.463 390.102,-122.922"/>
<text text-anchor="middle" x="400" y="-99.5" font-family="Helvetica,sans-Serif" font-size="10.00"> gridCoord</text>
</g>
<!-- Node9 -->
<g id="node9" class="node"><title>Node9</title>
<g id="a_node9"><a xlink:href="../../d3/dea/classback_end_1_1_state.html" target="_top" xlink:title="backEnd.State">
<polygon fill="white" stroke="black" points="247,-126.5 247,-145.5 333,-145.5 333,-126.5 247,-126.5"/>
<text text-anchor="middle" x="290" y="-133.5" font-family="Helvetica,sans-Serif" font-size="10.00">backEnd.State</text>
</a>
</g>
</g>
<!-- Node9&#45;&gt;Node2 -->
<g id="edge8" class="edge"><title>Node9&#45;&gt;Node2</title>
<path fill="none" stroke="#9a32cd" stroke-dasharray="5,2" d="M272.431,-118.764C269.826,-115.468 267.512,-111.828 266,-108 262.119,-98.1727 262.596,-85.8402 263.562,-77.705"/>
<polygon fill="#9a32cd" stroke="#9a32cd" points="269.878,-121.159 279.217,-126.163 275.037,-116.427 269.878,-121.159"/>
<text text-anchor="middle" x="310.5" y="-99.5" font-family="Helvetica,sans-Serif" font-size="10.00"> myPossibleStates</text>
</g>
<!-- Node10 -->
<g id="node10" class="node"><title>Node10</title>
<polygon fill="white" stroke="#bfbfbf" points="269.5,-194.5 269.5,-213.5 310.5,-213.5 310.5,-194.5 269.5,-194.5"/>
<text text-anchor="middle" x="290" y="-201.5" font-family="Helvetica,sans-Serif" font-size="10.00">Color</text>
</g>
<!-- Node10&#45;&gt;Node9 -->
<g id="edge9" class="edge"><title>Node10&#45;&gt;Node9</title>
<path fill="none" stroke="#9a32cd" stroke-dasharray="5,2" d="M290,-184.041C290,-171.472 290,-155.563 290,-145.841"/>
<polygon fill="#9a32cd" stroke="#9a32cd" points="286.5,-184.372 290,-194.372 293.5,-184.372 286.5,-184.372"/>
<text text-anchor="middle" x="311.5" y="-167.5" font-family="Helvetica,sans-Serif" font-size="10.00"> myColor</text>
</g>
</g>
</svg>
